/* XPM */
static char *result[] = {
/* columns rows colors chars-per-pixel */
"68 67 123 2 ",
"   c #1F1509",
".  c #281705",
"X  c #24150E",
"o  c #29170D",
"O  c #251B0B",
"+  c #29190C",
"@  c #261911",
"#  c #2A1B14",
"$  c #2E231D",
"%  c #322417",
"&  c #3C2F1C",
"*  c #3D2F22",
"=  c #3F3225",
"-  c #3C332B",
";  c #45301F",
":  c #423423",
">  c #443926",
",  c #4B3925",
"<  c #433329",
"1  c #463A2A",
"2  c #4A3C2C",
"3  c #463D36",
"4  c #483F36",
"5  c #4A4135",
"6  c #534536",
"7  c #594D3D",
"8  c #564845",
"9  c #5D534B",
"0  c #675644",
"q  c #6A5443",
"w  c #6A5941",
"e  c #62554C",
"r  c #615650",
"t  c #6A5C53",
"y  c #716555",
"u  c #75645D",
"i  c #766A5C",
"p  c #7C6C5C",
"a  c #7E715D",
"s  c #7D6C64",
"d  c #7E7261",
"f  c #806C57",
"g  c #826B5D",
"h  c #83725E",
"j  c #806D66",
"k  c #847263",
"l  c #8A7B66",
"z  c #83766D",
"x  c #8D7E6A",
"c  c #8E7E74",
"v  c #8F806B",
"b  c #92826D",
"n  c #8D8175",
"m  c #958376",
"M  c #998375",
"N  c #978B74",
"B  c #9B8B75",
"V  c #96847B",
"C  c #98867D",
"Z  c #9C8B7C",
"A  c #9E927C",
"S  c #A1927D",
"D  c #AD9C7E",
"F  c #B59E7F",
"G  c #BB9E7F",
"H  c #BBA37E",
"J  c #9A8780",
"K  c #9D8A81",
"L  c #AF9680",
"P  c #A49882",
"I  c #AB9A86",
"U  c #A19588",
"Y  c #A19889",
"T  c #AC9C89",
"R  c #B69E83",
"E  c #BA9F84",
"W  c #B39E8B",
"Q  c #BA9F89",
"!  c #B29F91",
"~  c #AFA08C",
"^  c #B6A284",
"/  c #BBA286",
"(  c #BAA887",
")  c #B5A28B",
"_  c #BDA58A",
"`  c #BEA98C",
"'  c #AFA291",
"]  c #B4A593",
"[  c #BBA693",
"{  c #B7AA95",
"}  c #BDAB92",
"|  c #B6A79A",
" . c #BAA79D",
".. c #B6AA9B",
"X. c #BDAC9A",
"o. c #BFB09C",
"O. c #BBAFA1",
"+. c #C1A486",
"@. c #C2A986",
"#. c #C2A68C",
"$. c #C2AA8D",
"%. c #C9AA8F",
"&. c #C2A692",
"*. c #C3AB92",
"=. c #C9AD92",
"-. c #C3AE9A",
";. c #C8AE9B",
":. c #C2B195",
">. c #CBB196",
",. c #C4B29B",
"<. c #CAB49C",
"1. c #C7B89B",
"2. c #CBB99E",
"3. c #C4B3A2",
"4. c #CCB5A4",
"5. c #C5B8A5",
"6. c #CCB9A3",
"7. c #CEBDA8",
"8. c #D0B7A3",
"9. c #D1B8A4",
"0. c #D7BEA8",
"q. c #D2C2AE",
"w. c #CFC2B2",
/* pixels */
"X X X X X X X X X X X X X O X X X X X X X X X X X X X X X X X X X X X X X X X X X X X X X X X X X X X X X X X O X X X X X o X X X X X X ",
"X 4.#.$.$.$.4.<.9.<.9.4.} 9.1.-.<.<.<.,.7.P o b q.<.6.1.<.1.<.<.<.<.>.<.1.2.<.<.<.<.1.<.,.<.1.<.2.<.<.,.<.<.<.,.,.<.<.2.>.<.<.<.4.5.O.X ",
"X 4.&._ #.=._ W #.E #.#.R :.` ^ ` / _ $.R B X f ,._ ( / / +.+._ ( / / H _ +._ / E / $./ _ +.+.` +._ +./ +.$.$.` / _ +.+.+._ _ / { [ ' X ",
"X 4.&.#.#.-.&._ #.#.+.#./ *.*.^ $./ ( ( } m X l } R E W ^ / _ _ ^ / _ _ _ / ^ _ ( / / / / ^ / / / / / _ / / ^ / _ / ^ / E _ Q E _ _ T X ",
"X 4.&.#.#.%.#._ #.+.+.#.E *.$.^ $.^ _ H ` V X v 1._ #.` _ #.$.` ` ` $._ @.` ` $.$.$.$.$.$.*.&.$.$.$.$.*.$.*.*.$.$.$.$.$.#.=.#.#.$.*.] X ",
"X 4.#.#.#.=.&.] #.+.+.%.E -.} ^ %./ +./ *.C X n 4.` -.#.$.$.*.$.$.$.&.$.$.%.$.$.&.*.*.*.$.$.$.$.$.$.&.$.%.:.$.$.$.$.:.%.&.=.=.&.*.-.) O ",
"X 4.&.#.#.=.&._ &.#.+.#./ *.:.^ $./ @.^ ` C X l :.R / / E E / / ^ / / / / ` / ^ / ( _ / ( / ` / ( / / / / _ / / / / ` / / _ E _ #.( T X ",
"X 4.&.#.#.=.&._ &.@.#.#./ :.$.^ $./ $.` :.J X l ,.` #._ _ ` ` #._ ` ` #.$._ $._ _ $.$.$.$._ _ $._ $._ ` ` $.$.` $.` #.$.$.&.#.#.$.` ] X ",
"X 4.#.#.#.*.&.] $.$.+.#.E *.:.^ $./ @./ $.V X l -.E _ E R E / E E / / / / / / / / / / / E E / / / / E E / / / ^ / / / ^ / #.Q E / ( T X ",
"X 8.&.#.#.>.&._ $._ +.%.E =.*.^ %./ _ / :.C X l :.Q _ _ / / ` ` _ / _ ( _ _ _ / _ _ _ #.` ` ` _ $.$.` ` #.$.$.` ` _ ` $.$.#.#.#.#.} ] X ",
"X 4.&.#.#.=.&./ ` _ / #./ *.$.^ $.^ / H ` C X l :./ #._ ` / ` #.` ` _ / ` ` #./ ` _ $.` / / ` #._ _ ` E ` #.#.` ( / #.$._ #._ E #.} ~ X ",
"X 4.#.#.#.*.} _ #.#.+.%./ :.` ^ $.^ +._ $.C X v } / E _ / / / / E / / _ / / / / _ / / / / / / _ / ` / ` / _ / ` _ _ ( / / Q #.E / ( ~ X ",
"X 4.&.#.#.&.&._ $.#.+.%.Q *.*.^ $.( @.@.} C X b ,.` _ / ` _ ` ` / ` $.` ` / ` _ ` _ #.` #.$.$._ ` ` _ #.` _ ` #.` ` ` $.#.#._ #.$.` ) X ",
"X 4.#.#.#.=.&._ $.#.+.#.Q *.:.^ %./ $./ *.C X b o.` #.#.#.$.#.$.#.#.&.$.$.$.$.#.$.$.*.$.$.$.$.$.$.$.$.$.=.$.#.$.$.$.$.%.$.=.&.=.*.-.] X ",
"X 4.&.#.+.=.*._ #.#.+.#./ *.*.^ %./ +./ ` C X v } _ _ E E / / / / / / E ` / _ / / / #.E / R / E _ / / / / / _ / / / / / E Q Q / ` / T X ",
"X 4.#.#.#.-.} _ #./ +.#./ :.} ^ $.^ _ ^ } C X b } E _ _ / _ ` ` ` / ` ` #.` _ ` ` ` ` _ ` ` ` ` #._ ` ` ` ` #./ ` ` ` #.` #.#.#.$.` ~ X ",
"X 4.&.#.#.%.&.Q ` +./ %.E *.} ^ $.^ +./ $.C X v } / / E R E / / / E E / / / E / / / / _ _ / / / / / / / _ / / / / / / / / Q E E / ) ~ X ",
"X 4.#.#.#.%.&.Q #._ +.#./ *.` ^ %./ @./ } C X x } W _ _ / _ ` #.` / _ ` ` #.` _ ` ` _ #._ / ` ` _ ` _ _ _ _ _ ` _ ` ` ` ` #._ #._ ` ] X ",
"X 4.&.Q +.=.&._ $.$.+.%.E *.} ^ $./ +._ } V X l [ _ _ / R E / / / E E E / _ _ E E / _ _ / E / ` _ ` / / ( / / ) E _ / ` _ Q Q E _ ` ~ X ",
"X 4.&.#.Q =.&.] ` +.+.$.E *.*.^ $./ %.$.-.V X n 3.[ [ _ _ #.#.` _ / / #._ Q _ Q _ #._ ( ` ^ &.` ` E $.( } ( ` ] ( ( _ ] [  .[ [ } { ] X ",
"X 4.#.#.#.=.&._ _ _ +.%./ >.` ^ $.E #./ ` c X z | ] W W W ) ) ) W W W _ ) W ] Q W W W I T ! W L R _ I W ] T ) ) ~ ) ~ ) ] ! ! ! ~ T Y X ",
"X 4.#.#.#.=.[ / $.#.G +./ *.} H %.+.+./ -.C X X X X X X X X X X X X X X X X X X X X X X X X X X X X X X X X X X X X X X X X X X X X X X ",
"X 4.#.#.#.-.[ / _ #.+.$./ -.` ^ %.G _ / [ m X 1 6 , 2 5 5 5 5 3 3 4 4 4 3 3 4 4 3 3 4 3 - X 9 9 9 9 t e 9 r 9 r 9 e e q 0 q 0 q q w 7 X ",
"X 4.#.#.+.=.[ _ $.+.+.#.R *.` ^ @.E #._ } C X i 5.} $.:.-.*.*.*.} } *.-.&.X.} *.&. .-.O.< X 4.4.;.&.8.4.-.4.-.3.<.;.3.<.-.;.-.;.,.,.' X ",
"X 4.&.&.#.#.&._ _ +.#.%.E *.-.^ @./ %.H -.m X y 7._ *.*.@.%.%.#.$.$.#.%.%.+.%.#.#.#.=.[ : X ;.Q &.+.*.*.^ &./ $._ _ @.*.^ [ Q &._ [ U X ",
"X 4.#.#._ =.&._ } / H $./ *.*.H $.^ +.$.} m X a 5.( _ =.%.#.+.%.#.%.%.%.#.#.#.#.+.%.=.&.: X } _ %.F >.$.^ %.E $.+.+.%.:.^ &.Q &.( -.I X ",
"X 8.&.Q #.=.[ ) #.+.H #./ *._ F @./ / G ` m X i :.$.` %.%.@.@.%.%.#.%.%.%.#.%.#.#.#.-.[ ; X :.( $./ *.$.H %.^ $./ / $.$.E &._ Q E } I X ",
"X 8.#.Q #.=.&._ ` +.+.+.^ *.} H @.G _ _ $.b X p 1.` / %.$./ %./ #.+.+.$.+.+.#.+.+._ -.] = X o.) _ / >.} ^ } ) _ ( / $.%./ &.Q #./ _ T X ",
"X 4.&.#.#.%._ _ #./ +.@.E =.} ^ $.^ #._ ` m X p 1.` #.%.$.@.$._ $.$.$.$.#.#.` @.#.#.-.| - X ;.! } _ -.&.Q } _ } _ ( $.$./ #.#.#._ _ I X ",
"X 4.#.#.#.%.&.[ #.+.+.+.E =.` H $./ #.+.` M O p <.` #.$.$.$.=.&.&.#.&.=.#.=.$.&.&.&.-. .< X -.&.*._ $.=.#.&._ &.$.` $.%./ &.#.%._ ` T X ",
"X 4.&.Q #.%.&.Q _ / +.%.G *.*.^ $./ +./ *.V X p 3.` #.=.*.#.=._ *.&.=.*.$.&.&.&.&.&.;. .< X ;.&.%.Q %.%.Q %.#.#.#.#.$.$.+.&.Q #._ } T X ",
"X 4.&.Q #.%.&.Q $._ +.+.^ *.*.^ $./ #./ } V X p 4.#.#.$.*.$.$._ $.$.$.*.` &.` $.&.Q -. .< X ;.&.&.Q =.=._ &.Q &._ _ =.%./ &._ #./ ` I X ",
"X 4.#.+.#.=.] _ #.+.+.@.E =.} H $.E #./ _ V X p <.#.$.%.%.( %.( $.` ` %.` $.` _ #.` -.| < X -.[ #.#.=.&.E =.Q _ _ _ $.:.( #._ #./ } I X ",
"X 4.&.#.#.&.#._ #.H +.+.G -.` F $.E _ E &.V X p <.` #.%.$.@.@._ $.$.$.%.( $.$.+.#.#.-.[ < X -._ _ Q =.#.^ $./ ` ` ) $.$._ $.Q #./ [ T X ",
"X 4.#./ +.#.` / #./ +.+.F =.$.F #.E #./ } M X g 3.#.+.$.%.( $.+.%.$.$.$.#.#.$.#.#.#.*.[ : X -._ $./ %.%.E $./ #.` / $.$./ &._ &.` _ I X ",
"X 4.#._ +.#.#.#.@.H @.@.F #.%.H @.H #._ } M X g <.#.+.%.%.%.%.%.%.#.%.%.#.=.#.$.#.$.;.| = X :._ =./ %.$._ $.( $.( / $.$._ } / &.#.&.I X ",
"X 4.&.E +.=._ #.+.H H +.H $.#.G @.H / / } M X j 4.( $.$.=.@.$.#.%.$.$.$.+.$.+.#.#.#.=.{ : X -.[ #._ =.=._ #._ $.` / $.$./ } ) $.#.#.I X ",
"X 4.&._ $.;._ Q $.` / ` ^ :.` R %./ ( ) [ V X p 4.` ( $.:.( ` ( ` @.:.$._ $./ $.( ( -.] * X X._ #.E =.$.#.$./ #.( / %.$./ } ^ #._ &.I X ",
"X 4.&.Q &.&.Q Q ` / H / ^ } [ R ` H ^ ^ { V X p 3.` ( ` $.( ` ( ( ( $.` ( @.( ( / ( } | : X X.Q &.Q =.$./ =.E #._ / %.$./ ` ^ ` E #.I X ",
"X 4.#._ #.&.&._ #._ ` ` W &.&.Q [ ^ ` ] | C X s 4.` ` $.%.+.$.@.%.@.@.$._ $.$.$.` #.&.] * X -._ #.E *.$./ #.E #.+./ $.$./ &.R #./ #.I X ",
"X 4.&._ / $.` _ ( / ` $.R $.&./ _ R ` ) [ M o g 3._ ` %.%./ #.#.$.+.@.%.+.$.#.$.#.#.=.] * X -.[ =.Q =.#.#.$./ #._ / $.$./ ` ^ $.Q #.I X ",
"X 4._ ( / ` _ ) ` ^ ^ ( R #.#.R #.G / ` } b X g <.` $.#.$./ #.+.$./ $.$./ #.+.#.+.+.*.| * X X._ =._ =.$.E #._ $.+./ $.$./ $.^ $.` #.I X ",
"X 0.] } >.4.<.X.1.o.} :.` 6.<.&.<.$.:.} ,.B X j 7.>.*.<.8.>.<.<.<.<.<.8.;.2.=.<.;.;.6.O.< X -.#.&.E =.=.#.#./ $.$./ @.$./ ` ) $._ #.I X ",
"X c p k k k z k h a a a d d s j j p p d z e X 8 z p h s j s s s j s s s s u s u u i i u * X X.] _ E =.$./ #.E _ _ / %.$./ ` ^ _ E _ I X ",
"X % O . . o @ o O . . O O @ # # # + O   @ $ X $ $   # O @ @ @ @ O @ O # # # # # # # # $ % X } Q #.E >.=.E #._ #._ / $.$.E _ ) ` E _ I X ",
"X U m B B B Z Z B N N N B K K K Z B B A N U U J A B S A A S A A S K A S P P P P P I Y U 2 X } [ &.Q =.$./ $./ #._ _ @.$./ } ^ #./ &.W X ",
"X w.X.} } X.-.-.,.o.o.` o.,.;.-.-.-.-.1.} o.| ] <.,.:.$.} } :.:.*.} ` :.o.:.*.} &.:.:.X.1 X 4._ _ #.$.$./ #./ #.+./ $.%./ ` / #./ #.W X ",
"X { } ( ( ) _ [ ` ( ( / ` $.&.&.Q _ _ $.( ` ` ` #./ $.( ` @.@.@.` @.` $.@.( / ( _ ( ` 3.6 X { &.=.Q #.=.E $._ $.@./ $.*./ ` ) #._ &.I X ",
"X o.D ^ ^ / / _ / / H H / ` #.Q Q #./ +._ E / [ E E +.E ( H ^ / / H / H H / / H ^ H W ! * X 3._ #.R ;.%./ $./ #._ / $.$./ ` ^ $./ #.I X ",
"X 7.$._ #.#.#.&.` $.@.( $.` &.&.&.$.$.#.$.$.$.*.*.$./ %.$.$.$.$.$.$.$.$.$.$.$.$.$.$.} 3.3 X -.L #.#.#.$.E $.Q ` #./ $.$./ ` ^ ` / _ I X ",
"X 6.` ` #.=.-.#.$.$.@.$.$.&.&.&.*.=.%.$.( $.*.&.$.%.@.%.$.$.*.$.$.$.$.%.$.$.$.%.$.$.*.3.1 X } [ =.E =.=.E #.E ` / / %.$./ ` ^ #.^ ` I X ",
"X o.` / _ Q E _ _ / / / / _ Q _ / / ^ _ _ / ( / ` ` ( / _ +._ / _ ( ^ @.( ` +./ H ^ / { > X } ( ` E *.$./ $./ $.#.^ @.$.^ _ / #./ ` I X ",
"X :.` ` ( _ [ #.` _ ( #.` [ #.` [ _ #.[ [ _ #._ #.$.&._ $.$.$.$.$.@.@.%.@.%.+.+.%.#.$.{ > X -.} #./ %.$./ $./ &.` ( $.$.^ #./ $./ ` I X ",
"X :.( ^ / / / / ( / / _ _ _ _ _ _ _ _ _ / _ _ _ _ / / / / _ / ` _ / ^ ^ / ^ / / H ^ / { 1 X } ` &./ =.&.` &./ &./ / $.$./ _ / _ / ` I X ",
"X :.^ ` [ [ #.#.$.` ` [ _ &.[ _ &._ _ &.[ #.[ &.[ &.[ _ ` $.` _ _ _ @.$.#.$.#.#.$.$.$...1 X } ) _ E =.=./ &./ _ ( / $.$.^ #.Q _ ^ ` T X ",
"X ,.( / / _ _ / _ ( / Q _ _ [ _ Q _ _ [ _ _ _ _ _ _ _ _ / ) / ( _ / ( #.` _ ` ( / ( ` X.2 X X._ _ _ =.&._ [ / [ _ / &.$.^ #.Q ` ^ ] I X ",
"X 1.^ ( _ _ #._ _ _ ` ` ` #.#.[ ` _ #.#._ _ _ _ #._ ` ` ` _ ` _ } ` _ _ _ ` ` / / _ ( ] 1 X ,.[ [ E =.#.Q &.W #._ / $.$.^ $.Q ` / _ I X ",
"X :.^ ^ E / / ^ / / ^ _ / _ _ E E ` _ Q _ Q / / Q _ / _ _ _ _ ` ( _ _ ` _ #.` _ _ ` _ | 1 X -._ #.E =.=.Q #./ =.&._ ` $.^ ` Q #./ _ I X ",
"X 2.` ` $.*.=.` $.$.$.$.*.$.#.$.$.%.*.$.#.$.*.%.$.=.$.*.*.*.*.*.-.=.&.$.$.$.$.%.*.%.-.o.1 X -._ &.E %.=._ #./ $.#./ ` %.^ &./ &.` } I X ",
"X 1./ _ _ _ ` #.( ( ` / ( @._ #._ @.( @.#._ _ @.$.$._ ` #.&.#.#.#./ / $.%.` +.#.+.#.` X.1 X *.^ #.#.#.$.E =.^ _ ` E $.$.) &._ #.^ ) ' X ",
"X } D ( Q Q Q / / / ^ F / / ^ H ^ ^ / / / / ^ / / / H / _ #.` _ / / _ _ ^ / / E ^ / / ) : X :./ / / =.%.G $.R ^ / G ` ` ^ [ Q _ W _ I X ",
"X 1.( ` _ _ _ [ } _ ( ` ( $.( _ ( ` @.` @.( ( ` ` ` _ ` _ #.#._ #.#._ _ #.#.%.+.#.#.$.) 5 X } ) $./ $.$.^ $./ ` $.^ $.$./ &.Q #./ } I X ",
"O :.^ ^ Q Q Q / / W ) ^ ^ ) / / ^ ^ ) ( / ^ ^ ^ / ( ^ ( ` _ _ _ _ _ _ _ / E ^ / / ` ( { & O -._ _ R %.` R ` ^ / @.^ ` ` Q [ W _ E _ P X ",
"X } ) ( _ _ [ _ _ _ ( ) ` _ _ ( ` ) / ) _ ( ) ) _ _ ( ) W ] _ _ ) / / &._ ` _ _ ` ` ` X.= X ,.) _ / $.$./ &.^ ` ` / ` [ _ &.Q #.` } T X ",
"X 1.( ) _ Q _ _ _ _ W ) ) _ _ ) _ ) ) _ _ ) ) ) ( _ ` [ ) } } [ } _ ) } _ ) ) _ _ } ] ..= O X.) } [ #.$.W } R _ _ ^ _ ` ) &.Q Q E [ P X ",
"X 6.` -.-.;.;.;.=.-.-.;.-.,.X.,.o.,.o.X.o.,.,.,.-.o.X.X.X.X.X.-.X.,.X.<.,.,.o.-.o.-.X.X.5 X 5.<.-.&.0.8.&.6.X.<.<.-.<.6.*.<.;.<.&.<.X.X ",
"X X X X X X X X X X X X X X X X X X X X X X X X X X X X X X X X X X X X X X X X X X X X X X X X X X X X X X X X X X X X X X X X X X X X "
};
