/* XPM */
static char *result[] = {
/* columns rows colors chars-per-pixel */
"102 51 108 2 ",
"   c #0D0A07",
".  c #17120E",
"X  c #18140E",
"o  c #1A1612",
"O  c #221B14",
"+  c #291F18",
"@  c #2F271F",
"#  c #312A1F",
"$  c #2D2623",
"%  c #2F2925",
"&  c #2B2929",
"*  c #332A25",
"=  c #392F24",
"-  c #352C2A",
";  c #392F2D",
":  c #373327",
">  c #3A3227",
",  c #36312C",
"<  c #3B332D",
"1  c #382F30",
"2  c #3D3532",
"3  c #3E3932",
"4  c #3F3638",
"5  c #40362D",
"6  c #433C2F",
"7  c #403733",
"8  c #423A34",
"9  c #483E33",
"0  c #4D4336",
"q  c #4F4836",
"w  c #47423A",
"e  c #4E443A",
"r  c #52463B",
"t  c #54493D",
"y  c #594D3D",
"u  c #564B41",
"i  c #5A4E45",
"p  c #5C5245",
"a  c #5E5449",
"s  c #635547",
"d  c #62564A",
"f  c #65594D",
"g  c #695B4E",
"h  c #665B51",
"j  c #6A5D54",
"k  c #6C6054",
"l  c #6F6159",
"z  c #706053",
"x  c #71645B",
"c  c #75695D",
"v  c #7A6C5F",
"b  c #756A61",
"n  c #7C6E61",
"m  c #7E7163",
"M  c #817365",
"N  c #857868",
"B  c #91826F",
"V  c #8E8173",
"C  c #928474",
"Z  c #9D8E76",
"A  c #958B7B",
"S  c #9E8E7A",
"D  c #9F9176",
"F  c #9E937C",
"G  c #A08F7F",
"H  c #A69172",
"J  c #AB9477",
"K  c #A3937C",
"L  c #AD957B",
"P  c #AE997C",
"I  c #B1967C",
"U  c #B39A7E",
"Y  c #9C9082",
"T  c #A59582",
"R  c #AA9684",
"E  c #AB9A84",
"W  c #AC9B89",
"Q  c #B29780",
"!  c #B59C82",
"~  c #B99E84",
"^  c #B29D8A",
"/  c #BA9F89",
"(  c #B6A083",
")  c #BAA285",
"_  c #BCA887",
"`  c #B5A38C",
"'  c #BDA48A",
"]  c #BEA98C",
"[  c #ADA191",
"{  c #B5A491",
"}  c #B9A691",
"|  c #B5A897",
" . c #BCAA93",
".. c #BCAB99",
"X. c #C0A68C",
"o. c #C3AA8E",
"O. c #C8AD8F",
"+. c #C1A690",
"@. c #C5AC92",
"#. c #C9AE94",
"$. c #C2AE9A",
"%. c #C9AF98",
"&. c #C6B193",
"*. c #CAB195",
"=. c #C6B199",
"-. c #CCB399",
";. c #D0B89C",
":. c None",
/* pixels */
"o - - , > > < > > > > < < < < ; < < < ; ; ; < < ; ; < 7 - , < ; ; - , ; ; ; ; ; - , ; ; ; - , ; * - ; ; - , - - ; - , , ; ; ; - - - - - - - , 2 ; - ; ; , < , < , * - - , - - ; - - - - - , ; 5 # 5 # # * :.",
"  , p f d d s s f g d d s g f f f g f s s s f f d f f g m m n n n n m v n m n n n m n n M n m m n v n n m m v m n v M m n M M n m m m m m m m M m n m m v m M N V C V A C V C C V V V C C C C N B B C N e :.",
"X u W .. . . . .}  .........+.+.......{ } .... . . .+... .{ { ' ` { } ` ` } } ` ] { ] ` ` ` { } { ] } } ` } ` } ] `  .} ` } ' { ) { { ] } ` ` } { ` { ] _ } } ) ] ` ` ] ` ( ]  .) ` ]  .{ { ^ } } ^ +.{ u < ",
"X > T W T P P J L ^ ^ R P P E ! P Q P L L U U P L ! U J P ! P P L U ! P P ! U P U E P P L L P U L L P P L U L L L J ^ P L P P L L P P I P L P U P P L L P U J P L J H U L H L ( J J P I L R L L I J R T y 5 ",
"X y T E U _ U U / / / Q ) ~ ~ ~ / ~ ~ ! U ) ' U ! ' / I ~ U ' ~ I ~ ) ~ U ) ( U / ) U ~ U U ) ) U U ! ~ U ) ! ~ ~ U ' ' U ) U U I / ) U ) U U ' _ U ~ ~ U ( U U _ U U ' ( P U _ U U ~ I ~ / U ) ! ^ ! W r 7 ",
"O t `  .] ] O.O.+.@.%.+.@.%.] @.@.%.X.-.+.%.+.+. .-.X.+.%.%.+.%.#.-.+.+.#.-.@.] %.+.X.%.*.-.%.X.-.&.%.X.@.#.#.+.@.-.@.%.@.$.&.O.@.%.X.+.@.@.-.*.@.@.%.@.] #.+.X.o.%.#.%.&.@.*.#.+.#.o.X.X.#.O.O.O.o.$.| d 7 ",
"o q ` ] _ _ o.O.o.X.X./ +.+.} +.+.+.+.@.+.+.' ' ' +./ o.X.X.X.+.+.@.} / ' X.' } #.X./ +.+.@.X.^ } / X./ +.' } / +.@.X.' / / ' / +.+./ } +.+.+.' ^ X./ ' ' ' ' ' ) X.+.X./ ) ] / / X.' ~ X./ X.o.U U ' R p 7 ",
"X 0 W ( U U U o./ I L / Q Q ! / Q ! ^ / ' ) I U ^ I ^ X.^ ! ! X.' ] Q L / I Q / ' Q ^ ] / X.) L ^ I Q ! ' ! / ! ' +./ ! Q ^ L Q ' ~ ^ ) ' ( ] I I / Q Q / ! Q / ! ! X.~ L U ! L ! ~ ! U X.U ~ ) I I ~ S i 2 ",
"X r } ^ ~ X.X.O.X.~ U X.) / ' X.) X.o.o.o._ U _ ' U ) X.) ' X.o.+.o.) ~ X.U ) _ ) U o.X.' O.) U X.U U ' o.U X.X.] +.] ) _ X.I ) O.' ) X.X.o.O.) _ o._ U O.U U o.X.) O.X.U O._ U _ _ U _ +.] X.o.) ' ..W a 7 ",
"o d $.X.#.#.O.O.#.O.o.O.O.] o.O.o.O.O.O.O.O.o.O.O._ O.O.O.O.O.*.#.O.O.O.O.O.O.&.o.O.*.&.O.O.o.O.*.O.O.O.O.o.O.O.O.#.O.o.O.&._ O.*.O.O.O.o.O.O.&.O.o.O.O.O.o.o.&.o.o.O.O.&.*.O._ O.O.o.o.@.@.X.X.#.#.+.} d 3 ",
"O s ^ ^ ) X.X.~ / X.X.) o.X._ _ X.o.o.) ) U _ o.o.U X._ U _ X.~ ) U _ ' ) U ' ' U X.X.U ) _ U ' _ _ ) ) _ U X.~ U U U ) _ _ U U X.U U _ U _ J U o.U U o.U U ) ) U U U U ) ' U ~ X.U U _ ( ' ~ U ( ( T W d 2 ",
"+ s R R Q U U I I U U U I U U I / ! ! I U P ' U U U ~ U U U ~ Q U L ~ ~ I U U I U U U U U U I / U I ! U U U ! ! ~ U U ~ U I U ) U U ! / U ) I U ) J U _ U U / ! ( ( U U ~ ~ I ! ~ I U ) Q Q U I ! Q H T d 2 ",
"@ z W ' X.X.O.X.) X.O.X.) ' +.) @.o.+.O.X.) %./ ' ' +.) o.X.@.' @.' +.+.X.X.X.X.X.o.+.O.+.X.X.%.) ' +.o.X.X.+.o.+.o.X.@.+./ +.O./ X.X.+.X.@.+.X.O.o.) +.' / %.+.O.@./ +.%.+./ +.o./ O.+.] / +.#.] +.) [ h 7 ",
"$ x ^ -.#.O.@.%.*.&.O.O.O.O.+.#.%.O.+.%.-.O.%.#.#.O.@.] #.O.+.O.*.*.#.+.@.%.#.X.O.&.@.o.-.%.O.#.*.O.+.#.O.#.+.@.#.O.%.#.@.#.+.#.X.O.+.@.+.@.*.%.o.#.-.+.o.#.%.X.@.*.X.*.+.*.X.%.O.o.%.+.] @.+.%.O.X.&. .d 8 ",
"- j R ' X.U ( ' ] ) ) X.' ) ' ' X.~ / X.' ) X.~ ~ X.X./ X.X./ ~ ' X.) U X.X./ ~ ' ' ) U X.~ ) / ) ) ~ ) U / ! ~ / ! X.U U ) ) ) U X.~ / ~ ! ) ) ~ ~ ) ! ~ ~ / U / ) U ~ ) U ! ~ ~ ! ! ~ Q ~ Q ' U I ^ R i 4 ",
", f R Q U U P E ( ^ U U ! I U ~ U I U ! I ! U I I ! U U U U U I U ~ ! J ~ U U I U U U I ~ I ) U U ~ I / I ~ ! U ~ U / U I ~ U U U U U ~ I I ~ U I I I I U ~ U I ~ U ~ ~ ~ J ! I ! I L U ~ Q ! ^ U P P K i 3 ",
"- d ^ ' ~ ~ ' ] } ' ( U X.) ) X.) X.O.X./ X.~ ~ ' / ~ X.X.) X.X.X.X.X.U X./ U X.) ) X.X.X.X.X./ / ) ~ ) / X.~ X.X.X.X.X.! X.~ ~ X.X.! X./ X.o.X./ ) X.~ ' X.! / X.) X.X.X.! ) ! ' ' ) ) X.X.' +.X.) ) ` a 3 ",
"- a } +.X.O.%.-.&.$.O.O.&.o.%.*.O.#.-.#.*.#.O.#.-.O.X.-.#.O.#.-.#.#.#.O.#.O.O.#.@.O.O.%.#.*.O.O.O.O.#.X.O.O.X.#.O.-.@.@.#.#.O.O.*.#.X.O.#.#.@.O.@.#.O.X.O.O.X.O.+.O.%.O.O.-.+.O.o.#.+.' #.+.%.+.o.O. .} h 3 ",
", p ` ] U X.X.} ' ( X.o.) / ) ) ~ ) X./ X./ ~ X.X.! ! o./ ! / X.X.U / X.X.~ ) X.~ ~ ) X.) O.U X.' / X.~ X./ U X.U o.! ! X.X./ ~ X.) ! ~ ~ / U ! ) / ~ / / ~ ~ ~ ~ ~ ' / ~ O.~ X.U ) ) ! / ~ +./ U X.) W h 1 ",
"- a { ' o.+.@.@.] _ O.*.O.#.#.O.o.@.@.O.#.O.O.#.@.o.O.@.O.O.O.@.@.o.O.#.#.X.#.#.X.O.*.+.O.+.X.@.#.O.+.O.o.O.#.X.O.O.X.o.@.o.O.o.#.X.X.O.O.O.O.o.#.O.O.#.O.X.O.O.X.X.o.O.+.O.o.O.O.X.X.+.X.] @.+.o.O.] ) j - ",
"1 h $.+.O.O.*.*.$.@.O.O.o.#.#.O.@.#.#.#.O.O.#.%.O.O.@.@.O.%.+.O.O.O.o.%.O.o.@.%.X.o.%.O.O.O.+.#.#.O.O.%.X.X.-.X.#.X.O.#.#.O.@.@.O.X.#.O.X.#.+.O.#.#.X.#.#.X.#.#.X.O.X.O.-.X.#.O.#.O.X.-.$.] @.+.#.*. .} l - ",
", f / +.X.O.X.] ] ] ] ) o.X.@.X.O.O.) X.' X.+.) X.X.X.' X.O.' X.X.) X.X.X.X.X.X.' o.O./ X./ O.X.' ' X.o.X.X.) X.X.X.X.X./ X.X.X./ X.X.X.~ #.) X.O.~ X.X.) X.X.~ X.X.! O.) I X.X.! X.o.' ) ) / ' ) U ( ^ a * ",
"- i L I U U ! R U ( U I I U U I I ! I U I U ~ I I U U I I U I U U I I U I I U I I U U I U J ~ U J U ! I I I U I I I I ~ I I U I I ! I U I U I U U J I I I I U I I I L ! I J I ~ L I U L I ~ Q Q ) I J E f * ",
", a R ~ ~ ) / ! ~ ) X.I / X.~ ~ / X.X.) U X.) U U X.X.U ) / ) ) ) ~ X./ U ~ X.~ ) ) ~ / X.U X.X.U ) X.! U X.X.~ X./ / O.! U O.~ U X.! ) X.~ ) X.' ~ / X.U X.X.U ) X./ X.X.X.U X.) U ' ~ ~ +.Q / o.U R W h & ",
"2 k { @.O.#.#.@.=.&.#.X.@.*.@.@.#.O.%.#.O.#.o.#.X.%.O.o.*.+.#.*.O.O.-.O.O.#.#.O.%.#.O.#.%.O.#.#.X.#.*.X.O.%.+.O.O.O.O.#.O.O.%.@.+.*.O.O.*.o.#.#.O.O.#.%.o.#.#.o.O.#.O.#.O.#.X.+.#.O.#.o.o.*.%.#.*.o.X.] h - ",
", a W ' o.X.X.#.$.] ) ' ) X.X.o.O.! X.O.o.X./ ) ) X.) ' O.) ' O.X.X.X.U / X.~ X.o.X.) X.X.X.' ~ ) ) ) ) ' X.) ) O.X./ X.U ) ~ ) ' ) X./ X.) O.) U X.~ ) ) X.) / ~ X.X.X.U ~ X.U / o.) ) ) ) ' +.) U ( R h & ",
"- d W ~ ) U ~ ] ] U I U U ~ ~ ' ) ! ! X.X.) U ~ U U ~ ) ~ ~ ~ ' X.X.~ I ~ U U ~ ) ) ~ ) ) X.~ U ~ I I ~ ) ~ ~ ) ) X./ ! I ! I U ~ U ' U ' ) X.U I / U I / ~ ~ ~ ~ ) X.~ U U ) I U ) I ~ ( ~ ) X.I J ! K a & ",
", f ` ' X.O.+.$.&._ X.O.) X.X.X.o.O.X.@.#.o.X.' X.X.X.@.X.o.X.#.@.o.X./ X.~ X.X.o.X.o.o.X.#.' X.o.) ' X.O.' O.+.o.O.#.X.X.o.X.o.O.o.#.O.O.+.+.X.X.X.) ) O.X.) O.X.X.#.X.X.X.X.X.' X.' ] +.@.+.$.X._ ] ` f * ",
"- h  .%.o.#.-.$.&.$.O.O.O.#.*.o.@.-.+.#.#.#.*.#.*.@.#.O.#.*.+.#.&.+.#.#.#.O.O.%.o.o.#.#.#.o.O.*.%.X.#.#.#.X.*.*.' o.*.#.@.O.@.O.o.+.O.+.X.#.o.@.#.#.O.+.#.] ' &.+.X.#.o.#.O.X.#.#.' O.#.o.+.X.+.O.o. .} h , ",
"& p W ) ) U ) ' E ! _ ) ! _ _ ) ~ X._ ~ ~ ( ] ! U X.U ) ) ) _ U ~ ( U ) U ) ~ ~ ( U ! ( ) P ~ ) ~ U U ) P ) U ) ! U ~ ( / U ! U ( U ! P ! _ ! U ) U L ) ( U U I ) I U U U ! I ~ U U I ~ I ! Q ! U I J T a * ",
", u E ! I I ~ Q P ( ' U U ) ) U ~ ~ ~ ~ P I _ U U ) ~ U ( ~ ( ! ~ U U _ P ! U U ~ ~ ~ ( ~ P U ) ~ U ) ~ U ( ~ ( U P U U ) U ~ U ( U ( ! U ! U U ( ! I _ U ( ~ U U U U U ~ ! I ~ U U I ~ U U ! ! U U P J h * ",
", a ` ' O.O.O.X.] &.@._ X.+.' X.O.O.] #.X.' #.o.) #.#.' o.#.] @.o.o.o.#.' #.O.X.] @.o.o.#.@.X.&.' ' &.) ] @.o.o.@.o.#.#.o.X.o.X.o.] @.o.o.o.@.@.#.o.o.O.' o.o.o.o.*.X.#.@.o.o.O.' o.O.X.X.O.+.O.O.O._ ` j - ",
", f } +.-.&.@.=.*.*.&.O.*.&.o.#.*.&.@.-.*.&.*.*.@.&.#.o.@.&.@.*.*.&.-.&.#.*.&.o.#.&.&.o.-.&.*.*.o.+.*.o.#.@.#.o.*.&.-.*.#.#.&.] @.@.#.o.&.&.*.-.&.o.&.#.] #.*.o.] -.#.*.#.o.*.#.X.#.#.X.O.o.@.%.O.&.@. .j * ",
"- d ^ ) X.~ / ` ] o.U U ' ) ( ) ' ( ( ] ~ ' _ ~ ] ( ~ _ ' _ ( ' ' _ ] U ) ' ) ( ) ) ) ~ ' ~ o.) U ] ) ( ) ) ( ! _ ! _ ~ ! ) ( ~ ( ) ~ ( U ~ ) ' ! ~ ) ( U ) ( ~ I ' Q ) U U ) ~ U ) / I ( U / ) U P U ` f * ",
"- p R ~ I U ) ! ` ( U I ) ~ ! ( ) ~ ~ ) U ' U U ' ~ P ) ( ~ ~ ) ) ( ) P ) ) ~ U ( ~ ~ ( _ U ] U L ] U ( ( ( U ~ ( ( ' ( L / ! ! ( ) P ~ ( ~ ) ( P ~ ( ! ~ ) ~ U ( ) ( _ I I ' U U ) ~ I ) U ( ' U U ! W f & ",
", a / O.X.O.&. ...] ' ' #.' o.#.o.] #.#.o.&.' X.#.] ' o.o.' #.&.@.#.#.' @.@.] o.#.o.] &.#.#.*.] o.&.) o.o.@.' o.#.@.*.@.' o._ ] o.@.) o.&.&.@.#.] o.o.' ] +._ o.&.O.-.&.X.X.%.' o.O.' X.&.o.&.%.X.o.+...j - ",
"- a  .-.O.O.#.-.;.o.o.*.*.o.#.-.#.#.-.&.*.*.#.&.*.@.*.&.*.o.;.;.&.*.*.o.*.#.o.*.*.@.o.-.*.;.*.o.#.&.o.&.&.*.] *.#.-.&.o.&.*.X.&.&.*.' #.&.*.*.@.o.&.&.o.#.*.] +.-.] -.@.#.O.-.X.@.%.X.+.O.O.%.#.X.O.O._ b ; ",
"% p ` ~ ) ) X.+.] ` _ o.' _ ) ] ! _ ' ] ] ( ) ] o.) ) o.) ' ' o.] ' _ ' ] _ ) ' ' ) ) ] _ +.( ) ] ) ' ( ' ' ( ] ' o.) ( ' ' _ ) ] ~ ~ _ ' ' _ ( ' ' ' ( ] ~ ( ) ) ( ' ) ) +.' ~ ' ) ! ) ~ / ' ' U X._ E l - ",
"* a } +.X.o.&.&.&._ O.&.#.o.#.&.o.&.*.&.&.#.#.&.&.o.@.&.o.o.O.&.#.o.+.#.*.#.@.&.&.#.@.#.+.&.O.o.#.#.#.#.O.o.o.o.@.@.O.o.&.&.O.#.#.o.@.&.o.+.o.@.O.#.o.@.+.] @.@.$.o.#.@.+.-.#.X.%.o.] o.o.X.+.@.o.&.*. .x - ",
", d ..%.#.*.-.=.&.&.*.*.O.#.*.&.*.*.*.#.o.#.#.&.#.#.%.&.&.&.*.&.*.&.&.#.&.&.o.#.&.&.#.#.&.O.&.&.@.*.&.-.@.@.*.&.*.o.*.#.#.&.+.&.] @.#.&.o.O.#.&.&.#.&.&.@.@.$.#.&.+.+.#.*.%.#.%.*.+.+.#.O.o.o.@.O.&.]  .x - ",
"3 a ` X.' X.X.] ] ] ] o.' ' o.] o.] o.) ) ] o.' _ X.X.' ] X.X.) _ ) ] ) ' ] ' ' ' o.] _ ' ( X.X.) ] ' X.( _ X.' _ ( ' ] ( ) ' ' ~ ) ' ) ( ~ ) ' ' ) ) ' ^ ] ] ' ' ) ( ] ' ! / X./ / ) ) / ~ ! / ' U U [ k & ",
"3 p E ! U ~ ~ Q E ) ( U U U ) I ) ~ ( U U ( ) ~ U U ) I U ( _ I U L ~ ~ U ~ ( U U U ~ U ( L ) ( I U U ) L ~ ~ U P Q ! ~ ! U ( U P U ( U U P U ) U I P ) U ~ ~ ! ~ Q R ~ ! I Q / Q I ! ! ! I I ! U U J P k % ",
"4 a W ) X.X.' ' ] ] O.U X.X.o.) ' ] ' ] ' ' ' ' X.X.' ) ' X.X.X.] ' ] X.) ' ' ' _ ' ' ] ] ' o.o._ X.] X.' X.' ] _ o.o.#.' ) ] ) ' ' X.) o.' ] o.o.] ] +.) ] ' ) ' ' ] +.+.X.X.o.' X.X.' X.' o.o.O.o._ ` l - ",
"4 a } @.O.#.@.$.&.&.O.O.*.*.O.&.-.*.#.*.-.*.&.&.*.&.&.O.&.&.&.*.*.*.#.*.&.*.*.#.#.*.*.*.#.*.*.+.#.&.&.#.#.&.#.#.#.*.*.&.&.&.&.#.&.#.#.O.&.#.&.*.#.O.+.%.@.@.%.%.@.*.-.-.#.+.#.@.+.+.+.o.o.O.#.#.O.O.o.} x - ",
"3 a ` ] X.X.o.O.o.X.' X.X.X.~ ] o.o.) o.#.X.) ' X.' ' o.o.o.) #.o.#.' ' ' ) ' _ ' ' ] ] ' #.X.) ' ) ' ) o.] X./ o.] o.( ' X./ ) ' X.^ / X.X.] ) ( ~ / ) ) ) ' ' ~ ) X./ / ' ' / ) ' ' / / ) X.) U ) ' T l * ",
"6 y ` P ( _ ) ) X.U I U U U ) ( ) ) ) ) X._ U U ) L U o.! ) / ] ' ' ! I / U Q ) / ) ) ' ! +./ L ~ ! L ~ ' ( ! / ' X./ ~ ! ! I / ] ~ ! X./ } ' ~ ! ! Q L ) ~ ^ / / ' X.] I Q / Q ! ' / ) / U X.X.I P ( F h = ",
"6 p .. .] o.O.&.&.O.' +.X.o.#.O.O.O.O.#.&.o.o.O.o.' O.@.' +.&.&.@.&.+.] +.X.X.O.O.o.+.+.+.*.#.] @.+.' %.+.] #.+.+.%.O.@.] @.X.+.@.' ] #.X.%.&.o.o.o.+.] &.+.X.X.] ] +.@.X.X.+.] X.+.] +.O.o.O.+._ o.$.` j - ",
"w a | ..=...@.@.$.$.&.-.] @.@.$. .$.$.$.&.@.$.#.@.$...&.$.@.*.] +.] $.@.#. .@. . .@.@.] #. .] @.$.] ] &.] ] @.o. .@. .] &.o.o.&.&._ o.&.] o.] ] o.o.] ] ' ' ] $.$.@.+.] $.#.] ] +.] ) +.+.} ' ] ]  ...[ b , ",
"w q Y Y E R R E R T R W R W W W E E W E T T W T T E Y T T K W F K K E W K K T T K T T K T K K E R K K W K K T K K K K K E K D K K K K H K K T K T J F K T K K K Z Z K Z T T Z K K Z K K Y F A Z F F F A h & ",
"3 w c b c c v v c x x j d f h a f f f f h a k d f k g g h f k f h f k h d a f f d g h a h a f h f d g d f d f d a f a a d u t t u u u e u e 9 e u r e e r e r e r r t r r t 0 r t r r r r r q w q q w w 3 & ",
":., 3 3 3 5 5 < < 5 < < 3 7 3 3 3 3 7 3 2 < 3 3 < 2 3 < , < 3 3 3 2 2 - 2 3 3 3 3 3 3 2 3 < 2 2 , < 2 , 2 , 2 2 2 3 1 2 2 2 2 4 1 1 4 2 4 3 1 4 4 2 2 2 2 2 3 3 , < , - ; 2 ; - < ; , ; - 2 3 : : : : , & :."
};
