/* XPM */
static char *result[] = {
/* columns rows colors chars-per-pixel */
"50 50 178 2 ",
"   c #3E330B",
".  c #3D361A",
"X  c #3E381E",
"o  c #333122",
"O  c #3D3B23",
"+  c #3A372C",
"@  c #393C2C",
"#  c #43360D",
"$  c #46390D",
"%  c #483A0B",
"&  c #443611",
"*  c #453812",
"=  c #4B3D13",
"-  c #433C1E",
";  c #4C3E19",
":  c #433C24",
">  c #4A3F26",
",  c #443F29",
"<  c #4D4114",
"1  c #45401F",
"2  c #4E411A",
"3  c #524316",
"4  c #53451C",
"5  c #55491D",
"6  c #594C1D",
"7  c #474026",
"8  c #494225",
"9  c #45432B",
"0  c #4B452B",
"q  c #45492E",
"w  c #4C4A2E",
"e  c #544623",
"r  c #574922",
"t  c #5A4C23",
"y  c #534B2B",
"u  c #5D4C29",
"i  c #5E5125",
"p  c #464331",
"a  c #4B4631",
"s  c #474B32",
"d  c #4C4B33",
"f  c #4C4B39",
"g  c #514B34",
"h  c #524E39",
"j  c #4D5139",
"k  c #54513C",
"l  c #614D23",
"z  c #604E28",
"x  c #605126",
"c  c #62542C",
"v  c #655730",
"b  c #695B34",
"n  c #7F7246",
"m  c #897B4E",
"M  c #857551",
"N  c #877C51",
"B  c #8D7D54",
"V  c #857C5E",
"C  c #8A7C59",
"Z  c #837D62",
"A  c #857E6B",
"S  c #8E8155",
"D  c #8F8159",
"F  c #928556",
"G  c #92855A",
"H  c #968A5D",
"J  c #9B8C5E",
"K  c #9D935D",
"L  c #A4935F",
"P  c #A1985F",
"I  c #878264",
"U  c #8C8363",
"Y  c #8F8A67",
"T  c #85826C",
"R  c #8B866B",
"E  c #8C896D",
"W  c #948661",
"Q  c #938C65",
"!  c #9B8C62",
"~  c #938C6D",
"^  c #9F8D69",
"/  c #9E9262",
"(  c #97926C",
")  c #9F966F",
"_  c #8D8672",
"`  c #8C8B71",
"'  c #8B8E7D",
"]  c #938C72",
"[  c #939071",
"{  c #9A9472",
"}  c #9C957B",
"|  c #9E9D7E",
" . c #A08E66",
".. c #A39664",
"X. c #AA9664",
"o. c #A59A65",
"O. c #A99B66",
"+. c #A4966A",
"@. c #AC976A",
"#. c #A69A6B",
"$. c #AB9D6B",
"%. c #B09C67",
"&. c #B09F6C",
"*. c #A59772",
"=. c #A59C73",
"-. c #AB9E72",
";. c #A49B7A",
":. c #AC9E79",
">. c #B09F72",
",. c #AEA467",
"<. c #ADA26C",
"1. c #B2A36E",
"2. c #B0A86A",
"3. c #A7A274",
"4. c #ADA273",
"5. c #ADA47B",
"6. c #ABA87B",
"7. c #B3A573",
"8. c #BAA674",
"9. c #B5A975",
"0. c #B9AB75",
"q. c #B3A67A",
"w. c #B8A679",
"e. c #B6AA7A",
"r. c #BBAD7B",
"t. c #BBB174",
"y. c #BDB17C",
"u. c #C2AE7D",
"i. c #C0B176",
"p. c #C1B37E",
"a. c #C5B97F",
"s. c #ADAC85",
"d. c #B4AC82",
"f. c #BCAD82",
"g. c #B5B285",
"h. c #BDB282",
"j. c #BFB883",
"k. c #BCB38B",
"l. c #BDBA8D",
"z. c #B5B394",
"x. c #BDB791",
"c. c #BFB994",
"v. c #C1AE81",
"b. c #C3B483",
"n. c #CAB585",
"m. c #C4BA85",
"M. c #C9BA85",
"N. c #C4B689",
"B. c #C9B789",
"V. c #C5BA8C",
"C. c #CABC8B",
"Z. c #D0BB8E",
"A. c #C3B791",
"S. c #C3BC93",
"D. c #CBBD92",
"F. c #C5BE9A",
"G. c #D1BF94",
"H. c #C6BDA0",
"J. c #C8C082",
"K. c #CCC18D",
"L. c #D1C28D",
"P. c #C4C093",
"I. c #CDC294",
"U. c #C5C19A",
"Y. c #CBC49C",
"T. c #CCC99D",
"R. c #D2C396",
"E. c #D3C59A",
"W. c #DAC598",
"Q. c #D4CA9D",
"!. c #DBCA9C",
"~. c #CBC5A1",
"^. c #CECAA1",
"/. c #D1CAA0",
"(. c #D8CBA1",
"). c #D3CFA9",
"_. c #DCD3B6",
"`. c None",
/* pixels */
"`.`.`.`.`.`.`.`.`.`.`.`.`.`.`.`.`.`.`.`.`.`.`.`.`.`.`.`.`.`.`.`.`.`.`.`.`.`.`.`.`.`.`.`.`.`.`.`.`.`.",
"`.`.s.T n _ A ' _ E ` R ] T T T o p f a a d d d q k p h k d h d a j f d h d 9 d d g a g h k g `.`.`.",
"`.f z.s.^.k.Q.d.Y.x.c.s.T.g.x.c.y ] F.H.Y.U.U.Y.S.F.Y.F.Y.Y.Y.^.T.T.l.k.S.P.S.I.m.Y.(.^.Q.T.S.z.`.`.",
"`.9 U.6.j.K b.+.l.y.9.o.m.<.e.g.* C *.+.$.e.r.r.+.$.f.f.k.h.+.+.<.6.o.O.<.<.K o.7.$.<.9.6.<.<.V.E `.",
"`.w ).6.j.2.h.7.y.h.r.<.J.2.9.d.4  .v.f.N.b.b.u.v.v.-.w.v.v.N.v.f.m.w.p.n.n.8.8.y.C.u.&.8.m.C.A.U `.",
"`.g x.=.y.o.r.0.w.f.0.2.m.<.r.y.;  .v.r.8.@.<.9.#.$.$.-.>.$.&.7.8.w.>.7.&.8.8.i.8.1.&.7.7.+.+.q.Z `.",
"`.g _.5.-.0.W.+.f.w.9.4.m.O.h.h.= G 4.9.r.t.y.t.7.0.K.m.y.r.#.7.p.u.n.B.n.n.M.n.n.n.n.M.n.b.B.R.A `.",
"`.a H.=.N.#.B.-.b.9.e.e.K.o.e.e.$ F 4.4.9.<.<...<.7.4.7.t.e.t.9.@.X.8.%.X.X.1.1.O.O.%.1.0.9.1.-.^ `.",
"`.a ~.q.m.9.y.<.N.7.p.9.t.2.4.9.$ H j.V.j.j.y.K.J.K.m.e.e.2.e.y.y.b.m.M.0.0.M.M.p.m.M.7.9.t.K.Q.{ `.",
"`.g c.e.r.9.0.O.B.7.t.,.t.,.9.9.< D =.4.2.9.4.<.<.+.4.4.3.K 6.<.4.7.9.1.1.1.p.9.0.2.9.t.y.9.9.h.R `.",
"`.d x.3.y.,.b.<.m.y.y.2.J.t.9.t.< H h.f.h.y.p.p.h.9.7.r.N.w.r.9.t.r.7.e.9.r.h.e.9.9.f.r.h.g.h.g.I `.",
"`.d c.=.y.O.M.7.y.j.y.2.J.9.9.e.= G w.w.t.0.1.%.<.p.w.$.7.y.m.e.g.r.6.e.7.o.<.<.9.r.t.4.<.4.4.5.Y `.",
"`.d H.6.b.7.r.$.f.h.9.,.y.9.e.h.$ F 7.8.0.0.0.i.i.1.0.L.p.8.t.t.y.r.r.j.M.b.M.L.m.y.r.m.C.M.V.T.~ `.",
"`.a ~.6.V.7.b.-.w.r.e.<.y.4.r.w.$ F 8.1.,.2.2.i.a.0.,.<.o.P ,.1.2.7.<.<.4.1.1.O.7.1.,.7.O.#.,.r.Y `.",
"`.w F.#.m.o.C.8.w.7.9.<.y.<.e.-.e Q 6.h.g.K.m.j.e.V.l.I.V.r.9.m.r.h.9.7.t.y.r.8.8.r.p.r.1.8.r.D.U `.",
"`.g k.=.y...M.$.m.w.r.9.J.2.r.3.2 U +.3.3.r.3.<.6.4.3.6.#.3.e.=.q.9.-.7.9.9.0.r.0.8.8.b.r.w.0.N.V `.",
"`.s ~.q.b.8.f.$.m.9.r.1.B.$.m.e.*   & 2 $ < < < < =   2   ; $ 4 3 * 5 < 5 6 % % % $ 3 4 3 5 = 2 . `.",
"`.a ~.3.v.7.w.-.y.7.t.y.9.o.b.$.= ; W Q S G S H H S D ^ *.Q D D 2 2 M S F F H S G F S F B H m G : `.",
"`.f U.$.b.@.8.4.9.9.9.0.r.q.h.3.; = k.q.D.h.V.h.Q.m.A.f.I.e.h.A.; 4 f.w.B.r.Q.h.Q.A.D.w.R.h.b.F., `.",
"`.j Y.4.b.@.>.9.e.t.7.9.r.7.h.4.; 8 G.q.V./ h.$.h.e.h.-.A.*.f.b.t ; D.:.m.+.h.O.N.e.h.$.D.$.q.f.y `.",
"`.j Y.7.n.&.8.w.t.<.0.y.8.+.B.4.= t /.q.C.$.j.7.h.r.h.4.D.4.h.q.b 4 E.3.D.o.y.4.r.r.e.q.b.4.$.r.8 `.",
"`.j T.g.p.>.r.f.e.<.0.r.r.$.V.4.; u D.q.q.8.9.<.y.r.h.4.b.$.r.e.r r I.-.9.9.h.9.f.f.r.8.B.<.9.h.y `.",
"`.q T.h.r.8.b.h.t.,.9.2.m.w.V.4.* u Q.q.4.7.b.y.4.9.y.e.m.$.y.y.r c (.q.5.9.V.O.w.7.r.$.m.O.y.r.0 `.",
"`.9 Y.y.8.7.V.y.h.1.r.y.9.7.I.o.$ 4 D.7.h.o.M.K m.7.e.7.m.<.y.7.5 e D.q.h.o.K.O.p.9.r.7.m.O.i.r.8 `.",
"`.q Y.o.y.O.r.$.j.,.y.9.w.9.g.O.2 4 Q.7.y.e.9.o.M.<.r.r.y.<.9.<.4 3 Q.#.h.9.p.o.b.7.r.<.M.o.t.9.; `.",
"`.s U.O.y.O.r.<.K.,.1.,.w.h.B.<.2 r f.3.6.<.7.,.K.9.0.9.y.9.y.9.5 e N.:.w.4.y.$.b.r.p.<.K.<.t.e.- `.",
"`.q T.9.b.%.b.$.m.9.9.9.y.h.b.3.= x V.7.K.<.m.<.m.y.y.9.m.9.y.7.r 4 N.$.h.o.V.4.b.y.y.,.M.,.9.7.> `.",
"`.d T.e.n.@.m.$.b.t.r.t.w.8.b.e.$ i B./ m.o.K.<.y.y.g.7.V.9.y.9.5 r F.+.b.<.I.,.y.p.r.<.M.9.t.r.7 `.",
"`.j U.<.0.@.b.7.y.t.9.9.r.w.b.6.= c D.<.M.<.M.O.r.h.f.$.h.7.y.r.5 r I.q.h.7.m.$.t.y.r.o.m.2.0.r.8 `.",
"`.q P.$.0.%.w.<.m.0.t.r.r.9.y.$.# 4 I.4.I.4.y.o.9.9.e.<.m.4.e.e.5 2 I.7.C.4.b.<.e.0.7.o.b.1.0.7.8 `.",
"`.q P.O.p.8.7.<.C.<.y.7.7.-.r.3.= 2 V.#.C.o.K.7.r.e.w.5.V.4.4.3.4 ; D.#.I.o.K.7.w.9.8.$.b.<.7.4.8 `.",
"`.q S...p.r.7.7.t.K 0.7.e.8.r./ = t b.:.d.$.C.q.V.e.q.w.N.-.:.-.; e N.#.y./ C.<.h.9.9.7.b.<.1.4.8 `.",
"`.d ( N !  .B B H J S F H F o.S & ; ! B ! G M S ..J G G G H S H * r D.w.f.r.r.O.b.1.r.8.m.@.b.-.7 `.",
"`.0 y   3 l l u t 6 3 2 5 6 i 5 4 5 r u c i r 4 < 4 6 i u i 2 e e u G.-.w.8.0.1.u.%.p.y.8.$.C.5., `.",
"`._ P.Q.D.D.G.W.C.R.m.K.I.P.R.K.D.Q.f.N.V.N.A.V.D.I.R.R.D.G.N.A.M z D.-.b...,.0.r.7.9.w.7.$.r.:., `.",
"`.E ) 3.>.f.f.w.@.X.9.r.e.r.K ..:.w.q.4.>.$.@.-.w.7.<.-.$.q.q.f.! v G.*.b.<.1.9.r.9.w.y.f.8.f.5., `.",
"`.] l.j.b.h.v.v.b.r.1.1.r.h.r.p.r.w.b.b.N.K.p.M.b.h.r.f.r.m.b.W.C l E.w.m.9.9.9.9...r.h.4.! r.=., `.",
"`.] g.4.<.o.-.q...L 1.O.,.9.o.7.9.0.#.9.1.9.$.O.7.<.$.1.@.+.#.f.G e G.p.y.,.0.a.t.$.r.w.r...r.6., `.",
"`.I 3.4.y.p.b.8.7.u.a.a.r.7.0.1.y.p.a.C.p.n.M.M.p.p.b.M.p.b.b.W.F 6 W.7.$.1.a.t.7.O.&.$.v.7.m.d.: `.",
"`.Y 3.9.1.<.7.+.O.%.t.0.y.0.p.,.X.L 8.1.X.P 1.8.O.$.O.1.7.r.7.8.J ; B.r.0.1.M.8.r.1.f.r.w.>.B.*., `.",
"`.( l.j.m.b.N.B.L.M.a.y.0.0.r.p.p.i.L.i.p.1.M.a.p.i.M.r.&.p.C.!.J l W.%.M.X.i.8.M.O.n.u.u.w.B.:.O `.",
"`.E 3.<.9.8.8.8.1.L ,.1.L ..1.1.1.9.0.1.0.8.0.0.0.1.r.p.b.p.w.b.B 5 B.%.8.L i.1.C.%.u.>.u.v.B.*.: `.",
"`.E s.e.e.t.r.v.p.r.1.7.p.r.1.0.p.p.9.1.t.0.9.0.0.0.r.9.w.y.w.N.m l W.u.u.i.i.%.p.&.u.@.v.>.n.:.O `.",
"`.` s.e.y.9.:.-.X.p.r.,.9.b.8.1.y.9.7.$.<.$.O.9.,.1.7.,.7.0.7.w.J l Z.1.&.%.0.%.i.&.v.>.v.>.n.:.: `.",
"`.E s.6.7.r.d.f.h.4.r.C.r.7.b.f.v.w.N.b.m.y.m.b.B.b.b.C.I.C.N.R. .l Z.>.y.1.u.1.b.$.v.b.v.v.Z.d.: `.",
"`.` s.3.3.4.q.f.r.e.7.4.#.-.e...7.+.:.$.7.7.w.$.7.1.<.$.$.$.8.h.B ; G.>.r.<.0.7.M.O.w.h.>.f.v.*.: `.",
"`.' s.g.V.I.D.A.h.I.N.m.N.e.b.D.N.f.q.w.e.f.h.e.4.e.y.r.4.7.h.B.B 4 G.v.b.7.7.o.B.1.v.f.w.w.f.:.O `.",
"`.`.| 3.:.s.:.;.=.:.*.5.s.*.5.5.s.d.:.5.6.k.d.g.f.e.6.f.6.5.f.A.C > A.:.e.h.e.5.r.+.f.=.q.:.d.;.O `.",
"`.@ , 9 0 8 8 - : , X , : : : 7 : - - : 8 8 8 8 - - 1 8 8 8 8 0 , > s.Z ] ] Z Z [ ~ W Q U R ~ _ + `.",
"`.`.`.`.`.`.`.`.`.`.`.`.`.`.`.`.`.`.`.`.`.`.`.`.`.`.`.`.`.`.`.`.`.`.`.`.`.`.`.`.`.`.`.`.`.`.`.`.`.`."
};
