/* XPM */
static char *result[] = {
/* columns rows colors chars-per-pixel */
"49 50 95 2 ",
"   c #2F2A24",
".  c #322723",
"X  c #342C25",
"o  c #392E24",
"O  c #352D2C",
"+  c #3A2F2B",
"@  c #3B3127",
"#  c #35312E",
"$  c #3B332C",
"%  c #373131",
"&  c #3A3333",
"*  c #3D3832",
"=  c #353439",
"-  c #42362D",
";  c #453A2D",
":  c #413732",
">  c #453A31",
",  c #493D32",
"<  c #453D3A",
"1  c #4B4336",
"2  c #4D4239",
"3  c #50463D",
"4  c #54493E",
"5  c #564D43",
"6  c #5C4E43",
"7  c #5E5141",
"8  c #5A514A",
"9  c #615444",
"0  c #61544B",
"q  c #66594A",
"w  c #655B51",
"e  c #6A5D54",
"r  c #6C6054",
"t  c #6B6259",
"y  c #736558",
"u  c #77695C",
"i  c #796B5B",
"p  c #7D6F62",
"a  c #7E7260",
"s  c #816E67",
"d  c #827464",
"f  c #857867",
"g  c #827569",
"h  c #8B7B6C",
"j  c #8C7C71",
"k  c #917F71",
"l  c #92836C",
"z  c #8F8375",
"x  c #958672",
"c  c #978873",
"v  c #9C8C75",
"b  c #9B8C7A",
"n  c #9D917B",
"m  c #A28E75",
"M  c #A18F7B",
"N  c #A59176",
"B  c #AC9575",
"V  c #A4937B",
"C  c #AD957B",
"Z  c #AD997D",
"A  c #B1977C",
"S  c #B39A7E",
"D  c #998F83",
"F  c #9F9184",
"G  c #A18F83",
"H  c #A59583",
"J  c #A99683",
"K  c #AC9984",
"L  c #A59589",
"P  c #AB9A8A",
"I  c #B19682",
"U  c #B59C82",
"Y  c #B89E84",
"T  c #B49C89",
"R  c #B99E89",
"E  c #B5A183",
"W  c #BBA286",
"Q  c #B8A887",
"!  c #B4A28A",
"~  c #BDA48A",
"^  c #B7A98F",
"/  c #BCA98B",
"(  c #B5A691",
")  c #BAA593",
"_  c #BEAA92",
"`  c #C1A68C",
"'  c #C3AA8E",
"]  c #C3A691",
"[  c #C5AB92",
"{  c #C8AE94",
"}  c #C7AE98",
"|  c #C9AE98",
" . c #C5B094",
".. c #CAB194",
"X. c #CBB29A",
/* pixels */
"& * * * 3 $ + : $ 1 1 ; @ ; - , 3 , > , 2 > > ; $ 2 2 , $ : $ , 1 < - > 1 - > ; : 1 3 , ; > $ % # ",
"  3 a b b z G b l n n b c b k x b c l M v l c v l N V n v N c v V v l v V c v b c v J v c b c z % ",
"& q n ! ) P ! ) Z Z ' S Q ) G C / K B W Q Z W ~ N K / Q E Q C Z W U N U Q Z W W N Z / Q W / H D * ",
"& 8 F _ Q I } | S S ' W / } I U [ W A _ / U ~ X.A W ' ~ Q [ S S [ Y C ` [ U ^ [ C U } ~ ~ ` V L $ ",
"* q V _ / U ' [ S ` ..W ` ] U U ..~ U ` ` U ` ` B ` ' ` R } U U { ` B ` ' U ~ ` C W { ` Y ` T L @ ",
"= t K / ' S ' { S W ' ' [ [ U S { ` U ' ] U ` ' S ` { ' ~ { Y I { ` U ~ [ I ~ [ U U [ [ ` { J L X ",
"& e V /  .S ....S W ` ` ` ' S U { ~ A ' ` Y ' ' S Y ' ' ` ..Y Y ..W B ` { ` ' ' S S ' ' ` { S K @ ",
"& w n Q ' S X.' A W ..' ' ' A Y ..W A ' ' W ' ..S Y ` ` ` { Y Y ..S B ` { Y ' ' A S ' ' Y { U L @ ",
"& w H Q ' A ' { Y ~ [ ` ' [ ~ Y { ~ A ` ' S ` ..S ` ] ` Y ] Y S ..` A W ' S ~ [ S Y ' ' W [ I K @ ",
"& w H / ` B ' ..Y R [ ` ~ ' U R | ~ U } ` A Y { U ` | [ ` [ I Y ..` R ~ [ I W [ Y R } ] R } K L X ",
"$ w V / ` B ` ) I R | { ' ~ A R | ~ U [ ` I W ' U ` [ [ ` | Y R ..W S ' } I ~ ] U R [ [ W } K L @ ",
"$ q V / ` A { | T R } ` ` ' W U [ ~ S ' W A W ' S Y [ ` ~ [ U Y ..S B ` ' A W ' A U ' ` R [ K H @ ",
"# q V / W A [ | T R { ` ` ~ A S ' W S ' ` B ` ..S ` ' ` W ' S W ..` S S ' A ` ' S S ' ' W ' S H @ ",
"* q V [ ' U [ / I ` { ` ~ ' W U ' ' S ..' S W ' S W ' ' W ' S S ' ` S ` ' S ` ' A Y ' ' W [ Z H X ",
"& q N ` ` R [ [ S W ' ` } [ U W ' ` S ' ' S ` ..S W { ' ` { W W ' ` B ` ' S ' ' S S ..' W ' U J o ",
"& q N ` ` R }  .S W ' ' [ [ K W ' ' S ' ' S ' ' S ` ' ` W ' W W ' ' A ` ..S ' ' S W ..' W  .K J o ",
"& q C ] ' T _ [ S W { ` / [ K W ..' Y ' [ U ` { S W ' ` W ' Y Y ..' S ` ' Y ` ' S Y { ' W [ K J o ",
"& q V ] ' U _  .S W { ' } [ E S ' ' S ' ' S W { S ` { [ ` { Y S ' ` S ` ' Y W { Y S ' ' ~ { I J o ",
"& q M ` [ R [  .S Q ' ' } } U U ' ` S ' ' Y ` [ S W [ [ ` { Y Y ' ` A ` { ` ' ' S S ' ' ~ ..U H o ",
"& q m ` [ W  .[ S S ' ` } [ U W X.` A ` { W ' { S Y ' ' ` { Y Y { ` A ` { W ' ` S U ' ` W } U C o ",
"& q m ~ ' T _  .S ' ..Q ] } W R { ` A ` ' S W { S ` { ' W ' ` S [ ` B Y ' Y ` { U W [ ` Y { T H o ",
"O q C ` ' C Q } S Q ..' / ] Z U ' ' W ' ` B U { S ` ' ' ` ' S S ' ` U ` ' A S ' Y U { ' ` ` C M ; ",
"% 9 m ` ' E  .' S S ' ' ^ [ S U ' ' S ' ' S ` ' A W ' { ` { W S ' ` S W ' S Y ` S S [ ' ` ' U H ; ",
"& 7 m ` ' S / ..S S ..' [ [ U E ' ` S ' ` S Y ' A Y ' ' ` { Y Y [ W S ` ' S ` ' S S ' ' Y ' U K , ",
"& 7 M ` ` A ~ } S ` ..' / ' Z U ' ` S ` ` A Y ..S ` { ` W ' Y S { W S Y ' S Y ' Y S ' ` W / K K ; ",
"& 0 C ` ` I [ / S S ..` ' ' U S ' ` U ' ' Y W { S W ' ' ` ' Y S ' ` U ` [ S ` ' S S [ ` W ' U J , ",
"% 9 V ` ' T [ [ S Q { ` ` [ E S { ` A ` ' Y ` ' S Y ' ` ` { Y S ' W S W ' Y ` ' U S [ ' ~ ' P K , ",
"% 9 M ` ` T _ _ S S ..` ~ ' K W { ` S ` ' S W { S ` { ' Y [ Y Y { ` S W ' U ` ' Y U [ ' W ` U K 1 ",
"O 9 B ` ' W ` [ S W ..` ` ' S W { ' S ' { Y W ' U W { ` Y ' Y Y { ` S W ' U ` ' S S { ' W ' T K ; ",
"& q V ' ' Y / [ S ` X.' ` { Q S { ' S ' ' S R { U ~ { [ ` { Y S { ` S ` { Y Y [ Y S { ` `  .U J ; ",
"& 9 N W ' T } X.R S ] ` ] { S S ' ' S ' { Y ` { U R [ ] ` { ~ S { W A W { ` ' ' S S ' ` ~ ..W Z , ",
"& 7 m W ' W  .[ S U { ] } [ S Y { ~ A ` ' W ` { U R [ ] ~ { W U { W A Y { W ' ' U S ' ` ~ [ U A ; ",
"& 7 N ~ ' S '  .T W ] ` ~ { ` Y { ` S ` ' Y ~ { Y W [ ' ~ { R S { ` A W { S W { Y S ' ` ` ' U J ; ",
"& 9 V ' ' A / X.W W | ` ~ ] S A { ' Y ' ' A U [ U R [ ] ~ { R S { ` S W ' S U [ Y S { ` ` ' I J 1 ",
"# 9 N ` ' A / / S Y X.| ] ' B S ' ` S ' ' S Y [ A R [ [ ~ [ Y Y { ` S ~ ' S R ' A A [ ' Q [ U J ; ",
"& 7 N W ` I ` } S S ' ] ' { S W { W A W ` S ` [ U R [ [ ~ [ Y S ' W S W ' S W ' S A ' ` ~ [ E J ; ",
"O 9 N ` ` B / } Y Y { ` ` ] Y U { ` S ` ` A Y X.Y ~ [ [ R [ Y S [ ` S Y ` A Y { Y S { ` R ' I J ; ",
"O 7 N ' ' S / [ S Y { ] ` ` S S ' ` S ` ` S W [ S R [ [ ~ { R A ' W S W ' S W ` U S ' ` W ' U J 1 ",
"% 4 N ` ' Y ' [ U Y | ] ' ' S S ' ` S ' ' S ~ [ U R ' ` ~ { R S { ` A Y [ Y ` ` Y S ' ` Q ' U H ; ",
"% 6 m W ' S [ { Y Y { ] ` ' S Y [ ` S ` ' U W } U R [ ` R [ R S { W A Y ' Y W ' U S [ ` W [ K K ; ",
"@ 7 m ` ` U /  .S Y { ] ` { S Y { ` S ' ' S W { U ~ [ ] R [ Y U { ` U Y { S W { Y S ' ' W ` T K - ",
"& 7 m ` ' U /  .U Y { ] ` ] Y A [ ' S ` { S ~ { U W } ] ~ [ R A { ` S W ' Y W ' S S [ ` W ' T K @ ",
"+ 9 m W ' Y [  .S U { ] ` { W A { ` S ` { W W { I R [ ` ~ [ ~ S { ` A U { W ` ' U S ' ` W ' U K - ",
"& 6 v ` ' ~  . .Y Y ' ] ` [ W A { ` A ` [ Y ` { S U [ ` ~ { ~ U { W B Y ' Y ` { S S ' ` W ' ! K ; ",
"# 7 m Y ' E ' ..I Y ] ] ` [ Y S [ ` C ~ ` U W X.U R ' ` R [ ~ U { ` B S [ Y Y { S A [ ` ~ ' W K : ",
"- 4 V W  .B S ..R Y | | ~ ] A A } / A [ [ C U ` R S { ` R [ U S ' ' S ' ' B Y ' Y A ` ` Y ' I H 5 ",
"* 6 V ! Q B Q [ Y I } ) R [ A S [ W K / ` K W [ U K [ [ / [ T C / ` A ` [ A R ~ S A _ ] W [ K F 5 ",
"& 2 z ( ^ V ! ] T J ) ) ) } I A ^ ! C W T V K ^ K C ^ ^ Q / K J ) ~ M I ) J P } K V ! ( ( ) P L 8 ",
"= < t g a i f x s s j j g j d s h h d h d i d h d s h h f k d d j j a p j i a j i y i u y i r w * ",
"= % & # X @ @ + O O + + o o . . + @ X + $ . X + X X + X o X X . X O X @ #   X # X X $ $ $ * $ $ X "
};
