/* XPM */
static char *portal_81722255162[] = {
/* columns rows colors chars-per-pixel */
"50 50 58 1 ",
"  c None",
". c #071D2C",
"X c #081C2B",
"o c #092031",
"O c #0C2639",
"+ c #0D293E",
"@ c #0D2A41",
"# c #0E324C",
"$ c #10354E",
"% c #0F3652",
"& c #0F3954",
"* c #0F3C58",
"= c #103B56",
"- c #103C5A",
"; c #134263",
": c #15466C",
"> c #15486E",
", c #164C73",
"< c #184E74",
"1 c #185077",
"2 c #175079",
"3 c #19537D",
"4 c #1A5682",
"5 c #1B5A86",
"6 c #1C5D8C",
"7 c #1E5F90",
"8 c #1E6294",
"9 c #1E669A",
"0 c #1F699E",
"q c #20679A",
"w c #21689B",
"e c #1F6CA4",
"r c #216DA4",
"t c #216FA8",
"y c #2273AD",
"u c #2275B1",
"i c #2479B6",
"p c #257CBB",
"a c #297EBE",
"s c #267FC0",
"d c #287FC1",
"f c #2682C4",
"g c #2983C4",
"h c #2785C9",
"j c #2986CA",
"k c #2A89CD",
"l c #2B8DD3",
"z c #2B8FD8",
"x c #2D91D6",
"c c #2C91DA",
"v c #3092D7",
"b c #2D96E2",
"n c #2E99E6",
"m c #2F9CEB",
"M c #3096E1",
"N c #309AE7",
"B c #319DED",
"V c #2F9FF0",
/* pixels */
"                                                  ",
"                                                  ",
"                                                  ",
"                                                  ",
"                   vccx                           ",
"                  ccccblhyyy                      ",
"                 ccxazbNcuyyy                     ",
"                ll  yypbmcgyy                     ",
"                c   yy0ubmzuyyy                   ",
"                   yyt44rnny9yyy                  ",
"                  yy85443yNc7yyy                  ",
"                  y0444433pn78yyy                 ",
"                 yy64443::8c75ryy                 ",
"                 y64443>:::5445ty                 ",
"                yy4444<:::;*;34eykc               ",
"                yw6943:::;*==;4eyfc               ",
"                y6fi44:::&===-27ysc               ",
"                y8Ns4,::;&=&=&,4ysx               ",
"               uylc44>>:*==#@#<4yfc               ",
"               ypcx44>::-=%@@$24ypcx              ",
"               yjme44>:;==$@++;48acx              ",
"               ucb443>>-*=@@+Xo<6axx              ",
"              tdnw44,>>;=%@@OXX>4yc               ",
"              yhm044,>:;=%@+XXX<6hc               ",
"               jme44,::;==@@.XX>5pb               ",
"               Np444,::-=%@@.XX<9cn               ",
"               Bi444,>:;=%@+XX#<9cn               ",
"              cVi444,>:;==@@OX;39ml               ",
"              cVi444,:>-=*#@@+:4rVj               ",
"              zBi444,::;=*%@+@;wbbp               ",
"              cmi544,>>;==*&@@:gmk                ",
"              MVd644,>>;=====&wbni                ",
"               cg744,::;*===*5lNjy                ",
"               kyy443:::**=-*;3uwy                ",
"               jyy444>>:;*=*-:44yy                ",
"               kyy0443::>:*=-;40yy                ",
"               cayr444,:::-=;44tyy                ",
"               cput6t43:::;=:46yyy                ",
"               c yu9lk3<::,146tyy  B              ",
"               x utt9Mk4,33448yy                  ",
"               c  uyyizt65689yyu c                ",
"               c   yyulng6eeyyplcv                ",
"               x   yyysmmbfhipzcx                 ",
"                    yyusnmmncccc                  ",
"                     yyykcnmccc                   ",
"                      uy ccccc                    ",
"                                                  ",
"                                                  ",
"                                                  ",
"                                                  "
};
