/* XPM */
static char *portal_61722255131[] = {
/* columns rows colors chars-per-pixel */
"50 50 56 1 ",
"  c None",
". c #071D2B",
"X c #081C2A",
"o c #0B2334",
"O c #0B2638",
"+ c #0D293E",
"@ c #0D2B41",
"# c #0E334D",
"$ c #0F3652",
"% c #0F3954",
"& c #0F3B59",
"* c #103753",
"= c #103955",
"- c #103C59",
"; c #134263",
": c #15466C",
"> c #15496E",
", c #164C74",
"< c #184F76",
"1 c #175178",
"2 c #18537D",
"3 c #195782",
"4 c #1A5986",
"5 c #1C5D8B",
"6 c #1E6294",
"7 c #1E669A",
"8 c #1F699E",
"9 c #206495",
"0 c #206799",
"q c #20689E",
"w c #1F6BA2",
"e c #1F71AC",
"r c #216CA4",
"t c #2272AD",
"y c #2375B1",
"u c #2578B5",
"i c #2979B6",
"p c #257CBB",
"a c #287DBD",
"s c #267FC0",
"d c #2782C4",
"f c #2983C6",
"g c #2685C9",
"h c #2986CB",
"j c #2A89CD",
"k c #2B8CD3",
"l c #2C8FD8",
"z c #2D90D6",
"x c #2C91DA",
"c c #3191D9",
"v c #2D96E3",
"b c #2E99E6",
"n c #2F9CEB",
"m c #309AE6",
"M c #319CEB",
"N c #2F9FF1",
/* pixels */
"                                                  ",
"                                                  ",
"                            z                     ",
"                                                  ",
"                             c                    ",
"                     tttttt  x                    ",
"                    ttttttttt x                   ",
"                   uttuttrttt zx                  ",
"                  khfjfqq5rtttjx                  ",
"                 xxbnMxr345rttgx                  ",
"                xxlxxxMbk334rtykx                 ",
"                kje635fjm3224wekxc                ",
"               xptr3242<r,:,35tkxx                ",
"              kcut53432>:::::48pzx                ",
"              k tt4332>::;&-&:3pxx                ",
"              z tr3331:>;--&&;13xx                ",
"                t5333:::;=----,3xv                ",
"                t4333:::----==:3xb                ",
"               y9333,:::---=@@#1xn                ",
"               t9333,::;--=@@@@,xb                ",
"               t6333,::;=-*@@@@,xb                ",
"               t6533,::;==#@@O.3nbs               ",
"               q3hq3,::;-=@@OX.aNzt               ",
"              tqrkr3,::;-$@@.XXsMkt               ",
"              trsl33,::;-=@@XXXkngt               ",
"               ysM33,::;-$@@XXXijqt               ",
"               thM33,::;&=@@oXX$utt               ",
"              ttsM33,::;--#++oX>5tt               ",
"               yjn33,::;--#@@++,5tt               ",
"               sxM33,::;--$@+@@,5r                ",
"               pjb33,:::---$#@@,4r  x             ",
"               tlN33,:::-----*=15t zz             ",
"               ulM33,:::------>3ttgzz             ",
"               dkM334:::;-----<3tukz              ",
"                lM3331::;----:33ykzz              ",
"                lv3333:::----;3wydx               ",
"                lb4433::::;-;>5rsxx               ",
"                sbt5333:::::37wpxxx               ",
"                lMp0333,::234tdxvx                ",
"                llht6334999srkkMb                 ",
"                 xkyt33pbnvvbNMxc                 ",
"                 vjttr90pjnNnvvc                  ",
"                  xsttrrttupslk                   ",
"                  xxttytttttt                     ",
"                  xx tyttttt                      ",
"                   xx                             ",
"                    ll                            ",
"                     xx                           ",
"                                                  ",
"                                                  "
};
