/* XPM */
static char *result[] = {
/* columns rows colors chars-per-pixel */
"50 50 57 1 ",
"  c #071C2B",
". c #081C2B",
"X c #081F31",
"o c #0B2538",
"O c #0C283C",
"+ c #0D2B41",
"@ c #0E334C",
"# c #0F3954",
"$ c #0F3B59",
"% c #103753",
"& c #113955",
"* c #103C59",
"= c #134163",
"- c #15476C",
"; c #15496E",
": c #164C73",
"> c #184D77",
", c #164F78",
"< c #175077",
"1 c #17517A",
"2 c #19547D",
"3 c #175784",
"4 c #195782",
"5 c #1A5986",
"6 c #1C5D8B",
"7 c #1D618F",
"8 c #1E6294",
"9 c #1E669B",
"0 c #1F699E",
"q c #20699E",
"w c #1F6CA5",
"e c #216DA4",
"r c #216FA9",
"t c #2570A7",
"y c #2273AD",
"u c #2375B1",
"i c #2579B5",
"p c #257DBB",
"a c #2782BF",
"s c #2682C3",
"d c #2981C3",
"f c #2784C8",
"g c #2986CA",
"h c #278ACF",
"j c #2989CE",
"k c #2B8DD4",
"l c #2C8FD9",
"z c #2D90D6",
"x c #2C91DA",
"c c #3095DF",
"v c #2D96E2",
"b c #2E99E5",
"n c #2F9BEA",
"m c #3099E4",
"M c #309CEC",
"N c #309FF0",
"B c None",
/* pixels */
"BBBBBBBBBBBBBBBBBBBBBBBBBBBBBBBBBBBBBBBBBBBBBBBBBB",
"BBBBBBBBBBBBBBBBBBBBBBBBBBBBBBBBBBBBBBBBBBBBBBBBBB",
"BBBBBBBBBBBBBBBBBBBBBBBBBBBBBBBBBBBBBBBBBBBBBBBBBB",
"BBBBBBBBBBBBBBBBBBBBxxxxxBBBBBBBBBBBBBBBBBBBBBBBBB",
"BBBBBBBBBBBBBBBBBBBxxxxxxxBBBBBBBBBBBBBBBBBBBBBBBB",
"BBBBBBBBBBBBBBBBBBBBBkjlxxkpBBBBBBBBBBBBBBBBBBBBBB",
"BBBBBBBBBBBBBBBBBBBBBtuphxxptBBBBBBBBBBBBBBBBBBBBB",
"BBBBBBBBBBBBBBBBBBByyyyyuknjuyBBBBBBBBBBBBBBBBBBBB",
"BBBBBBBBBBBBBBBBBBryyrurw7kndyyBBBBBBBBBBBBBBBBBBB",
"BBBBBBBBBBBBBBBBBBuyueq853uMbyyuBBBBBBBBBBBBBBBBBB",
"BBBBBBBBBBBBBBBBBBuyr644445dnfyyBBBBBBBBBBBBBBBBBB",
"BBBBBBBBBBBBBBBBBuur64444443vf9yyBBBBBBBBBBBBBBBBB",
"BBBBBBBBBBBBBBBBByy64445,>:,xxuyyBBBBBBBBBBBBBBBBB",
"BBBBBBBBBBBBBBBBBueed54,;---9npwyBBBBBBBBBBBBBBBBB",
"BBBBBBBBBBBBBBBByulvb6,---=$-k59yykBBBBBBBBBBBBBBB",
"BBBBBBBBBBBBBBBBypnxe3,;-=$$-j45qyzBBBBBBBBBBBBBBB",
"BBBBBBBBBBBBBBByykv042---**&*6146yzkBBBBBBBBBBBBBB",
"BBBBBBBBBBBBBBByfbx44:---*$&**;4tyzzBBBBBBBBBBBBBB",
"BBBBBBBBBBBBBBByfnp35;--**&@+O-4eygkBBBBBBBBBBBBBB",
"BBBBBBBBBBBBBBryhc441---**%++O-46ygkBBBBBBBBBBBBBB",
"BBBBBBBBBBBBBBBpcu44<---*&+++O-26yglBBBBBBBBBBBBBB",
"BBBBBBBBBBBBBBBjN025:--=*&++O.o:6ygzBBBBBBBBBBBBBB",
"BBBBBBBBBBBBBBBnx845:;-=*%++.  ;5szlBBBBBBBBBBBBBB",
"BBBBBBBBBBBBBBxni244:--=*&+O...;6sxlBBBBBBBBBBBBBB",
"BBBBBBBBBBBBBBxxq444:-;=*%++...:6axBBBBBBBBBBBBBBB",
"BBBBBBBBBBBBBBxk8444:-;**%++..=46sxBBBBBBBBBBBBBBB",
"BBBBBBBBBBBBBBks8544:--=*%++..=27gxBBBBBBBBBBBBBBB",
"BBBBBBBBBBBBBkky8444:--=*&@Oo.=59xxBBBBBBBBBBBBBBB",
"BBBBBBBBBBBBBBkw8445:;-=**%+OO-4qlBBBBBBBBBBBBBBBB",
"BBBBBBBBBBBBBlky8544:--=**@OO+-4cvaBBBBBBBBBBBBBBB",
"BBBBBBBBBBBBBlku8544:--=*&&+OO-2MkyBBBBBBBBBBBBBBB",
"BBBBBBBBBBBBBlkyr544:--=***&&%;5muBBBBBBBBBBBBBBBB",
"BBBBBBBBBBBBBlkyy684>---******<kxyBBBBBBBBBBBBBBBB",
"BBBBBBBBBBBBBBxBu6kiq--;*****=evuyBBBBBBBBBBBBBBBB",
"BBBBBBBBBBBBBBkBy7xnr1--=***$=skuyBBBBBBBBBBBBBBBB",
"BBBBBBBBBBBBBBzBuetvy2--;=***ebsyyBBBBBBBBBBBBBBBB",
"BBBBBBBBBBBBBBlBuyqxN6;-;--=*qrwyBBBBBBBBBBBBBBBBB",
"BBBBBBBBBBBBBBzByy7iM62:--;--<wyyBBBBBBBBBBBBBBBBB",
"BBBBBBBBBBBBBBBBBueevs4>-;:128yuyBBBBBBBBBBBBBBBBB",
"BBBBBBBBBBBBBBBBBByyjv72:2457tyyuBBBBBBBBBBBBBBBBB",
"BBBBBBBBBBBBBBBBBByysbx8424eyyyBBBBBBBBBBBBBBBBBBB",
"BBBBBBBBBBBBBBBBBBByyxvk75qryyyBBBBBBBBBBBBBBBBBBB",
"BBBBBBBBBBBBBBBBBBBtyusbpruyyyBBBBMBBBBBBBBBBBBBBB",
"BBBBBBBBBBBBBBBBBBBByyyglkuyyicBBBBBBBBBBBBBBBBBBB",
"BBBBBBBBBBBBBBBBBBBBByygllkdkzzzBBBBBBBBBBBBBBBBBB",
"BBBBBBBBBBBBBBBBBBBBBBBBlxllxxcBBBBBBBBBBBBBBBBBBB",
"BBBBBBBBBBBBBBBBBBBBBBBBBlxlzzBBBBBBBBBBBBBBBBBBBB",
"BBBBBBBBBBBBBBBBBBBBBBBBBBBBBBBBBBBBBBBBBBBBBBBBBB",
"BBBBBBBBBBBBBBBBBBBBBBBBBBBBBBBBBBBBBBBBBBBBBBBBBB",
"BBBBBBBBBBBBBBBBBBBBBBBBBBBBBBBBBBBBBBBBBBBBBBBBBB"
};
