/* XPM */
static char *result[] = {
/* columns rows colors chars-per-pixel */
"50 50 56 1 ",
"  c #071D2B",
". c #081C2A",
"X c #0B2334",
"o c #0B2638",
"O c #0D293E",
"+ c #0D2B41",
"@ c #0E334D",
"# c #0F3652",
"$ c #0F3954",
"% c #0F3B59",
"& c #103753",
"* c #103955",
"= c #103C59",
"- c #134263",
"; c #15466C",
": c #15496E",
"> c #164C74",
", c #184F76",
"< c #175178",
"1 c #18537D",
"2 c #195782",
"3 c #1A5986",
"4 c #1C5D8B",
"5 c #1E6294",
"6 c #1E669A",
"7 c #1F699E",
"8 c #206495",
"9 c #206799",
"0 c #20689E",
"q c #1F6BA2",
"w c #1F71AC",
"e c #216CA4",
"r c #2272AD",
"t c #2375B1",
"y c #2578B5",
"u c #2979B6",
"i c #257CBB",
"p c #287DBD",
"a c #267FC0",
"s c #2782C4",
"d c #2983C6",
"f c #2685C9",
"g c #2986CB",
"h c #2A89CD",
"j c #2B8CD3",
"k c #2C8FD8",
"l c #2D90D6",
"z c #2C91DA",
"x c #3191D9",
"c c #2D96E3",
"v c #2E99E6",
"b c #2F9CEB",
"n c #309AE6",
"m c #319CEB",
"M c #2F9FF1",
"N c None",
/* pixels */
"NNNNNNNNNNNNNNNNNNNNNNNNNNNNNNNNNNNNNNNNNNNNNNNNNN",
"NNNNNNNNNNNNNNNNNNNNNNNNNNNNNNNNNNNNNNNNNNNNNNNNNN",
"NNNNNNNNNNNNNNNNNNNNNlNNNNNNNNNNNNNNNNNNNNNNNNNNNN",
"NNNNNNNNNNNNNNNNNNNNNNNNNNNNNNNNNNNNNNNNNNNNNNNNNN",
"NNNNNNNNNNNNNNNNNNNNzNNNNNNNNNNNNNNNNNNNNNNNNNNNNN",
"NNNNNNNNNNNNNNNNNNNNzNNrrrrrrNNNNNNNNNNNNNNNNNNNNN",
"NNNNNNNNNNNNNNNNNNNzNrrrrrrrrrNNNNNNNNNNNNNNNNNNNN",
"NNNNNNNNNNNNNNNNNNklNrrrrrryrryNNNNNNNNNNNNNNNNNNN",
"NNNNNNNNNNNNNNNNNNzhrrre300shdhjNNNNNNNNNNNNNNNNNN",
"NNNNNNNNNNNNNNNNNNzsrre422ezmbmkzNNNNNNNNNNNNNNNNN",
"NNNNNNNNNNNNNNNNNzjtre423jnmkkkkzzNNNNNNNNNNNNNNNN",
"NNNNNNNNNNNNNNNNxzjre3112chs425rhjNNNNNNNNNNNNNNNN",
"NNNNNNNNNNNNNNNNzzjr51>;>e,2321qrpzNNNNNNNNNNNNNNN",
"NNNNNNNNNNNNNNNNzzy73-:;;;;<2334ryxjNNNNNNNNNNNNNN",
"NNNNNNNNNNNNNNNNzzi3;===-:;:1223rrNlNNNNNNNNNNNNNN",
"NNNNNNNNNNNNNNNNzz2<-====-;;<222erNjNNNNNNNNNNNNNN",
"NNNNNNNNNNNNNNNNcz3>====*=:;:2224rNNNNNNNNNNNNNNNN",
"NNNNNNNNNNNNNNNNvz2;======;;:2224rNNNNNNNNNNNNNNNN",
"NNNNNNNNNNNNNNNNbz>@O+&==-;;;>1225rNNNNNNNNNNNNNNN",
"NNNNNNNNNNNNNNNNvz>++++&==-:;,2235tNNNNNNNNNNNNNNN",
"NNNNNNNNNNNNNNNNvz<O+++#=$-;;>2225rNNNNNNNNNNNNNNN",
"NNNNNNNNNNNNNNNavb1 o++@$&-;;>2235rNNNNNNNNNNNNNNN",
"NNNNNNNNNNNNNNNrkMi  oO+$=-;;>20h2eNNNNNNNNNNNNNNN",
"NNNNNNNNNNNNNNNrhMs   ++$$-;;>2eje0rNNNNNNNNNNNNNN",
"NNNNNNNNNNNNNNNramh.. ++&=-;;>22kierNNNNNNNNNNNNNN",
"NNNNNNNNNNNNNNNrehu.. ++$=-;;>22mdrNNNNNNNNNNNNNNN",
"NNNNNNNNNNNNNNNrrt#..X++&$-;;>23ndrNNNNNNNNNNNNNNN",
"NNNNNNNNNNNNNNNrr4:.X++@==-;;>22bhrrNNNNNNNNNNNNNN",
"NNNNNNNNNNNNNNNrr4>O+++@%%-;;>22nhtNNNNNNNNNNNNNNN",
"NNNNNNNNNNNNNNNNe4>++++#%%-;;>23bkiNNNNNNNNNNNNNNN",
"NNNNNNNNNNNNNzNNe4>++#&%%=;;;>22vjyNNNNNNNNNNNNNNN",
"NNNNNNNNNNNNNkxNr4,&&%%%==;;;>23mjtNNNNNNNNNNNNNNN",
"NNNNNNNNNNNNNlzfrr1:====*=::;>22bltNNNNNNNNNNNNNNN",
"NNNNNNNNNNNNNNkjyr2<=====-;;:322mzdNNNNNNNNNNNNNNN",
"NNNNNNNNNNNNNNkljt22;=*=*;;;<222mkNNNNNNNNNNNNNNNN",
"NNNNNNNNNNNNNNNzst72;====;;;1222zkNNNNNNNNNNNNNNNN",
"NNNNNNNNNNNNNNNzzae4:-=-;;::1333mjNNNNNNNNNNNNNNNN",
"NNNNNNNNNNNNNNNzzzaq62::;;:1324rvsNNNNNNNNNNNNNNNN",
"NNNNNNNNNNNNNNNNzvzir31<:;:1226ymzNNNNNNNNNNNNNNNN",
"NNNNNNNNNNNNNNNNNvbljes8884228rhkzNNNNNNNNNNNNNNNN",
"NNNNNNNNNNNNNNNNNxzmMcccMci24rrhzNNNNNNNNNNNNNNNNN",
"NNNNNNNNNNNNNNNNNNxccMMvha88errjzNNNNNNNNNNNNNNNNN",
"NNNNNNNNNNNNNNNNNNNkkiiitrerrrazNNNNNNNNNNNNNNNNNN",
"NNNNNNNNNNNNNNNNNNNNNrrrrrrrrezzNNNNNNNNNNNNNNNNNN",
"NNNNNNNNNNNNNNNNNNNNNNrrrrrrrNzzNNNNNNNNNNNNNNNNNN",
"NNNNNNNNNNNNNNNNNNNNNNNNNNNNNkzNNNNNNNNNNNNNNNNNNN",
"NNNNNNNNNNNNNNNNNNNNNNNNNNNNzzNNNNNNNNNNNNNNNNNNNN",
"NNNNNNNNNNNNNNNNNNNNNNNNNNNzzNNNNNNNNNNNNNNNNNNNNN",
"NNNNNNNNNNNNNNNNNNNNNNNNNNNNNNNNNNNNNNNNNNNNNNNNNN",
"NNNNNNNNNNNNNNNNNNNNNNNNNNNNNNNNNNNNNNNNNNNNNNNNNN"
};
