/* XPM */
static char *result[] = {
/* columns rows colors chars-per-pixel */
"50 50 56 1 ",
"  c #091D2B",
". c #092031",
"X c #0B263A",
"o c #0C293F",
"O c #0D2B41",
"+ c #0E334D",
"@ c #0F3652",
"# c #0F3954",
"$ c #0F3B59",
"% c #103754",
"& c #103B57",
"* c #113C5A",
"= c #11405D",
"- c #124163",
"; c #15466C",
": c #15486E",
"> c #164C73",
", c #184E77",
"< c #175079",
"1 c #19537D",
"2 c #175784",
"3 c #195782",
"4 c #175884",
"5 c #1A5885",
"6 c #1C5D8B",
"7 c #1A5F90",
"8 c #1E6394",
"9 c #1F669A",
"0 c #1F689E",
"q c #20699C",
"w c #1F6CA4",
"e c #1E70A9",
"r c #216DA4",
"t c #216FA8",
"y c #2670A4",
"u c #2272AD",
"i c #2375B2",
"p c #2579B6",
"a c #257CBB",
"s c #297DBB",
"d c #277FC1",
"f c #2782C4",
"g c #2983C5",
"h c #2886CA",
"j c #2A89CE",
"k c #2B8DD4",
"l c #2C8FD8",
"z c #2D90D7",
"x c #2D91DA",
"c c #2D96E3",
"v c #2E99E5",
"b c #2E9CEA",
"n c #3099E7",
"m c #319CEB",
"M c #309FF0",
"N c None",
/* pixels */
"NNNNNNNNNNNNNNNNNNNNNNNNNNNNNNNNNNNNNNNNNNNNNNNNNN",
"NNNNNNNNNNNNNNNNNNNNNNNNNNNNNNNNNNNNNNNNNNNNNNNNNN",
"NNNNNNNNNNNNNNNNNNNNNNNNNNNNNNNNNNNNNNNNNNNNNNNNNN",
"NNNNNNNNNNNNNNNNNNNNNNNNNzxxxzNNNNNNNNNNNNNNNNNNNN",
"NNNNNNNNNNNNNNNNNNNNNNNNxxxllzzxNNNNNNNNNNNNNNNNNN",
"NNNNNNNNNNNNNNNNNNNNNuugxxjpuNNNxNNNNNNNNNNNNNNNNN",
"NNNNNNNNNNNNNNNNNNNNuualzkiuuNNNNNNNNNNNNNNNNNNNNN",
"NNNNNNNNNNNNNNNNNNNNuufvkeruuuNNNNNNNNNNNNNNNNNNNN",
"NNNNNNNNNNNNNNNNNNNNuivb9238titiNNNNNNNNNNNNNNNNNN",
"NNNNNNNNNNNNNNNNNNNuupmg623389iuNNNNNNNNNNNNNNNNNN",
"NNNNNNNNNNNNNNNNNNuuulvu3323339iNNNNNNNNNNNNNNNNNN",
"NNNNNNNNNNNNNNNNNNue0vd31313338tuNNNNNNNNNNNNNNNNN",
"NNNNNNNNNNNNNNNNNuu9fvr,;,333338uNNNNNNNNNNNNNNNNN",
"NNNNNNNNNNNNNNNzuur68k:;;;>13333uuNNjNNNNNNNNNNNNN",
"NNNNNNNNNNNNNNNzuur31-*-;;;,3ubuuuNNNNNNNNNNNNNNNN",
"NNNNNNNNNNNNNNNzuu83-&&*-;;;1qcviuNNNNNNNNNNNNNNNN",
"NNNNNNNNNNNNNNNzuu15-&&&&;;;13smfuNNNNNNNNNNNNNNNN",
"NNNNNNNNNNNNNNNzuu5>&=&=&=;;>36zbfNNNNNNNNNNNNNNNN",
"NNNNNNNNNNNNNNkhey1;OO+#&*:;:355njiNNNNNNNNNNNNNNN",
"NNNNNNNNNNNNNNkhi61;ooo@&*:::333hluNNNNNNNNNNNNNNN",
"NNNNNNNNNNNNNNlhu63-.oO#$$-;:335qcdNNNNNNNNNNNNNNN",
"NNNNNNNNNNNNNNkhe61= .OO@#-;;>338chtNNNNNNNNNNNNNN",
"NNNNNNNNNNNNNNlhi6>   oO@$-;:>333alpNNNNNNNNNNNNNN",
"NNNNNNNNNNNNNNlkp6>   oO##-;:>333ibxNNNNNNNNNNNNNN",
"NNNNNNNNNNNNNNlxs6:   OO#$-;;>2336klNNNNNNNNNNNNNN",
"NNNNNNNNNNNNNNlxu3,X  OO@**;:>3333kxNNNNNNNNNNNNNN",
"NNNNNNNNNNNNNNNcj63-  OO@*-;:>3333kbNNNNNNNNNNNNNN",
"NNNNNNNNNNNNNNNvxq3= Xo+&&-;;,3336kcNNNNNNNNNNNNNN",
"NNNNNNNNNNNNNNNxmr3-ooO%%%-;;,2239llNNNNNNNNNNNNNN",
"NNNNNNNNNNNNNNNgnc3;OOo+*%-;;,223qllNNNNNNNNNNNNNN",
"NNNNNNNNNNNNNNNNln5;OOO%**-;;>336tflNNNNNNNNNNNNNN",
"NNNNNNNNNNNNNNNNpvf;%%*%**;;;>336uukkNNNNNNNNNNNNN",
"NNNNNNNNNNNNNNNNulbs;&&&&=;::1336uNzlNNNNNNNNNNNNN",
"NNNNNNNNNNNNNNNNefbbp=*&&-;;<3359uNzzNNNNNNNNNNNNN",
"NNNNNNNNNNNNNNNNuicbp=*&$;;;1333uuNxlNNNNNNNNNNNNN",
"NNNNNNNNNNNNNNNNieyf3*&&$;;;35iiuuNxzNNNNNNNNNNNNN",
"NNNNNNNNNNNNNNNNuuy63***;;:13ucpuiNxxNNNNNNNNNNNNN",
"NNNNNNNNNNNNNNNNNuuw6>*-;;,36jhyuNNxzNNNNNNNNNNNNN",
"NNNNNNNNNNNNNNNNNuue81<>;;>37vpuuNNxzNNNNNNNNNNNNN",
"NNNNNNNNNNNNNNvNNNiu8633>>18xjuuuNNzNNNNNNNNNNNNNN",
"NNNNNNNNNNNNNNmMNNiuut73368xcuuuiNNNNNNNNNNNNNNNNN",
"NNNNNNNNNNNNNNNNNNNuuur90ikmguiuNNNNNNNNNNNNNNNNNN",
"NNNNNNNNNNNNNNNNkzNNiiuuuaccpuyNNNNNNNNNNNNNNNNNNN",
"NNNNNNNNNNNNNNNNNxxxlkajxbcaitNNNNNNNNNNNNNNNNNNNN",
"NNNNNNNNNNNNNNNNNNzzxxxxxvxauNNNNNNNNNNNNNNNNNNNNN",
"NNNNNNNNNNNNNNNNNNNNllxxxxNNNNNNNNNNNNNNNNNNNNNNNN",
"NNNNNNNNNNNNNNNNNNNNlzzzNNNNNNNNNNNNNNNNNNNNNNNNNN",
"NNNNNNNNNNNNNNNNNNNNNNNNNNNNNNNNNNNNNNNNNNNNNNNNNN",
"NNNNNNNNNNNNNNNNNNNNNNNNNNNNNNNNNNNNNNNNNNNNNNNNNN",
"NNNNNNNNNNNNNNNNNNNNNNNNNNNNNNNNNNNNNNNNNNNNNNNNNN"
};
