/* XPM */
static char *result[] = {
/* columns rows colors chars-per-pixel */
"50 50 62 1 ",
"  c #071B2A",
". c #081C2A",
"X c #0A2232",
"o c #0C273A",
"O c #0C2A3E",
"+ c #0D2B41",
"@ c #0E324B",
"# c #0F3651",
"$ c #0F3A55",
"% c #0F3C59",
"& c #103752",
"* c #103955",
"= c #103C59",
"- c #123F61",
"; c #134263",
": c #15476C",
"> c #15486F",
", c #164C73",
"< c #184D76",
"1 c #174F78",
"2 c #175077",
"3 c #17517B",
"4 c #19527C",
"5 c #1A5782",
"6 c #1A5985",
"7 c #1B5C8A",
"8 c #1B5F90",
"9 c #1E6395",
"0 c #1F6699",
"q c #1F689E",
"w c #21679C",
"e c #20699E",
"r c #1F6BA1",
"t c #216EA5",
"y c #216FA8",
"u c #2571A7",
"i c #2272AD",
"p c #2275B2",
"a c #2579B6",
"s c #257DBC",
"d c #287FBE",
"f c #277FC0",
"g c #2680BF",
"h c #2682C3",
"j c #2883C6",
"k c #2786CA",
"l c #2986CA",
"z c #2B89CD",
"x c #2B8DD4",
"c c #2C8FD8",
"v c #318FD6",
"b c #2D91D6",
"n c #2D91DA",
"m c #3396DE",
"M c #2E96E1",
"N c #2E99E5",
"B c #2F9BEA",
"V c #3196E2",
"C c #3099E6",
"Z c #309DEB",
"A c #309FF1",
"S c None",
/* pixels */
"SSSSSSSSSSSSSSSSSSSSSSSSSSSSSSSSSSSSSSSSSSSSSSSSSS",
"SSSSSSSSSSSSSSSSSSSSSSSSbSSSSSSSSSSSSSSSSSSSSSSSSS",
"SSSSSSSSSSSSSSSSSSSSSSSbSSSSSSSSSSSSSSSSSSSSSSSSSS",
"SSSSSSSSSSSSSSSSSSSSScbSSSSSSSSSSSSSSSSSSSSSSSSSSS",
"SSSSSSSSSSSSSSSSSSSSSxSSSSSSSSSSSSSSSSSSSSSSSSSSSS",
"SSSSSSSSSSSSSSSSSSSSbbSiiiiiSSSSSSSSSSSSSSSSSSSSSS",
"SSSSSSSSSSSSSSSSSSSSnsiiiiiiiuSSSSSSSSSSSSSSSSSSSS",
"SSSSSSSSSSSSSSSSSSSnnpiiiiyiiiuSSSSSSSSSSSSSSSSSSS",
"SSSSSSSSSSSSSSSSSSnnziyqq08eiiiuSSSSSSSSSSSSSSSSSS",
"SSSSSSSSSSSSSSSSSSnngir555559iipSSSSSSSSSSSSSSSSSS",
"SSSSSSSSSSSSSSSSSSnkiy655567lxhppSSSSSSSSSSSSSSSSS",
"SSSSSSSSSSSSSSSSSsMnq55555aZBBMnsSSSSSSSSSSSSSSSSS",
"SSSSSSSSSSSSSSSSSbBj5452330snCBBCSSSSSSSSSSSSSSSSS",
"SSSSSSSSSSSSSSSSSxn054,::>,3qrjMMnSSSSSSSSSSSSSSSS",
"SSSSSSSSSSSSSSSSixn54;:::::35567xccSSSSSSSSSSSSSSS",
"SSSSSSSSSSSSSSSSixn5;%%%::::5555tflSSSSSSSSSSSSSSS",
"SSSSSSSSSSSSSSSSixb1===$;:::25557ikxSSSSSSSSSSSSSS",
"SSSSSSSSSSSSSSSSibx%==$=$:::>5557ipcvSSSSSSSSSSSSS",
"SSSSSSSSSSSSSSSirxx@++&==:::>5557ppbcSSSSSSSSSSSSS",
"SSSSSSSSSSSSSSSi9zzO+O@===::>5556rixbSSSSSSSSSSSSS",
"SSSSSSSSSSSSSSSi0zzXoO+&=%;::15559iSnSSSSSSSSSSSSS",
"SSSSSSSSSSSSSSSiyxl .O+@%%;::15559iSnbSSSSSSSSSSSS",
"SSSSSSSSSSSSvSSirsw..o++#%-::,5550iSmcSSSSSSSSSSSS",
"SSSSSSSSSSSSbSSir7  ..++*=-::,5559iuSSSSSSSSSSSSSS",
"SSSSSSSSSSSSbbSpw5;...++%*;::,5559iySSSSSSSSSSSSSS",
"SSSSSSSSSSSSbnSiw5, ..++$=;::,55l0iiSSSSSSSSSSSSSS",
"SSSSSSSSSSSSSbzi85,  X++#=;::,5tn9iiSSSSSSSSSSSSSS",
"SSSSSSSSSSSSSbxit6,..++@*=-:>,5qb9iSSSSSSSSSSSSSSS",
"SSSSSSSSSSSSSnbki7<OO+O@%%-:>,5fnqiSSSSSSSSSSSSSSS",
"SSSSSSSSSSSSSbnli74@+++#==->:,5lBkpSSSSSSSSSSSSSSS",
"SSSSSSSSSSSSSbnlp75:++$===->:,5xBspSSSSSSSSSSSSSSS",
"SSSSSSSSSSSSSSbli74:$*%===>::,5cciiSSSSSSSSSSSSSSS",
"SSSSSSSSSSSSSSbngi5,=====-::,55cxiSSSSSSSSSSSSSSSS",
"SSSSSSSSSSSSSSSnlp55;====:::>55cxpSSSSSSSSSSSSSSSS",
"SSSSSSSSSSSSSSSbNa04;===;:::256bxiSSSSSSSSSSSSSSSS",
"SSSSSSSSSSSSSSSSNNi9:==$;::2555bxiSSSSSSSSSSSSSSSS",
"SSSSSSSSSSSSSSSSnNb0,-:::>,5659nipSSSSSSSSSSSSSSSS",
"SSSSSSSSSSSSSSSSbnAnf6<::>4655aZpjSSSSSSSSSSSSSSSS",
"SSSSSSSSSSSSSSSSSvMBAz54>,5655gZpSSSSSSSSSSSSSSSSS",
"SSSSSSSSSSSSSSSSSSccVZCf646457lnpSSSSSSSSSSSSSSSSS",
"SSSSSSSSSSSSSSSSSSidajznt5555injSSSSSSSSSSSSSSSSSS",
"SSSSSSSSSSSSSSSSSSpiiiypt559yfnbSSSSSSSSSSSSSSSSSS",
"SSSSSSSSSSSSSSSSSSSuiiiiyytypcnSSSSSSSSSSSSSSSSSSS",
"SSSSSSSSSSSSSSSSSSSSyiiipyiipMbSSSSSSSSSSSSSSSSSSS",
"SSSSSSSSSSSSSSSSSSSSSupiypiixBSSSSSSSSSSSSSSSSSSSS",
"SSSSSSSSSSSSSSSSSSSSSSSSSpiVZMSSSSSSSSSSSSSSSSSSSS",
"SSSSSSSSSSSSSSSSSSSSSSSSSSVZnSSSSSSSSSSSSSSSSSSSSS",
"SSSSSSSSSSSSSSSSSSSSSSSSSZCVSSSSSSSSSSSSSSSSSSSSSS",
"SSSSSSSSSSSSSSSSSSSSSSSnnMSSSSSSSSSSSSSSSSSSSSSSSS",
"SSSSSSSSSSSSSSSSSSSSSSSSSSSSSSSSSSSSSSSSSSSSSSSSSS"
};
