/* XPM */
static char *result[] = {
/* columns rows colors chars-per-pixel */
"50 50 57 1 ",
"  c #071C2B",
". c #081C2B",
"X c #081F31",
"o c #0B2538",
"O c #0C283C",
"+ c #0D2B41",
"@ c #0E334C",
"# c #0F3954",
"$ c #0F3B59",
"% c #103753",
"& c #113955",
"* c #103C59",
"= c #134163",
"- c #15476C",
"; c #15496E",
": c #164C73",
"> c #184D77",
", c #164F78",
"< c #175077",
"1 c #17517A",
"2 c #19547D",
"3 c #175784",
"4 c #195782",
"5 c #1A5986",
"6 c #1C5D8B",
"7 c #1D618F",
"8 c #1E6294",
"9 c #1E669B",
"0 c #1F699E",
"q c #20699E",
"w c #1F6CA5",
"e c #216DA4",
"r c #216FA9",
"t c #2570A7",
"y c #2273AD",
"u c #2375B1",
"i c #2579B5",
"p c #257DBB",
"a c #2782BF",
"s c #2682C3",
"d c #2981C3",
"f c #2784C8",
"g c #2986CA",
"h c #278ACF",
"j c #2989CE",
"k c #2B8DD4",
"l c #2C8FD9",
"z c #2D90D6",
"x c #2C91DA",
"c c #3095DF",
"v c #2D96E2",
"b c #2E99E5",
"n c #2F9BEA",
"m c #3099E4",
"M c #309CEC",
"N c #309FF0",
"B c None",
/* pixels */
"BBBBBBBBBBBBBBBBBBBBBBBBBBBBBBBBBBBBBBBBBBBBBBBBBB",
"BBBBBBBBBBBBBBBBBBBBBBBBBBBBBBBBBBBBBBBBBBBBBBBBBB",
"BBBBBBBBBBBBBBBBBBBBBBBBBBBBBBBBBBBBBBBBBBBBBBBBBB",
"BBBBBBBBBBBBBBBBBBBBBBBBBzxxxxBBBBBBBBBBBBBBBBBBBB",
"BBBBBBBBBBBBBBBBBBBBBBBBxxxxxxxBBBBBBBBBBBBBBBBBBB",
"BBBBBBBBBBBBBBBBBBBBBBpkxxxgkBBBBBBBBBBBBBBBBBBBBB",
"BBBBBBBBBBBBBBBBBBBBBypxxkpyyBBBBBBBBBBBBBBBBBBBBB",
"BBBBBBBBBBBBBBBBBBBByygMkyyyyyyBBBBBBBBBBBBBBBBBBB",
"BBBBBBBBBBBBBBBBBBBywfnk7wyyyyurBBBBBBBBBBBBBBBBBB",
"BBBBBBBBBBBBBBBBBBuyubni3388yyyuBBBBBBBBBBBBBBBBBB",
"BBBBBBBBBBBBBBBBBByyfnd544446yyuBBBBBBBBBBBBBBBBBB",
"BBBBBBBBBBBBBBBBBuy9fb32444446ryuBBBBBBBBBBBBBBBBB",
"BBBBBBBBBBBBBBBBByyyxv>:>144446ryBBBBBBBBBBBBBBBBB",
"BBBBBBBBBBBBBBBBBuepb9----145feeyBBBBBBBBBBBBBBBBB",
"BBBBBBBBBBBBBBBkyyq4k;$=---26bblyuBBBBBBBBBBBBBBBB",
"BBBBBBBBBBBBBBBzye44h-$$=--:40vbayBBBBBBBBBBBBBBBB",
"BBBBBBBBBBBBBBkzy64<7=&**;--24qmkyyBBBBBBBBBBBBBBB",
"BBBBBBBBBBBBBBzzye4;&*&&&---:44zmsyBBBBBBBBBBBBBBB",
"BBBBBBBBBBBBBBkgye4-++@&&=-;;42pMgyBBBBBBBBBBBBBBB",
"BBBBBBBBBBBBBBkgy62-++O@**--;244xkytBBBBBBBBBBBBBB",
"BBBBBBBBBBBBBBkgy72=OO+@%*--;:43ybpBBBBBBBBBBBBBBB",
"BBBBBBBBBBBBBBljy5:X.O++%$=--:44qMgBBBBBBBBBBBBBBB",
"BBBBBBBBBBBBBBlxd5:..XO+%*=-;:44qlMBBBBBBBBBBBBBBB",
"BBBBBBBBBBBBBBkxs6:...++%*=-;:444uMzBBBBBBBBBBBBBB",
"BBBBBBBBBBBBBBBxd6:...++%$*-;>4440xxBBBBBBBBBBBBBB",
"BBBBBBBBBBBBBBBxd64*..++%*=-->4448llBBBBBBBBBBBBBB",
"BBBBBBBBBBBBBBBzg74=..++%*=--:4438pkBBBBBBBBBBBBBB",
"BBBBBBBBBBBBBBBxkq4=.oO@**=--:4439ykkBBBBBBBBBBBBB",
"BBBBBBBBBBBBBBBBzq4-o++%*$=--:3348uhBBBBBBBBBBBBBB",
"BBBBBBBBBBBBBBBavc2-+++@%%=--:4348ykzBBBBBBBBBBBBB",
"BBBBBBBBBBBBBBByjM4=+++%**=--:4439ukzBBBBBBBBBBBBB",
"BBBBBBBBBBBBBBBBib3;%%****=-->446wykzBBBBBBBBBBBBB",
"BBBBBBBBBBBBBBBBuxk:$$**&*;;;:5q5yykkBBBBBBBBBBBBB",
"BBBBBBBBBBBBBBBByuvw=$$***-;;8ik6yBkBBBBBBBBBBBBBB",
"BBBBBBBBBBBBBBBByykf-$&**=--1yMz8tBkBBBBBBBBBBBBBB",
"BBBBBBBBBBBBBBBByypbe*$$----2ybyeuBzBBBBBBBBBBBBBB",
"BBBBBBBBBBBBBBBBByrr8*=----;7Mx8yuBzBBBBBBBBBBBBBB",
"BBBBBBBBBBBBBBBBByyw2-----:27Mi8yyBzBBBBBBBBBBBBBB",
"BBBBBBBBBBBBBBBBByur841>--<4dbqeuBBBBBBBBBBBBBBBBB",
"BBBBBBBBBBBBBBBBBuyyy6442:27chyyBBBBBBBBBBBBBBBBBB",
"BBBBBBBBBBBBBBBBBBByyue4448zbfyyBBBBBBBBBBBBBBBBBB",
"BBBBBBBBBBBBBBBBBBByyyeq57kvzyyBBBBBBBBBBBBBBBBBBB",
"BBBBBBBBBBBBBBBMBBBBryyyrpbsiytBBBBBBBBBBBBBBBBBBB",
"BBBBBBBBBBBBBBBBBBBziyypklfyryBBBBBBBBBBBBBBBBBBBB",
"BBBBBBBBBBBBBBBBBBzklksklxgyyBBBBBBBBBBBBBBBBBBBBB",
"BBBBBBBBBBBBBBBBBBBcxxlxxzBBBBBBBBBBBBBBBBBBBBBBBB",
"BBBBBBBBBBBBBBBBBBBBkzzxlBBBBBBBBBBBBBBBBBBBBBBBBB",
"BBBBBBBBBBBBBBBBBBBBBBBBBBBBBBBBBBBBBBBBBBBBBBBBBB",
"BBBBBBBBBBBBBBBBBBBBBBBBBBBBBBBBBBBBBBBBBBBBBBBBBB",
"BBBBBBBBBBBBBBBBBBBBBBBBBBBBBBBBBBBBBBBBBBBBBBBBBB"
};
