/* XPM */
static char *result[] = {
/* columns rows colors chars-per-pixel */
"50 50 56 1 ",
"  c #071C2A",
". c #081C2A",
"X c #0B2334",
"o c #0B2539",
"O c #0D293E",
"+ c #0D2B41",
"@ c #0F334C",
"# c #0F3751",
"$ c #0F3954",
"% c #0F3B59",
"& c #103651",
"* c #103B56",
"= c #103C59",
"- c #123F61",
"; c #134163",
": c #15476C",
"> c #15486E",
", c #164C73",
"< c #174F78",
"1 c #175079",
"2 c #18537D",
"3 c #195682",
"4 c #1A5986",
"5 c #1B5C8B",
"6 c #1D5F90",
"7 c #1E6294",
"8 c #1E6599",
"9 c #1F689D",
"0 c #20699F",
"q c #1F6CA3",
"w c #206CA4",
"e c #206FA9",
"r c #2470A7",
"t c #2272AD",
"y c #2376B2",
"u c #2478B4",
"i c #257CBB",
"p c #277FC1",
"a c #287FC1",
"s c #2783C5",
"d c #2883C4",
"f c #2785C9",
"g c #2886CA",
"h c #2A89CE",
"j c #2B8DD4",
"k c #2C8FD8",
"l c #2D90D6",
"z c #2C91DA",
"x c #3092D7",
"c c #2D96E2",
"v c #2E99E6",
"b c #2F9CEA",
"n c #309BE7",
"m c #309BE8",
"M c #2F9FF0",
"N c None",
/* pixels */
"NNNNNNNNNNNNNNNNNNNNNNNNNNNNNNNNNNNNNNNNNNNNNNNNNN",
"NNNNNNNNNNNNNNNNNNNNNNNNNNNNNNNNNNNNNNNNNNNNNNNNNN",
"NNNNNNNNNNNNNNNNNNNNNNNNNNNNNNNNNNNNNNNNNNNNNNNNNN",
"NNNNNNNNNNNNNNNNNNNNNljNNNNNNNNNNNNNNNNNNNNNNNNNNN",
"NNNNNNNNNNNNNNNNNNNNNjNNNNNNNNNNNNNNNNNNNNNNNNNNNN",
"NNNNNNNNNNNNNNNNNNNNzNNtttttNNNNNNNNNNNNNNNNNNNNNN",
"NNNNNNNNNNNNNNNNNNNNxNtttttttrNNNNNNNNNNNNNNNNNNNN",
"NNNNNNNNNNNNNNNNNNNzpttttttttttNNNNNNNNNNNNNNNNNNN",
"NNNNNNNNNNNNNNNNNNlzittw990ttttNNNNNNNNNNNNNNNNNNN",
"NNNNNNNNNNNNNNNNNNzhutw53335dfiyNNNNNNNNNNNNNNNNNN",
"NNNNNNNNNNNNNNNNNNzfte4334thzzlkzNNNNNNNNNNNNNNNNN",
"NNNNNNNNNNNNNNNNNzzst43330nbbbbbcNNNNNNNNNNNNNNNNN",
"NNNNNNNNNNNNNNNNNzcs9311<3tyyuuhcjNNNNNNNNNNNNNNNN",
"NNNNNNNNNNNNNNNNNmz84::::>,2333qiakNNNNNNNNNNNNNNN",
"NNNNNNNNNNNNNNNNzbg42%;;::><3334tthjNNNNNNNNNNNNNN",
"NNNNNNNNNNNNNNNNlbs2-%%%-::>3333wtdjNNNNNNNNNNNNNN",
"NNNNNNNNNNNNNNNNzbf,**==$;::,4335tNzjNNNNNNNNNNNNN",
"NNNNNNNNNNNNNNNNlbf>*$$=*-:>>2245ttjjNNNNNNNNNNNNN",
"NNNNNNNNNNNNNNNNfbf>@O&*$=>:>4345ytNxNNNNNNNNNNNNN",
"NNNNNNNNNNNNNNNNibl*OO@&=->:>2424wtNxNNNNNNNNNNNNN",
"NNNNNNNNNNNNNNNNtvjOOO+&$%;:>12330eNNzNNNNNNNNNNNN",
"NNNNNNNNNNNNNNNt8hh o+++$$;:>,3326tNNNNNNNNNNNNNNN",
"NNNNNNNNNNNNNNNy7hh  o++$=-::13330tNNNNNNNNNNNNNNN",
"NNNNNNNNNNNNNNNtqhj  .++$=;:>,33w0ttNNNNNNNNNNNNNN",
"NNNNNNNNNNNNNNNttg:...O+$$;::,33f4wtNNNNNNNNNNNNNN",
"NNNNNNNNNNNNNNNtt4....++$=-:>,33h70tNNNNNNNNNNNNNN",
"NNNNNNNNNNNNNNNtt4@..X++$=;:>,33niwNNNNNNNNNNNNNNN",
"NNNNNNNNNNNNNzNt04, X++@$%;:><33ni0NNNNNNNNNNNNNNN",
"NNNNNNNNNNNNNkNt03,oO++@%%->>,33nftNNNNNNNNNNNNNNN",
"NNNNNNNNNNNNNkxN02<O+++&%%->:,33vftNNNNNNNNNNNNNNN",
"NNNNNNNNNNNNNkkdw02*++$=%=->>,33ngtNNNNNNNNNNNNNNN",
"NNNNNNNNNNNNNlxgt03:&*%===:>>,33nfyNNNNNNNNNNNNNNN",
"NNNNNNNNNNNNNNkzit3>====*-::,333bftNNNNNNNNNNNNNNN",
"NNNNNNNNNNNNNNkkde3<=====:::>333bsNNNNNNNNNNNNNNNN",
"NNNNNNNNNNNNNNNzjy83:*==*:::1333nfNNNNNNNNNNNNNNNN",
"NNNNNNNNNNNNNNNzziw3:**=::>>2335cuNNNNNNNNNNNNNNNN",
"NNNNNNNNNNNNNNNNzzu94;=;::>2423hctNNNNNNNNNNNNNNNN",
"NNNNNNNNNNNNNNNNzczi02::::12333zztNNNNNNNNNNNNNNNN",
"NNNNNNNNNNNNNNNNzcMzh42,:>24442laNNNNNNNNNNNNNNNNN",
"NNNNNNNNNNNNNNNNNzcbMza0653326dliNNNNNNNNNNNNNNNNN",
"NNNNNNNNNNNNNNNNNNzcnmMmcg3339szxNNNNNNNNNNNNNNNNN",
"NNNNNNNNNNNNNNNNNNNzgpgggy339tfxNNNNNNNNNNNNNNNNNN",
"NNNNNNNNNNNNNNNNNNNNytttttwettgjNNNNNNNNNNNNNNNNNN",
"NNNNNNNNNNNNNNNNNNNNettttttttpzNNNNNNNNNNNNNNNNNNN",
"NNNNNNNNNNNNNNNNNNNNNNtttttttzzNNNNNNNNNNNNNNNNNNN",
"NNNNNNNNNNNNNNNNNNNNNNNttNNNhzNNNNNNNNNNNNNNNNNNNN",
"NNNNNNNNNNNNNNNNNNNNNNNNNNNzzzNNNNNNNNNNNNNNNNNNNN",
"NNNNNNNNNNNNNNNNNNNNNNNNNNzzzNNNNNNNNNNNNNNNNNNNNN",
"NNNNNNNNNNNNNNNNNNNNNNNNNNNNNNNNNNNNNNNNNNNNNNNNNN",
"NNNNNNNNNNNNNNNNNNNNNNNNNNNNNNNNNNNNNNNNNNNNNNNNNN"
};
