/* XPM */
static char *result[] = {
/* columns rows colors chars-per-pixel */
"50 50 58 1 ",
"  c #071C2B",
". c #081D2B",
"X c #092131",
"o c #0D263A",
"O c #0C293D",
"+ c #0D2B41",
"@ c #0E344D",
"# c #10344E",
"$ c #0F3853",
"% c #0F3B59",
"& c #103753",
"* c #103954",
"= c #103C59",
"- c #103F61",
"; c #134162",
": c #15466C",
"> c #15486F",
", c #164C73",
"< c #184F76",
"1 c #175077",
"2 c #17537D",
"3 c #19537D",
"4 c #1A5782",
"5 c #1A5985",
"6 c #1C5D8C",
"7 c #1D5F90",
"8 c #1E6395",
"9 c #1E679B",
"0 c #1E689E",
"q c #206395",
"w c #21699D",
"e c #216DA4",
"r c #216FA8",
"t c #2273AD",
"y c #2375B2",
"u c #2479B6",
"i c #257BBA",
"p c #287EBB",
"a c #277FC0",
"s c #297FC0",
"d c #2680BF",
"f c #2681C2",
"g c #2883C5",
"h c #2787CA",
"j c #2987CB",
"k c #2988CE",
"l c #2C8ED5",
"z c #2C8ED8",
"x c #318ED5",
"c c #2D90D7",
"v c #2C91DA",
"b c #2D96E3",
"n c #2E99E6",
"m c #2E9BEA",
"M c #319AE6",
"N c #3099E8",
"B c #30A0F2",
"V c None",
/* pixels */
"VVVVVVVVVVVVVVVVVVVVVVVVVVVVVVVVVVVVVVVVVVVVVVVVVV",
"VVVVVVVVVVVVVVVVVVVVVVVVVVVVVVVVVVVVVVVVVVVVVVVVVV",
"VVVVVVVVVVVVVVVVVVVVVVVVVVVVVVVVVVVVVVVVVVVVVVVVVV",
"VVVVVVVVVVVVVVVVVVVVVVVvvvvvlcVVVVVVVVVVVVVVVVVVVV",
"VVVVVVVVVVVVVVVVVVVVVVVvvvlzVVVVVVVVVVVVVVVVVVVVVV",
"VVVVVVVVVVVVVVVVVVVVVVzvvltVVVVVVVVVVVVVVVVVVVVVVV",
"VVVVVVVVVVVVVVVVVVVVVkvvdutttrVVVVVVVVVVVVVVVVVVVV",
"VVVVVVVVVVVVVVVVVVVVtlvgtttttttVVVVVVVVVVVVVVVVVVV",
"VVVVVVVVVVVVVVVVVVVtylzyrtwrttyVVVVVVVVVVVVVVVVVVV",
"VVVVVVVVVVVVVVVVVVVtrbl486468tttVVVVVVVVVVVVVVVVVV",
"VVVVVVVVVVVVVVVVVVttzb75444458ttVVVVVVVVVVVVVVVVVV",
"VVVVVVVVVVVVVVVVVytam642334446ryVVVVVVVVVVVVVVVVVV",
"VVVVVVVVVVVVVVVVVtyln651:444it8rtVVVVVVVVVVVVVVVVV",
"VVVVVVVVVVVVVVVVVyubb63>:,<4zbgyytVVVVVVVVVVVVVVVV",
"VVVVVVVVVVVVVVVVttubv5->::>36cbvytVVVVVVVVVVVVVVVV",
"VVVVVVVVVVVVVVlVtyybt,==;::<4rnbitVVVVVVVVVVVVVVVV",
"VVVVVVVVVVVVVVxVtt6kw====>::37hNvytVVVVVVVVVVVVVVV",
"VVVVVVVVVVVVVVlVt75y7====:::<47kNjtVVVVVVVVVVVVVVV",
"VVVVVVVVVVVVVVljr542*+&=*=>:>445vNfVVVVVVVVVVVVVVV",
"VVVVVVVVVVVVVVche52=+++*==>:>444pnkVVVVVVVVVVVVVVV",
"VVVVVVVVVVVVVzvjr6,XoO+#==::>1448nvVVVVVVVVVVVVVVV",
"VVVVVVVVVVVVVvvjt6>..O++*=;:>,444uvlVVVVVVVVVVVVVV",
"VVVVVVVVVVVVVVvhe5,..XO+*=;::,4448hvVVVVVVVVVVVVVV",
"VVVVVVVVVVVVVVlh84,...++&=-::<4448ilzVVVVVVVVVVVVV",
"VVVVVVVVVVVVVVlhe6>...++*=;::,4448tlvVVVVVVVVVVVVV",
"VVVVVVVVVVVVVVlvp64;..++**;::,4458tkvVVVVVVVVVVVVV",
"VVVVVVVVVVVVVVlvs74-..++&=-:>,4448tyvcVVVVVVVVVVVV",
"VVVVVVVVVVVVVVVvp64-.o++&=-:>,4448yVvcVVVVVVVVVVVV",
"VVVVVVVVVVVVVVVvg74:+++#==->>,4448tVvVVVVVVVVVVVVV",
"VVVVVVVVVVVVVVVvMw5;+++#==->>,4448tVvVVVVVVVVVVVVV",
"VVVVVVVVVVVVVVVVMs4<#++#==->-,444qtVxVVVVVVVVVVVVV",
"VVVVVVVVVVVVVVVVMM44-&&&==>-,44i6ttVvVVVVVVVVVVVVV",
"VVVVVVVVVVVVVVVVzn94;%%%==>:>4gb7tVVvVVVVVVVVVVVVV",
"VVVVVVVVVVVVVVVVgbv4,%===;::<3gv6tVVvVVVVVVVVVVVVV",
"VVVVVVVVVVVVVVVVtiby4==%=:::3wcb7tVVVVVVVVVVVVVVVV",
"VVVVVVVVVVVVVVVVttjnt<%=;:::3rBtrtVVVVVVVVVVVVVVVV",
"VVVVVVVVVVVVVVVVtyinB6;::::14tbityVVVVVVVVVVVVVVVV",
"VVVVVVVVVVVVVVVVVttub63:::134tcutVVVVVVVVVVVVVVVVV",
"VVVVVVVVVVVVVVVVVVtre53,:>336vktyVVVVVVVVVVVVVVVVV",
"VVVVVVVVVVVVVVVVVVytt54435559ngyVVVVVVVVVVVVVVVVVV",
"VVVVVVVVVVVVVVVVVVtttqq6444wvvttVVVVVVVVVVVVVVVVVV",
"VVVVVVVVVVVVVVVVVVVtttre544fnityVVVVVVVVVVVVVVVVVV",
"VVVVVVVVVVVVVVVVVVVVttttrrrlfttVVVVVVVVVVVVVVVVVVV",
"VVVVVVVVVVVVVVVVVVVVVttttfbvytVVVVVVVVVVVVVVVVVVVV",
"VVVVVVVVVVVVVVVVVVVVVyttyzlitVVVVVVVVVVVVVVVVVVVVV",
"VVVVVVVVVVVVVVVVVVVvvlkkhvlVVVVVVVVVVVVVVVVVVVVVVV",
"VVVVVVVVVVVVVVVVVVVVcvvvvvxVVVVVVVVVVVVVVVVVVVVVVV",
"VVVVVVVVVVVVVVVVVVVVVlvvlVVVVVVVVVVVVVVVVVVVVVVVVV",
"VVVVVVVVVVVVVVVVVVVVVVVVVVVVVVVVVVVVVVVVVVVVVVVVVV",
"VVVVVVVVVVVVVVVVVVVVVVVVVVVVVVVVVVVVVVVVVVVVVVVVVV"
};
