/* XPM */
static char *result[] = {
/* columns rows colors chars-per-pixel */
"50 50 58 1 ",
"  c #091C2B",
". c #071F31",
"X c #0A2233",
"o c #0C293D",
"O c #0D2B41",
"+ c #0E334B",
"@ c #0F3751",
"# c #0F3954",
"$ c #0F3B59",
"% c #103753",
"& c #103B57",
"* c #113C5A",
"= c #113F61",
"- c #124163",
"; c #15466C",
": c #15486E",
"> c #164C74",
", c #184E76",
"< c #175076",
"1 c #16517C",
"2 c #19547D",
"3 c #1A5782",
"4 c #1A5884",
"5 c #1B5D8B",
"6 c #1B5F90",
"7 c #1E6395",
"8 c #1E6599",
"9 c #1F689D",
"0 c #20679C",
"q c #206A9E",
"w c #1F6AA1",
"e c #226EA5",
"r c #216FA9",
"t c #2272AD",
"y c #2375B1",
"u c #2479B6",
"i c #257CBB",
"p c #277FC0",
"a c #2780BF",
"s c #2782C4",
"d c #2984C6",
"f c #2785CA",
"g c #2986CA",
"h c #2A8ACE",
"j c #308ECF",
"k c #2B8DD4",
"l c #2E8FD8",
"z c #308ED3",
"x c #2D90D6",
"c c #2C91DA",
"v c #3190D6",
"b c #3091D9",
"n c #2D96E2",
"m c #2E99E5",
"M c #2F9BEA",
"N c #3099E5",
"B c #319CEC",
"V c None",
/* pixels */
"VVVVVVVVVVVVVVVVVVVVVVVVVVVVVVVVVVVVVVVVVVVVVVVVVV",
"VVVVVVVVVVVVVVVVVVVVVVVVVVVVVVVVVVVVVVVVVVVVVVVVVV",
"VVVVVVVVVVVVVVVVVVVVVVVVvcbbxVVVVVVVVVVVVVVVVVVVVV",
"VVVVVVVVVVVVVVVVVVVVVVVccckVVVVVVVVVVVVVVVVVVVVVVV",
"VVVVVVVVVVVVVVVVVVVVVVccxvVVVVVVVVVVVVVVVVVVVVVVVV",
"VVVVVVVVVVVVVVVVVVVVVkccxtttVVVVVVVVVVVVVVVVVVVVVV",
"VVVVVVVVVVVVVVVVVVVVVkcgittttVVVVVVVVVVVVVVVVVVVVV",
"VVVVVVVVVVVVVVVVVVVVhcxittttttVVVVVVVVVVVVVVVVVVVV",
"VVVVVVVVVVVVVVVVVVViccittwttttVVVVVVVVVVVVVVVVVVVV",
"VVVVVVVVVVVVVVVVVVVumc477477tttVVVVVVVVVVVVVVVVVVV",
"VVVVVVVVVVVVVVVVVVysm933333357ttVVVVVVVVVVVVVVVVVV",
"VVVVVVVVVVVVVVVVVVyhM5423337q9ttttVVVVVVVVVVVVVVVV",
"VVVVVVVVVVVVVVVVVtinh531,13anxetytVVVVVVVVVVVVVVVV",
"VVVVVVVVVVVVVVVVttint2<:;;>7cnkyttVVVVVVVVVVVVVVVV",
"VVVVVVVVVVVVVVVVtttnt=*;;;;:5kmcktVVVVVVVVVVVVVVVV",
"VVVVVVVVVVVVVVVVttdne*$=;;;;38hmctVVVVVVVVVVVVVVVV",
"VVVVVVVVVVVVVVVVttdg,&&*;;;;,30hMhVVVVVVVVVVVVVVVV",
"VVVVVVVVVVVVVxVVt8xh2&&&*;;;;420cMVVVVVVVVVVVVVVVV",
"VVVVVVVVVVVVvcVVre1$+O%&&;;;;4248nnVVVVVVVVVVVVVVV",
"VVVVVVVVVVVVvccV771OOo+&&*;;;2345sllVVVVVVVVVVVVVV",
"VVVVVVVVVVVVxckt722&XoO%&*;;;,333qhkVVVVVVVVVVVVVV",
"VVVVVVVVVVVVxcky83>X XO+&&-;>>3337ykzVVVVVVVVVVVVV",
"VVVVVVVVVVVVVccgt5:   oO%&=;;>3337tklVVVVVVVVVVVVV",
"VVVVVVVVVVVVVxkit52+  oo#&=;;>3337tklVVVVVVVVVVVVV",
"VVVVVVVVVVVVVkxsq33-  Oo#&-;:>3338tulVVVVVVVVVVVVV",
"VVVVVVVVVVVVVcxf733-  OO%&=;:>3337tyxVVVVVVVVVVVVV",
"VVVVVVVVVVVVVVcfe33=  OO@&=;;>3338tyxVVVVVVVVVVVVV",
"VVVVVVVVVVVVVVkki53= XOO#&=;;>3337tVcVVVVVVVVVVVVV",
"VVVVVVVVVVVVVVxxp53;ooO+%==>:>3340tVcVVVVVVVVVVVVV",
"VVVVVVVVVVVVVVxcp72;OOO+*====333d7tVVVVVVVVVVVVVVV",
"VVVVVVVVVVVVVVVMdt3;OOO%%==>=>3tg0tVVVVVVVVVVVVVVV",
"VVVVVVVVVVVVVVVnnh3;%%%***=>>34phttVVVVVVVVVVVVVVV",
"VVVVVVVVVVVVVVVVMn43-&&&&-;;>3uB7ttVVVVVVVVVVVVVVV",
"VVVVVVVVVVVVVVVVnBw4;&&&$:;;<3sm6tVVVVVVVVVVVVVVVV",
"VVVVVVVVVVVVVVVVcnne-$$$-;;,23dc5tVVVVVVVVVVVVVVVV",
"VVVVVVVVVVVVVVVVukMs3&$$;;:13eMdttVVVVVVVVVVVVVVVV",
"VVVVVVVVVVVVVVVVtykmi;-;;;<43rBattVVVVVVVVVVVVVVVV",
"VVVVVVVVVVVVVVVVVtthm5>;;;233rMatVVVVVVVVVVVVVVVVV",
"VVVVVVVVVVVVVVVVVytunh3>;>234tNiyVVVVVVVVVVVVVVVVV",
"VVVVVVVVVVVVVVVVVtttyg3322330cnuVVVVVVVVVVVVVVVVVV",
"VVVVVVVVVVVVVVVVVVVtt7533333kNdyVVVVVVVVVVVVVVVVVV",
"VVVVVVVVVVVVVVVVVVVttyeq5359cctVVVVVVVVVVVVVVVVVVV",
"VVVVVVVVVVVVVVVVVVVtttttrrrgNiiVVVVVVVVVVVVVVVVVVV",
"VVVVVVVVVVVVVVVVVVVVVttttydlkrVVVVVVVVVVVVVVVVVVVV",
"VVVVVVVVVVVVVVVVVVVVVVtttulldVVVVVVVVVVVVVVVVVVVVV",
"VVVVVVVVVVVVVVVVVVVVVkVVtklcVVVVVVVVVVVVVVVVVVVVVV",
"VVVVVVVVVVVVVVVVVVVVzckVkccVVVVVVVVVVVVVVVVVVVVVVV",
"VVVVVVVVVVVVVVVVVVVVVzkclcVVVVVVVVVVVVVVVVVVVVVVVV",
"VVVVVVVVVVVVVVVVVVVVVVVckVVVVVVVVVVVVVVVVVVVVVVVVV",
"VVVVVVVVVVVVVVVVVVVVVVVVVVVVVVVVVVVVVVVVVVVVVVVVVV"
};
