/* XPM */
static char *result[] = {
/* columns rows colors chars-per-pixel */
"60 60 237 2 ",
"   c black",
".  c #010001",
"X  c #020101",
"o  c #030002",
"O  c #020102",
"+  c #030202",
"@  c #030203",
"#  c #020303",
"$  c #050204",
"%  c #000505",
"&  c #030405",
"*  c #070406",
"=  c #0B0203",
"-  c #0B0607",
";  c #000D07",
":  c #0F0B06",
">  c #0A0508",
",  c #0D0708",
"<  c #0E070A",
"1  c #000A08",
"2  c #000A0A",
"3  c #000C08",
"4  c #000D09",
"5  c #000F09",
"6  c #19040E",
"7  c #11090B",
"8  c #10090F",
"9  c #150B0D",
"0  c #150B0E",
"q  c #140F0D",
"w  c #190D0C",
"e  c #1F160D",
"r  c #100A10",
"t  c #120A11",
"y  c #140B13",
"u  c #190D10",
"i  c #180D11",
"p  c #1D0F12",
"a  c #190E17",
"s  c #1A0E18",
"d  c #190D1C",
"f  c #1C1612",
"g  c #1E1813",
"h  c #1C101B",
"j  c #121A1D",
"k  c #210D11",
"l  c #20091B",
"z  c #211114",
"x  c #211117",
"c  c #231217",
"v  c #27151A",
"b  c #20121E",
"n  c #21121F",
"m  c #29151B",
"M  c #29161B",
"N  c #2B161C",
"B  c #311212",
"V  c #391513",
"C  c #30181F",
"Z  c #3A181F",
"A  c #002E1B",
"S  c #11291E",
"D  c #2F241E",
"F  c #0E1B21",
"G  c #0F1C23",
"H  c #09102A",
"J  c #09112A",
"K  c #09102B",
"L  c #09112B",
"P  c #0A102A",
"I  c #0A112A",
"U  c #0A102B",
"Y  c #0C122D",
"T  c #0D132E",
"R  c #141A2F",
"E  c #151933",
"W  c #151A35",
"Q  c #191C38",
"!  c #181F39",
"~  c #1B1E3A",
"^  c #310D2A",
"/  c #281623",
"(  c #281626",
")  c #291727",
"_  c #2F1820",
"`  c #2D1927",
"'  c #2B1828",
"]  c #2C1928",
"[  c #2E1928",
"{  c #2F1A29",
"}  c #3D1921",
"|  c #301A28",
" . c #321C2B",
".. c #371E2E",
"X. c #381F2E",
"o. c #391F2F",
"O. c #3B0F31",
"+. c #122124",
"@. c #162D21",
"#. c #17272F",
"$. c #162B32",
"%. c #1E203B",
"&. c #192F39",
"*. c #023534",
"=. c #0E373C",
"-. c #1B323E",
";. c #392525",
":. c #3E2129",
">. c #3B212F",
",. c #20213E",
"<. c #3B2030",
"1. c #3C2130",
"2. c #3E2231",
"3. c #44151E",
"4. c #481A19",
"5. c #692B17",
"6. c #401A22",
"7. c #461C23",
"8. c #43172C",
"9. c #570E31",
"0. c #5E1030",
"q. c #5A153C",
"w. c #7D1A2A",
"e. c #6E123E",
"r. c #6A173F",
"t. c #4F2724",
"y. c #40222E",
"u. c #45242E",
"i. c #46362C",
"p. c #48302E",
"a. c #412433",
"s. c #452634",
"d. c #492731",
"f. c #4C2832",
"g. c #4A2836",
"h. c #4B2836",
"j. c #4F2A35",
"k. c #4C2937",
"l. c #4E2A37",
"z. c #5E2C31",
"x. c #502B38",
"c. c #532C38",
"v. c #522C39",
"b. c #552D3A",
"n. c #562D3B",
"m. c #572E3B",
"M. c #582E3B",
"N. c #582E3C",
"B. c #592F3C",
"V. c #5B303D",
"C. c #7C2E2B",
"Z. c #773B37",
"A. c #00663C",
"S. c #173640",
"D. c #123D44",
"F. c #232540",
"G. c #242441",
"H. c #262643",
"J. c #252544",
"K. c #262644",
"L. c #252D47",
"P. c #2A2A47",
"I. c #2B2B48",
"U. c #363753",
"Y. c #4D1341",
"T. c #5A174C",
"R. c #6D1549",
"E. c #76174D",
"W. c #004643",
"Q. c #0F4146",
"!. c #064C4C",
"~. c #074C4C",
"^. c #00504C",
"/. c #00534F",
"(. c #005751",
"). c #005652",
"_. c #005D50",
"`. c #3A405B",
"'. c #00694E",
"]. c #007646",
"[. c #007948",
"{. c #007B49",
"}. c #007B4B",
"|. c #007E4B",
" X c #695042",
".X c #6F5546",
"XX c #7E6150",
"oX c #434A63",
"OX c #424964",
"+X c #555773",
"@X c #801B2B",
"#X c #90352F",
"$X c #B8273E",
"%X c #9E4122",
"&X c #A3452A",
"*X c #A94C36",
"=X c #8F633D",
"-X c #8C174F",
";X c #861E48",
":X c #A21F4A",
">X c #AC2149",
",X c #9D4F49",
"<X c #A3564A",
"1X c #A24C57",
"2X c #BF5D5D",
"3X c #846554",
"4X c #96735E",
"5X c #C7635B",
"6X c #F24C72",
"7X c #D56A62",
"8X c #C07360",
"9X c #BF8451",
"0X c #AB836C",
"qX c #C3957B",
"wX c #EA8D67",
"eX c #F9A66B",
"rX c #6A708A",
"tX c #6D718D",
"yX c #7C809C",
"uX c #99A0BA",
"iX c #9AA0BC",
"pX c #9BA0BC",
"aX c #CD9C81",
"sX c #DEA086",
"dX c #DFAA8C",
"fX c #E1AC8D",
"gX c #E7B395",
"hX c #EFB696",
"jX c #FAB997",
"kX c #F2B998",
"lX c #F3BB9B",
"zX c #F9BE9D",
"xX c #FFC2A0",
"cX c #FFC3A1",
"vX c #A2A9C4",
"bX c #A3A9C4",
"nX c None",
/* pixels */
"nXnXnXnXnXnXnXnXnXnXnXnXnXnXnXnXnXnXnXnXnXnXnXnXnXnXnXnXnXnXnXnXnXnXnXnXnXnXnXnXnXnXnXnXnXnXnXnXnXnXnXnXnXnXnXnXnXnXnXnX",
"nXnXnXnXnXnXnXnXnXnXnXnXnXnXnXnXnXnXnXnXnXnXnXnXnXnXnXnXnXnXnXnXnXnXnXnXnXnXnXnXnXnXnXnXnXnXnXnXnXnXnXnXnXnXnXnXnXnXnXnX",
"nXnXnXnXnXnXnXnXnXnXnXnXnXnXnXnXnXnXnXnXnXnXnXnXnXnXnXnXnXnXnXnXnXnXnXnXnXnXnXnXnXnXnXnXnXnXnXnXnXnXnXnXnXnXnXnXnXnXnXnX",
"nXnXnXnXnXnXnXnXnXnXnXnXnXnXnXnXnXnXnXnXnXnXnXnXnXnXnXnXnXnXnXnXnXnXnXnXnXnXnXnXnXnXnXnXnXnXnXnXnXnXnXnXnXnXnXnXnXnXnXnX",
"nXnXnXnXnXnXnXnXnXnXnXnXnXnXnXnXnXnXnXnXnXnXnXnXnXnXnXnXnXnXnXnXnXnXnXnXnXnXnXnXnXnXnXnXnXnXnXnXnXnXnXnXnXnXnXnXnXnXnXnX",
"nXnXnXnXnXnXnXnXnXnXnXnXnXnXnXnXnXnXnXnXnXnXnXnXnXnXnXnXnXnXnXnXnXnXnXnXnXnXnXnXnXnXnXnXnXnXnXnXnXnXnXnXnXnXnXnXnXnXnXnX",
"nXnXnXnXnXnXnXnXnXnXnXnXnXnXnXnXnXnXnXnXnXnXnXnXnXnXnXnXnXnXnXnXnXnXnXnXnXnXnXnXnXnXnXnXnXnXnXnXnXnXnXnXnXnXnXnXnXnXnXnX",
"nXnXnXnXnXnXnXnXnXnXnXnXnXnXnXnXnXnXnXnXnXnXnXnXnXnXnXnXnXnXnXnXnXnXnXnXnXnXnXnXnXnXnXnXnXnXnXnXnXnXnXnXnXnXnXnXnXnXnXnX",
"nXnXnXnXnXnXnXnXnXnXnXnXnXnXnXnXnXnXnXnXnXnXnXnXnXnXnXnX`.nXrXnXpXnXnXnXnXnXnXnXnXnXnXnXnXnXnXnXnXnXnXnXnXnXnXnXnXnXnXnX",
"nXnXnXnXnXnXnXnXnXnXnXnXnXnXnXnXnXnXnXnXnXnXnXnXbXP.nXnX%.nX~ nXH nXnXnX+XnXnXnXnXnXnXnXnXnXnXnXnXnXnXnXnXnXnXnXnXnXnXnX",
"nXnXnXnXnXnXnXnXnXnXnXnXnXnXnXnXnXnXnXnXnXL yXJ J.nXnXnXnXnXnXnXnXnXnXnXK nXnXnXnXnXnXnXnXnXnXnXnXnXnXnXnXnXnXnXnXnXnXnX",
"nXnXnXnXnXnXnXnXnXnXnXnXnXnXnXnXnXnXnXnXG.P nXnXnXnXnXnXnXnXnXnXnXnXnXnXnXnXnXnXQ nXnXnXnXnXnXnXnXnXnXnXnXnXnXnXnXnXnXnX",
"nXnXnXnXnXnXnXnXnXnXnXnXnXnXnXnXnXnXnXL.nXnXnXnXnXnXnXnXnXnXnXnXnXnXnXnXnXnXnXnXnXnXoXnXnXnXnXnXnXnXnXnXnXnXnXnXnXnXnXnX",
"nXnXnXnXnXnXnXnXnXnXnXnXnXnXnXnXnXnXnXL nXnXnXnXnXnXnXnXnXnXnXnXnXnXnXnXnXnXnXnXnXnXK.nXY nXnXnXnXnXnXnXnXnXnXnXnXnXnXnX",
"nXnXnXnXnXnXnXnXnXnXnXnXnXnXnXnXnXnXH.nXnXnXnXnXnXnXnXnXnXnXnXnXnXnXnXnXnXnXnXnXnXnXnXnXH.nXnXnXnXnXnXnXnXnXnXnXnXnXnXnX",
"nXnXnXnXnXnXnXnXnXnXnXnXnXnXnXnXI nXnXnXnXnXnXnXnXnXnXnXnXnXnXnXnXnXnXnXnXnXnXnXnXnXnXnXnXT uXnXnXnXnXnXnXnXnXnXnXnXnXnX",
"nXnXnXnXnXnXnXnXnXnXnXnXnXnXnXI U.nXnXnXnXnXnXnXnXnXnXnXnXnXnXnXnXnXnXnXnXnXnXnXnXnXnXnXnXnXnXnXnXnXnXnXnXnXnXnXnXnXnXnX",
"nXnXnXnXnXnXnXnXnXnXnXnXnXnXnXnXnXnXnXnXnXnXnXnXnXnXnXnXnXnXnXnXnXnXnXnXnXnXnXnXnXnXnXnXnXnXnXnXOXnXnXnXnXnXnXnXnXnXnXnX",
"nXnXnXnXnXnXnXnXnXnXnXnXnXnXrXE nXnXnXnXnXnXnXnXnXnXnXnXnXnXnXnXnXnXnXnXnXnXnXnXnXnXnXnXnXnXnXnX,.P nXnXnXnXnXnXnXnXnXnX",
"nXnXnXnXnXnXnXnXnXnXnXnXnXnXnXnXnXnXnXnXnXnXnXnXnXnXnXnXnXnXnXnXnXnXnXnXnXnXnXnXnXnXnXnXnXnXnXnXnXnXnXnXnXnXnXnXnXnXnXnX",
"nXnXnXnXnXnXnXnXnXnXnXnXnXnXU iXnXnXnXnXnXnXnXnXnXnXnXnXnXnXnXnXnXnXnXnXnXnXnXnXnXnXnXnXnXnXnXnXnXnXnXnXnXnXnXnXnXnXnXnX",
"nXnXnXnXnXnXnXnXnXnXnXnXnXnXnXnXnXnXnXnXnXnXnXnXnXnXnXnXnXnXnXnXnXnXnXnXnXnXnXnXnXnXnXnXnXnXnXnXnXnXnXnXnXnXnXnXnXnXnXnX",
"nXnXnXnXnXnXnXnXnXnXnXnXnXnXnXnXnXnXnXnXnXnXnXnXnXnXnXnXnXnXnXnXnXnXnXnXnXnXnXnXnXnXnXnXnXnXnXnXnXnXnXnXnXnXnXnXnXnXnXnX",
"nXnXnXnXnXnXnXnXnXnXnXnXnXnXnXF.nXnXnXnXnXnXnXnXnX4.k     nXnXnXnXnXnXnXnXnXnXnXnXnXnXnXnXnXnXnXnXnXnXnXnXnXnXnXnXnXnXnX",
"nXnXnXnXnXnXnXnXnXnXnXnXnXnXnX~ nXnXnXnXnXnXnXnX3.8.V 7.6.B nXnXnXnXnXnXnXnXnXnXnXnXnXnXnXnXnXnXnXnXnXnXnXnXnXnXnXnXnXnX",
"nXnXnXnXnXnXnXnXnXnXnXnXnXnXnXnXW nXnXnXnXnXnX6 :Xq.C.Z u q nXnXnXnXnXnXnXnXnXnXnXnXnXnXnXnXnXnXnXnXnXnXnXnXnXnXnXnXnXnX",
"nXnXnXnXnXnXnXnXnXnXnXnXnXnXnXnXnXI.nXnXnXnXnX6X;Xr.} + lX.XnXnXnXnXnXnXnXnXnXnXnXnXnXnXnXnXnXnXnXnXnXnXnXnXnXnXnXnXnXnX",
"nXnXnXnXnXnXnXnXnXnXnXnXnXnXnXnXnX! tXvXnXnXnXnX@.A.z qXgX.XnXnXnXnXnXnXnXnXnXnXnXnXnXnXnXnXnXnXnXnXnXnXnXnXnXnXnXnXnXnX",
"nXnXnXnXnXnXnXnXnXnXnXnXnXnXnXnXnXnXnXR :.:.i   $ S p dXcX.XnXnXnXnXnXnXnXnXnXnXnXnXnXnXnXnXnXnXnXnXnXnXnXnXnXnXnXnXnXnX",
"nXnXnXnXnXnXnXnXnXnXnXnXnXnXnXnXnXnXnX< V.V.V.v   X 4XcX.Xi.nXnXnXnXnXnXnXnXnXnXnXnXnXnXnXnXnXnXnXnXnXnXnXnXnXnXnXnXnXnX",
"nXnXnXnXnXnXnXnXnXnXnXnXnXnXnXnXnXnXnX> X.a.m V.V.;.zXf nXnXnXnXnXnXnXnXnXnXnXnXnXnXnXnXnXnXnXnXnXnXnXnXnXnXnXnXnXnXnXnX",
"nXnXnXnXnXnXnXnXnXnXnXnXnXnXnXnXnXnXnX* b 7 m.` b.V.  nXnXnXnXnXnXnXnXnXnXnXnXnXnXnXnXnXnXnXnXnXnXnXnXnXnXnXnXnXnXnXnXnX",
"nXnXnXnXnXnXnXnXnXnXnXnXnXnXnXnXnXnXnX0 V.B.[ a V.V.  nXnXnXnXnXnXnXnXnXnXnXnXnXnXnXnXnXnXnXnXnXnXnXnXnXnXnXnXnXnXnXnXnX",
"nXnXnXnXnXnXnXnXnXnXnXnXnXnXnXnXnX_ c.V.B.{ s l.V.f.nXnXnXnXnXnXnXnXnXnXnXnXnXnXnXnXnXnXnXnXnXnXnXnXnXnXnXnXnXnXnXnXnXnX",
"nXnXnXnXnXnXnXnXnXnXnXnXnXnXnXnXC V.V.V.[ s g.V.V.d.nXnXnXnXnXnXnXnXnXnXnXnXnXnXnXnXnXnXnXnXnXnXnXnXnXnXnXnXnXnXnXnXnXnX",
"nXnXnXnXnXnXnXnXnXnXnXnXnXnXnX3Xp.V.V.n.t >.V.V.V.  nXnXnXnXnXnXnXnXnXnXnXnXnXnXnXnXnXnXnXnXnXnXnXnXnXnXnXnXnXnXnXnXnXnX",
"nXnXnXnXnXnXnXnXnXnXnXnXnXnX X0X- f.V.1.O 2.m.V.h.  nXnXnXnXnXnXnXnXnXnXnXnXnXnXnXnXnXnXnXnXnXnXnXnXnXnXnXnXnXnXnXnXnXnX",
"nXnXnXnXnXnXnXnXnXnXnXnXnXD hXnX9 M g.n ) ) <.<.|   nXnXnXnXnXnXnXnXnXnXnXnXnXnXnXnXnXnXnXnXnXnXnXnXnXnXnXnXnXnXnXnXnXnX",
"nXnXnXnXnXnXnXnXnXnXnXnXnXkXfXnX  , ( @ O O O o = nXnXnXnXnXnXnXnXnXnXnXnXnXnXnXnXnXnXnXnXnXnXnXnXnXnXnXnXnXnXnXnXnXnXnX",
"nXnXnXnXnXnXnXnXnXnXnXnXt.,X: e nX. x v.2.' 8 R.w.nXnXnXnXnXnXnXnXnXnXnXnXnXnXnXnXnXnXnXnXnXnXnXnXnXnXnXnXnXnXnXnXnXnXnX",
"nXnXnXnXnXnXnXnXnXnXnX  9X9X9X<XnXN V.V.s.) ^ E.>X@XnXnXnXnXnXnXnXnXnXnXnXnXnXnXnXnXnXnXnXnXnXnXnXnXnXnXnXnXnXnXnXnXnXnX",
"nXnXnXnXnXnXnXnXnXnXnX  =X=XZ.z.c V.V.M. .y Y.-X-X$X  nXnXnXnXnXnXnXnXnXnXnXnXnXnXnXnXnXnXnXnXnXnXnXnXnXnXnXnXnXnXnXnXnX",
"nXnXnXnXnXnXnXnXnXnXnX  eXwX2X1X:.V.V.k.( l T.e.9.0.A nXnXnXnXnXnXnXnXnXnXnXnXnXnXnXnXnXnXnXnXnXnXnXnXnXnXnXnXnXnXnXnXnX",
"nXnXnXnXnXnXnXnXnXnXnXnX        u.V.N...h O.d *.).|.].nXnXnXnXnXnXnXnXnXnXnXnXnXnXnXnXnXnXnXnXnXnXnXnXnXnXnXnXnXnXnXnXnX",
"nXnXnXnXnXnXnXnXnXnXnXnXnXnXnXj.V.V.x.( # &.-.-.).}.|.5 nXnXnXnXnXnXnXnXnXnXnXnXnXnXnXnXnXnXnXnXnXnXnXnXnXnXnXnXnXnXnXnX",
"nXnXnXnXnXnXnXnXnXnXnXnXnXnXnXj.V.V.o.n j -.-.-.)._.|.5 nXnXnXnXnXnXnXnXnXnXnXnXnXnXnXnXnXnXnXnXnXnXnXnXnXnXnXnXnXnXnXnX",
"nXnXnXnXnXnXnXnXnXnXnXnXnXnXnX0 V.k.] n j -.-.-.)._.|.5 nXnXnXnXnXnXnXnXnXnXnXnXnXnXnXnXnXnXnXnXnXnXnXnXnXnXnXnXnXnXnXnX",
"nXnXnXnXnXnXnXnXnXnXnXnXnXnXnX  y.o.) r #.-.-.D.)._.[.3 nXnXnXnXnXnXnXnXnXnXnXnXnXnXnXnXnXnXnXnXnXnXnXnXnXnXnXnXnXnXnXnX",
"nXnXnXnXnXnXnXnXnXnXnXnXnXnXnX=.G / ) & -.-.-.~.).|.].nXnXnXnXnXnXnXnXnXnXnXnXnXnXnXnXnXnXnXnXnXnXnXnXnXnXnXnXnXnXnXnXnX",
"nXnXnXnXnXnXnXnXnXnXnXnXnXnX% ).Q.F n & -.-.!.).'.|.  nXnXnXnXnXnXnXnXnXnXnXnXnXnXnXnXnXnXnXnXnXnXnXnXnXnXnXnXnXnXnXnXnX",
"nXnXnXnXnXnXnXnXnXnXnXnXnXnX5XW.^./.$.+.S.).).(.{.].  nXnXnXnXnXnXnXnXnXnXnXnXnXnXnXnXnXnXnXnXnXnXnXnXnXnXnXnXnXnXnXnXnX",
"nXnXnXnXnXnXnXnXnXnXnXnXnXsXw nXnX1 2 2 2 2 2 4 ; nXnXnXnXnXnXnXnXnXnXnXnXnXnXnXnXnXnXnXnXnXnXnXnXnXnXnXnXnXnXnXnXnXnXnX",
"nXnXnXnXnXnXnXnXnXnXnXnXaX%XnXnXnXnXnXnXnXnX  &XnXnXnXnXnXnXnXnXnXnXnXnXnXnXnXnXnXnXnXnXnXnXnXnXnXnXnXnXnXnXnXnXnXnXnXnX",
"nXnXnXnXnXnXnXnXnXnXnXnX8XjX5.nXnXnXnXnXnXnX  7X*XXXnXnXnXnXnXnXnXnXnXnXnXnXnXnXnXnXnXnXnXnXnXnXnXnXnXnXnXnXnXnXnXnXnXnX",
"nXnXnXnXnXnXnXnXnXnXnXnXnX#XxXg nXnXnXnXnXnXnX#X#X#XnXnXnXnXnXnXnXnXnXnXnXnXnXnXnXnXnXnXnXnXnXnXnXnXnXnXnXnXnXnXnXnXnXnX",
"nXnXnXnXnXnXnXnXnXnXnXnXnXnXnXnXnXnXnXnXnXnXnXnXnXnXnXnXnXnXnXnXnXnXnXnXnXnXnXnXnXnXnXnXnXnXnXnXnXnXnXnXnXnXnXnXnXnXnXnX",
"nXnXnXnXnXnXnXnXnXnXnXnXnXnXnXnXnXnXnXnXnXnXnXnXnXnXnXnXnXnXnXnXnXnXnXnXnXnXnXnXnXnXnXnXnXnXnXnXnXnXnXnXnXnXnXnXnXnXnXnX",
"nXnXnXnXnXnXnXnXnXnXnXnXnXnXnXnXnXnXnXnXnXnXnXnXnXnXnXnXnXnXnXnXnXnXnXnXnXnXnXnXnXnXnXnXnXnXnXnXnXnXnXnXnXnXnXnXnXnXnXnX",
"nXnXnXnXnXnXnXnXnXnXnXnXnXnXnXnXnXnXnXnXnXnXnXnXnXnXnXnXnXnXnXnXnXnXnXnXnXnXnXnXnXnXnXnXnXnXnXnXnXnXnXnXnXnXnXnXnXnXnXnX",
"nXnXnXnXnXnXnXnXnXnXnXnXnXnXnXnXnXnXnXnXnXnXnXnXnXnXnXnXnXnXnXnXnXnXnXnXnXnXnXnXnXnXnXnXnXnXnXnXnXnXnXnXnXnXnXnXnXnXnXnX"
};
