/* XPM */
static char *result[] = {
/* columns rows colors chars-per-pixel */
"60 60 225 2 ",
"   c black",
".  c #010000",
"X  c #020102",
"o  c #030102",
"O  c #030103",
"+  c #040203",
"@  c #050203",
"#  c #050303",
"$  c #050204",
"%  c #040304",
"&  c #030405",
"*  c #0C0203",
"=  c #080406",
"-  c #080407",
";  c #090507",
":  c #090706",
">  c #0B0607",
",  c #0D0606",
"<  c #0A0508",
"1  c #0A0509",
"2  c #0C0608",
"3  c #0D0708",
"4  c #0C070A",
"5  c #0C070C",
"6  c #000A0A",
"7  c #000F08",
"8  c #10080B",
"9  c #11090B",
"0  c #130A0C",
"q  c #10090F",
"w  c #140A0D",
"e  c #150B0D",
"r  c #1F0B0F",
"t  c #180C0C",
"y  c #180C0E",
"u  c #140B13",
"i  c #150C14",
"p  c #190D10",
"a  c #1C0F13",
"s  c #1D0F13",
"d  c #1D0F14",
"f  c #1E0B1A",
"g  c #1F0A1B",
"h  c #1B0F1A",
"j  c #1C0F19",
"k  c #1C0F1A",
"l  c #0C1112",
"z  c #0A1318",
"x  c #15141A",
"c  c #101C1E",
"v  c #240E13",
"b  c #320A10",
"n  c #2C1117",
"m  c #21121F",
"M  c #29151B",
"N  c #261D18",
"B  c #311212",
"V  c #002315",
"C  c #002616",
"Z  c #002717",
"A  c #08112A",
"S  c #09112B",
"D  c #0A102A",
"F  c #0A112A",
"G  c #0A112B",
"H  c #0B112C",
"J  c #0D122C",
"K  c #0C132C",
"L  c #0C132D",
"P  c #0D132E",
"I  c #0E142E",
"U  c #131F24",
"Y  c #111630",
"T  c #121632",
"R  c #141834",
"E  c #161A35",
"W  c #250920",
"Q  c #2C0F29",
"!  c #281623",
"~  c #281626",
"^  c #291727",
"/  c #2C1828",
"(  c #301920",
")  c #331B22",
"_  c #3C1920",
"`  c #3B1F27",
"'  c #301B2A",
"]  c #331C2C",
"[  c #361E2D",
"{  c #371E2D",
"}  c #381E2E",
"|  c #381F2E",
" . c #391F2E",
".. c #391F2F",
"X. c #092327",
"o. c #002D2B",
"O. c #132D21",
"+. c #17272F",
"@. c #003720",
"#. c #182A33",
"$. c #1E203B",
"%. c #1C243E",
"&. c #1B323E",
"*. c #19343F",
"=. c #272820",
"-. c #3F212A",
";. c #39202F",
":. c #21223F",
">. c #3E2231",
",. c #3F2332",
"<. c #4A1C18",
"1. c #58201E",
"2. c #401A22",
"3. c #570E31",
"4. c #411037",
"5. c #521A32",
"6. c #552125",
"7. c #5C2222",
"8. c #562D29",
"9. c #422433",
"0. c #452533",
"q. c #442534",
"w. c #472635",
"e. c #492736",
"r. c #4E2A38",
"t. c #502A35",
"y. c #502B38",
"u. c #532C39",
"i. c #532C3A",
"p. c #542D3A",
"a. c #562D3A",
"s. c #592F3C",
"d. c #5A2F3C",
"f. c #513E33",
"g. c #5B303D",
"h. c #673233",
"j. c #584338",
"k. c #6F4D2F",
"l. c #634C3E",
"z. c #7F4739",
"x. c #153841",
"c. c #232340",
"v. c #242442",
"b. c #252643",
"n. c #262643",
"m. c #262644",
"M. c #2D2F4C",
"N. c #383A56",
"B. c #531546",
"V. c #591444",
"C. c #5A174C",
"Z. c #67194B",
"A. c #75174D",
"S. c #771C49",
"D. c #084B4B",
"F. c #00504C",
"G. c #00514D",
"H. c #03514F",
"J. c #005652",
"K. c #005851",
"L. c #007646",
"P. c #00714D",
"I. c #00734C",
"U. c #00794B",
"Y. c #007D4A",
"T. c #027C4B",
"R. c #007E4B",
"E. c #654D40",
"W. c #664D40",
"Q. c #684C42",
"!. c #6F5546",
"~. c #6F5547",
"^. c #7F6050",
"/. c #5E647E",
"(. c #8F332E",
"). c #90352F",
"_. c #9D2135",
"`. c #BC283F",
"'. c #924C32",
"]. c #BC5135",
"[. c #8F633D",
"{. c #CA5E38",
"}. c #81174E",
"|. c #8C174F",
" X c #8B1E4D",
".X c #9E1C4B",
"XX c #991B4C",
"oX c #C12845",
"OX c #974C46",
"+X c #A24C57",
"@X c #BD5E57",
"#X c #8B6552",
"$X c #8F6D5A",
"%X c #AD664D",
"&X c #C75B46",
"*X c #C7625F",
"=X c #D56A62",
"-X c #C07360",
";X c #BF8451",
":X c #B48971",
">X c #C6977D",
",X c #C9997F",
"<X c #DC977D",
"1X c #EF9568",
"2X c #FEAE6C",
"3X c #606780",
"4X c #6C708C",
"5X c #727692",
"6X c #747794",
"7X c #858CA7",
"8X c #8C90AC",
"9X c #8D92AE",
"0X c #8F95B0",
"qX c #9CA1BC",
"wX c #9EA4BF",
"eX c #CF9E82",
"rX c #D2A084",
"tX c #E1AC8E",
"yX c #F7B998",
"uX c #F4BA9A",
"iX c #F0BC9F",
"pX c #F7BFA0",
"aX c #FFC3A1",
"sX c #A2A9C4",
"dX c None",
/* pixels */
"dXdXdXdXdXdXdXdXdXdXdXdXdXdXdXdXdXdXdXdXdXdXdXdXdXdXdXdXdXdXdXdXdXdXdXdXdXdXdXdXdXdXdXdXdXdXdXdXdXdXdXdXdXdXdXdXdXdXdXdX",
"dXdXdXdXdXdXdXdXdXdXdXdXdXdXdXdXdXdXdXdXdXdXdXdXdXdXdXdXdXdXdXdXdXdXdXdXdXdXdXdXdXdXdXdXdXdXdXdXdXdXdXdXdXdXdXdXdXdXdXdX",
"dXdXdXdXdXdXdXdXdXdXdXdXdXdXdXdXdXdXdXdXdXdXdXdXdXdXdXdXdXdXdXdXdXdXdXdXdXdXdXdXdXdXdXdXdXdXdXdXdXdXdXdXdXdXdXdXdXdXdXdX",
"dXdXdXdXdXdXdXdXdXdXdXdXdXdXdXdXdXdXdXdXdXdXdXdXdXdXdXdXdXdXdXdXdXdXdXdXdXdXdXdXdXdXdXdXdXdXdXdXdXdXdXdXdXdXdXdXdXdXdXdX",
"dXdXdXdXdXdXdXdXdXdXdXdXdXdXdXdXdXdXdXdXdXdXdXdXdXdXdXdXdXdXdXdXdXdXdXdXdXdXdXdXdXdXdXdXdXdXdXdXdXdXdXdXdXdXdXdXdXdXdXdX",
"dXdXdXdXdXdXdXdXdXdXdXdXdXdXdXdXdXdXdXdXdXdXdXdXdXdXdXdXdXdXdXdXdXdXdXdXdXdXdXdXdXdXdXdXdXdXdXdXdXdXdXdXdXdXdXdXdXdXdXdX",
"dXdXdXdXdXdXdXdXdXdXdXdXdXdXdXdXdXdXdXdXdXdXdXdXdXdXdXdXdXdXdXdXdXdXdXdXdXdXdXdXdXdXdXdXdXdXdXdXdXdXdXdXdXdXdXdXdXdXdXdX",
"dXdXdXdXdXdXdXdXdXdXdXdXdXdXdXwXR dXm.dXdXb.dXdXdXdXdXdXdXdXdXdXdXdXdXdXdXdXdXdXdXdXdXdXdXdXdXdXdXdXdXdXdXdXdXdXdXdXdXdX",
"dXdXdXdXdXdXdXdXdXdXdXqXb.dXn.P dXdXdXdXdXdXv.G dXdXdXdXdXdXdXdXdXdXdXdXdXdXdXdXdXdXdXdXdXdXdXdXdXdXdXdXdXdXdXdXdXdXdXdX",
"dXdXdXdXdXdXdXdXdXdXdXE dXdXdXdXdXdXdXdXdXdXdXdXdXdXdXdXdXdXdXdXdXdXdXdXdXdXdXdXdXdXdXdXdXdXdXdXdXdXdXdXdXdXdXdXdXdXdXdX",
"dXdXdXdXdXdXdXdXdXdXdXdXdXdXdXdXdXdXdXdXdXdXdXdXdXdXdXdXdXdXdXdXdXdXdXdXdXdXdXdXdXdXdXdXdXdXdXdXdXdXdXdXdXdXdXdXdXdXdXdX",
"dXdXdXdXdXdXdXdXn.dXdXdXdXdXdXdXdXdXdXdXdXdXdXdXdXdXdXdXdXdXdXdXdXdXdXdXdXdXdXdXdXdXdXdXdXdXdXdXdXdXdXdXdXdXdXdXdXdXdXdX",
"dXdXdXdXdXdXdXN.dXdXdXdXdXdXdXdXdXdXdXdXdXdXdXdXdXdXdXdXdXdXdXdXdXdXdXdXdXdXdXdXdXdXdXdXdXdXdXdXdXdXdXdXdXdXdXdXdXdXdXdX",
"dXdXdXdXdXdXdXS dXdXdXdXdXdXdXdXdXdXdXdXdXdXdXdXdXdXdXdXdXdXdXdXdXdXdXdXdXdXdXdXdXdXdXdXdXdXdXdXdXdXdXdXdXdXdXdXdXdXdXdX",
"dXdXdXdXdX/.dXdXdXdXdXdXdXdXdXdXdXdXdXdXdXdXdXdXdXdXdXdXdXdXdXdXdXdXdXdXdXdXdXdXdXdXdXdXdXdXdXdXdXdXdXdXdXdXdXdXdXdXdXdX",
"dXdXdXdXc.dXdXdXdXdXdXdXdXdXdXdXdXdXdXdXdXdXdXdXdXdXdXdXdXdXdXdXdXdXdXdXdXdXdXdXdXdXdXdXdXdXdXdXdXdXdXdXdXdXdXdXdXdXdXdX",
"dXdXdXF dXdXdXdXdXdXdXdXdXdXdXdXdXdXdXdXdXdXdXdXdXdXdXdXdXdXdXdXdXdXdXdXdXdXdXdXdXdXdXdXdXdXdXdXdXdXdXdXdXdXdXdXdXdXdXdX",
"dXdXdXM.dXdXdXdXdXdXdXdXdXdXdXdXdXdXdXdXdXdXdXdXdXdXdXdXdXdXdXdXdXdXdXdXdXdXdXdXdXdXdXdXdXdXdXdXdXdXdXdXdXdXdXdXdXdXdXdX",
"dXdXdXdXdXdXdXdXdXdXdXdXdXdXdXdXdXdXdXdXdXdXdXdXdXdXdXdXdXdXdXdXdXdXdXdXdXdXdXdXdXdXdXdXdXdXdXdXdXdXdXdXdXdXdXdXdXdXdXdX",
"dXdXdXdXdXdXdXdXdXdXdXdXdXdXdXdXdXdXdXdXdXdXdXdXdXdXdXdXdXdXdXdXdXdXdXdXdXdXdXdXdXdXdXdXdXdXdXdXdXdXdXdXdXdXdXdXdXdXdXdX",
"dXdXdXdXdXdXdXdXdXdXdXdXdXdXdXdXdXdXdXdXdXdXdXdXdXdXdXdXdXdXdXdXdXdXdXdXdXdXdXdXdXdXdXdXdXdXdXdXdXdXdXdXdXdXdXdXdXdXdXdX",
"dX%.c.dXdXdXdXdXdXdXdXdXdXdXdXdXdXdXdXdXdXdXdXdXdXdXdXdXdXdXdXdXdXdXdXdXdXdXdXdXdXdXdXdXdXdXdXdXdXdXdXdXdXdXdXdXdXdXdXdX",
"dXdXdXdXdXdXdXdXdXdXdXdXdXdXdXdXdXdXdXdXdXdXdXdXdXdXdXdXdXdXdXdXdXdXdXdXdXdXdXdXdXdXdXdXdXdXdXdXdXdXdXdXdXdXdXdXdXdXdXdX",
"dXD 4XdXdXdXdXdXdXdXdXdXdXdXdXdXdXdXdXdXdXdXdXdXdXdXdX<.v     dXdXdXdXdXdXdXdXdXdXdXdXdXdXdXdXdXdXdXdXdXdXdXdXdXdXdXdXdX",
"dXdXdXdXdXdXdXdXdXdXdXdXdXdXdXdXdXdXdXdXdXdXdXdXdXdXr 5.B 6.2.7.dXdXdXdXdXdXdXdXdXdXdXdXdXdXdXdXdXdXdXdXdXdXdXdXdXdXdXdX",
"dXdXdXdXdXdXdXdXdXdXdXdXdXdXdXdXdXdXdXdXdXdXdXdXdXdXXXS.1._ p N dXdXdXdXdXdXdXdXdXdXdXdXdXdXdXdXdXdXdXdXdXdXdXdXdXdXdXdX",
"dXdXS dXdXdXdXdXdXdXdXdXdXdXdXdXdXdXdXdXdXdXdXn.5XdXZ. Xn 3 pXeXdXdXdXdXdXdXdXdXdXdXdXdXdXdXdXdXdXdXdXdXdXdXdXdXdXdXdXdX",
"dXdXdXdXdXdXdXdXdXdXdXdXdXdXdXdXdXdXdXdXdXsX$.J K 9 t T.y ^.iXeXdXdXdXdXdXdXdXdXdXdXdXdXdXdXdXdXdXdXdXdXdXdXdXdXdXdXdXdX",
"dXdXdXdX9XdXdXdXdXdXdXdXdXdXdXdXdXdXdX8XH L dXdXdX< ` O.e $XaXeXdXdXdXdXdXdXdXdXdXdXdXdXdXdXdXdXdXdXdXdXdXdXdXdXdXdXdXdX",
"dXdXdXdXdX$.6XdXdXdXdXdXdXdXdXdXdXdXT S dXdXdXdXdXO q   W.aX!.E.dXdXdXdXdXdXdXdXdXdXdXdXdXdXdXdXdXdXdXdXdXdXdXdXdXdXdXdX",
"dXdXdXdXdXdXdXdXdX0XdX3XdX7XdXA dXY dXdXdXdXdXdXw g.g.M tXj.dXdXdXdXdXdXdXdXdXdXdXdXdXdXdXdXdXdXdXdXdXdXdXdXdXdXdXdXdXdX",
"dXdXdXdXdXdXdXdXdXI dXE dX:.dXm.dXdXdXdXdXdXdX9 s.{ 4 g.a dXdXdXdXdXdXdXdXdXdXdXdXdXdXdXdXdXdXdXdXdXdXdXdXdXdXdXdXdXdXdX",
"dXdXdXdXdXdXdXdXdXdXdXdXdXdXdXdXdXdXdXdXdX# g.d.[ 1 q.g.a dXdXdXdXdXdXdXdXdXdXdXdXdXdXdXdXdXdXdXdXdXdXdXdXdXdXdXdXdXdXdX",
"dXdXdXdXdXdXdXdXdXdXdXdXdXdXdXdXdXdXdX8 t.g.g.[ q 9.g.g.dXdXdXdXdXdXdXdXdXdXdXdXdXdXdXdXdXdXdXdXdXdXdXdXdXdXdXdXdXdXdXdX",
"dXdXdXdXdXdXdXdXdXdXdXdXdXdXdXdXdXdXs g.g.g.| i } g.g.g.dXdXdXdXdXdXdXdXdXdXdXdXdXdXdXdXdXdXdXdXdXdXdXdXdXdXdXdXdXdXdXdX",
"dXdXdXdXdXdXdXdXdXdXdXdXdXdXdXdXdXl.Q.g.g.r.j ! i.g.g.> dXdXdXdXdXdXdXdXdXdXdXdXdXdXdXdXdXdXdXdXdXdXdXdXdXdXdXdXdXdXdXdX",
"dXdXdXdXdXdXdXdXdXdXdXdXdXdXdXdXf.,X> -.y...5 0.g.g.s.= dXdXdXdXdXdXdXdXdXdXdXdXdXdXdXdXdXdXdXdXdXdXdXdXdXdXdXdXdXdXdXdX",
"dXdXdXdXdXdXdXdXdXdXdXdXdXdXdX  aXdX> 0 ;.^ k ] p.u. .% dXdXdXdXdXdXdXdXdXdXdXdXdXdXdXdXdXdXdXdXdXdXdXdXdXdXdXdXdXdXdXdX",
"dXdXdXdXdXdXdXdXdXdXdXdXdXdXdXrXuXdXdXp ~ - X X X . * dXdXdXdXdXdXdXdXdXdXdXdXdXdXdXdXdXdXdXdXdXdXdXdXdXdXdXdXdXdXdXdXdX",
"dXdXdXdXdXdXdXdXdXdXdXdXdXdX, @X: k.dXo ; a.>.^ h V.`.dXdXdXdXdXdXdXdXdXdXdXdXdXdXdXdXdXdXdXdXdXdXdXdXdXdXdXdXdXdXdXdXdX",
"dXdXdXdXdXdXdXdXdXdXdXdXdXdX;X;X;X%X  dXg.g.g.] g }..X_.dXdXdXdXdXdXdXdXdXdXdXdXdXdXdXdXdXdXdXdXdXdXdXdXdXdXdXdXdXdXdXdX",
"dXdXdXdXdXdXdXdXdXdXdXdXdXdX[.[.z.h.  9 g.g.e.k 4.A.|.oXb dXdXdXdXdXdXdXdXdXdXdXdXdXdXdXdXdXdXdXdXdXdXdXdXdXdXdXdXdXdXdX",
"dXdXdXdXdXdXdXdXdXdXdXdXdXdX2X1X*X+X2 g.g.g.' f C.B.3.3.=.dXdXdXdXdXdXdXdXdXdXdXdXdXdXdXdXdXdXdXdXdXdXdXdXdXdXdXdXdXdXdX",
"dXdXdXdXdXdXdXdXdXdXdXdXdXdX        ( g.g.q.^ W Q z *.U.R.dXdXdXdXdXdXdXdXdXdXdXdXdXdXdXdXdXdXdXdXdXdXdXdXdXdXdXdXdXdXdX",
"dXdXdXdXdXdXdXdXdXdXdXdXdXdXdXdXdX@ g.g.s./ 5 +.&.&.&.H.R.@.dXdXdXdXdXdXdXdXdXdXdXdXdXdXdXdXdXdXdXdXdXdXdXdXdXdXdXdXdXdX",
"dXdXdXdXdXdXdXdXdXdXdXdXdXdXdXdXdX) g.g.s./ l &.&.&.&.H.I.@.dXdXdXdXdXdXdXdXdXdXdXdXdXdXdXdXdXdXdXdXdXdXdXdXdXdXdXdXdXdX",
"dXdXdXdXdXdXdXdXdXdXdXdXdXdXdXdXdX) g.g.,.^ l &.&.&.&.H.P.@.dXdXdXdXdXdXdXdXdXdXdXdXdXdXdXdXdXdXdXdXdXdXdXdXdXdXdXdXdXdX",
"dXdXdXdXdXdXdXdXdXdXdXdXdXdXdXdXdXd g.w.^ u U &.&.&.*.J.R.V dXdXdXdXdXdXdXdXdXdXdXdXdXdXdXdXdXdXdXdXdXdXdXdXdXdXdXdXdXdX",
"dXdXdXdXdXdXdXdXdXdXdXdXdXdXdXdXdXX.x ^ ^ $ #.&.&.*.J.U.R.dXdXdXdXdXdXdXdXdXdXdXdXdXdXdXdXdXdXdXdXdXdXdXdXdXdXdXdXdXdXdX",
"dXdXdXdXdXdXdXdXdXdXdXdXdXdXdXdX  J.D.& m + #.&.x.J.K.R.Z dXdXdXdXdXdXdXdXdXdXdXdXdXdXdXdXdXdXdXdXdXdXdXdXdXdXdXdXdXdXdX",
"dXdXdXdXdXdXdXdXdXdXdXdXdXdXdXdXOXo.F.G.c c *.J.J.J.Y.L.C dXdXdXdXdXdXdXdXdXdXdXdXdXdXdXdXdXdXdXdXdXdXdXdXdXdXdXdXdXdXdX",
"dXdXdXdXdXdXdXdXdXdXdXdXdXdXdX>X8.dXdXdX6 6 6 6 6 6 7 dXdXdXdXdXdXdXdXdXdXdXdXdXdXdXdXdXdXdXdXdXdXdXdXdXdXdXdXdXdXdXdXdX",
"dXdXdXdXdXdXdXdXdXdXdXdXdXdX:X{.dXdXdXdXdXdXdXdXdX].  dXdXdXdXdXdXdXdXdXdXdXdXdXdXdXdXdXdXdXdXdXdXdXdXdXdXdXdXdXdXdXdXdX",
"dXdXdXdXdXdXdXdXdXdXdXdXdXdX-XyX'.dXdXdXdXdXdXdXdX=X&X#XdXdXdXdXdXdXdXdXdXdXdXdXdXdXdXdXdXdXdXdXdXdXdXdXdXdXdXdXdXdXdXdX",
"dXdXdXdXdXdXdXdXdXdXdXdXdXdXdX(.<X~.dXdXdXdXdXdXdX).).).dXdXdXdXdXdXdXdXdXdXdXdXdXdXdXdXdXdXdXdXdXdXdXdXdXdXdXdXdXdXdXdX",
"dXdXdXdXdXdXdXdXdXdXdXdXdXdXdXdXdXdXdXdXdXdXdXdXdXdXdXdXdXdXdXdXdXdXdXdXdXdXdXdXdXdXdXdXdXdXdXdXdXdXdXdXdXdXdXdXdXdXdXdX",
"dXdXdXdXdXdXdXdXdXdXdXdXdXdXdXdXdXdXdXdXdXdXdXdXdXdXdXdXdXdXdXdXdXdXdXdXdXdXdXdXdXdXdXdXdXdXdXdXdXdXdXdXdXdXdXdXdXdXdXdX",
"dXdXdXdXdXdXdXdXdXdXdXdXdXdXdXdXdXdXdXdXdXdXdXdXdXdXdXdXdXdXdXdXdXdXdXdXdXdXdXdXdXdXdXdXdXdXdXdXdXdXdXdXdXdXdXdXdXdXdXdX",
"dXdXdXdXdXdXdXdXdXdXdXdXdXdXdXdXdXdXdXdXdXdXdXdXdXdXdXdXdXdXdXdXdXdXdXdXdXdXdXdXdXdXdXdXdXdXdXdXdXdXdXdXdXdXdXdXdXdXdXdX",
"dXdXdXdXdXdXdXdXdXdXdXdXdXdXdXdXdXdXdXdXdXdXdXdXdXdXdXdXdXdXdXdXdXdXdXdXdXdXdXdXdXdXdXdXdXdXdXdXdXdXdXdXdXdXdXdXdXdXdXdX"
};
