/* XPM */
static char *result[] = {
/* columns rows colors chars-per-pixel */
"60 60 245 2 ",
"   c black",
".  c #010001",
"X  c #030101",
"o  c #020102",
"O  c #040203",
"+  c #050402",
"@  c #050104",
"#  c #040204",
"$  c #050204",
"%  c #070306",
"&  c #070407",
"*  c #080405",
"=  c #090506",
"-  c #0B0607",
";  c #0C0506",
":  c #0D0606",
">  c #0F0A06",
",  c #0F0B06",
"<  c #0A0509",
"1  c #0B060A",
"2  c #0C0608",
"3  c #0D0708",
"4  c #0D060B",
"5  c #0C070C",
"6  c #000A0A",
"7  c #05090B",
"8  c #06090A",
"9  c #000C09",
"0  c #000E08",
"q  c #000F08",
"w  c #0E0809",
"e  c #0F080A",
"r  c #0F080B",
"t  c #0F0C0A",
"y  c #100807",
"u  c #11090B",
"i  c #12090C",
"p  c #110A0C",
"a  c #130A0C",
"s  c #140A0D",
"d  c #170C0F",
"f  c #17100A",
"g  c #150B10",
"h  c #140B13",
"j  c #170D16",
"k  c #190D10",
"l  c #1A0E11",
"z  c #1B0E11",
"x  c #180D13",
"c  c #1E0F13",
"v  c #1B0F15",
"b  c #1F081A",
"n  c #1C0F1A",
"m  c #0C1112",
"M  c #001C10",
"N  c #1D1612",
"B  c #1C1016",
"V  c #1C1516",
"C  c #171915",
"Z  c #1F1814",
"A  c #1B141C",
"S  c #101C1E",
"D  c #131C1F",
"F  c #2F0A0F",
"G  c #240E13",
"H  c #2E0F15",
"J  c #20091B",
"K  c #240B1F",
"L  c #320A11",
"P  c #211116",
"I  c #221216",
"U  c #281315",
"Y  c #27151A",
"T  c #21121F",
"R  c #281F19",
"E  c #2D181F",
"W  c #341312",
"Q  c #321A17",
"!  c #32171B",
"~  c #38161D",
"^  c #341A18",
"/  c #351A18",
"(  c #002717",
")  c #3F2C1B",
"_  c #090F2B",
"`  c #071B27",
"'  c #09102A",
"]  c #09102B",
"[  c #0A112A",
"{  c #09172D",
"}  c #0E142E",
"|  c #0D172E",
" . c #131F24",
".. c #0D1D31",
"X. c #0F1C31",
"o. c #131833",
"O. c #251423",
"+. c #261524",
"@. c #291623",
"#. c #2A1722",
"$. c #281626",
"%. c #291727",
"&. c #2D1925",
"*. c #2B1828",
"=. c #2C1828",
"-. c #331B22",
";. c #371D25",
":. c #3B1820",
">. c #381D25",
",. c #381E26",
"<. c #3A1E27",
"1. c #301B2A",
"2. c #321C2A",
"3. c #321C2B",
"4. c #341D29",
"5. c #341D2B",
"6. c #0B2B2F",
"7. c #132F22",
"8. c #17272E",
"9. c #182A33",
"0. c #1D203B",
"q. c #1F203C",
"w. c #172A39",
"e. c #192E3C",
"r. c #003734",
"t. c #16333E",
"y. c #1A303C",
"u. c #19333F",
"i. c #1B323E",
"p. c #3E2129",
"a. c #3A202F",
"s. c #3B202F",
"d. c #372C2D",
"f. c #22233F",
"g. c #3B2030",
"h. c #3C2130",
"j. c #3F2332",
"k. c #471A1A",
"l. c #4E1C19",
"z. c #401A22",
"x. c #4F1F24",
"c. c #47182F",
"v. c #480E30",
"b. c #42332A",
"n. c #412332",
"m. c #432430",
"M. c #412433",
"N. c #442534",
"B. c #462634",
"V. c #482735",
"C. c #4B2836",
"Z. c #4B2837",
"A. c #4C2834",
"S. c #4C2937",
"D. c #502A38",
"F. c #512B39",
"G. c #522C39",
"H. c #552D39",
"J. c #542C3A",
"K. c #542D3A",
"L. c #572E3B",
"P. c #582E3B",
"I. c #592F3C",
"U. c #4F3D32",
"Y. c #5B303D",
"T. c #702926",
"R. c #7C3922",
"E. c #5F4228",
"W. c #40433D",
"Q. c #584338",
"!. c #173740",
"~. c #183540",
"^. c #262642",
"/. c #262643",
"(. c #272744",
"). c #262A46",
"_. c #2B2B47",
"`. c #2B2B48",
"'. c #303650",
"]. c #5A1340",
"[. c #671945",
"{. c #711240",
"}. c #7E174E",
"|. c #731B4A",
" X c #7B1B49",
".X c #4D2047",
"XX c #5E3252",
"oX c #0C4548",
"OX c #00504C",
"+X c #03514F",
"@X c #00524E",
"#X c #005651",
"$X c #005652",
"%X c #005D50",
"&X c #3B405D",
"*X c #007646",
"=X c #007749",
"-X c #00744C",
";X c #00794B",
":X c #007C4A",
">X c #007E4B",
",X c #654D40",
"<X c #6F5546",
"1X c #5E6157",
"2X c #7F6050",
"3X c #444B65",
"4X c #4A5B6D",
"5X c #535973",
"6X c #90352F",
"7X c #B64B27",
"8X c #AF4B30",
"9X c #85174E",
"0X c #9C1D4B",
"qX c #BB5540",
"wX c #AD5359",
"eX c #BC5D56",
"rX c #BC5E57",
"tX c #8A6956",
"yX c #95725E",
"uX c #9A7561",
"iX c #9F7964",
"pX c #D56A62",
"aX c #C07360",
"sX c #D97263",
"dX c #AF866E",
"fX c #B48971",
"gX c #BE9178",
"hX c #DF9A5F",
"jX c #C6977D",
"kX c #FFB06D",
"lX c #69728A",
"zX c #6C708C",
"xX c #5A8789",
"cX c #888DA9",
"vX c #8F95B1",
"bX c #969DB8",
"nX c #9EA3BF",
"mX c #DEA78A",
"MX c #EBB699",
"NX c #F1B092",
"BX c #F3B999",
"VX c #F5BC9D",
"CX c #FDBF9D",
"ZX c #FFC3A1",
"AX c None",
/* pixels */
"AXAXAXAXAXAXAXAXAXAXAXAXAXAXAXAXAXAXAXAXAXAXAXAXAXAXAXAXAXAXAXAXAXAXAXAXAXAXAXAXAXAXAXAXAXAXAXAXAXAXAXAXAXAXAXAXAXAXAXAX",
"AXAXAXAXAXAXAXAXAXAXAXAXAXAXAXAXAXAXAXAXAXAXAXAXAXAXAXAXAXAXAXAXAXAXAXAXAXAXAXAXAXAXAXAXAXAXAXAXAXAXAXAXAXAXAXAXAXAXAXAX",
"AXAXAXAXAXAXAXAXAXAXAXAXAXAXAXAXAXAXAXAXAXAXAXAXAXAXAXAXAXAXAXAXAXAXAXAXAXAXAXAXAXAXAXAXAXAXAXAXAXAXAXAXAXAXAXAXAXAXAXAX",
"AXAXAXAXAXAXAXAXAXAXAXAXAXAXAXAXAXAXAXAXAXAXAXAXAXAXAXAXAXAXAXAXAXAXAXAXAXAXAXAXAXAXAXAXAXAXAXAXAXAXAXAXAXAXAXAXAXAXAXAX",
"AXAXAXAXAXAXAXAXAXAXAXAXAXAXAXAXAXAXAXAXAXAXAXAXAXAXAXAXAXAXAXAXAXAXAXAXAXAXAXAXAXAXAXAXAXAXAXAXAXAXAXAXAXAXAXAXAXAXAXAX",
"AXAXAXAXAXAXAXAXAXAXAXAXAXAXAXAXAXAXAXAXAXAXAXAXAXAXAXAXAXAXAXAXAXAXAXAXAXAXAXAXAXAXAXAXAXAXAXAXAXAXAXAXAXAXAXAXAXAXAXAX",
"AXAXAXAXAXAXAXAXAXAXAXAXAXAXAXAXAXAXAXAXAXAXAXAXAXAXAXAXAXAXAXAXAXAXAXAXAXAXAXAXAXAXAXAXAXAXAXAXAXAXAXAXAXAXAXAXAXAXAXAX",
"AXAXAXAXAXAXAXAXAXAXAXAXAXAXAXAXAXAXAXAXAXAXAXAXAXAXAXAXAXAXAXAXAXAXAXAXAXAXAXAXAXAXAXAXAXAXAXAXAXAXAXAXAXAXAXAXAXAXAXAX",
"AXAXAXAXAXAXAXAXAXAXAXAXAXAXAXAXAXAXAXAXAXAXAXAXAXAXAXAXAXAXAXAXAXAXAXAXAXAXAXAXAXAXAXAXAXAXAXAXAXAXAXAXAXAXAXAXAXAXAXAX",
"AXAXAXAXAXAXAXAXAXAXAXAXAXAXAXAXAXAXAXAXAXAXAXAXAXAXAXAXAXAXAXAXAXAXAXAXAXAXAXAXAXAXAXAXAXAXAXAXAXAXAXAXAXAXAXAXAXAXAXAX",
"AXAXAXAXAXAXAXAXAXAXAXAXAXAXAXAXAXAXAXAXAXAXAXAXAXAXAXAXAXAXAXAXAXAXAXAXAXAXAXAXAXAXAXAXAXAXAXAXAXAXAXAXAXAXAXAXAXAXAXAX",
"AXAXAXAXAXAXAXAXAXAXAXAXAXAXAXAXAXAXAXAXAXAXAXAXAXAXAXAXAXAXAXAXAXAXAXAXAXAXAXAXAXAXAXAXAXAXAXAXAXAXAXAXAXAXAXAXAXAXAXAX",
"AXAXAXAXAXAXAXAXAXAXAXAXAXAXAXAXAXAXAXAXAXAXAXAXAXAXAXAXAXAXAXAXAXAXAXAXAXAXAXAXAXAXAXAXAXAXAXAXAXAXAXAXAXAXAXAXAXAXAXAX",
"AXAXAXAXAXAXAXAXAXAXAXAXAXAXAXAXAXAXAXAXAXAXAXAXAXAXAXAXAXAXAXAXAXAXAXAXAXAXAXAXAXAXAXAXAXAXAXAXAXAXAXAXAXAXAXAXAXAXAXAX",
"AXAXAXAXAXAXAXAXAXAXAXAXAXAXAXAXAXAXAXAXAXAXAXAXAXAXAXAXAXAXAXAXAXAXAXAXAXAXAXAXAXAXAXAXAXAXAXAXAXAXAXAXAXAXAXAXAXAXAXAX",
"AXAXAXAXAXAXAXAXAXAXAXAXAXAXAXAXAXAXAXAXAXAXAXAXAXAXAXAXAXAXAXAXAXAXAXAXAXAXAXAXAXAXAXAXAXAXAXAXAXAXAXAXAXAXAXAXAXAXAXAX",
"AXAXAXAXAXAXAXAXAXAXAXAXAXAXAXAXAXAXAXAXAXAXAXAXAXAXAXAXAXAXAXAXAXAXAXAXAXAXAXAXAXAXAXAXAXAXAXAXAXAXAXAXAXAXAXAXAXAXAXAX",
"AXAXAXAXAXAXAXAXAXAXAXAXAXAXAXAXAXAXAXAXAXAXAXAXAXAXAXAXAXAXAXAXAXAXAXAXAXAXAXAXAXAXAXAXAXAXAXAXAXAXAXAXAXAXAXAXAXAXAXAX",
"AXAXAXAXAXAXAXAXAXAXAXAXAXAXAXAXAXAXAXAXAXAXAXAXAXAXAXAXAXAXAXAXAXAXAXAXAXAXAXAXAXAXAXAXAXAXAXAXAXAXAXAXAXAXAXAXAXAXAXAX",
"AXAXAXAXAXAXAXAXAXAXAXAXAXAXAXAXAXAXAXAXAXAXAXAXAXAXAXAXAXAXAXAXAXAXAXAXAXAXAXAXAXAXAXAXAXAXAXAXAXAXAXAXAXAXAXAXAXAXAXAX",
"AXAXAXAXAXAXAXAXAXAXAXAXAXAXAXAXAXAXAXAXAXAXAXAXAXAXAXAXAXAXAXAXAXAXAXAXAXAXAXAXAXAXAXAXAXAXAXAXAXAXAXAXAXAXAXAXAXAXAXAX",
"AXAXAXAXAXAXAXAXAXAXAXAXAXAXAXAXAXAXAXAXAXAXAXAXAXAXAXAXAXAXAXAXAXAXAXAXAXAXAXAXAXAXAXAXAXAXAXAXAXAXAXAXAXAXAXAXAXAXAXAX",
"AXAXAXAXAXAXAXAXAXAXAXAXAXAXAXAXAXAXAXAXAXAXAXAXAXAXAXAXAXAXAXAXAXAXAXAXAXAXAXAXAXAXAXAXAXAXAXAXAXAXAXAX'.).AXAXAXAXAXAX",
"AXAXAXAXAXAXAXAXAXAXAXAXAXAXAXAXAXAXAXAXAXAXAXAXAXAXl.G     AXAXAXAXAXAXAXAXAXAXAXAXAXAXAXAXAXAXAXAXAXAXAXq.AXAXAXAXAXAX",
"AXAXAXAXAXAXAXAXAXAXAXAXAXAXAXAXAXAXAXAXAXAXAXAXAXH c.W x.z.k.AXAXAXAXAXAXAXAXAXAXAXAXAXAXAXAXAXAXAXAXAXAXAXAXAXAXAXAXAX",
"AXAXAXAXAXAXAXAXAXAXAXAXAXAXAXAXAXAXAXAXAXAXAXAXAX0X[.T.:.k N AXAXAXAXAXAXAXAXAXAXAXAXAXAXAXAXAXAXAXAXAX] vXAXAXAXAXAXAX",
"AXAXAXAXAXAXAXAXAXAXAXAXAXAXAXAXAXAXAXAXAXAXAXAXAX|. X~ = VXiXAXAXAXAXAXAXAXAXAXAXAXAXAXAXAXAXAXAXAXAXAX^.AXAXAXAXAXAXAX",
"AXAXAXAXAXAXAXAXAXAXAXAXAXAXAXAXAXAXAXAXAXAXAXAXAXC *Xc uXMXiXAXAXAXAXAXAXAXAXAXAXAXAXAXAXAXAXAXAXAXAXAXAXAXAXAXAXAXAXAX",
"AXAXAXAXAXAXAXAXAXAXAXAXAXAXAXAXAXAXAXAXAXAXAXAXAXAX7.z dXZXiXAXAXAXAXAXAXAXAXAXAXAXAXAXAXAXAXAXAXAXAXAXAXAXAXAXAXAXAXAX",
"AXAXAXAXAXAXAXAXAXAXAXAXAXAXAXAXAXAXAX                2XZX<XQ.AXAXAXAXAXAXAXAXAXAXAXAXAXAXAXAXAXAXAXAX' zXAXAXAXAXAXAXAX",
"AXAXAXAXAXAXAXAXAXAXAXAXAXAXAXAXAXAXI Y.Y.Y.Y.Y.Y.d.1XBXb.AXAXAXAXAXAXAXAXAXAXAXAXAXAXAXAXAXAXAXAXAXAXAXAXAXAXAXAXAXAXAX",
"AXAXAXAXAXAXAXAXAXAXAXAXAXAXAXAXAX<.Y.Y.J.*.T 4.m.Y.V W.AXAXAXAXAXAXAXAXAXAXAXAXAXAXAXAXAXAXAXAXAXAXAXAXAXAXAXAXAXAXAXAX",
"AXAXAXAXAXAXAXAXAXAXAXAXAXAXAXAXt P.Y.J.$.# . *.Z.Y.Y.- AXAXAXAXAXAXAXAXAXAXAXAXAXAXAXAXAXAXAXAXAXAXAX[ AXAXAXAXAXAXAXAX",
"AXAXAXAXAXAXAXAXAXAXAXAXAXAXAXjX,X-.Y.h.+.AX#.I.Y.Y.Y.- g AXAXAXAXAXAXAXAXAXAXAXAXAXAXAXAXAXAXAXAXAX[ /.AXAXAXAXAXAXAXAX",
"AXAXAXAXAXAXAXAXAXAXAXAXAXAXfX,X* 3 F.%.4   D.Y.Y.Y.H.1 A.AXAXAXAXAXAXAXAXAXAXAXAXAXAXAXAXAXAXAXAXAXAXAXAXAXAXAXAXAXAXAX",
"AXAXAXAXAXAXAXAXAXAXAXAXAXR ZXZ AXd x %.. 2.Y.Y.Y.P.B O C.Y AXAXAXAXAXAXAXAXAXAXAXAXAXAXAXAXAXAXAXAX/.AXAXAXAXAXAXAXAXAX",
"AXAXAXAXAXAXAXAXAXAXAXAXAXeXyXhXAX2 r j %.j.L.Y.L.&.5.AXn Y.  AXAXAXAXAXAXAXAXAXAXAXAXAXAXAXAXAXAXo._ AXAXAXAXAXAXAXAXAX",
"AXAXAXAXAXAXAXAXAXAXAXAXf ) ) ) y AXAX& %.%.g.g.O.L F AX% E s AXAXAXAXAXAXAXAXAXAXAXAXAXAXAXAXAXAXAXAXAXAXAXAXAXAXAXAXAX",
"AXAXAXAXAXAXAXAXAXAXAXAX+ , > : X AXAXAXO o o o . @   o s.Y.,.AXAXAXAXAXAXAXAXAXAXAXAXAXAXAXAXAXnX/.AXAXAXAXAXAXAXAXAXAX",
"AXAXAXAXAXAXAXAXAXAXAXAXE.kXsXwX! AXAXu L.n.%.%.J 9Xo a.G.Y.,.AXAXAXAXAXAXAXAXAXAXAXAXAXAXAXAXAX(.AXAXAXAXAXAXAXAXAXAXAX",
"AXAXAXAXAXAXAXAXAXAXAXAXf / ^ U ; AXAXY.Y.Y.1.j ].{.< O.G.Y.,.AXAXAXAXAXAXAXAXAXAXAXAXAXAXAXAX3XAXAXAXAXAXAXAXAXAXAXAXAX",
"AXAXAXAXAXAXAXAXAXAXAXAXAXAXAXAXAXAXl Y.Y.Y.1.K }..Xw a @.K.,.AXAXAXAXAXAXAXAXAXAXAXAXAXAXAX0.AXAXAXAXAXAXAXAXAXAXAXAXAX",
"AXAXAXAXAXAXAXAXAXAXAXAXAXAXAXAXAXAX;.Y.Y.N.1.b XXv.8 p = B.  AXAXAXAXAXAXAXAXAXAXAXAXAXAX' cXAXAXAXAXAXAXAXAXAXAXAXAXAX",
"AXAXAXAXAXAXAXAXAXAXAXAXAXAXAXAXAXi Y.Y.Y.N.5 8.e.X.i.D e v AXAXAXAXAXAXAXAXAXAXAXAXAXAXAX/.AXAXAXAXAXAXAXAXAXAXAXAXAXAX",
"AXAXAXAXAXAXAXAXAXAXAXAXAXAXAXAX  Y.Y.Y.I.=.5 8.4Xw.i.+X( AXAXAXAXAXAXAXAXAXAXAXAXAXAXAXAXAXAXAXAXAXAXAXAXAXAXAXAXAXAXAX",
"AXAXAXAXAXAXAXAXAXAXAXAXAXAXAXAX>.Y.Y.Y.I.=.m y.i.| u.-X( AXAXAXAXAXAXAXAXAXAXAXAXAXAX/.AXAXAXAXAXAXAXAXAXAXAXAXAXAXAXAX",
"AXAXAXAXAXAXAXAXAXAXAXAXAXAXAXAXp.Y.Y.L.j.%.m i.i.lX..;X( AXAXAXAXAXAXAXAXAXAXAXAXAX&XAXAXAXAXAXAXAXAXAXAXAXAXAXAXAXAXAX",
"AXAXAXAXAXAXAXAXAXAXAXAXAXAXAXAXP S.V.M.3.h  .i.i.t.{ >XM AXAXAXAXAXAXAXAXAXAXAXAXAXAXAXAXAXAXAXAXAXAXAXAXAXAXAXAXAXAXAX",
"AXAXAXAXAXAXAXAXAXAXAXAXAXAXAXAX6.A 3.%.%.$ 9.i.!.$X=XxXAXAXAXAXAXAXAXAXAXAXAXbXf.AXAXAXAXAXAXAXAXAXAXAXAXAXAXAXAXAXAXAX",
"AXAXAXAXAXAXAXAXAXAXAXAXAXAXAX  $XoX7 T T O 9.~.$X%X>X` AXAXAXAXAXAXAXAXAXAXAX} AXAXAXAXAXAXAXAXAXAXAXAXAXAXAXAXAXAXAXAX",
"AXAXAXAXAXAXAXAXAXAXAXAXAXAXAXrXr.OX@XS S S $X$X#X:X*Xq ' _.AXAXAXAXAX`.AXAXAXAXAXAXAXAXAXAXAXAXAXAXAXAXAXAXAXAXAXAXAXAX",
"AXAXAXAXAXAXAXAXAXAXAXAXAXAXmXQ AXAXAX6 6 6 6 6 9 0 AXAXAXAXAXAX[ AXAX5XAXAXAXAXAXAXAXAXAXAXAXAXAXAXAXAXAXAXAXAXAXAXAXAX",
"AXAXAXAXAXAXAXAXAXAXAXAXAXgX7XAXAXAXAXAXAXAXAX  8X  AXAXAXAXAXAXAXAXAXAXAXAXAXAXAXAXAXAXAXAXAXAXAXAXAXAXAXAXAXAXAXAXAXAX",
"AXAXAXAXAXAXAXAXAXAXAXAXAXaXCXR.AXAXAXAXAXAXAX  pXqXtXAXAXAXAXAXAXAXAXAXAXAXAXAXAXAXAXAXAXAXAXAXAXAXAXAXAXAXAXAXAXAXAXAX",
"AXAXAXAXAXAXAXAXAXAXAXAXAXAX6XNXU.AXAXAXAXAXAXAX6X6X6XAXAXAXAXAXAXAXAXAXAXAXAXAXAXAXAXAXAXAXAXAXAXAXAXAXAXAXAXAXAXAXAXAX",
"AXAXAXAXAXAXAXAXAXAXAXAXAXAXAXAXAXAXAXAXAXAXAXAXAXAXAXAXAXAXAXAXAXAXAXAXAXAXAXAXAXAXAXAXAXAXAXAXAXAXAXAXAXAXAXAXAXAXAXAX",
"AXAXAXAXAXAXAXAXAXAXAXAXAXAXAXAXAXAXAXAXAXAXAXAXAXAXAXAXAXAXAXAXAXAXAXAXAXAXAXAXAXAXAXAXAXAXAXAXAXAXAXAXAXAXAXAXAXAXAXAX",
"AXAXAXAXAXAXAXAXAXAXAXAXAXAXAXAXAXAXAXAXAXAXAXAXAXAXAXAXAXAXAXAXAXAXAXAXAXAXAXAXAXAXAXAXAXAXAXAXAXAXAXAXAXAXAXAXAXAXAXAX",
"AXAXAXAXAXAXAXAXAXAXAXAXAXAXAXAXAXAXAXAXAXAXAXAXAXAXAXAXAXAXAXAXAXAXAXAXAXAXAXAXAXAXAXAXAXAXAXAXAXAXAXAXAXAXAXAXAXAXAXAX",
"AXAXAXAXAXAXAXAXAXAXAXAXAXAXAXAXAXAXAXAXAXAXAXAXAXAXAXAXAXAXAXAXAXAXAXAXAXAXAXAXAXAXAXAXAXAXAXAXAXAXAXAXAXAXAXAXAXAXAXAX"
};
