/* XPM */
static char * Idle_8_xpm[] = {
"50 53 170 2",
"  	c None",
". 	c #230C0A",
"+ 	c #4B1B1B",
"@ 	c #2B1316",
"# 	c #1B0B0E",
"$ 	c #020102",
"% 	c #501D1B",
"& 	c #4C1E24",
"* 	c #290D12",
"= 	c #5A1A26",
"- 	c #3B1B1D",
"; 	c #40141C",
"> 	c #562727",
", 	c #34141A",
"' 	c #791747",
") 	c #6E2929",
"! 	c #0F0809",
"~ 	c #452F2D",
"{ 	c #3F2D27",
"] 	c #D32963",
"^ 	c #73193F",
"/ 	c #310D13",
"( 	c #CE9E83",
"_ 	c #DCA88B",
": 	c #594439",
"< 	c #120A0C",
"[ 	c #9F2247",
"} 	c #871D3A",
"| 	c #3A1C24",
"1 	c #46312C",
"2 	c #BF9882",
"3 	c #E2AD90",
"4 	c #EFC2AA",
"5 	c #B18A73",
"6 	c #231815",
"7 	c #592F3C",
"8 	c #231315",
"9 	c #2A151B",
"0 	c #8F705F",
"a 	c #D8B3A1",
"b 	c #AE846B",
"c 	c #151814",
"d 	c #0F2C32",
"e 	c #06090B",
"f 	c #8F6D5A",
"g 	c #FEC3A1",
"h 	c #D6A387",
"i 	c #362A23",
"j 	c #7A443D",
"k 	c #EEB696",
"l 	c #D2907A",
"m 	c #AA5556",
"n 	c #9D504A",
"o 	c #964137",
"p 	c #EFA886",
"q 	c #F7BC9B",
"r 	c #7D5E4D",
"s 	c #524A4E",
"t 	c #787476",
"u 	c #AE8873",
"v 	c #F9BD9C",
"w 	c #967664",
"x 	c #6E6E72",
"y 	c #292628",
"z 	c #24131B",
"A 	c #2E1923",
"B 	c #4C2935",
"C 	c #534C51",
"D 	c #756A66",
"E 	c #7E6253",
"F 	c #656165",
"G 	c #37252B",
"H 	c #1B0E13",
"I 	c #331B2B",
"J 	c #1D1215",
"K 	c #5B303D",
"L 	c #5E5E61",
"M 	c #5D565B",
"N 	c #331B25",
"O 	c #562D3A",
"P 	c #3E2231",
"Q 	c #4F2A38",
"R 	c #44232D",
"S 	c #3C212D",
"T 	c #140B13",
"U 	c #422433",
"V 	c #492735",
"W 	c #47393F",
"X 	c #391F2C",
"Y 	c #1B0F19",
"Z 	c #2D181E",
"` 	c #291725",
" .	c #2E1929",
"..	c #251421",
"+.	c #090406",
"@.	c #A22237",
"#.	c #AF253B",
"$.	c #7F1B2B",
"%.	c #160713",
"&.	c #1C121C",
"*.	c #270B20",
"=.	c #2B0922",
"-.	c #30081C",
";.	c #821549",
">.	c #370B21",
",.	c #240B1E",
"'.	c #911A46",
").	c #440F1C",
"!.	c #B8273F",
"~.	c #4C121D",
"{.	c #080C10",
"].	c #68453B",
"^.	c #926A59",
"/.	c #0F1016",
"(.	c #172B35",
"_.	c #0E282E",
":.	c #065649",
"<.	c #0A1619",
"[.	c #0D3731",
"}.	c #007D4B",
"|.	c #00644A",
"1.	c #4C2524",
"2.	c #664435",
"3.	c #5D422C",
"4.	c #95673F",
"5.	c #062122",
"6.	c #2E2013",
"7.	c #007445",
"8.	c #3D2A1A",
"9.	c #EBA264",
"0.	c #FFB06D",
"a.	c #E88F65",
"b.	c #5B3C32",
"c.	c #00613A",
"d.	c #00724C",
"e.	c #012C2B",
"f.	c #49321F",
"g.	c #4E3522",
"h.	c #005B36",
"i.	c #503427",
"j.	c #EC9167",
"k.	c #CF6960",
"l.	c #006D4D",
"m.	c #0B0609",
"n.	c #DE8D60",
"o.	c #D97263",
"p.	c #9E4A54",
"q.	c #00170E",
"r.	c #00231E",
"s.	c #07483C",
"t.	c #002516",
"u.	c #003D3A",
"v.	c #004D4A",
"w.	c #011C1B",
"x.	c #003E24",
"y.	c #00321E",
"z.	c #773B36",
"A.	c #595140",
"B.	c #002E1C",
"C.	c #351A14",
"D.	c #3F3028",
"E.	c #B15B3C",
"F.	c #90482E",
"G.	c #230E07",
"H.	c #9B583E",
"I.	c #80332D",
"J.	c #9D493F",
"K.	c #A44F43",
"L.	c #9F453A",
"M.	c #7A2E28",
"                                                                                                    ",
"                                                                                                    ",
"                                                                                                    ",
"                                                                                                    ",
"                                            . + @ @ @ # $                                           ",
"                                          % & * $ $ $ $ $ $                                         ",
"                                          = - ; > - , , - + $                                       ",
"                                          ' - ) & @ ! ~ { # $                                       ",
"                                        ] ^ / ) @ { ( _ : < $                                       ",
"                                        [ } / | 1 2 3 4 5 6                                         ",
"                                          7 8 9 0 a 5 4 b c                                         ",
"                                          d e ! f g g g h i                                         ",
"                                            $ $ j k g g l i                                         ",
"                                                @ m l 0 :                                           ",
"                                                @ n o $                                             ",
"                                            $ $ j p q r $                                           ",
"                                        ! # | s t u v w x y <                                       ",
"                                        z A | B C D E D F G H                                       ",
"                                      8 B I J K B s x L M N # 9                                     ",
"                                      9 O N J P Q R s t | S 9 z                                     ",
"                                    H O O I T U B V W C R R z $                                     ",
"                                    # O O I T U P B X z V S Y $                                     ",
"                                    H Q O N T I U U V N Z S T $                                     ",
"                                  < R K O I ! ` I P P ` z ` ` T                                     ",
"                                  < R K 7 I T  .` ..Y Y +.T ` T $                                   ",
"                                  < R K O I T ` T * @.#.#.$.$ T +.                                  ",
"                                  ..V O P Y $ +.+.+.+.+.$ +.T ` ` +.                                ",
"                                  z V V Z 9 #  .` ` ..Y %.` z H Z +.                                ",
"                                  Y P U Q O | &.G  .Y *.*.` 9 Y ` +.                                ",
"                                <  .X V 7 K S Y P  .Y =.*.` z Y ..+.$                               ",
"                                < `  .U B O A z P z -.;.>.` A T z | $                               ",
"                                T `  .I U A ,.P P ..=.'.).` U J ` | $                               ",
"                                < ` ` ` Y +.` U P *.).!.~.` P z T +.                                ",
"                                T  .` T > > ` P G &.{.e +.Z P U H                                   ",
"                                +.T Y J ].^.A S N /.(.(./.` U U H                                   ",
"                                    T N r v w T &._.:.:.<.` U U #                                   ",
"                                    J | r k b J T [.}.|.<.` U R J                                   ",
"                                  < Z 1.n 2.3.4.e [.}.|.5.` U U H                                   ",
"                                  +.! # - < < 6.$ [.7.|.5.` U N                                     ",
"                                  $ 8.9.0.0.0.a.b.c.d.e.&. .B Z                                     ",
"                                  9 6 f.f.g.1.- c h.d._.Y  .S 8                                     ",
"                                J S i.9.0.j.k.m ~ c.l.e.Y A <                                       ",
"                                  m.8.n.o.k.m p.~ h.d.e.+.<.e.                                      ",
"                                    $ q.q.q.q.q.r.c.}.l.d.s.$                                       ",
"                                    t.7.}.}.}.}.}.}.}.}.|.u.$                                       ",
"                                      s.}.}.}.}.}.}.}.d.v.w.$                                       ",
"                                        x.}.}.}.}.}.l.v.w.$ $                                       ",
"                                          y.h.}.}.l.v.w.8 z.$                                       ",
"                                          6 A.B.r.r.w.  C.z.$                                       ",
"                                          D.f $         C.z.$                                       ",
"                                          C.E.F.G.      C.E.F.G.                                    ",
"                                          D.h p H.2.    D.h p H.2.                                  ",
"                                          I.J.K.L.o M.  I.J.K.L.o M.                                "};
