/* XPM */
static char * Idle_6_xpm[] = {
"50 50 161 2",
"  	c None",
". 	c #030102",
"+ 	c #3A1614",
"@ 	c #38161B",
"# 	c #2C1415",
"$ 	c #250E13",
"% 	c #29150F",
"& 	c #6E2929",
"* 	c #0A0406",
"= 	c #390F17",
"- 	c #772333",
"; 	c #58131F",
"> 	c #4B2522",
", 	c #391E26",
"' 	c #321616",
") 	c #4C1E21",
"! 	c #8B1A4F",
"~ 	c #621035",
"{ 	c #481A18",
"] 	c #3A181F",
"^ 	c #221217",
"/ 	c #584237",
"( 	c #12090E",
"_ 	c #E42B6F",
": 	c #AF2552",
"< 	c #350D2B",
"[ 	c #1A0C0F",
"} 	c #6B5143",
"| 	c #E4AE90",
"1 	c #B78771",
"2 	c #080808",
"3 	c #120C07",
"4 	c #9B223D",
"5 	c #942147",
"6 	c #761828",
"7 	c #331C1D",
"8 	c #72574A",
"9 	c #E9B497",
"0 	c #ECB495",
"a 	c #EABAA0",
"b 	c #7C5E4E",
"c 	c #6D3444",
"d 	c #3D212C",
"e 	c #3C3034",
"f 	c #C1A191",
"g 	c #CFA38A",
"h 	c #D2AF9E",
"i 	c #4C392F",
"j 	c #0E282A",
"k 	c #4B342E",
"l 	c #FFC3A1",
"m 	c #96725E",
"n 	c #CA796A",
"o 	c #FDC09E",
"p 	c #DB8272",
"q 	c #806151",
"r 	c #C6625B",
"s 	c #522825",
"t 	c #FBBD9B",
"u 	c #CE9C82",
"v 	c #271E18",
"w 	c #0D060A",
"x 	c #432B33",
"y 	c #6B696D",
"z 	c #695E59",
"A 	c #DEAA8C",
"B 	c #D6A387",
"C 	c #838388",
"D 	c #1F1015",
"E 	c #42232E",
"F 	c #473239",
"G 	c #756B68",
"H 	c #7C6356",
"I 	c #544B50",
"J 	c #23131C",
"K 	c #331B25",
"L 	c #4C2836",
"M 	c #190D15",
"N 	c #552D3A",
"O 	c #636367",
"P 	c #7E7E82",
"Q 	c #2E181F",
"R 	c #2B171C",
"S 	c #432533",
"T 	c #592F3C",
"U 	c #3D2131",
"V 	c #6C6C70",
"W 	c #5B303D",
"X 	c #512A36",
"Y 	c #492734",
"Z 	c #51474C",
"` 	c #391F2C",
" .	c #2D1825",
"..	c #341C2B",
"+.	c #1D0C18",
"@.	c #2D1928",
"#.	c #140B13",
"$.	c #291726",
"%.	c #1E111C",
"&.	c #101C22",
"*.	c #210D1A",
"=.	c #AE253B",
"-.	c #47181D",
";.	c #231322",
">.	c #5A0E32",
",.	c #791634",
"'.	c #8F1E30",
").	c #763B36",
"!.	c #0C1317",
"~.	c #030B0B",
"{.	c #A76F5F",
"].	c #533D37",
"^.	c #1A2F3A",
"/.	c #594438",
"(.	c #08483A",
"_.	c #086546",
":.	c #065D48",
"<.	c #00734B",
"[.	c #003B36",
"}.	c #7C5534",
"|.	c #734F30",
"1.	c #012A19",
"2.	c #007D4B",
"3.	c #005541",
"4.	c #251A13",
"5.	c #FFB06D",
"6.	c #F9A66B",
"7.	c #AC614D",
"8.	c #103120",
"9.	c #4F3722",
"0.	c #492E27",
"a.	c #004E2E",
"b.	c #12131A",
"c.	c #DB7663",
"d.	c #C15E5D",
"e.	c #803C43",
"f.	c #0C2F1F",
"g.	c #00644B",
"h.	c #052222",
"i.	c #E78766",
"j.	c #A44D57",
"k.	c #7B3942",
"l.	c #03191A",
"m.	c #00170E",
"n.	c #003921",
"o.	c #002928",
"p.	c #005350",
"q.	c #00643C",
"r.	c #002013",
"s.	c #00402E",
"t.	c #67332E",
"u.	c #3D2C2B",
"v.	c #624A3F",
"w.	c #562D1D",
"x.	c #BE6240",
"y.	c #5A2C1B",
"z.	c #75422E",
"A.	c #8B3C34",
"B.	c #A44F44",
"C.	c #9E4237",
"D.	c #A24A3F",
"                                                                                                    ",
"                                          . + @ # # $ .                                             ",
"                                        % & @ * . . . . .                                           ",
"                                        = - @ ; > , @ ' ) +                                         ",
"                                        ! ~ { > ] $ ^ / ( (                                         ",
"                                      _ : < { ) [ } | 1 2 3                                         ",
"                                      4 5 6 ^ 7 8 9 0 a b                                           ",
"                                        c d * e a f g h i                                           ",
"                                          j 3 k 0 l l l m                                           ",
"                                            . ' n o l o m                                           ",
"                                                > p 1 q                                             ",
"                                                > r s                                               ",
"                                            . ' n t u v .                                           ",
"                                        w ^ x y z A B z C *                                         ",
"                                      [ , D E F y G H G I J w                                       ",
"                                      K L M K N x O O P ^ Q R *                                     ",
"                                    [ d L M J S T U V e T K R *                                     ",
"                                    R W L M J S X Y Z e Y ` w .                                     ",
"                                    R W L M J S S L  .E S ..w .                                     ",
"                                    R W L +.+.` S S E ^ U @.* .                                     ",
"                                  D W W L M #.@...U ` ^ $.$.%..                                     ",
"                                  D W T L M M $.@.&.*.#.* %.%..                                     ",
"                                  M W T L M M %.* ; =.=.=.-.( #..                                   ",
"                                [ U L X  .#.. * * * * . . w +.@.^                                   ",
"                                [ U L ` Q M M $.$.$.;.+.( @.#.@.J                                   ",
"                                w @.S Y T X R @...$.+.< ( $.#.@.^                                   ",
"                              2 %.@.S X T N  ...` ;.+.< (  .M $.^ .                                 ",
"                              * %.$...S T Y J ..` +.>.~ ( ..^ #. .J                                 ",
"                              * &.$.@.d d +. .U ` +.~ ,.#... .( ` J                                 ",
"                              * *.$.@.;.* ( ..S U $ ,.'.#...K #.M                                   ",
"                              * ;.$.;.# ).( ..U ..!.~.. ( ..S , .                                   ",
"                                ( #.#.7 {.]. .d %.!.^.j #...S ` .                                   ",
"                                  #.d x B 9 /.+.!.(._.j ( ..Y , .                                   ",
"                                  D X k u 0 8 M !.:.<.[.#...Y ` .                                   ",
"                                  , , ).}./ |.> 1.2.3.!.$.U S , .                                   ",
"                                M d 3 # # . 4.3 1.2.3.!.$...d D                                     ",
"                                M K }.5.5.5.6.7.8.2.(.!.$.U d *                                     ",
"                              ( E , 4.9.9.0.-.# 1.<.a.b.$.....                                      ",
"                              w ` R }.5.6.c.d.e.f.g.h.;.@.^ *                                       ",
"                                * * }.i.c.d.j.k.f.g.1.. * h.l.                                      ",
"                                  . m.m.m.m.m.m.n.2.2.2.g.o.                                        ",
"                                  1.2.2.2.2.2.2.2.2.2.<.p.o.                                        ",
"                                    a.2.2.2.2.2.2.2.2.g.[.~.                                        ",
"                                      m.q.2.2.2.2.2.:.[.. .                                         ",
"                                        . r.a.a.a.s.l.. s t.                                        ",
"                                          u.i .         s t.                                        ",
"                                          v.b           s t.                                        ",
"                                          w.x.y.        w.r y.                                      ",
"                                          } t p z./     |.o 1 z./.                                  ",
"                                          A.B.C.C.C.    A.D.C.C.A.                                  "};
