/* XPM */
static char * Idle_9_xpm[] = {
"50 53 161 2",
"  	c None",
". 	c #020102",
"+ 	c #3A1614",
"@ 	c #38161B",
"# 	c #2C1415",
"$ 	c #250F13",
"% 	c #0A0506",
"& 	c #29150F",
"* 	c #6E2929",
"= 	c #3A181F",
"- 	c #100807",
"; 	c #390F17",
"> 	c #772333",
", 	c #58131F",
"' 	c #441B22",
") 	c #331B24",
"! 	c #321616",
"~ 	c #4C1E21",
"{ 	c #8B1A4F",
"] 	c #601031",
"^ 	c #481A18",
"/ 	c #522825",
"( 	c #190D16",
"_ 	c #251A13",
": 	c #584237",
"< 	c #1B0C0F",
"[ 	c #12090E",
"} 	c #E42B6F",
"| 	c #AF2552",
"1 	c #350D2B",
"2 	c #6B5143",
"3 	c #E4AE90",
"4 	c #B78771",
"5 	c #0C070A",
"6 	c #9B223D",
"7 	c #942147",
"8 	c #761828",
"9 	c #2A1725",
"0 	c #23131B",
"a 	c #7D6457",
"b 	c #EBB495",
"c 	c #785A4A",
"d 	c #6D3444",
"e 	c #3D222A",
"f 	c #271E18",
"g 	c #C1A191",
"h 	c #CFA38A",
"i 	c #D2AF9E",
"j 	c #533D37",
"k 	c #072225",
"l 	c #0E0A0D",
"m 	c #48352D",
"n 	c #FFC3A1",
"o 	c #96725E",
"p 	c #CA796A",
"q 	c #FBBD9B",
"r 	c #DB8272",
"s 	c #806151",
"t 	c #C6625B",
"u 	c #CE9C82",
"v 	c #221217",
"w 	c #432B33",
"x 	c #6B696D",
"y 	c #695E59",
"z 	c #DEAA8C",
"A 	c #D6A387",
"B 	c #838388",
"C 	c #150B13",
"D 	c #381E27",
"E 	c #42232E",
"F 	c #473239",
"G 	c #756B68",
"H 	c #544B50",
"I 	c #492734",
"J 	c #552D3A",
"K 	c #3D2C2B",
"L 	c #636367",
"M 	c #7E7E82",
"N 	c #2E181F",
"O 	c #2B171C",
"P 	c #4C2836",
"Q 	c #592F3C",
"R 	c #3D2131",
"S 	c #6C6C70",
"T 	c #3C3034",
"U 	c #5B303D",
"V 	c #422432",
"W 	c #51474C",
"X 	c #391F2C",
"Y 	c #32151B",
"Z 	c #331C2B",
"` 	c #2E1825",
" .	c #2B1828",
"..	c #1E111B",
"+.	c #512A36",
"@.	c #251422",
"#.	c #AE253B",
"$.	c #47181D",
"%.	c #020907",
"&.	c #1C0D19",
"*.	c #210D1A",
"=.	c #290A1B",
"-.	c #5A0E32",
";.	c #A11D4A",
">.	c #520D2E",
",.	c #801B2C",
"'.	c #B72447",
").	c #101A21",
"!.	c #763B36",
"~.	c #030B0B",
"{.	c #35211F",
"].	c #A76F5F",
"^.	c #0F1A20",
"/.	c #1A2F3A",
"(.	c #152329",
"_.	c #0D5743",
":.	c #163A3D",
"<.	c #4A332E",
"[.	c #C9987E",
"}.	c #7C5534",
"|.	c #096345",
"1.	c #594438",
"2.	c #734F30",
"3.	c #005A35",
"4.	c #FFB06D",
"5.	c #F9A66B",
"6.	c #AC614D",
"7.	c #0B1C1F",
"8.	c #004339",
"9.	c #4F3722",
"0.	c #492922",
"a.	c #031916",
"b.	c #007E4B",
"c.	c #DB7663",
"d.	c #C15E5D",
"e.	c #803C43",
"f.	c #1A1319",
"g.	c #00764B",
"h.	c #E78766",
"i.	c #A44D57",
"j.	c #00301D",
"k.	c #00160D",
"l.	c #003921",
"m.	c #006C4C",
"n.	c #002A28",
"o.	c #002C1C",
"p.	c #036B44",
"q.	c #00663D",
"r.	c #04241A",
"s.	c #0F4F42",
"t.	c #004E2E",
"u.	c #055B49",
"v.	c #67332E",
"w.	c #624A3F",
"x.	c #582D1C",
"y.	c #BE6240",
"z.	c #75422E",
"A.	c #8B3C34",
"B.	c #A44F44",
"C.	c #9E4237",
"D.	c #A24A3F",
"                                                                                                    ",
"                                                                                                    ",
"                                                                                                    ",
"                                                                                                    ",
"                                          . + @ # # $ %                                             ",
"                                        & * = - . . . . .                                           ",
"                                        ; > @ , ' ) @ ! ~ +                                         ",
"                                        { ] ^ / = ( _ : < [                                         ",
"                                      } | 1 ^ ~ < 2 3 4 % 5                                         ",
"                                      6 7 8 $ 9 0 a b b c .                                         ",
"                                        d e < f 4 g h i j .                                         ",
"                                          k l m b n n n o                                           ",
"                                            . # p q n n o                                           ",
"                                                / r 4 s                                             ",
"                                                / t /                                               ",
"                                            . ! p q u f .                                           ",
"                                        5 v w x y z A y B %                                         ",
"                                      C D v E F x G a G H 0 5                                       ",
"                                      ) I ( ) J K L L M v N O %                                     ",
"                                    [ e P ( 0 I Q R S T Q ) O %                                     ",
"                                    O U P ( 0 V J w W T I X 5 .                                     ",
"                                    Y U P ( 0 V V I O V R Z 5 .                                     ",
"                                    N U P ( ( R V V V v V ` 5 .                                     ",
"                                  5 ) U P ( (  .Z R X v 9  .... .                                   ",
"                                  C +.U P ( (  . .@.( [ % ..... .                                   ",
"                                  ( P U P ( ( ..% , #.#.#.$.5 @.v                                   ",
"                                  ( P +.9 [ . % %.% % . . 5 &.Z v                                   ",
"                                5 ` I X O ( &. . . .@.&.[ 1 (  .0                                   ",
"                                l 9 X I Q +.O  .Z @.( 1 [  .C  .0                                   ",
"                                l @.X +.Q Q `  .X @.*.1 [ ` C ` v .                                 ",
"                                5 @. .V J I =.Z R &.-.> =.9 &.C 9 0                                 ",
"                                5 @. .X e &.` R X *.] ;.>.( ` [ X 0                                 ",
"                              % .. .@.@.% C Z V X *.,.'.>.( 9 C (                                   ",
"                              % *.` ).! !.l X R Z C ~.%.. ( R D .                                   ",
"                                C C *.{.].: @.X &.^./.(.l ( V D .                                   ",
"                                    0 P A b W @.&.^._.:.).( V D .                                   ",
"                                    v <.[.b }.@.( ^.|.|.).&.V D .                                   ",
"                                    - !.}.1.2.K C ^.|.3.l  .R ) .                                   ",
"                                    . # # . _ l %.^.|.3.[  .R 9 .                                   ",
"                                  . }.4.4.4.5.6.- 7._.8.C  .R O .                                   ",
"                                  % _ 9.9.0.= & a._.b.8.[ 9 Z v                                     ",
"                                l C }.4.5.c.d.e.f._.g.8.l ( l                                       ",
"                                . . }.h.c.t i.e.j.g.g.8.. k a.                                      ",
"                                    %.k.k.k.k.a.l.b.b.b.m.n.                                        ",
"                                    o.p.b.b.b.b.b.b.b.b.m.n.                                        ",
"                                      o.q.b.b.b.b.b.b.g.l.~.                                        ",
"                                      r.q.b.b.b.b.b.g.s.. %                                         ",
"                                        . r.t.3.g.g.u.n./ v.                                        ",
"                                          K 9.k.o.a.a.%./ v.                                        ",
"                                          w.c           / v.                                        ",
"                                          x.y.x.        x.t x.                                      ",
"                                          2 q r z.:     2.q 4 z.1.                                  ",
"                                          A.B.C.C.C.    A.D.C.C.A.                                  "};
