/* XPM */
static char *result[] = {
/* columns rows colors chars-per-pixel */
"60 60 215 2 ",
"   c black",
".  c #010101",
"X  c #010202",
"o  c #030203",
"O  c #050203",
"+  c #050303",
"@  c #000603",
"#  c #050403",
"$  c #040104",
"%  c #050104",
"&  c #030405",
"*  c #030505",
"=  c #030607",
"-  c #070407",
";  c #040606",
":  c #090404",
">  c #090506",
",  c #0A0506",
"<  c #0C0505",
"1  c #0D0606",
"2  c #030906",
"3  c #080408",
"4  c #0D0708",
"5  c #0E0709",
"6  c #0C060B",
"7  c #04080B",
"8  c #06090A",
"9  c #000C08",
"0  c #000F09",
"q  c #060C0F",
"w  c #0F080A",
"e  c #0F0C0A",
"r  c #0A0E0F",
"t  c #0E0E0D",
"y  c #130508",
"u  c #10040E",
"i  c #10080A",
"p  c #10090F",
"a  c #140A0D",
"s  c #150B0E",
"d  c #18090C",
"f  c #0F0B10",
"g  c #0A0F11",
"h  c #110A11",
"j  c #160C15",
"k  c #1B0E11",
"l  c #1B0E12",
"z  c #180D16",
"x  c #180D17",
"c  c #1C0F14",
"v  c #190E18",
"b  c #1A0F18",
"n  c #1B0E1A",
"m  c #1C0F1A",
"M  c #0D181E",
"N  c #1D1612",
"B  c #1F1016",
"V  c #1E111D",
"C  c #10191C",
"Z  c #121A1D",
"A  c #23070B",
"S  c #210C0E",
"D  c #2B100E",
"F  c #23180F",
"G  c #200D11",
"H  c #360B12",
"J  c #390C12",
"K  c #201117",
"L  c #221216",
"P  c #271217",
"I  c #2B1116",
"U  c #221219",
"Y  c #26141B",
"T  c #21121F",
"R  c #38161D",
"E  c #30181F",
"W  c #39181F",
"Q  c #2F2114",
"!  c #2F241E",
"~  c #141E23",
"^  c #231422",
"/  c #261524",
"(  c #271525",
")  c #271625",
"_  c #281626",
"`  c #291727",
"'  c #2A1727",
"]  c #2B1822",
"[  c #2E1926",
"{  c #2D1928",
"}  c #2F1A28",
"|  c #321A21",
" . c #331B22",
".. c #301B2A",
"X. c #321B2A",
"o. c #321C2B",
"O. c #351D29",
"+. c #331C2C",
"@. c #341D2C",
"#. c #351D2D",
"$. c #381F2C",
"%. c #381F2E",
"&. c #391F2F",
"*. c #152228",
"=. c #16252C",
"-. c #003720",
";. c #192E39",
":. c #1A2F3A",
">. c #19303B",
",. c #1A303C",
"<. c #1A323E",
"1. c #1B323E",
"2. c #3D2029",
"3. c #3B2130",
"4. c #3C2130",
"5. c #3D2231",
"6. c #3E2231",
"7. c #512211",
"8. c #552312",
"9. c #401A22",
"0. c #5B1930",
"q. c #71162C",
"w. c #452220",
"e. c #452320",
"r. c #462126",
"t. c #43262C",
"y. c #402332",
"u. c #412433",
"i. c #422433",
"p. c #442534",
"a. c #452534",
"s. c #452634",
"d. c #482734",
"f. c #482735",
"g. c #492735",
"h. c #492736",
"j. c #4A2836",
"k. c #4B2836",
"l. c #4B2937",
"z. c #4E2934",
"x. c #4F2A35",
"c. c #4C2836",
"v. c #4C2937",
"b. c #502B38",
"n. c #552D39",
"m. c #562D39",
"M. c #542D3A",
"N. c #562D3B",
"B. c #572E3B",
"V. c #582E3B",
"C. c #592F3C",
"Z. c #4F3C32",
"A. c #5B303D",
"S. c #6E2929",
"D. c #7E2E29",
"F. c #004E2E",
"G. c #584338",
"H. c #6D4B2E",
"J. c #143A42",
"K. c #541547",
"L. c #5B174C",
"P. c #5D174C",
"I. c #0D4347",
"U. c #03514F",
"Y. c #025350",
"T. c #005652",
"R. c #005851",
"E. c #005B51",
"W. c #006C4E",
"Q. c #106A46",
"!. c #007043",
"~. c #007646",
"^. c #007D4B",
"/. c #007E4B",
"(. c #685042",
"). c #6F5546",
"_. c #795C4C",
"`. c #756E6D",
"'. c #873921",
"]. c #8B3C27",
"[. c #90352F",
"{. c #A3233C",
"}. c #BC283F",
"|. c #93653F",
" X c #89174E",
".X c #8C174F",
"XX c #AF2645",
"oX c #B32546",
"OX c #B82740",
"+X c #BB2845",
"@X c #C92B44",
"#X c #A34D57",
"$X c #8E6D5A",
"%X c #9F7964",
"&X c #D26861",
"*X c #D56A62",
"=X c #D56B62",
"-X c #C07360",
";X c #DA7263",
":X c #BF8451",
">X c #AF866E",
",X c #B58A72",
"<X c #BD9077",
"1X c #D98674",
"2X c #C7987D",
"3X c #FCAC6C",
"4X c #FFB06D",
"5X c #DCA88A",
"6X c #EFA288",
"7X c #F0A683",
"8X c #E6AF91",
"9X c #EBB394",
"0X c #EFB696",
"qX c #FFC3A1",
"wX c None",
/* pixels */
"wXwXwXwXwXwXwXwXwXwXwXwXwXwXwXwXwXwXwXwXwXwXwXwXwXwXwXwXwXwXwXwXwXwXwXwXwXwXwXwXwXwXwXwXwXwXwXwXwXwXwXwXwXwXwXwXwXwXwXwX",
"wXwXwXwXwXwXwXwXwXwXwXwXwXwXwXwXwXwXwXwXwXwXwXwXwXwXwXwXwXwXwXwXwXwXwXwXwXwXwXwXwXwXwXwXwXwXwXwXwXwXwXwXwXwXwXwXwXwXwXwX",
"wXwXwXwXwXwXwXwXwXwXwXwXwXwXwXwXwXwXwXwXwXwXwXwXwXwXwXwXwXwXwXwXwXwXwXwXwXwXwXwXwXwXwXwXwXwXwXwXwXwXwXwXwXwXwXwXwXwXwXwX",
"wXwXwXwXwXwXwXwXwXwXwXwXwXwXwXwXwXwXwXwXwXwXwXwXwXwXwXwXwXwXwXwXwXwXwXwXwXwXwXwXwXwXwXwXwXwXwXwXwXwXwXwXwXwXwXwXwXwXwXwX",
"wXwXwXwXwXwXwXwXwXwXwXwXwXwXwXwXwXwXwXwXwXwXwXwXwXwXwXwXwXwXwXwXwXwXwXwXwXwXwXwXwXwXwXwXwXwXwXwXwXwXwXwXwXwXwXwXwXwXwXwX",
"wXwXwXwXwXwXwXwXwXwXwXwXwXwXwXwXwXwXwXwXwXwXwXwXwXwXwXwXwXwXwXwXwXwXwXwXwXwXwXwXwXwXwXwXwXwXwXwXwXwXwXwXwXwXwXwXwXwXwXwX",
"wXwXwXwXwXwXwXwXwXwXwXwXwXwXwXwXwXwXwXwXwXwXwXwXwXwXwXwXwXwXwXwXwXwXwXwXwXwXwXwXwXwXwXwXwXwXwXwXwXwXwXwXwXwXwXwXwXwXwXwX",
"wXwXwXwXwXwXwXwXwXwXwXwXwXwXwXwXwXwXwXwXwXwXwXwXwXwXwXwXwXwXwXwXwXwXwXwXwXwXwXwXwXwXwXwXwXwXwXwXwXwXwXwXwXwXwXwXwXwXwXwX",
"wXwXwXwXwXwXwXwXwXwXwXwXwXwXwXwXwXwXwXwXwXwXwXwXwXwXwXwXwXwXwXwXwXwXwXwXwXwXwXwXwXwXwXwXwXwXwXwXwXwXwXwXwXwXwXwXwXwXwXwX",
"wXwXwXwXwXwXwXwXwXwXwXwXwXwXwXwXwXwXwXwXwXwXwXwXwXwXwXwXwXwXwXwXwXwXwXwXwXwXwXwXwXwXwXwXwXwXwXwXwXwXwXwXwXwXwXwXwXwXwXwX",
"wXwXwXwXwXwXwXwXwXwXwXwXwXwXwXwXwXwXwXwXwXwXwXwXwXwXwXwXwXwXwXwXwXwXwXwXwXwXwXwXwXwXwXwXwXwXwXwXwXwXwXwXwXwXwXwXwXwXwXwX",
"wXwXwXwXwXwXwXwXwXwXwXwXwXwXwXwXwXwXwXwXwXwXwXwXwXwXwXwXwXwXwXwXwXwXwXwXwXwXwXwXwXwXwXwXwXwXwXwXwXwXwXwXwXwXwXwXwXwXwXwX",
"wXwXwXwXwXwXwXwXwXwXwXwXwXwXwXwXwXwXwXwXwXwXwXwXwXwXwXwXwXwXwXwXwXwXwXwXwXwXwXwXwXwXwXwXwXwXwXwXwXwXwXwXwXwXwXwXwXwXwXwX",
"wXwXwXwXwXwXwXwXwXwXwXwXwXwXwXwXwXwXwXwXwXwXwXwXwXwXwXwXwXwXwXwXwXwXwXwXwXwXwXwXwXwXwXwXwXwXwXwXwXwXwXwXwXwXwXwXwXwXwXwX",
"wXwXwXwXwXwXwXwXwXwXwXwXwXwXwXwXwXwXwXwXwXwXwXwXwXwXwXwXwXwXwXwXwXwXwXwXwXwXwXwXwXwXwXwXwXwXwXwXwXwXwXwXwXwXwXwXwXwXwXwX",
"wXwXwXwXwXwXwXwXwXwXwXwXwXwXwXwXwXwXwXwXwXwXwXwXwXwXwXwXwXwXwXwXwXwXwXwXwXwXwXwXwXwXwXwXwXwXwXwXwXwXwXwXwXwXwXwXwXwXwXwX",
"wXwXwXwXwXwXwXwXwXwXwXwXwXwXwXwXwXwXwXwXwXwXwXwXwXwXwXwXwXwXwXwXwXwXwXwXwXwXwXwXwXwXwXwXwXwXwXwXwXwXwXwXwXwXwXwXwXwXwXwX",
"wXwXwXwXwXwXwXwXwXwXwXwXwXwXwXwXwXwXwXwXwXwXwXwXwXwXwXwXwXwXwXwXwXwXwXwXwXwXwXwXwXwXwXwXwXwXwXwXwXwXwXwXwXwXwXwXwXwXwXwX",
"wXwXwXwXwXwXwXwXwXwXwXwXwXwXwXwXwXwXwXwXwXwXwXwXwXwXwXwXwXwXwXwXwXwXwXwXwXwXwXwXwXwXwXwXwXwXwXwXwXwXwXwXwXwXwXwXwXwXwXwX",
"wXwXwXwXwXwXwXwXwXwXwXwXwXwXwXwXwXwXwXwXwXwXwXwXwXwXwXwXwXwXwXwXwXwXwXwXwXwXwXwXwXwXwXwXwXwXwXwXwXwXwXwXwXwXwXwXwXwXwXwX",
"wXwXwXwXwXwXwXwXwXwXwXwXwXwXwXwXwXwXwXwXwXwXwXwXwXwXwXwXwXwXwXwXwXwXwXwXwXwXwXwXwXwXwXwXwXwXwXwXwXwXwXwXwXwXwXwXwXwXwXwX",
"wXwXwXwXwXwXwXwXwXwXwXwXwXwXwXwXwXwXwXwXwXwXwXwXwXwXwXwXwXwXwXwXwXwXwXwXwXwXwXwXwXwXwXwXwXwXwXwXwXwXwXwXwXwXwXwXwXwXwXwX",
"wXwXwXwXwXwXwXwXwXwXwXwXwXwXwXwXwXwXwXwXwXwXwXwXwXwXwXwXwXwXwXwXwXwXwXwXwXwXwXwXwXwXwXwXwXwXwXwXwXwXwXwXwXwXwXwXwXwXwXwX",
"wXwXwXwXwXwXwXwXwXwXwXwXwXwXwXwXwXwXwXwX      wXwXwXwXwXwXwXwXwXwXwXwXwXwXwXwXwXwXwXwXwXwXwXwXwXwXwXwXwXwXwXwXwXwXwXwXwX",
"wXwXwXwXwXwXwXwXwXwXwXwXwXwXwXwXwXwXwXwXS.I S d D wXwXwXwXwXwXwXwXwXwXwXwXwXwXwXwXwXwXwXwXwXwXwXwXwXwXwXwXwXwXwXwXwXwXwX",
"wXwXwXwXwXwXwXwXwXwXwXwXwXwXwXwXwXwXwX0.K.D.9.W G wXwXwXwXwXwXwXwXwXwXwXwXwXwXwXwXwXwXwXwXwXwXwXwXwXwXwXwXwXwXwXwXwXwXwX",
"wXwXwXwXwXwXwXwXwXwXwXwXwXwXwXwXwXwXwXXXOXR P e %XwXwXwXwXwXwXwXwXwXwXwXwXwXwXwXwXwXwXwXwXwXwXwXwXwXwXwXwXwXwXwXwXwXwXwX",
"wXwXwXwXwXwXwXwXwXwXwXwXwXwXwXwXwXwXy oXQ.R > `.%XwXwXwXwXwXwXwXwXwXwXwXwXwXwXwXwXwXwXwXwXwXwXwXwXwXwXwXwXwXwXwXwXwXwXwX",
"wXwXwXwXwXwXwXwXwXwXwXwXwXwXwXwXwXwXwX2 ~.k >XqX%XwXwXwXwXwXwXwXwXwXwXwXwXwXwXwXwXwXwXwXwXwXwXwXwXwXwXwXwXwXwXwXwXwXwXwX",
"wXwXwXwXwXwXwXwXwXwXwXwXwXwXwXwXwXwXwXwX4 5 5XqX%XwXwXwXwXwXwXwXwXwXwXwXwXwXwXwXwXwXwXwXwXwXwXwXwXwXwXwXwXwXwXwXwXwXwXwX",
"wXwXwXwXwXwXwXwXwXwXwXwXwXwXwXwXwXwXa l # 9X<X  wXwXwXwXwXwXwXwXwXwXwXwXwXwXwXwXwXwXwXwXwXwXwXwXwXwXwXwXwXwXwXwXwXwXwXwX",
"wXwXwXwXwXwXwXwXwXwXwXwXwXwXwXwXwX  6.A.w ,Xt   wXwXwXwXwXwXwXwXwXwXwXwXwXwXwXwXwXwXwXwXwXwXwXwXwXwXwXwXwXwXwXwXwXwXwXwX",
"wXwXwXwXwXwXwXwXwXwXwXwXwXwXwXwXwX .p p.A.i m | O wXwXwXwXwXwXwXwXwXwXwXwXwXwXwXwXwXwXwXwXwXwXwXwXwXwXwXwXwXwXwXwXwXwXwX",
"wXwXwXwXwXwXwXwXwXwXwXwXwXwXwXwX  m.c.6 s.A.c z d.  wXwXwXwXwXwXwXwXwXwXwXwXwXwXwXwXwXwXwXwXwXwXwXwXwXwXwXwXwXwXwXwXwXwX",
"wXwXwXwXwXwXwXwXwXwXwXwXwXwXwXwXE A.B.[ ' f.A.U &.n.  wXwXwXwXwXwXwXwXwXwXwXwXwXwXwXwXwXwXwXwXwXwXwXwXwXwXwXwXwXwXwXwXwX",
"wXwXwXwXwXwXwXwXwXwXwXwXwXwXwXwXz.A.A.4.j } N.A.Y %.V., wXwXwXwXwXwXwXwXwXwXwXwXwXwXwXwXwXwXwXwXwXwXwXwXwXwXwXwXwXwXwXwX",
"wXwXwXwXwXwXwXwXwXwXwXwXwXwXwXB A.A.k.#.) x g.A.A.K &.C.wXwXwXwXwXwXwXwXwXwXwXwXwXwXwXwXwXwXwXwXwXwXwXwXwXwXwXwXwXwXwXwX",
"wXwXwXwXwXwXwXwXwXwXwXwXwXwXwXx.M.5.@.( V o X.l.A.t.V o Z.wXwXwXwXwXwXwXwXwXwXwXwXwXwXwXwXwXwXwXwXwXwXwXwXwXwXwXwXwXwXwX",
"wXwXwXwXwXwXwXwXwXwXwXwXwXwXwXO.{ / z A }.}.n y.j.! e wX>XwXwXwXwXwXwXwXwXwXwXwXwXwXwXwXwXwXwXwXwXwXwXwXwXwXwXwXwXwXwXwX",
"wXwXwXwXwXwXwXwXwXwXwXwXwXwXwX  $.$.$.^ $ {.wXb ] wX0XwXN (.wXwXwXwXwXwXwXwXwXwXwXwXwXwXwXwXwXwXwXwXwXwXwXwXwXwXwXwXwXwX",
"wXwXwXwXwXwXwXwXwXwXwXwXwXwXwX2.A.A.a.` % +XJ - 3 wXe 2X$XqX  wXwXwXwXwXwXwXwXwXwXwXwXwXwXwXwXwXwXwXwXwXwXwXwXwXwXwXwXwX",
"wXwXwXwXwXwXwXwXwXwXwXwXwXwXwXx.A.v.%.T L. X@X    wXe qX_.).G.wXwXwXwXwXwXwXwXwXwXwXwXwXwXwXwXwXwXwXwXwXwXwXwXwXwXwXwXwX",
"wXwXwXwXwXwXwXwXwXwXwXwXwXwX+ A.A.3.` u P..Xq.H wXwX|.  H.  wXwXwXwXwXwXwXwXwXwXwXwXwXwXwXwXwXwXwXwXwXwXwXwXwXwXwXwXwXwX",
"wXwXwXwXwXwXwXwXwXwXwXwXwXwXA.A.N.+.v ; q q T./.  F :X:X:Xw.wXwXwXwXwXwXwXwXwXwXwXwXwXwXwXwXwXwXwXwXwXwXwXwXwXwXwXwXwXwX",
"wXwXwXwXwXwXwXwXwXwXwXwXwXs A.A.h.o.8 ~ 1.1.T.W.@ Q 4X3X&Xr.wXwXwXwXwXwXwXwXwXwXwXwXwXwXwXwXwXwXwXwXwXwXwXwXwXwXwXwXwXwX",
"wXwXwXwXwXwXwXwXwXwXwXwXwXA.A.A.i.` 8 1.1.1.T.W.F.Q ;X=X#Xr.wXwXwXwXwXwXwXwXwXwXwXwXwXwXwXwXwXwXwXwXwXwXwXwXwXwXwXwXwXwX",
"wXwXwXwXwXwXwXwXwXwXwXwXL A.A.A.u.h *.1.1.1.T.W.F.wXwXwXwXwXwXwXwXwXwXwXwXwXwXwXwXwXwXwXwXwXwXwXwXwXwXwXwXwXwXwXwXwXwXwX",
"wXwXwXwXwXwXwXwXwXwXwXwXL A.A.p...h *.1.1.I.T.W.F.wXwXwXwXwXwXwXwXwXwXwXwXwXwXwXwXwXwXwXwXwXwXwXwXwXwXwXwXwXwXwXwXwXwXwX",
"wXwXwXwXwXwXwXwXwXwXwXwX* 2.b.&.` f *.1.<.Y.T./.  wXwXwXwXwXwXwXwXwXwXwXwXwXwXwXwXwXwXwXwXwXwXwXwXwXwXwXwXwXwXwXwXwXwXwX",
"wXwXwXwXwXwXwXwXwXwXwXwXM C T _ ` r =.1.J.T.E.!.  wXwXwXwXwXwXwXwXwXwXwXwXwXwXwXwXwXwXwXwXwXwXwXwXwXwXwXwXwXwXwXwXwXwXwX",
"wXwXwXwXwXwXwXwXwXwXwX< >.1.Z & . g 1.J.T.R./.-.wXwXwXwXwXwXwXwXwXwXwXwXwXwXwXwXwXwXwXwXwXwXwXwXwXwXwXwXwXwXwXwXwXwXwXwX",
"wXwXwXwXwXwXwXwXwXwX  1XX = 7 :.;.,.U.T.R.^.0 9 wXwXwXwXwXwXwXwXwXwXwXwXwXwXwXwXwXwXwXwXwXwXwXwXwXwXwXwXwXwXwXwXwXwXwXwX",
"wXwXwXwXwXwXwXwXwX  8X8.wXwXwXwXwXwXwXwX: '.wXwXwXwXwXwXwXwXwXwXwXwXwXwXwXwXwXwXwXwXwXwXwXwXwXwXwXwXwXwXwXwXwXwXwXwXwXwX",
"wXwXwXwXwXwXwXwXwXwX-X7X7.wXwXwXwXwXwXwX1 *X].e.wXwXwXwXwXwXwXwXwXwXwXwXwXwXwXwXwXwXwXwXwXwXwXwXwXwXwXwXwXwXwXwXwXwXwXwX",
"wXwXwXwXwXwXwXwXwXwXwX[.6X  wXwXwXwXwXwX[.[.[.[.wXwXwXwXwXwXwXwXwXwXwXwXwXwXwXwXwXwXwXwXwXwXwXwXwXwXwXwXwXwXwXwXwXwXwXwX",
"wXwXwXwXwXwXwXwXwXwXwXwXwXwXwXwXwXwXwXwXwXwXwXwXwXwXwXwXwXwXwXwXwXwXwXwXwXwXwXwXwXwXwXwXwXwXwXwXwXwXwXwXwXwXwXwXwXwXwXwX",
"wXwXwXwXwXwXwXwXwXwXwXwXwXwXwXwXwXwXwXwXwXwXwXwXwXwXwXwXwXwXwXwXwXwXwXwXwXwXwXwXwXwXwXwXwXwXwXwXwXwXwXwXwXwXwXwXwXwXwXwX",
"wXwXwXwXwXwXwXwXwXwXwXwXwXwXwXwXwXwXwXwXwXwXwXwXwXwXwXwXwXwXwXwXwXwXwXwXwXwXwXwXwXwXwXwXwXwXwXwXwXwXwXwXwXwXwXwXwXwXwXwX",
"wXwXwXwXwXwXwXwXwXwXwXwXwXwXwXwXwXwXwXwXwXwXwXwXwXwXwXwXwXwXwXwXwXwXwXwXwXwXwXwXwXwXwXwXwXwXwXwXwXwXwXwXwXwXwXwXwXwXwXwX",
"wXwXwXwXwXwXwXwXwXwXwXwXwXwXwXwXwXwXwXwXwXwXwXwXwXwXwXwXwXwXwXwXwXwXwXwXwXwXwXwXwXwXwXwXwXwXwXwXwXwXwXwXwXwXwXwXwXwXwXwX"
};
