/* XPM */
static char * Jump_6_xpm[] = {
"50 50 161 2",
"  	c None",
". 	c #4E2010",
"+ 	c #633321",
"@ 	c #C87B68",
"# 	c #65301D",
"$ 	c #E08F6E",
"% 	c #A55045",
"& 	c #140807",
"* 	c #B96A4C",
"= 	c #CF8570",
"- 	c #5F4228",
"; 	c #AA6859",
"> 	c #544035",
", 	c #7A5D4C",
"' 	c #6D5244",
") 	c #5B4539",
"! 	c #01140C",
"~ 	c #00351F",
"{ 	c #002F1C",
"] 	c #7F6150",
"^ 	c #010101",
"/ 	c #003D23",
"( 	c #007847",
"_ 	c #007E4B",
": 	c #005B36",
"< 	c #8B6A57",
"[ 	c #002616",
"} 	c #006A3F",
"| 	c #876755",
"1 	c #4D3B31",
"2 	c #004327",
"3 	c #FFC3A1",
"4 	c #00744C",
"5 	c #002927",
"6 	c #001B1A",
"7 	c #003D3A",
"8 	c #AA816B",
"9 	c #01664E",
"0 	c #091619",
"a 	c #072620",
"b 	c #005552",
"c 	c #BF9278",
"d 	c #775B4B",
"e 	c #00482B",
"f 	c #0A2B26",
"g 	c #0F0A0C",
"h 	c #96735F",
"i 	c #003734",
"j 	c #044D4C",
"k 	c #B78B73",
"l 	c #036C41",
"m 	c #3C232A",
"n 	c #2A161C",
"o 	c #AA5B52",
"p 	c #DA7665",
"q 	c #0C4548",
"r 	c #E08273",
"s 	c #FABA9A",
"t 	c #A3705E",
"u 	c #142418",
"v 	c #00623A",
"w 	c #002E2B",
"x 	c #44242D",
"y 	c #5B303D",
"z 	c #130A12",
"A 	c #361E18",
"B 	c #864740",
"C 	c #A3614F",
"D 	c #0C2324",
"E 	c #173640",
"F 	c #D56A62",
"G 	c #5C362F",
"H 	c #035C4C",
"I 	c #0C1C21",
"J 	c #5F2F2B",
"K 	c #E79178",
"L 	c #71341F",
"M 	c #131E22",
"N 	c #122229",
"O 	c #2C1415",
"P 	c #42352A",
"Q 	c #04544D",
"R 	c #502A35",
"S 	c #200D11",
"T 	c #70302B",
"U 	c #B7564D",
"V 	c #783B27",
"W 	c #000F09",
"X 	c #00512F",
"Y 	c #00472A",
"Z 	c #006A4E",
"` 	c #0F373C",
" .	c #0D0D11",
"..	c #2E1924",
"+.	c #90342E",
"@.	c #C5695C",
"#.	c #815B4B",
"$.	c #122227",
"%.	c #2E181F",
"&.	c #592E3B",
"*.	c #482734",
"=.	c #1E101C",
"-.	c #4F2A38",
";.	c #2A1725",
">.	c #113F44",
",.	c #542C3A",
"'.	c #422433",
").	c #2D1929",
"!.	c #140A0D",
"~.	c #064444",
"{.	c #1A0E19",
"].	c #3C2030",
"^.	c #261523",
"/.	c #351D2C",
"(.	c #22131B",
"_.	c #3A1F2E",
":.	c #0C060A",
"<.	c #16110D",
"[.	c #1B1511",
"}.	c #4E2935",
"|.	c #372523",
"1.	c #2A201A",
"2.	c #6A3138",
"3.	c #A74F58",
"4.	c #CB655F",
"5.	c #B7764F",
"6.	c #70353A",
"7.	c #ED9368",
"8.	c #FEAF6C",
"9.	c #BF8451",
"0.	c #C63564",
"a.	c #30071A",
"b.	c #47311E",
"c.	c #692637",
"d.	c #961F45",
"e.	c #501725",
"f.	c #090504",
"g.	c #0E0A06",
"h.	c #166D4B",
"i.	c #972849",
"j.	c #811E49",
"k.	c #52183A",
"l.	c #57211F",
"m.	c #79573E",
"n.	c #3E2A1B",
"o.	c #4C2D2B",
"p.	c #1A0E14",
"q.	c #1B0B0E",
"r.	c #381716",
"s.	c #CD9C81",
"t.	c #441B21",
"u.	c #602426",
"v.	c #270E0C",
"w.	c #513E33",
"x.	c #331B26",
"y.	c #B99E91",
"z.	c #644E42",
"A.	c #3D1B23",
"B.	c #231315",
"C.	c #3F3028",
"D.	c #18110F",
"                                                                                                    ",
"                                                                                                    ",
"                                                                                                    ",
"                                                                                                    ",
"                                                                                                    ",
"                                          .                                                         ",
"                                        + @                                                         ",
"                                      # $ %                                                         ",
"                                    & * =                                                           ",
"                                    - = ;                                                           ",
"                                  > ,                                                               ",
"                                  ' )               ! ~ { !                                         ",
"                                  ]             ^ / ( _ :                                           ",
"                                ] <           [ } _ _ ( [                                           ",
"                                | 1           2 _ _ _ ( [                                           ",
"                              > 3 1         2 ( _ _ _ /                                             ",
"                              > 3 1         : _ _ _ 4 5                                             ",
"                6 7           8 3 1       ~ _ _ _ _ 9 0 ^                                           ",
"                a b 7 !       c 3 d       e _ _ _ } f g h 1                                         ",
"                ^ i b j j 6 ^ ; 3 k     ! l _ _ _ 2 m n o p @ ) ^                                   ",
"                ! f q b b b q m r s t u v _ _ _ 4 w x y z ^ A B C .                                 ",
"                  / D E b j E m F F G } _ _ _ _ H I x y x       J K L                               ",
"                  / : a M N u 0 O P } _ _ _ _ 4 Q I x y R S     T U p V                             ",
"                  W } _ X W W W Y _ _ _ _ _ _ Z `  .x y y ..        +.@.#.                          ",
"                    / _ _ _ _ _ _ _ _ _ _ _ Z j $.%.y y &.*.g                                       ",
"                      Y 4 _ _ _ _ _ _ _ _ Z j $.=.&.y y &.-.;.                                      ",
"                        i 9 _ _ _ _ _ 4 b >.$.=.,.y y y ,.'.).!.                                    ",
"                          I ~.9 4 Z Q ` M  .{.,.y y y y -.].;.g                                     ",
"                            ^ 0 E E I z z ^.).'.,.&.,.'.].).{.                                      ",
"                                ^ !.{.;.^.z ;.)././.m /.;.=.                                        ",
"                                  (.;.].'.^.{.;.;.;.;.).=.                                          ",
"                                  M _.,.&.,.;.z  .z  .:.                                            ",
"                          <.[.    {._.&.y &.}.z ^.^                                                 ",
"                      ^ ^ |.1.^   g _.&.y y &.;.{.^                                                 ",
"                      2.3.4.p 5.^ ^ {.,.&.&.y y %.z                                                 ",
"                      6.4.7.8.9.^   :.).,.y y y &.&.}.n         0.a.                                ",
"                      A - - - b.^     g /.-.,.&.}.{.%.&.{.  ! c.d.d.e.                              ",
"                      f.g.g.g.g.z :.    ^ ^._.'./.z ;.&.!.g l h.i.j.k.l.                            ",
"                        m.) n.o.&.m p.z ^ ^ g {.{.;.,.x 1 g !.q.p.r.r.O                             ",
"                        d s.|.x ^ ^ ../.^.^.^.p.n &.x ] s , g.p.n t.u.v.                            ",
"                          w., , %.&.x.:.p.{.=.x.&.y %.  < 3 3 y.z.S A.&                             ",
"                              ^ B.&.y x.m &.y y }.n     ) 3 3 h h O t.q.                            ",
"                                  %.y y y &.R p.          C.C.C.P D.&                               ",
"                                  p.y y }.n ^                                                       ",
"                                  f.!.!.:.                                                          ",
"                                                                                                    ",
"                                                                                                    ",
"                                                                                                    ",
"                                                                                                    ",
"                                                                                                    "};
