/* XPM */
static char * Jump_1_xpm[] = {
"50 53 159 2",
"  	c None",
". 	c #010101",
"+ 	c #491A19",
"@ 	c #571724",
"# 	c #271516",
"$ 	c #0B0506",
"% 	c #471C23",
"& 	c #5A2728",
"* 	c #34131B",
"= 	c #46171C",
"- 	c #3B1E26",
"; 	c #230713",
"> 	c #871846",
", 	c #7A1746",
"' 	c #6A2726",
") 	c #8F1F48",
"! 	c #AD2248",
"~ 	c #3C1A1F",
"{ 	c #2D161C",
"] 	c #47362D",
"^ 	c #8E6D5A",
"/ 	c #BD3760",
"( 	c #7F2E2A",
"_ 	c #220C1C",
": 	c #1D1014",
"< 	c #977765",
"[ 	c #D9A88D",
"} 	c #99745F",
"| 	c #631E32",
"1 	c #005A35",
"2 	c #082116",
"3 	c #4E3B34",
"4 	c #B59788",
"5 	c #B48E79",
"6 	c #121312",
"7 	c #054A2D",
"8 	c #120A0D",
"9 	c #7C5E4E",
"0 	c #FFC3A1",
"a 	c #231416",
"b 	c #96725E",
"c 	c #F8BD9C",
"d 	c #B58A72",
"e 	c #685041",
"f 	c #3C212D",
"g 	c #2D181F",
"h 	c #40443E",
"i 	c #5B5A51",
"j 	c #AB836B",
"k 	c #34261B",
"l 	c #18090A",
"m 	c #522B35",
"n 	c #4D2935",
"o 	c #452534",
"p 	c #2E1926",
"q 	c #6C7369",
"r 	c #73695B",
"s 	c #5B303D",
"t 	c #592F3C",
"u 	c #542C3A",
"v 	c #492734",
"w 	c #291726",
"x 	c #1B0E19",
"y 	c #462F35",
"z 	c #5E6059",
"A 	c #190D13",
"B 	c #331B24",
"C 	c #4F2A38",
"D 	c #381F2E",
"E 	c #140B13",
"F 	c #24131C",
"G 	c #1E111D",
"H 	c #341C2B",
"I 	c #0C060A",
"J 	c #3E2230",
"K 	c #43232D",
"L 	c #564236",
"M 	c #664C41",
"N 	c #2D1929",
"O 	c #64453A",
"P 	c #765647",
"Q 	c #251522",
"R 	c #0B0B0D",
"S 	c #3F3028",
"T 	c #5D131F",
"U 	c #8A1D2F",
"V 	c #D7A487",
"W 	c #2F0911",
"X 	c #2F0A25",
"Y 	c #A31E49",
"Z 	c #9F2135",
"` 	c #7C174E",
" .	c #9A1C49",
"..	c #C72B43",
"+.	c #6E4C2F",
"@.	c #DF9A5F",
"#.	c #DA925E",
"$.	c #975443",
"%.	c #5F174C",
"&.	c #8C174F",
"*.	c #A52439",
"=.	c #292A24",
"-.	c #007445",
";.	c #003C23",
">.	c #67402D",
",.	c #3D0E2E",
"'.	c #004A47",
").	c #005C50",
"!.	c #00764C",
"~.	c #7C5434",
"{.	c #FFB06D",
"].	c #F6A26A",
"^.	c #DB7663",
"/.	c #BF5C5C",
"(.	c #7D3A43",
"_.	c #621546",
":.	c #4D0C2B",
"<.	c #14242B",
"[.	c #10343A",
"}.	c #064C4C",
"|.	c #005652",
"1.	c #E38265",
"2.	c #D56A62",
"3.	c #A24C57",
"4.	c #773B36",
"5.	c #142125",
"6.	c #1B323E",
"7.	c #163741",
"8.	c #02504D",
"9.	c #007C49",
"0.	c #0F181C",
"a.	c #001C10",
"b.	c #0D4347",
"c.	c #0D1314",
"d.	c #123C43",
"e.	c #00624F",
"f.	c #200E12",
"g.	c #004136",
"h.	c #00361F",
"i.	c #162A33",
"j.	c #08181C",
"k.	c #492C27",
"l.	c #12191B",
"m.	c #070E11",
"n.	c #341A17",
"o.	c #C77763",
"p.	c #35170C",
"q.	c #AB4F33",
"r.	c #90482E",
"s.	c #230E07",
"t.	c #95422E",
"u.	c #070A0B",
"v.	c #B9655B",
"w.	c #E28E73",
"x.	c #9B583E",
"y.	c #82312A",
"z.	c #993C35",
"A.	c #9F453B",
"B.	c #7B372E",
"                                                                                                    ",
"                                                                                                    ",
"                                                                                                    ",
"                                                                                                    ",
"                                                                                                    ",
"                                                                                                    ",
"                                                                                                    ",
"                                                                                                    ",
"                                                                                                    ",
"                                                                                                    ",
"                                                                                                    ",
"                                                          . . . .                                   ",
"                                                        + @ # $ . . $                               ",
"                                                      % & * = @ - % =                               ",
"                                                    ; > , * ' % * # $                               ",
"                                                    ) ! , = ~ { $ ] ^                               ",
"                                                    / ) ( _ * : < [ }                               ",
"                                                      | 1 2 : 3 4 5 }                               ",
"                                                      6 7 2 8 9 0 0 }                               ",
"                                                        $ 8 : ^ 0 0 }                               ",
"                                                        $ a b c d ^ e                               ",
"                                              : f f g h i } c j k                                   ",
"                                        . . l m n o p . q r } .                                     ",
"                                    l p s t u v w x # s y z 6                                       ",
"                                A B v s t C D w E F o s C 8 .                                       ",
"                              A n s s s C D G 8 H n s s B { I                                       ",
"                            : v s s s C D G E H C s m B g A                                         ",
"                            B s s t C J G E H o s s K A B                                           ",
"                          L M n s t o N x x J u s s f 8 A                                           ",
"                          O P K s n J G E w D v s u o Q                                             ",
"                        L b $ K u v N G 8 w N D f D J F                                             ",
"                        9 ] I K u D w x G w w p a R A p A                                           ",
"                      S ^ .   A f D Q . . . . . T ! U R E                                           ",
"                      S V } . I w Q 8 F m D w w A A W ; .                                           ",
"                      S d 9 S   I E E n t v N x X > Y Z T                                           ",
"                    . $ 6 8 8 . .   8 n t v N x X `  .....U $ .                                     ",
"                    +.@.@.@.#.$.l   - s t v Q _ %.` &.Y *.=.-.-.;.                                  ",
"                    k +.+.>.& - $   - t u J x ,.` &., @ H '.).!.-.;.                                ",
"                    ~.{.].^./.(.$ # u t C N x _.&.:.Q <.[.}.|.).!.-.;.                              ",
"                    ~.1.2./.3.4.$ g s s C N I . . 5.6.6.6.7.|.8.!.9.7                               ",
"                    . . . . . . $ f s u o x 0.6.7.7.7.6.6.7.}.|.).!.1 a.                            ",
"                                a t s u H E 0.6.6.6.6.6.6.6.b.|.).!.9.;.                            ",
"                                : s s u H E c.6.6.6.6.6.6.6.d.|.|.e.9.;.                            ",
"                                : s s u H E 0.6.6.6.6.6.6.6.6.b.|.e.9.;.                            ",
"                                f.s t v H E 0.6.6.6.6.6.6.6.6.b.|.e.9.;.                            ",
"                                : s u J w E c.<.6.6.6.6.6.6.6.b.|.e.9.;.                            ",
"                                  p u J w E c.5.6.6.6.6.6.6.7.b.|.e.9.;.                            ",
"                                  # v J w E c.5.6.6.6.6.6.6.6.b.}.g.h.                              ",
"                                    B o w E c.5.7.6.6.6.6.6.i.j.5.k..                               ",
"                                  e L H w E c.l.<.6.6.6.[.m..   n.4..                               ",
"                                9 o.= . R 8 c.l.l.<.i.0..       p.q.r.s.                            ",
"                              k.o.t.p.    . u.R R R .           n.v.w.x.s                           ",
"                              y.t.z.y.                          ( z.q.A.B.8                         "};
