/* XPM */
static char * Jump_4_xpm[] = {
"50 50 172 2",
"  	c None",
". 	c #43342A",
"+ 	c #4E3B31",
"@ 	c #0A0405",
"# 	c #1B0E13",
"$ 	c #382A24",
"% 	c #9E7864",
"& 	c #D4A286",
"* 	c #FFC3A1",
"= 	c #EEB696",
"- 	c #97735F",
"; 	c #010001",
"> 	c #221216",
", 	c #512A36",
"' 	c #43232C",
") 	c #0F0B06",
"! 	c #1F1814",
"~ 	c #18120F",
"{ 	c #532C39",
"] 	c #1E1114",
"^ 	c #2A151C",
"/ 	c #4D2935",
"( 	c #C99A7F",
"_ 	c #CF9E82",
": 	c #F4BA9A",
"< 	c #492733",
"[ 	c #2D191D",
"} 	c #5B303D",
"| 	c #4F2A38",
"1 	c #2F241E",
"2 	c #594338",
"3 	c #906E5B",
"4 	c #6B5143",
"5 	c #3D202D",
"6 	c #150C14",
"7 	c #795537",
"8 	c #4A352D",
"9 	c #322315",
"0 	c #592F3C",
"a 	c #3E2231",
"b 	c #331B23",
"c 	c #432533",
"d 	c #2D1924",
"e 	c #5A3E26",
"f 	c #9F6E44",
"g 	c #925840",
"h 	c #63362C",
"i 	c #3C1B22",
"j 	c #351D2B",
"k 	c #2E1929",
"l 	c #291727",
"m 	c #69442D",
"n 	c #562424",
"o 	c #3D1615",
"p 	c #49141D",
"q 	c #DDAF96",
"r 	c #644D3F",
"s 	c #1E111B",
"t 	c #91643D",
"u 	c #FFB06D",
"v 	c #F19968",
"w 	c #D3685E",
"x 	c #AE5953",
"y 	c #793846",
"z 	c #230C0D",
"A 	c #A48372",
"B 	c #D4A388",
"C 	c #231421",
"D 	c #121E23",
"E 	c #230A1E",
"F 	c #130A0D",
"G 	c #0C0A0C",
"H 	c #9F4F49",
"I 	c #8C4344",
"J 	c #57282E",
"K 	c #2A1216",
"L 	c #87736A",
"M 	c #4F1E24",
"N 	c #2E090F",
"O 	c #18060A",
"P 	c #866755",
"Q 	c #7C5C4E",
"R 	c #23131D",
"S 	c #1A0E19",
"T 	c #6A1625",
"U 	c #641421",
"V 	c #531D1D",
"W 	c #6A2725",
"X 	c #36171C",
"Y 	c #0D070B",
"Z 	c #901E30",
"` 	c #C12943",
" .	c #C82A44",
"..	c #791928",
"+.	c #2D0D23",
"@.	c #350F1C",
"#.	c #162627",
"$.	c #003720",
"%.	c #002415",
"&.	c #380C2B",
"*.	c #8A174E",
"=.	c #B32347",
"-.	c #802040",
";.	c #922048",
">.	c #00633A",
",.	c #80174E",
"'.	c #BE2840",
").	c #901C44",
"!.	c #9D2247",
"~.	c #87194C",
"{.	c #5C174C",
"].	c #91184E",
"^.	c #260614",
"/.	c #B72C5D",
"(.	c #65174C",
"_.	c #731C35",
":.	c #153D29",
"<.	c #007D4B",
"[.	c #004C2D",
"}.	c #76174D",
"|.	c #601339",
"1.	c #172A33",
"2.	c #007447",
"3.	c #573D32",
"4.	c #47123C",
"5.	c #082728",
"6.	c #03514E",
"7.	c #00644F",
"8.	c #000D07",
"9.	c #0C1315",
"0.	c #192E39",
"a.	c #123C43",
"b.	c #005651",
"c.	c #0A0F12",
"d.	c #1B323E",
"e.	c #163741",
"f.	c #09494A",
"g.	c #005C50",
"h.	c #006C4D",
"i.	c #005431",
"j.	c #101618",
"k.	c #05090A",
"l.	c #12191C",
"m.	c #004428",
"n.	c #00744D",
"o.	c #0E4246",
"p.	c #15242B",
"q.	c #17353F",
"r.	c #006B3F",
"s.	c #0A281B",
"t.	c #35160C",
"u.	c #0D161B",
"v.	c #0F3138",
"w.	c #2F3125",
"x.	c #4C2524",
"y.	c #A44838",
"z.	c #2A1108",
"A.	c #C05A53",
"B.	c #CC645A",
"C.	c #632D1E",
"D.	c #B75B3D",
"E.	c #552615",
"F.	c #A84740",
"G.	c #BA5445",
"H.	c #A94C42",
"I.	c #693631",
"J.	c #E08270",
"K.	c #C37457",
"L.	c #983B35",
"M.	c #89342E",
"N.	c #90352F",
"O.	c #C27665",
"                                                                                                    ",
"                                                                                                    ",
"                                                                                                    ",
"                                                      . + + +                                       ",
"                                              @ # $ % & * * = -                                     ",
"                                          ; > , ' ) ! ! ! ! ! ~ ;                                   ",
"                                        > , { ' ] ^ { / ( _ & : * %                                 ",
"                                      > < / [ [ / } | 1 2   ~ 3 : = 4                               ",
"                                    # / 5 ^ , } } } < 6       7 8 8 7 9                             ",
"                                  # { 5 ] / } } 0 | a #     @ ) ) ) ) @ ;                           ",
"                                > ' b > c } } } | c a d @   e f f f g h ;                           ",
"            ; ; ; ; ; ; ;       [ b i < } } { c a j k l 6 ; m f f g 7 n ;                           ",
"          o p + = = = = q r   # ^ ' } } 0 < c j k l l l s @ t u v w x y ;                           ",
"          z i # r A B * = r ; @ i } 0 c j C s D E E # F F G m x H I y J ;                           ",
"        ; # i K $ L q * : % # M 0 { c C # [ [ [ [ d ' { / ^ N O ;                                   ",
"        ; o M M K # [ 1 P Q < { c j R S c { 0 0 0 0 | d F p T U @                                   ",
"        O K V W o X > 6 Y @ D l C Y # c c { { 0 c c a X Z U T `  ...                                ",
"        z M +.@.p #.$.%.Y @ @ 6 6 S k j a c c c a a k s > Y &.*.=.` ..                              ",
"        O V -.;.;.y >.#.@           Y S l j c a j k s d a S &.,.*.=.'...                            ",
"            @.).!.~.N @                 @ C l l l l # b R +.{.,.*.].=.Z ;                           ",
"              ^./.                        ; Y C S S i c S &.{.(.*.*._.:.<.[.                        ",
"                                              Y d ' 0 5 E {.{.{.}.|.1.2.<.2.[.                      ",
"                                            > | 3.(.0 | C +.{.4.F 5.6.7.<.<.>.8.                    ",
"                                          6 | } } } { j C 6 Y 9.0.a.6.b.7.<.>.%.                    ",
"                                          ^ c { | j ] 6 c.D d.d.d.e.f.b.g.h.<.i.;                   ",
"                                        F j c a d G 9.j.D 0.0.e.d.d.a.6.6.h.<.i.;                   ",
"                                        Y j ' k G O k.l.D 0.d.d.d.d.e.6.b.h.<.i.;                   ",
"                                        F j l F ~ # F G c.l.0.d.d.d.e.6.b.h.<.>.%.                  ",
"                                          S 6 F > > ~ G c.F D d.d.e.e.6.b.h.<.<.m.                  ",
"                                          Y # Y ] ] F 9.D 0.d.d.e.0.e.6.b.h.<.<.m.                  ",
"                                            F 6 F # G 9.#.d.d.d.d.e.f.b.g.n.<.<.m.                  ",
"                                              Y @ Y 9.#.d.d.d.d.d.a.6.b.7.<.<.<.m.                  ",
"                                                  k.l.1.d.d.d.d.d.o.b.g.<.<.<.<.m.                  ",
"                                                  k.p.d.d.d.d.d.a.b.b.7.<.<.<.<.m.                  ",
"                                                  k.#.1.d.d.d.q.f.b.g.n.<.<.<.r.s.                  ",
"                                                    t.X c.c.u.v.b.b.h.<.<.[.%.w.3 3.                ",
"                                                  x.w y.z.    ; ; ; ; ; ;       4 4                 ",
"                                                  n A.B.y.t.                    C.D.E.              ",
"                                                      F.G.H.x.                  I.J.K.V             ",
"                                                          L.M.                  M.y.B.G.E.          ",
"                                                                                    N.H.O.3.        ",
"                                                                                                    ",
"                                                                                                    ",
"                                                                                                    ",
"                                                                                                    ",
"                                                                                                    ",
"                                                                                                    ",
"                                                                                                    ",
"                                                                                                    ",
"                                                                                                    "};
