/* XPM */
static char * Jump_2_xpm[] = {
"50 50 167 2",
"  	c None",
". 	c #231116",
"+ 	c #140A0C",
"@ 	c #0B0506",
"# 	c #010101",
"$ 	c #4A1D17",
"% 	c #5D1420",
"& 	c #2C1315",
"* 	c #3B1515",
"= 	c #240B0D",
"- 	c #2B0D16",
"; 	c #671846",
"> 	c #3D0F34",
", 	c #522225",
"' 	c #401A22",
") 	c #35151B",
"! 	c #661534",
"~ 	c #AB2148",
"{ 	c #531330",
"] 	c #2C161C",
"^ 	c #1A0D12",
"/ 	c #281A18",
"( 	c #A72853",
"_ 	c #962048",
": 	c #701530",
"< 	c #1C0C0F",
"[ 	c #342421",
"} 	c #846553",
"| 	c #99745F",
"1 	c #513D34",
"2 	c #19192C",
"3 	c #240B11",
"4 	c #B82A4C",
"5 	c #802F4A",
"6 	c #1B4032",
"7 	c #453F40",
"8 	c #9F928F",
"9 	c #544035",
"0 	c #001A0F",
"a 	c #015935",
"b 	c #005334",
"c 	c #0C060A",
"d 	c #D7A487",
"e 	c #FFC3A1",
"f 	c #E1AB8D",
"g 	c #4D3B30",
"h 	c #10110F",
"i 	c #092E1E",
"j 	c #F6BC9B",
"k 	c #755949",
"l 	c #B88C73",
"m 	c #1E1014",
"n 	c #43232C",
"o 	c #532C39",
"p 	c #472F35",
"q 	c #6A5D52",
"r 	c #D09F83",
"s 	c #37231B",
"t 	c #351C23",
"u 	c #3D212D",
"v 	c #442533",
"w 	c #2D1924",
"x 	c #4C2836",
"y 	c #483338",
"z 	c #6E7269",
"A 	c #787163",
"B 	c #46362A",
"C 	c #5B303D",
"D 	c #331C2B",
"E 	c #140B13",
"F 	c #391F2D",
"G 	c #3E2231",
"H 	c #6C3437",
"I 	c #592F3C",
"J 	c #291726",
"K 	c #1F111D",
"L 	c #3A1F27",
"M 	c #241421",
"N 	c #23121B",
"O 	c #410E31",
"P 	c #1B0E19",
"Q 	c #4F2A38",
"R 	c #6E5445",
"S 	c #4A2736",
"T 	c #644D3F",
"U 	c #2C122C",
"V 	c #55121D",
"W 	c #9D2136",
"X 	c #2E1A29",
"Y 	c #3A0C13",
"Z 	c #B9273E",
"` 	c #931F31",
" .	c #44332A",
"..	c #210B1C",
"+.	c #5E1342",
"@.	c #8B174E",
"#.	c #2A0C0F",
"$.	c #48311E",
"%.	c #6F4D2F",
"&.	c #6B452E",
"*.	c #452C1D",
"=.	c #84174E",
"-.	c #8F184E",
";.	c #A12137",
">.	c #420E17",
",.	c #4E3622",
"'.	c #1E0719",
").	c #791441",
"!.	c #20060A",
"~.	c #A57246",
"{.	c #FEAE6C",
"].	c #E68666",
"^.	c #C8625E",
"/.	c #70343A",
"(.	c #2B0A25",
"_.	c #007948",
":.	c #006D43",
"<.	c #A26E45",
"[.	c #F39D6A",
"}.	c #A95058",
"|.	c #071B17",
"1.	c #123B43",
"2.	c #015551",
"3.	c #005D50",
"4.	c #00764C",
"5.	c #00351F",
"6.	c #67352D",
"7.	c #5C2828",
"8.	c #462126",
"9.	c #060709",
"0.	c #0D1214",
"a.	c #0E2429",
"b.	c #0E4247",
"c.	c #04534D",
"d.	c #080A0C",
"e.	c #121A1C",
"f.	c #16262E",
"g.	c #173740",
"h.	c #004428",
"i.	c #1A2F3A",
"j.	c #1B323E",
"k.	c #004B2C",
"l.	c #094F49",
"m.	c #101719",
"n.	c #070A0B",
"o.	c #064B48",
"p.	c #101B20",
"q.	c #182C35",
"r.	c #073E26",
"s.	c #172831",
"t.	c #4C2523",
"u.	c #006D4D",
"v.	c #C3624B",
"w.	c #00693E",
"x.	c #004327",
"y.	c #CF8B74",
"z.	c #DE8C70",
"A.	c #763422",
"B.	c #110703",
"C.	c #652D21",
"D.	c #A3483D",
"E.	c #B14A35",
"F.	c #863F36",
"G.	c #00120E",
"H.	c #772C27",
"I.	c #8D3730",
"J.	c #9A3C32",
"                                                                                                    ",
"                                                                                                    ",
"                                                                                                    ",
"                                                                                                    ",
"                                                                                                    ",
"                                                                                                    ",
"                                                                                                    ",
"                                                                                                    ",
"                                                                                                    ",
"                                                                                                    ",
"                                                        . + @ # #                                   ",
"                                                      $ % & * & & * =                               ",
"                                                    - ; > * , $ ' ) +                               ",
"                                                    ! ~ { * , ] ^ / +                               ",
"                                                    ( _ : < ) [ } | 1                               ",
"                                                2 3 4 5 6 < 3 7 8 } 9                               ",
"                                                    0 a b c [ d e f g                               ",
"                                                      h i c [ d e f g                               ",
"                                                        @ ^ } j e f g                               ",
"                                              # # # # # # k e l # #                                 ",
"                                          + m n o o o p q r l s                                     ",
"                                    3 t t u o v w w x y z A B                                       ",
"                                + n o C C o D E c F C o G h                                         ",
"                              t 7 H I o G J E K u C I n / ]                                         ",
"                            L C C C o G M E M v C I u N N                                           ",
"                          u I C 7 I O w E M v o C u ^ +                                             ",
"                        . n C C I v F E P D v Q C t E c                                             ",
"                        k g Q C o G M E M J D F Q I ]                                               ",
"                      1 R / o C S G E E J J N E D Q n +                                             ",
"                      T R + o I v U P # # # V W - D v m                                             ",
"                    9 | # ^ n Q G N . Q D X P ^ V c E                                               ",
"                    9 r 1   ^ u D K u I Q v X N 3 Y #                                               ",
"                    9 j R #   K M m C C o S D P ! Z ` Y                                             ",
"                    B } T  .  # m p C I S F M ..+.@.~ ` #.                                          ",
"                  $.%.%.%.&.*.] 1 I I o S F P O =.@.-.~ ;.>.                                        ",
"                  s ,.,.,.,.& ] ; I I Q G X '.O =.@.@.).>.!.#                                       ",
"                  ~.{.{.].^./.] C C I S G P (.+.=.=.- i _._.:.0                                     ",
"                  <.[.].^.}.H ] C C I S F P '.> U |.1.2.3.4.:.5.                                    ",
"                  *.6.7., 8./ ] C C o G X P 9.0.a.b.1.c.2.3._.a #                                   ",
"                            m o C C Q G N d.e.f.g.g.g.1.2.2.3.4.h.                                  ",
"                            . C C I Q G M d.e.f.i.g.j.j.1.c.3.4.k.                                  ",
"                            . C C C o G M d.e.e.2 g.j.j.g.1.3.4.k.                                  ",
"                            m C C C o G M # 9.0.K f.j.j.j.g.l.4.k.                                  ",
"                            m I C C Q G N d.m.n.# d.f.j.j.g.o.4.k.                                  ",
"                              ] I C Q D K n.e.e.p.p.m.q.j.g.l.:.r.                                  ",
"                              K S o Q D K n.e.e.s.j.i.i.g.1.2.b #                                   ",
"                            t.6.J v G D P d.e.s.i.j.j.j.j.c.u.a #                                   ",
"                          1 r v.$ P M J M 9.m.p.s.j.j.o.2.u.w.x.#                                   ",
"                          /.y.z.A.B.c E E d.0.e.a.b.c.3.o.x.B C.t.                                  ",
"                              D.E.F.#   # # 9.# 9.G.G.G./ H.I.J.I.                                  "};
