/* XPM */
static char * Jump_10_xpm[] = {
"50 50 163 2",
"  	c None",
". 	c #280E0D",
"+ 	c #481719",
"@ 	c #291215",
"# 	c #0C0506",
"$ 	c #010101",
"% 	c #170B07",
"& 	c #58211F",
"* 	c #471C21",
"= 	c #572020",
"- 	c #370D1C",
"; 	c #751849",
"> 	c #410F32",
", 	c #582625",
"' 	c #391919",
") 	c #2B151B",
"! 	c #7B173A",
"~ 	c #92194D",
"{ 	c #61152F",
"] 	c #4A1D23",
"^ 	c #120A0C",
"/ 	c #402F28",
"( 	c #261D18",
"_ 	c #AB2E5A",
": 	c #A21E4A",
"< 	c #671232",
"[ 	c #1B0E13",
"} 	c #42302A",
"| 	c #D09F83",
"1 	c #CC9C80",
"2 	c #4D3B30",
"3 	c #18182D",
"4 	c #A6243D",
"5 	c #693848",
"6 	c #094C31",
"7 	c #1C0C0E",
"8 	c #231315",
"9 	c #564D4C",
"0 	c #978F8E",
"a 	c #806251",
"b 	c #07110B",
"c 	c #04462B",
"d 	c #005130",
"e 	c #342621",
"f 	c #D7A487",
"g 	c #FFC3A1",
"h 	c #E1AB8D",
"i 	c #002616",
"j 	c #33251B",
"k 	c #A57E68",
"l 	c #0D060A",
"m 	c #1E1213",
"n 	c #AB836C",
"o 	c #F1B898",
"p 	c #9B7662",
"q 	c #3B1D25",
"r 	c #4A2733",
"s 	c #4C2B33",
"t 	c #552D3A",
"u 	c #5B303D",
"v 	c #592F3C",
"w 	c #392125",
"x 	c #442432",
"y 	c #522B36",
"z 	c #2E181E",
"A 	c #42222C",
"B 	c #3A1F2B",
"C 	c #22121C",
"D 	c #331B22",
"E 	c #3D202C",
"F 	c #150C13",
"G 	c #3D2130",
"H 	c #230F12",
"I 	c #1C0D19",
"J 	c #291723",
"K 	c #574338",
"L 	c #DDA98B",
"M 	c #694C41",
"N 	c #1E111B",
"O 	c #2D1929",
"P 	c #6F5446",
"Q 	c #251422",
"R 	c #C3957B",
"S 	c #916F5B",
"T 	c #321C2A",
"U 	c #5F163A",
"V 	c #4C0F19",
"W 	c #EDB595",
"X 	c #B98C73",
"Y 	c #080F13",
"Z 	c #290B23",
"` 	c #581443",
" .	c #B0253D",
"..	c #43231E",
"+.	c #A4524C",
"@.	c #66483D",
"#.	c #5C422E",
"$.	c #976840",
"%.	c #340D2C",
"&.	c #84174E",
"*.	c #53111B",
"=.	c #3F2B1A",
"-.	c #2F2014",
";.	c #8C174F",
">.	c #00351F",
",.	c #D7945B",
"'.	c #FEAF6C",
").	c #FFB06D",
"!.	c #F19868",
"~.	c #723935",
"{.	c #5A174C",
"].	c #001A0F",
"^.	c #007546",
"/.	c #007847",
"(.	c #432E1C",
"_.	c #4F3622",
":.	c #462220",
"<.	c #070C0D",
"[.	c #0F1E25",
"}.	c #0B4649",
"|.	c #005C51",
"1.	c #007C4B",
"2.	c #EF9568",
"3.	c #D26A61",
"4.	c #B1555A",
"5.	c #582930",
"6.	c #0F161A",
"7.	c #182C35",
"8.	c #1B323E",
"9.	c #00693E",
"0.	c #CC8258",
"a.	c #DA7263",
"b.	c #A24C57",
"c.	c #192D38",
"d.	c #4F2A38",
"e.	c #121C20",
"f.	c #0F4045",
"g.	c #005652",
"h.	c #163640",
"i.	c #054D4D",
"j.	c #006D4D",
"k.	c #0B0A0E",
"l.	c #15242B",
"m.	c #143A42",
"n.	c #00744C",
"o.	c #004D2E",
"p.	c #006F41",
"q.	c #12191B",
"r.	c #12333A",
"s.	c #03514F",
"t.	c #734038",
"u.	c #6E3123",
"v.	c #7C3727",
"w.	c #9F745E",
"x.	c #C37A5F",
"y.	c #4F2624",
"z.	c #C35C4C",
"A.	c #934239",
"B.	c #A24A41",
"C.	c #8E3731",
"D.	c #81312C",
"E.	c #9C3D35",
"F.	c #752A26",
"                                                                                                    ",
"                                                                                                    ",
"                                                                                                    ",
"                                                                                                    ",
"                                                                                                    ",
"                                                                                                    ",
"                                                                                                    ",
"                                                                                                    ",
"                                                                                                    ",
"                                                                                                    ",
"                                                                                                    ",
"                                                        . + @ # $ $ $                               ",
"                                                      % & + @ + * * = .                             ",
"                                                      - ; > + , * ' ) #                             ",
"                                                      ! ~ { @ ] @ ^ / (                             ",
"                                                      _ : < [ @ } | 1 2                             ",
"                                                  3 # 4 5 6 7 8 9 0 a 2                             ",
"                                                      b c d # e f g h 2                             ",
"                                                        b i % j f g h 2                             ",
"                                                          $ 8 k g g h 2                             ",
"                                                      $ l m n o p $ $                               ",
"                                                    m q r s n p                                     ",
"                                                  [ t u u v w                                       ",
"                                              l [ s v x y u z                                       ",
"                                          ^ z A u t B C r u D                                       ",
"                                      $ ) r v v v E F E v u z                                       ",
"                                    m u u u u v E F G u u v z                                       ",
"                                  @ y u u u t B H E u u v q $                                       ",
"                                # B u u u t x I J t u u x [                                         ",
"                              K L M s u t x N F O x v A F                                           ",
"                            P L M ^ A u t G I l N Q B J l                                           ",
"                          P R P # ^ m t x J F F l [ F F                                             ",
"                          S R m   ^ F @ T Q ^ Q I U 4 V                                             ",
"                        M W X j   # l Y C I T Q Z ` :  .V                                           ",
"                      ..+.@.#.$.$ $ # # C B T I %.&.~ : 4 *.                                        ",
"                      % =.m % -.$ ) E E r G Q Z ` ; ;.~ ~ e >.                                      ",
"                    =.,.'.).).!.~.w u v r O I Z {.{.%.$ ].^./.>.                                    ",
"                    ^ (._._.:.' 8 q u v x J F <.Y Y [.}.|.1./.c                                     ",
"                    (.,.'.2.3.4.5.B u y T F 6.7.8.8.8.}.|.1.1.9.].                                  ",
"                    =.0.a.3.4.b.5.B t B F 6.c.8.8.8.8.}.|.1.1.9.].                                  ",
"                    $ $ $ $ $ $ ^ E d.T F e.8.8.8.8.f.g.|.1.1.9.].                                  ",
"                              8 v v G F Y 7.8.8.8.h.i.|.j.1.1.d                                     ",
"                              8 v r J k.l.8.8.8.h.m.g.|.n.1.d                                       ",
"                                N T I <.l.8.8.h.h.i.g.j.1.d                                         ",
"                                I C <.l.8.8.8.h.i.|.n./.o.                                          ",
"                                  F <.e.7.8.h.i.|.j.1.p.i                                           ",
"                                  $ <.q.q.r.s.g.j.1.o.$                                             ",
"                                  t.' $ $ $ $ $ $ % u.v.                                            ",
"                                  w.x.y.          ..3.z.v.,                                         ",
"                                  A.B.C.          D.E.A.E.C.F.                                      "};
