/* XPM */
static char *result[] = {
/* columns rows colors chars-per-pixel */
"60 60 216 2 ",
"   c black",
".  c #020101",
"X  c #030202",
"o  c #040203",
"O  c #000603",
"+  c #040204",
"@  c #050204",
"#  c #060304",
"$  c #070407",
"%  c #090405",
"&  c #080406",
"*  c #090507",
"=  c #0A0507",
"-  c #0B0607",
";  c #0D0507",
":  c #030906",
">  c #090509",
",  c #0A0508",
"<  c #0C0708",
"1  c #0C070B",
"2  c #0C070C",
"3  c #06090A",
"4  c #0F0809",
"5  c #0F080A",
"6  c #0A0B0C",
"7  c #0E080C",
"8  c #0A0E0F",
"9  c #14050D",
"0  c #190508",
"q  c #18050E",
"w  c #110809",
"e  c #11090B",
"r  c #14090A",
"t  c #130A0C",
"y  c #180B08",
"u  c #180C0B",
"i  c #00170E",
"p  c #110A11",
"a  c #160C14",
"s  c #180D13",
"d  c #1D0F12",
"f  c #190E14",
"g  c #180D17",
"h  c #1C0F14",
"j  c #190E18",
"k  c #1A0E18",
"l  c #0D1314",
"z  c #0F1416",
"x  c #0F1517",
"c  c #1D1012",
"v  c #1F1114",
"b  c #101719",
"n  c #1C101B",
"m  c #1E111B",
"M  c #12191B",
"N  c #230E07",
"B  c #25070C",
"V  c #3A170C",
"C  c #290716",
"Z  c #3F0D15",
"A  c #201115",
"S  c #221216",
"D  c #201414",
"F  c #2C1114",
"G  c #21121F",
"H  c #2B1318",
"J  c #2E111A",
"K  c #2B1419",
"L  c #28161F",
"P  c #002516",
"I  c #002616",
"U  c #002D1B",
"Y  c #1E1021",
"T  c #101D24",
"R  c #270A21",
"E  c #320C2A",
"W  c #350D2C",
"Q  c #211220",
"!  c #221320",
"~  c #261524",
"^  c #271625",
"/  c #291727",
"(  c #2F1A25",
")  c #2C1827",
"_  c #2B1828",
"`  c #2D1929",
"'  c #2E1928",
"]  c #331B22",
"[  c #351C23",
"{  c #301A27",
"}  c #371D25",
"|  c #3A1E27",
" . c #301B2A",
".. c #351D2D",
"X. c #361E2D",
"o. c #381F2E",
"O. c #3D0F34",
"+. c #0C262B",
"@. c #16252C",
"#. c #14252E",
"$. c #003720",
"%. c #003B23",
"&. c #182A33",
"*. c #003F39",
"=. c #1A303B",
"-. c #1A303C",
";. c #1A313D",
":. c #1B323E",
">. c #19343F",
",. c #18353F",
"<. c #3E2129",
"1. c #3A202F",
"2. c #3B2030",
"3. c #3D2131",
"4. c #3E2231",
"5. c #3F2332",
"6. c #450F17",
"7. c #4B1019",
"8. c #4B2315",
"9. c #401A22",
"0. c #4F1F24",
"q. c #611420",
"w. c #4F2724",
"e. c #40212B",
"r. c #5B2220",
"t. c #582225",
"y. c #502825",
"u. c #42332A",
"i. c #45352C",
"p. c #402332",
"a. c #412433",
"s. c #432432",
"d. c #472530",
"f. c #442534",
"g. c #452634",
"h. c #492631",
"j. c #482634",
"k. c #492736",
"l. c #4F2A35",
"z. c #4C2937",
"x. c #4E2A38",
"c. c #4F2A38",
"v. c #512B36",
"b. c #502B38",
"n. c #512B39",
"m. c #542D3A",
"M. c #5A2F3C",
"N. c #5B303D",
"B. c #004E2E",
"V. c #03613A",
"C. c #7D5635",
"Z. c #0F3B41",
"A. c #183540",
"S. c #5A174C",
"D. c #5F174C",
"F. c #791444",
"G. c #70174D",
"H. c #0D4347",
"J. c #064D4D",
"K. c #00504C",
"L. c #005652",
"P. c #005851",
"I. c #00654F",
"U. c #116A47",
"Y. c #007646",
"T. c #00714D",
"R. c #00794B",
"E. c #007E4B",
"W. c #6F5546",
"Q. c #6E5648",
"!. c #7E6150",
"~. c #8B391D",
"^. c #8D391E",
"/. c #90352F",
"(. c #872738",
"). c #992034",
"_. c #993D36",
"`. c #815937",
"'. c #865C39",
"]. c #A0413B",
"[. c #8F633D",
"{. c #8C174F",
"}. c #961A4D",
"|. c #9E1D4B",
" X c #B22645",
".X c #BE2840",
"XX c #BE2845",
"oX c #C92B44",
"OX c #B04D45",
"+X c #A24C57",
"@X c #B75B55",
"#X c #836453",
"$X c #8F6D5A",
"%X c #976B58",
"&X c #C1594C",
"*X c #D3675B",
"=X c #EA4972",
"-X c #CE6660",
";X c #D56A62",
":X c #E27F65",
">X c #BF9278",
",X c #C28653",
"<X c #D88E5D",
"1X c #DF9A5F",
"2X c #DC8775",
"3X c #C09379",
"4X c #C3957B",
"5X c #E28775",
"6X c #ECA065",
"7X c #EFA566",
"8X c #E9B293",
"9X c #EBB699",
"0X c #F4BA9A",
"qX c #F7BC9B",
"wX c #FFC3A1",
"eX c None",
/* pixels */
"eXeXeXeXeXeXeXeXeXeXeXeXeXeXeXeXeXeXeXeXeXeXeXeXeXeXeXeXeXeXeXeXeXeXeXeXeXeXeXeXeXeXeXeXeXeXeXeXeXeXeXeXeXeXeXeXeXeXeXeX",
"eXeXeXeXeXeXeXeXeXeXeXeXeXeXeXeXeXeXeXeXeXeXeXeXeXeXeXeXeXeXeXeXeXeXeXeXeXeXeXeXeXeXeXeXeXeXeXeXeXeXeXeXeXeXeXeXeXeXeXeX",
"eXeXeXeXeXeXeXeXeXeXeXeXeXeXeXeXeXeXeXeXeXeXeXeXeXeXeXeXeXeXeXeXeXeXeXeXeXeXeXeXeXeXeXeXeXeXeXeXeXeXeXeXeXeXeXeXeXeXeXeX",
"eXeXeXeXeXeXeXeXeXeXeXeXeXeXeXeXeXeXeXeXeXeXeXeXeXeXeXeXeXeXeXeXeXeXeXeXeXeXeXeXeXeXeXeXeXeXeXeXeXeXeXeXeXeXeXeXeXeXeXeX",
"eXeXeXeXeXeXeXeXeXeXeXeXeXeXeXeXeXeXeXeXeXeXeXeXeXeXeXeXeXeXeXeXeXeXeXeXeXeXeXeXeXeXeXeXeXeXeXeXeXeXeXeXeXeXeXeXeXeXeXeX",
"eXeXeXeXeXeXeXeXeXeXeXeXeXeXeXeXeXeXeXeXeXeXeXeXeXeXeXeXeXeXeXeXeXeXeXeXeXeXeXeXeXeXeXeXeXeXeXeXeXeXeXeXeXeXeXeXeXeXeXeX",
"eXeXeXeXeXeXeXeXeXeXeXeXeXeXeXeXeXeXeXeXeXeXeXeXeXeXeXeXeXeXeXeXeXeXeXeXeXeXeXeXeXeXeXeXeXeXeXeXeXeXeXeXeXeXeXeXeXeXeXeX",
"eXeXeXeXeXeXeXeXeXeXeXeXeXeXeXeXeXeXeXeXeXeXeXeXeXeXeXeXeXeXeXeXeXeXeXeXeXeXeXeXeXeXeXeXeXeXeXeXeXeXeXeXeXeXeXeXeXeXeXeX",
"eXeXeXeXeXeXeXeXeXeXeXeXeXeXeXeXeXeXeXeXeXeXeXeXeXeXeXeXeXeXeXeXeXeXeXeXeXeXeXeXeXeXeXeXeXeXeXeXeXeXeXeXeXeXeXeXeXeXeXeX",
"eXeXeXeXeXeXeXeXeXeXeXeXeXeXeXeXeXeXeXeXeXeXeXeXeXeXeXeXeXeXeXeXeXeXeXeXeXeXeXeXeXeXeXeXeXeXeXeXeXeXeXeXeXeXeXeXeXeXeXeX",
"eXeXeXeXeXeXeXeXeXeXeXeXeXeXeXeXeXeXeXeXeXeXeXeXeXeXeXeXeXeXeXeXeXeXeXeXeXeXeXeXeXeXeXeXeXeXeXeXeXeXeXeXeXeXeXeXeXeXeXeX",
"eXeXeXeXeXeXeXeXeXeXeXeXeXeXeXeXeXeXeXeXeXeXeXeXeXeXeXeXeXeXeXeXeXeXeXeXeXeXeXeXeXeXeXeXeXeXeXeXeXeXeXeXeXeXeXeXeXeXeXeX",
"eXeXeXeXeXeXeXeXeXeXeXeXeXeXeXeXeXeXeXeXeXeXeXeXeXeXeXeXeXeXeXeXeXeXeXeXeXeXeXeXeXeXeXeXeXeXeXeXeXeXeXeXeXeXeXeXeXeXeXeX",
"eXeXeXeXeXeXeXeXeXeXeXeXeXeXeXeXeXeXeXeXeXeXeXeXeXeXeXeXeXeXeXeXeXeXeXeXeXeXeXeXeXeXeXeXeXeXeXeXeXeXeXeXeXeXeXeXeXeXeXeX",
"eXeXeXeXeXeXeXeXeXeXeXeXeXeXeXeXeXeXeXeXeXeXeXeXeXeXeXeXeXeXeXeXeXeXeXeXeXeXeXeXeXeXeXeXeXeXeXeXeXeXeXeXeXeXeXeXeXeXeXeX",
"eXeXeXeXeXeXeXeXeXeXeXeXeXeXeXeXeXeXeXeXeXeXeXeXeXeXeXeXeXeXeXeXeXeXeXeXeXeXeXeXeXeXeXeXeXeXeXeXeXeXeXeXeXeXeXeXeXeXeXeX",
"eXeXeXeXeXeXeXeXeXeXeXeXeXeXeXeXeXeXeXeXeXeXeXeXeXeXeXeXeXeXeXeXeXeXeXeXeXeXeXeXeXeXeXeXeXeXeXeXeXeXeXeXeXeXeXeXeXeXeXeX",
"eXeXeXeXeXeXeXeXeXeXeXeXeXeXeXeXeXeXeXeXeXeXeXeXeXeXeXeXeXeXeXeXeXeXeXeXeXeXeXeXeXeXeXeXeXeXeXeXeXeXeXeXeXeXeXeXeXeXeXeX",
"eXeXeXeXeXeXeXeXeXeXeXeXeXeXeXeXeXeXeXeXeXeXeXeXeXeXeXeXeXeXeXeXeXeXeXeXeXeXeXeXeXeXeXeXeXeXeXeXeXeXeXeXeXeXeXeXeXeXeXeX",
"eXeXeXeXeXeXeXeXeXeXeXeXeXeXeXeXeXeXeXeXeXeXeXeXeXeXeXeXeXeXeXeXeXeXeXeXeXeXeXeXeXeXeXeXeXeXeXeXeXeXeXeXeXeXeXeXeXeXeXeX",
"eXeXeXeXeXeXeXeXeXeXeXeXeXeXeXeXeXeXeXeXeXeXeXeXeXeXeXeXeXeXeXeXeXeXeXeXeXeXeXeXeXeXeXeXeXeXeXeXeXeXeXeXeXeXeXeXeXeXeXeX",
"eXeXeXeXeXeXeXeXeXeXeXeXeXeXeXeXeXeXeXeXeXeXeXeXeXeXeX      eXeXeXeXeXeXeXeXeXeXeXeXeXeXeXeXeXeXeXeXeXeXeXeXeXeXeXeXeXeX",
"eXeXeXeXeXeXeXeXeXeXeXeXeXeXeXeXeXeXeXeXeXeXeXeX  } >XqXwXwX#XeXeXeXeXeXeXeXeXeXeXeXeXeXeXeXeXeXeXeXeXeXeXeXeXeXeXeXeXeX",
"eXeXeXeXeXeXeXeXeXeXeXeXeXeXeXeXeXeXeXeXeXeXeX] N.A ] # $X$X$X!.eXeXeXeXeXeXeXeXeXeXeXeXeXeXeXeXeXeXeXeXeXeXeXeXeXeXeXeX",
"eXeXeXeXeXeXeXeXeXeXeXeXeXeXeXeXeXeXeXeXeXeXh.d.S N.M.= u.  4XwX  eXeXeXeXeXeXeXeXeXeXeXeXeXeXeXeXeXeXeXeXeXeXeXeXeXeXeX",
"eXeXeXeXeXeXeXeXeXeXeXeXeXeXeXeXeXeXeXeXeXv.{ | N.N.m.& eX  `.  ,XeXeXeXeXeXeXeXeXeXeXeXeXeXeXeXeXeXeXeXeXeXeXeXeXeXeXeX",
"eXeXeXeXeXeXeXeXeXeXeXeXeXeXeXeXeXeXeXeXM.) e.N.N.m.p.5.eX'.7X7X6Xu eXeXeXeXeXeXeXeXeXeXeXeXeXeXeXeXeXeXeXeXeXeXeXeXeXeX",
"eXeXeXeXeXeXeXeXeXeXeXeX          eXeXe 5 l.N.N.f.3._ / 1 C.1X<X@Xw eXeXeXeXeXeXeXeXeXeXeXeXeXeXeXeXeXeXeXeXeXeXeXeXeXeX",
"eXeXeXeXeXeXeXeXeXeXeX  0.D 0X8XwXW.eXh N.N.k. .` / ^ 2 o [.:X-X+Xr eXeXeXeXeXeXeXeXeXeXeXeXeXeXeXeXeXeXeXeXeXeXeXeXeXeX",
"eXeXeXeXeXeXeXeXeXeXeX  9.H Q.9XwX3Xt N.z.X.p ] ] ] [ x.s.Z   eXeXeXeXeXeXeXeXeXeXeXeXeXeXeXeXeXeXeXeXeXeXeXeXeXeXeXeXeX",
"eXeXeXeXeXeXeXeXeXeXeX; r.t.K 4 - i.j.o.j s z.N.N.n.b.m 7.q.).6.eXeXeXeXeXeXeXeXeXeXeXeXeXeXeXeXeXeXeXeXeXeXeXeXeXeXeXeX",
"eXeXeXeXeXeXeXeXeXeXeXF J 9 q i : < 7 G Q 1.5.a.a.a.2.! , E |.oXB eXeXeXeXeXeXeXeXeXeXeXeXeXeXeXeXeXeXeXeXeXeXeXeXeXeXeX",
"eXeXeXeXeXeXeXeXeXeXeX  (. XXXU.% eXeXeXeX  ~ ..5./ ~ l.' W {.}.oX0 eXeXeXeXeXeXeXeXeXeXeXeXeXeXeXeXeXeXeXeXeXeXeXeXeXeX",
"eXeXeXeXeXeXeXeXeXeXeXeXeXC =XeXeXeXeXeXeXeXeX@ / / * g.2 S.G.{..XV.P eXeXeXeXeXeXeXeXeXeXeXeXeXeXeXeXeXeXeXeXeXeXeXeXeX",
"eXeXeXeXeXeXeXeXeXeXeXeXeXeXeXeXeXeXeXeXeXeXeXeX+ <.N.f.O.S.D.F.*.E.E.U eXeXeXeXeXeXeXeXeXeXeXeXeXeXeXeXeXeXeXeXeXeXeXeX",
"eXeXeXeXeXeXeXeXeXeXeXeXeXeXeXeXeXeXeXeXeXeXeXf N.N.N.x.n R Y +.L.I.E.$.eXeXeXeXeXeXeXeXeXeXeXeXeXeXeXeXeXeXeXeXeXeXeXeX",
"eXeXeXeXeXeXeXeXeXeXeXeXeXeXeXeXeXeXeXeXeXeXeX( m.c.L 6 3 :.:.:.L.L.T.E.  eXeXeXeXeXeXeXeXeXeXeXeXeXeXeXeXeXeXeXeXeXeXeX",
"eXeXeXeXeXeXeXeXeXeXeXeXeXeXeXeXeXeXeXeXeXeX  a.4.k l M &.:.:.:.>.L.T.E.  eXeXeXeXeXeXeXeXeXeXeXeXeXeXeXeXeXeXeXeXeXeXeX",
"eXeXeXeXeXeXeXeXeXeXeXeXeXeXeXeXeXeXeXeXeXeX  p.g v c z b ;.:.:.>.L.T.E.O eXeXeXeXeXeXeXeXeXeXeXeXeXeXeXeXeXeXeXeXeXeXeX",
"eXeXeXeXeXeXeXeXeXeXeXeXeXeXeXeXeXeXeXeXeXeXeXk - v v X x T :.:.>.L.T.E.B.eXeXeXeXeXeXeXeXeXeXeXeXeXeXeXeXeXeXeXeXeXeXeX",
"eXeXeXeXeXeXeXeXeXeXeXeXeXeXeXeXeXeXeXeXeXeXeX$ a v d x &.:.:.:.J.L.T.E.B.eXeXeXeXeXeXeXeXeXeXeXeXeXeXeXeXeXeXeXeXeXeXeX",
"eXeXeXeXeXeXeXeXeXeXeXeXeXeXeXeXeXeXeXeXeXeXeXeX> . 8 @.:.:.:.A.L.L.E.E.B.eXeXeXeXeXeXeXeXeXeXeXeXeXeXeXeXeXeXeXeXeXeXeX",
"eXeXeXeXeXeXeXeXeXeXeXeXeXeXeXeXeXeXeXeXeXeXeXeXeXeXM =.:.:.:.H.L.R.E.E.B.eXeXeXeXeXeXeXeXeXeXeXeXeXeXeXeXeXeXeXeXeXeXeX",
"eXeXeXeXeXeXeXeXeXeXeXeXeXeXeXeXeXeXeXeXeXeXeXeXeXeX#.-.:.:.,.L.P.E.E.E.%.eXeXeXeXeXeXeXeXeXeXeXeXeXeXeXeXeXeXeXeXeXeXeX",
"eXeXeXeXeXeXeXeXeXeXeXeXeXeXeXeXeXeXeXeXeXeXeXeXeXeXy N     Z.K.Y.Y.I   2X  eXeXeXeXeXeXeXeXeXeXeXeXeXeXeXeXeXeXeXeXeXeX",
"eXeXeXeXeXeXeXeXeXeXeXeXeXeXeXeXeXeXeXeXeXeXeXeXeXeX;X*XV eXeXeXeXeXeXeX8.^.eXeXeXeXeXeXeXeXeXeXeXeXeXeXeXeXeXeXeXeXeXeX",
"eXeXeXeXeXeXeXeXeXeXeXeXeXeXeXeXeXeXeXeXeXeXeXeXeXeXeX].&Xy.eXeXeXeXeXeXw.5X~.eXeXeXeXeXeXeXeXeXeXeXeXeXeXeXeXeXeXeXeXeX",
"eXeXeXeXeXeXeXeXeXeXeXeXeXeXeXeXeXeXeXeXeXeXeXeXeXeXeXeXeXeXeXeXeXeXeXeXeX_.OX%XeXeXeXeXeXeXeXeXeXeXeXeXeXeXeXeXeXeXeXeX",
"eXeXeXeXeXeXeXeXeXeXeXeXeXeXeXeXeXeXeXeXeXeXeXeXeXeXeXeXeXeXeXeXeXeXeXeXeXeXeX/.eXeXeXeXeXeXeXeXeXeXeXeXeXeXeXeXeXeXeXeX",
"eXeXeXeXeXeXeXeXeXeXeXeXeXeXeXeXeXeXeXeXeXeXeXeXeXeXeXeXeXeXeXeXeXeXeXeXeXeXeXeXeXeXeXeXeXeXeXeXeXeXeXeXeXeXeXeXeXeXeXeX",
"eXeXeXeXeXeXeXeXeXeXeXeXeXeXeXeXeXeXeXeXeXeXeXeXeXeXeXeXeXeXeXeXeXeXeXeXeXeXeXeXeXeXeXeXeXeXeXeXeXeXeXeXeXeXeXeXeXeXeXeX",
"eXeXeXeXeXeXeXeXeXeXeXeXeXeXeXeXeXeXeXeXeXeXeXeXeXeXeXeXeXeXeXeXeXeXeXeXeXeXeXeXeXeXeXeXeXeXeXeXeXeXeXeXeXeXeXeXeXeXeXeX",
"eXeXeXeXeXeXeXeXeXeXeXeXeXeXeXeXeXeXeXeXeXeXeXeXeXeXeXeXeXeXeXeXeXeXeXeXeXeXeXeXeXeXeXeXeXeXeXeXeXeXeXeXeXeXeXeXeXeXeXeX",
"eXeXeXeXeXeXeXeXeXeXeXeXeXeXeXeXeXeXeXeXeXeXeXeXeXeXeXeXeXeXeXeXeXeXeXeXeXeXeXeXeXeXeXeXeXeXeXeXeXeXeXeXeXeXeXeXeXeXeXeX",
"eXeXeXeXeXeXeXeXeXeXeXeXeXeXeXeXeXeXeXeXeXeXeXeXeXeXeXeXeXeXeXeXeXeXeXeXeXeXeXeXeXeXeXeXeXeXeXeXeXeXeXeXeXeXeXeXeXeXeXeX",
"eXeXeXeXeXeXeXeXeXeXeXeXeXeXeXeXeXeXeXeXeXeXeXeXeXeXeXeXeXeXeXeXeXeXeXeXeXeXeXeXeXeXeXeXeXeXeXeXeXeXeXeXeXeXeXeXeXeXeXeX",
"eXeXeXeXeXeXeXeXeXeXeXeXeXeXeXeXeXeXeXeXeXeXeXeXeXeXeXeXeXeXeXeXeXeXeXeXeXeXeXeXeXeXeXeXeXeXeXeXeXeXeXeXeXeXeXeXeXeXeXeX",
"eXeXeXeXeXeXeXeXeXeXeXeXeXeXeXeXeXeXeXeXeXeXeXeXeXeXeXeXeXeXeXeXeXeXeXeXeXeXeXeXeXeXeXeXeXeXeXeXeXeXeXeXeXeXeXeXeXeXeXeX",
"eXeXeXeXeXeXeXeXeXeXeXeXeXeXeXeXeXeXeXeXeXeXeXeXeXeXeXeXeXeXeXeXeXeXeXeXeXeXeXeXeXeXeXeXeXeXeXeXeXeXeXeXeXeXeXeXeXeXeXeX",
"eXeXeXeXeXeXeXeXeXeXeXeXeXeXeXeXeXeXeXeXeXeXeXeXeXeXeXeXeXeXeXeXeXeXeXeXeXeXeXeXeXeXeXeXeXeXeXeXeXeXeXeXeXeXeXeXeXeXeXeX"
};
