/* XPM */
static char *result[] = {
/* columns rows colors chars-per-pixel */
"60 60 236 2 ",
"   c black",
".  c #010000",
"X  c #010001",
"o  c #020002",
"O  c #020102",
"+  c #060203",
"@  c #050204",
"#  c #060304",
"$  c #020404",
"%  c #000704",
"&  c #070407",
"*  c #090506",
"=  c #0B0507",
"-  c #010805",
";  c #010906",
":  c #0B0209",
">  c #090509",
",  c #0A060A",
"<  c #0B060B",
"1  c #000A08",
"2  c #000A0A",
"3  c #070A0B",
"4  c #000F09",
"5  c #0F0C0A",
"6  c #0F080E",
"7  c #0E0A0F",
"8  c #120309",
"9  c #19040E",
"0  c #17090B",
"q  c #100A0C",
"w  c #120A0C",
"e  c #150A0D",
"r  c #160B0D",
"t  c #110D0D",
"y  c #180B0D",
"u  c #00140B",
"i  c #001A0F",
"p  c #110A10",
"a  c #120A11",
"s  c #170C15",
"d  c #1A0D11",
"f  c #1E0E10",
"g  c #1C0F13",
"h  c #1A0E14",
"j  c #190E18",
"k  c #1A0E19",
"l  c #1B0F1A",
"z  c #1C0F1A",
"x  c #001514",
"c  c #0E1518",
"v  c #0E1519",
"b  c #0D181F",
"n  c #1E1017",
"m  c #1F1814",
"M  c #101719",
"N  c #1E1119",
"B  c #2F140B",
"V  c #251211",
"C  c #271312",
"Z  c #221117",
"A  c #221216",
"S  c #221A15",
"D  c #26141A",
"F  c #21121F",
"G  c #2D141A",
"H  c #2E151A",
"J  c #2B161C",
"K  c #2C171E",
"L  c #281F19",
"P  c #39171E",
"I  c #002F1C",
"U  c #00311D",
"Y  c #2E211B",
"T  c #0F1C23",
"R  c #101F26",
"E  c #231320",
"W  c #241422",
"Q  c #261524",
"!  c #271625",
"~  c #2B1720",
"^  c #291727",
"/  c #2A1727",
"(  c #2A1827",
")  c #2C1828",
"_  c #2C1928",
"`  c #2D1929",
"'  c #2F1A2A",
"]  c #311A20",
"[  c #331B22",
"{  c #371D25",
"}  c #341C2A",
"|  c #341D2B",
" . c #371E2B",
".. c #331C2C",
"X. c #371E2D",
"o. c #381E28",
"O. c #391F2F",
"+. c #002926",
"@. c #13212A",
"#. c #00302E",
"$. c #0E2E34",
"%. c #152730",
"&. c #152731",
"*. c #152832",
"=. c #192D37",
"-. c #3E2F27",
";. c #3F2332",
":. c #441C0E",
">. c #471D0F",
",. c #441F12",
"<. c #482115",
"1. c #401A22",
"2. c #42222C",
"3. c #44242D",
"4. c #45242E",
"5. c #592226",
"6. c #5A2226",
"7. c #5B2F2C",
"8. c #45342B",
"9. c #5A3E26",
"0. c #412433",
"q. c #422433",
"w. c #452532",
"e. c #462634",
"r. c #482630",
"t. c #4B2732",
"y. c #482734",
"u. c #482736",
"i. c #4E2934",
"p. c #4D2936",
"a. c #4E2937",
"s. c #4E2A38",
"d. c #4F2A38",
"f. c #502B39",
"g. c #512B39",
"h. c #522B39",
"j. c #532C38",
"k. c #522C39",
"l. c #532C39",
"z. c #552D39",
"x. c #542D3A",
"c. c #552D3A",
"v. c #572D3A",
"b. c #562D3B",
"n. c #562E3B",
"m. c #572E3B",
"M. c #5B303D",
"N. c #612421",
"B. c #622420",
"V. c #773B37",
"C. c #004A2C",
"Z. c #004C2D",
"A. c #004D2D",
"S. c #004E2F",
"D. c #005633",
"F. c #005A35",
"G. c #00663C",
"H. c #00673D",
"J. c #00693E",
"K. c #5F493C",
"L. c #68482C",
"P. c #6F4D2F",
"I. c #614A3D",
"U. c #123B42",
"Y. c #123D44",
"T. c #064243",
"R. c #004542",
"E. c #0F4146",
"W. c #0A4548",
"Q. c #0B4649",
"!. c #004B48",
"~. c #004E4B",
"^. c #064D4D",
"/. c #0A484A",
"(. c #015350",
"). c #005551",
"_. c #005652",
"`. c #31594C",
"'. c #006E41",
"]. c #00674E",
"[. c #00694E",
"{. c #006A4E",
"}. c #006F4D",
"|. c #007445",
" X c #007B4B",
".X c #007D4A",
"XX c #007C4B",
"oX c #007D4B",
"OX c #007E4B",
"+X c #685042",
"@X c #6B5143",
"#X c #775A4B",
"$X c #8A2F32",
"%X c #943832",
"&X c #85423D",
"*X c #81463F",
"=X c #9C433A",
"-X c #9D463D",
";X c #CA5D38",
":X c #B22645",
">X c #BE2845",
",X c #D23D69",
"<X c #AD564F",
"1X c #A34C57",
"2X c #976840",
"3X c #856654",
"4X c #8F6D5A",
"5X c #A86055",
"6X c #B26152",
"7X c #9C7763",
"8X c #9F7964",
"9X c #D0665E",
"0X c #D16761",
"qX c #D56A62",
"wX c #AF866E",
"eX c #CA8757",
"rX c #CF8F58",
"tX c #D19059",
"yX c #D08872",
"uX c #C3957B",
"iX c #C8997E",
"pX c #E48466",
"aX c #E7907D",
"sX c #EFA566",
"dX c #CF9E82",
"fX c #D2A084",
"gX c #DBA78A",
"hX c #DEA589",
"jX c #CEA995",
"kX c #E1AC8E",
"lX c #F2A88C",
"zX c #F4AD91",
"xX c #F5AE92",
"cX c #F8B794",
"vX c #FFC3A1",
"bX c None",
/* pixels */
"bXbXbXbXbXbXbXbXbXbXbXbXbXbXbXbXbXbXbXbXbXbXbXbXbXbXbXbXbXbXbXbXbXbXbXbXbXbXbXbXbXbXbXbXbXbXbXbXbXbXbXbXbXbXbXbXbXbXbXbX",
"bXbXbXbXbXbXbXbXbXbXbXbXbXbXbXbXbXbXbXbXbXbXbXbXbXbXbXbXbXbXbXbXbXbXbXbXbXbXbXbXbXbXbXbXbXbXbXbXbXbXbXbXbXbXbXbXbXbXbXbX",
"bXbXbXbXbXbXbXbXbXbXbXbXbXbXbXbXbXbXbXbXbXbXbXbXbXbXbXbXbXbXbXbXbXbXbXbXbXbXbXbXbXbXbXbXbXbXbXbXbXbXbXbXbXbXbXbXbXbXbXbX",
"bXbXbXbXbXbXbXbXbXbXbXbXbXbXbXbXbXbXbXbXbXbXbXbXbXbXbXbXbXbXbXbXbXbXbXbXbXbXbXbXbXbXbXbXbXbXbXbXbXbXbXbXbXbXbXbXbXbXbXbX",
"bXbXbXbXbXbXbXbXbXbXbXbXbXbXbXbXbXbXbXbXbXbXbXbXbXbXbXbXbXbXbXbXbXbXbXbXbXbXbXbXbXbXbXbXbXbXbXbXbXbXbXbXbXbXbXbXbXbXbXbX",
"bXbXbXbXbXbXbXbXbXbXbXbXbXbXbXbXbXbXbXbXbXbXbXbXbXbXbXbXB.bXbXbXbXbXbXbXbXbXbXbXbXbXbXbXbXbXbXbXbXbXbXbXbXbXbXbXbXbXbXbX",
"bXbXbXbXbXbXbXbXbXbXbXbXbXbXbXbXbXbXbXbXbXbXbXbXbXbXbX:.6XbXbXbXbXbXbXbXbXbXbXbXbXbXbXbXbXbXbXbXbXbXbXbXbXbXbXbXbXbXbXbX",
"bXbXbXbXbXbXbXbXbXbXbXbXbXbXbXbXbXbXbXbXbXbXbXbXbXbXB cXbXbXbXbXbXbXbXbXbXbXbXbXbXbXbXbXbXbXbXbXbXbXbXbXbXbXbXbXbXbXbXbX",
"bXbXbXbXbXbXbXbXbXbXbXbXbXbXbXbXbXbXbXbXbXbXbXbXbXbX;X-XbXbXbXbXbXbXbXbXbXbXbXbXbXbXbXbXbXbXbXbXbXbXbXbXbXbXbXbXbXbXbXbX",
"bXbXbXbXbXbXbXbXbXbXbXbXbXbXbXbXbXbXbXbXbXbXbXbXbXY m bXbXbXbXbXbXbXbXbXbXbXbXbXbXbXbXbXbXbXbXbXbXbXbXbXbXbXbXbXbXbXbXbX",
"bXbXbXbXbXbXbXbXbXbXbXbXbXbXbXbXbXbXbXbXbXbXbXbXbXdXbXbXbXbXbXbXbX    bXbXbXbXbXbXbXbXbXbXbXbXbXbXbXbXbXbXbXbXbXbXbXbXbX",
"bXbXbXbXbXbXbXbXbXbXbXbXbXbXbXbXbXbXbXbXbXbXbXbXK.  bXbXbXbXbXu C.OXA.bXbXbXbXbXbXbXbXbXbXbXbXbXbXbXbXbXbXbXbXbXbXbXbXbX",
"bXbXbXbXbXbXbXbXbXbXbXbXbXbXbXbXbXbXbXbXbXbXbX  gX  bXbXbXbXZ.OXOXOXbXbXbXbXbXbXbXbXbXbXbXbXbXbXbXbXbXbXbXbXbXbXbXbXbXbX",
"bXbXbXbXbXbXbXbXbXbXbXbXbXbXbXbXbXbXbXbXbXbXbXL 8XbXbXbXbXu OXOXOXJ.bXbXbXbXbXbXbXbXbXbXbXbXbXbXbXbXbXbXbXbXbXbXbXbXbXbX",
"bXbXbXbXbXbXbXbXbXbXbXbXbXbXbXbXbXbXbXbXbXbXbX4X8XbXbXbX  OXOXOXoX4 bXbXbXbXbXbXbXbXbXbXbXbXbXbXbXbXbXbXbXbXbXbXbXbXbXbX",
"bXbXbXbXbXbXbXbXbXbXbXbXbXbXbXbXbXbX  bXbXbXbX4X8XbXbXbXS.OXOXOX X2 bXbXbXbXbXbXbXbXbXbXbXbXbXbXbXbXbXbXbXbXbXbXbXbXbXbX",
"bXbXbXbXbXbXbXbXbXbXbXbXbXbXbXbXbX#.!.  bXbX  vX8XbXbXbXD.OXOXOXU.$ 8.bXbXbXbXbXbXbXbXbXbXbXbXbXbXbXbXbXbXbXbXbXbXbXbXbX",
"bXbXbXbXbXbXbXbXbXbXbXbXbXbXbXbXbXx _.~.#.1   zXvX  bX  OXOXOXG.[ # aX5X@XbXbXbXbXbXbXbXbXbXbXbXbXbXbXbXbXbXbXbXbXbXbXbX",
"bXbXbXbXbXbXbXbXbXbXbXbXbXbXbXbXbXi $._._._.Y.V.xXhXbX|.OXOXOXR.M.M.    &XyX>.bXbXbXbXbXbXbXbXbXbXbXbXbXbXbXbXbXbXbXbXbX",
"bXbXbXbXbXbXbXbXbXbXbXbXbXbXbXbXbX  F.&.^.^.=.7.qX*XOXOXOXOX}.*.M.M.g bXbXC lX,.bXbXbXbXbXbXbXbXbXbXbXbXbXbXbXbXbXbXbXbX",
"bXbXbXbXbXbXbXbXbXbXbXbXbXbXbXbXbXbXI H.- M M 3 % OXOXOXOXOX).%.M.M.M.bXbXbX%X9X<.bXbXbXbXbXbXbXbXbXbXbXbXbXbXbXbXbXbXbX",
"bXbXbXbXbXbXbXbXbXbXbXbXbXbXbXbXbXbXbXOX.X'.'.'.OXOXOXOXOX{./.q M.M.M.h bXbXbXbX=XbXbXbXbXbXbXbXbXbXbXbXbXbXbXbXbXbXbXbX",
"bXbXbXbXbXbXbXbXbXbXbXbXbXbXbXbXbXbXbXU OXOXOXOXOXOXOXOX[.Q.c r.M.M.M. .bXbXbXbXbXbXbXbXbXbXbXbXbXbXbXbXbXbXbXbXbXbXbXbX",
"bXbXbXbXbXbXbXbXbXbXbXbXbXbXbXbXbXbXbXbX+.].OXOXOXOXXX].E.v 2.M.M.M.f.O.p bXbXbXbXbXbXbXbXbXbXbXbXbXbXbXbXbXbXbXbXbXbXbX",
"bXbXbXbXbXbXbXbXbXbXbXbXbXbXbXbXbXbXbXbXbXT T.}.}.(.W.R 7 o.M.M.M.M.e.' j bXbXbXbXbXbXbXbXbXbXbXbXbXbXbXbXbXbXbXbXbXbXbX",
"bXbXbXbXbXbXbXbXbXbXbXbXbXbXbXbXbXbXbXbXbXbX  b *.@.> < Q ..u.b.x.0.' W   bXbXbXbXbXbXbXbXbXbXbXbXbXbXbXbXbXbXbXbXbXbXbX",
"bXbXbXbXbXbXbXbXbXbXbXbXbXbXbXbXbXbXbXbXbXbXbXbX6 ^ / / l ^ ^ ^ ^ ^ ! bXbXbXbXbXbXbXbXbXbXbXbXbXbXbXbXbXbXbXbXbXbXbXbXbX",
"bXbXbXbXbXbXbXbXbXbXbXbXbXbXbXbXbXbXbXbXbXbXbXbX6 _ q.m.} @ ^ ^ ^ > bXbXbXbXbXbXbXbXbXbXbXbXbXbXbXbXbXbXbXbXbXbXbXbXbXbX",
"bXbXbXbXbXbXbXbXbXbXbXbXbXbXbXbXbXbXbXbXbX. bXbX6 ` M.M.M.~ z   bXbXbXbXbXbXbXbXbXbXbXbXbXbXbXbXbXbXbXbXbXbXbXbXbXbXbXbX",
"bXbXbXbXbXbXbXbXbXbXbXbXbXbXbXbXbXbXbX    I.S   bX' M.M.M.3.k   bXbXbXbXbXbXbXbXbXbXbXbXbXbXbXbXbXbXbXbXbXbXbXbXbXbXbXbX",
"bXbXbXbXbXbXbXbXbXbXbXbXbXbXbXbXbXbXbXf 1X0XpXP.bX& g.M.M.M.4.A bXbXbXbXbXbXbXbXbXbXbXbXbXbXbXbXbXbXbXbXbXbXbXbXbXbXbXbX",
"bXbXbXbXbXbXbXbXbXbXbXbXbXbXbXbXbXbXbXy <XeXrX9.bXbXE k.M.M.M.l.h.d bXbXbX,X9 bXbXbXbXbXbXbXbXbXbXbXbXbXbXbXbXbXbXbXbXbX",
"bXbXbXbXbXbXbXbXbXbXbXbXbXbXbXbXbXbXbXV sXsXsXL.o bXO Q ;.s.d.F ) M.bXt `.:X>X$XbXbXbXbXbXbXbXbXbXbXbXbXbXbXbXbXbXbXbXbX",
"bXbXbXbXbXbXbXbXbXbXbXbXbXbXbXbXbXbXbXbXtX  2XK |     bX@ ) ( , c.M.w ; 4 8 : P 0 bXbXbXbXbXbXbXbXbXbXbXbXbXbXbXbXbXbXbX",
"bXbXbXbXbXbXbXbXbXbXbXbXbXbXbXbXbXbXbXbX5 vXJ { g n X.z z z a a.v.7XiX* e G 5.N.+ bXbXbXbXbXbXbXbXbXbXbXbXbXbXbXbXbXbXbX",
"bXbXbXbXbXbXbXbXbXbXbXbXbXbXbXbXbXbXbXbXbX+X3X-.n.w.X s s N p.M.D bXfXvXjX#XH 1.  bXbXbXbXbXbXbXbXbXbXbXbXbXbXbXbXbXbXbX",
"bXbXbXbXbXbXbXbXbXbXbXbXbXbXbXbXbXbXbXbXbXbXbX  4.M.y.j.M.M.i.] bXbXwXvXuXkXr 6.bXbXbXbXbXbXbXbXbXbXbXbXbXbXbXbXbXbXbXbX",
"bXbXbXbXbXbXbXbXbXbXbXbXbXbXbXbXbXbXbXbXbXbXbXbXbXM.M.M.t.Z bXbXbXbX            bXbXbXbXbXbXbXbXbXbXbXbXbXbXbXbXbXbXbXbX",
"bXbXbXbXbXbXbXbXbXbXbXbXbXbXbXbXbXbXbXbXbXbXbXbXbXz.z.= bXbXbXbXbXbXbXbXbXbXbXbXbXbXbXbXbXbXbXbXbXbXbXbXbXbXbXbXbXbXbXbX",
"bXbXbXbXbXbXbXbXbXbXbXbXbXbXbXbXbXbXbXbXbXbXbXbXbXbXbXbXbXbXbXbXbXbXbXbXbXbXbXbXbXbXbXbXbXbXbXbXbXbXbXbXbXbXbXbXbXbXbXbX",
"bXbXbXbXbXbXbXbXbXbXbXbXbXbXbXbXbXbXbXbXbXbXbXbXbXbXbXbXbXbXbXbXbXbXbXbXbXbXbXbXbXbXbXbXbXbXbXbXbXbXbXbXbXbXbXbXbXbXbXbX",
"bXbXbXbXbXbXbXbXbXbXbXbXbXbXbXbXbXbXbXbXbXbXbXbXbXbXbXbXbXbXbXbXbXbXbXbXbXbXbXbXbXbXbXbXbXbXbXbXbXbXbXbXbXbXbXbXbXbXbXbX",
"bXbXbXbXbXbXbXbXbXbXbXbXbXbXbXbXbXbXbXbXbXbXbXbXbXbXbXbXbXbXbXbXbXbXbXbXbXbXbXbXbXbXbXbXbXbXbXbXbXbXbXbXbXbXbXbXbXbXbXbX",
"bXbXbXbXbXbXbXbXbXbXbXbXbXbXbXbXbXbXbXbXbXbXbXbXbXbXbXbXbXbXbXbXbXbXbXbXbXbXbXbXbXbXbXbXbXbXbXbXbXbXbXbXbXbXbXbXbXbXbXbX",
"bXbXbXbXbXbXbXbXbXbXbXbXbXbXbXbXbXbXbXbXbXbXbXbXbXbXbXbXbXbXbXbXbXbXbXbXbXbXbXbXbXbXbXbXbXbXbXbXbXbXbXbXbXbXbXbXbXbXbXbX",
"bXbXbXbXbXbXbXbXbXbXbXbXbXbXbXbXbXbXbXbXbXbXbXbXbXbXbXbXbXbXbXbXbXbXbXbXbXbXbXbXbXbXbXbXbXbXbXbXbXbXbXbXbXbXbXbXbXbXbXbX",
"bXbXbXbXbXbXbXbXbXbXbXbXbXbXbXbXbXbXbXbXbXbXbXbXbXbXbXbXbXbXbXbXbXbXbXbXbXbXbXbXbXbXbXbXbXbXbXbXbXbXbXbXbXbXbXbXbXbXbXbX",
"bXbXbXbXbXbXbXbXbXbXbXbXbXbXbXbXbXbXbXbXbXbXbXbXbXbXbXbXbXbXbXbXbXbXbXbXbXbXbXbXbXbXbXbXbXbXbXbXbXbXbXbXbXbXbXbXbXbXbXbX",
"bXbXbXbXbXbXbXbXbXbXbXbXbXbXbXbXbXbXbXbXbXbXbXbXbXbXbXbXbXbXbXbXbXbXbXbXbXbXbXbXbXbXbXbXbXbXbXbXbXbXbXbXbXbXbXbXbXbXbXbX",
"bXbXbXbXbXbXbXbXbXbXbXbXbXbXbXbXbXbXbXbXbXbXbXbXbXbXbXbXbXbXbXbXbXbXbXbXbXbXbXbXbXbXbXbXbXbXbXbXbXbXbXbXbXbXbXbXbXbXbXbX",
"bXbXbXbXbXbXbXbXbXbXbXbXbXbXbXbXbXbXbXbXbXbXbXbXbXbXbXbXbXbXbXbXbXbXbXbXbXbXbXbXbXbXbXbXbXbXbXbXbXbXbXbXbXbXbXbXbXbXbXbX",
"bXbXbXbXbXbXbXbXbXbXbXbXbXbXbXbXbXbXbXbXbXbXbXbXbXbXbXbXbXbXbXbXbXbXbXbXbXbXbXbXbXbXbXbXbXbXbXbXbXbXbXbXbXbXbXbXbXbXbXbX",
"bXbXbXbXbXbXbXbXbXbXbXbXbXbXbXbXbXbXbXbXbXbXbXbXbXbXbXbXbXbXbXbXbXbXbXbXbXbXbXbXbXbXbXbXbXbXbXbXbXbXbXbXbXbXbXbXbXbXbXbX",
"bXbXbXbXbXbXbXbXbXbXbXbXbXbXbXbXbXbXbXbXbXbXbXbXbXbXbXbXbXbXbXbXbXbXbXbXbXbXbXbXbXbXbXbXbXbXbXbXbXbXbXbXbXbXbXbXbXbXbXbX",
"bXbXbXbXbXbXbXbXbXbXbXbXbXbXbXbXbXbXbXbXbXbXbXbXbXbXbXbXbXbXbXbXbXbXbXbXbXbXbXbXbXbXbXbXbXbXbXbXbXbXbXbXbXbXbXbXbXbXbXbX",
"bXbXbXbXbXbXbXbXbXbXbXbXbXbXbXbXbXbXbXbXbXbXbXbXbXbXbXbXbXbXbXbXbXbXbXbXbXbXbXbXbXbXbXbXbXbXbXbXbXbXbXbXbXbXbXbXbXbXbXbX",
"bXbXbXbXbXbXbXbXbXbXbXbXbXbXbXbXbXbXbXbXbXbXbXbXbXbXbXbXbXbXbXbXbXbXbXbXbXbXbXbXbXbXbXbXbXbXbXbXbXbXbXbXbXbXbXbXbXbXbXbX",
"bXbXbXbXbXbXbXbXbXbXbXbXbXbXbXbXbXbXbXbXbXbXbXbXbXbXbXbXbXbXbXbXbXbXbXbXbXbXbXbXbXbXbXbXbXbXbXbXbXbXbXbXbXbXbXbXbXbXbXbX",
"bXbXbXbXbXbXbXbXbXbXbXbXbXbXbXbXbXbXbXbXbXbXbXbXbXbXbXbXbXbXbXbXbXbXbXbXbXbXbXbXbXbXbXbXbXbXbXbXbXbXbXbXbXbXbXbXbXbXbXbX",
"bXbXbXbXbXbXbXbXbXbXbXbXbXbXbXbXbXbXbXbXbXbXbXbXbXbXbXbXbXbXbXbXbXbXbXbXbXbXbXbXbXbXbXbXbXbXbXbXbXbXbXbXbXbXbXbXbXbXbXbX"
};
