/* XPM */
static char * Jump_5_xpm[] = {
"50 68 167 2",
"  	c None",
". 	c #3B1C1D",
"+ 	c #602D33",
"@ 	c #34171C",
"# 	c #3C1C24",
"$ 	c #8E434D",
"% 	c #A04B56",
"& 	c #783845",
"* 	c #291514",
"= 	c #401A22",
"- 	c #6E3A32",
"; 	c #B25757",
"> 	c #C6685C",
", 	c #9A4D45",
"' 	c #604228",
") 	c #B27B4C",
"! 	c #764734",
"~ 	c #DF7C64",
"{ 	c #13090D",
"] 	c #160C12",
"^ 	c #020102",
"/ 	c #090807",
"( 	c #2F2114",
"_ 	c #9D6D43",
": 	c #C58854",
"< 	c #91643D",
"[ 	c #DC935E",
"} 	c #F09769",
"| 	c #6D4432",
"1 	c #24141C",
"2 	c #3E2231",
"3 	c #42322A",
"4 	c #BA8E75",
"5 	c #836453",
"6 	c #895E3A",
"7 	c #432433",
"8 	c #3B212C",
"9 	c #1B1312",
"0 	c #AD846D",
"a 	c #FDC19F",
"b 	c #EBB494",
"c 	c #9E7963",
"d 	c #765235",
"e 	c #6F4D2F",
"f 	c #2B1E17",
"g 	c #1A0E15",
"h 	c #1B131B",
"i 	c #00150D",
"j 	c #020C09",
"k 	c #574237",
"l 	c #C4967B",
"m 	c #055538",
"n 	c #007E4B",
"o 	c #045131",
"p 	c #614A3D",
"q 	c #002213",
"r 	c #00623A",
"s 	c #007545",
"t 	c #00301C",
"u 	c #4B392F",
"v 	c #4F3C32",
"w 	c #090506",
"x 	c #01754B",
"y 	c #015C4F",
"z 	c #015450",
"A 	c #026C4B",
"B 	c #331B23",
"C 	c #492732",
"D 	c #2C191D",
"E 	c #18090D",
"F 	c #164533",
"G 	c #103D43",
"H 	c #003C23",
"I 	c #43242E",
"J 	c #2A151B",
"K 	c #542D3A",
"L 	c #5C131F",
"M 	c #A6233A",
"N 	c #642626",
"O 	c #053426",
"P 	c #052D2C",
"Q 	c #04432A",
"R 	c #701726",
"S 	c #C92B44",
"T 	c #C32943",
"U 	c #641924",
"V 	c #014E2E",
"W 	c #006C43",
"X 	c #004226",
"Y 	c #000B06",
"Z 	c #3A1F2B",
"` 	c #B52547",
" .	c #941A4D",
"..	c #560D30",
"+.	c #02544E",
"@.	c #00693E",
"#.	c #002C1A",
"$.	c #5B303D",
"%.	c #592F3C",
"&.	c #291724",
"*.	c #0C050A",
"=.	c #270A0C",
"-.	c #841C2D",
";.	c #9E1D4B",
">.	c #8C174F",
",.	c #380C28",
"'.	c #10262B",
").	c #094B48",
"!.	c #0A442C",
"~.	c #362622",
"{.	c #2D1A23",
"].	c #250C13",
"^.	c #82174E",
"/.	c #6E174D",
"(.	c #4C1136",
"_.	c #1B0E19",
":.	c #004033",
"<.	c #0A2C1D",
"[.	c #4F2A38",
"}.	c #4B2836",
"|.	c #53121D",
"1.	c #130509",
"2.	c #0D0A0C",
"3.	c #541520",
"4.	c #512B36",
"5.	c #341C2C",
"6.	c #2D1929",
"7.	c #241421",
"8.	c #221316",
"9.	c #BF9278",
"0.	c #442E2C",
"a.	c #171729",
"b.	c #2E231D",
"c.	c #765A4B",
"d.	c #FFC3A1",
"e.	c #F5BB9A",
"f.	c #092427",
"g.	c #0B1917",
"h.	c #192F3A",
"i.	c #113837",
"j.	c #0F1D24",
"k.	c #8A3C27",
"l.	c #562413",
"m.	c #8D6E5E",
"n.	c #817A79",
"o.	c #423939",
"p.	c #381717",
"q.	c #B66B5A",
"r.	c #D27C5D",
"s.	c #B58A72",
"t.	c #6A1632",
"u.	c #982148",
"v.	c #A82F5C",
"w.	c #A9524C",
"x.	c #E08776",
"y.	c #4D1D25",
"z.	c #290F13",
"A.	c #87193D",
"B.	c #90332D",
"C.	c #A7463F",
"D.	c #B75648",
"E.	c #491A19",
"F.	c #7F1B43",
"G.	c #380E1D",
"H.	c #A94D44",
"I.	c #561D21",
"J.	c #521E1E",
"                                                                                                    ",
"                                                                                                    ",
"                                                                                                    ",
"                                                                                                    ",
"                                                                                                    ",
"                                                                                                    ",
"                                                                                                    ",
"                                                                                                    ",
"                                                                                                    ",
"                                                                                                    ",
"                                  . + @                                                             ",
"                                # $ % & *                                                           ",
"                              = - - ; > , *                                                         ",
"                              ' ) ) ! > ~ , .       { ]                                             ",
"                        ^   / ( ( _ : < [ } |       1 2 1                                           ",
"                      3 4 5 5 4 ( / _ : 6 <         1 7 8 1                                         ",
"                    9 0 0 5 a b c d e e f         g h i j j                                         ",
"                    k 4 c 0 l 3     ^ ^           i m n n n o                                       ",
"                    5 5 p c 3                   q r n n n n s t                                     ",
"                    5 u v 5                   q r n n n n n n r q                                   ",
"                    ^ / ^ w                   q r n n x y z A r q                                   ",
"                    B C D 8 E               w * o n n n A F G m H       ]                           ",
"                    D I J K I 9             L M N o n n n x O P Q j   ] D /                         ",
"                    B 8 J C K I {           R S T U V n n n W H X Y   8 Z w                         ",
"                    B 8 J C 2 7 K D       L S `  ...P +.x n n @.#./ B $.K 1                         ",
"                  E Z B B %.C &.&.*.^   =.-.S ;.>.>.,.'.).A n s !.~.$.$.K 1                         ",
"                  D C 1 C %.K {.*.g B ].L -.` >.^./.(._.'.).:.<.8 %.%.$.[.1                         ",
"                  J C 1 C $.}.&.1 J *.@ |.U 1.1.*.*.,._.2.j {.[.%.%.%.%.}.1                         ",
"                  J C 1 C %.Z *.w D $.$.I 3.|.{.K %.{.w 1 K $.$.$.$.%.K 7 1                         ",
"                  J Z g C 4.{.&.4.%.$.$.%.B ] _.Z [.[.%.%.%.$.$.$.$.%.}.Z _.                        ",
"                  J 2 g C C g Z %.%.$.$.%.K 5._._.5.(.C }.}.}.[.$.$.[.7 6.]                         ",
"                  D 8 _.C 7 ] B %.%.$.$.K 7 5.7.w ] 6.6.6.2 2 2 2 }.7 2 7.w                         ",
"                  J J E C I _._.7 K }.7 2 5.&.7.*.  ^ ^ *.7.5.7 2 2 2 6.h j                         ",
"                  3 3 8.C C &._.&.5.5.7._._._.]           2.7.5.2 2 6.h Q X                         ",
"                v l 9.0.C [.2 6.&.h 2.w                     *.a.8 5.h X s @.#.                      ",
"            ^ b.l a 5 E C $.}.6._.*.                        ^ h 6.h P A n n H                       ",
"          c.d.d.e.5 2./ { C 7 7.*.                          / _._.f.z y W X                         ",
"          c.d.d.0 9 2.g.2.^ ^ ^                               ^ g.h.G i.f /                         ",
"          c.d.d.0 9 2.V Q Y                                   ^ j.h.'.* k.l.                        ",
"          c.m.n.o.J 9 F & M   a.                              / g.j.^ p.q.r.l.                      ",
"          c.b s.~.J ].t.u.v.                                    j 2.  . w.x.r.l.                    ",
"          v u 1.* y.z.t.;.A.                                    *.j     B.C.D.D.|                   ",
"          1.z.@ # N E.(.F.G.                                                  H., N                 ",
"          p.N = I.J.].y.J.1.                                                                        ",
"            ^ ^ ^ { # l.=.                                                                          ",
"                ^ ^ ^ ^                                                                             ",
"                                                                                                    ",
"                                                                                                    ",
"                                                                                                    ",
"                                                                                                    ",
"                                                                                                    ",
"                                                                                                    ",
"                                                                                                    ",
"                                                                                                    ",
"                                                                                                    ",
"                                                                                                    ",
"                                                                                                    ",
"                                                                                                    ",
"                                                                                                    ",
"                                                                                                    ",
"                                                                                                    ",
"                                                                                                    ",
"                                                                                                    ",
"                                                                                                    ",
"                                                                                                    ",
"                                                                                                    ",
"                                                                                                    ",
"                                                                                                    "};
