/* XPM */
static char * Jump_9_xpm[] = {
"50 53 172 2",
"  	c None",
". 	c #2E100E",
"+ 	c #3C171B",
"@ 	c #1B0D12",
"# 	c #010001",
"$ 	c #682626",
"% 	c #3B1C24",
"& 	c #2C0C0E",
"* 	c #3D191F",
"= 	c #481922",
"- 	c #57201E",
"; 	c #18060C",
"> 	c #59152E",
", 	c #8D1F46",
"' 	c #340E26",
") 	c #42251B",
"! 	c #351917",
"~ 	c #240C19",
"{ 	c #5E0F2E",
"] 	c #931D43",
"^ 	c #480D24",
"/ 	c #461A1D",
"( 	c #241414",
"_ 	c #4A382F",
": 	c #C93966",
"< 	c #992448",
"[ 	c #A42046",
"} 	c #2D1515",
"| 	c #6C5244",
"1 	c #D6A487",
"2 	c #AD846C",
"3 	c #151524",
"4 	c #47454A",
"5 	c #033A23",
"6 	c #1D1312",
"7 	c #726B69",
"8 	c #897972",
"9 	c #94705D",
"0 	c #041911",
"a 	c #006038",
"b 	c #033721",
"c 	c #120A0C",
"d 	c #554136",
"e 	c #FFC3A1",
"f 	c #B78B73",
"g 	c #0C1413",
"h 	c #0C0609",
"i 	c #43332A",
"j 	c #EBB394",
"k 	c #E4AE90",
"l 	c #684F41",
"m 	c #090406",
"n 	c #2E1A1E",
"o 	c #542C39",
"p 	c #4A2735",
"q 	c #644339",
"r 	c #BB8F76",
"s 	c #4D2935",
"t 	c #5B303D",
"u 	c #29161E",
"v 	c #190D0D",
"w 	c #341C25",
"x 	c #502A35",
"y 	c #2D1821",
"z 	c #22121B",
"A 	c #3A1F28",
"B 	c #5A2F3C",
"C 	c #160C14",
"D 	c #291624",
"E 	c #1A0E18",
"F 	c #442431",
"G 	c #583C34",
"H 	c #44252D",
"I 	c #1F111B",
"J 	c #49372E",
"K 	c #9D7863",
"L 	c #795749",
"M 	c #3F2231",
"N 	c #382B24",
"O 	c #321B2B",
"P 	c #281A28",
"Q 	c #8C6653",
"R 	c #392718",
"S 	c #241422",
"T 	c #050906",
"U 	c #704D30",
"V 	c #251812",
"W 	c #3B0F19",
"X 	c #572826",
"Y 	c #C47756",
"Z 	c #CF8F58",
"` 	c #9E6D43",
" .	c #2C0E28",
"..	c #6E1548",
"+.	c #A41F48",
"@.	c #B6263D",
"#.	c #8C1D2F",
"$.	c #1D140C",
"%.	c #5D164B",
"&.	c #781645",
"*.	c #511231",
"=.	c #020C0A",
"-.	c #B9595B",
";.	c #D87264",
">.	c #F39D6A",
",.	c #FFB06D",
"'.	c #C38653",
").	c #13111A",
"!.	c #022C23",
"~.	c #004C2E",
"{.	c #007E4B",
"].	c #002414",
"^.	c #4B2425",
"/.	c #A44D57",
"(.	c #E58566",
"_.	c #BC7B51",
":.	c #005B51",
"<.	c #102C2E",
"[.	c #13242A",
"}.	c #0B1419",
"|.	c #00644D",
"1.	c #080F14",
"2.	c #0B4647",
"3.	c #006D4D",
"4.	c #007043",
"5.	c #0B0B0E",
"6.	c #123C43",
"7.	c #082728",
"8.	c #0D1D23",
"9.	c #08494A",
"0.	c #005652",
"a.	c #00724D",
"b.	c #122126",
"c.	c #00514D",
"d.	c #053D3D",
"e.	c #074B4B",
"f.	c #173640",
"g.	c #16333D",
"h.	c #001514",
"i.	c #004641",
"j.	c #005431",
"k.	c #0F3F45",
"l.	c #152731",
"m.	c #131616",
"n.	c #AD5650",
"o.	c #006147",
"p.	c #D09F84",
"q.	c #B76B5B",
"r.	c #693731",
"s.	c #2D2F2C",
"t.	c #003931",
"u.	c #004131",
"v.	c #172B34",
"w.	c #AA6659",
"x.	c #944943",
"y.	c #111A1D",
"z.	c #66322E",
"A.	c #793C37",
"B.	c #5A4438",
"C.	c #8B6957",
"D.	c #825947",
"E.	c #D46E51",
"F.	c #8D3D22",
"G.	c #533D2C",
"H.	c #E2A182",
"I.	c #A0593E",
"J.	c #39180C",
"K.	c #8A4F42",
"L.	c #481D0F",
"M.	c #84342C",
"N.	c #A24C42",
"O.	c #9C4338",
"                                                                                                    ",
"                                                                                                    ",
"                                                                                                    ",
"                                                                                                    ",
"                                                                                                    ",
"                                                                                                    ",
"                                                                                                    ",
"                                                                                                    ",
"                                                                                                    ",
"                                                                                                    ",
"                                                                                                    ",
"                                                                                                    ",
"                                                                                                    ",
"                                                                                                    ",
"                                                          . + @ # # #                               ",
"                                                        . $ % & $ * = - #                           ",
"                                                      ; > , ' > ) * ! ~ #                           ",
"                                                      { ] , ^ / * @ ( _ #                           ",
"                                                      : < [ ^ } @ | 1 2 #                           ",
"                                                    3   < 4 5 . 6 7 8 9 #                           ",
"                                                        0 a b c d e e f #                           ",
"                                                          g g c d e e f #                           ",
"                                                            h i j e e f #                           ",
"                                                        @ c i 1 k l #                               ",
"                                                    m n o p q r |                                   ",
"                                                  6 s o t t s n                                     ",
"                                                ( o t o n u s @                                     ",
"                                            v w x t o y z s s @                                     ",
"                                        h A s t t o y z p B p C                                     ",
"                                    m n t t B B o D E p t t F c                                     ",
"                                _ G H t B B o p D ~ p B t s I                                       ",
"                            J K L _ z B B s M I E F B B B w c                                       ",
"                          N 1 K N o A z M O E C P O s B w #                                         ",
"                          _ 2 Q R H w E S E m h E ~ u D C                                           ",
"                        T R c R U V u D C E P E ; { W m                                             ",
"                        X Y Z Z Z ` 6 D S z h  ...+.@.#.&                                           ",
"                        m v $.$.V v h D z ~ %...&.*.=.=.=.=.                                        ",
"                      @ X -.;.>.,.'.( z ). .^ 3 !.~.{.{.{.a ].                                      ",
"                    c I ^./.-.;.(._.v b :.<.[.}.!.|.{.{.{.{.a ].                                    ",
"                  c N I # # # # # # 1.2.3.{.{.{.a ].3.{.{.{.4.].                                    ",
"                  m c c @ 5.[.6.7.}.8.9.0.:.a.a.{.{.{.{.{.{.{.a =.                                  ",
"                  # h C 5.b.2.0.c.d.9.0.0.0.0.0.|.a.{.{.{.{.{.4.5                                   ",
"                  m C ; 1.d.e.f.g.f.<.=.=.=.=.h.i.0.:.:.3.{.{.{.j.#                                 ",
"                    h T [.k.g.l.}.m 5.}.m.G ;.n.! # # # h.i.o.{.j.#                                 ",
"                      T [.[.}.5.8.[.[.1.w p.q.)         ! r.s.t.u.#                                 ",
"                      T g 1.g b.v.}.=.$.Q w.}           ^.x.(   =.#                                 ",
"                      # 5.y.v.8.#     ( z.}             ) A.                                        ",
"                        # # #         q q             ! A.#                                         ",
"                                    _ L !             X X                                           ",
"                                    B.C.              z.}                                           ",
"                                  ) Y D.            r.E.F.#                                         ",
"                                  G.H.I.J.          K.H.Y L.                                        ",
"                                  M.N.O.M.            N.q.H.|                                       "};
