/* XPM */
static char * Run_4_xpm[] = {
"50 53 169 2",
"  	c None",
". 	c #010101",
"+ 	c #2A0E0D",
"@ 	c #5D2324",
"# 	c #32161B",
"$ 	c #12070B",
"% 	c #250D0D",
"& 	c #5E1F27",
"* 	c #4A1D23",
"= 	c #521E1D",
"- 	c #431A23",
"; 	c #552022",
"> 	c #410E21",
", 	c #871A47",
"' 	c #420F32",
") 	c #411715",
"! 	c #3B181F",
"~ 	c #2B161D",
"{ 	c #230E12",
"] 	c #0B0606",
"^ 	c #922048",
"/ 	c #6F182E",
"( 	c #5A4438",
"_ 	c #3A2B24",
": 	c #AE315D",
"< 	c #9D2248",
"[ 	c #5C1433",
"} 	c #1A0D14",
"| 	c #4D3B30",
"1 	c #F7BF9F",
"2 	c #DAA689",
"3 	c #19192C",
"4 	c #742131",
"5 	c #4B4444",
"6 	c #064E31",
"7 	c #140B0D",
"8 	c #2C191C",
"9 	c #7A665D",
"0 	c #B59E93",
"a 	c #9C7762",
"b 	c #033927",
"c 	c #004C2D",
"d 	c #342521",
"e 	c #D7A487",
"f 	c #FFC3A1",
"g 	c #E1AB8D",
"h 	c #33241E",
"i 	c #BF9278",
"j 	c #EAB393",
"k 	c #AD846D",
"l 	c #47362D",
"m 	c #2D1825",
"n 	c #241313",
"o 	c #785C4B",
"p 	c #816252",
"q 	c #492733",
"r 	c #4C2835",
"s 	c #5B303D",
"t 	c #592F3C",
"u 	c #3C2427",
"v 	c #2D231D",
"w 	c #542C3A",
"x 	c #301A22",
"y 	c #23131C",
"z 	c #40222B",
"A 	c #4F2A38",
"B 	c #3C202C",
"C 	c #2C1828",
"D 	c #6F5546",
"E 	c #8E6B59",
"F 	c #3D2130",
"G 	c #341C2C",
"H 	c #241422",
"I 	c #130B13",
"J 	c #1C0C19",
"K 	c #1E1014",
"L 	c #422433",
"M 	c #3A1F2D",
"N 	c #291726",
"O 	c #3A1F27",
"P 	c #A57E68",
"Q 	c #5F493C",
"R 	c #0C0A0C",
"S 	c #573A2A",
"T 	c #9E4E49",
"U 	c #372717",
"V 	c #684733",
"W 	c #795434",
"X 	c #2F2114",
"Y 	c #48372D",
"Z 	c #0A060A",
"` 	c #7F5836",
" .	c #66372A",
"..	c #533C32",
"+.	c #C19379",
"@.	c #43281D",
"#.	c #BF8451",
"$.	c #B6744E",
"%.	c #F9A76B",
"&.	c #D97462",
"*.	c #B75D57",
"=.	c #8E424C",
"-.	c #160909",
";.	c #925840",
">.	c #7B3C3B",
",.	c #652F36",
"'.	c #5A2C2B",
").	c #290A1B",
"!.	c #3C0A1D",
"~.	c #8B1B38",
"{.	c #3B0C14",
"].	c #390820",
"^.	c #92194D",
"/.	c #69174D",
"(.	c #811A2E",
"_.	c #581648",
":.	c #18261C",
"<.	c #2D0F2A",
"[.	c #010C07",
"}.	c #00664E",
"|.	c #007847",
"1.	c #0C2629",
"2.	c #04514D",
"3.	c #006B4E",
"4.	c #007C4B",
"5.	c #007545",
"6.	c #00331E",
"7.	c #0D1517",
"8.	c #142329",
"9.	c #0B4649",
"0.	c #005C51",
"a.	c #111B20",
"b.	c #1A323E",
"c.	c #005751",
"d.	c #00633A",
"e.	c #002C19",
"f.	c #00724C",
"g.	c #004428",
"h.	c #713835",
"i.	c #0E3339",
"j.	c #005934",
"k.	c #C17F6C",
"l.	c #A5534C",
"m.	c #522926",
"n.	c #1E111C",
"o.	c #004845",
"p.	c #EFA98D",
"q.	c #A7604D",
"r.	c #D2836E",
"s.	c #803528",
"t.	c #001D12",
"u.	c #A04039",
"v.	c #BD5547",
"w.	c #CB645D",
"x.	c #63312D",
"y.	c #9B583E",
"z.	c #7D3828",
"A.	c #B47F6B",
"B.	c #692B27",
"C.	c #31160B",
"D.	c #6F311B",
"E.	c #3F3028",
"F.	c #CA8B6E",
"G.	c #90482E",
"H.	c #220E07",
"I.	c #EFA886",
"J.	c #9B453B",
"K.	c #A84D43",
"L.	c #7A2E28",
"                                                                                                    ",
"                                                                                                    ",
"                                                                                                    ",
"                                                                                                    ",
"                                                                                                    ",
"                                                                                                    ",
"                                                                                                    ",
"                                                            . . . .                                 ",
"                                                          + @ # $ . . .                             ",
"                                                        % & * + = * - ; +                           ",
"                                                        > , ' ) @ ! ~ { ]                           ",
"                                                        , ^ / { - { ] ( _                           ",
"                                                        : < [ } { | 1 2 |                           ",
"                                                    3   4 5 6 7 8 9 0 a |                           ",
"                                                        ] b c ] d e f g |                           ",
"                                                          ] 7 ] h e f g |                           ",
"                                                            ] _ i j i k l                           ",
"                                            $ ~ 8 8 8 8 8 m n o j p                                 ",
"                                      . n q r s s s s s s s t u v                                   ",
"                                  ] } r s t t t t w s s s s s x                                     ",
"                              $ y z s w A r B C y m r s s s s 8                                     ",
"                          ] D E u s r r F G H I J J ~ s s s s m                                     ",
"                      . l f g _ . K L M N H I N L w s s s s O .                                     ",
"                      P f 2 ( 7 7 } N N H J N r w t s s s r ~ .                                     ",
"                      Q j a     7 7 J H I H F t t t s s A G R                                       ",
"                    S T U V W     . I I H C F r t t t A O 3 .                                       ",
"                  $ U U X X n 7 D 2 Y Z N N N C F L F M C R                                         ",
"                  X ` ` ` `  ...+.... . I I I I I I J N J                                           ",
"                  @.#.#.$.T W ~ h   $ O M G m y J H J Z .                                           ",
"                  ( %.%.&.*.=.#     -.q s t q L G N N I                                             ",
"                  U ;.^ >.,.'.}     } r s s s w L G H ).!.                                          ",
"                                    7 r s s s t A F y > ~.{.                                        ",
"                                    7 r s s s A L G y ].^.~.-.                                      ",
"                                    7 r s s s w L N J /.^., {.                                      ",
"                                    ~ w s s w r B m )./., ^.(..                                     ",
"                                    O s s s w L M y J _._.).:.b                                     ",
"                                    O s s s w L G H } <.[.}.|.c                                     ",
"                                    B s s w q F G J R 1.2.3.4.5.6.                                  ",
"                                    O s t A L F N R 7.8.9.0.4.5.6.                                  ",
"                                    O s t r F F H I a.b.9.0.4.5.6.                                  ",
"                                      B r L G C N I a.9.c.}.4.d.e.                                  ",
"                                      R N M C N N 7.1.2.0.f.4.g.                                    ",
"                                      - h.J N N H I i.c.3.4.j.[.                                    ",
"                                v 8 S k.l.m.Z n.J 7.o.c.f.f.c                                       ",
"                              *.p.q. .'.        . [.b f.4.d.[.                                      ",
"                              r.&.s.+               [.t.e.t.                                        ",
"                            u.v.s.                  m.w.x.                                          ",
"                            y.z.                  _ A.'.                                            ",
"                            B.                    l E .                                             ",
"                                                  C.D..                                             ",
"                                                  E.F.G.H.                                          ",
"                                                  E.2 I.l.V                                         ",
"                                                  s.J.K.K.s.L.                                      "};
