/* XPM */
static char *result[] = {
/* columns rows colors chars-per-pixel */
"60 60 177 2 ",
"   c black",
".  c #010001",
"X  c #010101",
"o  c #030101",
"O  c #060304",
"+  c #070304",
"@  c #0C0204",
"#  c #090506",
"$  c #0B0506",
"%  c #090509",
"&  c #0A060A",
"*  c #0D0708",
"=  c #000F09",
"-  c #0F0B09",
";  c #0F080E",
":  c #080C0F",
">  c #0A0E0F",
",  c #120908",
"<  c #14090A",
"1  c #10090C",
"2  c #10090F",
"3  c #1A0E09",
"4  c #01130C",
"5  c #100A10",
"6  c #110A11",
"7  c #120A10",
"8  c #160C15",
"9  c #170C15",
"0  c #190E10",
"q  c #1B0E11",
"w  c #1B0F11",
"e  c #180D13",
"r  c #180E17",
"t  c #190E18",
"y  c #1C0E18",
"u  c #1C0F1B",
"i  c #1E1013",
"p  c #1C1612",
"a  c #1E1613",
"s  c #1E1017",
"d  c #1F1814",
"f  c #1E111D",
"g  c #31140A",
"h  c #21081C",
"j  c #37091D",
"k  c #221110",
"l  c #211116",
"z  c #221216",
"x  c #231217",
"c  c #221A16",
"v  c #21121F",
"b  c #341417",
"n  c #3F1917",
"m  c #33161C",
"M  c #38161D",
"N  c #00231E",
"B  c #002C1A",
"V  c #2B221B",
"C  c #2E241D",
"Z  c #0E1B21",
"A  c #0F1C22",
"S  c #221320",
"D  c #241422",
"F  c #251523",
"G  c #281626",
"H  c #291727",
"J  c #2A1727",
"K  c #2B1828",
"L  c #2E1A29",
"P  c #331B22",
"I  c #301B2A",
"U  c #321B2B",
"Y  c #341D29",
"T  c #331C2C",
"R  c #351D2D",
"E  c #381E2A",
"W  c #152228",
"Q  c #12282D",
"!  c #00302E",
"~  c #003735",
"^  c #003B39",
"/  c #053C3A",
"(  c #12363C",
")  c #382B24",
"_  c #3B2C24",
"`  c #3E2129",
"'  c #3F222A",
"]  c #3A202F",
"[  c #3E2231",
"{  c #3F2231",
"}  c #41201D",
"|  c #522112",
" . c #60231F",
".. c #411522",
"X. c #401A22",
"o. c #461C23",
"O. c #4F163D",
"+. c #6C1724",
"@. c #432721",
"#. c #40212B",
"$. c #42222C",
"%. c #562122",
"&. c #503722",
"*. c #412433",
"=. c #432433",
"-. c #442534",
";. c #482735",
":. c #492736",
">. c #4A2836",
",. c #4B2836",
"<. c #4C2937",
"1. c #4D2937",
"2. c #4E2A37",
"3. c #502A35",
"4. c #502B39",
"5. c #532C3A",
"6. c #542C3A",
"7. c #562D3B",
"8. c #582E3B",
"9. c #592F3C",
"0. c #5B303D",
"q. c #792C28",
"w. c #763A36",
"e. c #004429",
"r. c #00663C",
"t. c #564236",
"y. c #594438",
"u. c #5F493C",
"i. c #62442A",
"p. c #103F45",
"a. c #5A174C",
"s. c #523948",
"d. c #004542",
"f. c #0B4446",
"g. c #005652",
"h. c #005D50",
"j. c #006C4E",
"k. c #007646",
"l. c #00734C",
"z. c #007E4B",
"x. c #90342F",
"c. c #90352F",
"v. c #A32237",
"b. c #8B5B3C",
"n. c #A34833",
"m. c #8F633D",
"M. c #8C1F48",
"N. c #91184E",
"B. c #971A4C",
"V. c #8E2043",
"C. c #A72148",
"Z. c #A04D43",
"A. c #A24C57",
"S. c #BA5C55",
"D. c #AD754A",
"F. c #AF794A",
"G. c #BE6259",
"H. c #BF6558",
"J. c #9F7964",
"K. c #D16761",
"L. c #C47864",
"P. c #AF866E",
"I. c #B48971",
"U. c #D3915A",
"Y. c #C3957B",
"T. c #DA927A",
"R. c #EF9568",
"E. c #E28672",
"W. c #E89673",
"Q. c #EA9C79",
"!. c #EC9F7B",
"~. c #C49E8A",
"^. c #E6AF91",
"/. c #E9B293",
"(. c #FCC09F",
"). c #FFC3A1",
"_. c None",
/* pixels */
"_._._._._._._._._._._._._._._._._._._._._._._._._._._._._._._._._._._._._._._._._._._._._._._._._._._._._._._._._._._._.",
"_._._._._._._._._._._._._._._._._._._._._._._._._._._._._._._._._._._._._._._._._._._._._._._._._._._._._._._._._._._._.",
"_._._._._._._._._._._._._._._._._._._._._._._._._._._._._._._._._._._._._._._._._._._._._._._._._._._._._._._._._._._._.",
"_._._._._._._._._._._._._._._._._._._._._._._._._._._._._._._._._._._._._._._._._._._._._._._._._._._._._._._._._._._._.",
"_._._._._._._._._._._._._._._._._._._._._._._._._._._._._._._._._._._._._._._._._._._._._._._._._._._._._._._._._._._._.",
"_._._._._._._._._._._._._._._._._._._._._._._._._._._._._._._._._._._._._._._._._._._._._._._._._._._._._._._._._._._._.",
"_._._._._._._._._._._._._._._._._._._._._._._._._._._._._._._._._._._._._._._._._._._._._._._._._._._._._._._._._._._._.",
"_._._._._._._._._._._._._._._._._._._._._._._._._._._._._._._._._._._._._._._._._._._._._._._._._._._._._._._._._._._._.",
"_._._._._._._._._._._._._._._._._._._._._._._._._._._._._._._._._._._._._._._._._._._._._._._._._._._._._._._._._._._._.",
"_._._._._._._._._._._._._._._._._._._._._._._._._._._._._._._._._._._._._._._._._._._._._._._._._._._._._._._._._._._._.",
"_._._._._._._._._._._._._._._._._._._._._._._._._._._._._._._._._._._._._._._._._._._._._._._._._._._._._._._._._._._._.",
"_._._._._._._._._._._._._._._._._._._._._._._._._._._._._._._._._._._._._._._._._._._._._._._._._._._._._._._._._._._._.",
"_._._._._._._._._._._._._._._._._._._._._._._._._._._._._._._._._._._._._._._._._._._._._._._._._._._._._._._._._._._._.",
"_._._._._._._._._._._._._._._._._._._._._._._._._._._._._._._._._._._._._._._._._._._._._._._._._._._._._._._._._._._._.",
"_._._._._._._._._._._._._._._._._._._._._._._._._._._._._._._._._._._._._._._._._._._._._._._._._._._._._._._._._._._._.",
"_._._._._._._._._._._._._._._._._._._._._._._._._._._._._._._._._._._._._._._._._._._._._._._._._._._._._._._._._._._._.",
"_._._._._._._._._._._._._._._._._._._._._._._._._._._._._._._._._._._._._._._._._._._._._._._._._._._._._._._._._._._._.",
"_._._._._._._._._._._._._._._._._._._._._._._._._._._._._._._._._._._._._._._._._._._._._._._._._._._._._._._._._._._._.",
"_._._._._._._._._._._._._._._._._._._._._._._._._._._._._._._._._._._._._._._._._._._._._._._._._._._._._._._._._._._._.",
"_._._._._._._._._._._._._._._._._._._._._._._._._._._._._._._._._._._._._._._._._._._._._._._._._._._._._._._._._._._._.",
"_._._._._._._._._._._._._._._._._._._._._._._._._._._._._._._._._._._._._._._._._._._._._._._._._._._._._._._._._._._._.",
"_._._._._._._._._._._._._._._._._._._._._._._._._._.q.M       _._._._._._._._._._._._._._._._._._._._._._._._._._._._._.",
"_._._._._._._._._._._._._._._._._._._._._._._._._...O. .o.X.b _._._._._._._._._._._._._._._._._._._._._._._._._._._._._.",
"_._._._._._._._._._._._._._._._._._._._._._._._._.C.V.%.m * y._._._._._._._._._._._._._._._._._._._._._._._._._._._._._.",
"_._._._._._._._._._._._._._._._._._._._._._._._._.M.s.M # ~.J._._._._._._._._._._._._._._._._._._._._._._._._._._._._._.",
"_._._._._._._._._._._._._._._._._._._._._._._._._.4 k.q P.).J._._._._._._._._._._._._._._._._._._._._._._._._._._._._._.",
"_._._._._._._._._._._._._._._._._._._._._._._._._._.w 0 I.).J._._._._._._._._._._._._._._._._._._._._._._._._._._._._._.",
"_._._._._._._._._._._._._._._._._._._._._.            Y.).d p _._._._._._._._._._._._._._._._._._._._._._._._._._._._._.",
"_._._._._._._._._._._._._._._._._._.  ` #.0.0.0.0.0.' /.C _._._._._._._._._._._._._._._._._._._._._._._._._._._._._._._.",
"_._._._._._._._._._._._._._._._.  P 0.8.<.<.<.0.0.0.8.O _._._._._._._._._._._._._._._._._._._._._._._._._._._._._._._._.",
"_._._._._._._._._._._._._._._.u.3.0.,.R r X ; E 0.0.2.+ _._._._._._._._._._._._._._._._._._._._._._._._._._._._._._._._.",
"_._._._._._._._._._._._._.t.(.a . >.R u G & [ 0.0.7.  _._._._._._._._._._._._._._._._._._._._._._._._._._._._._._._._._.",
"_._._._._._._._._._._._.y.).    i 9 t H D F 5.0.0.Y _._._._._._._._._._._._._._._._._._._._._._._._._._._._._._._._._._.",
"_._._._._._._._._._._._.S.d U._.o 9 2 S F 6.0.0.0.Y _._._._._._._._._._._._._._._._._._._._._._._._._._._._._._._._._._.",
"_._._._._._._._._._._.i.F.F.D., ^.c 8 f J ;.0.4.{ v _._._._._._._._._._._._._._._._._._._._._._._._._._._._._._._._._._.",
"_._._._._._._._._._._.&.m.b.w.$ )   t 8 H U T T H 2 _._._._._._._._._._._._._._._._._._._._._._._._._._._._._._._._._._.",
"_._._._._._._._._._._.m.R.K.A.< _._.t O l e 7 ; % _._._._._._._._._._._._._._._._._._._._._._._._._._._._._._._._._._._.",
"_._._._._._._._._._._.          _._._.x 0.0.=.K H   _._._._._._._._._._._._._._._._._._._._._._._._._._._._._._._._._._.",
"_._._._._._._._._._._._._._._._._._._.0.0.0.0.T y @ _._._._._._._._._._._._._._._._._._._._._._._._._._._._._._._._._._.",
"_._._._._._._._._._._._._._._._._._._.0.0.0.0.T j v._._._._._._._._._._._._._._._._._._._._._._._._._._._._._._._._._._.",
"_._._._._._._._._._._._._._._._._._.z 0.0.0.1.T h B.  _._._._._._._._._._._._._._._._._._._._._._._._._._._._._._._._._.",
"_._._._._._._._._._._._._._._._._._.$.0.0.0.:.6 a.N.+._._._._._._._._._._._._._._._._._._._._._._._._._._._._._._._._._.",
"_._._._._._._._._._._._._._._._._.  0.0.0.0.] 6 : N B _._._._._._._._._._._._._._._._._._._._._._._._._._._._._._._._._.",
"_._._._._._._._._._._._._._._._._.  0.0.0.-.I 6 W h.z.= _._._._._._._._._._._._._._._._._._._._._._._._._._._._._._._._.",
"_._._._._._._._._._._._._._._._._.  9.0.9.*.H > p.h.z.= _._._._._._._._._._._._._._._._._._._._._._._._._._._._._._._._.",
"_._._._._._._._._._._._._._._._._._.s 0.-.L H > p.h.z.= _._._._._._._._._._._._._._._._._._._._._._._._._._._._._._._._.",
"_._._._._._._._._._._._._._._._._.  / 1 L H H A g.z.k._._._._._._._._._._._._._._._._._._._._._._._._._._._._._._._._._.",
"_._._._._._._._._._._._._._._._._.  ~ f.Z 5 6 ! l.z.  _._._._._._._._._._._._._._._._._._._._._._._._._._._._._._._._._.",
"_._._._._._._._._._._._._._._._._.H.Z.^ g.Q ( j.z.e._._._._._._._._._._._._._._._._._._._._._._._._._._._._._._._._._._.",
"_._._._._._._._._._._._._._._._.x.E.n.    k d.r.r.  _._._._._._._._._._._._._._._._._._._._._._._._._._._._._._._._._._.",
"_._._._._._._._._._._._._._._._.T.| _._._.G.} _._._._._._._._._._._._._._._._._._._._._._._._._._._._._._._._._._._._._.",
"_._._._._._._._._._._._._._._._.n _._._.- _ _._._._._._._._._._._._._._._._._._._._._._._._._._._._._._._._._._._._._._.",
"_._._._._._._._._._._._._._._._._._._.V Q.3 _._._._._._._._._._._._._._._._._._._._._._._._._._._._._._._._._._._._._._.",
"_._._._._._._._._._._._._._._._._._._.@.L.W.g _._._._._._._._._._._._._._._._._._._._._._._._._._._._._._._._._._._._._.",
"_._._._._._._._._._._._._._._._._._._._._.c.!._._._._._._._._._._._._._._._._._._._._._._._._._._._._._._._._._._._._._.",
"_._._._._._._._._._._._._._._._._._._._._._._._._._._._._._._._._._._._._._._._._._._._._._._._._._._._._._._._._._._._.",
"_._._._._._._._._._._._._._._._._._._._._._._._._._._._._._._._._._._._._._._._._._._._._._._._._._._._._._._._._._._._.",
"_._._._._._._._._._._._._._._._._._._._._._._._._._._._._._._._._._._._._._._._._._._._._._._._._._._._._._._._._._._._.",
"_._._._._._._._._._._._._._._._._._._._._._._._._._._._._._._._._._._._._._._._._._._._._._._._._._._._._._._._._._._._.",
"_._._._._._._._._._._._._._._._._._._._._._._._._._._._._._._._._._._._._._._._._._._._._._._._._._._._._._._._._._._._."
};
