/* XPM */
static char * Run_5_xpm[] = {
"50 50 158 2",
"  	c None",
". 	c #010101",
"+ 	c #321213",
"@ 	c #572020",
"# 	c #3B181F",
"$ 	c #2A1314",
"% 	c #1B0B0C",
"& 	c #140A0D",
"* 	c #220B0D",
"= 	c #58182B",
"- 	c #511730",
"; 	c #4C1D23",
"> 	c #3A1F27",
", 	c #350A1C",
"' 	c #991E47",
") 	c #5C1538",
"! 	c #3C0C14",
"~ 	c #682728",
"{ 	c #AA234A",
"] 	c #942348",
"^ 	c #7E1A36",
"/ 	c #231415",
"( 	c #2E1B19",
"_ 	c #876959",
": 	c #7B5D4D",
"< 	c #BF345C",
"[ 	c #4E2B38",
"} 	c #1D140C",
"| 	c #2C161D",
"1 	c #372A26",
"2 	c #AA9185",
"3 	c #AE856D",
"4 	c #254032",
"5 	c #085939",
"6 	c #0D0B0D",
"7 	c #DEB199",
"8 	c #D4A286",
"9 	c #0C1314",
"0 	c #024529",
"a 	c #1E101A",
"b 	c #A57E68",
"c 	c #FFC3A1",
"d 	c #F9BE9D",
"e 	c #0C060A",
"f 	c #44332B",
"g 	c #C5967C",
"h 	c #3C2D26",
"i 	c #CD9D82",
"j 	c #E2AC8E",
"k 	c #5E483B",
"l 	c #331B24",
"m 	c #542D3A",
"n 	c #4B2732",
"o 	c #4C3830",
"p 	c #EDB596",
"q 	c #755446",
"r 	c #4C2836",
"s 	c #5B303D",
"t 	c #44242E",
"u 	c #48372D",
"v 	c #765A4A",
"w 	c #442533",
"x 	c #3D2231",
"y 	c #2D1928",
"z 	c #1A0E15",
"A 	c #22121D",
"B 	c #592F3C",
"C 	c #2D1925",
"D 	c #191416",
"E 	c #60493D",
"F 	c #140B13",
"G 	c #251422",
"H 	c #331C2A",
"I 	c #070A08",
"J 	c #5A4338",
"K 	c #3B202E",
"L 	c #1B0D19",
"M 	c #391F2E",
"N 	c #685042",
"O 	c #291726",
"P 	c #502A35",
"Q 	c #86433E",
"R 	c #4A2522",
"S 	c #68482C",
"T 	c #8F633D",
"U 	c #88573B",
"V 	c #554136",
"W 	c #332315",
"X 	c #C38653",
"Y 	c #FFB06D",
"Z 	c #F8A56B",
"` 	c #DE7B64",
" .	c #C05D5D",
"..	c #5F2C32",
"+.	c #111B20",
"@.	c #EB8F67",
"#.	c #BF5D5D",
"$.	c #A54E57",
"%.	c #602D33",
"&.	c #290F1A",
"*.	c #14040E",
"=.	c #351A18",
"-.	c #4A0F18",
";.	c #360A11",
">.	c #1B050C",
",.	c #641424",
"'.	c #72174C",
").	c #931C3D",
"!.	c #2A0B24",
"~.	c #6F174C",
"{.	c #951B43",
"].	c #4B1340",
"^.	c #0F4145",
"/.	c #006D4D",
"(.	c #00633B",
"_.	c #001B0F",
":.	c #007D4B",
"<.	c #005431",
"[.	c #122D33",
"}.	c #03514E",
"|.	c #091B1E",
"1.	c #0D3F43",
"2.	c #021413",
"3.	c #005652",
"4.	c #007244",
"5.	c #002927",
"6.	c #092628",
"7.	c #054C4A",
"8.	c #013533",
"9.	c #005F4F",
"0.	c #002919",
"a.	c #0F3632",
"b.	c #08494A",
"c.	c #004738",
"d.	c #00724C",
"e.	c #002817",
"f.	c #AF5A4D",
"g.	c #D77B6C",
"h.	c #763C34",
"i.	c #DC8E78",
"j.	c #D46C57",
"k.	c #AB4F3D",
"l.	c #00664F",
"m.	c #A64B42",
"n.	c #C55B49",
"o.	c #582514",
"p.	c #A44A3F",
"q.	c #C17859",
"r.	c #67301E",
"s.	c #552D29",
"t.	c #AB6257",
"u.	c #683B33",
"v.	c #822F2C",
"w.	c #592422",
"x.	c #D18666",
"y.	c #5A2B1A",
"z.	c #C97F60",
"A.	c #C46948",
"                                                                                                    ",
"                                                                                                    ",
"                                                            . . . . .                               ",
"                                                          + @ # $ % & * *                           ",
"                                                        & = - + @ ; > ; $                           ",
"                                                        , ' ) ! ~ # $ & .                           ",
"                                                        { ] ^ % # / ( _ :                           ",
"                                                        < ] [ } | 1 2 3 :                           ",
"                                                          4 5 6 / _ 7 8 :                           ",
"                                                          9 0 6 a b c d :                           ",
"                                                            e e f g c d :                           ",
"                                              . . . . . . . . h i j : k f                           ",
"                                        . . l m m m m m m n o j p q                                 ",
"                                    & / r s s s s s s s s s t u v                                   ",
"                                e | w s m [ [ [ r m s s s s r / .                                   ",
"                            . | [ s m [ x y z e e A r s s B m C .                                   ",
"                        D k p E t s r x y z F F G a H B B m > I                                     ",
"                    h v i j J e % w K G z L L L M m s s B t &                                       ",
"                    k c j N . & F a O L L G F G w s s s P C                                         ",
"                    . : 8 h   . & 6 G F G z z x s s s s r a                                         ",
"                  $ Q R } S .   u h F z L L M [ s s s B n z                                         ",
"                } S T T T U R k g V e F L O M r s s [ w y F                                         ",
"                . } } } } } % v E   & F G O y x w w x y O F                                         ",
"                W X Y Z `  ....     F 6 e G A G +.a G A F                                           ",
"                W X @.` #.$.%.      e F e | / L &.F F *..                                           ",
"                I ( =.=.( $ &           z s B P w y O G F                                           ",
"                                      % n s s s m w H O F                                           ",
"                                      F n s s B s r y &.-.;.                                        ",
"                                      >.r s s B B r O , { ,.                                        ",
"                                      > B s s B B r O L '.).!                                       ",
"                                      K s s s s m K G !.~.{.!                                       ",
"                                    / n s s s s m H L ].~.{.,.                                      ",
"                                    | s s s s m w H 6 *.*.>.>..                                     ",
"                                    | s s s s P K G F +.^./.(._.                                    ",
"                                    | s s s m r M G 6 +.^./.:.<..                                   ",
"                                    | s s B [ x y L 9 [.}./.:.<..                                   ",
"                                    A m s B r M y F |.1.}./.:.<..                                   ",
"                                    2.A r r K y O z |.1.3./.4.0                                     ",
"                                    5.6.z G H !.O L 6.}./.:.(.I                                     ",
"                                    5.7.[.6 e +.O D 8.9.:.4.0.                                      ",
"                                    $ a.3.b.[.I I 2.c.d.:.(.e.                                      ",
"                                  f.g.h.a.3.7.[.[.}./.:.(.0.                                        ",
"                                f.i.j.k./ 2.2.|.b.l.:.:.0                                           ",
"                                m.n.o..     $ h.% . . . .                                           ",
"                              p.q.r.        s.t.u.                                                  ",
"                              v.w.          q :                                                     ",
"                                          o.q.o                                                     ",
"                                        o d x.y.                                                    ",
"                                        u.z.j x.y.                                                  ",
"                                            m.k.A.:                                                 "};
