/* XPM */
static char * Run_1_xpm[] = {
"50 53 172 2",
"  	c None",
". 	c #270E0C",
"+ 	c #1D0C0B",
"@ 	c #0B0509",
"# 	c #010101",
"$ 	c #55211D",
"% 	c #431B22",
"& 	c #2C1514",
"* 	c #3C1615",
"= 	c #251116",
"- 	c #160709",
"; 	c #4F1529",
"> 	c #6A1644",
", 	c #3B1020",
"' 	c #5B2222",
") 	c #301316",
"! 	c #400A21",
"~ 	c #941D44",
"{ 	c #89233B",
"] 	c #36181D",
"^ 	c #1E1314",
"/ 	c #B42C5A",
"( 	c #95224A",
"_ 	c #460F1E",
": 	c #4F3B32",
"< 	c #987968",
"[ 	c #A27A65",
"} 	c #1C1424",
"| 	c #A82248",
"1 	c #5D3746",
"2 	c #152227",
"3 	c #2B161B",
"4 	c #1B0E14",
"5 	c #706765",
"6 	c #9B7661",
"7 	c #012B1A",
"8 	c #00693E",
"9 	c #13050C",
"0 	c #695042",
"a 	c #FFC3A1",
"b 	c #AB826B",
"c 	c #0A0405",
"d 	c #0E281C",
"e 	c #082015",
"f 	c #0E0A0B",
"g 	c #352422",
"h 	c #C6987D",
"i 	c #492633",
"j 	c #542C3A",
"k 	c #3A1C25",
"l 	c #2F241D",
"m 	c #CE9D82",
"n 	c #F8BD9C",
"o 	c #765A4A",
"p 	c #120A0D",
"q 	c #150C14",
"r 	c #3C202D",
"s 	c #5B303D",
"t 	c #592F3C",
"u 	c #482928",
"v 	c #8C6958",
"w 	c #E3AD8F",
"x 	c #7E6150",
"y 	c #432433",
"z 	c #533F34",
"A 	c #816251",
"B 	c #341C2C",
"C 	c #241422",
"D 	c #23121C",
"E 	c #502A36",
"F 	c #B0866F",
"G 	c #DAA78A",
"H 	c #654D40",
"I 	c #3D2231",
"J 	c #291726",
"K 	c #1B0F19",
"L 	c #4F2A38",
"M 	c #3A2725",
"N 	c #5A4438",
"O 	c #ECB495",
"P 	c #2C1926",
"Q 	c #4C2936",
"R 	c #321B23",
"S 	c #452E1E",
"T 	c #855E3E",
"U 	c #906D5A",
"V 	c #4A3532",
"W 	c #A2504A",
"X 	c #8F4741",
"Y 	c #0C0907",
"Z 	c #7D5635",
"` 	c #3B2919",
" .	c #2E1929",
"..	c #45252E",
"+.	c #4F3622",
"@.	c #331A17",
"#.	c #A47D68",
"$.	c #6F4D2F",
"%.	c #6C472E",
"&.	c #482726",
"*.	c #DF9A5F",
"=.	c #C97757",
"-.	c #B25B52",
";.	c #6B3434",
">.	c #90623D",
",.	c #F8A56B",
"'.	c #EB8F67",
").	c #CD6560",
"!.	c #B75655",
"~.	c #74383A",
"{.	c #381828",
"].	c #6F3D32",
"^.	c #572A2C",
"/.	c #290D13",
"(.	c #280E18",
"_.	c #841B2D",
":.	c #661522",
"<.	c #781539",
"[.	c #BA2646",
"}.	c #6D1725",
"|.	c #1D101B",
"1.	c #2A0C22",
"2.	c #9D1D4A",
"3.	c #080D12",
"4.	c #11343A",
"5.	c #015551",
"6.	c #035B4C",
"7.	c #00331E",
"8.	c #0A1013",
"9.	c #00634C",
"0.	c #004D2D",
"a.	c #084849",
"b.	c #001A0F",
"c.	c #050B0A",
"d.	c #152C34",
"e.	c #123C43",
"f.	c #006A4E",
"g.	c #210C19",
"h.	c #1A2F3A",
"i.	c #15252C",
"j.	c #007445",
"k.	c #182C35",
"l.	c #152730",
"m.	c #0C171B",
"n.	c #004428",
"o.	c #7A4F43",
"p.	c #04312F",
"q.	c #002B29",
"r.	c #003D39",
"s.	c #005E50",
"t.	c #00744C",
"u.	c #01663D",
"v.	c #AC584A",
"w.	c #DD8D71",
"x.	c #B24F37",
"y.	c #061B1D",
"z.	c #007C4B",
"A.	c #005834",
"B.	c #D48C74",
"C.	c #0B1810",
"D.	c #743924",
"E.	c #8A4738",
"F.	c #944A44",
"G.	c #B96E5C",
"H.	c #8B5C46",
"I.	c #572020",
"J.	c #3A170B",
"K.	c #D06354",
"L.	c #803722",
"M.	c #9A443E",
"N.	c #D1725D",
"O.	c #A64D43",
"                                                                                                    ",
"                                                                                                    ",
"                                                                                                    ",
"                                                                                                    ",
"                                                                                                    ",
"                                                                                                    ",
"                                                              . + @ # #                             ",
"                                                            . $ % & * = & *                         ",
"                                                          - ; > , ' % % % ) #                       ",
"                                                          ! ~ { , ' ] = ^ ^ #                       ",
"                                                          / ( ( _ ) = : < [ #                       ",
"                                                        } { | 1 2 3 4 5 < 6 #                       ",
"                                                            7 8 7 9 0 a a b #                       ",
"                                                            c d e f 0 a a b #                       ",
"                                                    # # # # # c @ g h a a b #                       ",
"                                          # # # # f i j j j k # l m n o f f                         ",
"                                  p p + q r s s s s t s s s s u v w x                               ",
"                              p 3 ; t t t t t 1 t j i y i t t t g z                                 ",
"                      # # # A [ g s t 1 s t i y y B C c D E t k = f                                 ",
"                    l F n G H # # ^ B I y y r J } p p K D L M 3 i p                                 ",
"                  N a O v #   c K p K J J J C q @ J B P k Q R 3 q                                   ",
"                S T 6 U         c : V C J q p q K B I t s y = P                                     ",
"              & W X Y Z `   # M O A # # # D  .K q k j s t ..c #                                     ",
"              l +.+.+.+.@.l b #.p     q I  .K K I j s s t k f #                                     ",
"              ` $.$.$.%.&.N b         f D K K B Q s s t j y C #                                     ",
"              Z *.*.=.-.;.f               q J B Q j 1 1 i B K #                                     ",
"              >.,.'.).!.~.#               q C J {.r I B B J q                                       ",
"              S ].].^.^.k #               # 9 q q q q q q p                                         ",
"                                          f  .k B P C K K @                                         ",
"                                          - i s t Q y r J K c                                       ",
"                                          k t s t j i B D /.#                                       ",
"                                          R t t 1 j y B (._.:.                                      ",
"                                          R t t t Q y B (.<._.#                                     ",
"                                        = s s s t i I J K <.[.}.                                    ",
"                                        3 s s s j i I |.1.> 2.}.                                    ",
"                                      q E s t t Q I  .q @ 9 - 9 #                                   ",
"                                      ^ s s s j y I  .K 3.4.5.6.7.                                  ",
"                                      = s s 1 j y B J q 8.4.5.9.0.                                  ",
"                                      4 s s j y I B J q 8.4.a.9.8 b.                                ",
"                                      4 s s j y I B K c.} d.e.f.8 b.                                ",
"                                      q i E y y B J K c.} d.e.f.8 b.                                ",
"                                      c.q  .I I  . .g.c.2 h.e.9.0.                                  ",
"                                      3.i.c.p J J J |.c.i.e.6.j.7.                                  ",
"                                      3.k.l.m.c.f D K m.a.5.f.n.                                    ",
"                                      o...l.h.l.p.q.q.r.s.t.u.7                                     ",
"                                    v.w.x.&.y.a.5.5.s.t.z.z.A.#                                     ",
"                                    B.G =.0 # # c C.u.j.z.A.c.                                      ",
"                                  -.=.D.#     @.E.F.+ # #                                           ",
"                                  G.H.        I.F.@.                                                ",
"                                  $         J.x.~.                                                  ",
"                                          & W K.L.                                                  ",
"                                            M.!.N.E.                                                ",
"                                                O.B.[                                               "};
