/* XPM */
static char * Run_6_xpm[] = {
"50 50 176 2",
"  	c None",
". 	c #010001",
"+ 	c #431818",
"@ 	c #592725",
"# 	c #31151A",
"$ 	c #240D0D",
"% 	c #130A06",
"& 	c #391225",
"* 	c #711A36",
"= 	c #421B22",
"- 	c #421D1D",
"; 	c #0A0405",
"> 	c #1A050C",
", 	c #9D2149",
"' 	c #390C26",
") 	c #501D1B",
"! 	c #4C1E24",
"~ 	c #1C1512",
"{ 	c #0B060A",
"] 	c #A42151",
"^ 	c #8B1C4A",
"/ 	c #681526",
"( 	c #260E16",
"_ 	c #2A161C",
": 	c #231415",
"< 	c #47362C",
"[ 	c #95715E",
"} 	c #85283F",
"| 	c #A5274E",
"1 	c #872E4A",
"2 	c #272728",
"3 	c #170B0D",
"4 	c #60544E",
"5 	c #BE9D8B",
"6 	c #A57E68",
"7 	c #2D2424",
"8 	c #186546",
"9 	c #014128",
"0 	c #130A0D",
"a 	c #442627",
"b 	c #D5A88F",
"c 	c #DEB096",
"d 	c #B48971",
"e 	c #070708",
"f 	c #172F22",
"g 	c #013C23",
"h 	c #0D0B0B",
"i 	c #4C3930",
"j 	c #FFC3A1",
"k 	c #C4957B",
"l 	c #826352",
"m 	c #775A4A",
"n 	c #F0B797",
"o 	c #BC9076",
"p 	c #60493D",
"q 	c #5A4438",
"r 	c #765A4B",
"s 	c #FABF9E",
"t 	c #BA8D75",
"u 	c #23131C",
"v 	c #542C3A",
"w 	c #5B303D",
"x 	c #3A2825",
"y 	c #5B4539",
"z 	c #32261F",
"A 	c #2D181E",
"B 	c #3B202F",
"C 	c #592F3C",
"D 	c #1A0E13",
"E 	c #4B2836",
"F 	c #452534",
"G 	c #4A2735",
"H 	c #4E2A38",
"I 	c #261523",
"J 	c #391F2D",
"K 	c #342720",
"L 	c #AC846C",
"M 	c #120610",
"N 	c #130B12",
"O 	c #1D111B",
"P 	c #341C2A",
"Q 	c #341B23",
"R 	c #2D1929",
"S 	c #9E7662",
"T 	c #1B0D19",
"U 	c #291725",
"V 	c #351717",
"W 	c #57312D",
"X 	c #88654F",
"Y 	c #372617",
"Z 	c #131A21",
"` 	c #2C1E13",
" .	c #2F2114",
"..	c #2B211B",
"+.	c #24091E",
"@.	c #2E1926",
"#.	c #4C3728",
"$.	c #DF9A5F",
"%.	c #B4694D",
"&.	c #66453A",
"*.	c #A37C66",
"=.	c #2B1315",
"-.	c #5A3E26",
";.	c #FFB06D",
">.	c #FBAA6B",
",.	c #E78866",
"'.	c #CA645F",
").	c #99494E",
"!.	c #EF9568",
"~.	c #DD7864",
"{.	c #A95058",
"].	c #8E424C",
"^.	c #471037",
"/.	c #8A174F",
"(.	c #B62446",
"_.	c #8C1D2F",
":.	c #31090F",
"<.	c #6D174D",
"[.	c #93194D",
"}.	c #00190E",
"|.	c #3D2231",
"1.	c #77174C",
"2.	c #600F36",
"3.	c #012B25",
"4.	c #016B4B",
"5.	c #005733",
"6.	c #5F174C",
"7.	c #591135",
"8.	c #0F3F45",
"9.	c #025A4B",
"0.	c #00774C",
"a.	c #16272F",
"b.	c #16353F",
"c.	c #0F4245",
"d.	c #007B49",
"e.	c #0D1315",
"f.	c #0E171B",
"g.	c #12191C",
"h.	c #163741",
"i.	c #006B40",
"j.	c #143941",
"k.	c #0A3738",
"l.	c #002F1E",
"m.	c #502A36",
"n.	c #033534",
"o.	c #141519",
"p.	c #162831",
"q.	c #00302E",
"r.	c #005652",
"s.	c #00463B",
"t.	c #044A49",
"u.	c #00534E",
"v.	c #EBA68B",
"w.	c #D47566",
"x.	c #6F3632",
"y.	c #EDA88D",
"z.	c #8F5047",
"A.	c #060A0C",
"B.	c #91554B",
"C.	c #65312B",
"D.	c #091D21",
"E.	c #002B29",
"F.	c #002220",
"G.	c #BE836E",
"H.	c #95422C",
"I.	c #C1584C",
"J.	c #7F3B35",
"K.	c #B7584F",
"L.	c #733A25",
"M.	c #B1785E",
"N.	c #F0A588",
"O.	c #3C1B0F",
"P.	c #672D29",
"Q.	c #AA4F3A",
"R.	c #441C0E",
"S.	c #AD4A42",
"                                                                                                    ",
"                                                                                                    ",
"                                                          . . . .                                   ",
"                                                        + @ # $ % % $                               ",
"                                                      & * & + @ = = - ;                             ",
"                                                    > * , ' ) ! # ~ { .                             ",
"                                                    ] , ^ / ( _ : < [ ~                             ",
"                                                    } | 1 2 ( 3 4 5 6 ~                             ",
"                                                      7 8 9 0 a b c d ~                             ",
"                                                      e f g h i j j k ~                             ",
"                                                        ; { ~ l j j k ~                             ",
"                                                      . . 0 m n o p q                               ",
"                                          . . . . . . . . r s t h                                   ",
"                                    0 3 u v w w w w w w w x y z                                     ",
"                              . : A B w w w w w w w w C C A .                                       ",
"                          . D E v w w C E F G G H C w C C F D                                       ",
"                        < [ a v w w v F I . . . { J C w C F ~                                       ",
"                    K r d L p _ v G B I M N O P Q P v w v J N                                       ",
"                  l k j [ : 0 ~ R P R N N h P G v w C C F I {                                       ",
"                  6 j S . . ; 0 T U T M M R H w w w v G J N                                         ",
"                V W S X Y   z < : N T Z : G w w w C v F O .                                         ",
"              . ` a ; `  ...L t K h +.T B w w w w v F @.M                                           ",
"              #.$.$.$.$.%.&.*.~     M U R G w w v F P T .                                           ",
"              %  . .` =.D ; .       h I I I P P P U I T .                                           ",
"              -.;.>.,.'.).#           3 u _ ~ T N N {                                               ",
"              -.!.~.'.{.]._           A v w G J R U M .                                             ",
"              . . . . . . .           Q w w C G J U # / > %                                         ",
"                                      Q w w C G J T ^./.(._.:.                                      ",
"                                      Q w w w F u +.<./.[.* f }.                                    ",
"                                    u v w w H |.+.+.1./.2.3.4.5..                                   ",
"                                    : C w w H P +.6.1.7.Z 8.9.0.5.}.                                ",
"                                    _ C C C F I M ' ' ~ a.b.c.4.d.g                                 ",
"                                  D v w C v |.~ e.e.e.f.g.a.h.9.d.g                                 ",
"                                  D C C C v P M e.g.g.g.g.a.h.9.i.g                                 ",
"                                  Q w C v F P M f.g.g.g.a.j.k.l..                                   ",
"                                3 m.C C G |.U N e.g.g.a.j.n.9 g .                                   ",
"                                . D C E |.J I N e.g.a.j.n.3.5.l.                                    ",
"                                { f.o.P B U I N f.p.b.n.q.r.s.}.                                    ",
"                                W W e.o.I U U N Z j.t.s.u.9.l.                                      ",
"                              r v.w.x.e e h U e.p.8.r.r.r.9.l.                                      ",
"                            q j y.z.    h h . A.k.r.r.r.u.3.                                        ",
"                            q v.B.      x.C.@ K D.E.E.E.F.                                          ",
"                          < G.z.      H.I.H.V :                                                     ",
"                          - J..       K.H.%                                                         ",
"                          q C.        } V                                                           ",
"                        K X ~                                                                       ",
"                        L.M.~                                                                       ",
"                      &.N.%.O.                                                                      ",
"                      P.K.w.Q.R.                                                                    ",
"                          H.S.K.@                                                                   "};
