/* XPM */
static char *result[] = {
/* columns rows colors chars-per-pixel */
"60 60 245 2 ",
"   c black",
".  c #010101",
"X  c #030101",
"o  c #040203",
"O  c #050303",
"+  c #060302",
"@  c #060303",
"#  c #020304",
"$  c #050204",
"%  c #000704",
"&  c #090305",
"*  c #0A0405",
"=  c #0B0607",
"-  c #050708",
";  c #0C060B",
":  c #0C070C",
">  c #04080A",
",  c #060B0D",
"<  c #0F0B0A",
"1  c #0F080D",
"2  c #090C0D",
"3  c #1A070E",
"4  c #11090B",
"5  c #150809",
"6  c #130A0C",
"7  c #140A0D",
"8  c #150B0E",
"9  c #180D0F",
"0  c #00170D",
"q  c #08140F",
"w  c #110910",
"e  c #120A10",
"r  c #130A12",
"t  c #150B10",
"y  c #140B13",
"u  c #1B0D10",
"i  c #180D13",
"p  c #1C0F12",
"a  c #1C0F13",
"s  c #190E18",
"d  c #1A0E19",
"f  c #001D11",
"g  c #0B1419",
"h  c #091919",
"j  c #08181B",
"k  c #1A1012",
"l  c #1E1313",
"z  c #1D101B",
"x  c #1A151A",
"c  c #12191B",
"v  c #131C1F",
"b  c #1A1B1C",
"n  c #3B180D",
"m  c #200D11",
"M  c #220D11",
"N  c #280F11",
"B  c #210E18",
"V  c #270B1D",
"C  c #2C0819",
"Z  c #390C1B",
"A  c #201115",
"S  c #211116",
"D  c #221216",
"F  c #261116",
"G  c #2C1112",
"H  c #20111E",
"J  c #24141F",
"K  c #26151E",
"L  c #26151F",
"P  c #2C1C19",
"I  c #2D181E",
"U  c #2E191F",
"Y  c #3A1412",
"T  c #35161D",
"R  c #35171D",
"E  c #39131C",
"W  c #002213",
"Q  c #00201F",
"!  c #002F1C",
"~  c #00331E",
"^  c #2A201A",
"/  c #2F241E",
"(  c #32231F",
")  c #0F1C23",
"_  c #0F1D25",
"`  c #221320",
"'  c #231321",
"]  c #241422",
"[  c #291727",
"{  c #2E1929",
"}  c #321C27",
"|  c #341C27",
" . c #381E26",
".. c #301A2A",
"X. c #341C29",
"o. c #341C2C",
"O. c #371E2E",
"+. c #381F2E",
"@. c #391F2F",
"#. c #002221",
"$. c #002720",
"%. c #1A2B25",
"&. c #15242A",
"*. c #093736",
"=. c #003835",
"-. c #043A37",
";. c #003B38",
":. c #15363F",
">. c #1A303B",
",. c #2A2A2B",
"<. c #2C282A",
"1. c #362922",
"2. c #3E2129",
"3. c #33292D",
"4. c #3E362A",
"5. c #3E2231",
"6. c #3F2231",
"7. c #3F2332",
"8. c #451916",
"9. c #41161F",
"0. c #4B1019",
"q. c #4E2011",
"w. c #40201D",
"e. c #672B18",
"r. c #6F2F1E",
"t. c #401A22",
"y. c #4F1E24",
"u. c #511F24",
"i. c #641522",
"p. c #6B1527",
"a. c #7E1A3E",
"s. c #472420",
"d. c #4F2724",
"f. c #492C20",
"g. c #43232D",
"h. c #43242F",
"j. c #45242E",
"k. c #47252F",
"l. c #4F3721",
"z. c #44332A",
"x. c #44342C",
"c. c #5B3D27",
"v. c #412433",
"b. c #492631",
"n. c #482735",
"m. c #492735",
"M. c #492736",
"N. c #4C2833",
"B. c #4B2836",
"V. c #4D2937",
"C. c #4E2937",
"Z. c #522B36",
"A. c #512B39",
"S. c #522C39",
"D. c #552D39",
"F. c #542D3A",
"G. c #552D3A",
"H. c #552D3B",
"J. c #562D3B",
"K. c #582E3B",
"L. c #4F3C32",
"P. c #5F3A31",
"I. c #5B303D",
"U. c #692725",
"Y. c #673B29",
"T. c #693C35",
"R. c #6F343B",
"E. c #723A34",
"W. c #004F35",
"Q. c #005633",
"!. c #234437",
"~. c #00673D",
"^. c #6C462E",
"/. c #714432",
"(. c #774A34",
"). c #7A5135",
"_. c #7F5836",
"`. c #541547",
"'. c #641547",
"]. c #0D4246",
"[. c #034A47",
"{. c #0C4548",
"}. c #044D4C",
"|. c #044F4E",
" X c #0A484A",
".X c #084E4A",
"XX c #01524F",
"oX c #04534D",
"OX c #006B4E",
"+X c #006F4D",
"@X c #007042",
"#X c #007545",
"$X c #00764C",
"%X c #007B4B",
"&X c #007E4B",
"*X c #674E41",
"=X c #725748",
"-X c #785B4C",
";X c #7D5F4F",
":X c #605B5F",
">X c #7F6150",
",X c #79665C",
"<X c #6B6A6E",
"1X c #993A2E",
"2X c #8D3731",
"3X c #863831",
"4X c #813C31",
"5X c #823F3F",
"6X c #9C3E38",
"7X c #85423D",
"8X c #9E1F41",
"9X c #9A2143",
"0X c #922148",
"qX c #A82148",
"wX c #CA3860",
"eX c #8B4A45",
"rX c #9A4C47",
"tX c #9A5645",
"yX c #A44F44",
"uX c #B3565A",
"iX c #836354",
"pX c #A86E48",
"aX c #AF794A",
"sX c #AC6753",
"dX c #A07A64",
"fX c #D26559",
"gX c #C77C68",
"hX c #DC7763",
"jX c #AF866E",
"kX c #A98B7B",
"lX c #C2947A",
"zX c #E69976",
"xX c #EC9E7B",
"cX c #FFB06D",
"vX c #9A9AA0",
"bX c #CC9B80",
"nX c #CF9E82",
"mX c #DEAE93",
"MX c #E8A888",
"NX c #E6AF91",
"BX c #EFB696",
"VX c #F1B898",
"CX c #FABF9D",
"ZX c #FFC3A1",
"AX c None",
/* pixels */
"AXAXAXAXAXAXAXAXAXAXAXAXAXAXAXAXAXAXAXAXAXAXAXAXAXAXAXAXAXAXAXAXAXAXAXAXAXAXAXAXAXAXAXAXAXAXAXAXAXAXAXAXAXAXAXAXAXAXAXAX",
"AXAXAXAXAXAXAXAXAXAXAXAXAXAXAXAXAXAXAXAXAXAXAXAXAXAXAXAXAXAXAXAXAXAXAXAXAXAXAXAXAXAXAXAXAXAXAXAXAXAXAXAXAXAXAXAXAXAXAXAX",
"AXAXAXAXAXAXAXAXAXAXAXAXAXAXAXAXAXAXAXAXAXAXAXAXAXAXAXAXAXAXAXAXAXAXAXAXAXAXAXAXAXAXAXAXAXAXAXAXAXAXAXAXAXAXAXAXAXAXAXAX",
"AXAXAXAXAXAXAXAXAXAXAXAXAXAXAXAXAXAXAXAXAXAXAXAXAXAXAXAXAXAXAXAXAXAXAXAXAXAXAXAXAXAXAXAXAXAXAXAXAXAXAXAXAXAXAXAXAXAXAXAX",
"AXAXAXAXAXAXAXAXAXAXAXAXAXAXAXAXAXAXAXAXAXAXAXAXAXAXAXAXAXAXAXAXAXAXAXAXAXAXAXAXAXAXAXAXAXAXAXAXAXAXAXAXAXAXAXAXAXAXAXAX",
"AXAXAXAXAXAXAXAXAXAXAXAXAXAXAXAXAXAXAXAXAXAXAXAXAXAXAXAXAXAXAXAXAXAXAXAXAXAXAXAXAXAXAXAXAXAXAXAXAXAXAXAXAXAXAXAXAXAXAXAX",
"AXAXAXAXAXAXAXAXAXAXAXAXAXAXAXAXAXAXAXAXAXAXAXAXAXAXAXAXAXAXAXAXAXAXAXAXAXAXAXAXAXAXAXAXAXAXAXAXAXAXAXAXAXAXAXAXAXAXAXAX",
"AXAXAXAXAXAXAXAXAXAXAXAXAXAXAXAXAXAXAXAXAXAXAXAXAXAXAXAXAXAXAXAXAXAXAXAXAXAXAXAXAXAXAXAXAXAXAXAXAXAXAXAXAXAXAXAXAXAXAXAX",
"AXAXAXAXAXAXAXAXAXAXAXAXAXAXAXAXAXAXAXAXAXAXAXAXAXAXAXAXAXAXAXAXAXAXAXAXAXAXAXAXAXAXAXAXAXAXAXAXAXAXAXAXAXAXAXAXAXAXAXAX",
"AXAXAXAXAXAXAXAXAXAXAXAXAXAXAXAXAXAXAXAXAXAXAXAXAXAXAXAXAXAXAXAXAXAXAXAXAXAXAXAXAXAXAXAXAXAXAXAXAXAXAXAXAXAXAXAXAXAXAXAX",
"AXAXAXAXAXAXAXAXAXAXAXAXAXAXAXAXAXAXAXAXAXAXAXAXAXAXAXAXAXAXAXAXAXAXAXAXAXAXAXAXAXAXAXAXAXAXAXAXAXAXAXAXAXAXAXAXAXAXAXAX",
"AXAXAXAXAXAXAXAXAXAXAXAXAXAXAXAXAXAXAXAXAXAXAXAXAXAXAXAXAXAXAXAXAXAXAXAXAXAXAXAXAXAXAXAXAXAXAXAXAXAXAXAXAXAXAXAXAXAXAXAX",
"AXAXAXAXAXAXAXAXAXAXAXAXAXAXAXAXAXAXAXAXAXAXAXAXAXAXAXAXAXAXAXAXAXAXAXAXAXAXAXAXAXAXAXAXAXAXAXAXAXAXAXAXAXAXAXAXAXAXAXAX",
"AXAXAXAXAXAXAXAXAXAXAXAXAXAXAXAXAXAXAXAXAXAXAXAXAXAXAXAXAXAXAXAXAXAXAXAXAXAXAXAXAXAXAXAXAXAXAXAXAXAXAXAXAXAXAXAXAXAXAXAX",
"AXAXAXAXAXAXAXAXAXAXAXAXAXAXAXAXAXAXAXAXAXAXAXAXAXAXAXAXAXAXAXAXAXAXAXAXAXAXAXAXAXAXAXAXAXAXAXAXAXAXAXAXAXAXAXAXAXAXAXAX",
"AXAXAXAXAXAXAXAXAXAXAXAXAXAXAXAXAXAXAXAXAXAXAXAXAXAXAXAXAXAXAXAXAXAXAXAXAXAXAXAXAXAXAXAXAXAXAXAXAXAXAXAXAXAXAXAXAXAXAXAX",
"AXAXAXAXAXAXAXAXAXAXAXAXAXAXAXAXAXAXAXAXAXAXAXAXAXAXAXAXAXAXAXAXAXAXAXAXAXAXAXAXAXAXAXAXAXAXAXAXAXAXAXAXAXAXAXAXAXAXAXAX",
"AXAXAXAXAXAXAXAXAXAXAXAXAXAXAXAXAXAXAXAXAXAXAXAXAXAXAXAXAXAXAXAXAXAXAXAXAXAXAXAXAXAXAXAXAXAXAXAXAXAXAXAXAXAXAXAXAXAXAXAX",
"AXAXAXAXAXAXAXAXAXAXAXAXAXAXAXAXAX5 &   AXAXAXAXAXAXAXAXAXAXAXAXAXAXAXAXAXAXAXAXAXAXAXAXAXAXAXAXAXAXAXAXAXAXAXAXAXAXAXAX",
"AXAXAXAXAXAXAXAXAXAXAXAXAXAXAXAX8.y.G M m Y AXAXAXAXAXAXAXAXAXAXAXAXAXAXAXAXAXAXAXAXAXAXAXAXAXAXAXAXAXAXAXAXAXAXAXAXAXAX",
"AXAXAXAXAXAXAXAXAXAXAXAXAXAXAX3 9XV U.t.T N AXAXAXAXAXAXAXAXAXAXAXAXAXAXAXAXAXAXAXAXAXAXAXAXAXAXAXAXAXAXAXAXAXAXAXAXAXAX",
"AXAXAXAXAXAXAXAXAXAXAXAXAXAXAXa.0XZ u.F ( =XAXAXAXAXAXAXAXAXAXAXAXAXAXAXAXAXAXAXAXAXAXAXAXAXAXAXAXAXAXAXAXAXAXAXAXAXAXAX",
"AXAXAXAXAXAXAXAXAXAXAXAXAXAXAXwXqXb R . kXjXAXAXAXAXAXAXAXAXAXAXAXAXAXAXAXAXAXAXAXAXAXAXAXAXAXAXAXAXAXAXAXAXAXAXAXAXAXAX",
"AXAXAXAXAXAXAXAXAXAXAXAXAXAXAXAX!.! u lXmXjXAXAXAXAXAXAXAXAXAXAXAXAXAXAXAXAXAXAXAXAXAXAXAXAXAXAXAXAXAXAXAXAXAXAXAXAXAXAX",
"AXAXAXAXAXAXAXAXAXAXAXAXAXAXAXAX= q l VXZXjXAXAXAXAXAXAXAXAXAXAXAXAXAXAXAXAXAXAXAXAXAXAXAXAXAXAXAXAXAXAXAXAXAXAXAXAXAXAX",
"AXAXAXAXAXAXAXAXAXAXAXAXAXAXAXAXAX= L.ZX>X*XAXAXAXAXAXAXAXAXAXAXAXAXAXAXAXAXAXAXAXAXAXAXAXAXAXAXAXAXAXAXAXAXAXAXAXAXAXAX",
"AXAXAXAXAXAXAXAXAXAXAXAXAXAXAXAXAXAX1.CX^ AXAXAXAXAXAXAXAXAXAXAXAXAXAXAXAXAXAXAXAXAXAXAXAXAXAXAXAXAXAXAXAXAXAXAXAXAXAXAX",
"AXAXAXAXAXAXAXAXAXAXAXAXAXAXAXAXAXA <.,XdXAXAXAXAXAXAXAXAXAXAXAXAXAXAXAXAXAXAXAXAXAXAXAXAXAXAXAXAXAXAXAXAXAXAXAXAXAXAXAX",
"AXAXAXAXAXAXAXAXAXAXAXAXAXAXAXAX  I I <X,.vXAXAXAXAXAXAXAXAXAXAXAXAXAXAXAXAXAXAXAXAXAXAXAXAXAXAXAXAXAXAXAXAXAXAXAXAXAXAX",
"AXAXAXAXAXAXAXAXAXAXAXAXAXAXAXAX  H.t b.:X3.$ AXAXAXAXAXAXAXAXAXAXAXAXAXAXAXAXAXAXAXAXAXAXAXAXAXAXAXAXAXAXAXAXAXAXAXAXAX",
"AXAXAXAXAXAXAXAXAXAXAXAXAXAXAXAX .6.1 n.k.S 4 AXAXAXAXAXAXAXAXAXAXAXAXAXAXAXAXAXAXAXAXAXAXAXAXAXAXAXAXAXAXAXAXAXAXAXAXAX",
"AXAXAXAXAXAXAXAXAXAXAXAXAXAXAX8 K.J d o.J.2.D.AXAXAXAXAXAXAXAXAXAXAXAXAXAXAXAXAXAXAXAXAXAXAXAXAXAXAXAXAXAXAXAXAXAXAXAXAX",
"AXAXAXAXAXAXAXAXAXAXAXAXAXAXAXa I.i [ [ m.D.7 AXAXAXAXAXAXAXAXAXAXAXAXAXAXAXAXAXAXAXAXAXAXAXAXAXAXAXAXAXAXAXAXAXAXAXAXAX",
"AXAXAXAXAXAXAXAXAXAXAXAXAXAXAXj.B.e [ [ { h.U   AXAXAXAXAXAXAXAXAXAXAXAXAXAXAXAXAXAXAXAXAXAXAXAXAXAXAXAXAXAXAXAXAXAXAXAX",
"AXAXAXAXAXAXAXAXAXAXAXAXAXAXD I.O.y [ [ y i.i.p AXAXAXAXAXAXAXAXAXAXAXAXAXAXAXAXAXAXAXAXAXAXAXAXAXAXAXAXAXAXAXAXAXAXAXAX",
"AXAXAXAXAXAXAXAXAXAXAXAXAXAXg.I.5.w y y ; E 9.K 9 AXAXAXAXAXAXAXAXAXAXAXAXAXAXAXAXAXAXAXAXAXAXAXAXAXAXAXAXAXAXAXAXAXAXAX",
"AXAXAXAXAXAXAXAXAXAXAXAXAX  I.G.v.r ] [ o.M.N.B | AXAXAXAXAXAXAXAXAXAXAXAXAXAXAXAXAXAXAXAXAXAXAXAXAXAXAXAXAXAXAXAXAXAXAX",
"AXAXAXAXAXAXAXAXAXAXAXAXAX  I.S.v.[ : [ M.I.O 0.o.o AXAXAXAXAXAXAXAXAXAXAXAXAXAXAXAXAXAXAXAXAXAXAXAXAXAXAXAXAXAXAXAXAXAX",
"AXAXAXAXAXAXAXAXAXAXAXAXAX  I.V.@.[ : ..A.Z.C p.z X AXAXAXAXAXAXAXAXAXAXAXAXAXAXAXAXAXAXAXAXAXAXAXAXAXAXAXAXAXAXAXAXAXAX",
"AXAXAXAXAXAXAXAXAXAXAXAXAX  I.@.' s H 7.S.2.'.8X  AXAXAXAXAXAXAXAXAXAXAXAXAXAXAXAXAXAXAXAXAXAXAXAXAXAXAXAXAXAXAXAXAXAXAX",
"AXAXAXAXAXAXAXAXAXAXAXAXAX  S.` -Xs +.v.I.2.`.%.~ AXAXAXAXAXAXAXAXAXAXAXAXAXAXAXAXAXAXAXAXAXAXAXAXAXAXAXAXAXAXAXAXAXAXAX",
"AXAXAXAXAXAXAXAXAXAXAXAXAX  L r BXiX} F.I.2._ #XQ.AXAXAXAXAXAXAXAXAXAXAXAXAXAXAXAXAXAXAXAXAXAXAXAXAXAXAXAXAXAXAXAXAXAXAX",
"AXAXAXAXAXAXAXAXAXAXAXAXAXAX  k bXNXP K.I.x XX%X@X% AXAXAXAXAXAXAXAXAXAXAXAXAXAXAXAXAXAXAXAXAXAXAXAXAXAXAXAXAXAXAXAXAXAX",
"AXAXAXAXAXAXAXAXAXAXAXAXAXAX  f.E./ aXD.I., XX+X&X% AXAXAXAXAXAXAXAXAXAXAXAXAXAXAXAXAXAXAXAXAXAXAXAXAXAXAXAXAXAXAXAXAXAX",
"AXAXAXAXAXAXAXAXAXAXAXAXAXAX  c.(.l.^.6 I.- :.+X&X~.AXAXAXAXAXAXAXAXAXAXAXAXAXAXAXAXAXAXAXAXAXAXAXAXAXAXAXAXAXAXAXAXAXAX",
"AXAXAXAXAXAXAXAXAXAXAXAXAXAX  _._.)./.+ I.- >.OX&X&XAXAXAXAXAXAXAXAXAXAXAXAXAXAXAXAXAXAXAXAXAXAXAXAXAXAXAXAXAXAXAXAXAXAX",
"AXAXAXAXAXAXAXAXAXAXAXAXAXAX  cXcXhXuX* J.- &.|.&X&XW AXAXAXAXAXAXAXAXAXAXAXAXAXAXAXAXAXAXAXAXAXAXAXAXAXAXAXAXAXAXAXAXAX",
"AXAXAXAXAXAXAXAXAXAXAXAXAXAX  pXtX5XR.@ C.- c  X&X&X! AXAXAXAXAXAXAXAXAXAXAXAXAXAXAXAXAXAXAXAXAXAXAXAXAXAXAXAXAXAXAXAXAX",
"AXAXAXAXAXAXAXAXAXAXAXAXAXAXj h > # y y X.- v .X&X&X! AXAXAXAXAXAXAXAXAXAXAXAXAXAXAXAXAXAXAXAXAXAXAXAXAXAXAXAXAXAXAXAXAX",
"AXAXAXAXAXAXAXAXAXAXAXAXAXAXQ =.{.*.g 2 2 ) ].$X&X&X0 AXAXAXAXAXAXAXAXAXAXAXAXAXAXAXAXAXAXAXAXAXAXAXAXAXAXAXAXAXAXAXAXAX",
"AXAXAXAXAXAXAXAXAXAXAXAXAXAX  eX-.;.}.[.[.oXW.Q.f 4.w.AXAXAXAXAXAXAXAXAXAXAXAXAXAXAXAXAXAXAXAXAXAXAXAXAXAXAXAXAXAXAXAXAX",
"AXAXAXAXAXAXAXAXAXAXAXAXAXAXT.rXAXAX#.#.#.$.AXAXAXs.d.AXAXAXAXAXAXAXAXAXAXAXAXAXAXAXAXAXAXAXAXAXAXAXAXAXAXAXAXAXAXAXAXAX",
"AXAXAXAXAXAXAXAXAXAXAXAXAXAXnX  AXAXAXAXAXAXAXAXAX  d.AXAXAXAXAXAXAXAXAXAXAXAXAXAXAXAXAXAXAXAXAXAXAXAXAXAXAXAXAXAXAXAXAX",
"AXAXAXAXAXAXAXAXAXAXAXAXAXn ;XAXAXAXAXAXAXAXAXAXAX  sX  AXAXAXAXAXAXAXAXAXAXAXAXAXAXAXAXAXAXAXAXAXAXAXAXAXAXAXAXAXAXAXAX",
"AXAXAXAXAXAXAXAXAXAXAXAXz.zXY.AXAXAXAXAXAXAXAXAXAXAX4Xr.AXAXAXAXAXAXAXAXAXAXAXAXAXAXAXAXAXAXAXAXAXAXAXAXAXAXAXAXAXAXAXAX",
"AXAXAXAXAXAXAXAXAXAXAXAXP.gXxXq.AXAXAXAXAXAXAXAXAXAX7XfXe.x.AXAXAXAXAXAXAXAXAXAXAXAXAXAXAXAXAXAXAXAXAXAXAXAXAXAXAXAXAXAX",
"AXAXAXAXAXAXAXAXAXAXAXAXAXAXyXMX< AXAXAXAXAXAXAXAXAX2X6X1X3XAXAXAXAXAXAXAXAXAXAXAXAXAXAXAXAXAXAXAXAXAXAXAXAXAXAXAXAXAXAX",
"AXAXAXAXAXAXAXAXAXAXAXAXAXAXAXAXAXAXAXAXAXAXAXAXAXAXAXAXAXAXAXAXAXAXAXAXAXAXAXAXAXAXAXAXAXAXAXAXAXAXAXAXAXAXAXAXAXAXAXAX",
"AXAXAXAXAXAXAXAXAXAXAXAXAXAXAXAXAXAXAXAXAXAXAXAXAXAXAXAXAXAXAXAXAXAXAXAXAXAXAXAXAXAXAXAXAXAXAXAXAXAXAXAXAXAXAXAXAXAXAXAX",
"AXAXAXAXAXAXAXAXAXAXAXAXAXAXAXAXAXAXAXAXAXAXAXAXAXAXAXAXAXAXAXAXAXAXAXAXAXAXAXAXAXAXAXAXAXAXAXAXAXAXAXAXAXAXAXAXAXAXAXAX"
};
