/* XPM */
static char *result[] = {
/* columns rows colors chars-per-pixel */
"60 60 243 2 ",
"   c black",
".  c #010101",
"X  c #030201",
"o  c #020102",
"O  c #030103",
"+  c #070503",
"@  c #050204",
"#  c #070304",
"$  c #070407",
"%  c #040606",
"&  c #090506",
"*  c #080407",
"=  c #0A0507",
"-  c #0C0406",
";  c #0C0607",
":  c #02040B",
">  c #0A0509",
",  c #0D0708",
"<  c #0C070C",
"1  c #000A0A",
"2  c #000F09",
"3  c #0E0809",
"4  c #0F0B09",
"5  c #0F0C0A",
"6  c #0F080E",
"7  c #0E090F",
"8  c #150803",
"9  c #150807",
"0  c #130909",
"q  c #110C0B",
"w  c #130A0C",
"e  c #10090F",
"r  c #140A0D",
"t  c #1A0908",
"y  c #1B0908",
"u  c #160513",
"i  c #140B13",
"p  c #160C14",
"a  c #160C15",
"s  c #1C0D10",
"d  c #180D17",
"f  c #180E17",
"g  c #0C1112",
"h  c #0D1112",
"j  c #0A1217",
"k  c #0F1517",
"l  c #101C1E",
"z  c #2F090F",
"x  c #280712",
"c  c #350F19",
"v  c #2B1513",
"b  c #27141A",
"n  c #27151A",
"m  c #21121F",
"M  c #28151A",
"N  c #29151B",
"B  c #2F151B",
"V  c #2B1E19",
"C  c #361311",
"Z  c #321A17",
"A  c #301319",
"S  c #37161D",
"D  c #38161D",
"F  c #30181F",
"G  c #2F241E",
"H  c #0A0F2A",
"J  c #0C1E23",
"K  c #09102A",
"L  c #08112A",
"P  c #09112B",
"I  c #0A102A",
"U  c #0B122B",
"Y  c #0D122A",
"T  c #0D132D",
"R  c #0D132F",
"E  c #101E25",
"W  c #131F24",
"Q  c #16192A",
"!  c #111631",
"~  c #101833",
"^  c #131A34",
"/  c #141934",
"(  c #161B35",
")  c #171E38",
"_  c #310D2A",
"`  c #231321",
"'  c #231422",
"]  c #261524",
"[  c #271525",
"{  c #2B1720",
"}  c #2A1724",
"|  c #281626",
" . c #291727",
".. c #2B1825",
"X. c #2A1827",
"o. c #2D1924",
"O. c #2B1828",
"+. c #2C1828",
"@. c #2F1A2A",
"#. c #331B22",
"$. c #311B27",
"%. c #361F26",
"&. c #3D1920",
"*. c #381E26",
"=. c #3B1F27",
"-. c #311B28",
";. c #311B2B",
":. c #321B2B",
">. c #321C2B",
",. c #361F2E",
"<. c #3A1E28",
"1. c #3D0F34",
"2. c #0C2025",
"3. c #003F26",
"4. c #182A33",
"5. c #1F213E",
"6. c #192E39",
"7. c #18313B",
"8. c #1A303B",
"9. c #1B323E",
"0. c #3E2129",
"q. c #3D2231",
"w. c #431816",
"e. c #4B1019",
"r. c #52111B",
"t. c #57121D",
"y. c #42211E",
"u. c #5E2714",
"i. c #401A22",
"p. c #6E123E",
"a. c #46342C",
"s. c #5F322B",
"d. c #472634",
"f. c #472635",
"g. c #4B2732",
"h. c #482735",
"j. c #4E2934",
"k. c #4F2A35",
"l. c #4D2937",
"z. c #502B38",
"x. c #522C39",
"c. c #542C38",
"v. c #562D39",
"b. c #542D3A",
"n. c #552D3A",
"m. c #562D3B",
"M. c #572E3A",
"N. c #572E3B",
"B. c #582E3C",
"V. c #592F3C",
"C. c #553B36",
"Z. c #5B303D",
"A. c #682622",
"S. c #703121",
"D. c #743924",
"F. c #773B37",
"G. c #06403E",
"H. c #564136",
"J. c #5F493C",
"K. c #6F4D2F",
"L. c #153841",
"P. c #222441",
"I. c #242542",
"U. c #252542",
"Y. c #262642",
"T. c #262643",
"R. c #272743",
"E. c #272744",
"W. c #282F4A",
"Q. c #22304D",
"!. c #303651",
"~. c #353B56",
"^. c #5A174C",
"/. c #76174D",
"(. c #793941",
"). c #004B47",
"_. c #0A474A",
"`. c #054E4D",
"'. c #09494A",
"]. c #00504C",
"[. c #005652",
"{. c #005851",
"}. c #005D50",
"|. c #00664F",
" X c #007646",
".X c #00744C",
"XX c #007948",
"oX c #007E4B",
"OX c #595559",
"+X c #404761",
"@X c #444663",
"#X c #424964",
"$X c #4E4F6B",
"%X c #4C526C",
"&X c #4C536D",
"*X c #5D5F7B",
"=X c #656569",
"-X c #7F7471",
";X c #7A7B7F",
":X c #90352E",
">X c #90352F",
",X c #A32237",
"<X c #8C174F",
"1X c #8E174E",
"2X c #8D1B51",
"3X c #A21E4A",
"4X c #942147",
"5X c #A62E44",
"6X c #C42942",
"7X c #C92B44",
"8X c #DF2B67",
"9X c #9F4F49",
"0X c #A54E57",
"qX c #BA5C55",
"wX c #816351",
"eX c #97735F",
"rX c #B3704E",
"tX c #A57E68",
"yX c #C2685E",
"uX c #D26558",
"iX c #D36961",
"pX c #BE9178",
"aX c #DD8A67",
"sX c #FCAB6C",
"dX c #FFB06D",
"fX c #606680",
"gX c #6D708C",
"hX c #7E7E83",
"jX c #757793",
"kX c #888DA9",
"lX c #969CB7",
"zX c #999FBA",
"xX c #9CA2BD",
"cX c #D2A084",
"vX c #DBA78A",
"bX c #DEA78A",
"nX c #EFB696",
"mX c #FEC2A0",
"MX c #FFC3A1",
"NX c #A2A8C3",
"BX c #A3A8C3",
"VX c #E8D8D4",
"CX c None",
/* pixels */
"CXCXCXCXCXCXCXCXCXCXCXCXCXCXCXCXCXCXCXCXCXCXCXCXCXCXCXCXCXCXCXCXCXCXCXCXCXCXCXCXCXCXCXCXCXCXCXCXCXCXCXCXCXCXCXCXCXCXCXCX",
"CXCXCXCXCXCXCXCXCXCXCXCXCXCXCXCXCXCXCXCXCXCXCXCXCXCXCXCXCXCXCXCXCXCXCXCXCXCXCXCXCXCXCXCXCXCXCXCXCXCXCXCXCXCXCXCXCXCXCXCX",
"CXCXCXCXCXCXCXCXCXCXCXCXCXCXCXCXCXCXCXCXCXCXCXCXCXCXCXCXCXCXCXCXCXCXCXCXCXCXCXCXCXCXCXCXCXCXCXCXCXCXCXCXCXCXCXCXCXCXCXCX",
"CXCXCXCXCXCXCXCXCXCXCXCXCXCXCXCXCXCXCXCXCXCXCXCXCXCXCXCXCXCXCXCXCXCXCXCXCXCXCXCXCXCXCXCXCXCXCXCXCXCXCXCXCXCXCXCXCXCXCXCX",
"CXCXCXCXCXCXCXCXCXCXCXCXCXCXCXCXCXCXCXCXCXCXCXCXCXCXCXCXCXCXCXCXCXCXCXCXCXCXCXCXCXCXCXCXCXCXCXCXCXCXCXCXCXCXCXCXCXCXCXCX",
"CXCXCXCXCXCXCXCXCXCXCXCXCXCXCXCXCXCXCXCXCXCXCXCXCXCXCXCXCXCXCXCXCXCXCXCXCXCXCXCXCXCXCXCXCXCXCXCXCXCXCXCXCXCXCXCXCXCXCXCX",
"CXCXCXCXCXCXCXCXCXCXCXCXCXCXCXCXCXCXCXCXCXCXCXCXCXCXCXCXCXCXCXCXCXCXCXCXCXCXCXCXCXCXCXCXCXCXCXCXCXCXCXCXCXCXCXCXCXCXCXCX",
"CXCXCXCXCXCXCXCXCXCXCXCXCXCXCXCXCXCXCXCXCXCXCXCXCXCXCXCXCXCXCXCXCXCXCXCXCXCXCXCXCXCXCXCXCXCXCXCXCXCXCXCXCXCXCXCXCXCXCXCX",
"CXCXCXCXCXCXCXCXCXCXCXCXCXCXCXCXCXCXCXCXCXCXCXCXCXCXCXCXCXCXCXCXCXCXCXCXCXCXCXCXCXCXCXCXCXCXCXCXCXCXCXCXCXCXCXCXCXCXCXCX",
"CXCXCXCXCXCXCXCXCXCXCXCXCXCXCXCXCXCXCXCXCXCXCXCXCXCXCXCXCXCXCXCXCXCXCXCXCXCXCXCXCXCXCXCXCXCXCXCXCXCXCXCXCXCXCXCXCXCXCXCX",
"CXCXCXCXCXCXCXCXCXCXCXCXCXCXCXCXCXCXCXCXCXCXCXCXCXCXCXCXCXCXCXCXCXCXCXCXCXCXCXCXCXCXCXCXCXCXCXCXCXCXCXCXCXCXCXCXCXCXCXCX",
"CXCXCXCXCXCXCXCXCXCXCXCXCXCXCXCXCXCXCXCXCXCXCXCXCXCXCXCXCXCXCXCXCXCXCXCXCXCXCXCXCXCXCXCXCXCXCXCXCXCXCXCXCXCXCXCXCXCXCXCX",
"CXCXCXCXCXCXCXCXCXCXCXCXCXCXCXCXCXCXCXCXCXCXCXCXCXCXCXCXCXCXCXCXCXCXCXCXCXCXCXCXCXCXCXCXCXCXCXCXCXCXCXCXCXCXCXCXCXCXCXCX",
"CXCXCXCXCXCXCXCXCXCXCXCXCXCXCXCXCXCXCXCXCXCXCXCXCXCXCXCXCXCXCXCXCXCXCXCXCXCXCXCXCXCXCXCXCXCXCXCXCXCXCXCXCXCXCXCXCXCXCXCX",
"CXCXCXCXCXCXCXCXCXCXCXCXCXCXCXCXCXCXCXCXCXCXCXCXCXCXCXCXCXCXCXCXCXCXCXCXCXCXCXCXCXCXCXCXCXCXCXCXCXCXCXCXCXCXCXCXCXCXCXCX",
"CXCXCXCXCXCXCXCXCXCXCXCXCXCXCXCXCXCXCXCXCXCXCXCXCXCXCXCXCXCXCXCXCXCXCXCXCXCXCXCX) CXCXCXCXCXCXCXCXCXCXCXCXCXCXCXCXCXCXCX",
"CXCXCXCXCXCXCXCXCXCXCXCXCXCXCXCXCXCXCXCXCXCXCXCXCXCXCXCXCX&XCXCXR.BXCXCXCXCXCXT.CXCXCXCXCXCXCXCXCXCXCXCXCXCXCXCXCXCXCXCX",
"CXCXCXCXCXCXCXCXCXCXCXCXCXCXCXCXCXCXCXCXCXCXCXCXCXCXCXCX( *XCXCXCXE.CXCXCXCXU lXCXCXCXCXCXCXCXCXCXCXCXCXCXCXCXCXCXCXCXCX",
"CXCXCXCXCXCXCXCXCXCXCXCXCXCXCXCXCXCXCXCXCXCXCXCXCXCXCX+XkXCXCXCXCXCXjX#XCXCXY.L CXCXCXCXCXCXCXCXCXCXCXCXCXCXCXCXCXCXCXCX",
"CXCXCXCXCXCXCXCXCXCXCXCXCXCXCXCXCXCXCXCXCXCXCXCXCXCXCXCX~.CXCXCXCXCXCXCXCXCXR.CXCXCXCXCXCXCXCXCXCXCXCXCXCXCXCXCXCXCXCXCX",
"CXCXCXCXCXCXCXCXCXCXCXCXCXCXCXCXCXCXCXCXCXCXCXCXCX  ^ I.CXCXCXCXCXCXK U CXCXCXCXCXCXCXCXCXCXCXCXCXCXCXCXCXCXCXCXCXCXCXCX",
"CXCXCXCXCXCXCXCXCXCXCXCXCXCXCXCXCXCXCXt D D D   eXY CXCXCXCXCXCXCXCX$XCXCXCXCXCXCXCXCXCXCXCXCXCXCXCXCXCXCXCXCXCXCXCXCXCX",
"CXCXCXCXCXCXCXCXCXCXCXCXCXCXCXCXCXCXC S A.A A A w.xX@XCXCXCXCXCXCX5.CXCXCX!.! CXCXCXCXCXCXCXCXCXCXCXCXCXCXCXCXCXCXCXCXCX",
"CXCXCXCXCXCXCXCXCXCXCXCXCXCXCXCXCXCX2Xy i.B , a.s Q CXCXCXCXCXP %XCXCXCXCXR CXCXCXCXCXCXCXCXCXCXCXCXCXCXCXCXCXCXCXCXCXCX",
"CXCXCXCXCXCXCXCXCXCXCXCXCXCXCXCXCX8X4X9 &.H.MXtX; I / CXCXCXCXP.CXCXCXCXCXCXCXCXCXCXCXCXCXCXCXCXCXCXCXCXCXCXCXCXCXCXCXCX",
"CXCXCXCXCXCXCXCXCXCXCXCXCXCXCXCXQ.CX5X- 5 VXpX-X  CXCXCXCXCXCXCXCXCXCXCXCXT.CXCXCXCXCXCXCXCXCXCXCXCXCXCXCXCXCXCXCXCXCXCX",
"CXCXCXCXCXCXCXCXCXCXCXCXCXCXCXCXCXCXCX  4 mXMXMX  I T.CXCXCXCXT.CXCXCXCXU.zXCXCXCXCXCXCXCXCXCXCXCXCXCXCXCXCXCXCXCXCXCXCX",
"CXCXCXCXCXCXCXCXCXCXCXCXCXCXCXCXCXCXCXCXCXyXMXwXk.: CXCXCXCXCXT NXCXCXCXCXCXCXCXCXCXCXCXCXCXCXCXCXCXCXCXCXCXCXCXCXCXCXCX",
"CXCXCXCXCXCXCXCXCXCXCXCXCXCXCXCXCXCXCXCXCXqXy.j.Z.,.CXCXCXCXCXCXCXCXCXCXW.CXCXCXCXCXCXCXCXCXCXCXCXCXCXCXCXCXCXCXCXCXCXCX",
"CXCXCXCXCXCXCXCXCXCXCXCXCXCXCXCXCXCXCX3 %.;XcXC.n.X.~ CXCXCXCXCXCXgXH fXCXCXCXCXCXCXCXCXCXCXCXCXCXCXCXCXCXCXCXCXCXCXCXCX",
"CXCXCXCXCXCXCXCXCXCXCXCXCXCXCXCXCXCXr N.=.N =XhX6 p CXCXCXCXCXCXCXCXI CXCXCXCXCXCXCXCXCXCXCXCXCXCXCXCXCXCXCXCXCXCXCXCXCX",
"CXCXCXCXCXCXCXCXCXCXCXCXCXCXCXCXCX  V.$.+.Z.M OX= CXCXCXCXCXCXCXCXCXCXCXCXCXCXCXCXCXCXCXCXCXCXCXCXCXCXCXCXCXCXCXCXCXCXCX",
"CXCXCXCXCXCXCXCXCXCXCXCXCXCXCXCXCX#.z.$ Z.Z.Z.n *.CXCXCXCXCXCXCXCXCXCXCXCXCXCXCXCXCXCXCXCXCXCXCXCXCXCXCXCXCXCXCXCXCXCXCX",
"CXCXCXCXCXCXCXCXCXCXCXCXCXCXCXCX  v.+.$ Z.Z.Z.c.# CXCXCXCXCXCXCXCXCXCXCXCXCXCXCXCXCXCXCXCXCXCXCXCXCXCXCXCXCXCXCXCXCXCXCX",
"CXCXCXCXCXCXCXCXCXCXCXCXCXCXCXCXF { * o :.B.Z.Z.b CXCXCXCXCXCXCXCXCXCXCXCXCXCXCXCXCXCXCXCXCXCXCXCXCXCXCXCXCXCXCXCXCXCXCX",
"CXCXCXCXCXCXCXCXCXCXCXCXCXCXCXCX0.b.} a d f.Z.x.@.  CXCXCXCXCXCXCXCXCXCXCXCXCXCXCXCXCXCXCXCXCXCXCXCXCXCXCXCXCXCXCXCXCXCX",
"CXCXCXCXCXCXCXCXCXCXCXCXCXCXCXCX0.d.` i  . .o.c e.  CXCXCXCXCXCXCXCXCXCXCXCXCXCXCXCXCXCXCXCXCXCXCXCXCXCXCXCXCXCXCXCXCXCX",
"CXCXCXCXCXCXCXCXCXCXCXCXCXCXCXCX<...J.vX  > O u x z CXCXCXCXCXCXCXCXCXCXCXCXCXCXCXCXCXCXCXCXCXCXCXCXCXCXCXCXCXCXCXCXCXCX",
"CXCXCXCXCXCXCXCXCXCXCXCXCXCXCXCX  e w MXq | < ^.3X,XCXCXCXCXCXCXCXCXCXCXCXCXCXCXCXCXCXCXCXCXCXCXCXCXCXCXCXCXCXCXCXCXCXCX",
"CXCXCXCXCXCXCXCXCXCXCXCXCXCXCXCXCX  w MXnX' < ^.1X6X  CXCXCXCXCXCXCXCXCXCXCXCXCXCXCXCXCXCXCXCXCXCXCXCXCXCXCXCXCXCXCXCXCX",
"CXCXCXCXCXCXCXCXCXCXCXCXCXCXCXCXCX  0 v X + _ /.<X7X  CXCXCXCXCXCXCXCXCXCXCXCXCXCXCXCXCXCXCXCXCXCXCXCXCXCXCXCXCXCXCXCXCX",
"CXCXCXCXCXCXCXCXCXCXCXCXCXCXCXCXCX  K.K.K.s.1.<Xp.t.r.CXCXCXCXCXCXCXCXCXCXCXCXCXCXCXCXCXCXCXCXCXCXCXCXCXCXCXCXCXCXCXCXCX",
"CXCXCXCXCXCXCXCXCXCXCXCXCXCXCXCXCX  dXsXiX0X% j E [.XXCXCXCXCXCXCXCXCXCXCXCXCXCXCXCXCXCXCXCXCXCXCXCXCXCXCXCXCXCXCXCXCXCX",
"CXCXCXCXCXCXCXCXCXCXCXCXCXCXCXCXCX& rX9X(.(.g 9.9.`..X2 CXCXCXCXCXCXCXCXCXCXCXCXCXCXCXCXCXCXCXCXCXCXCXCXCXCXCXCXCXCXCXCX",
"CXCXCXCXCXCXCXCXCXCXCXCXCXCXCXCX0.l.+.O. .@ 4.9.9.L.{.oXCXCXCXCXCXCXCXCXCXCXCXCXCXCXCXCXCXCXCXCXCXCXCXCXCXCXCXCXCXCXCXCX",
"CXCXCXCXCXCXCXCXCXCXCXCXCXCXCX  M.Z.Z.m. .@ 4.9.9.L.{.oXCXCXCXCXCXCXCXCXCXCXCXCXCXCXCXCXCXCXCXCXCXCXCXCXCXCXCXCXCXCXCXCX",
"CXCXCXCXCXCXCXCXCXCXCXCXCXCXCX  Z.Z.Z.q.[ h 8.9.9.L.{.oXCXCXCXCXCXCXCXCXCXCXCXCXCXCXCXCXCXCXCXCXCXCXCXCXCXCXCXCXCXCXCXCX",
"CXCXCXCXCXCXCXCXCXCXCXCXCXCXCXCXg.Z.h.;.] k 9.9.9.[.oX3.CXCXCXCXCXCXCXCXCXCXCXCXCXCXCXCXCXCXCXCXCXCXCXCXCXCXCXCXCXCXCXCX",
"CXCXCXCXCXCXCXCXCXCXCXCXCXCXCX  2.-.>. .f W 9.9._.}.oX2 CXCXCXCXCXCXCXCXCXCXCXCXCXCXCXCXCXCXCXCXCXCXCXCXCXCXCXCXCXCXCXCX",
"CXCXCXCXCXCXCXCXCXCXCXCXCXCXCX).[.J 7 m . 6.9.'.[.oX XCXCXCXCXCXCXCXCXCXCXCXCXCXCXCXCXCXCXCXCXCXCXCXCXCXCXCXCXCXCXCXCXCX",
"CXCXCXCXCXCXCXCXCXCXCXCXCXCX5 V ].].G.l l 7.[.[.|. X  CXCXCXCXCXCXCXCXCXCXCXCXCXCXCXCXCXCXCXCXCXCXCXCXCXCXCXCXCXCXCXCXCX",
"CXCXCXCXCXCXCXCXCXCXCXCXCXCXbXZ CXCX1 1 1 1 1 1 2 CXCXCXCXCXCXCXCXCXCXCXCXCXCXCXCXCXCXCXCXCXCXCXCXCXCXCXCXCXCXCXCXCXCXCX",
"CXCXCXCXCXCXCXCXCXCXCXCXCXCXnXCXCXCXCXCXCXCXCXS.u.CXCXCXCXCXCXCXCXCXCXCXCXCXCXCXCXCXCXCXCXCXCXCXCXCXCXCXCXCXCXCXCXCXCXCX",
"CXCXCXCXCXCXCXCXCXCXCXCXCXG aX8 CXCXCXCXCXCXCXF.uXD.  CXCXCXCXCXCXCXCXCXCXCXCXCXCXCXCXCXCXCXCXCXCXCXCXCXCXCXCXCXCXCXCXCX",
"CXCXCXCXCXCXCXCXCXCXCXCXCX>X>X>XCXCXCXCXCXCXCX>X>X>X:XCXCXCXCXCXCXCXCXCXCXCXCXCXCXCXCXCXCXCXCXCXCXCXCXCXCXCXCXCXCXCXCXCX",
"CXCXCXCXCXCXCXCXCXCXCXCXCXCXCXCXCXCXCXCXCXCXCXCXCXCXCXCXCXCXCXCXCXCXCXCXCXCXCXCXCXCXCXCXCXCXCXCXCXCXCXCXCXCXCXCXCXCXCXCX",
"CXCXCXCXCXCXCXCXCXCXCXCXCXCXCXCXCXCXCXCXCXCXCXCXCXCXCXCXCXCXCXCXCXCXCXCXCXCXCXCXCXCXCXCXCXCXCXCXCXCXCXCXCXCXCXCXCXCXCXCX",
"CXCXCXCXCXCXCXCXCXCXCXCXCXCXCXCXCXCXCXCXCXCXCXCXCXCXCXCXCXCXCXCXCXCXCXCXCXCXCXCXCXCXCXCXCXCXCXCXCXCXCXCXCXCXCXCXCXCXCXCX",
"CXCXCXCXCXCXCXCXCXCXCXCXCXCXCXCXCXCXCXCXCXCXCXCXCXCXCXCXCXCXCXCXCXCXCXCXCXCXCXCXCXCXCXCXCXCXCXCXCXCXCXCXCXCXCXCXCXCXCXCX",
"CXCXCXCXCXCXCXCXCXCXCXCXCXCXCXCXCXCXCXCXCXCXCXCXCXCXCXCXCXCXCXCXCXCXCXCXCXCXCXCXCXCXCXCXCXCXCXCXCXCXCXCXCXCXCXCXCXCXCXCX"
};
