/* XPM */
static char *result[] = {
/* columns rows colors chars-per-pixel */
"60 60 232 2 ",
"   c black",
".  c #010000",
"X  c #030101",
"o  c #050203",
"O  c #050403",
"+  c #050104",
"@  c #060305",
"#  c #000504",
"$  c #080603",
"%  c #080404",
"&  c #090506",
"*  c #090507",
"=  c #0B0507",
"-  c #0B0607",
";  c #0F0607",
":  c #0F0A06",
">  c #0F0B06",
",  c #0A0208",
"<  c #090508",
"1  c #0A0509",
"2  c #0E070B",
"3  c #000A09",
"4  c #06090A",
"5  c gray4",
"6  c #0E0809",
"7  c #0C0A0E",
"8  c #0E0A0F",
"9  c #110C07",
"0  c #100608",
"q  c #10040E",
"w  c #14090A",
"e  c #130A0C",
"r  c #10080F",
"t  c #140A0E",
"y  c #140B0F",
"u  c #1E0B0C",
"i  c #1F150D",
"p  c #1F160D",
"a  c #0D0C10",
"s  c #0B0D1E",
"d  c #140712",
"f  c #110A10",
"g  c #110A11",
"h  c #130A11",
"j  c #150C11",
"k  c #150C14",
"l  c #170D15",
"z  c #170D16",
"x  c #1D0F13",
"c  c #180D16",
"v  c #1C0F1A",
"b  c #001514",
"n  c #0A1614",
"m  c #001A19",
"M  c #1F1814",
"N  c #15111E",
"B  c #12191B",
"V  c #210D11",
"C  c #240E13",
"Z  c #2C0F18",
"A  c #201115",
"S  c #221216",
"D  c #211615",
"F  c #251319",
"G  c #27151A",
"H  c #20121E",
"J  c #24131C",
"K  c #24141C",
"L  c #24141E",
"P  c #2B1318",
"I  c #2C1419",
"U  c #201D1B",
"Y  c #391515",
"T  c #321A1C",
"R  c #3D1E1C",
"E  c #00301E",
"W  c #3E2B1A",
"Q  c #131120",
"!  c #141E23",
"~  c #320D24",
"^  c #221320",
"/  c #261524",
"(  c #291721",
")  c #291727",
"_  c #2C1826",
"`  c #2C1927",
"'  c #2F1A27",
"]  c #20182C",
"[  c #2C1828",
"{  c #2C1928",
"}  c #2D1929",
"|  c #311A21",
" . c #321A22",
".. c #331B22",
"X. c #351C23",
"o. c #321B26",
"O. c #3B1820",
"+. c #3C1920",
"@. c #371E29",
"#. c #361E2D",
"$. c #38192A",
"%. c #381F2C",
"&. c #381F2E",
"*. c #3A1F2E",
"=. c #002A28",
"-. c #0C2A2A",
";. c #0A2D2D",
":. c #142025",
">. c #152228",
",. c #1E2534",
"<. c #182B34",
"1. c #182B35",
"2. c #182C3A",
"3. c #003E3B",
"4. c #1B323E",
"5. c #19343F",
"6. c #2A2A2B",
"7. c #2B292C",
"8. c #3E2129",
"9. c #3E2231",
"0. c #3F2332",
"q. c #4B1019",
"w. c #501D1A",
"e. c #511D1A",
"r. c #5E2714",
"t. c #441A20",
"y. c #570E31",
"u. c #462126",
"i. c #40212B",
"p. c #42232C",
"a. c #552125",
"s. c #512B27",
"d. c #592B29",
"f. c #5D2E2A",
"g. c #422332",
"h. c #422433",
"j. c #432533",
"k. c #442534",
"l. c #492631",
"z. c #492731",
"x. c #492736",
"c. c #4F2A35",
"v. c #4C2836",
"b. c #4C2937",
"n. c #4E2937",
"m. c #4E2A38",
"M. c #4F2A38",
"N. c #512A36",
"B. c #512B36",
"V. c #512B39",
"C. c #522C39",
"Z. c #552D39",
"A. c #552D3B",
"S. c #572E3B",
"D. c #582F3C",
"F. c #592F3C",
"G. c #5A2F3C",
"H. c #423431",
"J. c #4F3C32",
"K. c #5B303D",
"L. c #703121",
"P. c #743924",
"I. c #7F203A",
"U. c #683B34",
"Y. c #773B37",
"T. c #5F493C",
"R. c #1D3240",
"E. c #143A42",
"W. c #123D44",
"Q. c #3A3E4B",
"!. c #2C3954",
"~. c #4F1443",
"^. c #5A174C",
"/. c #5D174C",
"(. c #0D4448",
"). c #09494A",
"_. c #03514F",
"`. c #005551",
"'. c #005652",
"]. c #006C4E",
"[. c #007545",
"{. c #00714D",
"}. c #00764C",
"|. c #007948",
" X c #007E4B",
".X c #0C6B54",
"XX c #4E4A4E",
"oX c #684E41",
"OX c #695042",
"+X c #725748",
"@X c #7E6150",
"#X c #70625C",
"$X c #624463",
"%X c #6C6075",
"&X c #90332D",
"*X c #90352E",
"=X c #90352F",
"-X c #86203E",
";X c #854831",
":X c #8F633D",
">X c #80174E",
",X c #85174E",
"<X c #8C174F",
"1X c #831D54",
"2X c #AC2546",
"3X c #C22941",
"4X c #994C46",
"5X c #825146",
"6X c #A4514B",
"7X c #AD5359",
"8X c #8A6956",
"9X c #8F6D5A",
"0X c #9B7662",
"qX c #9A7763",
"wX c #A97E69",
"eX c #D26558",
"rX c #D9785E",
"tX c #D76F65",
"yX c #DD7864",
"uX c #BD9077",
"iX c #C3957B",
"pX c #EFA566",
"aX c #FFB06D",
"sX c #606681",
"dX c #ABABB2",
"fX c #EC9C85",
"gX c #D4A388",
"hX c #EBB394",
"jX c #F1C0A6",
"kX c #FEC3A1",
"lX c #FFC3A1",
"zX c None",
/* pixels */
"zXzXzXzXzXzXzXzXzXzXzXzXzXzXzXzXzXzXzXzXzXzXzXzXzXzXzXzXzXzXzXzXzXzXzXzXzXzXzXzXzXzXzXzXzXzXzXzXzXzXzXzXzXzXzXzXzXzXzXzX",
"zXzXzXzXzXzXzXzXzXzXzXzXzXzXzXzXzXzXzXzXzXzXzXzXzXzXzXzXzXzXzXzXzXzXzXzXzXzXzXzXzXzXzXzXzXzXzXzXzXzXzXzXzXzXzXzXzXzXzXzX",
"zXzXzXzXzXzXzXzXzXzXzXzXzXzXzXzXzXzXzXzXzXzXzXzXzXzXzXzXzXzXzXzXzXzXzXzXzXzXzXzXzXzXzXzXzXzXzXzXzXzXzXzXzXzXzXzXzXzXzXzX",
"zXzXzXzXzXzXzXzXzXzXzXzXzXzXzXzXzXzXzXzXzXzXzXzXzXzXzXzXzXzXzXzXzXzXzXzXzXzXzXzXzXzXzXzXzXzXzXzXzXzXzXzXzXzXzXzXzXzXzXzX",
"zXzXzXzXzXzXzXzXzXzXzXzXzXzXzXzXzXzXzXzXzXzXzXzXzXzXzXzXzXzXzXzXzXzXzXzXzXzXzXzXzXzXzXzXzXzXzXzXzXzXzXzXzXzXzXzXzXzXzXzX",
"zXzXzXzXzXzXzXzXzXzXzXzXzXzXzXzXzXzXzXzXzXzXzXzXzXzXzXzXzXzXzXzXzXzXzXzXzXzXzXzXzXzXzXzXzXzXzXzXzXzXzXzXzXzXzXzXzXzXzXzX",
"zXzXzXzXzXzXzXzXzXzXzXzXzXzXzXzXzXzXzXzXzXzXzXzXzXzXzXzXzXzXzXzXzXzXzXzXzXzXzXzXzXzXzXzXzXzXzXzXzXzXzXzXzXzXzXzXzXzXzXzX",
"zXzXzXzXzXzXzXzXzXzXzXzXzXzXzXzXzXzXzXzXzXzXzXzXzXzXzXzXzXzXzXzXzXzXzXzXzXzXzXzXzXzXzXzXzXzXzXzXzXzXzXzXzXzXzXzXzXzXzXzX",
"zXzXzXzXzXzXzXzXzXzXzXzXzXzXzXzXzXzXzXzXzXzXzXzXzXzXzXzXzXzXzXzXzXzXzXzXzXzXzXzXzXzXzXzXzXzXzXzXzXzXzXzXzXzXzXzXzXzXzXzX",
"zXzXzXzXzXzXzXzXzXzXzXzXzXzXzXzXzXzXzXzXzXzXzXzXzXzXzXzXzXzXzXzXzXzXzXzXzXzXzXzXzXzXzXzXzXzXzXzXzXzXzXzXzXzXzXzXzXzXzXzX",
"zXzXzXzXzXzXzXzXzXzXzXzXzXzXzXzXzXzXzXzXzXzXzXzXzXzXzXzXzXzXzXzXzXzXzXzXzXzXzXzXzXzXzXzXzXzXzXzXzXzXzXzXzXzXzXzXzXzXzXzX",
"zXzXzXzXzXzXzXzXzXzXzXzXzXzXzXzXzXzXzXzXzXzXzXzXzXzXzXzXzXzXzXzXzXzXzXzXzXzXzXzXzXzXzXzXzXzXzXzXzXzXzXzXzXzXzXzXzXzXzXzX",
"zXzXzXzXzXzXzXzXzXzXzXzXzXzXzXzXzXzXzXzXzXzXzXzXzXzXzXzXzXzXzXzXzXzXzXzXzXzXzXzXzXzXzXzXzXzXzXzXzXzXzXzXzXzXzXzXzXzXzXzX",
"zXzXzXzXzXzXzXzXzXzXzXzXzXzXzXzXzXzXzXzXzXzXzXzXzXzXzXzXzXzXzXzXzXzXzXzXzXzXzXzXzXzXzXzXzXzXzXzXzXzXzXzXzXzXzXzXzXzXzXzX",
"zXzXzXzXzXzXzXzXzXzXzXzXzXzXzXzXzXzXzXzXzXzXzXzXzXzXzXzXzXzXzXzXzXzXzXzXzXzXzXzXzXzXzXzXzXzXzXzXzXzXzXzXzXzXzXzXzXzXzXzX",
"zXzXzXzXzXzXzXzXzXzXzXzXzXzXzXzXzXzXzXzXzXzXzXzXzXzXzXzXzXzXzXzXzXzXzXzXzXzXzXzXzXzXzXzXzXzXzXzXzXzXzXzXzXzXzXzXzXzXzXzX",
"zXzXzXzXzXzXzXzXzXzXzXzXzXzXzXzXzXzXzXzXzXzXzXzXzXzXzXzXzXzXzXzXzXzXzXzXzXzXzXzXzXzXzXzXzXzXzXzXzXzXzXzXzXzXzXzXzXzXzXzX",
"zXzXzXzXzXzXzXzXzXzXzXzXzXzXzXzXzXzXzXzXzXzXzXzXzXzXzXzXzXzXzXzXzXzXzXzXzXzXzXzXzXzXzXzXzXzXzXzXzXzXzXzXzXzXzXzXzXzXzXzX",
"zXzXzXzXzXzXzXzXzXzXzXzXzXzXzXzXzXzXzXzXzXzXzXzXzXzXzXzXzXzXzXzXzXzXzXzXzXzXzXzXzXzXzXzXzXzXzXzXzXzXzXzXzXzXzXzXzXzXzXzX",
"zXzXzXzXzXzXzXzXzXzXzXzXzXzXzXzXzXzXzXzXzXzXzXzXzXzXzXzXzXzXzXzXzXzXzXzXzXzXzXzXzXzXzXzXzXzXzXzXzXzXzXzXzXzXzXzXzXzXzXzX",
"zXzXzXzXzXzXzXzXzXzXzXzXzXzXzXzXzXzXzXzXzXzXzXzXzXzXzXzXzXzXzXzXzXzXzXzXzXzXzXzXzXzXzXzXzXzXzXzXzXzXzXzXzXzXzXzXzXzXzXzX",
"zXzXzXzXzXzXzXzXzXzXzXzXzXzXzXzXzXzX      zXzXzXzXzXzXzXzXzXzXzXzXzXzXzXzXzXzXzXzXzXzXzXzXzXzXzXzXzXzXzXzXzXzXzXzXzXzXzX",
"zXzXzXzXzXzXzXzXzXzXzXzXzXzXzXzXw.t.0 0 ;   zXzXzXzXzXzXzXzXzXzXzXzXzXzXzXzXzXzXzXzXzXzXzXzXzXzXzXzXzXzXzXzXzXzXzXzXzXzX",
"zXzXzXzXzXzXzXzXzXzXzXzXzXzXzXzX-XY a.+.I P u zXzXzXzXzXzXzXzXzXzXzXzXzXzXzXzXzXzXzXzXzXzXzXzXzXzXzXzXzXzXzXzXzXzXzXzXzX",
"zXzXzXzXzXzXzXzXzXzXzXzXzXzXzXzX1Xe.O.D OXM & zXzXzXzXzXzXzXzXzXzXzXzXzXzXzXzXzXzXzXzXzXzXzXzXzXzXzXzXzXzXzXzXzXzXzXzXzX",
"zXzXzXzXzXzXzXzXzXzXzXzXzXzXzX3X2XC T jXkXgX  zXzXzXzXzXzXzXzXzXzXzXzXzXzXzXzXzXzXzXzXzXzXzXzXzXzXzXzXzXzXzXzXzXzXzXzXzX",
"zXzXzXzXzXzXzXzXzXzXzXzXzXzXzXzX).V T.lXlXlXzXzXzXzXzXzXzXzXzXzXzXzXzXzXzXzXzXzXzXzXzXzXzXzXzXzXzXzXzXzXzXzXzXzXzXzXzXzX",
"zXzXzXzXzXzXzXzXzXzXzXzXzXzXzXzXzX  s.lXlXlXzXzXzXzXzXzXzXzXzXzXzXzXzXzXzXzXzXzXzXzXzXzXzXzXzXzXzXzXzXzXzXzXzXzXzXzXzXzX",
"zXzXzXzXzXzXzXzXzXzXzXzXzXzXzXzXzXzXzXtXJ.zXzXzXzXzXzXzXzXzXzXzXzXzXzXzXzXzXzXzXzXzXzXzXzXzXzXzXzXzXzXzXzXzXzXzXzXzXzXzX",
"zXzXzXzXzXzXzXzXzXzXzXzXzXzXzXzXzX  R fX8X  zXzXzXzXzXzXzXzXzXzXzXzXzXzXzXzXzXzXzXzXzXzXzXzXzXzXzXzXzXzXzXzXzXzXzXzXzXzX",
"zXzXzXzXzXzXzXzXzXzXzXzXzXzXzXzXx G #XlXqX5 ..zXzXzXzXzXzXzXzXzXzXzXzXzXzXzXzXzXzXzXzXzXzXzXzXzXzXzXzXzXzXzXzXzXzXzXzXzX",
"zXzXzXzXzXzXzXzXzXzXzXzXzXzXzX  K.D.XX6.dXB.( | zXzXzXzXzXzXzXzXzXzXzXzXzXzXzXzXzXzXzXzXzXzXzXzXzXzXzXzXzXzXzXzXzXzXzXzX",
"zXzXzXzXzXzXzXzXzXzXzXzXzXzXzXc.x.K K.7.= K.y n.X.zXzXzXzXzXzXzXzXzXzXzXzXzXzXzXzXzXzXzXzXzXzXzXzXzXzXzXzXzXzXzXzXzXzXzX",
"zXzXzXzXzXzXzXzXzXzXzXzXzXzXo F.*.c K.z.K.K.` @ %.p.zXzXzXzXzXzXzXzXzXzXzXzXzXzXzXzXzXzXzXzXzXzXzXzXzXzXzXzXzXzXzXzXzXzX",
"zXzXzXzXzXzXzXzXzXzXzXzXzXzXi.K.y ) M.Z.A k.l _ A.K.  zXzXzXzXzXzXzXzXzXzXzXzXzXzXzXzXzXzXzXzXzXzXzXzXzXzXzXzXzXzXzXzXzX",
"zXzXzXzXzXzXzXzXzXzXzXzXzX6 K.m.k ) { &.J h 9Xo.K.N.zXzXzXzXzXzXzXzXzXzXzXzXzXzXzXzXzXzXzXzXzXzXzXzXzXzXzXzXzXzXzXzXzXzX",
"zXzXzXzXzXzXzXzXzXzXzXzXzXK.K.k.v H Z q.O hXuX- @.z.zXzXzXzXzXzXzXzXzXzXzXzXzXzXzXzXzXzXzXzXzXzXzXzXzXzXzXzXzXzXzXzXzXzX",
"zXzXzXzXzXzXzXzXzXzXzXzXS K.F.[   * 2 1 iXlXH.Q e ' zXzXzXzXzXzXzXzXzXzXzXzXzXzXzXzXzXzXzXzXzXzXzXzXzXzXzXzXzXzXzXzXzXzX",
"zXzXzXzXzXzXzXzXzXzXzXzXF G.9./   K.h.)   + j N e   zXzXzXzXzXzXzXzXzXzXzXzXzXzXzXzXzXzXzXzXzXzXzXzXzXzXzXzXzXzXzXzXzXzX",
"zXzXzXzXzXzXzXzXzXzXzX  K.0./ zX  K.V.^ ~.>Xs ] e   zXzXzXzXzXzXzXzXzXzXzXzXzXzXzXzXzXzXzXzXzXzXzXzXzXzXzXzXzXzXzXzXzXzX",
"zXzXzXzXzXzXzXzXzXzXzX  t < zXzX .K.V.d ^.,X~ %X  zXzXzXzXzXzXzXzXzXzXzXzXzXzXzXzXzXzXzXzXzXzXzXzXzXzXzXzXzXzXzXzXzXzXzX",
"zXzXzXzXzXzXzXzXzXzXzXzXT.@XzXzX8.K.v.q /.<XI.$Xf zXzXzXzXzXzXzXzXzXzXzXzXzXzXzXzXzXzXzXzXzXzXzXzXzXzXzXzXzXzXzXzXzXzXzX",
"zXzXzXzXzXzXzXzXzXzXzXzXT.lX  zXl.K.g., y.y.$.Q.r zXzXzXzXzXzXzXzXzXzXzXzXzXzXzXzXzXzXzXzXzXzXzXzXzXzXzXzXzXzXzXzXzXzXzX",
"zXzXzXzXzXzXzXzXzXzXzX  4X0XpX  C.S.L B :.4.2.,.8   zXzXzXzXzXzXzXzXzXzXzXzXzXzXzXzXzXzXzXzXzXzXzXzXzXzXzXzXzXzXzXzXzXzX",
"zXzXzXzXzXzXzXzXzXzXzX$ > > : . C.b.4 ! 4.4.!.sXn   zXzXzXzXzXzXzXzXzXzXzXzXzXzXzXzXzXzXzXzXzXzXzXzXzXzXzXzXzXzXzXzXzXzX",
"zXzXzXzXzXzXzXzXzXzXzX9 p p i X j.#.4 4.4.4.R..X X  zXzXzXzXzXzXzXzXzXzXzXzXzXzXzXzXzXzXzXzXzXzXzXzXzXzXzXzXzXzXzXzXzXzX",
"zXzXzXzXzXzXzXzXzXzXzX:XaXyX7Xw } g >.4.4.4.(.]. X  zXzXzXzXzXzXzXzXzXzXzXzXzXzXzXzXzXzXzXzXzXzXzXzXzXzXzXzXzXzXzXzXzXzX",
"zXzXzXzXzXzXzXzXzXzXzXW f.d.u.% ) a <.4.4.4._.}. X  zXzXzXzXzXzXzXzXzXzXzXzXzXzXzXzXzXzXzXzXzXzXzXzXzXzXzXzXzXzXzXzXzXzX",
"zXzXzXzXzXzXzXzXzXzXzXzXzX=.;.z 7 <.4.4.4.W.'. X X  zXzXzXzXzXzXzXzXzXzXzXzXzXzXzXzXzXzXzXzXzXzXzXzXzXzXzXzXzXzXzXzXzXzX",
"zXzXzXzXzXzXzXzXzXzXzXzXzXU '.-.1.4.4.4.E.'.'. X[.  zXzXzXzXzXzXzXzXzXzXzXzXzXzXzXzXzXzXzXzXzXzXzXzXzXzXzXzXzXzXzXzXzXzX",
"zXzXzXzXzXzXzXzXzXzXzXzXoX6X# `.'.5.5.'.'.'.{.|.  zXzXzXzXzXzXzXzXzXzXzXzXzXzXzXzXzXzXzXzXzXzXzXzXzXzXzXzXzXzXzXzXzXzXzX",
"zXzXzXzXzXzXzXzXzXzXzX  wXzXzX3 3.'.'.'.'.'.E U.  zXzXzXzXzXzXzXzXzXzXzXzXzXzXzXzXzXzXzXzXzXzXzXzXzXzXzXzXzXzXzXzXzXzXzX",
"zXzXzXzXzXzXzXzXzXzXzX+X;XzXzXzXzXb m m zXzXzXL.r.zXzXzXzXzXzXzXzXzXzXzXzXzXzXzXzXzXzXzXzXzXzXzXzXzXzXzXzXzXzXzXzXzXzXzX",
"zXzXzXzXzXzXzXzXzXzXzX5XrX  zXzXzXzXzXzXzXzXzXY.eXP.  zXzXzXzXzXzXzXzXzXzXzXzXzXzXzXzXzXzXzXzXzXzXzXzXzXzXzXzXzXzXzXzXzX",
"zXzXzXzXzXzXzXzXzXzXzX=X=X&XzXzXzXzXzXzXzXzXzX=X=X=X*XzXzXzXzXzXzXzXzXzXzXzXzXzXzXzXzXzXzXzXzXzXzXzXzXzXzXzXzXzXzXzXzXzX",
"zXzXzXzXzXzXzXzXzXzXzXzXzXzXzXzXzXzXzXzXzXzXzXzXzXzXzXzXzXzXzXzXzXzXzXzXzXzXzXzXzXzXzXzXzXzXzXzXzXzXzXzXzXzXzXzXzXzXzXzX",
"zXzXzXzXzXzXzXzXzXzXzXzXzXzXzXzXzXzXzXzXzXzXzXzXzXzXzXzXzXzXzXzXzXzXzXzXzXzXzXzXzXzXzXzXzXzXzXzXzXzXzXzXzXzXzXzXzXzXzXzX",
"zXzXzXzXzXzXzXzXzXzXzXzXzXzXzXzXzXzXzXzXzXzXzXzXzXzXzXzXzXzXzXzXzXzXzXzXzXzXzXzXzXzXzXzXzXzXzXzXzXzXzXzXzXzXzXzXzXzXzXzX",
"zXzXzXzXzXzXzXzXzXzXzXzXzXzXzXzXzXzXzXzXzXzXzXzXzXzXzXzXzXzXzXzXzXzXzXzXzXzXzXzXzXzXzXzXzXzXzXzXzXzXzXzXzXzXzXzXzXzXzXzX",
"zXzXzXzXzXzXzXzXzXzXzXzXzXzXzXzXzXzXzXzXzXzXzXzXzXzXzXzXzXzXzXzXzXzXzXzXzXzXzXzXzXzXzXzXzXzXzXzXzXzXzXzXzXzXzXzXzXzXzXzX"
};
