/* XPM */
static char *result[] = {
/* columns rows colors chars-per-pixel */
"60 60 251 2 ",
"   c black",
".  c #020001",
"X  c #020102",
"o  c #030102",
"O  c #040203",
"+  c #050303",
"@  c #050104",
"#  c #050204",
"$  c #060305",
"%  c #070406",
"&  c #090506",
"*  c #040709",
"=  c #080508",
"-  c #0D0708",
";  c #0E0709",
":  c #0C060B",
">  c #0C070C",
",  c #000A0A",
"<  c #06090A",
"1  c #000C09",
"2  c #000E08",
"3  c #060C0F",
"4  c #0F0809",
"5  c #0C090D",
"6  c #0E080D",
"7  c #0F080E",
"8  c #100807",
"9  c #10080A",
"0  c #10080B",
"q  c #11090B",
"w  c #12090C",
"e  c #10090F",
"r  c #11090F",
"t  c #1A0D0C",
"y  c #17100A",
"u  c #1B130B",
"i  c #070B1E",
"p  c #110A11",
"a  c #130A12",
"s  c #190D10",
"d  c #1A0E11",
"f  c #1B0E11",
"g  c #1B0F11",
"h  c #1F0E10",
"j  c #1C0F13",
"k  c #1D0F13",
"l  c #1E0F13",
"z  c #180E17",
"x  c #190E17",
"c  c #1A0E18",
"v  c #0C1112",
"b  c #1D1612",
"n  c #1C1116",
"m  c #1C1516",
"M  c #171915",
"N  c #1F1814",
"B  c #101C1E",
"V  c #2F0A0F",
"C  c #240E13",
"Z  c #2E0F15",
"A  c #21081C",
"S  c #320A11",
"D  c #211116",
"F  c #21121F",
"G  c #24191F",
"H  c #341312",
"J  c #321A17",
"K  c #32171B",
"L  c #38161D",
"P  c #002516",
"I  c #002717",
"U  c #04231E",
"Y  c #3B2919",
"T  c #3F2C1B",
"R  c #090F2B",
"E  c #0E1A20",
"W  c #091029",
"Q  c #09102A",
"!  c #08112A",
"~  c #09112A",
"^  c #09112B",
"/  c #0A102B",
"(  c #0B142C",
")  c #0C142D",
"_  c #0C152D",
"`  c #0F152F",
"'  c #0E1A30",
"]  c #121632",
"[  c #131732",
"{  c #151935",
"}  c #171C37",
"|  c #1A1D39",
" . c #1B1E3A",
".. c #320C2A",
"X. c #231422",
"o. c #271521",
"O. c #251423",
"+. c #261524",
"@. c #271525",
"#. c #291727",
"$. c #2A1727",
"%. c #2F1820",
"&. c #2F1A27",
"*. c #2C1828",
"=. c #2E1928",
"-. c #2F1A29",
";. c #331B22",
":. c #341B23",
">. c #321B27",
",. c #371D25",
"<. c #3B1820",
"1. c #381D25",
"2. c #381E26",
"3. c #3A1E27",
"4. c #301B2A",
"5. c #311B2B",
"6. c #321C2B",
"7. c #351D2D",
"8. c #381F2C",
"9. c #0B2B2F",
"0. c #132F22",
"q. c #062D30",
"w. c #182A33",
"e. c #1F223E",
"r. c #003734",
"t. c #19333E",
"y. c #1B323E",
"u. c #3E2129",
"i. c #3A202E",
"p. c #372C2D",
"a. c #20223E",
"s. c #21223F",
"d. c #3B2030",
"f. c #3B2130",
"g. c #3E2231",
"h. c #3F2331",
"j. c #3F2332",
"k. c #471A1A",
"l. c #4E1C19",
"z. c #401A22",
"x. c #4F1F24",
"c. c #47182F",
"v. c #76182B",
"b. c #44242D",
"n. c #42332A",
"m. c #402331",
"M. c #412332",
"N. c #432430",
"B. c #452533",
"V. c #442534",
"C. c #472635",
"Z. c #4C2832",
"A. c #4B2836",
"S. c #4B2837",
"D. c #4C2834",
"F. c #4C2937",
"G. c #4E2A38",
"H. c #4F2A38",
"J. c #512B36",
"K. c #512B39",
"L. c #552D3A",
"P. c #562D3B",
"I. c #572E3B",
"U. c #592F3C",
"Y. c #4F3D32",
"T. c #5B303D",
"R. c #702926",
"E. c #7C3922",
"W. c #652F36",
"Q. c #5F4228",
"!. c #40433D",
"~. c #584338",
"^. c #183540",
"/. c #252543",
"(. c #262643",
"). c #272743",
"_. c #262644",
"`. c #272744",
"'. c #272D47",
"]. c #551649",
"[. c #671945",
"{. c #68174C",
"}. c #76174D",
"|. c #7D174E",
" X c #731B4A",
".X c #7B1B49",
"XX c #0D4347",
"oX c #0B4749",
"OX c #0C4548",
"+X c #00504C",
"@X c #00524E",
"#X c #005451",
"$X c #005651",
"%X c #005751",
"&X c #005652",
"*X c #3A405B",
"=X c #3C425D",
"-X c #00694E",
";X c #007646",
":X c #007A4B",
">X c #007C4A",
",X c #007E4B",
"<X c #40425E",
"1X c #695042",
"2X c #6F5546",
"3X c #5E6157",
"4X c #7F6050",
"5X c #474B66",
"6X c #5D627C",
"7X c #90352F",
"8X c #A5263F",
"9X c #AC243A",
"0X c #83413C",
"qX c #85423D",
"wX c #B64B27",
"eX c #AF4B30",
"rX c #9C1D4B",
"tX c #A21E4A",
"yX c #AE2348",
"uX c #BB5540",
"iX c #AF5750",
"pX c #BC5E57",
"aX c #BB5B5C",
"sX c #846554",
"dX c #8A6956",
"fX c #9A7561",
"gX c #9C7762",
"hX c #9F7964",
"jX c #D56A62",
"kX c #C07360",
"lX c #AB836C",
"zX c #AF866E",
"xX c #BE9178",
"cX c #DF9A5F",
"vX c #E68666",
"bX c #FFB06D",
"nX c #616681",
"mX c #8185A1",
"MX c #868CA7",
"NX c #9DA3BE",
"BX c #DEA78A",
"VX c #E0AB8D",
"CX c #EBB699",
"ZX c #F1B092",
"AX c #F3B999",
"SX c #F5BC9D",
"DX c #FDBF9D",
"FX c #FFC3A1",
"GX c #9EA4C0",
"HX c #A3A8C4",
"JX c None",
/* pixels */
"JXJXJXJXJXJXJXJXJXJXJXJXJXJXJXJXJXJXJXJXJXJXJXJXJXJXJXJXJXJXJXJXJXJXJXJXJXJXJXJXJXJXJXJXJXJXJXJXJXJXJXJXJXJXJXJXJXJXJXJX",
"JXJXJXJXJXJXJXJXJXJXJXJXJXJXJXJXJXJXJXJXJXJXJXJXJXJXJXJXJXJXJXJXJXJXJXJXJXJXJXJXJXJXJXJXJXJXJXJXJXJXJXJXJXJXJXJXJXJXJXJX",
"JXJXJXJXJXJXJXJXJXJXJXJXJXJXJXJXJXJXJXJXJXJXJXJXJXJXJXJXJXJXJXJXJXJXJXJXJXJXJXJXJXJXJXJXJXJXJXJXJXJXJXJXJXJXJXJXJXJXJXJX",
"JXJXJXJXJXJXJXJXJXJXJXJXJXJXJXJXJXJXJXJXJXJXJXJXJXJXJXJXJXJXJXJXJXJXJXJXJXJXJXJXJXJXJXJXJXJXJXJXJXJXJXJXJXJXJXJXJXJXJXJX",
"JXJXJXJXJXJXJXJXJXJXJXJXJXJXJXJXJXJXJXJXJXJXJXJXJXJXJXJXJXJXJXJXJXJXJXJXJXJXJXJXJXJXJXJXJXJXJXJXJXJXJXJXJXJXJXJXJXJXJXJX",
"JXJXJXJXJXJXJXJXJXJXJXJXJXJXJXJXJXJXJXJXJXJXJXJXJXJXJXJXJXJXJXJXJXJXJXJXJXJXJXJXJXJXJXJXJXJXJXJXJXJXJXJXJXJXJXJXJXJXJXJX",
"JXJXJXJXJXJXJXJXJXJXJXJXJXJXJXJXJXJXJXJXJXJXJXJXJXJXJXJXJXJXJXJXJXJXJXJXJXJXJXJXJXJXJXJXJXJXJXJXJXJXJXJXJXJXJXJXJXJXJXJX",
"JXJXJXJXJXJXJXJXJXJXJXJXJXJXJXJXJXJXJXJXJXJXJXJXJXJXJXJXJXJXJXJXJXJXJXJXJXJXJXJXJXJXJXJXJXJXJXJXJXJXJXJXJXJXJXJXJXJXJXJX",
"JXJXJXJXJXJXJXJXJXJXJXJXJXJXJXJXJXJXJXJXJXJXJXJXJXJXJXJXJXJXJXJXJXJXJXJXJXJXJXJXJXJXJXJXJXJXJXJXJXJXJXJXJXJXJXJXJXJXJXJX",
"JXJXJXJXJXJXJXJXJXJXJXJXJXJXJXJXJXJXJXJXJXJXJXJXJXJXJXJXJXJXJXJXJXJXJXJXJXJXJXJXJXJXJXJXJXJXJXJXJXJXJXJXJXJXJXJXJXJXJXJX",
"JXJXJXJXJXJXJXJXJXJXJXJXJXJXJXJXJXJXJXJXJXJXJXJXJXJXJXJXJXJXJXJXJXJXJXJXJXJXJXJXJXJXJXJXJXJXJXJXJXJXJXJXJXJXJXJXJXJXJXJX",
"JXJXJXJXJXJXJXJXJXJXJXJXJXJXJXJXJXJXJXJXJXJXJXJXJXJXJXJXJXJXJXJXJXJXJXJXJXJXJXJXJXJXJXJXJXJXJXJXJXJXJXJXJXJXJXJXJXJXJXJX",
"JXJXJXJXJXJXJXJXJXJXJXJXJXJXJXJXJXJXJXJXJXJXJXJXJXJXJXJXJXJXJXJXJXJXJXJXJXJXJXJXJXJXJXJXJXJXJXJXJXJXJXJXJXJXJXJXJXJXJXJX",
"JXJXJXJXJXJXJXJXJXJXJXJXJXJXJXJXJXJXJXJXJXJXJXJXJXJXJXJXJXJXJXJXJXJXJXJXJXJXJXJXJXJXJXJXJXJXJXJXJXJXJXJXJXJXJXJXJXJXJXJX",
"JXJXJXJXJXJXJXJXJXJXJXJXJXJXJXJXJXJXJXJXJXJXJXJXJXJXJXJXJXJXJXJXJXJXJXJXJXJXJXJXJXJXJXJXJXJXJXJXJXJXJXJXJXJXJXJXJXJXJXJX",
"JXJXJXJXJXJXJXJXJXJXJXJXJXJXJXJXJXJXJXJXJXJXJXJXJXJXJXJXJXJXJXJXJXJXJXJXJXJXJXJXJXJXJXJXJXJXJXJXJXJXJXJXJXJXJXJXJXJXJXJX",
"JXJXJXJXJXJXJXJXJXJXJXJXJXJXJXJXJXJXJXJXJXJXJXJXJXJXJXJXJXJXJXJXJXJXJXJXJXJXJXJXJXJXJXJXJXJXJXJXJXJXJXJXJXJXJXJXJXJXJXJX",
"JXJXJXJXJXJXJXJXJXJXJXJXJXJXJXJXJXJXJXJXJXJXJXJXJXJXJXJXJXJXJXJXJXJXJXJXJXJXJXJXJXJXJXJXJXJXJXJXJXJXJXJXJXJXJXJXJXJXJXJX",
"JXJXJXJXJXJXJXJXJXJXJXJXJXJXJXJXJXJXJXJXJXJXJXJXJXJXJXJXJXJXJXJXJXJXJXJXJXJXJXJXJXJXJXJXJXJXJXJXJXJXJXJXJXJXJXJXJXJXJXJX",
"JXJXJXJXJXJXJXJXJXJXJXJXJXJXJXJXJXJXJXJXJXJXJXJXJXJXJXJXJXJXJXJXJXJXQ =XJX'.JXJXJXJXJXJXJXJXJXJXJXJXJXJXJXJXJXJXJXJXJXJX",
"JXJXJXJXJXJXJXJXJXJXJXJXJXJXJXJXJXJXJXJXJXJXJXJXJXJXJXJXJXJXJXJXJXJXQ (.JX(.JXJX~ NX/ JXJXJXJXJXJXJXJXJXJXJXJXJXJXJXJXJX",
"JXJXJXJXJXJXJXJXJXJXJXJXJXJXJXJXJXJXJXJXJXJXJXJXJXJXJXJXJXJXJXJXJXJXJXJXJXJXJXJXJX`.! s./ JXJXJXJXJXJXJXJXJXJXJXJXJXJXJX",
"JXJXJXJXJXJXJXJXJXJXJXJXJXJXJXJXJXJXJXJXJXJXJXJXJXJXJXJXJXJXJXJXJXJXJXJXJXJXJXJXJXJXJXJX`.JXJXJXJXJXJXJXJXJXJXJXJXJXJXJX",
"JXJXJXJXJXJXJXJXJXJXJXJXJXJXJXJXJXJXJXJXJXJXJXJXJXJXl.C     JXJXJXJXJXJXJXJXJXJXJXJXJXJXJXJX6XJXJXJXJXJXJXJXJXJXJXJXJXJX",
"JXJXJXJXJXJXJXJXJXJXJXJXJXJXJXJXJXJXJXJXJXJXJXJXJXZ c.H x.z.k.JXJXJXJXJXJXJXJXJXJXJXJXJXJXJXJXJXJXJXJXJXJXJXJXJXJXJXJXJX",
"JXJXJXJXJXJXJXJXJXJXJXJXJXJXJXJXJXJXJXJXJXJXJXJXJXrX[.R.<.s b JXJXJXJXJXJXJXJXJXJXJXJXJXJXJXJXJXnXJXJXJXJXJXJXJXJXJXJXJX",
"JXJXJXJXJXJXJXJXJXJXJXJXJXJXJXJXJXJXJXJXJXJXJXJXJX X.XL & SXhXJXJXJXJXJXJXJXJXJXJXJXJXJXJXJXJXJXJX_.JXJXJXJXJXJXJXJXJXJX",
"JXJXJXJXJXJXJXJXJXJXJXJXJXJXJXJXJXJXJXJXJXJXJXJXJXM ;Xl fXCXhXJXJXJXJXJXJXJXJXJXJXJXJXJXJXJXJXJXJXmXJXJXJXJXJXJXJXJXJXJX",
"JXJXJXJXJXJXJXJXJXJXJXJXJXJXJXJXJXJXJXJXJXJXJXJXJXJX0.f zXFXhXJXJXJXJXJXJXJXJXJXJXJXJXJXJXJXJXJXJXJX*XJXJXJXJXJXJXJXJXJX",
"JXJXJXJXJXJXJXJXJXJXJXJXJXJXJXJXJXJXJXJXJXJXJX        4XFX2X~.JXJXJXJXJXJXJXJXJXJXJXJXJXJXJXJXJXJXJXJXJXJXJXJXJXJXJXJXJX",
"JXJXJXJXJXJXJXJXJXJXJXJXJXJXJXJXJXJXJXJXJXJXk T.T.p.3XAXn.JXJXJXJXJXJXJXJXJXJXJXJXJXJXJXJXJXJXJXJXJXJXJXJXJXJXJXJXJXJXJX",
"JXJXJXJXJXJXJXJXJXJXJXJXJXJXJXJXJXJXJXJXq J.I.8.N.T.m !.JXJXJXJXJXJXJXJXJXJXJXJXJXJXJXJXJXJXJXJXJXJXJXJXJXJXJXJXJXJXJXJX",
"JXJXJXJXJXJXJXJXJXJXJXJXJXJXJXJXJXJX+ T.T.U.=.x S.T.U.% j JXJXJXJXJXJXJXJXJXJXJXJXJXJXJXJXJXJXJXJX).Q JXJXJXJXJXJXJXJXJX",
"JXJXJXJXJXJXJXJXJXJXJXJXJXJXJXJXJX%.T.T.U.-.c F.T.T.m.>.3.JXJXJXJXJXJXJXJXJXJXJXJXJXJXJXJXJXJXJXJX(.JXJXJXJXJXJXJXJXJXJX",
"JXJXJXJXJXJXJXJXJXJXJXJXJXJXJXJX  T.T.T.j.# B.T.T.I.6 e D.D JXJXJXJXJXJXJXJXJXJXJXJXJXJXJXJXJXJXJXJXJXJXJXJXJXJXJXJXJXJX",
"JXJXJXJXJXJXJXJXJXJXJXJXJXJXJXsXgX;.T.C.+.X.I.T.L.5.o $ M.b.JXJXJXJXJXJXJXJXJXJXJXJXJXJXJXJXJXJXJXJXJXJXJXJXJXJXJXJXJXJX",
"JXJXJXJXJXJXJXJXJXJXJXJXJXJX1XlX4 - A.7.z i.I.L.6.F +.JXa Z.  JXJXJXJXJXJXJXJXJXJXJXJXJXJXJXJXJX5XJXJXJXJXJXJXJXJXJXJXJX",
"JXJXJXJXJXJXJXJXJXJXJXJXJXJXFXN   g 7 @.: #.d.4.O.S V JXo.:.2.JXJXJXJXJXJXJXJXJXJXJXJXJXJXJXJXa.JXJXJXJXJXJXJXJXJXJXJXJX",
"JXJXJXJXJXJXJXJXJXJXJXJXJXiXVXcXJX9 6   O X X X . @ X $.T.T.2.JXJXJXJXJXJXJXJXJXJXJXJXJXJXJX~ JXJXJXJXJXJXJXJXJXJXJXJXJX",
"JXJXJXJXJXJXJXJXJXJXJXJX  t   u   JXJX0 P.g.#.#.A |.X g.T.T.2.JXJXJXJXJXJXJXJXJXJXJXJXJXJXJX/.JXJXJXJXJXJXJXJXJXJXJXJXJX",
"JXJXJXJXJXJXJXJXJXJXJXJXy T T T 8 JXJXT.T.L.4.p {.yXi = h.T.2.JXJXJXJXJXJXJXJXJXJXJXJXJXJX<XJXJXJXJXJXJXJXJXJXJXJXJXJXJX",
"JXJXJXJXJXJXJXJXJXJXJXJXQ.bXvXaXK JXd T.T.G.4...tX8X].n r H.2.JXJXJXJXJXJXJXJXJXJXJXJXJXe.JXJXJXJXJXJXJXJXJXJXJXJXJXJXJX",
"JXJXJXJXJXJXJXJXJXJXJXJXY qX0XW.h JX,.T.T.V.> }.9Xv.W < ; &.  JXJXJXJXJXJXJXJXJXJXJXJXJXJXJXJXJXJXJXJXJXJXJXJXJXJXJXJXJX",
"JXJXJXJXJXJXJXJXJXJXJXJXJXJXJXJXJXw T.T.U.f.5 3 E y.' (     JXJXJXJXJXJXJXJXJXJXJXJX` HXJXJXJXJXJXJXJXJXJXJXJXJXJXJXJXJX",
"JXJXJXJXJXJXJXJXJXJXJXJXJXJXJXJX  T.T.T.U.*.v y.y.y.y._ P JXJXJXJXJXJXJXJXJXJXJXGX| JXJXJXJXJXJXJXJXJXJXJXJXJXJXJXJXJXJX",
"JXJXJXJXJXJXJXJXJXJXJXJXJXJXJXJX1.T.T.T.V.*.v y.y.y.y._ q.JXJXJXJXJXJXJXJXJXJX_.[ JXJXJXJXJXJXJXJXJXJXJXJXJXJXJXJXJXJXJX",
"JXJXJXJXJXJXJXJXJXJXJXJXJXJXJXJXu.T.T.I.j.# w.y.y.y.t.#XU `.JXJXJXJXJXJXJXMXJXJXJXJXJXJXJXJXJXJXJXJXJXJXJXJXJXJXJXJXJXJX",
"JXJXJXJXJXJXJXJXJXJXJXJXJXJXJXJXD T.T.P.#.# w.y.y.y.oX-XI JX} ^ JX) JX{ JX).JXJXJXJXJXJXJXJXJXJXJXJXJXJXJXJXJXJXJXJXJXJX",
"JXJXJXJXJXJXJXJXJXJXJXJXJXJXJXJX9.G K.j.#.# w.y.y.XX$X:XI JXJXJXR JX] JX .JXJXJXJXJXJXJXJXJXJXJXJXJXJXJXJXJXJXJXJXJXJXJX",
"JXJXJXJXJXJXJXJXJXJXJXJXJXJXJX  &XOX* F F O w.^.XX%X,X,XJXJXJXJXJXJXJXJXJXJXJXJXJXJXJXJXJXJXJXJXJXJXJXJXJXJXJXJXJXJXJXJX",
"JXJXJXJXJXJXJXJXJXJXJXJXJXJXJXpXr.+X@XB B B &X&X$X>X;X2 JXJXJXJXJXJXJXJXJXJXJXJXJXJXJXJXJXJXJXJXJXJXJXJXJXJXJXJXJXJXJXJX",
"JXJXJXJXJXJXJXJXJXJXJXJXJXJXBXJ JXJXJX, , , , , 1 2 JXJXJXJXJXJXJXJXJXJXJXJXJXJXJXJXJXJXJXJXJXJXJXJXJXJXJXJXJXJXJXJXJXJX",
"JXJXJXJXJXJXJXJXJXJXJXJXJXxXwXJXJXJXJXJXJXJXJX  eX  JXJXJXJXJXJXJXJXJXJXJXJXJXJXJXJXJXJXJXJXJXJXJXJXJXJXJXJXJXJXJXJXJXJX",
"JXJXJXJXJXJXJXJXJXJXJXJXJXkXDXE.JXJXJXJXJXJXJX  jXuXdXJXJXJXJXJXJXJXJXJXJXJXJXJXJXJXJXJXJXJXJXJXJXJXJXJXJXJXJXJXJXJXJXJX",
"JXJXJXJXJXJXJXJXJXJXJXJXJXJX7XZXY.JXJXJXJXJXJXJX7X7X7XJXJXJXJXJXJXJXJXJXJXJXJXJXJXJXJXJXJXJXJXJXJXJXJXJXJXJXJXJXJXJXJXJX",
"JXJXJXJXJXJXJXJXJXJXJXJXJXJXJXJXJXJXJXJXJXJXJXJXJXJXJXJXJXJXJXJXJXJXJXJXJXJXJXJXJXJXJXJXJXJXJXJXJXJXJXJXJXJXJXJXJXJXJXJX",
"JXJXJXJXJXJXJXJXJXJXJXJXJXJXJXJXJXJXJXJXJXJXJXJXJXJXJXJXJXJXJXJXJXJXJXJXJXJXJXJXJXJXJXJXJXJXJXJXJXJXJXJXJXJXJXJXJXJXJXJX",
"JXJXJXJXJXJXJXJXJXJXJXJXJXJXJXJXJXJXJXJXJXJXJXJXJXJXJXJXJXJXJXJXJXJXJXJXJXJXJXJXJXJXJXJXJXJXJXJXJXJXJXJXJXJXJXJXJXJXJXJX",
"JXJXJXJXJXJXJXJXJXJXJXJXJXJXJXJXJXJXJXJXJXJXJXJXJXJXJXJXJXJXJXJXJXJXJXJXJXJXJXJXJXJXJXJXJXJXJXJXJXJXJXJXJXJXJXJXJXJXJXJX",
"JXJXJXJXJXJXJXJXJXJXJXJXJXJXJXJXJXJXJXJXJXJXJXJXJXJXJXJXJXJXJXJXJXJXJXJXJXJXJXJXJXJXJXJXJXJXJXJXJXJXJXJXJXJXJXJXJXJXJXJX"
};
