/* XPM */
static char *result[] = {
/* columns rows colors chars-per-pixel */
"60 60 213 2 ",
"   c black",
".  c #010100",
"X  c #020101",
"o  c #030201",
"O  c #050203",
"+  c #0A0203",
"@  c #0C0503",
"#  c #090404",
"$  c #0B0505",
"%  c #090506",
"&  c #0B0507",
"*  c #0D0606",
"=  c #0F0B06",
"-  c #02030C",
";  c #0B060A",
":  c #0C0608",
">  c #0D0708",
",  c #000A0A",
"<  c #05090B",
"1  c #0E0A08",
"2  c #08080E",
"3  c #0A0E0F",
"4  c #0E0E0E",
"5  c #10090B",
"6  c #150A09",
"7  c #170B0A",
"8  c #130A0C",
"9  c #150B0E",
"0  c #00100F",
"q  c #00160D",
"w  c #1F160D",
"e  c #100910",
"r  c #110910",
"t  c #110A11",
"y  c #120A11",
"u  c #130A12",
"i  c #1B0E11",
"p  c #1B0F11",
"a  c #180D16",
"s  c #190E17",
"d  c #190E18",
"f  c #1A0E18",
"g  c #081518",
"h  c #1C1612",
"j  c #1D101A",
"k  c #1E111D",
"l  c #191C19",
"z  c #1C1C1D",
"x  c #3E190D",
"c  c #21081C",
"v  c #221216",
"b  c #221A16",
"n  c #251319",
"m  c #20121C",
"M  c #23131D",
"N  c #21121F",
"B  c #24141C",
"V  c #28161F",
"C  c #301319",
"Z  c #37121B",
"A  c #37171E",
"S  c #3D1718",
"D  c #38161D",
"F  c #361C18",
"G  c #002717",
"H  c #3F2C1B",
"J  c #090F2B",
"K  c #09102A",
"L  c #09112A",
"P  c #09112B",
"I  c #0A102A",
"U  c #0A112B",
"Y  c #0A112C",
"T  c #0B112C",
"R  c #131733",
"E  c #380E2F",
"W  c #261524",
"Q  c #291727",
"!  c #2D1927",
"~  c #2E1928",
"^  c #2E1A29",
"/  c #331B22",
"(  c #3B1F27",
")  c #301B2A",
"_  c #311B2B",
"`  c #321B2B",
"'  c #321C2A",
"]  c #331C2C",
"[  c #351D2D",
"{  c #152228",
"}  c #00302E",
"|  c #11302D",
" . c #0E2E34",
".. c #1D203B",
"X. c #1B323E",
"o. c #19343F",
"O. c #372721",
"+. c #3B2D25",
"@. c #3E2129",
"#. c #3C212F",
"$. c #3C2829",
"%. c #20223E",
"&. c #3D2131",
"*. c #3D2231",
"=. c #3E2231",
"-. c #4A1B18",
";. c #57121D",
":. c #401A22",
">. c #4A1D23",
",. c #411037",
"<. c #4B1736",
"1. c #4F2724",
"2. c #42222C",
"3. c #5A2D29",
"4. c #42332A",
"5. c #402331",
"6. c #412433",
"7. c #422433",
"8. c #442534",
"9. c #472635",
"0. c #492631",
"q. c #492731",
"w. c #482735",
"e. c #492736",
"r. c #4B2837",
"t. c #4C2937",
"y. c #4F2A37",
"u. c #502B39",
"i. c #512B39",
"p. c #522C39",
"a. c #562D39",
"s. c #542C3A",
"d. c #562D3B",
"f. c #582E3B",
"g. c #592F3C",
"h. c #5A2F3C",
"j. c #4F3C32",
"k. c #523E34",
"l. c #5B303D",
"z. c #632524",
"x. c #682622",
"c. c #652F36",
"v. c #634C3E",
"b. c #173740",
"n. c #183540",
"m. c #153841",
"M. c #163841",
"N. c #212540",
"B. c #232440",
"V. c #232441",
"C. c #252542",
"Z. c #262643",
"A. c #272743",
"S. c #262644",
"D. c #333351",
"F. c #63174C",
"G. c #7B1C44",
"H. c #7D1D49",
"J. c #6A2749",
"K. c #0D4347",
"L. c #0B4749",
"P. c #004B48",
"I. c #064D4D",
"U. c #00504D",
"Y. c #015350",
"T. c #005451",
"R. c #005651",
"E. c #005652",
"W. c #005851",
"Q. c #3D405C",
"!. c #00694E",
"~. c #007646",
"^. c #00794B",
"/. c #007A4B",
"(. c #007E4B",
"). c #424963",
"_. c #424964",
"`. c #555775",
"'. c #7D7B7F",
"]. c #801B2B",
"[. c #8E3B20",
"{. c #8B3C27",
"}. c #90352F",
"|. c #A52338",
" X c #BC283F",
".X c #85423D",
"XX c #A5573A",
"oX c #8E174E",
"OX c #9D1C4B",
"+X c #A21F4A",
"@X c #955D41",
"#X c #A44D57",
"$X c #B26858",
"%X c #9A7561",
"&X c #9F7964",
"*X c #9F7A64",
"=X c #D36861",
"-X c #D56A62",
";X c #AF866E",
":X c #DB8574",
">X c #FAA86B",
",X c #FFB06D",
"<X c #ECA07D",
"1X c #999FBA",
"2X c #E1B095",
"3X c #EDB595",
"4X c #EFB696",
"5X c #F1B898",
"6X c #F9BE9D",
"7X c #FFC2A0",
"8X c #FFC3A1",
"9X c #A2A9C4",
"0X c None",
/* pixels */
"0X0X0X0X0X0X0X0X0X0X0X0X0X0X0X0X0X0X0X0X0X0X0X0X0X0X0X0X0X0X0X0X0X0X0X0X0X0X0X0X0X0X0X0X0X0X0X0X0X0X0X0X0X0X0X0X0X0X0X0X",
"0X0X0X0X0X0X0X0X0X0X0X0X0X0X0X0X0X0X0X0X0X0X0X0X0X0X0X0X0X0X0X0X0X0X0X0X0X0X0X0X0X0X0X0X0X0X0X0X0X0X0X0X0X0X0X0X0X0X0X0X",
"0X0X0X0X0X0X0X0X0X0X0X0X0X0X0X0X0X0X0X0X0X0X0X0X0X0X0X0X0X0X0X0X0X0X0X0X0X0X0X0X0X0X0X0X0X0X0X0X0X0X0X0X0X0X0X0X0X0X0X0X",
"0X0X0X0X0X0X0X0X0X0X0X0X0X0X0X0X0X0X0X0X0X0X0X0X0X0X0X0X0X0X0X0X0X0X0X0X0X0X0X0X0X0X0X0X0X0X0X0X0X0X0X0X0X0X0X0X0X0X0X0X",
"0X0X0X0X0X0X0X0X0X0X0X0X0X0X0X0X0X0X0X0X0X0X0X0X0X0X0X0X0X0X0X0X0X0X0X0X0X0X0X0X0X0X0X0X0X0X0X0X0X0X0X0X0X0X0X0X0X0X0X0X",
"0X0X0X0X0X0X0X0X0X0X0X0X0X0X0X0X0X0X0X0X0X0X0X0X0X0X0X0X0X0X0X0X0X0X0X0X0X0X0X0X0X0X0X0X0X0X0X0X0X0X0X0X0X0X0X0X0X0X0X0X",
"0X0X0X0X0X0X0X0X0X0X0X0X0X0X0X0X0X0X0X0X0X0X0X0X0X0X0X0X0X0X0X0X0X0X0X0X0X0X0X0X0X0X0X0X0X0X0X0X0X0X0X0X0X0X0X0X0X0X0X0X",
"0X0X0X0X0X0X0X0X0X0X0X0X0X0X0X0X0X0X0X0X0X0X0X0X0X0X0X0X0X0X0X0X0X0X0X0X0X0X0X0X0X0X0X0X0X0X0X0X0X0X0X0X0X0X0X0X0X0X0X0X",
"0X0X0X0X0X0X0X0X0X0X0X0X0X0X0X0X0X0X0X0X0X0X0X0X0X0X0X0X0X0X0X0X0X0X0X0X0X0X0X0X0X0X0X0X0X0X0X0X0X0X0X0X0X0X0X0X0X0X0X0X",
"0X0X0X0X0X0X0X0X0X0X0X0X0X0X0X0X0X0X0X0X0X0X0X0X0X0X0X0X0X0X0X0X0X0X0X0X0X0X0X0X0X0X0X0X0X0X0X0X0X0X0X0X0X0X0X0X0X0X0X0X",
"0X0X0X0X0X0X0X0X0X0X0X0X0X0X0X0X0X0X0X0X0X0X0X0X0X0X0X0X0X0X0X0X0X0X0X0X0X0X0X0X0X0X0X0X0X0X0X0X0X0X0X0X0X0X0X0X0X0X0X0X",
"0X0X0X0X0X0X0X0X0X0X0X0X0X0X0X0X0X0X0X0X0X0X0X0X0X0X0X0X0X0X0X0X0X0X0X0X0X0X0X0X0X0X0X0X0X0X0X0X0X0X0X0X0X0X0X0X0X0X0X0X",
"0X0X0X0X0X0X0X0X0X0X0X0X0X0X0X0X0X0X0X0X0X0X0X0X0X0X0X0X0X0X0X0X0X0X0X0X0X0X0X0X0X0X0X0X0X0X0X0X0X0X0X0X0X0X0X0X0X0X0X0X",
"0X0X0X0X0X0X0X0X0X0X0X0X0X0X0X0X0X0X0X0X0X0X0X0X0X0X0X0X0X0X0X0X0X0X0X0X0X0X0X0X0X0X0X0X0X0X0X0X0X0X0X0X0X0X0X0X0X0X0X0X",
"0X0X0X0X0X0X0X0X0X0X0X0X0X0X0X0X0X0X0X0X0X0X0X0X0X0X0X0X0X0X0X0X0X0X0X0X0X0X0X0X0X0X0X0X0X0X0X0X0X0X0X0X0X0X0X0X0X0X0X0X",
"0X0X0X0X0X0X0X0X0X0X0X0X0X0X0X0X0X0X0X0X0X0X0X0X0X0X0X0X0X0X0X0X0X0X0X0X0X0X0X0X0X0X0X0X0X0X0X0X0X0X0X0X0X0X0X0X0X0X0X0X",
"0X0X0X0X0X0X0X0X0X0X0X0X0X0X0X0X0X0X0X0X0X0X0X0X0X0X0X0X0X0X0X0X0X0X0X0X0X0X0X0X0X0X0X0X0X0X0X0X0X0X0X0X0X0X0X0X0X0X0X0X",
"0X0X0X0X0X0X0X0X0X0X0X0X0X0X0X0X0X0X0X0X0X0X0X0X0X0X0X0X0X0X0X0X0X0X0X0X0X0X0X0X0X0X0X0X0X0X0X0X0X0X0X0X0X0X0X0X0X0X0X0X",
"0X0X0X0X0X0X0X0X0X0X0X0X0X0X0X0X0X0X0X0X0X0X0X0X0X0X0X0X0X0X0X0X0X0X0X0X0X0X0X0X0X0X0X0X0X0X0X0X0X0X0X0X0X0X0X0X0X0X0X0X",
"0X0X0X0X0X0X0X0X0X0X0X0X0X0X0X0X0X0X0X0X0X0X0X0X0X0X0X0X0X0X0X0X0X0X0X0X0X0X0X0X0X0X0X0X0X0X0X0X0X0X0X0X0X0X0X0X0X0X0X0X",
"0X0X0X0X0X0X0X0X0X0X0X0X0X0X0X0X0X0X0X0X0X0X0X0X0X0X0X0X0X0X0X0X0X0X0X0X0X0X0X0X0X0X0X0X0X0X0X0X0X0X0X0X0X0X0X0X0X0X0X0X",
"0X0X0X0X0X0X0X0X0X0X0X0X0X0X0X0X0X0X0X0X0X0X0X0X0X0X0X0X0X0X0X0X0X0X0X0X0X0X0X0X0X0X0X0X0X0X0X0X0X0X0X0X0X0X0X0X0X0X0X0X",
"0X0X0X0X0X0X0X0X0X0X0X0X0X0X0X0X0X0X0X0X0X0X0X0X0X0Xx.C     0X0X0X0X0X0X0X0X0X0X0X0X0X0X0X0X0X0X0X0X0X0X0X0X0X0X0X0X0X0X",
"0X0X0X0X0X0X0X0X0X0X0X0X0X0X0X0X0X0X0X0X0X0X0X0X0XZ <.-.>.:.S 0X0X0X0X0X0X0X0X0X0X0X0X0X0X0X0X0X0X0X0X0X0X0X0X0X0X0X0X0X",
"0X0X0X0X0X0X0X0X0X0X0X0X0X0X0X0X0X0X0X0X0X0X0X0X0X+XG.z.A 8 +.0X0X0X0X0X0X0X0X0X0X0X0X0X0X0X0X0X0X0X0X0X0X0X0X0X0X0X0X0X",
"0X0X0X0X0X0X0X0X0X0X0X0X0X0X0X0X0X0X0X0X0X0X0X0X0XH.J.D % 2X&X0X0X0X0X0X0X0X0X0X0X0X0X0X0X0X0X0X0X0X0X0X0X0X0X0X0X0X0X0X",
"0X0X0X0X0X0X0X0X0X0X0X0X0X0X0X0X0X0X0X0X0X0X0X0X0Xq ~.i ;X8X&X0X0X0X0X0X0X0X0X0X0X0X0X0X0X0X0X0X0X0X0X0X0X0X0X0X0X0X0X0X",
"0X0X0X0X0X0X0X0X0X0X0X0X0X0X0X0X0X0X0X0X0X0X0X0X0X0Xl i ;X8X&X0X0X0X0X0X0X0X0X0X0X0X0X0X0X0X0X0X0X0X0X0X0X0X0X0X0X0X0X0X",
"0X0X0X0X0X0X0X0X0X0X0X0X0X0X0X0X0X0X0X0X0X0X0X0X      %X8Xj.4.0X0X0X0X0X0X0X0X0X0X0X0X0X0X0X0X0X0X0X0X0X0X0X0X0X0X0X0X0X",
"0X0X0X0X0X0X0X0X0X0X0X0X0X0X0X0X0X0X0X0X0X0X0X/ l.q.'.3X$.t.2 %.0XD.0X`._.0X0X0X0X0X0X0X0X0X0X0X0X0X0X0X0X0X0X0X0X0X0X0X",
"0X0X0X0X0X0X0X0X0X0X0X0X0X0X0X0X0X0X0X0X0X0X0.l.y.l.4 z M &.- 0XC.0X0X0XS.L 0X0X0X0X0X0X0X0X0X0X0X0X0X0X0X0X0X0X0X0X0X0X",
"0X0X0X0X0X0X0X0X0X0X0X0X0X0X0X0X0X0X0X0X9 l.d.! r l.a.X 0X    0X0X0X0X0X0X0XA.U 0X0X0X0X0X0X0X0X0X0X0X0X0X0X0X0X0X0X0X0X",
"0X0X0X0X0X0X0X0X0X0X0X0X0X0X0X0X0XO n l.h.8.~ s 7.l.h.& 0X0X0X0X0X0X0X0X0X0X0X0XK Y 0X0X0X0X0X0X0X0X0X0X0X0X0X0X0X0X0X0X",
"0X0X0X0X0X0X0X0X0X0X0X0X0X0X0X0X  a.l.l.8.^ f t.l.l.5.0X0X0X0X0X0X0X0X0X0X0X0X0X0X0X).0X0X0X0X0X0X0X0X0X0X0X0X0X0X0X0X0X",
"0X0X0X0X0X0X0X0X0X0X0X0X0X0X0X  @.l.s.6.~ f =.l.l.l.#.0X0X0X0X0X0X0X0X0X0X0X0X0X0X0X0XI 0X0X0X0X0X0X0X0X0X0X0X0X0X0X0X0X",
"0X0X0X0X0X0X0X0X0X0X0X0X0X0X1 5Xb p.6._ y ' p.l.l.9.W 0X0X0X0X0X0X0X0X0X0X0X0X0X0X0X0XP 9X0X0X0X0X0X0X0X0X0X0X0X0X0X0X0X",
"0X0X0X0X0X0X0X0X0X0X0X0X0X0X6Xh p B *.W e Q =.i.9.d   0X0X0X0X0X0X0X0X0X0X0X0X0X0X0X0XB.J 0X0X0X0X0X0X0X0X0X0X0X0X0X0X0X",
"0X0X0X0X0X0X0X0X0X0X0X0X0Xv.4X0X5 > Q j ; k k k u ].0X0X0X0X0X0X0X0X0X0X0X0X0X0X0X0X0X0X0X0X0X0X0X0X0X0X0X0X0X0X0X0X0X0X",
"0X0X0X0X0X0X0X0X0X0X0X0X1.O.= w   : a l.g.7._ Q d |.0X0X0X0X0X0X0X0X0X0X0X0X0X0X0X0X0XZ.K 0X0X0X0X0X0X0X0X0X0X0X0X0X0X0X",
"0X0X0X0X0X0X0X0X0X0X0X0X# 6 . o 0X0X0Xl.l.l.w.` d OX  0X0X0X0X0X0X0X0X0X0X0X0X0X0X0X0XI 0X0X0X0X0X0X0X0X0X0X0X0X0X0X0X0X",
"0X0X0X0X0X0X0X0X0X0X0X  H H H F 0X0Xv l.l.l.l.] c oX X0X0X0X0X0X0X0X0X0X0X0X0X0X0X0XR 0X0X0X0X0X0X0X0X0X0X0X0X0X0X0X0X0X",
"0X0X0X0X0X0X0X0X0X0X0X  ,X>X=X#X0X0X2.l.l.l.u.m ,.F.;.+ 0X0X0X0X0X0X0X0X0X0X0X0X0XQ.0X0X0X0X0X0X0X0X0X0X0X0X0X0X0X0X0X0X",
"0X0X0X0X0X0X0X0X0X0X0X  @X.Xc.c.0X  l.l.l.l.e.t E g W.(.0X0X0X0X0X0X0X0X0X0X0XN...0X0X0X0X0X0X0X0X0X0X0X0X0X0X0X0X0X0X0X",
"0X0X0X0X0X0X0X0X0X0X0X0X0X0X0X0X0X  l.l.l.l.9.t { b.E.^.G 0X0X0X0X0X0X0X0X0XT 0X0X0X0X0X0X0X0X0X0X0X0X0X0X0X0X0X0X0X0X0X",
"0X0X0X0X0X0X0X0X0X0X0X0X0X0X0X0X0X/ l.l.l.l.) 3 X.X.Y.E.(.0X0X0X1X0XL 0X0X0X0X0X0X0X0X0X0X0X0X0X0X0X0X0X0X0X0X0X0X0X0X0X",
"0X0X0X0X0X0X0X0X0X0X0X0X0X0X0X0X0X/ l.l.l.l.) 3 X.X.o.E.(.0X0X0XV.0XK 0X0X0X0X0X0X0X0X0X0X0X0X0X0X0X0X0X0X0X0X0X0X0X0X0X",
"0X0X0X0X0X0X0X0X0X0X0X0X0X0X0X0X0X/ l.l.l.8.) 3 X.X.I.E.(.0X0X0X0X0X0X0X0X0X0X0X0X0X0X0X0X0X0X0X0X0X0X0X0X0X0X0X0X0X0X0X",
"0X0X0X0X0X0X0X0X0X0X0X0X0X0X0X0X0X  ( f.r.[ Q 3 X.n.E.!.(.0X0X0X0X0X0X0X0X0X0X0X0X0X0X0X0X0X0X0X0X0X0X0X0X0X0X0X0X0X0X0X",
"0X0X0X0X0X0X0X0X0X0X0X0X0X0X0X0X0X}  .V Q Q Q 3 X.K.R./.G 0X0X0X0X0X0X0X0X0X0X0X0X0X0X0X0X0X0X0X0X0X0X0X0X0X0X0X0X0X0X0X",
"0X0X0X0X0X0X0X0X0X0X0X0X0X0X0X0X  | P.m.< < N 3 o.E.W.(.G 0X0X0X0X0X0X0X0X0X0X0X0X0X0X0X0X0X0X0X0X0X0X0X0X0X0X0X0X0X0X0X",
"0X0X0X0X0X0X0X0X0X0X0X0X0X0X0X0X;X3.0X0 U.M.o.L.E.T.~.~.0X0X0X0X0X0X0X0X0X0X0X0X0X0X0X0X0X0X0X0X0X0X0X0X0X0X0X0X0X0X0X0X",
"0X0X0X0X0X0X0X0X0X0X0X0X0X0X0X  :X0X0X0X0X, , , , , $ 7 0X0X0X0X0X0X0X0X0X0X0X0X0X0X0X0X0X0X0X0X0X0X0X0X0X0X0X0X0X0X0X0X",
"0X0X0X0X0X0X0X0X0X0X0X0X0X0X0X*XXX0X0X0X0X0X0X0X0X0X@ [.0X0X0X0X0X0X0X0X0X0X0X0X0X0X0X0X0X0X0X0X0X0X0X0X0X0X0X0X0X0X0X0X",
"0X0X0X0X0X0X0X0X0X0X0X0X0X0X0X$X<Xx 0X0X0X0X0X0X0X0X* -X{.k.0X0X0X0X0X0X0X0X0X0X0X0X0X0X0X0X0X0X0X0X0X0X0X0X0X0X0X0X0X0X",
"0X0X0X0X0X0X0X0X0X0X0X0X0X0X0X0X}.7X0X0X0X0X0X0X0X0X}.}.}.}.0X0X0X0X0X0X0X0X0X0X0X0X0X0X0X0X0X0X0X0X0X0X0X0X0X0X0X0X0X0X",
"0X0X0X0X0X0X0X0X0X0X0X0X0X0X0X0X0X0X0X0X0X0X0X0X0X0X0X0X0X0X0X0X0X0X0X0X0X0X0X0X0X0X0X0X0X0X0X0X0X0X0X0X0X0X0X0X0X0X0X0X",
"0X0X0X0X0X0X0X0X0X0X0X0X0X0X0X0X0X0X0X0X0X0X0X0X0X0X0X0X0X0X0X0X0X0X0X0X0X0X0X0X0X0X0X0X0X0X0X0X0X0X0X0X0X0X0X0X0X0X0X0X",
"0X0X0X0X0X0X0X0X0X0X0X0X0X0X0X0X0X0X0X0X0X0X0X0X0X0X0X0X0X0X0X0X0X0X0X0X0X0X0X0X0X0X0X0X0X0X0X0X0X0X0X0X0X0X0X0X0X0X0X0X",
"0X0X0X0X0X0X0X0X0X0X0X0X0X0X0X0X0X0X0X0X0X0X0X0X0X0X0X0X0X0X0X0X0X0X0X0X0X0X0X0X0X0X0X0X0X0X0X0X0X0X0X0X0X0X0X0X0X0X0X0X",
"0X0X0X0X0X0X0X0X0X0X0X0X0X0X0X0X0X0X0X0X0X0X0X0X0X0X0X0X0X0X0X0X0X0X0X0X0X0X0X0X0X0X0X0X0X0X0X0X0X0X0X0X0X0X0X0X0X0X0X0X"
};
