/* XPM */
static char *result[] = {
/* columns rows colors chars-per-pixel */
"60 60 238 2 ",
"   c black",
".  c #020102",
"X  c #030103",
"o  c #040303",
"O  c #050204",
"+  c #000505",
"@  c #040606",
"#  c #080405",
"$  c #090506",
"%  c #080407",
"&  c #0D0606",
"*  c #000D07",
"=  c #0C0609",
"-  c #0C070B",
";  c #0C070C",
":  c #000A08",
">  c #000A0A",
",  c #05090B",
"<  c #000C08",
"1  c #000D09",
"2  c #000F09",
"3  c #0E0809",
"4  c #130909",
"5  c #11090A",
"6  c #13080A",
"7  c #14090A",
"8  c #10090F",
"9  c #140A0D",
"0  c #140F0D",
"q  c #180E0F",
"w  c #0A0F17",
"e  c #1D0513",
"r  c #110910",
"t  c #160C15",
"y  c #190D10",
"u  c #1F0F12",
"i  c #190E18",
"p  c #1B0E1A",
"a  c #1C0F19",
"s  c #0C1112",
"d  c #0A1217",
"f  c #0F1517",
"g  c #1E111D",
"h  c #1F111D",
"j  c #101C1E",
"k  c #1A1A1B",
"l  c #210C0D",
"z  c #2F0A0F",
"x  c #320A11",
"c  c #261312",
"v  c #221216",
"b  c #231318",
"n  c #20121B",
"m  c #251319",
"M  c #21121F",
"N  c #29151B",
"B  c #2B161C",
"V  c #301319",
"C  c #34151B",
"Z  c #38161D",
"A  c #002E1B",
"S  c #2E231D",
"D  c #2F241E",
"F  c #09102A",
"G  c #09112A",
"H  c #09102B",
"J  c #0A102B",
"K  c #0A112C",
"L  c #0B122C",
"P  c #0E142E",
"I  c #0F152F",
"U  c #101E25",
"Y  c #121732",
"T  c #151935",
"R  c #161A35",
"E  c #171C36",
"W  c #161D36",
"Q  c #1D1F3C",
"!  c #280C22",
"~  c #261524",
"^  c #291727",
"/  c #2A1727",
"(  c #2A1A21",
")  c #2E1922",
"_  c #2F1922",
"`  c #2F1A25",
"'  c #2B1828",
"]  c #2C1828",
"[  c #2E1A29",
"{  c #331B22",
"}  c #3E1921",
"|  c #381E26",
" . c #311B2B",
".. c #321C2B",
"X. c #351D2D",
"o. c #0A262A",
"O. c #182A33",
"+. c #1D233D",
"@. c #1D243E",
"#. c #0E373C",
"$. c #1B323E",
"%. c #342521",
"&. c #3A2226",
"*. c #3B2D25",
"=. c #3E2129",
"-. c #242434",
";. c #22233F",
":. c #3C2130",
">. c #3E2231",
",. c #3F2332",
"<. c #4B1019",
"1. c #57121D",
"2. c #511E1E",
"3. c #692B17",
"4. c #52132D",
"5. c #661F2C",
"6. c #60133D",
"7. c #78153C",
"8. c #40222C",
"9. c #42222C",
"0. c #44242D",
"q. c #46252F",
"w. c #532926",
"e. c #412433",
"r. c #4B2732",
"t. c #482735",
"y. c #4C2833",
"u. c #4A2836",
"i. c #4B2836",
"p. c #4F2A35",
"a. c #4C2937",
"s. c #4E2937",
"d. c #4E2A38",
"f. c #502B38",
"g. c #512B39",
"h. c #542C3A",
"j. c #552D3A",
"k. c #562D3B",
"l. c #572E3A",
"z. c #572E3B",
"x. c #582E3B",
"c. c #592F3C",
"v. c #463B35",
"b. c #5B303D",
"n. c #682728",
"m. c #702926",
"M. c #722A2A",
"N. c #544035",
"B. c #5F493C",
"V. c #6B4A2D",
"C. c #173640",
"Z. c #153942",
"A. c #133C43",
"S. c #222340",
"D. c #232340",
"F. c #242643",
"G. c #262642",
"H. c #262643",
"J. c #272744",
"K. c #262D48",
"L. c #2E2E4B",
"P. c #3A3C48",
"I. c #353754",
"U. c #66174C",
"Y. c #76174D",
"T. c #014744",
"R. c #0F4146",
"E. c #024E4B",
"W. c #074C4C",
"Q. c #00504C",
"!. c #00534F",
"~. c #005751",
"^. c #005652",
"/. c #005A51",
"(. c #005D50",
"). c #39405B",
"_. c #00654F",
"`. c #00694E",
"'. c #007646",
"]. c #00714D",
"[. c #007948",
"{. c #007B49",
"}. c #007E4B",
"|. c #664D40",
" X c #6F5546",
".X c #715A4E",
"XX c #7E6150",
"oX c #4E506D",
"OX c #5D5F7B",
"+X c #626265",
"@X c #636467",
"#X c #911F31",
"$X c #812F2C",
"%X c #90352F",
"&X c #A32237",
"*X c #A3452A",
"=X c #A94C36",
"-X c #8F633D",
";X c #95673F",
":X c #841746",
">X c #A21E4A",
",X c #A82B42",
"<X c #A7204A",
"1X c #BB2655",
"2X c #C92B44",
"3X c #A24C57",
"4X c #8B6B57",
"5X c #8F6D5A",
"6X c #CA695F",
"7X c #CC6560",
"8X c #CE6660",
"9X c #CE6E64",
"0X c #D56A62",
"qX c #DA7263",
"wX c #BD8051",
"eX c #BF8451",
"rX c #AF866E",
"tX c #B28870",
"yX c #BB8F76",
"uX c #F49F6A",
"iX c #FFB06D",
"pX c #606680",
"aX c #606780",
"sX c #7E7D82",
"dX c #717992",
"fX c #828085",
"gX c #8B90AC",
"hX c #979DB9",
"jX c #999FBA",
"kX c #CF9E82",
"lX c #EBB394",
"zX c #FAB997",
"xX c #FAB99A",
"cX c #FCBD9D",
"vX c #FFC3A1",
"bX c #FDC4A4",
"nX c #EDD3C9",
"mX c None",
/* pixels */
"mXmXmXmXmXmXmXmXmXmXmXmXmXmXmXmXmXmXmXmXmXmXmXmXmXmXmXmXmXmXmXmXmXmXmXmXmXmXmXmXmXmXmXmXmXmXmXmXmXmXmXmXmXmXmXmXmXmXmXmX",
"mXmXmXmXmXmXmXmXmXmXmXmXmXmXmXmXmXmXmXmXmXmXmXmXmXmXmXmXmXmXmXmXmXmXmXmXmXmXmXmXmXmXmXmXmXmXmXmXmXmXmXmXmXmXmXmXmXmXmXmX",
"mXmXmXmXmXmXmXmXmXmXmXmXmXmXmXmXmXmXmXmXmXmXmXmXmXmXmXmXmXmXmXmXmXmXmXmXmXmXmXmXmXmXmXmXmXmXmXmXmXmXmXmXmXmXmXmXmXmXmXmX",
"mXmXmXmXmXmXmXmXmXmXmXmXmXmXmXmXmXmXmXmXmXmXmXmXmXmXmXmXmXmXmXmXmXmXmXmXmXmXmXmXmXmXmXmXmXmXmXmXmXmXmXmXmXmXmXmXmXmXmXmX",
"mXmXmXmXmXmXmXmXmXmXmXmXmXmXmXmXmXmXmXmXmXmXmXmXmXmXmXmXmXmXmXmXmXmXmXmXmXmXmXmXmXmXmXmXmXmXmXmXmXmXmXmXmXmXmXmXmXmXmXmX",
"mXmXmXmXmXmXmXmXmXmXmXmXmXmXmXmXmXmXmXmXmXmXmXmXmXmXmXmXmXmXmXmXmXmXmXmXmXmXmXmXmXmXmXmXmXmXmXmXmXmXmXmXmXmXmXmXmXmXmXmX",
"mXmXmXmXmXmXmXmXmXmXmXmXmXmXmXmXmXmXmXmXmXmXmXmXmXmXmXmXmXmXmXmXmXmXmXmXmXmXmXmXmXmXmXmXmXmXmXmXmXmXmXmXmXmXmXmXmXmXmXmX",
"mXmXmXmXmXmXmXmXmXmXmXmXmXmXmXmXmXmXmXmXmXmXmXmXmXmXmXmXmXmXmXmXmXmXmXmXmXmXmXmXmXmXmXmXmXmXmXmXmXmXmXmXmXmXmXmXmXmXmXmX",
"mXmXmXmXmXmXmXmXmXmXmXmXmXmXmXmXmXmXmXmXmXmXmXmXmXmXmXmXmXmXmXmXmXmXmXmXmXmXmXmXmXmXmXmXmXmXmXmXmXmXmXmXmXmXmXmXmXmXmXmX",
"mXmXmXmXmXmXmXmXmXmXmXmXmXmXmXmXmXmXmXmXmXmXmXmXmXmXmXmXmXmXmXmXmXmXmXmXmXmXmXmXmXmXmXmXmXmXmXmXmXmXmXmXmXmXmXmXmXmXmXmX",
"mXmXmXmXmXmXmXmXmXmXmXmXmXmXmXmXmXmXmXmXmXmXmXmXmXmXmXmXmXmXmXmXmXmXmXmXmXmXmXmXmXmXmXmXmXmXmXmXmXmXmXmXmXmXmXmXmXmXmXmX",
"mXmXmXmXmXmXmXmXmXmXmXmXmXmXmXmXmXmXmXmXmXmXmXmXmXmXmXmXmXmXmXmXmXmXmXmXmXmXmXmXmXmXmXmXmXmXmXmXmXmXmXmXmXmXmXmXmXmXmXmX",
"mXmXmXmXmXmXmXmXmXmXmXmXmXmXmXmXmXmXmXmXmXmXmXmXmXmXmXmXmXmXmXmXmXmXmXmXmXmXmXmXmXmXmXmXmXmXmXmXmXmXmXmXmXmXmXmXmXmXmXmX",
"mXmXmXmXmXmXmXmXmXmXmXmXmXmXmXmXmXmXmXmXmXmXmXmXmXmXmXmXmXmXmXmXmXmXmXmXmXmXmXmXmXmXmXmXmXmXmXmXmXmXmXmXmXmXmXmXmXmXmXmX",
"mXmXmXmXmXmXmXmXmXmXmXmXmXmXmXmXmXmXmXmXmXmXmXmXmXmXmXmXmXmXmXmXmXmXmXmXmXmXmXmXmXmXmXmXmXmXmXmXmXmXmXmXmXmXmXmXmXmXmXmX",
"mXmXmXmXmXmXmXmXmXmXmXmXmXmXmXmXmXmXmXmXmXmXmXmXmXmXmXmXmXmXmXmXmXmXmXmXmXmXmXmXmXmXmXmXmXmXmXmXmXmXmXmXmXmXmXmXmXmXmXmX",
"mXmXmXmXmXmXmXmXmXmXmXmXmXmXmXmXmXmXmXmXmXmXmXmXmXmXmXmXmXmXmXmXmXmXmXmXmXmXmXmXmXmXmXmXmXmXmXmXmXmXmXmXmXmXmXmXmXmXmXmX",
"mXmXmXmXmXmXmXmXmXmXmXmXmXmXmXmXmXmXmXmXmXmXmXmXmXmXmXmXmXmXmXmXmXmXmXmXmXmXmXmXmXmXmXmXmXmXmXmXmXmXmXmXmXmXmXmXmXmXmXmX",
"mXmXmXmXmXmXmXmXmXmXmXmXmXmXmXmXmXmXmXmXmXmXmXmXmXmXmXmXmXmXmXmXmXmXmXmXmXmXmXmXmXmXmXmXmXmXmXmXmXmXmXmXmXmXmXmXmXmXmXmX",
"mXmXmXmXmXmXmXmXmXmXmXmXmXmXmXmXmXmXmXmXmXmXmXmXmXmXmXmXmXmXmXmXmXmXmXmXmXmXmXmXmXmXmXmXmXmXmXmXmXmXmXmXmXmXmXmXmXmXmXmX",
"mXmXmXmXmXmXmXmXmXmXmXmXmXmXmXmXmXmXmXmXmXmXmXmXmXmX  mXmXmXmXmXmXmXmXmXmXmXmXmXmXmXmXmXmXmXmXmXmXmXmXmXmXmXmXmXmXmXmXmX",
"mXmXmXmXmXmXmXmXmXmXmXmXmXmXmXmXmXmX  m.Z Z 6 mXmXyXmXmXmXmXmXmXmXmXmXmXmXmXmXmXmXmXmXmXmXmXmXmXmXmXmXmXmXmXmXmXmXmXmXmX",
"mXmXmXmXmXmXmXmXmXmXmXmXmXmXmXmXmX  M.l V V V 2.N.kXmXmXmXmXmXgXmXmXmXmXmXmXmXmXmXmXmXmXmXmXmXmXmXmXmXmXmXmXmXmXmXmXmXmX",
"mXmXmXmXmXmXmXmXmXmXmXmXmXmXmXmXmX:X6.$X} 5 |.u B.vX5X-.Y mXJ.H mXI.mXmXmXmXmXmXmXmXmXmXmXmXmXmXmXmXmXmXmXmXmXmXmXmXmXmX",
"mXmXmXmXmXmXmXmXmXmXmXmXmXmXmXmXmX1X4.n.q lXvX%.*.4XP.mXmXaXmXmXmXmXmXmXmXmXmXmXmXmXmXmXmXmXmXmXmXmXmXmXmXmXmXmXmXmXmXmX",
"mXmXmXmXmXmXmXmXmXmXmXmXmXmXmXmXw ,X5.C bXv.nX0 | G mXmXmXmXmXmXmXmXG.mXmXmXmXmXmXmXmXmXmXmXmXmXmXmXmXmXmXmXmXmXmXmXmXmX",
"mXmXmXmXmXmXmXmXmXmXmXmXmXmXmXmXmXmXU   cXvXvX Xb.  mXmXmXmXmXmXmXmXF L.mXmXmXmXmXmXmXmXmXmXmXmXmXmXmXmXmXmXmXmXmXmXmXmX",
"mXmXmXmXmXmXmXmXmXmXmXmXmXmXmXmXmXmX  mXc xXvX&.b.` mXmXmXmXmXmXmXmXmXmXmXmXmXmXmXmXmXmXmXmXmXmXmXmXmXmXmXmXmXmXmXmXmXmX",
"mXmXmXmXmXmXmXmXmXmXmXmXmXmXmXmXmXmXmXmX& 0XB b.h.e.p mXmXmXmXmXmXmXmXmXmXmXmXmXmXmXmXmXmXmXmXmXmXmXmXmXmXmXmXmXmXmXmXmX",
"mXmXmXmXmXmXmXmXmXmXmXmXmXmXmXmXmXmXmX$ @X.XtX0.t. .r mXmXmXmXmXmXmXE mXmXmXmXmXmXmXmXmXmXmXmXmXmXmXmXmXmXmXmXmXmXmXmXmX",
"mXmXmXmXmXmXmXmXmXmXmXmXmXmXmXmXmXmXv b.l.sXk +X..~   mXmXmXmXmXmXW mXmXmXmXmXmXmXmXmXmXmXmXmXmXmXmXmXmXmXmXmXmXmXmXmXmX",
"mXmXmXmXmXmXmXmXmXmXmXmXmXmXmXmXmX3 c.y.b.b.fX) -   mXmXmXmXmXmXmXP mXmXmXmXmXmXmXmXmXmXmXmXmXmXmXmXmXmXmXmXmXmXmXmXmXmX",
"mXmXmXmXmXmXmXmXmXmXmXmXmXmXmXmXo b.f.= c.b.b.{   mXmXmXmXmXmXK.mXmXmXmXmXmXmXmXmXmXmXmXmXmXmXmXmXmXmXmXmXmXmXmXmXmXmXmX",
"mXmXmXmXmXmXmXmXmXmXmXmXmXmXmXmX=.d.] % e.x.b.N   mXmXmXmXmXmXL mXmXmXmXmXmXmXmXmXmXmXmXmXmXmXmXmXmXmXmXmXmXmX@.D.mXmXmX",
"mXmXmXmXmXmXmXmXmXmXmXmXmXmXmX  d.a rX. ^ >.j.r.  mXmXmXmXmXR mXmXmXmXmXmXmXmXmXmXmXmXmXmXmXmXmXmXmXmXmXmXmXmXmXmXmXmXmX",
"mXmXmXmXmXmXmXmXmXmXmXmXmXmXmX  n y B.vX. ^ :.a._ mXmXmXmXOXoXmXmXmXmXmXmXmXmXmXmXmXmXmXmXmXmXmXmXmXmXmXmXmXaXmXmXmXmXmX",
"mXmXmXmXmXmXmXmXmXmXmXmXmXmXmX  ; # w.  ;Xt i <.z mXmXmXmXJ mXmXmXmXmXmXmXmXmXmXmXmXmXmXmXmXmXmXmXmXmXmXmXR mXmXmXmXmXmX",
"mXmXmXmXmXmXmXmXmXmXmXmXmXmXmX  8 V.eXeXwX4 X e x mXmXmXmXmXmXmXmXmXmXmXmXmXmXmXmXmXmXmXmXmXmXmXmXmXmXK mXmXmXmXmXmXmXmX",
"mXmXmXmXmXmXmXmXmXmXmXmXmXmXmXmX  -XiXuX8X7 ; Y.2X  mXmXmXF.mXmXmXmXmXmXmXmXmXmXmXmXmXmXmXmXmXmXmXmXmXJ mXmXmXmXmXmXmXmX",
"mXmXmXmXmXmXmXmXmXmXmXmXmXmXmXmXmX-XqX7X3X7 ; Y.<X#XmXmXmXmX+.mXmXmXmXmXmXmXmXmXmXmXmXmXmXmXmXmXmXI mXmXmXmXmXmXmXmXmXmX",
"mXmXmXmXmXmXmXmXmXmXmXmXmXmXmXmXmX  0.8.` g ; Y.>X&XmXmXmXmXmXmXmXmXmXmXmXmXmXmXmXmXmXmXmXmXmXmXmXhXmXmXmXmXmXmXmXmXmXmX",
"mXmXmXmXmXmXmXmXmXmXmXmXmXmXmXmXmXb b.b.s./ ! U.7.1.  mXmXpXmXmXmXmXmXmXmXmXmXmXmXmXmXmXmXmXmXT mXmXmXmXmXmXmXmXmXmXmXmX",
"mXmXmXmXmXmXmXmXmXmXmXmXmXmXmXmXmX9.b.b.c.] @ d o.].A mXmXmXG mXmXmXmXmXmXmXmXmXmXmXmXmXmXmX;.dXmXmXmXmXmXmXmXmXmXmXmXmX",
"mXmXmXmXmXmXmXmXmXmXmXmXmXmXmXmX9 b.b.b.c.' s $.$.(.'.mXmXmXmXmXmXmXmXmXmXmXmXmXmXmXmXmXmXQ mXmXmXmXmXmXmXmXmXmXmXmXmXmX",
"mXmXmXmXmXmXmXmXmXmXmXmXmXmXmX  b.b.b.b.k.O O.$.$.^.}.2 mXmXmXmXJ.mXmXmXmXmXmXmXmXmXmXmXjXmXmXmXmXmXmXmXmXmXmXmXmXmXmXmX",
"mXmXmXmXmXmXmXmXmXmXmXmXmXmXmXq.b.b.b.b.,.O O.$.$.^.}.2 mXmXmXmXmXmXmXmXmXmXmXmXY mXmXH.mXmXmXmXmXmXmXmXmXmXmXmXmXmXmXmX",
"mXmXmXmXmXmXmXmXmXmXmXmXmXmXmXp.b.b.b.z.[ O O.$.A.^.}.2 mXmXmXmXmXmXS.mXmXH.mXmX).mXmXmXmXmXmXmXmXmXmXmXmXmXmXmXmXmXmXmX",
"mXmXmXmXmXmXmXmXmXmXmXmXmXmXmXm b.b.b.u.~ f $.$.W./.[.< mXmXmXmXmXmXmXmXmXmXmXmXmXmXmXmXmXmXmXmXmXmXmXmXmXmXmXmXmXmXmXmX",
"mXmXmXmXmXmXmXmXmXmXmXmXmXmXmX#.( g.i.X.~ f $.Z.^.`.'.mXmXmXmXmXmXmXmXmXmXmXmXmXmXmXmXmXmXmXmXmXmXmXmXmXmXmXmXmXmXmXmXmX",
"mXmXmXmXmXmXmXmXmXmXmXmXmXmX+ ^.R., M M h f C.^._.}.  mXmXmXmXmXmXmXmXmXmXmXmXmXmXmXmXmXmXmXmXmXmXmXmXmXmXmXmXmXmXmXmXmX",
"mXmXmXmXmXmXmXmXmXmXmXmXmXmX6XT.Q.!.j j j E.^.~.{.'.  mXmXmXmXmXmXmXmXmXmXmXmXmXmXmXmXmXmXmXmXmXmXmXmXmXmXmXmXmXmXmXmXmX",
"mXmXmXmXmXmXmXmXmXmXmXmXmXS 9XmXmX: > > > > > 1 * mXmXmXmXmXmXmXmXmXmXmXmXmXmXmXmXmXmXmXmXmXmXmXmXmXmXmXmXmXmXmXmXmXmXmX",
"mXmXmXmXmXmXmXmXmXmXmXmXmXD   mXmXmXmXmXmXmX  *XmXmXmXmXmXmXmXmXmXmXmXmXmXmXmXmXmXmXmXmXmXmXmXmXmXmXmXmXmXmXmXmXmXmXmXmX",
"mXmXmXmXmXmXmXmXmXmXmXmXmXzX3.mXmXmXmXmXmXmX  0X=XXXmXmXmXmXmXmXmXmXmXmXmXmXmXmXmXmXmXmXmXmXmXmXmXmXmXmXmXmXmXmXmXmXmXmX",
"mXmXmXmXmXmXmXmXmXmXmXmXmX%X%XmXmXmXmXmXmXmXmX%X%X%XmXmXmXmXmXmXmXmXmXmXmXmXmXmXmXmXmXmXmXmXmXmXmXmXmXmXmXmXmXmXmXmXmXmX",
"mXmXmXmXmXmXmXmXmXmXmXmXmXmXmXmXmXmXmXmXmXmXmXmXmXmXmXmXmXmXmXmXmXmXmXmXmXmXmXmXmXmXmXmXmXmXmXmXmXmXmXmXmXmXmXmXmXmXmXmX",
"mXmXmXmXmXmXmXmXmXmXmXmXmXmXmXmXmXmXmXmXmXmXmXmXmXmXmXmXmXmXmXmXmXmXmXmXmXmXmXmXmXmXmXmXmXmXmXmXmXmXmXmXmXmXmXmXmXmXmXmX",
"mXmXmXmXmXmXmXmXmXmXmXmXmXmXmXmXmXmXmXmXmXmXmXmXmXmXmXmXmXmXmXmXmXmXmXmXmXmXmXmXmXmXmXmXmXmXmXmXmXmXmXmXmXmXmXmXmXmXmXmX",
"mXmXmXmXmXmXmXmXmXmXmXmXmXmXmXmXmXmXmXmXmXmXmXmXmXmXmXmXmXmXmXmXmXmXmXmXmXmXmXmXmXmXmXmXmXmXmXmXmXmXmXmXmXmXmXmXmXmXmXmX",
"mXmXmXmXmXmXmXmXmXmXmXmXmXmXmXmXmXmXmXmXmXmXmXmXmXmXmXmXmXmXmXmXmXmXmXmXmXmXmXmXmXmXmXmXmXmXmXmXmXmXmXmXmXmXmXmXmXmXmXmX"
};
