/* XPM */
static char *result[] = {
/* columns rows colors chars-per-pixel */
"60 60 213 2 ",
"   c black",
".  c #010001",
"X  c #010101",
"o  c #030202",
"O  c #040102",
"+  c #040204",
"@  c #040404",
"#  c #0B0203",
"$  c #0C0502",
"%  c #0C0204",
"&  c #090706",
"*  c #0B0607",
"=  c #050708",
"-  c #03050D",
";  c #090509",
":  c #0A050A",
">  c #0C070C",
",  c #0F080A",
"<  c #0F0C0A",
"1  c #0F080E",
"2  c #090D0E",
"3  c #14080A",
"4  c #130A0C",
"5  c #170B0E",
"6  c #170C0F",
"7  c #18130F",
"8  c #0B0F10",
"9  c #0B0E1E",
"0  c #1C0717",
"q  c #100910",
"w  c #110910",
"e  c #120A11",
"r  c #130A12",
"t  c #130C13",
"y  c #100B14",
"u  c #140C16",
"i  c #180D12",
"p  c #1C0F13",
"a  c #1C0A18",
"s  c #190E18",
"d  c #1C0F1A",
"f  c #091216",
"g  c #1F1114",
"h  c #15171F",
"j  c #1F1118",
"k  c #1E101A",
"l  c #12191B",
"z  c #230D0D",
"x  c #260D0C",
"c  c #2D100E",
"v  c #2C100F",
"b  c #23180F",
"n  c #330B11",
"m  c #221216",
"M  c #221217",
"N  c #281015",
"B  c #2B1115",
"V  c #22131D",
"C  c #2D1218",
"Z  c #301715",
"A  c #311816",
"S  c #33161C",
"D  c #39171E",
"F  c #361B19",
"G  c #002214",
"H  c #00201E",
"J  c #002818",
"K  c #00291D",
"L  c #002F1C",
"P  c #090F28",
"I  c #091028",
"U  c #091029",
"Y  c #09102A",
"T  c #131920",
"R  c #121F24",
"E  c #121632",
"W  c #141934",
"Q  c #340D2C",
"!  c #241422",
"~  c #261524",
"^  c #2B1721",
"/  c #291727",
"(  c #2F1920",
")  c #2C1823",
"_  c #2C1828",
"`  c #2F1A2A",
"'  c #311A21",
"]  c #331B22",
"[  c #361D24",
"{  c #381E26",
"}  c #3B1F27",
"|  c #301A29",
" . c #351D28",
".. c #371E2D",
"X. c #381E2E",
"o. c #391F2F",
"O. c #062D2E",
"+. c #0B2F2F",
"@. c #142025",
"#. c #172830",
"$. c #003533",
"%. c #1A303B",
"&. c #1B323E",
"*. c #18353F",
"=. c #3E2129",
"-. c #3F212A",
";. c #2F2331",
":. c #2D2F3B",
">. c #5A201D",
",. c #5A211D",
"<. c #401A22",
"1. c #451B22",
"2. c #4B0E30",
"3. c #7D1A2A",
"4. c #6D1433",
"5. c #43232D",
"6. c #45242E",
"7. c #413229",
"8. c #42332A",
"9. c #412433",
"0. c #422433",
"q. c #432433",
"w. c #452532",
"e. c #4C2937",
"r. c #502B39",
"t. c #522C39",
"y. c #532C3A",
"u. c #552D39",
"i. c #552D3B",
"p. c #572D3A",
"a. c #572E3B",
"s. c #582E3C",
"d. c #433531",
"f. c #4F3C32",
"g. c #5B303D",
"h. c #733426",
"j. c #005633",
"k. c #5A4539",
"l. c #5F493C",
"z. c #133C43",
"x. c #123D44",
"c. c #282844",
"v. c #541547",
"b. c #57164A",
"n. c #79174D",
"m. c #054E4D",
"M. c #0A484A",
"N. c #104045",
"B. c #015350",
"V. c #015451",
"C. c #005652",
"Z. c #005951",
"A. c #00644F",
"S. c #006D4D",
"D. c #006F4D",
"F. c #00794B",
"G. c #007B4B",
"H. c #007C4B",
"J. c #007E4B",
"K. c #545457",
"L. c #735848",
"P. c #5F4D60",
"I. c #50526E",
"U. c #77777B",
"Y. c #86371C",
"T. c #8A1D2E",
"R. c #85423D",
"E. c #A4412F",
"W. c #A7453B",
"Q. c #88174E",
"!. c #8C174F",
"~. c #941A4E",
"^. c #9F1D4B",
"/. c #881E51",
"(. c #AC2546",
"). c #C32941",
"_. c #C92B44",
"`. c #EC2B7D",
"'. c #924843",
"]. c #9D5A46",
"[. c #A94842",
"{. c #A24C57",
"}. c #B5575B",
"|. c #B7585B",
" X c #916F5B",
".X c #AF794A",
"XX c #B86756",
"oX c #B96A59",
"OX c #9F7964",
"+X c #A57E68",
"@X c #D56A62",
"#X c #D76E62",
"$X c #DF7C64",
"%X c #AF866E",
"&X c #C8997E",
"*X c #EE9468",
"=X c #E08A78",
"-X c #EC9F7B",
";X c #FFB06D",
":X c #676C87",
">X c #747793",
",X c #7F8084",
"<X c #B79685",
"1X c #999FB9",
"2X c #DD9C83",
"3X c #E1AC8E",
"4X c #F5AE92",
"5X c #EFB696",
"6X c #F9BE9D",
"7X c #FFC3A1",
"8X c #F5CBB6",
"9X c #D2D2DA",
"0X c None",
/* pixels */
"0X0X0X0X0X0X0X0X0X0X0X0X0X0X0X0X0X0X0X0X0X0X0X0X0X0X0X0X0X0X0X0X0X0X0X0X0X0X0X0X0X0X0X0X0X0X0X0X0X0X0X0X0X0X0X0X0X0X0X0X",
"0X0X0X0X0X0X0X0X0X0X0X0X0X0X0X0X0X0X0X0X0X0X0X0X0X0X0X0X0X0X0X0X0X0X0X0X0X0X0X0X0X0X0X0X0X0X0X0X0X0X0X0X0X0X0X0X0X0X0X0X",
"0X0X0X0X0X0X0X0X0X0X0X0X0X0X0X0X0X0X0X0X0X0X0X0X0X0X0X0X0X0X0X0X0X0X0X0X0X0X0X0X0X0X0X0X0X0X0X0X0X0X0X0X0X0X0X0X0X0X0X0X",
"0X0X0X0X0X0X0X0X0X0X0X0X0X0X0X0X0X0X0X0X0X0X0X0X0X0X0X0X0X0X0X0X0X0X0X0X0X0X0X0X0X0X0X0X0X0X0X0X0X0X0X0X0X0X0X0X0X0X0X0X",
"0X0X0X0X0X0X0X0X0X0X0X0X0X0X0X0X0X0X0X0X0X0X0X0X0X0X0X0X0X0X0X0X0X0X0X0X0X0X0X0X0X0X0X0X0X0X0X0X0X0X0X0X0X0X0X0X0X0X0X0X",
"0X0X0X0X0X0X0X0X0X0X0X0X0X0X0X0X0X0X0X0X0X0X0X0X0X0X0X0X0X0X0X0X0X0X0X0X0X0X0X0X0X0X0X0X0X0X0X0X0X0X0X0X0X0X0X0X0X0X0X0X",
"0X0X0X0X0X0X0X0X0X0X0X0X0X0X0X0X0X0X0X0X0X0X0X0X0X0X0X0X0X0X0X0X0X0X0X0X0X0X0X0X0X0X0X0X0X0X0X0X0X0X0X0X0X0X0X0X0X0X0X0X",
"0X0X0X0X0X0X0X0X0X0X0X0X0X0X0X0X0X0X0X0X0X0X0X0X0X0X0X0X0X0X0X0X0X0X0X0X0X0X0X0X0X0X0X0X0X0X0X0X0X0X0X0X0X0X0X0X0X0X0X0X",
"0X0X0X0X0X0X0X0X0X0X0X0X0X0X0X0X0X0X0X0X0X0X0X0X0X0X0X0X0X0X0X0X0X0X0X0X0X0X0X0X0X0X0X0X0X0X0X0X0X0X0X0X0X0X0X0X0X0X0X0X",
"0X0X0X0X0X0X0X0X0X0X0X0X0X0X0X0X0X0X0X0X0X0X0X0X0X0X0X0X0X0X0X0X0X0X0X0X0X0X0X0X0X0X0X0X0X0X0X0X0X0X0X0X0X0X0X0X0X0X0X0X",
"0X0X0X0X0X0X0X0X0X0X0X0X0X0X0X0X0X0X0X0X0X0X0X0X0X0X0X0X0X0X0X0X0X0X0X0X0X0X0X0X0X0X0X0X0X0X0X0X0X0X0X0X0X0X0X0X0X0X0X0X",
"0X0X0X0X0X0X0X0X0X0X0X0X0X0X0X0X0X0X0X0X0X0X0X0X0X0X0X0X0X0X0X0X0X0X0X0X0X0X0X0X0X0X0X0X0X0X0X0X0X0X0X0X0X0X0X0X0X0X0X0X",
"0X0X0X0X0X0X0X0X0X0X0X0X0X0X0X0X0X0X0X0X0X0X0X0X0X0X0X0X0X0X0X0X0X0X0X0X0X0X0X0X0X0X0X0X0X0X0X0X0X0X0X0X0X0X0X0X0X0X0X0X",
"0X0X0X0X0X0X0X0X0X0X0X0X0X0X0X0X0X0X0X0X0X0X0X0X0X0X0X0X0X0X0X0X0X0X0X0X0X0X0X0X0X0X0X0X0X0X0X0X0X0X0X0X0X0X0X0X0X0X0X0X",
"0X0X0X0X0X0X0X0X0X0X0X0X0X0X0X0X0X0X0X0X0X0X0X0X0X0X0X0X0X0X0X0X0X0X0X0X0X0X0X0X0X0X0X0X0X0X0X0X0X0X0X0X0X0X0X0X0X0X0X0X",
"0X0X0X0X0X0X0X0X0X0X0X0X0X0X0X0X0X0X0X0X0X0X0X0X0X0X0X0X0X0X0X0X0X0X0X0X0X0X0X0X0X0X0X0X0X0X0X0X0X0X0X0X0X0X0X0X0X0X0X0X",
"0X0X0X0X0X0X0X0X0X0X0X0X0X0X0X0X0X0X0X0X0X0X0X0X0X0X0X0X0X0X0X0X0X0X0X0X0X0X0X0X0X0X0X0X0X0X0X0X0X0X0X0X0X0X0X0X0X0X0X0X",
"0X0X0X0X0X0X0X0X0X0X0X0X0X0X0X0X0X0X0X0X0X0X0X0X0X0X0X0X0X0X0X0X0X0X0X0X0X0X0X0X0X0X0X0X0X0X0X0X0X0X0X0X0X0X0X0X0X0X0X0X",
"0X0X0X0X0X0X0X0X0X0X0X0X0X0X0X0X0X0X0X0X0X0X0X0X0X0X0X0X0X0X0X0X0X0X0X0X0X0X0X0X0X0X0X0X0X0X0X0X0X0X0X0X0X0X0X0X0X0X0X0X",
"0X0X0X0X0X0X0X0X0X0X0X0X0X0X0X0X0X0X0X0X0X0X0X0X  0X0X0X0X0X0X0X0X0X0X0X0X0X0X0X0X0X0X0X0X0X0X0X0X0X0X0X0X0X0X0X0X0X0X0X",
"0X0X0X0X0X0X0X0X0X0X0X0X0X0X0X0X0X0Xx B N N o L.d.U 0X0X0X0X0X0X0X0X0X0X0X0X0X0X0X0X0X0X0X0X0X0X0X0X0X0X0X0X0X0X0X0X0X0X",
"0X0X0X0X0X0X0X0X0X0X0X0X0X0X0X0X0X,.D v 3 3 3 z 7 9 0X0X0X0X0X0X0X0X0X0X0X0X0X0X0X0X0X0X0X0X0X0X0X0X0X0X0X0X0X0X0X0X0X0X",
"0X0X0X0X0X0X0X0X0X0X0X0X0X0X0X0X0X~.c 1.<.g X S   P 0X0X0X0X0X0X0X0X0X0X0X0X0X0X0X0X0X0X0X0X0X0X0X0X0X0X0X0X0X0X0X0X0X0X",
"0X0X0X0X0X0X0X0X0X0X0X0X0X0X0X0X`./.c 1.5 OX6X4 h 0X0X0X0X0X0X0X0X0X0X0X0X0X0X0X0X0X0X0X0X0X0X0X0X0X0X0X0X0X0X0X0X0X0X0X",
"0X0X0X0X0X0X0X0X0X0X0X0X0X0X0X0X).(.3 C <X&X8X7.:.I.0X0X0X0X0X0X0X0X0X0X0X0X0X0X0X0X0X0X0X0X0X0X0X0X0X0X0X0X0X0X0X0X0X0X",
"0X0X0X0X0X0X0X0X0X0X0X0X0X0X0X0X0XM.3 O 7X7X7Xl.0X0X0X0X0X0X0X0X0X0X0X0X0X0X0X0X0X0X0X0X0X0X0X0X0X0X0X0X0X0X0X0X0X0X0X0X",
"0X0X0X0X0X0X0X0X0X0X0X0X0X0X0X0X0X0X    4X7X7Xl.Y >X0X0X0X0X0X0X0X0X0X0X0X0X0X0X0X0X0X0X0X0X0X0X0X0X0X0X0X0X0X0X0X0X0X0X",
"0X0X0X0X0X0X0X0X0X0X0X0X0X0X0X0X0X0X0X0XR.2X%X5.y 1XE 0X0X0X0X0X0X0X0X0X0X0X0X0X0X0X0X0X0X0X0X0X0X0X0X0X0X0X0X0X0X0X0X0X",
"0X0X0X0X0X0X0X0X0X0X0X0X0X0X0X0X0X0X0X0XR.'.u.g.P.0XW 0X0X0X0X0X0X0X0X0X0X0X0X0X0X0X0X0X0X0X0X0X0X0X0X0X0X0X0X0X0X0X0X0X",
"0X0X0X0X0X0X0X0X0X0X0X0X0X0X0X0X0X0X6 { U. X+X .;.c.0XY 0X0X0X0X0X0X0X0X0X0X0X0X0X0X0X0X0X0X0X0X0X0X0X0X0X0X0X0X0X0X0X0X",
"0X0X0X0X0X0X0X0X0X0X0X0X0X0X0X0X0X6 s.-.] ,X@ K.u I :X0X0X0X0X0X0X0X0X0X0X0X0X0X0X0X0X0X0X0X0X0X0X0X0X0X0X0X0X0X0X0X0X0X",
"0X0X0X0X0X0X0X0X0X0X0X0X0X0X0X0X  g.) ~ g.=.9X  - 0X0XY 0X0X0X0X0X0X0X0X0X0X0X0X0X0X0X0X0X0X0X0X0X0X0X0X0X0X0X0X0X0X0X0X",
"0X0X0X0X0X0X0X0X0X0X0X0X0X0X0X0X[ r.e w.g.g.} 6.  0X0X0X0X0X0X0X0X0X0X0X0X0X0X0X0X0X0X0X0X0X0X0X0X0X0X0X0X0X0X0X0X0X0X0X",
"0X0X0X0X0X0X0X0X0X0X0X0X0X0X0X, p.X.> a.g.g.g.'   0X0X0X0X0X0X0X0X0X0X0X0X0X0X0X0X0X0X0X0X0X0X0X0X0X0X0X0X0X0X0X0X0X0X0X",
"0X0X0X0X0X0X0X0X0X0X0X0X0X0X0Xp 0./ > a.g.g.g.m   0X0X0X0X0X0X0X0X0X0X0X0X0X0X0X0X0X0X0X0X0X0X0X0X0X0X0X0X0X0X0X0X0X0X0X",
"0X0X0X0X0X0X0X0X0X0X0X0X0X0X  a.^ ; k M g.g.g.r.j 0X0X0X0X0X0X0X0X0X0X0X0X0X0X0X0X0X0X0X0X0X0X0X0X0X0X0X0X0X0X0X0X0X0X0X",
"0X0X0X0X0X0X0X0X0X0X0X0X0X0X  g.y.` w ..e.t.t.V r 0X0X0X0X0X0X0X0X0X0X0X0X0X0X0X0X0X0X0X0X0X0X0X0X0X0X0X0X0X0X0X0X0X0X0X",
"0X0X0X0X0X0X0X0X0X0X0X0X0X0X  g.0.1   ~ / d   _.T.0X0X0X0X0X0X0X0X0X0X0X0X0X0X0X0X0X0X0X0X0X0X0X0X0X0X0X0X0X0X0X0X0X0X0X",
"0X0X0X0X0X0X0X0X0X0X0X0X0X0X  q.w OX3X& s w Q 2.3.# 0X0X0X0X0X0X0X0X0X0X0X0X0X0X0X0X0X0X0X0X0X0X0X0X0X0X0X0X0X0X0X0X0X0X",
"0X0X0X0X0X0X0X0X0X0X0X0X0X0X0X: . * 7Xk.! d v.n._.% 0X0X0X0X0X0X0X0X0X0X0X0X0X0X0X0X0X0X0X0X0X0X0X0X0X0X0X0X0X0X0X0X0X0X",
"0X0X0X0X0X0X0X0X0X0X0X0X0X0X0X0X  * 7X7Xs d v.n.^._.0X0X0X0X0X0X0X0X0X0X0X0X0X0X0X0X0X0X0X0X0X0X0X0X0X0X0X0X0X0X0X0X0X0X",
"0X0X0X0X0X0X0X0X0X0X0X0X0X0X0X0X  A F   b a b.!.^._.0X0X0X0X0X0X0X0X0X0X0X0X0X0X0X0X0X0X0X0X0X0X0X0X0X0X0X0X0X0X0X0X0X0X",
"0X0X0X0X0X0X0X0X0X0X0X0X0X0X0X0X  .X.X.X].0 Q.!.4.T.n 0X0X0X0X0X0X0X0X0X0X0X0X0X0X0X0X0X0X0X0X0X0X0X0X0X0X0X0X0X0X0X0X0X",
"0X0X0X0X0X0X0X0X0X0X0X0X0X0X0X0X  ;X;X#X}.      x.G.L 0X0X0X0X0X0X0X0X0X0X0X0X0X0X0X0X0X0X0X0X0X0X0X0X0X0X0X0X0X0X0X0X0X",
"0X0X0X0X0X0X0X0X0X0X0X0X0X0X0X0X  *X$X|.{.= %.&.x.A.J.  0X0X0X0X0X0X0X0X0X0X0X0X0X0X0X0X0X0X0X0X0X0X0X0X0X0X0X0X0X0X0X0X",
"0X0X0X0X0X0X0X0X0X0X0X0X0X0X0X( i > > > + 2 %.&.&.B.F.G 0X0X0X0X0X0X0X0X0X0X0X0X0X0X0X0X0X0X0X0X0X0X0X0X0X0X0X0X0X0X0X0X",
"0X0X0X0X0X0X0X0X0X0X0X0X0X0X  g.g.g.o./ 1 @.&.&.&.B.D.j.0X0X0X0X0X0X0X0X0X0X0X0X0X0X0X0X0X0X0X0X0X0X0X0X0X0X0X0X0X0X0X0X",
"0X0X0X0X0X0X0X0X0X0X0X0X0X0X{ g.g.g.o./ 1 @.&.&.&.B.D.j.0X0X0X0X0X0X0X0X0X0X0X0X0X0X0X0X0X0X0X0X0X0X0X0X0X0X0X0X0X0X0X0X",
"0X0X0X0X0X0X0X0X0X0X0X0X0X0X{ g.g.i.o./ 8 &.&.&.*.V.D.j.0X0X0X0X0X0X0X0X0X0X0X0X0X0X0X0X0X0X0X0X0X0X0X0X0X0X0X0X0X0X0X0X",
"0X0X0X0X0X0X0X0X0X0X0X0X0X0X  g.g.9./ / 8 &.&.&.x.C.J.  0X0X0X0X0X0X0X0X0X0X0X0X0X0X0X0X0X0X0X0X0X0X0X0X0X0X0X0X0X0X0X0X",
"0X0X0X0X0X0X0X0X0X0X0X0X0X0XO.T | _ / q R &.&.N.C.S.J.  0X0X0X0X0X0X0X0X0X0X0X0X0X0X0X0X0X0X0X0X0X0X0X0X0X0X0X0X0X0X0X0X",
"0X0X0X0X0X0X0X0X0X0X0X0X0X  C.m.f t d . #.&.z.C.Z.H.L 0X0X0X0X0X0X0X0X0X0X0X0X0X0X0X0X0X0X0X0X0X0X0X0X0X0X0X0X0X0X0X0X0X",
"0X0X0X0X0X0X0X0X0X0X0X0X0X5X$.C.C.+.l l #.C.C.C.J.J.0X0X0X0X0X0X0X0X0X0X0X0X0X0X0X0X0X0X0X0X0X0X0X0X0X0X0X0X0X0X0X0X0X0X",
"0X0X0X0X0X0X0X0X0X0X0X0X8.=XZ 0X0XH H H H H H K J 0X0X0X0X0X0X0X0X0X0X0X0X0X0X0X0X0X0X0X0X0X0X0X0X0X0X0X0X0X0X0X0X0X0X0X",
"0X0X0X0X0X0X0X0X0X0X0X0Xf.< 0X0X0X0X0X0X0X0X  h.0X0X0X0X0X0X0X0X0X0X0X0X0X0X0X0X0X0X0X0X0X0X0X0X0X0X0X0X0X0X0X0X0X0X0X0X",
"0X0X0X0X0X0X0X0X0X0X0X  -X$ 0X0X0X0X0X0X0X0X  @XY.  0X0X0X0X0X0X0X0X0X0X0X0X0X0X0X0X0X0X0X0X0X0X0X0X0X0X0X0X0X0X0X0X0X0X",
"0X0X0X0X0X0X0X0X0X0X0X>.oXE.0X0X0X0X0X0X0X0X,.[.W.XX0X0X0X0X0X0X0X0X0X0X0X0X0X0X0X0X0X0X0X0X0X0X0X0X0X0X0X0X0X0X0X0X0X0X",
"0X0X0X0X0X0X0X0X0X0X0X0X0X0X0X0X0X0X0X0X0X0X0X0X0X0X0X0X0X0X0X0X0X0X0X0X0X0X0X0X0X0X0X0X0X0X0X0X0X0X0X0X0X0X0X0X0X0X0X0X",
"0X0X0X0X0X0X0X0X0X0X0X0X0X0X0X0X0X0X0X0X0X0X0X0X0X0X0X0X0X0X0X0X0X0X0X0X0X0X0X0X0X0X0X0X0X0X0X0X0X0X0X0X0X0X0X0X0X0X0X0X",
"0X0X0X0X0X0X0X0X0X0X0X0X0X0X0X0X0X0X0X0X0X0X0X0X0X0X0X0X0X0X0X0X0X0X0X0X0X0X0X0X0X0X0X0X0X0X0X0X0X0X0X0X0X0X0X0X0X0X0X0X"
};
