/* XPM */
static char *result[] = {
/* columns rows colors chars-per-pixel */
"60 60 231 2 ",
"   c black",
".  c #010000",
"X  c #020102",
"o  c #030102",
"O  c #040203",
"+  c #050303",
"@  c #040304",
"#  c #070507",
"$  c #0C0203",
"%  c #080405",
"&  c #080406",
"*  c #090507",
"=  c #090706",
"-  c #0A0607",
";  c #0B0607",
":  c #0D0606",
">  c #0A0509",
",  c #0D0708",
"<  c #0C070A",
"1  c #0C070C",
"2  c #000A0A",
"3  c #05090B",
"4  c #000F08",
"5  c #0E0809",
"6  c #10080B",
"7  c #11090B",
"8  c #130A0C",
"9  c #10090F",
"0  c #140A0D",
"q  c #150B0D",
"w  c #1F0B0F",
"e  c #180C0C",
"r  c #180C0E",
"t  c #110910",
"y  c #150C14",
"u  c #190D10",
"i  c #1C0F13",
"p  c #1D0F13",
"a  c #1D0F14",
"s  c #1E0B1A",
"d  c #1F0A1B",
"f  c #190E18",
"g  c #1B0F1A",
"h  c #1C0F1A",
"j  c #0C1112",
"k  c #0A1318",
"l  c #15141A",
"z  c #101C1E",
"x  c #240E13",
"c  c #320A10",
"v  c #2C1117",
"b  c #20121B",
"n  c #21121F",
"m  c #29151B",
"M  c #28161F",
"N  c #2C171E",
"B  c #261D18",
"V  c #311212",
"C  c #002415",
"Z  c #09102A",
"A  c #09112A",
"S  c #09112B",
"D  c #0A102B",
"F  c #0A112B",
"G  c #0D132E",
"H  c #0F142F",
"J  c #0F1430",
"K  c #0F1630",
"L  c #121733",
"P  c #131733",
"I  c #131833",
"U  c #161935",
"Y  c #1C1E3A",
"T  c #1D1F3B",
"R  c #250920",
"E  c #2C0F29",
"W  c #271623",
"Q  c #281623",
"!  c #281626",
"~  c #291727",
"^  c #2F1820",
"/  c #2B1828",
"(  c #2C1828",
")  c #2F1A2A",
"_  c #331B22",
"`  c #3C1920",
"'  c #301B2A",
"]  c #311B2B",
"[  c #321B2B",
"{  c #321C2B",
"}  c #331C2C",
"|  c #351D2D",
" . c #361E2D",
".. c #371E2D",
"X. c #391F2E",
"o. c #092327",
"O. c #002D2B",
"+. c #132D21",
"@. c #17272E",
"#. c #003720",
"$. c #162C34",
"%. c #1C243E",
"&. c #1B323E",
"*. c #19343F",
"=. c #272820",
"-. c #3F212A",
";. c #20223E",
":. c #3B2030",
">. c #3D2231",
",. c #3F2332",
"<. c #4A1C18",
"1. c #58201E",
"2. c #401A22",
"3. c #570E31",
"4. c #411037",
"5. c #521A32",
"6. c #552125",
"7. c #5C2222",
"8. c #562D29",
"9. c #402332",
"0. c #412433",
"q. c #422433",
"w. c #432433",
"e. c #442534",
"r. c #482735",
"t. c #492736",
"y. c #4A2836",
"u. c #502A35",
"i. c #502B38",
"p. c #532C3A",
"a. c #552D39",
"s. c #542D3A",
"d. c #552D3A",
"f. c #592F3B",
"g. c #592F3C",
"h. c #5A2F3C",
"j. c #513E33",
"k. c #533C36",
"l. c #5B303D",
"z. c #673233",
"x. c #6F4D2F",
"c. c #61493E",
"v. c #634C3E",
"b. c #7F4739",
"n. c #232340",
"m. c #232440",
"M. c #262643",
"N. c #272744",
"B. c #262D47",
"V. c #363753",
"C. c #363A56",
"Z. c #373D57",
"A. c #591444",
"S. c #591547",
"D. c #5A174C",
"F. c #67194B",
"G. c #771C49",
"H. c #0B4749",
"J. c #084B4B",
"K. c #00504C",
"L. c #00514D",
"P. c #03514F",
"I. c #005651",
"U. c #005652",
"Y. c #005A50",
"T. c #006D41",
"R. c #00634F",
"E. c #007646",
"W. c #00704D",
"Q. c #00714D",
"!. c #00734C",
"~. c #00794B",
"^. c #027C4B",
"/. c #007E4B",
"(. c #664D40",
"). c #684C42",
"_. c #6F5546",
"`. c #6F5547",
"'. c #7F6050",
"]. c #484966",
"[. c #4A506B",
"{. c #4C536E",
"}. c #5A617B",
"|. c #8F332E",
" X c #90352F",
".X c #9D2135",
"XX c #BC283F",
"oX c #924C32",
"OX c #BC5135",
"+X c #8F633D",
"@X c #CA5E38",
"#X c #81174E",
"$X c #8C174F",
"%X c #8B1E4D",
"&X c #9E1C4B",
"*X c #991B4C",
"=X c #C12845",
"-X c #974C46",
";X c #A24C57",
":X c #BD5E57",
">X c #8B6552",
",X c #8F6D5A",
"<X c #AD664D",
"1X c #C75B46",
"2X c #C7625F",
"3X c #D56A62",
"4X c #C07360",
"5X c #BF8451",
"6X c #B48971",
"7X c #C6977D",
"8X c #C9997F",
"9X c #DC977D",
"0X c #EF9568",
"qX c #FEAE6C",
"wX c #656984",
"eX c #6B708C",
"rX c #70738F",
"tX c #989FBA",
"yX c #9EA4BF",
"uX c #CF9E82",
"iX c #D2A084",
"pX c #E1AC8E",
"aX c #F7B998",
"sX c #F4BA9A",
"dX c #F0BC9F",
"fX c #F7BFA0",
"gX c #FFC3A1",
"hX c #A1A7C2",
"jX c #A3A8C3",
"kX c #A3A9C4",
"lX c None",
/* pixels */
"lXlXlXlXlXlXlXlXlXlXlXlXlXlXlXlXlXlXlXlXlXlXlXlXlXlXlXlXlXlXlXlXlXlXlXlXlXlXlXlXlXlXlXlXlXlXlXlXlXlXlXlXlXlXlXlXlXlXlXlX",
"lXlXlXlXlXlXlXlXlXlXlXlXlXlXlXlXlXlXlXlXlXlXlXlXlXlXlXlXlXlXlXlXlXlXlXlXlXlXlXlXlXlXlXlXlXlXlXlXlXlXlXlXlXlXlXlXlXlXlXlX",
"lXlXlXlXlXlXlXlXlXlXlXlXlXlXlXlXlXlXlXlXlXlXlXlXlXlXlXlXlXlXlXlXlXlXlXlXlXlXlXlXlXlXlXlXlXlXlXlXlXlXlXlXlXlXlXlXlXlXlXlX",
"lXlXlXlXlXlXlXlXlXlXlXlXlXlXlXlXlXlXlXlXlXlXlXlXlXlXlXlXlXlXlXlXlXlXlXlXlXlXlXlXlXlXlXlXlXlXlXlXlXlXlXlXlXlXlXlXlXlXlXlX",
"lXlXlXlXlXlXlXlXlXlXlXlXlXlXlXlXlXlXlXlXlXlXlXlXlXlXlXlXlXlXlXlXlXlXlXlXlXlXlXlXlXlXlXlXlXlXlXlXlXlXlXlXlXlXlXlXlXlXlXlX",
"lXlXlXlXlXlXlXlXlXlXlXlXlXlXlXlXlXlXlXlXlXlXlXlXlXlXlXlXlXlXlXlXlXlXlXlXlXlXlXlXlXlXlXlXlXlXlXlXlXlXlXlXlXlXlXlXlXlXlXlX",
"lXlXlXlXlXlXlXlXlXlXlXlXlXlXlXlXlXlXlXlXlXlXlXlXlXlXlXlXlXlXlXlXlXlXlXlXlXlXlXlXlXlXlXlXlXlXlXlXlXlXlXlXlXlXlXlXlXlXlXlX",
"lXlXlXlXlXlXlXlXlXlXlXlXlXlXlXlXlXlXlXlXlXlXlXlXlXlXlXlXlXlXlXlXlXlXlXlXlXlXlXlXlXlXlXlXlXlXlXlXlXlXlXlXlXlXlXlXlXlXlXlX",
"lXlXlXlXlXlXlXlXlXlXlXlXlXlXlXlXlXlXlXlXlXlXlXlXlXlXlXlXlXlXlXlXlXlXlXlXlXlXlXlXlXlXlXlXlXlXlXlXlXlXlXlXlXlXlXlXlXlXlXlX",
"lXlXlXlXlXlXlXlXlXlXlXlXlXlXlXlXlXlXlXlXlXlXlXlXlXlXlXlXlXlXlXlXlXlXlXlXlXlXlXlXlXlXlXlXlXlXlXlXlXlXlXlXlXlXlXlXlXlXlXlX",
"lXlXlXlXlXlXlXlXlXlXlXlXlXlXlXlXlXlXlXlXlXlXlXlXlXlXlXlXlXlXlXlXlXlXlXlXlXlXlXlXlXlXlXlXlXlXlXlXlXlXlXlXlXlXlXlXlXlXlXlX",
"lXlXlXlXlXlXlXlXlXlXlXlXlXlXlXlXlXlXlXlXlXlXlXlXlXlXlXlXlXlXlXlXlXlXlXlXlXlXlXlXlXlXlXlXlXlXlXlXlXlXlXlXlXlXlXlXlXlXlXlX",
"lXlXlXlXlXlXlXlXlXlXlXlXlXlXlXlXlXlXlXlXlXlXlXlXlXlXlXlXlXlXlXlXlXlXlXlXlXlXlXlXlXlXlXlXlXlXlXlXlXlXlXlXlXlXlXlXlXlXlXlX",
"lXlXlXlXlXlXlXlXlXlXlXlXlXlXlXlXlXlXlXlXlXlXlXlXlXlXlXlXlXlXlXlXlXlXlXlXlXlXlXlXlXlXlXlXlXlXlXlXlXlXlXlXlXlXlXlXlXlXlXlX",
"lXlXlXlXlX}.tXlXlXlXlXlXlXlXlXlXlXlXlXlXlXlXlXlXlXlXlXlXlX[.M.lXS lXI lXlXlXlXlXlXlXlXlXlXlXlXlXlXlXlXlXlXlXlXlXlXlXlXlX",
"lXlXlXlXlXm.n.lXlXlXlXlXlXlXlXlXlXlXlXlXlXlXlXlXlXlXlXV.Y lXlXlXlXlXlXwXlXlXlXlXlXlXlXlXlXlXlXlXlXlXlXlXlXlXlXlXlXlXlXlX",
"lXlXlXjXlXlXlXlXlXlXlXlXlXlXlXlXlXlXlXlXlXlXlXlXlXH T lXlXlXlXlXlXlXlXlXlXkXlXlXlXlXlXlXlXlXlXlXlXlXlXlXlXlXlXlXlXlXlXlX",
"lXlXlX;.lXlXlXlXlXlXlXlXlXlXlXlXlXlXlXlXlXlXlXlXU lXlXlXlXlXlXlXlXlXlXlXlXC.lXlXlXlXlXlXlXlXlXlXlXlXlXlXlXlXlXlXlXlXlXlX",
"lXlXlXlXlXlXlXlXlXlXlXlXlXlXlXlXlXlXlXlXlXlXlXL lXlXlXlXlXlXlXlXlXlXlXlXlXlXlXlXlXlXlXlXlXlXlXlXlXlXlXlXlXlXlXlXlXlXlXlX",
"lXlXlXlXlXlXlXlXlXlXlXlXlXlXlXlXlXlXlXlXlXlXlXlXlXlXlXlXlXlXlXlXlXlXlXlXlXM.D lXlXlXlXlXlXlXlXlXlXlXlXlXlXlXlXlXlXlXlXlX",
"lXlXlXlXlXlXlXlXlXlXlXlXlXlXlXlXlXlXlXlXlXN.lXlXlXlXlXlXlXlXlXlXlXlXlXlXlXM.lXlXlXlXlXlXlXlXlXlXlXlXlXlXlXlXlXlXlXlXlXlX",
"lX%.M.lXlXlXlXlXlXlXlXlXlXlXlXlXlXlXlXlXlXlXlXlXlXlXlXlXlXlXlXlXlXlXlXlXlXlXlXlXlXlXlXlXlXlXlXlXlXlXlXlXlXlXlXlXlXlXlXlX",
"lXlXlXlXlXlXlXlXlXlXlXlXlXlXlXlXlXlXlXM.lXlXlXlXlXlXlXlXlXlXlXlXlXlXlXlXlXlXlXlXlXlXlXlXlXlXlXlXlXlXlXlXlXlXlXlXlXlXlXlX",
"lX{.M.lXlXlXlXlXlXlXlXlXlXlXlXlXlXlXP lXlXlXlXlXlXlXlX<.x     lXlXlXlXlXeXlXlXlXlXlXlXlXlXlXlXlXlXlXlXlXlXlXlXlXlXlXlXlX",
"lXlXlXlXlXlXlXlXlXlXlXlXlXlXlXlXlXN.lXlXlXlXlXlXlXlXw 5.V 6.2.7.lXlXlXK lXlXlXlXlXlXlXlXlXlXlXlXlXlXlXlXlXlXlXlXlXlXlXlX",
"lXlXhXF lXlXlXlXlXlXlXlXlXlXlXlXZ.lXlXlXlXlXlXlXlXlX*XG.1.` u B lXlX].lXlXlXlXlXlXlXlXlXlXlXlXlXlXlXlXlXlXlXlXlXlXlXlXlX",
"lXlXlXlXlXlXlXlXlXlXlXlXlXlXlXG lXlXlXlXlXlXlXlXlXlXF.%Xv , fXuX# M.lXlXlXlXlXlXlXlXlXlXlXlXlXlXlXlXlXlXlXlXlXlXlXlXlXlX",
"lXlXlXlXn.rXlXlXlXlXlXlXA yXG lXlXlXlXlXlXlXlXlXlXlXe ^.r '.dXuXa.lXlXlXlXlXlXlXlXlXlXlXlXlXlXlXlXlXlXlXlXlXlXlXlXlXlXlX",
"lXlXlXlXlXlXlXB.lXlXZ M.J lXlXlXlXlXlXlXlXlXlXlXlXlXlX+.q ,XgXuXf.- lXlXlXlXlXlXlXlXlXlXlXlXlXlXlXlXlXlXlXlXlXlXlXlXlXlX",
"lXlXlXlXlXlXlX;.lXlXlXlXlXlXlXlXlXlXlXlXlXlXlXlXlX      (.gX_.c.0.M lXlXlXlXlXlXlXlXlXlXlXlXlXlXlXlXlXlXlXlXlXlXlXlXlXlX",
"lXlXlXlXlXlXlXlXlXlXlXlXlXlXlXlXlXlXlXlXlXlXlXlX0 l.l.m pXk.>.| f f lXlXlXlXlXlXlXlXlXlXlXlXlXlXlXlXlXlXlXlXlXlXlXlXlXlX",
"lXlXlXlXlXlXlXlXlXlXlXlXlXlXlXlXlXlXlXlXlXlXlX7 g...< l.i ] n   lXlXlXlXlXlXlXlXlXlXlXlXlXlXlXlXlXlXlXlXlXlXlXlXlXlXlXlX",
"lXlXlXlXlXlXlXlXlXlXlXlXlXlXlXlXlXlXlXlXlX+ l.h. .> e.l.i t lXlXlXlXlXlXlXlXlXlXlXlXlXlXlXlXlXlXlXlXlXlXlXlXlXlXlXlXlXlX",
"lXlXlXlXlXlXlXlXlXlXlXlXlXlXlXlXlXlXlX6 u.l.l. .9 q.l.l.lXlXlXlXlXlXlXlXlXlXlXlXlXlXlXlXlXlXlXlXlXlXlXlXlXlXlXlXlXlXlXlX",
"lXlXlXlXlXlXlXlXlXlXlXlXlXlXlXlXlXlXp l.l.l.t.y w.l.l.l.lXlXlXlXlXlXlXlXlXlXlXlXlXlXlXlXlXlXlXlXlXlXlXlXlXlXlXlXlXlXlXlX",
"lXlXlXlXlXlXlXlXlXlXlXlXlXlXlXlXlXv.).l.l.l.b Q p.l.l.; lXlXlXlXlXlXlXlXlXlXlXlXlXlXlXlXlXlXlXlXlXlXlXlXlXlXlXlXlXlXlXlX",
"lXlXlXlXlXlXlXlXlXlXlXlXlXlXlXlXj.8X; -.h.w.1 ] s.l.i.& lXlXlXlXlXlXlXlXlXlXlXlXlXlXlXlXlXlXlXlXlXlXlXlXlXlXlXlXlXlXlXlX",
"lXlXlXlXlXlXlXlXlXlXlXlXlXlXlX  gXlX; 8 9./ h ~ ) :.X.@ lXlXlXlXlXlXlXlXlXlXlXlXlXlXlXlXlXlXlXlXlXlXlXlXlXlXlXlXlXlXlXlX",
"lXlXlXlXlXlXlXlXlXlXlXlXlXlXlXiXsXlXlXu ! * O X X . $ lXlXlXlXlXlXlXlXlXlXlXlXlXlXlXlXlXlXlXlXlXlXlXlXlXlXlXlXlXlXlXlXlX",
"lXlXlXlXlXlXlXlXlXlXlXlXlXlX: :X= x.lXo * g.r.[ g A.XXlXlXlXlXlXlXlXlXlXlXlXlXlXlXlXlXlXlXlXlXlXlXlXlXlXlXlXlXlXlXlXlXlX",
"lXlXlXlXlXlXlXlXlXlXlXlXlXlX5X5X5X<X  lXl.l.l.} d #X&X.XlXlXlXlXlXlXlXlXlXlXlXlXlXlXlXlXlXlXlXlXlXlXlXlXlXlXlXlXlXlXlXlX",
"lXlXlXlXlXlXlXlXlXlXlXlXlXlX+X+Xb.z.  5 l.l.t.h 4.$X$X=Xc lXlXlXlXlXlXlXlXlXlXlXlXlXlXlXlXlXlXlXlXlXlXlXlXlXlXlXlXlXlXlX",
"lXlXlXlXlXlXlXlXlXlXlXlXlXlXqX0X2X;X  N l.l.' s D.S.3.3.=.lXlXlXlXlXlXlXlXlXlXlXlXlXlXlXlXlXlXlXlXlXlXlXlXlXlXlXlXlXlXlX",
"lXlXlXlXlXlXlXlXlXlXlXlXlXlX        % l.l.d.W R E k *.W./.lXlXlXlXlXlXlXlXlXlXlXlXlXlXlXlXlXlXlXlXlXlXlXlXlXlXlXlXlXlXlX",
"lXlXlXlXlXlXlXlXlXlXlXlXlXlXlXlXlX  l.l.h.q.1 @.&.&.&.P./.#.lXlXlXlXlXlXlXlXlXlXlXlXlXlXlXlXlXlXlXlXlXlXlXlXlXlXlXlXlXlX",
"lXlXlXlXlXlXlXlXlXlXlXlXlXlXlXlXlX^ l.l.g.( 1 @.&.&.&.P.!.#.lXlXlXlXlXlXlXlXlXlXlXlXlXlXlXlXlXlXlXlXlXlXlXlXlXlXlXlXlXlX",
"lXlXlXlXlXlXlXlXlXlXlXlXlXlXlXlXlX_ l.l.,.~ j &.&.&.&.P.Q.#.lXlXlXlXlXlXlXlXlXlXlXlXlXlXlXlXlXlXlXlXlXlXlXlXlXlXlXlXlXlX",
"lXlXlXlXlXlXlXlXlXlXlXlXlXlXlXlXlXa l.y.{ ~ j &.&.&.*.U./.#.lXlXlXlXlXlXlXlXlXlXlXlXlXlXlXlXlXlXlXlXlXlXlXlXlXlXlXlXlXlX",
"lXlXlXlXlXlXlXlXlXlXlXlXlXlXlXlXlXo.l | ~ ~ j &.&.*.U.R./.lXlXlXlXlXlXlXlXlXlXlXlXlXlXlXlXlXlXlXlXlXlXlXlXlXlXlXlXlXlXlX",
"lXlXlXlXlXlXlXlXlXlXlXlXlXlXlXlX  U.J.3 n n j &.*.U.I.~.T.lXlXlXlXlXlXlXlXlXlXlXlXlXlXlXlXlXlXlXlXlXlXlXlXlXlXlXlXlXlXlX",
"lXlXlXlXlXlXlXlXlXlXlXlXlXlXlXlX-XO.K.L.z z $.H.U.U.Y.E.C lXlXlXlXlXlXlXlXlXlXlXlXlXlXlXlXlXlXlXlXlXlXlXlXlXlXlXlXlXlXlX",
"lXlXlXlXlXlXlXlXlXlXlXlXlXlXlX7X8.lXlXlX2 2 2 2 2 2 4 lXlXlXlXlXlXlXlXlXlXlXlXlXlXlXlXlXlXlXlXlXlXlXlXlXlXlXlXlXlXlXlXlX",
"lXlXlXlXlXlXlXlXlXlXlXlXlXlX6X@XlXlXlXlXlXlXlXlXlXOX  lXlXlXlXlXlXlXlXlXlXlXlXlXlXlXlXlXlXlXlXlXlXlXlXlXlXlXlXlXlXlXlXlX",
"lXlXlXlXlXlXlXlXlXlXlXlXlXlX4XaXoXlXlXlXlXlXlXlXlX3X1X>XlXlXlXlXlXlXlXlXlXlXlXlXlXlXlXlXlXlXlXlXlXlXlXlXlXlXlXlXlXlXlXlX",
"lXlXlXlXlXlXlXlXlXlXlXlXlXlXlX|.9X`.lXlXlXlXlXlXlX X X XlXlXlXlXlXlXlXlXlXlXlXlXlXlXlXlXlXlXlXlXlXlXlXlXlXlXlXlXlXlXlXlX",
"lXlXlXlXlXlXlXlXlXlXlXlXlXlXlXlXlXlXlXlXlXlXlXlXlXlXlXlXlXlXlXlXlXlXlXlXlXlXlXlXlXlXlXlXlXlXlXlXlXlXlXlXlXlXlXlXlXlXlXlX",
"lXlXlXlXlXlXlXlXlXlXlXlXlXlXlXlXlXlXlXlXlXlXlXlXlXlXlXlXlXlXlXlXlXlXlXlXlXlXlXlXlXlXlXlXlXlXlXlXlXlXlXlXlXlXlXlXlXlXlXlX",
"lXlXlXlXlXlXlXlXlXlXlXlXlXlXlXlXlXlXlXlXlXlXlXlXlXlXlXlXlXlXlXlXlXlXlXlXlXlXlXlXlXlXlXlXlXlXlXlXlXlXlXlXlXlXlXlXlXlXlXlX",
"lXlXlXlXlXlXlXlXlXlXlXlXlXlXlXlXlXlXlXlXlXlXlXlXlXlXlXlXlXlXlXlXlXlXlXlXlXlXlXlXlXlXlXlXlXlXlXlXlXlXlXlXlXlXlXlXlXlXlXlX",
"lXlXlXlXlXlXlXlXlXlXlXlXlXlXlXlXlXlXlXlXlXlXlXlXlXlXlXlXlXlXlXlXlXlXlXlXlXlXlXlXlXlXlXlXlXlXlXlXlXlXlXlXlXlXlXlXlXlXlXlX"
};
