/* XPM */
static char *result[] = {
/* columns rows colors chars-per-pixel */
"60 60 243 2 ",
"   c black",
".  c #030201",
"X  c #020102",
"o  c #030103",
"O  c #070503",
"+  c #050204",
"@  c #070304",
"#  c #070407",
"$  c #040606",
"%  c #090506",
"&  c #0C0406",
"*  c #0C0607",
"=  c #010308",
"-  c #03050E",
";  c #0A0509",
":  c #0D0708",
">  c #0C070C",
",  c #000A0A",
"<  c #000F09",
"1  c #0C0908",
"2  c #0E0809",
"3  c #0F0B09",
"4  c #0F0C0A",
"5  c #0F080E",
"6  c #0B0D0F",
"7  c #150803",
"8  c #150807",
"9  c #130909",
"0  c #110C0B",
"q  c #130A0C",
"w  c #10090F",
"e  c #140A0D",
"r  c #1A0908",
"t  c #1B0908",
"y  c #0F0C13",
"u  c #160513",
"i  c #140B13",
"p  c #160C14",
"a  c #160C15",
"s  c #1C0D10",
"d  c #180D17",
"f  c #0C1112",
"g  c #0A1217",
"h  c #0D1214",
"j  c #0F1517",
"k  c #1F111D",
"l  c #101C1E",
"z  c #2F090F",
"x  c #280712",
"c  c #27141A",
"v  c #27151A",
"b  c #21121F",
"n  c #28151A",
"m  c #29151B",
"M  c #2F151B",
"N  c #2B1E19",
"B  c #361311",
"V  c #321A17",
"C  c #301319",
"Z  c #37161D",
"A  c #3C121C",
"S  c #38161D",
"D  c #30181F",
"F  c #2F241E",
"G  c #090F2B",
"H  c #0C1E23",
"J  c #08112A",
"K  c #09112A",
"L  c #09112B",
"P  c #0A102A",
"I  c #0A102B",
"U  c #0B112C",
"Y  c #0B122D",
"T  c #0C132D",
"R  c #0D132E",
"E  c #0F1430",
"W  c #161A35",
"Q  c #161A36",
"!  c #171B37",
"~  c #181B36",
"^  c #1B1D39",
"/  c #1C1E39",
"(  c #3D0A22",
")  c #310D2A",
"_  c #231422",
"`  c #241422",
"'  c #261524",
"]  c #271625",
"[  c #2A1724",
"{  c #281626",
"}  c #291727",
"|  c #2A1727",
" . c #2D1924",
".. c #2C1828",
"X. c #2E1A29",
"o. c #331B22",
"O. c #311B27",
"+. c #371D25",
"@. c #361F26",
"#. c #3D1920",
"$. c #381E26",
"%. c #3B1F27",
"&. c #321B2B",
"*. c #361D2A",
"=. c #331C2C",
"-. c #351D2D",
";. c #3D0F34",
":. c #0C2025",
">. c #003F26",
",. c #182A33",
"<. c #1C243E",
"1. c #192E39",
"2. c #18313B",
"3. c #1B323E",
"4. c #3E2129",
"5. c #3A202E",
"6. c #3A202F",
"7. c #3C202C",
"8. c #20223E",
"9. c #21223F",
"0. c #3F2332",
"q. c #342F30",
"w. c #4B1019",
"e. c #52111B",
"r. c #57121D",
"t. c #42211E",
"y. c #5E2714",
"u. c #401A22",
"i. c #5B2B25",
"p. c #46342C",
"a. c #5F322B",
"s. c #432433",
"d. c #462530",
"f. c #452634",
"g. c #4B2732",
"h. c #482634",
"j. c #492735",
"k. c #4A2836",
"l. c #4B2836",
"z. c #4E2934",
"x. c #4F2A35",
"c. c #4D2937",
"v. c #4F2A38",
"b. c #502B38",
"n. c #522C39",
"m. c #542C38",
"M. c #562D39",
"N. c #562D3B",
"B. c #572E3A",
"V. c #572E3B",
"C. c #582E3C",
"Z. c #553B36",
"A. c #5B303D",
"S. c #682622",
"D. c #703121",
"F. c #743924",
"G. c #773B37",
"H. c #06403E",
"J. c #564136",
"K. c #5A4438",
"L. c #5B473D",
"P. c #5F493C",
"I. c #6F4D2F",
"U. c #153841",
"Y. c #143A42",
"T. c #222440",
"R. c #232441",
"E. c #262643",
"W. c #272743",
"Q. c #262644",
"!. c #272744",
"~. c #272A45",
"^. c #2D2D4A",
"/. c #22304D",
"(. c #5A174C",
"). c #72174D",
"_. c #76174D",
"`. c #793941",
"'. c #004B47",
"]. c #0A474A",
"[. c #054E4D",
"{. c #09494A",
"}. c #00504C",
"|. c #005652",
" X c #005851",
".X c #005A51",
"XX c #005D50",
"oX c #006E41",
"OX c #00664F",
"+X c #007646",
"@X c #007948",
"#X c #007E4B",
"$X c #595559",
"%X c #5B5F6E",
"&X c #555A75",
"*X c #656569",
"=X c #7F7471",
"-X c #7A7B7F",
";X c #90352E",
":X c #90352F",
">X c #A32237",
",X c #82174E",
"<X c #8C174F",
"1X c #8E174E",
"2X c #8D1B51",
"3X c #A21E4A",
"4X c #942147",
"5X c #A62E44",
"6X c #C42942",
"7X c #C92B44",
"8X c #DF2B67",
"9X c #9F4F49",
"0X c #A54E57",
"qX c #BA5C55",
"wX c #816351",
"eX c #B3704E",
"rX c #A57E68",
"tX c #C2685E",
"yX c #D26558",
"uX c #D36961",
"iX c #BE9178",
"pX c #DD8A67",
"aX c #FCAB6C",
"sX c #FFB06D",
"dX c #606580",
"fX c #606680",
"gX c #7E7E83",
"hX c #868CA6",
"jX c #8B90AB",
"kX c #8F96B0",
"lX c #979DB9",
"zX c #989EB9",
"xX c #999FBA",
"cX c #9AA1BB",
"vX c #D2A084",
"bX c #DBA78A",
"nX c #DEA78A",
"mX c #EFB696",
"MX c #FEC2A0",
"NX c #FFC3A1",
"BX c #A3A9C4",
"VX c #E8D8D4",
"CX c None",
/* pixels */
"CXCXCXCXCXCXCXCXCXCXCXCXCXCXCXCXCXCXCXCXCXCXCXCXCXCXCXCXCXCXCXCXCXCXCXCXCXCXCXCXCXCXCXCXCXCXCXCXCXCXCXCXCXCXCXCXCXCXCXCX",
"CXCXCXCXCXCXCXCXCXCXCXCXCXCXCXCXCXCXCXCXCXCXCXCXCXCXCXCXCXCXCXCXCXCXCXCXCXCXCXCXCXCXCXCXCXCXCXCXCXCXCXCXCXCXCXCXCXCXCXCX",
"CXCXCXCXCXCXCXCXCXCXCXCXCXCXCXCXCXCXCXCXCXCXCXCXCXCXCXCXCXCXCXCXCXCXCXCXCXCXCXCXCXCXCXCXCXCXCXCXCXCXCXCXCXCXCXCXCXCXCXCX",
"CXCXCXCXCXCXCXCXCXCXCXCXCXCXCXCXCXCXCXCXCXCXCXCXCXCXCXCXCXCXCXCXCXCXCXCXCXCXCXCXCXCXCXCXCXCXCXCXCXCXCXCXCXCXCXCXCXCXCXCX",
"CXCXCXCXCXCXCXCXCXCXCXCXCXCXCXCXCXCXCXCXCXCXCXCXCXCXCXCXCXCXCXCXCXCXCXCXCXCXCXCXCXCXCXCXCXCXCXCXCXCXCXCXCXCXCXCXCXCXCXCX",
"CXCXCXCXCXCXCXCXCXCXCXCXCXCXCXCXCXCXCXCXCXCXCXCXCXCXCXCXCXCXCXCXCXCXCXCXCXCXCXCXCXCXCXCXCXCXCXCXCXCXCXCXCXCXCXCXCXCXCXCX",
"CXCXCXCXCXCXCXCXCXCXCXCXCXCXCXCXCXCXCXCXCXCXCXCXCXCXCXCXCXCXCXCXCXCXCXCXCXCXCXCXCXCXCXCXCXCXCXCXCXCXCXCXCXCXCXCXCXCXCXCX",
"CXCXCXCXCXCXCXCXCXCXCXCXCXCXCXCXCXCXCXCXCXCXCXCXCXCXCXCXCXCXCXCXCXCXCXCXCXCXCXCXCXCXCXCXCXCXCXCXCXCXCXCXCXCXCXCXCXCXCXCX",
"CXCXCXCXCXCXCXCXCXCXCXCXCXCXCXCXCXCXCXCXCXCXCXCXCXCXCXCXCXCXCXCXCXCXCXCXCXCXCXCXCXCXCXCXCXCXCXCXCXCXCXCXCXCXCXCXCXCXCXCX",
"CXCXCXCXCXCXCXCXCXCXCXCXCXCXCXCXCXCXCXCXCXCXCXCXCXCXCXCXCXCXCXCXCXCXCXCXCXCXCXCXCXCXCXCXCXCXCXCXCXCXCXCXCXCXCXCXCXCXCXCX",
"CXCXCXCXCXCXCXCXCXCXCXCXCXCXCXCXCXCXCXCXCXCXCXCXCXCXCXCXCXCXCXCXCXCXCXCXCXCXCXCXCXCXCXCXCXCXCXCXCXCXCXCXCXCXCXCXCXCXCXCX",
"CXCXCXCXCXCXCXCXCXCXCXCXCXCXCXCXCXCXCXCXCXCXCXCXCXCXCXCXCXCXCXCXCXCXCXCXCXCXCXCXCXCXCXCXCXCXCXCXCXCXCXCXCXCXCXCXCXCXCXCX",
"CXCXCXCXCXCXCXCXCXCXCXCXCXCXCXCXCXCXCXCXCXCXCXCXCXCXCXCXCXCXCXCXCXCXCXCXCXCXCXCXCXCXCXCXCXCXCXCXCXCXCXCXCXCXCXCXCXCXCXCX",
"CXCXCXCXCXCXCXCXCXCXCXCXCXCXCXCXCXCXCXCXCXCXCXCXCXCXCXCXCXCXCXCXCXCXCXCXCXCXCX<.Y CXT hXCXCXCXCXCXCXCXCXCXCXCXCXCXCXCXCX",
"CXCXCXCXCXCXCXCXCXCXCXCXCXCXCXCXCXCXCXCXCXCXCXCXCXCXCXCXCXCXCXCXCXCXCXCXCXCXCXR CXCXCX9.CXCXCXCXCXCXCXCXCXCXCXCXCXCXCXCX",
"CXCXCXCXCXCXCXCXCXCXCXCXCXCXCXCXCXCXCXCXCXCXCXCXCXCXCXCXCXCXCXCXCXCXCXCXJ CXCXCXCXCXCXCXE.kXCXCXCXCXCXCXCXCXCXCXCXCXCXCX",
"CXCXCXCXCXCXCXCXCXCXCXCXCXCXCXCXCXCXCXCXCXCXCXCXCXCXCXCXCXCXCXCXCXCXCX! CXCXCXCXCXCXCXCXU U CXCXCXCXCXCXCXCXCXCXCXCXCXCX",
"CXCXCXCXCXCXCXCXCXCXCXCXCXCXCXCXCXCXCXCXCXCXCXCXCXCXCXCXCXCXCXCXCXCXCXCXCXCXCXCXCXCXCXCXCXCXCXCXCXCXCXCXCXCXCXCXCXCXCXCX",
"CXCXCXCXCXCXCXCXCXCXCXCXCXCXCXCXCXCXCXCXCXCXCXCXCXCXCXCXCXCXCXCXCXCXCXCXCXCXCXCXCXCXCXCX^.CXCXCXCXCXCXCXCXCXCXCXCXCXCXCX",
"CXCXCXCXCXCXCXCXCXCXCXCXCXCXCXCXCXCXCXCXCXCXCXCXCXCXCXCXCXdXCXCXE.CXCXCXCXCXCXCXCXCXCXCXI CXCXCXCXCXCXCXCXCXCXCXCXCXCXCX",
"CXCXCXCXCXCXCXCXCXCXCXCXCXCXCXCXCXCXCXCXCXCXCXCXCX1 CXCXCXW CXCXCXCXCXCXCXCXCXCXCXCXCXQ.CXCXCXCXCXCXCXCXCXCXCXCXCXCXCXCX",
"CXCXCXCXCXCXCXCXCXCXCXCXCXCXCXCXCXCXCXr S S S   K.q.R.CXCXCXCXCXCXCXCXCXCXCXCXCXCXCX~.CXCXCXCXCXCXCXxXCXCXCXCXCXCXCXCXCX",
"CXCXCXCXCXCXCXCXCXCXCXCXCXCXCXCXCXCXB Z S.C C C i.= CXCXCXCXCXCXCXCXCXCXCXCXCXCXCX~ CXCXCXCXCXCXCXlX!.CXCXK CXCXCXCXCXCX",
"CXCXCXCXCXCXCXCXCXCXCXCXCXCXCXCXCXCX2Xt u.M : p.s L.%XCXCXCXCXCXCXCXCXCXCXCXCXCXfXCXCXCXCXCXCXCXCXCXCXCXCX/ CXCXCXCXCXCX",
"CXCXCXCXCXCXCXCXCXCXCXCXCXCXCXCXCX8X4X8 #.J.NXrX* P CXCXCXCXCXCXCXCXCXCXCXCXCXCXE CXCXCXCXCXCXCXCXE.CXCXCXCXCXCXCXCXCXCX",
"CXCXCXCXCXCXCXCXCXCXCXCXCXCXCXCX/.CX5X& 4 VXiX=X- CXCXCXCXCXCXCXCXCXCXCXCXCXCXCXCXCXCXCXCXCXCXjXCXCXCXCXCX8.CXCXCXCXCXCX",
"CXCXCXCXCXCXCXCXCXCXCXCXCXCXCXCXCXCXCX  3 MXNXNX  CXCXCXCXCXCXCXCXCXCXCXCXCXL CXCXCXCXCXCXCXCXE.CXCXCXCXCXCXG CXCXCXCXCX",
"CXCXCXCXCXCXCXCXCXCXCXCXCXCXCXCXCXCXCXCXCXtXNXwXx.  CXCXCXCXCXCXCXCXCXCXCXCXzXCXCXCXCXCXCXCXCXCXCXCXCXCXCXCXCXCXCXCXCXCX",
"CXCXCXCXCXCXCXCXCXCXCXCXCXCXCXCXCXCXCXCXCXqXt.z.A.5.  CXCXCXCXCXCXCXCXCXCXCXCXCXCXCXCXCXCXCX^ CXCXCXCXW.&XCXCXCXCXCXCXCX",
"CXCXCXCXCXCXCXCXCXCXCXCXCXCXCXCXCXCXCX2 @.-XvXZ.s.` CXCXCXCXCXCXCXCXCXCXCXBXW CXCXCXCXCXCXCXCXCXCXCXCXCXCXCXCXCXCXCXCXCX",
"CXCXCXCXCXCXCXCXCXCXCXCXCXCXCXCXCXCXe V.%.m *XgX5 p CXCXCXCXCXCXCXCXCXCXCXCXCXCXCXCXCXCXCXT.CXCXCXCXCXCXCXCXCXCXCXCXCXCX",
"CXCXCXCXCXCXCXCXCXCXCXCXCXCXCXCXCX  A.O...A.n $X$.CXCXCXCXCXCXCXCXCXCXCXCXcXW.CXCXCXCXCX9.CXCXCXCXCXCXCXCXCXCXCXCXCXCXCX",
"CXCXCXCXCXCXCXCXCXCXCXCXCXCXCXCXCXo.b.# A.A.A.v $.CXCXCXCXCXCXCXCXCXCXCXCXCX!.CXCXfXCX9.CXCXCXCXCXCXCXCXCXCXCXCXCXCXCXCX",
"CXCXCXCXCXCXCXCXCXCXCXCXCXCXCXCX  M.h.# f.A.A.m.@ CXCXCXCXCXCXCXCXCXCXCXCXCXCXCXCXQ CXCXCXCXCXCXCXCXCXCXCXCXCXCXCXCXCXCX",
"CXCXCXCXCXCXCXCXCXCXCXCXCXCXCXCXD +.> X &.C.A.A.c CXCXCXCXCXCXCXCXCXCXCXCXCXCXCXCXCXCXCXCXCXCXCXCXCXCXCXCXCXCXCXCXCXCXCX",
"CXCXCXCXCXCXCXCXCXCXCXCXCXCXCXCX4.v.[ a d j.N.n.=.  CXCXCXCXCXCXCXCXCXCXCXCXCXCXCXCXCXCXCXCXCXCXCXCXCXCXCXCXCXCXCXCXCXCX",
"CXCXCXCXCXCXCXCXCXCXCXCXCXCXCXCX4.A.7.i } }  .A w.  CXCXCXCXCXCXCXCXCXCXCXCXCXCXCXCXCXCXCXCXCXCXCXCXCXCXCXCXCXCXCXCXCXCX",
"CXCXCXCXCXCXCXCXCXCXCXCXCXCXCXCX4.*.P.bX  ; o u x z CXCXCXCXCXCXCXCXCXCXCXCXCXCXCXCXCXCXCXCXCXCXCXCXCXCXCXCXCXCXCXCXCXCX",
"CXCXCXCXCXCXCXCXCXCXCXCXCXCXCXCX  w q NX0 { > (.3X>XCXCXCXCXCXCXCXCXCXCXCXCXCXCXCXCXCXCXCXCXCXCXCXCXCXCXCXCXCXCXCXCXCXCX",
"CXCXCXCXCXCXCXCXCXCXCXCXCXCXCXCXCX  q NXmX_ > ).1X6X  CXCXCXCXCXCXCXCXCXCXCXCXCXCXCXCXCXCXCXCXCXCXCXCXCXCXCXCXCXCXCXCXCX",
"CXCXCXCXCXCXCXCXCXCXCXCXCXCXCXCXCX  9   . O ) _.<X7X  CXCXCXCXCXCXCXCXCXCXCXCXCXCXCXCXCXCXCXCXCXCXCXCXCXCXCXCXCXCXCXCXCX",
"CXCXCXCXCXCXCXCXCXCXCXCXCXCXCXCXCX  I.I.I.a.;.,X( r.e.CXCXCXCXCXCXCXCXCXCXCXCXCXCXCXCXCXCXCXCXCXCXCXCXCXCXCXCXCXCXCXCXCX",
"CXCXCXCXCXCXCXCXCXCXCXCXCXCXCXCXCX  sXaXuX0X$ g Y..X@XCXCXCXCXCXCXCXCXCXCXCXCXCXCXCXCXCXCXCXCXCXCXCXCXCXCXCXCXCXCXCXCXCX",
"CXCXCXCXCXCXCXCXCXCXCXCXCXCXCXCXCX% eX9X`.`.f 3.3.[.#X< CXCXCXCXCXCXCXCXCXCXCXCXCXCXCXCXCXCXCXCXCXCXCXCXCXCXCXCXCXCXCXCX",
"CXCXCXCXCXCXCXCXCXCXCXCXCXCXCXCX4.c.6...| ' h 3.3.U. X#XCXCXCXCXCXCXCXCXCXCXCXCXCXCXCXCXCXCXCXCXCXCXCXCXCXCXCXCXCXCXCXCX",
"CXCXCXCXCXCXCXCXCXCXCXCXCXCXCX  B.A.A.A.0.+ ,.3.3.U. X#XCXCXCXCXCXCXCXCXCXCXCXCXCXCXCXCXCXCXCXCXCXCXCXCXCXCXCXCXCXCXCXCX",
"CXCXCXCXCXCXCXCXCXCXCXCXCXCXCX  A.A.A.V.X.+ ,.3.3.U. X#XCXCXCXCXCXCXCXCXCXCXCXCXCXCXCXCXCXCXCXCXCXCXCXCXCXCXCXCXCXCXCXCX",
"CXCXCXCXCXCXCXCXCXCXCXCXCXCXCXCXg.A.A.k.] 6 1.3.3.|.#X>.CXCXCXCXCXCXCXCXCXCXCXCXCXCXCXCXCXCXCXCXCXCXCXCXCXCXCXCXCXCXCXCX",
"CXCXCXCXCXCXCXCXCXCXCXCXCXCXCX  :.d.l.-.' j 3.3.].XX#X< CXCXCXCXCXCXCXCXCXCXCXCXCXCXCXCXCXCXCXCXCXCXCXCXCXCXCXCXCXCXCXCX",
"CXCXCXCXCXCXCXCXCXCXCXCXCXCXCX'.|.H y b k j 3.{.|.#X+XCXCXCXCXCXCXCXCXCXCXCXCXCXCXCXCXCXCXCXCXCXCXCXCXCXCXCXCXCXCXCXCXCX",
"CXCXCXCXCXCXCXCXCXCXCXCXCXCX4 N }.}.H.l l 2.|.|.OX+XoXCXCXCXCXCXCXCXCXCXCXCXCXCXCXCXCXCXCXCXCXCXCXCXCXCXCXCXCXCXCXCXCXCX",
"CXCXCXCXCXCXCXCXCXCXCXCXCXCXnXV CXCX, , , , , , < CXCXCXCXCXCXCXCXCXCXCXCXCXCXCXCXCXCXCXCXCXCXCXCXCXCXCXCXCXCXCXCXCXCXCX",
"CXCXCXCXCXCXCXCXCXCXCXCXCXCXmXCXCXCXCXCXCXCXCXD.y.CXCXCXCXCXCXCXCXCXCXCXCXCXCXCXCXCXCXCXCXCXCXCXCXCXCXCXCXCXCXCXCXCXCXCX",
"CXCXCXCXCXCXCXCXCXCXCXCXCXF pX7 CXCXCXCXCXCXCXG.yXF.  CXCXCXCXCXCXCXCXCXCXCXCXCXCXCXCXCXCXCXCXCXCXCXCXCXCXCXCXCXCXCXCXCX",
"CXCXCXCXCXCXCXCXCXCXCXCXCX:X:X:XCXCXCXCXCXCXCX:X:X:X;XCXCXCXCXCXCXCXCXCXCXCXCXCXCXCXCXCXCXCXCXCXCXCXCXCXCXCXCXCXCXCXCXCX",
"CXCXCXCXCXCXCXCXCXCXCXCXCXCXCXCXCXCXCXCXCXCXCXCXCXCXCXCXCXCXCXCXCXCXCXCXCXCXCXCXCXCXCXCXCXCXCXCXCXCXCXCXCXCXCXCXCXCXCXCX",
"CXCXCXCXCXCXCXCXCXCXCXCXCXCXCXCXCXCXCXCXCXCXCXCXCXCXCXCXCXCXCXCXCXCXCXCXCXCXCXCXCXCXCXCXCXCXCXCXCXCXCXCXCXCXCXCXCXCXCXCX",
"CXCXCXCXCXCXCXCXCXCXCXCXCXCXCXCXCXCXCXCXCXCXCXCXCXCXCXCXCXCXCXCXCXCXCXCXCXCXCXCXCXCXCXCXCXCXCXCXCXCXCXCXCXCXCXCXCXCXCXCX",
"CXCXCXCXCXCXCXCXCXCXCXCXCXCXCXCXCXCXCXCXCXCXCXCXCXCXCXCXCXCXCXCXCXCXCXCXCXCXCXCXCXCXCXCXCXCXCXCXCXCXCXCXCXCXCXCXCXCXCXCX",
"CXCXCXCXCXCXCXCXCXCXCXCXCXCXCXCXCXCXCXCXCXCXCXCXCXCXCXCXCXCXCXCXCXCXCXCXCXCXCXCXCXCXCXCXCXCXCXCXCXCXCXCXCXCXCXCXCXCXCXCX"
};
