/* XPM */
static char *result[] = {
/* columns rows colors chars-per-pixel */
"60 60 173 2 ",
"   c black",
".  c #010001",
"X  c #040102",
"o  c #040202",
"O  c #050305",
"+  c #060304",
"@  c #060305",
"#  c #070404",
"$  c #080505",
"%  c #0B0404",
"&  c #090506",
"*  c #0B0507",
"=  c #0E0505",
"-  c #040C0A",
";  c #000C0C",
":  c #000E0C",
">  c #080C0E",
",  c #0F0D0D",
"<  c #12090B",
"1  c #160B0D",
"2  c #190A0C",
"3  c #190B0D",
"4  c #1A0A0D",
"5  c #1C0E0D",
"6  c #03170F",
"7  c #0B0F10",
"8  c #110910",
"9  c #120A11",
"0  c #140B13",
"q  c #170D12",
"w  c #150B14",
"e  c #160C15",
"r  c #190D10",
"t  c #1E0C10",
"y  c #1C0F17",
"u  c #1A0E19",
"i  c #0B1911",
"p  c #061B1D",
"a  c #141315",
"s  c #1D1015",
"d  c #1F1014",
"f  c #1F1814",
"g  c #1D1019",
"h  c #1E101C",
"j  c #1C151E",
"k  c #181818",
"l  c #1A1A1B",
"z  c #260F11",
"x  c #201115",
"c  c #231115",
"v  c #221216",
"b  c #241317",
"n  c #211715",
"m  c #221A15",
"M  c #241817",
"N  c #221319",
"B  c #20111B",
"V  c #27151A",
"C  c #22121C",
"Z  c #2A161C",
"A  c #241F1F",
"S  c #2E181E",
"D  c #32111B",
"F  c #34161C",
"G  c #39171F",
"H  c #002E1B",
"J  c #00281C",
"K  c #002E1E",
"L  c #062E1F",
"P  c #24221E",
"I  c #131C20",
"U  c #221320",
"Y  c #251423",
"T  c #271625",
"R  c #291727",
"E  c #2A1727",
"W  c #2C1821",
"Q  c #2B1824",
"!  c #2E1928",
"~  c #2F1A29",
"^  c #3F1724",
"/  c #301920",
"(  c #311A21",
")  c #321B21",
"_  c #301A22",
"`  c #351C23",
"'  c #391E27",
"]  c #301A2A",
"[  c #321B2B",
"{  c #3B1F2B",
"}  c #3C1F28",
"|  c #391F2E",
" . c #1F262C",
".. c #0C3D28",
"X. c #27202B",
"o. c #2D262C",
"O. c #3D2029",
"+. c #3F2129",
"@. c #2B2E32",
"#. c #372834",
"$. c #41181A",
"%. c #481B1E",
"&. c #590E2E",
"*. c #401A22",
"=. c #431928",
"-. c #4B2522",
";. c #41222B",
":. c #4C2A2F",
">. c #50302A",
",. c #422332",
"<. c #432332",
"1. c #452634",
"2. c #492731",
"3. c #522B37",
"4. c #522C39",
"5. c #562D3A",
"6. c #592F3C",
"7. c #4E3A31",
"8. c #5B303D",
"9. c #742030",
"0. c #00472C",
"q. c #00603C",
"w. c #006A3F",
"e. c #7D5635",
"r. c #0E3E42",
"t. c #163741",
"y. c #6D1748",
"u. c #004541",
"i. c #004845",
"p. c #005C41",
"a. c #00514A",
"s. c #005C50",
"d. c #02624C",
"f. c #1B6045",
"g. c #336A50",
"h. c #434A44",
"j. c #4D4D4F",
"k. c #785C4C",
"l. c #626576",
"z. c #7F7B7B",
"x. c #8C5E3C",
"c. c #8F633C",
"v. c #881F43",
"b. c #901D43",
"n. c #972245",
"m. c #9C2751",
"M. c #92444E",
"N. c #9E4B51",
"B. c #A8544D",
"V. c #AB5158",
"C. c #BB7A68",
"Z. c #E0466C",
"A. c #D16961",
"S. c #D06B61",
"D. c #DF7A64",
"F. c #538E70",
"G. c #7B857C",
"H. c #D2845B",
"J. c #DF9A5F",
"K. c #C99A7F",
"L. c #F19A69",
"P. c #FFB06D",
"I. c #6F6F84",
"U. c #929291",
"Y. c #9A9AA0",
"T. c #9298AF",
"R. c #9EA7BF",
"E. c #A4ADA2",
"W. c #ABB2A4",
"Q. c #ABADB0",
"!. c #E5A087",
"~. c #AEB5C9",
"^. c None",
/* pixels */
"^.^.^.^.^.^.^.^.^.^.^.^.^.^.^.^.^.^.^.^.^.^.^.^.^.^.^.^.^.^.^.^.^.^.^.^.^.^.^.^.^.^.^.^.^.^.^.^.^.^.^.^.^.^.^.^.^.^.^.^.",
"^.^.^.^.^.^.^.^.^.^.^.^.^.^.^.^.^.^.^.^.^.^.^.^.^.^.^.^.^.^.^.^.^.^.^.^.^.^.^.^.^.^.^.^.^.^.^.^.^.^.^.^.^.^.^.^.^.^.^.^.",
"^.^.^.^.^.^.^.^.^.^.^.^.^.^.^.^.^.^.^.^.^.^.^.^.^.^.^.^.^.^.^.^.^.^.^.^.^.^.^.^.^.^.^.^.^.^.^.^.^.^.^.^.^.^.^.^.^.^.^.^.",
"^.^.^.^.^.^.^.^.^.^.^.^.^.^.^.^.^.^.^.^.^.^.^.^.^.^.^.^.^.^.^.^.^.^.^.^.^.^.^.^.^.^.^.^.^.^.^.^.^.^.^.^.^.^.^.^.^.^.^.^.",
"^.^.^.^.^.^.^.^.^.^.^.^.^.^.^.^.^.^.^.^.^.^.^.^.^.^.^.^.^.^.^.^.^.^.^.^.^.^.^.^.^.^.^.^.^.^.^.^.^.^.^.^.^.^.^.^.^.^.^.^.",
"^.^.^.^.^.^.^.^.^.^.^.^.^.^.^.^.^.^.^.^.^.^.^.^.^.^.^.^.^.^.^.^.^.^.^.^.^.^.^.^.^.^.^.^.^.^.^.^.^.^.^.^.^.^.^.^.^.^.^.^.",
"^.^.^.^.^.^.^.^.^.^.^.^.^.^.^.^.^.^.^.^.^.^.^.^.^.^.^.^.^.^.^.^.^.^.^.^.^.^.^.^.^.^.^.^.^.^.^.^.^.^.^.^.^.^.^.^.^.^.^.^.",
"^.^.^.^.^.^.^.^.^.^.^.^.^.^.^.^.^.^.^.^.^.^.^.^.^.^.^.^.^.^.^.^.^.^.^.^.^.^.^.^.^.^.^.^.^.^.^.^.^.^.^.^.^.^.^.^.^.^.^.^.",
"^.^.^.^.^.^.^.^.^.^.^.^.^.^.^.^.^.^.^.^.^.^.^.^.^.^.^.^.^.^.^.^.^.^.^.^.^.^.^.^.^.^.^.^.^.^.^.^.^.^.^.^.^.^.^.^.^.^.^.^.",
"^.^.^.^.^.^.^.^.^.^.^.^.^.^.^.^.^.^.^.^.^.^.^.^.^.^.^.^.^.^.^.^.^.^.^.^.^.^.^.^.^.^.^.^.^.^.^.^.^.^.^.^.^.^.^.^.^.^.^.^.",
"^.^.^.^.^.^.^.^.^.^.^.^.^.^.^.^.^.^.^.^.^.^.^.^.^.^.^.^.^.^.^.^.^.^.^.^.^.^.^.^.^.^.^.^.^.^.^.^.^.^.^.^.^.^.^.^.^.^.^.^.",
"^.^.^.^.^.^.^.^.^.^.^.^.^.^.^.^.^.^.^.^.^.^.^.^.^.^.^.^.^.^.^.^.^.^.^.^.^.^.^.^.^.^.^.^.^.^.^.^.^.^.^.^.^.^.^.^.^.^.^.^.",
"^.^.^.^.^.^.^.^.^.^.^.^.^.^.^.^.^.^.^.^.^.^.^.^.^.^.^.^.^.^.^.^.^.^.^.^.^.^.^.^.^.^.^.^.^.^.^.^.^.^.^.^.^.^.^.^.^.^.^.^.",
"^.^.^.^.^.^.^.^.^.^.^.^.^.^.^.^.^.^.^.^.^.^.^.^.^.^.^.^.^.^.^.^.^.^.^.^.^.^.^.^.^.^.^.^.^.^.^.^.^.^.^.^.^.^.^.^.^.^.^.^.",
"^.^.^.^.^.^.^.^.^.^.^.^.^.^.^.^.^.^.^.^.^.^.^.^.^.^.^.^.^.^.^.^.^.^.^.^.^.^.^.^.^.^.^.^.^.^.^.^.^.^.^.^.^.^.^.^.^.^.^.^.",
"^.^.^.^.^.^.^.^.^.^.^.^.^.^.^.^.^.^.^.^.^.^.^.^.^.^.^.^.^.^.^.^.^.^.^.^.^.^.^.^.^.^.^.^.^.^.^.^.^.^.^.^.^.^.^.^.^.^.^.^.",
"^.^.^.^.^.^.^.^.^.^.^.^.^.^.^.^.^.^.^.^.^.^.^.^.^.^.^.^.^.^.^.^.^.^.^.^.^.^.^.^.^.^.^.^.^.^.^.^.^.^.^.^.^.^.^.^.^.^.^.^.",
"^.^.^.^.^.^.^.^.^.^.^.^.^.^.^.^.^.^.^.^.^.^.^.^.^.^.^.^.^.^.^.^.^.^.^.^.^.^.^.^.^.^.^.^.^.^.^.^.^.^.^.^.^.^.^.^.^.^.^.^.",
"^.^.^.^.^.^.^.^.^.^.^.^.^.^.^.^.^.^.^.^.^.^.^.^.^.^.^.^.^.^.^.^.^.^.^.^.^.^.^.^.^.^.^.^.^.^.^.^.^.^.^.^.^.^.^.^.^.^.^.^.",
"^.^.^.^.^.^.^.^.^.^.^.^.^.^.^.^.^.^.^.^.^.^.^.^.^.^.^.^.^.^.^.^.^.^.^.^.^.^.^.^.^.^.^.^.^.^.^.^.^.^.^.^.^.^.^.^.^.^.^.^.",
"^.^.^.^.^.^.^.^.^.^.^.^.^.^.^.^.^.^.^.^.^.^.^.^.^.^.^.^.^.^.^.^.^.^.^.^.^.^.^.^.^.^.^.^.^.^.^.^.^.^.^.^.^.^.^.^.^.^.^.^.",
"^.^.^.^.^.^.^.^.^.^.^.^.^.^.^.^.^.^.^.^.^.^.^.^.^.^.^.^.^.^.^.^.^.^.^.^.^.^.^.^.^.^.^.^.^.^.^.^.^.^.^.^.^.^.^.^.^.^.^.^.",
"^.^.^.^.^.^.^.^.^.^.^.^.^.^.^.^.^.^.^.^.^.^.^.^.^.^.^.^.^.^.^.^.^.^.^.^.^.^.^.^.^.^.^.^.^.^.^.^.^.^.^.^.^.^.^.^.^.^.^.^.",
"^.^.^.^.^.^.^.^.^.^.^.^.^.^.^.^.^.^.^.^.^.^.^.^.^.^.^.^.^.^.^.^.^.^.^.^.^.^.^.^.^.^.^.^.^.^.^.^.^.^.^.^.^.^.^.^.^.^.^.^.",
"^.^.^.^.^.^.^.^.^.^.^.^.^.^.^.^.^.^.^.^.^.^.^.^.^.^.^.^.^.^.^.^.^.^.^.^.^.^.^.^.^.^.^.^.^.^.^.^.^.^.^.^.^.^.^.^.^.^.^.^.",
"^.^.^.^.^.^.^.^.^.^.^.^.^.^.^.^.^.^.^.^.^.^.^.^.^.^.^.^.^.^.^.^.^.^.^.^.^.^.^.^.^.^.^.^.^.^.^.^.^.^.^.^.^.^.^.^.^.^.^.^.",
"^.^.^.^.^.^.^.^.^.^.^.^.^.^.^.^.^.^.^.^.^.^.^.^.^.^.^.^.^.^.^.^.^.^.^.^.^.^.^.^.^.^.^.^.^.^.^.^.^.^.^.^.^.^.^.^.^.^.^.^.",
"^.^.^.^.^.^.^.^.^.^.^.^.^.^.^.^.^.^.^.^.^.^.^.^.^.^.^.^.^.^.^.^.^.^.^.^.^.^.^.^.^.^.^.^.^.^.^.^.^.^.^.^.^.^.^.^.^.^.^.^.",
"^.^.^.^.^.^.^.^.^.^.^.^.^.^.^.^.^.^.^.^.^.^.^.^.^.^.^.^.^.^.^.^.^.^.^.^.^.^.^.^.^.^.^.^.^.^.^.^.^.^.^.^.^.^.^.^.^.^.^.^.",
"^.^.^.^.^.^.^.^.^.^.^.^.^.^.^.^.^.^.^.^.^.^.^.^.^.^.^.^.^.^.^.^.^.^.^.^.^.^.^.^.^.^.^.^.^.^.^.^.^.^.^.^.^.^.^.^.^.^.^.^.",
"^.^.^.^.^.^.^.^.^.^.^.^.^.^.^.^.^.^.^.^.^.^.^.^.^.^.^.^.^.^.^.^.^.^.^.^.^.^.^.^.^.^.^.^.^.^.^.^.^.^.^.^.^.^.^.^.^.^.^.^.",
"^.^.^.^.^.^.^.^.^.^.^.^.^.^.^.^.^.^.^.^.^.^.^.^.^.^.^.^.^.^.^.^.^.^.^.^.^.^.^.^.^.^.^.^.^.^.^.^.^.^.^.^.^.^.^.^.^.^.^.^.",
"^.^.^.^.^.^.^.^.^.^.^.^.^.^.^.^.^.^.^.^.^.^.^.^.^.^.^.^.^.^.^.^.^.^.^.^.^.^.^.^.^.^.^.^.^.^.^.^.^.^.^.^.^.^.^.^.^.^.^.^.",
"^.^.^.^.^.^.^.^.^.^.^.^.^.^.^.^.^.^.^.^.^.^.^.^.^.^.^.^.^.^.^.^.^.^.^.^.^.^.^.^.^.^.^.^.^.^.^.^.^.^.^.^.^.^.^.^.^.^.^.^.",
"^.^.^.^.^.^.^.^.^.^.^.^.^.^.^.^.^.^.^.^.^.^.^.^.^.^.^.^.^.^.^.^.^.^.^.^.^.^.^.^.^.^.^.^.^.^.^.^.^.^.^.^.^.^.^.^.^.^.^.^.",
"^.^.^.^.^.^.^.^.^.^.^.^.^.^.^.^.^.^.^.^.^.^.^.^.^.^.^.^.^.^.^.^.^.^.^.^.^.^.^.^.^.^.^.^.^.^.^.^.^.^.^.^.^.^.^.^.^.^.^.^.",
"^.^.^.^.^.^.^.^.^.^.^.^.^.^.^.^.^.^.^.^.^.^.^.^.^.^.^.^.^.^.^.^.^.^.^.^.^.^.^.^.^.^.^.^.^.^.^.^.^.^.^.^.^.^.^.^.^.^.^.^.",
"^.^.^.^.^.^.^.^.^.^.^.^.^.^.^.^.^.^.^.^.^.^.^.^.^.^.^.^.^.^.^.^.^.^.^.^.^.^.^.^.^.^.^.^.^.^.^.^.^.^.^.^.^.^.^.^.^.^.^.^.",
"^.^.^.^.^.^.^.^.^.^.^.^.^.^.^.^.^.^.^.^.^.^.^.^.^.^.^.^.^.^.^.^.^.^.^.^.^.^.^.^.^.^.^.^.^.^.^.^.^.^.^.^.^.^.^.^.^.^.^.^.",
"^.^.^.^.^.^.^.^.^.^.^.^.^.^.^.^.^.^.^.^.^.^.^.^.^.^.^.^.^.^.^.^.^.^.^.^.^.^.^.^.^.^.^.^.^.^.^.^.^.^.^.^.^.^.^.^.^.^.^.^.",
"^.^.^.^.^.^.^.^.^.^.^.^.^.^.^.^.^.^.^.^.^.^.^.^.^.^.^.^.^.^.^.^.^.^.^.^.^.^.^.^.^.^.^.^.^.^.^.^.^.^.^.^.^.^.^.^.^.^.^.^.",
"^.^.^.^.^.^.^.^.^.^.^.^.^.^.^.^.^.^.^.^.^.^.^.^.^.^.^.^.^.^.^.^.^.^.^.^.^.^.^.^.^.^.^.^.^.^.^.^.^.^.^.^.^.^.^.^.^.^.^.^.",
"^.^.^.^.^.^.^.^.^.^.^.^.^.^.^.^.^.^.^.^.^.^.^.^.^.^.^.^.^.^.^.^.^.^.^.^.^.^.^.^.^.^.^.^.^.^.^.^.^.^.^.^.^.^.^.^.^.^.^.^.",
"^.^.^.^.^.^.^.^.^.^.^.^.^.^.^.^.^.^.^.^.^.^.^.^.^.^.^.^.^.^.^.^.^.^.^.^.^.^.^.^.^.^.^.^.^.^.^.^.^.^.^.^.^.^.^.^.^.^.^.^.",
"^.^.^.^.^.^.^.^.^.^.^.^.^.^.^.^.^.^.^.^.^.^.^.^.^.^.^.^.^.^.^.^.^.^.^.^.^.^.^.^.^.^.^.^.^.^.^.^.^.^.^.^.^.^.^.^.^.^.^.^.",
"^.^.^.^.^.^.^.^.^.^.^.^.^.^.^.^.^.^.^.^.^.^.^.^.^.^.^.^.^.^.^.^.^.^.^.^.^.^.^.^.^.^.^.^.^.^.^.^.^.^.^.^.^.^.^.^.^.^.^.^.",
"^.^.^.^.^.^.^.^.^.^.^.^.^.^.^.^.^.^.^.^.^.^.^.^.^.^.^.^.^.^.^.^.^.^.^.^.^.^.^.^.^.^.^.^.^.^.^.^.^.^.^.^.^.^.^.^.^.^.^.^.",
"^.^.^.^.^.^.^.^.^.^.^.^.^.^.^.^.^.^.^.^.^.^.^.^.^.^.^.^.^.^.^.^.^.^.^.^.^.^.^.^.^.^.^.^.^.^.^.^.^.^.^.^.^.^.^.^.^.^.^.^.",
"^.^.^.^.^.^.^.^.^.^.^.^.^.^.^.^.^.^.^.^.^.^.^.^.^.^.^.^.^.^.^.^.^.^.^.^.^.^.^.^.^.^.^.^.^.^.^.^.^.^.^.^.^.^.^.^.^.^.^.^.",
"^.^.^.^.^.^.^.^.^.^.^.^.^.^.^.^.^.^.^.^.^.^.^.^.^.^.^.^.^.^.^.^.^.^.^.^.^.^.^.^.^.^.^.^.^.^.^.^.^.^.^.^.^.^.^.^.^.^.^.^.",
"^.^.^.^.^.^.^.^.^.^.^.^.^.^.^.^.^.^.^.^.^.^.^.^.^.^.^.^.^.^.^.^.^.^.^.^.^.^.^.^.^.^.^.^.^.^.^.^.^.^.^.^.^.^.^.^.^.^.^.^.",
"^.^.^.^.^.^.^.^.^.^.^.^.^.^.^.^.^.^.^.. x d ^.^.^.^.^.^.^.^.^.^.^.^.^.^.^.^.^.^.^.^.^.^.^.^.^.^.^.^.^.^.^.^.^.^.^.^.^.^.",
"^.^.^.^.^.^.^.^.^.^.^.^.^.^.^.^.^.^.b ` ;.Z r / o ^.^.^.^.^.^.^.^.^.^.^.^.^.^.^.^.^.^.^.^.^.^.^.^.^.^.^.^.^.^.^.^.^.^.^.",
"^.^.^.^.^.^.^.^.^.^.^.^.^.^.^.^.^.v 3.8.;.Z & } s X ^.^.^.^.^.^.^.^.^.^.^.^.^.^.^.^.^.^.^.^.^.^.^.^.^.^.^.^.^.^.^.^.^.^.",
"^.^.^.^.^.^.^.^.^.^.^.^.^.^.^.^.q 6.8.8.V x.c.e.B & ' ( ) ) ) ) S V $ ^.^.^.^.^.^.^.Z.&.= % ^.^.^.^.^.^.^.^.^.^.^.^.^.^.",
"^.^.^.^.^.^.^.^.^.^.^.^.^.^.^.^.y 1.4.8.V D.P.J.8 O | ,.4.4.4.4._ ;.2.+.^.^.^.^.* :.m.b.9.%.2 ^.^.^.^.^.^.^.^.^.^.^.^.^.",
"^.^.^.^.^.^.^.^.^.^.^.^.^.^.^.^.9 ! l A , A.L.J.H - T E [ [ ~ Q N O.5.5.' + ^.# ..f.n.v.y.$.*.^.^.^.^.^.^.^.^.^.^.^.^.^.",
"^.^.^.^.^.^.^.^.^.^.^.^.^.^.^.^.6 L w.p.J V.S.H.g.F.o.R R u w g { <.] C W q -.>.i P ^ D =.z *.^.^.^.^.^.^.^.^.^.^.^.^.^.",
"^.^.^.^.^.^.^.^.^.^.^.; : : K 0.q.d.d.r.p M.N.B.h.G.E.#.X.@.U.z.Y j 0 e a j.C.!.f F M 7.G t 4 ^.^.^.^.^.^.^.^.^.^.^.^.^.",
"^.^.^.^.^.^.^.^.^.^.  u.i.i.a.s.s.t.t.I > 3 3 5 7  .R.W.l.T.~.Q.@ I.U h Y.k m k.f 1 K.n c <   ^.^.^.^.^.^.^.^.^.^.^.^.^."
};
