/* XPM */
static char * Idle_2_xpm[] = {
"50 50 163 2",
"  	c None",
". 	c #230C0A",
"+ 	c #4B1B1B",
"@ 	c #2B1315",
"# 	c #310D13",
"$ 	c #1A0E13",
"% 	c #020102",
"& 	c #501D1B",
"* 	c #542527",
"= 	c #220B15",
"- 	c #5A1A26",
"; 	c #34141A",
"> 	c #3C1B1C",
", 	c #791747",
"' 	c #40141C",
") 	c #6E2929",
"! 	c #0F080C",
"~ 	c #43322A",
"{ 	c #3F2D27",
"] 	c #D32963",
"^ 	c #73193F",
"/ 	c #CE9E83",
"( 	c #DCA88B",
"_ 	c #5C453A",
": 	c #140A0C",
"< 	c #9F2247",
"[ 	c #861A3D",
"} 	c #221215",
"| 	c #58453B",
"1 	c #D5A386",
"2 	c #EFC2AA",
"3 	c #BB927C",
"4 	c #1E1117",
"5 	c #562D3A",
"6 	c #2B151A",
"7 	c #BB9D8E",
"8 	c #B18A73",
"9 	c #967664",
"0 	c #16110E",
"a 	c #0F2C32",
"b 	c #1B0B0E",
"c 	c #8F6D5A",
"d 	c #FEC3A1",
"e 	c #362A23",
"f 	c #7D5E4D",
"g 	c #EFA88D",
"h 	c #AA5556",
"i 	c #D2907A",
"j 	c #9D504A",
"k 	c #964137",
"l 	c #7A443D",
"m 	c #EFA886",
"n 	c #F7BC9B",
"o 	c #3A1C24",
"p 	c #524A4E",
"q 	c #787476",
"r 	c #AE8873",
"s 	c #F9BD9C",
"t 	c #6E6E72",
"u 	c #262525",
"v 	c #24131B",
"w 	c #331B25",
"x 	c #422432",
"y 	c #534C51",
"z 	c #756A66",
"A 	c #7E6253",
"B 	c #656165",
"C 	c #37252B",
"D 	c #4C2935",
"E 	c #331B2A",
"F 	c #592F3C",
"G 	c #4F2A38",
"H 	c #5E5E61",
"I 	c #271A19",
"J 	c #1B0F19",
"K 	c #3D2131",
"L 	c #42232C",
"M 	c #140B13",
"N 	c #492734",
"O 	c #4A3C3C",
"P 	c #4C1E24",
"Q 	c #391F2C",
"R 	c #3D212E",
"S 	c #2E1929",
"T 	c #291725",
"U 	c #241421",
"V 	c #0B0D11",
"W 	c #0C060A",
"X 	c #2C0A11",
"Y 	c #A22237",
"Z 	c #AF253B",
"` 	c #090406",
" .	c #240B1E",
"..	c #160713",
"+.	c #270B20",
"@.	c #2B0922",
"#.	c #30081C",
"$.	c #85154B",
"%.	c #4E0E2D",
"&.	c #9B1B4B",
"*.	c #430F19",
"=.	c #C22845",
"-.	c #5A2D29",
";.	c #040B0B",
">.	c #68453B",
",.	c #926A59",
"'.	c #2E1923",
").	c #0F1017",
"!.	c #172A34",
"~.	c #18161D",
"{.	c #11413B",
"].	c #085743",
"^.	c #EEB696",
"/.	c #AE846B",
"(.	c #0F463C",
"_.	c #00754B",
":.	c #0D3731",
"<.	c #45231F",
"[.	c #664435",
"}.	c #5D422C",
"|.	c #966740",
"1.	c #007646",
"2.	c #062F20",
"3.	c #351A13",
"4.	c #3C291A",
"5.	c #EBA264",
"6.	c #FFB06D",
"7.	c #E88F65",
"8.	c #006449",
"9.	c #062122",
"0.	c #49321F",
"a.	c #4E3522",
"b.	c #462B29",
"c.	c #FDAD6C",
"d.	c #EC9167",
"e.	c #CF6960",
"f.	c #007D4B",
"g.	c #DE8D60",
"h.	c #D97263",
"i.	c #9E4A54",
"j.	c #015634",
"k.	c #011E1D",
"l.	c #011615",
"m.	c #002C2A",
"n.	c #00170E",
"o.	c #002316",
"p.	c #00663E",
"q.	c #00433B",
"r.	c #004E2F",
"s.	c #003B23",
"t.	c #00221E",
"u.	c #004227",
"v.	c #773B36",
"w.	c #B15B3C",
"x.	c #90482E",
"y.	c #230E07",
"z.	c #3F3028",
"A.	c #9B583E",
"B.	c #80332D",
"C.	c #A44F43",
"D.	c #9F453A",
"E.	c #7A2E28",
"F.	c #9D493F",
"                                                                                                    ",
"                                          . + @ @ # $ %                                             ",
"                                        & * = % % % % % %                                           ",
"                                        - ; + - > ; ; > + %                                         ",
"                                        , ' ) > @ ! ~ { $ %                                         ",
"                                      ] ^ ; ) @ { / ( _ : %                                         ",
"                                      < [ # > } | 1 2 3 4 %                                         ",
"                                        5 } 6 _ 7 8 2 9 0                                           ",
"                                        a ! b c d d d 1 e                                           ",
"                                          % % f g d d / e                                           ",
"                                              @ h i 9 |                                             ",
"                                              @ j k %                                               ",
"                                          % % l m n f %                                             ",
"                                      ! : o p q r s 9 t u :                                         ",
"                                      v w w x y z A z B C $                                         ",
"                                    $ D E } F G p t H H w 4 I                                       ",
"                                    @ 5 w J K 5 x y q E L } v                                       ",
"                                  $ 5 5 w M x N N O y P x v %                                       ",
"                                  $ 5 F w $ x x D Q 6 D R J %                                       ",
"                                  $ 5 5 E ! E x x N w v Q M %                                       ",
"                                  v 5 5 E ! S E K K T U T T V %                                     ",
"                                ! w F 5 E ! T T U J J W M T M %                                     ",
"                                W E F 5 E V T M X Y Z Z [ % J v `                                   ",
"                                ! Q 5 L J ` ` ` ` ` % % ` M T T `                                   ",
"                                J K D 6 @ M S T T v  ...T v J T `                                   ",
"                                J E x G 5 C } Q S J +.+.T 6 J T %                                   ",
"                                M S N F F R J P S J @.+.T v J T ` %                                 ",
"                                J T Q G 5 w J K T #.$.%. .T M } w %                                 ",
"                                M T E x T U K K v #.&.^ = E } T o %                                 ",
"                              : T T T J ` T x K T *.=.[ J E } M `                                   ",
"                              : T U ..-.* T x Q U ;.;.;.W E x $                                     ",
"                              W M J J >.,.w C '.).!.!.~...E x $                                     ",
"                                  $ w f s 9 M T ).{.].a V E L $                                     ",
"                                  M o f ^./.} U V (._.:.M E x $                                     ",
"                                  % <.j [.}.|.M ).(.1.2.U E Q $                                     ",
"                                  % : > : 0 3.% V (.1.2.U E Q :                                     ",
"                                % 4.5.6.6.6.7.-.;.(.8.9.U E Q :                                     ",
"                                ` 0 0.a.a.b.> M :._.8.9.U E T :                                     ",
"                                M ~ 5.c.d.e.h L :.f.8.9.J : !                                       ",
"                                % 4.g.h.e.h i.b.j.f.8.k.l.m.                                        ",
"                                  % n.n.n.n.n.o.p.f.f.f.q.%                                         ",
"                                    r.f.f.f.f.f.f.f.f.f.q.%                                         ",
"                                      r.f.f.f.f.f.f.f.].l.%                                         ",
"                                      s.1.f.f.f.f.f.8.t.` %                                         ",
"                                        ;.u.j.p._.8.q.u v.%                                         ",
"                                        I _ % o.t.t.l.@ v.%                                         ",
"                                        { c %         3.v.%                                         ",
"                                        3.w.x.y.      3.w.x.y.                                      ",
"                                        z.1 m A.[.    z.1 m A.[.                                    ",
"                                        B.C.C.D.k E.  B.F.C.D.k E.                                  "};
