/* XPM */
static char * Idle_1_xpm[] = {
"50 50 165 2",
"  	c None",
". 	c #230C0A",
"+ 	c #4B1B1B",
"@ 	c #2B1316",
"# 	c #1A0E14",
"$ 	c #020102",
"% 	c #501D1B",
"& 	c #4C1E24",
"* 	c #221216",
"= 	c #5A1A26",
"- 	c #40141C",
"; 	c #3C1B1C",
"> 	c #34141A",
", 	c #791747",
"' 	c #6E2929",
") 	c #0D090C",
"! 	c #43322A",
"~ 	c #3D2B25",
"{ 	c #D32963",
"] 	c #73193F",
"^ 	c #CE9E83",
"/ 	c #DCA88B",
"( 	c #5A453B",
"_ 	c #140B0B",
": 	c #9F2247",
"< 	c #861A3D",
"[ 	c #310D13",
"} 	c #1F111C",
"| 	c #FEC3A1",
"1 	c #BB927C",
"2 	c #1F1016",
"3 	c #562E3A",
"4 	c #2B151B",
"5 	c #BB9D8E",
"6 	c #B18A73",
"7 	c #EFC2AA",
"8 	c #967664",
"9 	c #181009",
"0 	c #0F2C32",
"a 	c #1B0B0E",
"b 	c #8F6D5A",
"c 	c #D5A386",
"d 	c #352724",
"e 	c #7D5E4D",
"f 	c #F0A98E",
"g 	c #AA5556",
"h 	c #D2907A",
"i 	c #A2504A",
"j 	c #8F4741",
"k 	c #7A443D",
"l 	c #EFA886",
"m 	c #F7BC9B",
"n 	c #3A1C24",
"o 	c #524A4E",
"p 	c #787476",
"q 	c #AE8873",
"r 	c #F9BD9C",
"s 	c #6E6E72",
"t 	c #2B2925",
"u 	c #2E1929",
"v 	c #492734",
"w 	c #534C51",
"x 	c #756A66",
"y 	c #7E6253",
"z 	c #656165",
"A 	c #3D212D",
"B 	c #2D1A1E",
"C 	c #4C2935",
"D 	c #331B25",
"E 	c #592F3B",
"F 	c #5E5E61",
"G 	c #5D565B",
"H 	c #2E1A23",
"I 	c #1B0F19",
"J 	c #3D2131",
"K 	c #42232C",
"L 	c #391F2D",
"M 	c #140B12",
"N 	c #422432",
"O 	c #4A3C3C",
"P 	c #24131C",
"Q 	c #331B2A",
"R 	c #291724",
"S 	c #241422",
"T 	c #0C060A",
"U 	c #0E0D13",
"V 	c #2C0A11",
"W 	c #A22237",
"X 	c #AF253B",
"Y 	c #7F1B2B",
"Z 	c #090406",
"` 	c #160713",
" .	c #270B20",
"..	c #5B303D",
"+.	c #2B0922",
"@.	c #030807",
"#.	c #30081C",
"$.	c #85154B",
"%.	c #4E0E2D",
"&.	c #240B1E",
"*.	c #9B1B4B",
"=.	c #430F19",
"-.	c #C22845",
";.	c #220B15",
">.	c #512828",
",.	c #060B0D",
"'.	c #68453B",
").	c #926A59",
"!.	c #0E1017",
"~.	c #172932",
"{.	c #11141A",
"].	c #073A36",
"^.	c #0E5043",
"/.	c #EEB696",
"(.	c #AE846B",
"_.	c #0E453A",
":.	c #00754B",
"<.	c #45231F",
"[.	c #9D504A",
"}.	c #664435",
"|.	c #5D422C",
"1.	c #966740",
"2.	c #007C4B",
"3.	c #2E2014",
"4.	c #49321F",
"5.	c #EBA264",
"6.	c #FFB06D",
"7.	c #E88F65",
"8.	c #5A2D29",
"9.	c #4D3621",
"0.	c #472328",
"a.	c #114A40",
"b.	c #EC9167",
"c.	c #CF6960",
"d.	c #DE8D60",
"e.	c #D97263",
"f.	c #9E4A54",
"g.	c #12222B",
"h.	c #044746",
"i.	c #002C2A",
"j.	c #00170E",
"k.	c #002315",
"l.	c #00663C",
"m.	c #002C1C",
"n.	c #005B43",
"o.	c #005935",
"p.	c #004339",
"q.	c #00614E",
"r.	c #005130",
"s.	c #865A4C",
"t.	c #001E1D",
"u.	c #211A17",
"v.	c #773B36",
"w.	c #341A13",
"x.	c #B15B3C",
"y.	c #90482E",
"z.	c #230E07",
"A.	c #3F3028",
"B.	c #9B583E",
"C.	c #80332D",
"D.	c #A44F43",
"E.	c #9F453A",
"F.	c #964137",
"G.	c #7A2E28",
"H.	c #9D493F",
"                                                                                                    ",
"                                          . + @ @ @ # $                                             ",
"                                        % & * $ $ $ $ $ $                                           ",
"                                        = - + = ; > > ; + $                                         ",
"                                        , - ' ; @ ) ! ~ # $                                         ",
"                                      { ] > ' @ ~ ^ / ( _ $                                         ",
"                                      : < [ ; } ( ^ | 1 2 $                                         ",
"                                        3 * 4 ( 5 6 7 8 9 $                                         ",
"                                        0 ) a b | | | c d                                           ",
"                                          $ $ e f | | c d                                           ",
"                                              @ g h b (                                             ",
"                                              @ i j $                                               ",
"                                          $ $ k l m e $                                             ",
"                                      ) _ n o p q r 8 s t _                                         ",
"                                      4 u n v w x y x z A B #                                       ",
"                                    # C D * E C o s F G H * B                                       ",
"                                    2 3 D I J 3 K w p L K * 4                                       ",
"                                    2 E D M N v C O w K N P $                                       ",
"                                    2 3 D # N N v L 4 v A I $                                       ",
"                                    * 3 Q ) Q N N v D P A M I _                                     ",
"                                  a 3 3 Q ) R Q J J R S R R M $                                     ",
"                                  # 3 3 Q M R R S } I T M R M M                                     ",
"                                T n E 3 u M R U V W X X Y Z I 4 Z                                   ",
"                                T Q E A I Z Z Z Z Z $ $ Z M R R Z                                   ",
"                                T n v B P _ u R R S I ` R 4 I R Z                                   ",
"                                Z R N C 3 n P L u I  . .R P I L H                                   ",
"                                Z R N ..E K I J u I +. .R P # R Z $                                 ",
"                                @.P A C 3 H P J S #.$.%.&.H # } n $                                 ",
"                                M S u N H P L J P #.*.$.I u * R n $                                 ",
"                                ` R R I Z R N N P =.-.< ;.Q } M Z                                   ",
"                                # R ` >.>.H N J P Z ,.@.T Q N #                                     ",
"                                M } } '.).H L Q P !.~.{.U Q N #                                     ",
"                                $ M D e r 8 ` R {.].^.0 U Q K #                                     ",
"                                  # D e /.(.2 S !._.:._.U Q v #                                     ",
"                                  $ <.[.}.|.1.M M _.2._.U L N H                                     ",
"                                  $ _ ; _ 9 3.$ ,._.:._.U Q N J Z                                   ",
"                                  4.5.6.6.6.7.8.,._.2._.U Q J & Z                                   ",
"                                  9 4.9.9.0.; _ ,.a.2._.U u u T                                     ",
"                                  9.5.6.b.c.g 0.U _.2._.) M T                                       ",
"                                  9.d.e.c.g f.0.g.a.2.^.h.i.                                        ",
"                                  $ $ @.j.j.j.k.l.2.2.2.:.i.                                        ",
"                                      m.l.2.2.2.2.2.2.2.n.i.                                        ",
"                                        o.2.2.2.2.2.2.2.p.$                                         ",
"                                        k.l.2.2.2.2.2.q.].$                                         ",
"                                        _ 3.r.r.o.:.q.].B $                                         ",
"                                        ~ s.$   j.m.t.u.v.$                                         ",
"                                        ~ b $         w.v.$                                         ",
"                                        w.x.y.z.      w.x.y.z.                                      ",
"                                        A.c l B.}.    A.c l B.}.                                    ",
"                                        C.D.D.E.F.G.  C.H.D.E.F.G.                                  "};
