/* XPM */
static char * Jump_8_xpm[] = {
"50 50 180 2",
"  	c None",
". 	c #2A1108",
"+ 	c #130806",
"@ 	c #0B0607",
"# 	c #020102",
"$ 	c #441817",
"% 	c #592526",
"& 	c #281315",
"* 	c #3A1615",
"= 	c #341314",
"- 	c #3B1A1C",
"; 	c #31140F",
"> 	c #290D15",
", 	c #67173B",
"' 	c #481135",
") 	c #411A22",
"! 	c #1A0B0D",
"~ 	c #5E102E",
"{ 	c #992048",
"] 	c #5C1534",
"^ 	c #31141A",
"/ 	c #1B0E13",
"( 	c #231717",
"_ 	c #1F1114",
": 	c #AB2A55",
"< 	c #761734",
"[ 	c #2C1C1C",
"} 	c #775849",
"| 	c #AC836C",
"1 	c #6A5143",
"2 	c #181C24",
"3 	c #BC2B4D",
"4 	c #8C2B49",
"5 	c #263F35",
"6 	c #3C3637",
"7 	c #988D8B",
"8 	c #836352",
"9 	c #00462A",
"0 	c #025432",
"a 	c #C3957B",
"b 	c #FFC3A1",
"c 	c #EDB595",
"d 	c #0C130E",
"e 	c #062D1D",
"f 	c #0C0A0C",
"g 	c #130B0C",
"h 	c #23131C",
"i 	c #512B37",
"j 	c #592F3C",
"k 	c #4C2935",
"l 	c #3B1F27",
"m 	c #4C3432",
"n 	c #CE9D82",
"o 	c #493628",
"p 	c #45242E",
"q 	c #3D2130",
"r 	c #3D212C",
"s 	c #442432",
"t 	c #542C3A",
"u 	c #5B303D",
"v 	c #160C14",
"w 	c #391F2B",
"x 	c #4F2A38",
"y 	c #4D3B31",
"z 	c #2C1827",
"A 	c #492633",
"B 	c #2A171F",
"C 	c #0B060A",
"D 	c #341B25",
"E 	c #341C2A",
"F 	c #1B111B",
"G 	c #290E0E",
"H 	c #251522",
"I 	c #143B43",
"J 	c #17303A",
"K 	c #0D171B",
"L 	c #050A0D",
"M 	c #0E1C22",
"N 	c #104F43",
"O 	c #065B49",
"P 	c #01654D",
"Q 	c #074532",
"R 	c #142D2D",
"S 	c #533A32",
"T 	c #0C3739",
"U 	c #016D4C",
"V 	c #007E4B",
"W 	c #006E42",
"X 	c #4D4A39",
"Y 	c #94715D",
"Z 	c #3C2D25",
"` 	c #001C1A",
" .	c #005E38",
"..	c #EAAE91",
"+.	c #655146",
"@.	c #0C191E",
"#.	c #291725",
"$.	c #002616",
"%.	c #095636",
"&.	c #64513B",
"*.	c #B18770",
"=.	c #23331F",
"-.	c #0E2425",
";.	c #931F31",
">.	c #430F18",
",.	c #003922",
"'.	c #1E140D",
").	c #47311E",
"!.	c #001B13",
"~.	c #012C2B",
"{.	c #03110C",
"].	c #192D37",
"^.	c #192C36",
"/.	c #894841",
"(.	c #CC8A57",
"_.	c #CF8F58",
":.	c #795635",
"<.	c #017346",
"[.	c #00693E",
"}.	c #00754C",
"|.	c #044944",
"1.	c #19343F",
"2.	c #005451",
"3.	c #022524",
"4.	c #070D11",
"5.	c #823D43",
"6.	c #C35F5E",
"7.	c #E17F65",
"8.	c #F8A56B",
"9.	c #FFB06D",
"0.	c #9A6A43",
"a.	c #6B3933",
"b.	c #654137",
"c.	c #051415",
"d.	c #7B3A42",
"e.	c #A74F58",
"f.	c #C4625D",
"g.	c #D87668",
"h.	c #E98D67",
"i.	c #8B564B",
"j.	c #CC7064",
"k.	c #006139",
"l.	c #000D07",
"m.	c #916F5B",
"n.	c #F3AC91",
"o.	c #723934",
"p.	c #A47D68",
"q.	c #6B4339",
"r.	c #A3534A",
"s.	c #EAA486",
"t.	c #F3AD8A",
"u.	c #B6775B",
"v.	c #9C7863",
"w.	c #BA6A5C",
"x.	c #213324",
"y.	c #CB816C",
"z.	c #934A2F",
"A.	c #935048",
"B.	c #BA6255",
"C.	c #574338",
"D.	c #A94D43",
"E.	c #C7775F",
"F.	c #934E34",
"G.	c #B25852",
"H.	c #EBAB8E",
"I.	c #173624",
"J.	c #A96A57",
"K.	c #4C2925",
"L.	c #9B6E5B",
"M.	c #BE836E",
"N.	c #D59A81",
"O.	c #3F201D",
"P.	c #6A322D",
"Q.	c #32251F",
"R.	c #D9A588",
"S.	c #CD665E",
"T.	c #9A4C47",
"U.	c #AD5650",
"V.	c #B46649",
"W.	c #A6483A",
"                                                                                                    ",
"                                                                                                    ",
"                                                                                                    ",
"                                                                                                    ",
"                                                                                                    ",
"                                                                                                    ",
"                                                                                                    ",
"                                                                                                    ",
"                                                                                                    ",
"                                                                                                    ",
"                                                                      . + @ # #                     ",
"                                                                    $ % & * = & - ;                 ",
"                                                                  > , ' * % ) ) - !                 ",
"                                                                  ~ { ] ; ~ ^ / ( _                 ",
"                                                                  : { < ! ^ [ } | 1                 ",
"                                                              2 / 3 4 5 ! & 6 7 8 1                 ",
"                                                                    9 0 @ [ a b c 1                 ",
"                                                                    d e @ [ a b c 1                 ",
"                                                                      @ f } c b c 1                 ",
"                            # # # #                                 # # 1 b a f #                   ",
"                        g h i j j k _ !                         ! l i m n a o                       ",
"                      ! p k q r s t u p /                     v w j u x m y                         ",
"                    / r z v # # @ h w t A !                 ^ t j k B A B                           ",
"                    C v # g ( ( / C # / r r C             D j j k h D k h                           ",
"                  # C g _ _ h / / ( / / v E l /     # / w j j s h E t q F                           ",
"                  f / _ _ _ / G f # @ @ / F E h # ! p i u t q h l t k H @                           ",
"                  g / / / / # # 2 I I J K f v f A u j j x E F w t k q h #                           ",
"                  # # # L M I N O P P Q R S S A u u t s E F D x k q F @                             ",
"                      L T N U V V V W X Y 1 Z D j k s E v H q s q h @                               ",
"                      ` P V V V V  .X ..+.R @.@ z q #.v v # v #.#.v                                 ",
"                    $.W  . . . .0 %.&.*.y =.%.-.F H C # > ;.>.v v                                   ",
"                    ,.e L f f f # '.o # d ).!.Q -.K ~.~.T K f #                                     ",
"                  # {.@.].].^.^.2 /.(._._._.:.9 <.[.}.}.<.P |.`                                     ",
"                  # K ].1.1.|.2.3.+ '.'.. '.+ d  .V V V V V [.$.                                    ",
"                    4.M T 2.2.2.R 5.6.7.8.9.0.a.b.%.V V V V <.9                                     ",
"                        c.` ~.2.R d.e.f.g.h.0.i.j.b.0 V V V V k.l.                                  ",
"                              # # # # # # # # m.n.g.o.0 V V V  .l.                                  ",
"                                  S y Z         p.n.j.q.%.V V k.l.                                  ",
"                                r.s.t.u.8 (       v.n.w.x.V V k.l.                                  ",
"                                y.s.z.& A.B.o.# # C.b n.i.,.V  .l.                                  ",
"                              D.E.F.+   # - G.f.g.r.} H.w.I.[.$.                                    ",
"                              w.J.          # K.L.c M.n N.O.!.                                      ",
"                              P.Q.            P./.8 b R.C.                                          ",
"                                            P.S.T.g # #                                             ",
"                                          o.U.K.                                                    ",
"                                      + o.r.-                                                       ",
"                                    V...V.*                                                         ",
"                                    D.g.V..                                                         ",
"                                      D.W..                                                         ",
"                                      W.B.L.                                                        "};
