/* XPM */
static char * Jump_3_xpm[] = {
"50 53 174 2",
"  	c None",
". 	c #130609",
"+ 	c #130406",
"@ 	c #010202",
"# 	c #2E1113",
"$ 	c #57121D",
"% 	c #3B1A1E",
"& 	c #321212",
"* 	c #231316",
"= 	c #59172E",
"- 	c #5C1739",
"; 	c #662626",
"> 	c #481C23",
", 	c #431B22",
"' 	c #380B16",
") 	c #AE2855",
"! 	c #6A183D",
"~ 	c #3A1E25",
"{ 	c #250C17",
"] 	c #1E140D",
"^ 	c #030B0A",
"/ 	c #972248",
"( 	c #841B3C",
"_ 	c #4C3A30",
": 	c #95725E",
"< 	c #8C6B59",
"[ 	c #301523",
"} 	c #B53152",
"| 	c #52343E",
"1 	c #1D1314",
"2 	c #29161D",
"3 	c #2B1924",
"4 	c #93827B",
"5 	c #9E7965",
"6 	c #8B6957",
"7 	c #0B3825",
"8 	c #01623A",
"9 	c #081810",
"0 	c #190E0F",
"a 	c #F4BB9B",
"b 	c #0C0B0C",
"c 	c #09130E",
"d 	c #FFC3A1",
"e 	c #0B0405",
"f 	c #432F2B",
"g 	c #C7987D",
"h 	c #3D2E26",
"i 	c #E2AC8E",
"j 	c #60493C",
"k 	c #2F231E",
"l 	c #1A0D15",
"m 	c #522B37",
"n 	c #331B22",
"o 	c #291E19",
"p 	c #EAB294",
"q 	c #695042",
"r 	c #0B0609",
"s 	c #492734",
"t 	c #592F3C",
"u 	c #351A17",
"v 	c #7C6B5C",
"w 	c #2D2C2B",
"x 	c #1E111B",
"y 	c #341C2B",
"z 	c #4F2A38",
"A 	c #542C3A",
"B 	c #151A1C",
"C 	c #150B0E",
"D 	c #5B303D",
"E 	c #110710",
"F 	c #432433",
"G 	c #140B13",
"H 	c #44242D",
"I 	c #4C2835",
"J 	c #3B202F",
"K 	c #2F1A29",
"L 	c #291726",
"M 	c #251523",
"N 	c #22121B",
"O 	c #3E2231",
"P 	c #352326",
"Q 	c #1A0D18",
"R 	c #725648",
"S 	c #4B3228",
"T 	c #846553",
"U 	c #7B1A29",
"V 	c #AA816B",
"W 	c #5A4438",
"X 	c #450F29",
"Y 	c #99745F",
"Z 	c #771828",
"` 	c #7F6150",
" .	c #E6B091",
"..	c #674E41",
"+.	c #270A21",
"@.	c #691841",
"#.	c #BC2744",
"$.	c #765A4A",
"%.	c #F4B695",
"&.	c #3D0E31",
"*.	c #741649",
"=.	c #A21F49",
"-.	c #B1253B",
";.	c #581545",
">.	c #84174E",
",.	c #91184D",
"'.	c #AE2245",
").	c #8C1D2F",
"!.	c #825143",
"~.	c #7B5535",
"{.	c #000D07",
"].	c #27150C",
"^.	c #2A1D12",
"/.	c #0B1215",
"(.	c #0F181C",
"_.	c #063031",
":.	c #005652",
"<.	c #007B4B",
"[.	c #005331",
"}.	c #8E633E",
"|.	c #89573B",
"1.	c #41201D",
"2.	c #14232A",
"3.	c #173039",
"4.	c #1B323E",
"5.	c #0F4145",
"6.	c #00654F",
"7.	c #AD764A",
"8.	c #995344",
"9.	c #8F402D",
"0.	c #0E0E12",
"a.	c #131E24",
"b.	c #173741",
"c.	c #123B43",
"d.	c #005C51",
"e.	c #004328",
"f.	c #D7945B",
"g.	c #FEAE6C",
"h.	c #E68766",
"i.	c #CB635A",
"j.	c #A54E57",
"k.	c #582626",
"l.	c #003E24",
"m.	c #924843",
"n.	c #8A4441",
"o.	c #7A3B3B",
"p.	c #6F343B",
"q.	c #007346",
"r.	c #09494B",
"s.	c #00744C",
"t.	c #0B151A",
"u.	c #04504E",
"v.	c #182C35",
"w.	c #084A4B",
"x.	c #006E4D",
"y.	c #005C37",
"z.	c #152126",
"A.	c #976A57",
"B.	c #172831",
"C.	c #002D1B",
"D.	c #984F34",
"E.	c #AF5346",
"F.	c #8A3B25",
"G.	c #230E07",
"H.	c #D08771",
"I.	c #EDA787",
"J.	c #AB6044",
"K.	c #B35952",
"L.	c #A44E43",
"M.	c #C3745F",
"N.	c #BA7461",
"O.	c #7C2E29",
"P.	c #9C3D36",
"Q.	c #943A33",
"                                                                                                    ",
"                                                                                                    ",
"                                                                                                    ",
"                                                                                                    ",
"                                                                                                    ",
"                                                                                                    ",
"                                                                                                    ",
"                                                                                                    ",
"                                                                                                    ",
"                                              . + @ @ @                                             ",
"                                            # $ % & # * # &                                         ",
"                                          . = - & ; > , > #                                         ",
"                                          ' ) ! ' ; ~ { ] ^                                         ",
"                                          ) / ( # % * _ : <                                         ",
"                                        [ } / | 1 2 3 4 5 6                                         ",
"                                            7 8 9 0 6 a a 6                                         ",
"                                            b 7 c 0 : d d 6                                         ",
"                                              e b f g d d 6                                         ",
"                                          @ @ @ h i i j k k                                         ",
"                                        l m n o g p q                                               ",
"                                      r 3 s t u k v w @                                             ",
"                                      * x y z A n B w C 2                                           ",
"                                      n y C y A D ~ E l F n                                         ",
"                                    * D A [ G y m D n . 3 s n                                       ",
"                                  C H D t I x x J A A n x F z 2                                     ",
"                                  { D D t z K l L I t t ~ l J A n                                   ",
"                                C s t t t z y M E y z t D ~ N F t n                                 ",
"                                3 A t t z O K M l N F t D A P N J s l                               ",
"                                ~ t A s O K L L Q E y I D D s l 3 P R 1                             ",
"                                n s y y L L l e e e G O s A S < @ ] T k                             ",
"                                1 N Q Q E @ ' U U $ G y F F f V W   _ : @                           ",
"                                e N 2 3 M N l E X $ @ G y 3 N < Y     R q                           ",
"                                C I t t A J L Q ! Z @ r M l     j `   W  ...                        ",
"                                ~ t t t F y M +.@.#.Z + @ @     q i $.p %.6                         ",
"                                P D t z J L Q &.*.=.-.' @ @     j %.Y ` ` $.                        ",
"                              2 m D A F y Q +.;.>.,.'.).+     S !.k W ~.@                           ",
"                              n D D z y M Q +.;.*.X {.{.{.  e ] ].^.] ] e                           ",
"                            * t D t F y M @ ^ /.(._.:.<.[.@ ].~.}.T }.|.1.                          ",
"                          0 H t D A F y E /.2.3.4.5.:.6.[.@ ^.}.7.7.8.9.~                           ",
"                        . H D t D A y +.0.a.4.4.b.c.:.d.<.e.^.f.g.h.i.j.k.                          ",
"                        * I D D t F y a.0.2.4.4.4.5.:.d.<.l.] |.m.n.o.p.~                           ",
"                        n D D D A F y G (.4.4.4.4.5.:.d.<.e.@                                       ",
"                        n D D D I J M G (.4.4.4.4.5.:.d.<.e.                                        ",
"                        2 t D D F J L G (.4.4.4.c.:.:.6.q.l.                                        ",
"                        . 3 z F J L x 0.(.4.4.4.r.:.d.s.[.@                                         ",
"                        t.t.1 K L M Q c a.4.4.b.u.:.:.s.[.@                                         ",
"                      t.4.v./.@ Q M Q /.v.4.4.w.:.:.x.y.{.                                          ",
"                      P v.4.v.z.0.^ b t.3.b.r.:.:.s.<.8 {.                                          ",
"                    A.o.b /./.2.v.B.B.3.5.u.:.:.x.y.C.C.                                            ",
"                  A.D.e       @ @ @ @ @ @ {.{.@ @ @                                                 ",
"                ` %.E.].                      u E.F.G.                                              ",
"                |.H.I.J.1.                    u K.i.9.k.                                            ",
"                    L.M.N.~                   O.P.P.P.Q.O.                                          "};
