/* XPM */
static char * Jump_7_xpm[] = {
"61 50 192 2",
"  	c None",
". 	c #5E221E",
"+ 	c #765B4B",
"@ 	c #47362D",
"# 	c #010101",
"$ 	c #753924",
"% 	c #C77B5D",
"& 	c #563E35",
"* 	c #45242E",
"= 	c #592E3B",
"- 	c #321A22",
"; 	c #0E0A0D",
"> 	c #84452E",
", 	c #E8A07E",
"' 	c #C47865",
") 	c #1A0B0D",
"! 	c #5B303D",
"~ 	c #512A36",
"{ 	c #1A0E12",
"] 	c #884539",
"^ 	c #DC9577",
"/ 	c #AA5844",
"( 	c #140A0D",
"_ 	c #3D212B",
": 	c #2A1317",
"< 	c #301409",
"[ 	c #F6AF93",
"} 	c #CD8C71",
"| 	c #441816",
"1 	c #241A1B",
"2 	c #9F7A64",
"3 	c #AC846D",
"4 	c #1D1615",
"5 	c #0D161B",
"6 	c #3C1C25",
"7 	c #221216",
"8 	c #5A4538",
"9 	c #93705D",
"0 	c #393934",
"a 	c #12333A",
"b 	c #1A313D",
"c 	c #17282F",
"d 	c #0A1213",
"e 	c #501D1A",
"f 	c #7F6150",
"g 	c #87705D",
"h 	c #14423D",
"i 	c #04534C",
"j 	c #0B4245",
"k 	c #192F39",
"l 	c #14252C",
"m 	c #040B0A",
"n 	c #0B0609",
"o 	c #2E191E",
"p 	c #B86756",
"q 	c #E9AE90",
"r 	c #6D5344",
"s 	c #5F493C",
"t 	c #DCA88B",
"u 	c #664D40",
"v 	c #00433C",
"w 	c #005652",
"x 	c #0C4548",
"y 	c #173640",
"z 	c #022423",
"A 	c #041A1B",
"B 	c #552D3A",
"C 	c #291727",
"D 	c #F3AA8F",
"E 	c #FAB997",
"F 	c #DD975E",
"G 	c #DD8F71",
"H 	c #ECB494",
"I 	c #F5BB9A",
"J 	c #FFC3A1",
"K 	c #E8AD8F",
"L 	c #565145",
"M 	c #004441",
"N 	c #103E45",
"O 	c #182932",
"P 	c #0C0F12",
"Q 	c #152024",
"R 	c #4F2A38",
"S 	c #86371C",
"T 	c #481D0F",
"U 	c #4F4136",
"V 	c #BE9278",
"W 	c #0E1920",
"X 	c #013D3A",
"Y 	c #2E1923",
"Z 	c #704730",
"` 	c #D4A285",
" .	c #8E6C59",
"..	c #68594B",
"+.	c #0A2A2B",
"@.	c #070E12",
"#.	c #004E34",
"$.	c #412433",
"%.	c #23131B",
"&.	c #552625",
"*.	c #2D231C",
"=.	c #CE9D81",
"-.	c #A44D57",
";.	c #4C342C",
">.	c #045648",
",.	c #3E2231",
"'.	c #1E101B",
").	c #3A1A1D",
"!.	c #753A35",
"~.	c #DC7869",
"{.	c #D56A62",
"].	c #603A32",
"^.	c #0E2126",
"/.	c #2A161C",
"(.	c #4C2935",
"_.	c #362725",
":.	c #AF5851",
"<.	c #7C3D39",
"[.	c #4B2522",
"}.	c #BD7361",
"|.	c #E08374",
"1.	c #D86F62",
"2.	c #024429",
"3.	c #00764C",
"4.	c #121E23",
"5.	c #1B0E19",
"6.	c #003936",
"7.	c #2B302D",
"8.	c #9E4F49",
"9.	c #6B3531",
"0.	c #B45A53",
"a.	c #241423",
"b.	c #003633",
"c.	c #044D4B",
"d.	c #232727",
"e.	c #60302C",
"f.	c #381615",
"g.	c #006D42",
"h.	c #00674E",
"i.	c #140B13",
"j.	c #BE365D",
"k.	c #7C1C41",
"l.	c #090405",
"m.	c #00110C",
"n.	c #260E0E",
"o.	c #934846",
"p.	c #013D25",
"q.	c #007C4A",
"r.	c #9C1F48",
"s.	c #A02048",
"t.	c #6B1730",
"u.	c #230E12",
"v.	c #00351F",
"w.	c #07462B",
"x.	c #434F4B",
"y.	c #952549",
"z.	c #7E213D",
"A.	c #112E36",
"B.	c #007344",
"C.	c #091A19",
"D.	c #581228",
"E.	c #360D2A",
"F.	c #094B46",
"G.	c #2E1A29",
"H.	c #492733",
"I.	c #3C2D25",
"J.	c #002919",
"K.	c #006A3F",
"L.	c #341C2B",
"M.	c #391326",
"N.	c #481C21",
"O.	c #8D4446",
"P.	c #C15E5D",
"Q.	c #9C6A43",
"R.	c #846655",
"S.	c #F6A16A",
"T.	c #FFB06D",
"U.	c #381F2B",
"V.	c #30251E",
"W.	c #B78C73",
"X.	c #C9A999",
"Y.	c #AC8F80",
"Z.	c #100708",
"`.	c #553724",
" +	c #5F4228",
".+	c #3A291B",
"++	c #AB634C",
"@+	c #DF9A5F",
"#+	c #865E3C",
"$+	c #1F1814",
"%+	c #17110E",
"&+	c #9C7762",
"                                                                                                                          ",
"                                                                                                                          ",
"                                                                                                                          ",
"                                                                                                                          ",
"                                                                                                                          ",
"                                                                                                                          ",
"                                                                                                                          ",
"                                                    .                                                                     ",
"                                                  + @ # #                                                                 ",
"                                                $ % & * = - ;                                                             ",
"                                              > , '   ) * ! ~ - {                                                         ",
"                                            ] , ^ /     ( _ ! ! ~ :                                                       ",
"                                          < / [ } |       ; * ! ! ~ :                                                     ",
"                                        1 2 3 4 5 5         6 = ! ! ~ 7                                                   ",
"                                        8 9 0 a b c d       { * ! ! = * (                                                 ",
"            e                           f g h i j k l d m # n o = ! ! ~ -                                                 ",
"          p q r # # # # # # #         s t u v w x k y l ; z A ) B ! ! B C #                                               ",
"        p D E F G H I J J J 3 ; (     + K L M w w N y O P z M Q R ! ! B - #                                               ",
"      p ^ % S T # # U 3 3 3 V J H f r 3 U z M w w N y O W d X v 1 ! ! R Y #                                               ",
"      ' Z T                 @ r f ` t 9  . ...+.z W 5 P @.m #.v 1 ! = $.%.#                                               ",
"      &.                          *.r I J J H ` ` =.=.} -.;.#.>.Q - = ,.'.#                                               ",
"                                  ).!.n !.~.[ J J J [ ~.{.].#.>.^./.(._ '.#                                               ",
"                                    _.:.<.[.] }.D |.1.{.<.2.3.i 4.'._ C 5.#                                               ",
"                                  A 6.7.!.8.<.9.9.Z 0.1.] 2.3.>.4.5.C a.'.{                                               ",
"                                  b.w c.X d.e.:.8.] &.f.7.g.h.c.^.i.C '.7 ~ 7                           j.k.l.            ",
"                                m.X w w w w X m # n.o.] p.q.w a P i.a.7 (.! ~ 7                     # . r.s.t.u.          ",
"                                  +.c.w w w i x k Q m v.q.q.>.+.P a.'.%.~ ! ! (.7                 ; w.x.y.r.s.z.|         ",
"                                  @.A.x x x b k 4.d 2.B.q.h.j C.n i.5.,.B ! * - o 7 4           n C.2.w._ D.E.E.[.n.      ",
"                                    5 b b c Q 5 m p.B.q.3.F.l P '.a.G.,.(.! H._ H.! (._ _ o l.s I.( i.u.: f.. | u.(       ",
"                                      l.# # # J.B.K.J.# # # # # # i.C L.,.R = ! = ! ! ! ! _ r I V *.# ( u.M.N.&.f.#       ",
"                                        2.g.q.q.3.>.d.O.-.P.1.|.Q.i.a.a.C L.,.R B B H.H.B 6 #  .I J J R.4 u.).M.) #       ",
"                                          m.2.2.6.z Y o.P.~.S.T.Q.# i.5.'.C C L.U.L.7 /.(.6 # V.W.J J X.Y.I.: N.) #       ",
"                                                    Z.).&.`. + +.+#     l.; ( ; P 7 H.! (.7   V.W.J J ` =. .7 &.f.        ",
"                                                    ).++@+@+@+@+#+            # { (.! B _.n     $+$+$+$+$+%+# Z.          ",
"                                                    # # l.# # l.#           n * = ! ! U.(                                 ",
"                                                      `.#+@ .+ +        { 6 = = = ! _ {                                   ",
"                                                        r H 8 # # 7 - _ B ! ! = (.C (                                     ",
"                                                        1 &+V _.d _ B ! ! ~ $.U.a.n                                       ",
"                                                          # V.} &+7 ,.$.$.L.E.'.n                                         ",
"                                                              # # n i.a.C C 4.;                                           ",
"                                                                l.( ( 5.a.C i.                                            ",
"                                                                  # ( ( 5.5.l.                                            ",
"                                                                    # # # #                                               ",
"                                                                                                                          ",
"                                                                                                                          ",
"                                                                                                                          ",
"                                                                                                                          ",
"                                                                                                                          ",
"                                                                                                                          ",
"                                                                                                                          "};
