/* XPM */
static char * Run_8_xpm[] = {
"50 50 162 2",
"  	c None",
". 	c #020102",
"+ 	c #1C0C0B",
"@ 	c #54181E",
"# 	c #3B1B1C",
"$ 	c #170607",
"% 	c #521D28",
"& 	c #2B1316",
"* 	c #4B1A1C",
"= 	c #3A1E25",
"- 	c #572125",
"; 	c #2A0B14",
"> 	c #6E174D",
", 	c #571339",
"' 	c #32130B",
") 	c #682728",
"! 	c #2C161C",
"~ 	c #090907",
"{ 	c #88193F",
"] 	c #982047",
"^ 	c #751938",
"/ 	c #441B22",
"( 	c #0B0506",
"_ 	c #4E3731",
": 	c #5A4539",
"< 	c #BD3865",
"[ 	c #912048",
"} 	c #32171B",
"| 	c #2E221D",
"1 	c #D4A387",
"2 	c #ECB495",
"3 	c #7C5E4D",
"4 	c #5B303D",
"5 	c #145039",
"6 	c #10100E",
"7 	c #554136",
"8 	c #AE978D",
"9 	c #9D7763",
"0 	c #08281A",
"a 	c #044F30",
"b 	c #0D0B0C",
"c 	c #1E111C",
"d 	c #B98D75",
"e 	c #F9BE9D",
"f 	c #130A0C",
"g 	c #221316",
"h 	c #FFC3A1",
"i 	c #241A13",
"j 	c #9D7863",
"k 	c #695142",
"l 	c #2D1925",
"m 	c #2C1A1D",
"n 	c #F5BB9B",
"o 	c #492734",
"p 	c #552D3A",
"q 	c #592F3C",
"r 	c #41242D",
"s 	c #0D070B",
"t 	c #3C202D",
"u 	c #4F2A38",
"v 	c #341C2B",
"w 	c #23131E",
"x 	c #321B25",
"y 	c #4C2835",
"z 	c #3A1F2D",
"A 	c #291727",
"B 	c #1A0D14",
"C 	c #1B0D19",
"D 	c #251422",
"E 	c #725748",
"F 	c #3C2130",
"G 	c #140C14",
"H 	c #131E23",
"I 	c #2D1928",
"J 	c #442533",
"K 	c #403128",
"L 	c #CC9C81",
"M 	c #4B2626",
"N 	c #AF5751",
"O 	c #56362A",
"P 	c #8C613B",
"Q 	c #0E0D11",
"R 	c #2F2114",
"S 	c #2C1C12",
"T 	c #E9A486",
"U 	c #755132",
"V 	c #7F5836",
"W 	c #744732",
"X 	c #A57E68",
"Y 	c #39251C",
"Z 	c #B0794B",
"` 	c #C77860",
" .	c #BA7B50",
"..	c #A55848",
"+.	c #89443F",
"@.	c #4D3621",
"#.	c #EAA064",
"$.	c #F9A66B",
"%.	c #E28065",
"&.	c #C45F5D",
"*.	c #9E4A54",
"=.	c #8A563C",
"-.	c #8E3732",
";.	c #6C3435",
">.	c #622E35",
",.	c #230D1B",
"'.	c #3A0B15",
").	c #2D091B",
"!.	c #971B48",
"~.	c #601320",
"{.	c #931C3D",
"].	c #591545",
"^.	c #87184A",
"/.	c #4B1340",
"(.	c #3A0C28",
"_.	c #013331",
":.	c #005D50",
"<.	c #005633",
"[.	c #000D07",
"}.	c #163740",
"|.	c #0B4649",
"1.	c #007A4B",
"2.	c #004428",
"3.	c #0C1215",
"4.	c #192E38",
"5.	c #025248",
"6.	c #006C4D",
"7.	c #007043",
"8.	c #00361F",
"9.	c #0E3C40",
"0.	c #00734C",
"a.	c #392A24",
"b.	c #723835",
"c.	c #12363D",
"d.	c #015450",
"e.	c #00623B",
"f.	c #001F12",
"g.	c #32231A",
"h.	c #A16B5B",
"i.	c #B8645A",
"j.	c #0D181C",
"k.	c #CA8F72",
"l.	c #652E22",
"m.	c #64312D",
"n.	c #091E20",
"o.	c #006F41",
"p.	c #002616",
"q.	c #9E553A",
"r.	c #261008",
"s.	c #001712",
"t.	c #381615",
"u.	c #7D3E3A",
"v.	c #B35E51",
"w.	c #5F2E2A",
"x.	c #752F2A",
"y.	c #823729",
"z.	c #9A4237",
"A.	c #291009",
"B.	c #D2665A",
"C.	c #A04832",
"D.	c #694130",
"E.	c #9C3E36",
"                                                                                                    ",
"                                                                                                    ",
"                                                                                                    ",
"                                                                                                    ",
"                                                          . . .                                     ",
"                                                      + @ # + . . .                                 ",
"                                                    $ @ % & * % = - *                               ",
"                                                    ; > , ' ) * ! & ~                               ",
"                                                    { ] ^ ; / & ( _ :                               ",
"                                                    < [ ^ ; } | 1 2 3                               ",
"                                                      4 5 6 & 7 8 9 3                               ",
"                                                      0 a b c d e e 3                               ",
"                                                      ~ f ~ g d h e 3                               ",
"                                                        . i j 2 d d k                               ",
"                                        ( ! ! l l m ! ! g 7 n d i                                   ",
"                                  . + o o p 4 q 4 4 4 4 q r |                                       ",
"                                s t q q q p p q q 4 4 4 4 t .                                       ",
"                          ~ g = q 4 q u r v w w / q 4 4 q x .                                       ",
"                      . : 9 _ q 4 p y z A B C C C z 4 4 p D .                                       ",
"                    m 1 e E s g q o F A G H I J u 4 4 p = (                                         ",
"                  3 e 2 E s + + z z A G c v y 4 4 4 q p x (                                         ",
"                  K L d .   b f C A G c v o q 4 4 4 q r G                                           ",
"                M N O O P     . Q G w A z o q 4 4 q p I s                                           ",
"              ( R R S R S 6 7 T k . D A A z F J p u v G                                             ",
"              i U V V V W M X E . . f G G G G G c v D s                                             ",
"              Y Z `  ...+.# |     ( = = I A w c C Q (                                               ",
"              @.#.$.%.&.*.M       t q 4 p J J v A C .                                               ",
"              R =.E -.;.>.}       t q 4 4 p o v D ,.'.'.                                            ",
"                                  t 4 4 4 4 p v D ).!.~.                                            ",
"                                  t 4 4 4 4 u v w ).!.{.'.                                          ",
"                                  = 4 4 4 p F v C ].^.!.@                                           ",
"                                g y 4 4 4 p F D C /.> !.{ $                                         ",
"                                ! 4 4 4 4 p F D C /.].(.$ .                                         ",
"                                l 4 q 4 q J F D s ( . _.:.<.[.                                      ",
"                                ! 4 4 4 p J z c G H }.|.:.1.2.                                      ",
"                                ! 4 4 4 q J I G Q H }.|.:.1.2.                                      ",
"                                ! 4 4 q o F A C 3.H }.|.:.1.2.                                      ",
"                                  } p o J z A G 3.4.}.5.6.7.8.                                      ",
"                                    g D I I A C 3.4.9.:.0.<..                                       ",
"                                  a.d b.c A A G 3.c.d.6.e.f.                                        ",
"                            g.R t h.i.;.. c c G j.9.d.6.<.[.                                        ",
"                          ..T k.l.m.+       . [.n.5.0.o.p.                                          ",
"                          k.T q.r.                s.f.p.                                            ",
"                          ` q.$                 t.N u.                                              ",
"                        v...'                   w.-..                                               ",
"                        x.t.                    b.O                                                 ",
"                                                m.}                                                 ",
"                                                y.z.A.                                              ",
"                                                +.B.C.D.                                            ",
"                                                -.E.E.z.y.                                          "};
