/* XPM */
static char * Run_2_xpm[] = {
"50 50 170 2",
"  	c None",
". 	c #220C0C",
"+ 	c #170B0A",
"@ 	c #0A0405",
"# 	c #010101",
"$ 	c #3B1514",
"% 	c #5B2827",
"& 	c #36161C",
"* 	c #331213",
"= 	c #230D11",
"- 	c #631737",
"; 	c #501337",
"> 	c #622527",
", 	c #421A22",
"' 	c #4E0D27",
") 	c #9D1D4A",
"! 	c #1B0E13",
"~ 	c #221414",
"{ 	c #17110E",
"] 	c #AF2B57",
"^ 	c #7C1837",
"/ 	c #2D191E",
"( 	c #6B5244",
"_ 	c #AE856D",
": 	c #7E604F",
"< 	c #22121D",
"[ 	c #C23053",
"} 	c #942449",
"| 	c #363B39",
"1 	c #2B161C",
"2 	c #332422",
"3 	c #948783",
"4 	c #876655",
"5 	c #004429",
"6 	c #00643B",
"7 	c #070C0B",
"8 	c #1E1016",
"9 	c #FFC3A1",
"0 	c #F9BE9D",
"a 	c #7C5D4C",
"b 	c #0B0B0C",
"c 	c #052F1D",
"d 	c #A57E68",
"e 	c #0A0509",
"f 	c #5B4539",
"g 	c #DDA98B",
"h 	c #592F3C",
"i 	c #4D2835",
"j 	c #4F3C31",
"k 	c #F6BC9B",
"l 	c #D6A387",
"m 	c #362922",
"n 	c #140A0C",
"o 	c #3B202D",
"p 	c #5B303D",
"q 	c #45252E",
"r 	c #341C23",
"s 	c #532C39",
"t 	c #31231F",
"u 	c #391E27",
"v 	c #432433",
"w 	c #512B36",
"x 	c #755A4A",
"y 	c #4A2733",
"z 	c #2D1928",
"A 	c #140B13",
"B 	c #97745F",
"C 	c #331C2B",
"D 	c #251523",
"E 	c #1B0E19",
"F 	c #291727",
"G 	c #B48A72",
"H 	c #E2AD8F",
"I 	c #CD9C81",
"J 	c #3F3028",
"K 	c #391F2E",
"L 	c #1E101C",
"M 	c #160714",
"N 	c #3E2231",
"O 	c #2C1924",
"P 	c #401F1D",
"Q 	c #7C5246",
"R 	c #9F7861",
"S 	c #48372D",
"T 	c #532925",
"U 	c #2D1614",
"V 	c #372617",
"W 	c #C3947A",
"X 	c #2E2013",
"Y 	c #AA7548",
"Z 	c #DF9A5F",
"` 	c #CC8758",
" .	c #793935",
"..	c #60493D",
"+.	c #2A1813",
"@.	c #C9745A",
"#.	c #FFB06D",
"$.	c #F39B69",
"%.	c #D77262",
"&.	c #B75957",
"*.	c #BB7A50",
"=.	c #DD8F6D",
"-.	c #A34D57",
";.	c #602D33",
">.	c #58121E",
",.	c #131E22",
"'.	c #B42447",
").	c #A5223A",
"!.	c #4C0F19",
"~.	c #35102F",
"{.	c #591340",
"].	c #88174C",
"^.	c #5A1125",
"/.	c #00341E",
"(.	c #550D30",
"_.	c #015B36",
":.	c #007847",
"<.	c #007344",
"[.	c #3A0D2B",
"}.	c #012B29",
"|.	c #015651",
"1.	c #016C4D",
"2.	c #00744C",
"3.	c #007E4B",
"4.	c #006E41",
"5.	c #12171D",
"6.	c #133C43",
"7.	c #0B4749",
"8.	c #03534E",
"9.	c #00634F",
"0.	c #0D1315",
"a.	c #121A1C",
"b.	c #172932",
"c.	c #4F2A38",
"d.	c #12373C",
"e.	c #005331",
"f.	c #021C12",
"g.	c #005C43",
"h.	c #030A08",
"i.	c #080F13",
"j.	c #083831",
"k.	c #0B4C3C",
"l.	c #005D3B",
"m.	c #CC8C76",
"n.	c #D66F65",
"o.	c #A4524C",
"p.	c #251D20",
"q.	c #0F1A21",
"r.	c #0B4849",
"s.	c #B47765",
"t.	c #0B2227",
"u.	c #44221C",
"v.	c #6A3531",
"w.	c #68312A",
"x.	c #032425",
"y.	c #AA6055",
"z.	c #B46455",
"A.	c #582718",
"B.	c #27150D",
"C.	c #66322E",
"D.	c #361A19",
"E.	c #944B40",
"F.	c #745446",
"G.	c #BD543D",
"H.	c #CB604F",
"I.	c #73321F",
"J.	c #BC584E",
"K.	c #C35C4C",
"L.	c #993B36",
"M.	c #A2433C",
"                                                                                                    ",
"                                                                                                    ",
"                                                                                                    ",
"                                                              . + @ # #                             ",
"                                                            $ % & * * = * *                         ",
"                                                          + - ; * > , , , =                         ",
"                                                          ' ) - * % & ! ~ {                         ",
"                                                          ] ) ^ = & / ( _ :                         ",
"                                                        < [ } | { 1 2 3 4 :                         ",
"                                                            5 6 7 8 _ 9 0 a                         ",
"                                                            b c b ~ d 9 0 a                         ",
"                                                          # # @ e f g 9 0 a                         ",
"                                              # # # # # { h i + j k l m b                           ",
"                                          n ! o p p p p h p p q f l f                               ",
"                                    n / r s p p p p h h p p h q t f                                 ",
"                                e u i h p p h v v v v h p p w / / #                                 ",
"                              x 4 y h h h v z A # # @ < s p i 1 r #                                 ",
"                          f B l : t w i C D A A E F C u s h q r u #                                 ",
"                      j G H I J # n < K F L b M < N h p p h O r 8                                   ",
"                      f 9 l m   # n n F D b E E v h p p p h & r @                                   ",
"                      P Q R f     S J E A L A L v h p p p h ~ #                                     ",
"                    + T U + V # x W ( # E E L F N i p p p w <                                       ",
"                  X Y Z Z Z `  .x ..    e L F F C N v v v K A                                       ",
"                  @ +.X X +.+.n #       e L D < D L L D < < A                                       ",
"                  X @.#.$.%.&.h           e 8 / 1 E A A # #                                         ",
"                  X *.=.%.&.-.;.          ! i p h i o F M #                                         ",
"                  # # # # # # #           = h h h s N z < ' >.@                                     ",
"                                          ! p p s v C ,., ) '.).!.                                  ",
"                                          = p p s v ~.= {.].].^.2 /.                                ",
"                                        A i p h v K F E {.(.b _.:.<./.                              ",
"                                        n i p w v C E ~.[.}.|.1.2.3.4./.                            ",
"                                        n i p i o F E M 5.6.7.8.9.3.3._.#                           ",
"                                        r h s v z L b 0.a.,.b.6.|.1.3._.#                           ",
"                                        o p c.N z L b a.a.a.,.d.|.1.<.e.#                           ",
"                                      ~ v h y N z E 7 a.a.b.7.8.1._.f.                              ",
"                                      / p s N o F L 7 a.b.6.8.1.6 f.@                               ",
"                                      # r v N C F L 7 ,.d.|.g.f.h.b                                 ",
"                                      i.5.z N C F E 7 b.7.g.j.j.k./.                                ",
"                                    S Q 2 5.< F F 8 0.d.1.6 l.2.e.#                                 ",
"                                  S m.n.o.p.q.e q.8 q.r.9.3.3.3.e.#                                 ",
"                                t s.n.&.T   @ i.@ # t.r.|.9.2.e.h.                                  ",
"                                U o.&.u.     .v.w.u.t.}.}.}.x.                                      ",
"                                a y.u.      z.@.A.B.                                                ",
"                                C.D.      z.=.A.                                                    ",
"                              D.C.D.      E.F.                                                      ",
"                              T w.                                                                  ",
"                            P G.v.                                                                  ",
"                          S m.H.I.                                                                  ",
"                            z.J.K.I.                                                                ",
"                              L.M.J. .                                                              "};
