/* XPM */
static char *xpm_[] = {
/* columns rows colors chars-per-pixel */
"60 60 230 2 ",
"   c black",
".  c #010102",
"X  c #030103",
"o  c #030202",
"O  c #040202",
"+  c #000402",
"@  c #050104",
"#  c #030607",
"$  c #080304",
"%  c #080605",
"&  c #080406",
"*  c #0B0607",
"=  c #0D0405",
"-  c #0C0505",
";  c #0B0907",
":  c #0A0509",
">  c #0C060B",
",  c #0E070A",
"<  c #0C070C",
"1  c #000F09",
"2  c #0F090F",
"3  c #090C0D",
"4  c #0A0C0E",
"5  c #11090B",
"6  c #120A0C",
"7  c #10080F",
"8  c #150B0E",
"9  c #160B0F",
"0  c #1B0A0B",
"q  c #00160D",
"w  c #0D100D",
"e  c #160513",
"r  c #180714",
"t  c #140B12",
"y  c #140B13",
"u  c #150B13",
"i  c #150C14",
"p  c #1E0B10",
"a  c #190D10",
"s  c #1B0D10",
"d  c #1A0E14",
"f  c #190E18",
"g  c #1A0E18",
"h  c #031516",
"j  c #001F18",
"k  c #1A1410",
"l  c #1D1412",
"z  c #1D1713",
"x  c #1F1016",
"c  c #1C1019",
"v  c #1E111D",
"b  c #231215",
"n  c #2B1513",
"m  c #2A1713",
"M  c #201219",
"N  c #27151A",
"B  c #28161F",
"V  c #361311",
"C  c #002717",
"Z  c #00211F",
"A  c #2F2114",
"S  c #2B221B",
"D  c #2B221C",
"F  c #090F2B",
"G  c #09102A",
"H  c #09102B",
"J  c #0A102A",
"K  c #0A112A",
"L  c #0A102B",
"P  c #0A112B",
"I  c #0B112B",
"U  c #0B112C",
"Y  c #0B122C",
"T  c #101B22",
"R  c #111531",
"E  c #131732",
"W  c #141833",
"Q  c #161B35",
"!  c #181C37",
"~  c #261524",
"^  c #281626",
"/  c #291727",
"(  c #2A1727",
")  c #2E1820",
"_  c #2D1929",
"`  c #2F1A2A",
"'  c #351C24",
"]  c #381D25",
"[  c #381E26",
"{  c #311B29",
"}  c #311B2B",
"|  c #321B2A",
" . c #351D2C",
".. c #351D2D",
"X. c #361E2D",
"o. c #381F2E",
"O. c #391F2F",
"+. c #3D0F34",
"@. c #12222A",
"#. c #16252C",
"$. c #00302E",
"%. c #1A2F3A",
"&. c #003734",
"*. c #0A3333",
"=. c #013937",
"-. c #19333E",
";. c #1B323E",
":. c #3B2526",
">. c #3E2129",
",. c #3A202F",
"<. c #20223E",
"1. c #3B2030",
"2. c #552312",
"3. c #401A22",
"4. c #451B22",
"5. c #481C23",
"6. c #49123D",
"7. c #7D1A2A",
"8. c #7E173A",
"9. c #4F2724",
"0. c #462924",
"q. c #45242E",
"w. c #402F28",
"e. c #572125",
"r. c #4F3722",
"t. c #412230",
"y. c #412433",
"u. c #422433",
"i. c #442533",
"p. c #442534",
"a. c #462635",
"s. c #472635",
"d. c #472735",
"f. c #492731",
"g. c #482735",
"h. c #4A2836",
"j. c #4B2836",
"k. c #4F2A35",
"l. c #4C2937",
"z. c #4E2A38",
"x. c #502A35",
"c. c #502B38",
"v. c #532B38",
"b. c #542D3A",
"n. c #562E3B",
"m. c #582E3B",
"M. c #592F3C",
"N. c #5A2F3C",
"B. c #5B303D",
"V. c #6F343B",
"C. c #71353C",
"Z. c #004226",
"A. c #00462A",
"S. c #153942",
"D. c #222440",
"F. c #232540",
"G. c #242441",
"H. c #252541",
"J. c #262643",
"K. c #272743",
"L. c #262644",
"P. c #272744",
"I. c #292E48",
"U. c #2B2F4B",
"Y. c #363854",
"T. c #58164A",
"R. c #5A174C",
"E. c #6B174D",
"W. c #771B44",
"Q. c #7B174D",
"!. c #0F4146",
"~. c #0B4649",
"^. c #0C4448",
"/. c #0A484A",
"(. c #03514F",
"). c #015350",
"_. c #005751",
"`. c #005652",
"'. c #005B51",
"]. c #005F50",
"[. c #3E435E",
"{. c #006E41",
"}. c #00644F",
"|. c #00654F",
" X c #00684E",
".X c #00764C",
"XX c #017948",
"oX c #007E4B",
"OX c #6F5546",
"+X c #5F637F",
"@X c #AF253B",
"#X c #9E4122",
"$X c #984225",
"%X c #AA4624",
"&X c #8C174F",
"*X c #961A4D",
"=X c #9D2247",
"-X c #912148",
";X c #952B49",
":X c #AA2049",
">X c #AE2248",
",X c #A92E59",
"<X c #924843",
"1X c #A35C40",
"2X c #AD564F",
"3X c #AB584B",
"4X c #A85058",
"5X c #8F6D5A",
"6X c #A46648",
"7X c #997F72",
"8X c #A57E68",
"9X c #D2665A",
"0X c #CE6860",
"qX c #D66B62",
"wX c #AB836C",
"eX c #E59B7C",
"rX c #FCAB6C",
"tX c #FFB06D",
"yX c #8488A4",
"uX c #8F96B0",
"iX c #949AB4",
"pX c #999FBA",
"aX c #D2A084",
"sX c #F1B898",
"dX c #FABF9D",
"fX c #FBBF9E",
"gX c #FDBF9D",
"hX c #FFC3A1",
"jX c #A1A7C3",
"kX c None",
/* pixels */
"kXkXkXkXkXkXkXkXkXkXkXkXkXkXkXkXkXkXkXkXkXkXkXkXkXkXkXkXkXkXkXkXkXkXkXkXkXkXkXkXkXkXkXkXkXkXkXkXkXkXkXkXkXkXkXkXkXkXkXkX",
"kXkXkXkXkXkXkXkXkXkXkXkXkXkXkXkXkXkXkXkXkXkXkXkXkXkXkXkXkXkXkXkXkXkXkXkXkXkXkXkXkXkXkXkXkXkXkXkXkXkXkXkXkXkXkXkXkXkXkXkX",
"kXkXkXkXkXkXkXkXkXkXkXkXkXkXkXkXkXkXkXkXkXkXkXkXkXkXkXkXkXkXkXkXkXkXkXkXkXkXkXkXkXkXkXkXkXkXkXkXkXkXkXkXkXkXkXkXkXkXkXkX",
"kXkXkXkXkXkXkXkXkXkXkXkXkXkXkXkXkXkXkXkXkXkXkXkXkXkXkXkXkXkXkXkXkXkXkXkXkXkXkXkXkXkXkXkXkXkXkXkXkXkXkXkXkXkXkXkXkXkXkXkX",
"kXkXkXkXkXkXkXkXkXkXkXkXkXkXkXkXkXkXkXkXkXkXkXkXkXkXkXkXkXkXkXkXkXkXkXkXkXkXkXkXkXkXkXkXkXkXkXkXkXkXkXkXkXkXkXkXkXkXkXkX",
"kXkXkXkXkXkXkXkXkXkXkXkXkXkXkXkXkXkXkXkXkXkXkXkXkXkXkXkXkXkXkXkXkXkXkXkXkXkXkXkXkXkXkXkXkXkXkXkXkXkXkXkXkXkXkXkXkXkXkXkX",
"kXkXkXkXkXkXkXkXkXkXkXkXkXkXkXkXkXkXkXkXkXkXkXkXkXkXkXkXkXkXkXkXkXkXkXkXkXkXkXkXkXkXkXkXkXkXkXkXkXkXkXkXkXkXkXkXkXkXkXkX",
"kXkXkXkXkXkXkXkXkXkXkXkXkXkXkXkXkXkXkXkXkXkXkXkXkXkXkXkXkXkXkXkXkXkXkXkXkXkXkXkXkXkXkXkXkXkXkXkXkXkXkXkXkXkXkXkXkXkXkXkX",
"kXkXkXkXkXkXkXkXkXkXkXkXkXkXkXkXkXkXkXkXkXkXkXkXkXkXkXkXkXkXkXkXkXkXkXkXkXkXkXkXkXkXkXkXkXkXkXkXkXkXkXkXkXkXkXkXkXkXkXkX",
"kXkXkXkXkXkXkXkXkXkXkXkXkXkXkXkXkXkXkXkXkXkXkXkXkXkXkXkXkXkXkXkXkX[.L.kXY kX! kXJ kX<.kXJ kXkXkXkXkXkXkXkXkXkXkXkXkXkXkX",
"kXkXkXkXkXkXkXkXkXkXkXkXkXkXkXkXkXkXkXkXkXkXkXkXkXkXkXkXkXJ J kXP.kXkXkXkXkXkXkXkXkXkXkXJ.K.kXJ uXkXkXkXkXkXkXkXkXkXkXkX",
"kXkXkXkXkXkXkXkXkXkXkXkXkXkXkXkXkXkXkXkXkXkXkXkXkXkXkXJ Y.kXkXkXkXkXkXkXkXkXkXkXkXkXkXkXkXkXkXkXF.kXkXkXkXkXkXkXkXkXkXkX",
"kXkXkXkXkXkXkXkXkXkXkXkXkXkXkXkXkXkXkXkXkXkXkXkXkXkXQ kXkXkXkXkXkXkXkXkXkXkXkXkXkXkXkXkXkXkXkXkXkXkXkXkXU.Y kXkXkXkXkXkX",
"kXkXkXkXkXkXkXkXkXkXkXkXkXkXkXkXkXkXkXkXkXkXkXkXkXkXkXkXkXkXkXkXkXkXkXkXkXkXkXkXkXkXkXkXkXkXkXkXkXkXkXkXkXF kXkXkXkXkXkX",
"kXkXkXkXkXkXkXkXkXkXkXkXkXkXkXkXkXkXkXkXkXkXkXpXY kXkXkXkXkXkXkXkXkXkXkXkXkXkXkXkXkXkXkXkXkXkXkXkXkXkXkXkXkXJ.J kXkXkXkX",
"kXkXkXkXkXkXkXkXkXkXkXkXkXkXkXkXkXkXkXkXkXkXkXJ L.kXkXkXkXkXkXkXkXkXkXkXkXkXkXkXkXkXkXkXkXkXkXkXkXkXkXkXkXkXkXkXJ kXkXkX",
"kXkXkXkXkXkXkXkXkXkXkXkXkXkXkXkXkXkXkXkXkXkXkXkXkXkXkXkXkXkXkXkXkXkXkXkXkXkXkXkXkXkXkXkXkXkXkXkXkXkXkXkXkXkXkXkXI.F kXkX",
"kXkXkXkXkXkXkXkXkXkXkXkXkXkXkXkXkXkXkXkXkXkXkXkXkXkXkXkXkXkXkXkXkXkXkXkXkXkXkXkXkXkXkXkXkXkXkXkXkXkXkXkXkXkXkXkXkXJ.kXkX",
"kXkXkXkXkXkXkXkXkXkXkXkXkXkXkXkXkXkXkXkXkXkXkXkXkXkXkXkXkXkXkXkXkXkXkXkXkXkXkXkXkXkXkXkXkXkXkXkXkXkXkXkXkXkXkXkXkXjXkXkX",
"kXkXkXkXkXkXkXkXkXkXkXkXkXkXkXkXkXkXkXkXkXkXkXkXkXkXkXkXkXkXkXkXkXkXkXkXkXkXkXkXkXkXkXkXkXkXkXkXkXkXkXkXkXkXkXkXkXkXkXkX",
"kXkXkXkXkXkXkXkXkXkXkXkXkXkXkXkXkXkXkXkXkXkXkXkXkXkXkXkXkXkXkXkXkXkXkXkXkXkXkXkXkXkXkXkXkXkXkXkXkXkXkXkXkXkXkXkXE kXkXkX",
"kXkXkXkXkXkXkXkXkXkXkXkXkXkXkXkXkXkXkXkXkXkXkXkXkXkXkXkXkXkXkXkXkXkXkXkXkXkXkXkXkXkXkXkXkXkXkXkXkXkXkXkXkXkXkXkXkXkXkXkX",
"kXkXkXkXkXkXkXkXkXkXkXkXkXkXkXkXkXkXkXkXkXkXkXkXkXkXkXkXkXkXkXkXkXkXkXkXkXkXkXkXkXkXkXkXkXkXkXkXkXkXkXkXkXkXiXkXkXkXkXkX",
"kXkXkXkXkXkXkXkXkXkXkXkXkXkXkXkXkXkXkXkXkXkXkXkXkXkXkXkXkX    $ 3.V kXkXkXkXkXkXkXkXkXkXkXkXkXkXkXkXkXkXyXJ L.kXkXkXkXkX",
"kXkXkXkXkXkXkXkXkXkXkXkXkXkXkXkXkXkXkXkXkXkXkXkXkXkXkXkX  5.3.e.0 W.p kXkXkXkXkXkXkXkXkXkXkXkXkXkXkXJ +XF.kXkXkXkXkXkXkX",
"kXkXkXkXkXkXkXkXkXkXkXkXkXkXkXkXkXkXkXkXkXkXkXkXkXkXkXkX  w.s 4.- -X&XkXkXkXkXkXkXkXkXkXkXkXkXkXkXkXE kXkXkXkXkXkXkXkXkX",
"kXkXkXkXkXkXkXkXkXkXkXkXkXkXkXkXkXkXkXkXkXkXkXkXkXkXkXkX  aXwXc $ ;X,XkXkXkXkXkXkXJ.kXkXkXkXkXkXW L.kXkXkXkXkXkXkXkXkXkX",
"kXkXkXkXkXkXkXkXkXkXkXkXkXkXkXkXkXkXkXkXkXkXkXkXkXkXkXkX  hXhX.   XX  8 B.B.O kXkXkXkXY pXkXkXJ.kXkXkXkXkXkXkXkXkXkXkXkX",
"kXkXkXkXkXkXkXkXkXkXkXkXkXkXkXkXkXkXkXkXkXkXkXkXkXkXkXkX  hXhX.   w f.M.B.h.M kXkXkXkXkXJ.kXkXkXkXkXkXkXkXkXkXkXkXkXkXkX",
"kXkXkXkXkXkXkXkXkXkXkXkXkXkXkXkXkXkXkXkXkXkXkXkXkXkXkXkXkXOX8XsXl   N ' k.X.(   kXkXkXkXkXkXkXkXkXkXkXkXkXkXkXkXkXkXkXkX",
"kXkXkXkXkXkXkXkXkXkXkXkXkXkXkXkXkXkXkXkXkXkXkXkXkXkXkXkXkXkXkXwXwXq.B.x.f / 2 kXkXkXkXkXkXkXkXkXkXkXkXkXkXkXkXkXkXkXkXkX",
"kXkXkXkXkXkXkXkXkXkXkXkXkXkXkXkXkXkXkXkXkXkXkXkXkXkXkXkXkXkXkXkXk.B.y u.M.: kXkXkXkXkXkXkXkXkXkXkXkXkXkXkXkXkXkXkXkXkXkX",
"kXkXkXkXkXkXkXkXkXkXkXkXkXkXkXkXkXkXkXkXkXkXkXkXkXkXkXkXkXkXkXkXx.B.t.> p.M.k.  kXkXkXkXkXkXkXkXkXkXkXkXkXkXkXkXkXkXkXkX",
"kXkXkXkXkXkXkXkXkXkXkXkXkXkXkXkXkXkXkXkXkXkXkXkXkXkXkXkXkXkXkXkXx B.n.| 7 p.B.B.[ > kXkXkXkXkXkXkXkXkXkXkXkXkXkXkXkXkXkX",
"kXkXkXkXkXkXkXkXkXkXkXkXkXkXkXkXkXkXkXkXkXkXkXkXkXkXkXkXkXkXkXkX  B.B.m.X.i z.B.B.B.s kXkXkXkXkXkXkXkXkXkXkXkXkXkXkXkXkX",
"kXkXkXkXkXkXkXkXkXkXkXkXkXkXkXkXkXkXkXkXkXkXkXkXkXkXkXkXkXkXkXkXkX' B.B.B.s | B.B.B.:.S kXkXkXkXkXkXkXkXkXkXkXkXkXkXkXkX",
"kXkXkXkXkXkXkXkXkXkXkXkXkXkXkXkXkXkXkXkXkXkXkXkXkXkXkXkXkXkXkXkXkXB B.B.B.d.y g.B.B.% fX  kXkXkXkXkXkXkXkXkXkXkXkXkXkXkX",
"kXkXkXkXkXkXkXkXkXkXkXkXkXkXkXkXkXkXkXkXkXkXkXkXkXkXkXkXkXkXkXkXkXf O.d.d.( y X.B.5 5 kXfXz kXkXkXkXkXkXkXkXkXkXkXkXkXkX",
"kXkXkXkXkXkXkXkXkXkXkXkXkXkXkXkXkXkXkXkXkXkXkXkXkXkXkXkXkXkXkXkXkXkXy y y t : f p.a $ kXhX5XkXkXkXkXkXkXkXkXkXkXkXkXkXkX",
"kXkXkXkXkXkXkXkXkXkXkXkXkXkXkXkXkXkXkXkXkXkXkXkXkXkXkXkXkXkXkXkXkX  =Xr ( _ p.f.v 5 kXr.; 0.9.kXkXkXkXkXkXkXkXkXkXkXkXkX",
"kXkXkXkXkXkXkXkXkXkXkXkXkXkXkXkXkXkXkXkXkXkXkXkXkXkXkXkXkXkXkXkXkX7.>X6.~ 1.B.M.B.kX            kXkXkXkXkXkXkXkXkXkXkXkX",
"kXkXkXkXkXkXkXkXkXkXkXkXkXkXkXkXkXkXkXkXkXkXkXkXkXkXkXkXkXkXkXkX  :X&XQ.@ 1.c.M.B.5   m A A A   kXkXkXkXkXkXkXkXkXkXkXkX",
"kXkXkXkXkXkXkXkXkXkXkXkXkXkXkXkXkXkXkXkXkXkXkXkXkXkXkXkXkXkXkXkX@X*X&XE.R.v d.M.B.B.a 4XqXrXtX  kXkXkXkXkXkXkXkXkXkXkXkX",
"kXkXkXkXkXkXkXkXkXkXkXkXkXkXkXkXkXkXkXkXkXkXkXkXkXkXkXkXkXkXkX+ C j h +.R.e X.n.B.B.N V.C.<X6X  kXkXkXkXkXkXkXkXkXkXkXkX",
"kXkXkXkXkXkXkXkXkXkXkXkXkXkXkXkXkXkXkXkXkXkXkXkXkXkXkXkXkXkXkXq oX}.^.;.#   i g.B.B.B.  kXkXkXkXkXkXkXkXkXkXkXkXkXkXkXkX",
"kXkXkXkXkXkXkXkXkXkXkXkXkXkXkXkXkXkXkXkXkXkXkXkXkXkXkXkXkXkXkXoXoX`.;.;.;.%.3 } B.B.B.[ kXkXkXkXkXkXkXkXkXkXkXkXkXkXkXkX",
"kXkXkXkXkXkXkXkXkXkXkXkXkXkXkXkXkXkXkXkXkXkXkXkXkXkXkXkXkXkXkXoX'.`.;.;.;.;.3 _ h.B.B.>.kXkXkXkXkXkXkXkXkXkXkXkXkXkXkXkX",
"kXkXkXkXkXkXkXkXkXkXkXkXkXkXkXkXkXkXkXkXkXkXkXkXkXkXkXkXkXkXkXoX X`.S.;.;.;.3 ( O.M.B.>.kXkXkXkXkXkXkXkXkXkXkXkXkXkXkXkX",
"kXkXkXkXkXkXkXkXkXkXkXkXkXkXkXkXkXkXkXkXkXkXkXkXkXkXkXkXkXkXkX1 oX`./.;.;.;.#.: ( ,.c.# kXkXkXkXkXkXkXkXkXkXkXkXkXkXkXkX",
"kXkXkXkXkXkXkXkXkXkXkXkXkXkXkXkXkXkXkXkXkXkXkXkXkXkXkXkXkXkXkXq oX|.`.;.;.;.#.: ( ( T =.kXkXkXkXkXkXkXkXkXkXkXkXkXkXkXkX",
"kXkXkXkXkXkXkXkXkXkXkXkXkXkXkXkXkXkXkXkXkXkXkXkXkXkXkXkXkXkXkXkX{..X`.).;.S.#.  < @.(.`.  kXkXkXkXkXkXkXkXkXkXkXkXkXkXkX",
"kXkXkXkXkXkXkXkXkXkXkXkXkXkXkXkXkXkXkXkXkXkXkXkXkXkXkXkXkXkXkXkXZ.A.].`.`.^.!.*.*.&.$.Z 0Xk kXkXkXkXkXkXkXkXkXkXkXkXkXkX",
"kXkXkXkXkXkXkXkXkXkXkXkXkXkXkXkXkXkXkXkXkXkXkXkXkXkXkXkXkXkXkXkXkXkX  n           kXkXkX- eXD kXkXkXkXkXkXkXkXkXkXkXkXkX",
"kXkXkXkXkXkXkXkXkXkXkXkXkXkXkXkXkXkXkXkXkXkXkXkXkXkXkXkXkXkXkXkXkXkX2.%XkXkXkXkXkXkXkXkXkX%XhX  kXkXkXkXkXkXkXkXkXkXkXkX",
"kXkXkXkXkXkXkXkXkXkXkXkXkXkXkXkXkXkXkXkXkXkXkXkXkXkXkXkXkXkXkXkX  1X9X2XkXkXkXkXkXkXkXkX$XgX3XkXkXkXkXkXkXkXkXkXkXkXkXkX",
"kXkXkXkXkXkXkXkXkXkXkXkXkXkXkXkXkXkXkXkXkXkXkXkXkXkXkXkXkXkXkXkXkXkXkXkXkXkXkXkXkXkXkXkXkXkXkXkXkXkXkXkXkXkXkXkXkXkXkXkX",
"kXkXkXkXkXkXkXkXkXkXkXkXkXkXkXkXkXkXkXkXkXkXkXkXkXkXkXkXkXkXkXkXkXkXkXkXkXkXkXkXkXkXkXkXkXkXkXkXkXkXkXkXkXkXkXkXkXkXkXkX",
"kXkXkXkXkXkXkXkXkXkXkXkXkXkXkXkXkXkXkXkXkXkXkXkXkXkXkXkXkXkXkXkXkXkXkXkXkXkXkXkXkXkXkXkXkXkXkXkXkXkXkXkXkXkXkXkXkXkXkXkX",
"kXkXkXkXkXkXkXkXkXkXkXkXkXkXkXkXkXkXkXkXkXkXkXkXkXkXkXkXkXkXkXkXkXkXkXkXkXkXkXkXkXkXkXkXkXkXkXkXkXkXkXkXkXkXkXkXkXkXkXkX",
"kXkXkXkXkXkXkXkXkXkXkXkXkXkXkXkXkXkXkXkXkXkXkXkXkXkXkXkXkXkXkXkXkXkXkXkXkXkXkXkXkXkXkXkXkXkXkXkXkXkXkXkXkXkXkXkXkXkXkXkX"
};
