/* XPM */
static char *xpm_[] = {
/* columns rows colors chars-per-pixel */
"60 60 256 2 ",
"   c black",
".  c #010000",
"X  c #010001",
"o  c #020101",
"O  c #020002",
"+  c #020102",
"@  c #030102",
"#  c #030203",
"$  c #040203",
"%  c #050303",
"&  c #060202",
"*  c #050104",
"=  c #050204",
"-  c #060305",
";  c #000704",
":  c #070407",
">  c #090404",
",  c #0B0607",
"<  c #040708",
"1  c #090509",
"2  c #0D0708",
"3  c #0E070D",
"4  c #000808",
"5  c #000A0A",
"6  c #06090A",
"7  c #000C09",
"8  c #000E08",
"9  c #060C0F",
"0  c #09080A",
"q  c #0F0C0A",
"w  c #0E080D",
"e  c #0F080E",
"r  c #10090B",
"t  c #11090B",
"y  c #12080A",
"u  c #12090B",
"i  c #10090F",
"p  c #11090F",
"a  c #140A0D",
"s  c #1A0D0C",
"d  c #00160D",
"f  c #00170E",
"g  c #1B130B",
"h  c #1D140C",
"j  c #060B1C",
"k  c #110A11",
"l  c #160C14",
"z  c #190D10",
"x  c #1B0E12",
"c  c #1E0E10",
"v  c #1C0F12",
"b  c #1D0F12",
"n  c #1D0F13",
"m  c #180D17",
"M  c #1D0F14",
"N  c #1B0F19",
"B  c #1C0F1A",
"V  c #031716",
"C  c #0E1415",
"Z  c #1A1410",
"A  c #1D1115",
"S  c #1F1014",
"D  c #1E101C",
"F  c #101C1E",
"G  c #2B090E",
"H  c #240E13",
"J  c #320A11",
"K  c #261312",
"L  c #201014",
"P  c #241317",
"I  c #21121F",
"U  c #351311",
"Y  c #3D131B",
"T  c #3A181F",
"R  c #3C181F",
"E  c #16271D",
"W  c #2A201A",
"Q  c #2F231D",
"!  c #3F2C1B",
"~  c #090F27",
"^  c #0A0F2A",
"/  c #0F1C23",
"(  c #09102A",
")  c #09112A",
"_  c #09112B",
"`  c #0A102A",
"'  c #0A102B",
"]  c #0A122B",
"[  c #0B132C",
"{  c #0B122D",
"}  c #0E142F",
"|  c #0E152F",
" . c #0F1530",
".. c #0F1B30",
"X. c #141934",
"o. c #151935",
"O. c #1A1D38",
"+. c #1C1E3A",
"@. c #270A21",
"#. c #380E2F",
"$. c #231422",
"%. c #241422",
"&. c #251523",
"*. c #261524",
"=. c #291727",
"-. c #2A1727",
";. c #271920",
":. c #2B1827",
">. c #2D1825",
",. c #2D1929",
"<. c #2F1A2A",
"1. c #301920",
"2. c #331B22",
"3. c #331B23",
"4. c #381E26",
"5. c #3B1F27",
"6. c #321B29",
"7. c #301A2A",
"8. c #311B2B",
"9. c #351D2A",
"0. c #331C2C",
"q. c #371E2C",
"w. c #07212B",
"e. c #122C20",
"r. c #192D37",
"t. c #1E203B",
"y. c #0D3338",
"u. c #1B323E",
"i. c #18353F",
"p. c #272121",
"a. c #3C212E",
"s. c #22223E",
"d. c #3B2030",
"f. c #3D2230",
"g. c #3E2231",
"h. c #3F2332",
"j. c #363934",
"k. c #401817",
"l. c #4B1B19",
"z. c #45301D",
"x. c #75331C",
"c. c #401A22",
"v. c #491D23",
"b. c #45172E",
"n. c #71162C",
"m. c #42222C",
"M. c #42232C",
"N. c #422433",
"B. c #452531",
"V. c #442533",
"C. c #432534",
"Z. c #452534",
"A. c #492731",
"S. c #4A2836",
"D. c #4B2836",
"F. c #4E2934",
"G. c #4D2937",
"H. c #4E2937",
"J. c #512B39",
"K. c #522B38",
"L. c #522C39",
"P. c #562D39",
"I. c #542D3A",
"U. c #552D3A",
"Y. c #572E3B",
"T. c #582E3B",
"R. c #582F3C",
"E. c #592F3C",
"W. c #463E3D",
"Q. c #523E34",
"!. c #5B303D",
"~. c #782C29",
"^. c #652F36",
"/. c #00413E",
"(. c #6F4D2F",
"). c #173640",
"_. c #242743",
"`. c #262643",
"'. c #262644",
"]. c #272744",
"[. c #282945",
"{. c #353B56",
"}. c #501647",
"|. c #601741",
" X c #6A174C",
".X c #721944",
"XX c #78174D",
"oX c #79174D",
"OX c #0D4347",
"+X c #0B4649",
"@X c #0C4548",
"#X c #0A484A",
"$X c #00504C",
"%X c #00524F",
"&X c #005551",
"*X c #005751",
"=X c #005652",
"-X c #005851",
";X c #39405A",
":X c #39405B",
">X c #006E41",
",X c #006B4E",
"<X c #007646",
"1X c #007B49",
"2X c #007C4B",
"3X c #007E4B",
"4X c #6F5546",
"5X c #735848",
"6X c #636258",
"7X c #434461",
"8X c #4B4F6B",
"9X c #595F7A",
"0X c #90352F",
"qX c #8D223C",
"wX c #813F3C",
"eX c #A82338",
"rX c #85423D",
"tX c #AA4624",
"yX c #AB492E",
"uX c #AF4F39",
"iX c #801D49",
"pX c #A01E4A",
"aX c #A61F4A",
"sX c #A72149",
"dX c #964A45",
"fX c #BA5A5C",
"gX c #846554",
"hX c #876755",
"jX c #8A6956",
"kX c #8A6957",
"lX c #8F6D5A",
"zX c #A57E68",
"xX c #C8645C",
"cX c #D56A62",
"vX c #C07360",
"bX c #B68B72",
"nX c #C8997E",
"mX c #E58466",
"MX c #EFA566",
"NX c #FFB06D",
"BX c #737894",
"VX c #737994",
"CX c #757894",
"ZX c #9EA3BF",
"AX c #CF9E82",
"SX c #D19F84",
"DX c #DEA388",
"FX c #E9B597",
"GX c #F4BC9C",
"HX c #F9BA9A",
"JX c #FBBC9A",
"KX c #F9BE9D",
"LX c #FFC3A1",
"PX c #A1A6C1",
"IX c #A4A9C5",
"UX c None",
/* pixels */
"UXUXUXUXUXUXUXUXUXUXUXUXUXUXUXUXUXUXUXUXUXUXUXUXUXUXUXUXUXUXUXUXUXUXUXUXUXUXUXUXUXUXUXUXUXUXUXUXUXUXUXUXUXUXUXUXUXUXUXUX",
"UXUXUXUXUXUXUXUXUXUXUXUXUXUXUXUXUXUXUXUXUXUXUXUXUXUXUXUXUXUXUXUXUXUXUXUXUXUXUXUXUXUXUXUXUXUXUXUXUXUXUXUXUXUXUXUXUXUXUXUX",
"UXUXUXUXUXUXUXUXUXUXUXUXUXUXUXUXUXUXUXUXUXUXUXUXUXUXUXUXUXUXUXUXUXUXUXUXUXUXUXUXUXUXUXUXUXUXUXUXUXUXUXUXUXUXUXUXUXUXUXUX",
"UXUXUXUXUXUXUXUXUXUXUXUXUXUXUXUXUXUXUXUXUXUXUXUXUXUXUXUXUXUXUXUXUXUXUXUXUXUXUXUXUXUXUXUXUXUXUXUXUXUXUXUXUXUXUXUXUXUXUXUX",
"UXUXUXUXUXUXUXUXUXUXUXUXUXUXUXUXUXUXUXUXUXUXUXUXUXUXUXUXUXUXUXUXUXUXUXUXUXUXUXUXUXUXUXUXUXUXUXUXUXUXUXUXUXUXUXUXUXUXUXUX",
"UXUXUXUXUXUXUXUXUXUXUXUXUXUXUXUXUXUXUXUXUXUXUXUXUXUXUXUXUXUXUXUXUXUXUXUXUXUXUXUXUXUXUXUXUXUXUXUXUXUXUXUXUXUXUXUXUXUXUXUX",
"UXUXUXUXUXUXUXUXUXUXUXUXUXUXUXUXUXUXUXUXUXUXUXUXUXUXUXUXUXUXUXUXUXUXUXUXUXUXUXUXUXUXUXUXUXUXUXUXUXUXUXUXUXUXUXUXUXUXUXUX",
"UXUXUXUXUXUXUXUXUXUXUXUXUXUXUXUXUXUXUXUXUXUXUXUXUXUXUXUXUXUXUXUXUXUXUXUXUXUXUXUXUXUXUXUXUXUXUXUXUXUXUXUXUXUXUXUXUXUXUXUX",
"UXUXUXUXUXUXUXUXUXUXUXUXUXUXUXUXUXUXUXUXUXUXUXUXUXUXUXUXUXUXUXUXUXUXUXUXUXUXUXUXUXUXUXUXUXUXUXUXUXUXUXUXUXUXUXUXUXUXUXUX",
"UXUXUXUXUXUXUXUXUXUXUXUXUXUXUXUXUXUXUXUXUXUXUXUXUXUXUXUXUXUXUXUXUXUXUXUXUXUXUXUXUXUXUXUXUXUXUXUXUXUXUXUXUXUXUXUXUXUXUXUX",
"UXUXUXUXUXUXUXUXUXUXUXUXUXUXUXUXUXUXUXUXUXUXUXUXUXUXUXUXUXUXUXUXUXUXUXUXUXUXUXUXUXUXUXUXUXUXUXUXUXUXUXUXUXUXUXUXUXUXUXUX",
"UXUXUXUXUXUXUXUXUXUXUXUXUXUXUXUXUXUXUXUXUXUXUXUXUXUXUXUXUXUXUXUXUXUXUXUXUXUXUXUXUXUXUXUXUXUXUXUXUXUXUXUXUXUXUXUXUXUXUXUX",
"UXUXUXUXUXUXUXUXUXUXUXUXUXUXUXUXUXUXUXUXUXUXUXUXUXUXUXUXUXUXUXUXUXUXUXUXUXUXUXUXUXUXUXUXUXUXUXUXUXUXUXUXUXUXUXUXUXUXUXUX",
"UXUXUXUXUXUXUXUXUXUXUXUXUXUXUXUXUXUXUXUXUXUXUXUXUXUXUXUXUXUXUXUXUXUXUXUXUXUXUXUXUXUXUXUXUXUXUXUXUXUXUXUXUXUXUXUXUXUXUXUX",
"UXUXUXUXUXUXUXUXUXUXUXUXUXUXUXUXUXUXUXUXUXUXUXUXUXUXUXUXUXUXUXUXUXUXUXUXUXUXUXUXUXUXUXUXUXUXUXUXUXUXUXUXUXUXUXUXUXUXUXUX",
"UXUXUXUXUXUXUXUXUXUXUXUXUXUXUXUXUXUXUXUXUXUXUXUXUXUXUXUXUXUXUXUXUXUXUXUXUXUXUXUXUXUXUXUXUXUXUXUXUXUXUXUXUXUXUXUXUXUXUXUX",
"UXUXUXUXUXUXUXUXUXUXUXUXUXUXUXUXUXUXUXUXUXUXUXUXUXUXUXUXUXUXUXUXUXUXUXUXUXUXUXUXUXUXUXUXUXUXUXUXUXUXUXUXUXUXUXUXUXUXUXUX",
"UXUXUXUXUXUXUXUXUXUXUXUXUXUXUXUXUXUXUXUXUXUXUXUXUXUXUXUXUXUXUXUXUXUXUXUXUXUXUXUXUXUXUXUXUXUXUXUXUXUXUXUXUXUXUXUXUXUXUXUX",
"UXUXUXUXUXUXUXUXUXUXUXUXUXUXUXUXUXUXUXUXUXUXUXUXUXUXUXUXUXUXUXUXUXUXUXUXUXUXUXUXUXUXUXUXUXUXUXUXUXUXUXUXUXUXUXUXUXUXUXUX",
"UXUXUXUXUXUXUXUXUXUXUXUXUXUXUXUXUXUXUXUXUXUX:XUX{.( UXUXUXUXUXUXUXUXUXUXUXUXUXUXUXUXUXUXUXUXUXUXUXUXUXUXUXUXUXUXUXUXUXUX",
"UXUXUXUXUXUXUXUXUXUXUXUXUXUXUXUXUX( ZX( UXUX].UX`.( UXUXUXUXUXUXUXUXUXUXUXUXUXUXUXUXUXUXUXUXUXUXUXUXUXUXUXUXUXUXUXUXUXUX",
"UXUXUXUXUXUXUXUXUXUXUXUXUXUXUX( t.( ].UXUXUXUXUXUXUXUXUXUXUXUXUXUXUXUXUXUXUXUXUXUXUXUXUXUXUXUXUXUXUXUXUXUXUXUXUXUXUXUXUX",
"UXUXUXUXUXUXUXUXUXUXUXUXUXUXUX[.UXUXUXUXUXUXUXUXUXUXUXUXUXUXUXUXUXUXUXUXUXUXUXUXUXUXUXUXUXUXUXUXUXUXUXUXUXUXUXUXUXUXUXUX",
"UXUXUXUXUXUXUXUXUXUXUXUXUXVXUXUXUXUXUXUXUXUXUXUXUXUXUXUXUXUX. . H l.UXUXUXUXUXUXUXUXUXUXUXUXUXUXUXUXUXUXUXUXUXUXUXUXUXUX",
"UXUXUXUXUXUXUXUXUXUXUXUXUX`.UXUXUXUXUXUXUXUXUXUXUXUXUXUXUXk.c.v.U b.k.UXUXUXUXUXUXUXUXUXUXUXUXUXUXUXUXUXUXUXUXUXUXUXUXUX",
"UXUXUXUXUXUXUXUXUXUXUX9XUXUXUXUXUXUXUXUXUXUXUXUXUXUXUXUXUXZ z T n.T.aXUXUXUXUXUXUXUXUXUXUXUXUXUXUXUXUXUXUXUXUXUXUXUXUXUX",
"UXUXUXUXUXUXUXUXUXUX`.UXUXUXUXUXUXUXUXUXUXUXUXUXUXUXUXUXUXlXGX% T .XiXUXUXUXUXUXUXUXUXUXUXUXUXUXUXUXUXUXUXUXUXUXUXUXUXUX",
"UXUXUXUXUXUXUXUXUXUXCXUXUXUXUXUXUXUXUXUXUXUXUXUXUXUXUXUXUXlXFXbXH <XE UXUXUXUXUXUXUXUXUXUXUXUXUXUXUXUXUXUXUXUXUXUXUXUXUX",
"UXUXUXUXUXUXUXUXUX:XUXUXUXUXUXUXUXUXUXUXUXUXUXUXUXUXUXUXUXlXLXAXb E % UXUXUXUXUXUXUXUXUXUXUXUXUXUXUXUXUXUXUXUXUXUXUXUXUX",
"UXUXUXUXUXUXUXUXUXUXUXUXUXUXUXUXUXUXUXUXUXUXUXUXUXUXUXUXUXQ.4XLXjX. . . . UXUXUXUXUXUXUXUXUXUXUXUXUXUXUXUXUXUXUXUXUXUXUX",
"UXUXUXUXUXUXUXUXUXUXUXUXUXUXUXUXUXUXUXUXUXUXUXUXUXUXUXUXUXUXUXW KX6XW.!.!.L UXUXUXUXUXUXUXUXUXUXUXUXUXUXUXUXUXUXUXUXUXUX",
"UXUXUXUXUXUXUXUXUXUXUXUXUXUXUXUXUXUXUXUXUXUXUXUXUXUXUXUXUXUXUXUXj.p.!.V.q.I.I.t UXUXUXUXUXUXUXUXUXUXUXUXUXUXUXUXUXUXUXUX",
"UXUXUXUXUXUXUXUXUX( ].UXUXUXUXUXUXUXUXUXUXUXUXUXUXUXUXUXUXUXUXt . R.!.G.D -.!.!.!.- UXUXUXUXUXUXUXUXUXUXUXUXUXUXUXUXUXUX",
"UXUXUXUXUXUXUXUXUXUX].UXUXUXUXUXUXUXUXUXUXUXUXUXUXUXUXUXUXUXUXm.q.a.!.!.H.D -.R.!.!.2.UXUXUXUXUXUXUXUXUXUXUXUXUXUXUXUXUX",
"UXUXUXUXUXUXUXUXUXUXUXUXUXUXUXUXUXUXUXUXUXUXUXUXUXUXUXUXUXUXb K.w i I.!.!.S.. g.!.!.!.. UXUXUXUXUXUXUXUXUXUXUXUXUXUXUXUX",
"UXUXUXUXUXUXUXUXUXUXUXUXUXUXUXUXUXUXUXUXUXUXUXUXUXUXUXUXUXUXm.N.. - 7.I.!.R.&.$.N.!.4.jXjXUXUXUXUXUXUXUXUXUXUXUXUXUXUXUX",
"UXUXUXUXUXUXUXUXUXUXUX8XUXUXUXUXUXUXUXUXUXUXUXUXUXUXUXUXUX. F.l UX&.B 8.I.E.g.m 0.S.2 2 zX5XUXUXUXUXUXUXUXUXUXUXUXUXUXUX",
"UXUXUXUXUXUXUXUXUXUXUXUXs.UXUXUXUXUXUXUXUXUXUXUXUXUXUXUXUX2.2.>.UXG J &.<.d.-.3 &.k b . q LXUXUXUXUXUXUXUXUXUXUXUXUXUXUX",
"UXUXUXUXUXUXUXUXUXUXUXUXUX( UXUXUXUXUXUXUXUXUXUXUXUXUXUXUX2.!.!.-.= = . . # # = . i t UXMXDXdXUXUXUXUXUXUXUXUXUXUXUXUXUX",
"UXUXUXUXUXUXUXUXUXUXUXUXUX`.UXUXUXUXUXUXUXUXUXUXUXUXUXUXUX2.!.!.h.= XX@.-.-.g.J.z UXUX. g . s . UXUXUXUXUXUXUXUXUXUXUXUX",
"UXUXUXUXUXUXUXUXUXUXUXUXUXUX7XUXUXUXUXUXUXUXUXUXUXUXUXUXUX2.!.N.2 j aX X3 <.I.!.!.UXUX> z.! ! g UXUXUXUXUXUXUXUXUXUXUXUX",
"UXUXUXUXUXUXUXUXUXUXUXUXUXUXUX].UXUXUXUXUXUXUXUXUXUXUXUXUX2.J.i M }.qXaX#.<.H.!.!.A UXL fXmXNX(.UXUXUXUXUXUXUXUXUXUXUXUX",
"UXUXUXUXUXUXUXUXUXUXUXUXUXUXUXUXUXUXUXUXUXUXUXUXUXUXUXUXUX. 6.2 6 ^ n.eXXX= C.E.!.5.UXi ^.wXrXz.UXUXUXUXUXUXUXUXUXUXUXUX",
"UXUXUXUXUXUXUXUXUXUXUXUXUXUXUXUXIX .UXUXUXUXUXUXUXUXUXUXUXUX. . ( ..)./ 9 0 a.T.!.!.a UXUXUXUXUXUXUXUXUXUXUXUXUXUXUXUXUX",
"UXUXUXUXUXUXUXUXUXUXUXUXUXUXUXUXUXUX+.PXUXUXUXUXUXUXUXUXUXUXUXd | u.u.u.u.C -.I.!.!.!.. UXUXUXUXUXUXUXUXUXUXUXUXUXUXUXUX",
"UXUXUXUXUXUXUXUXUXUXUXUXUXUXUXUXUXUXUX| `.UXUXUXUXUXUXUXUXUXUXw.( u.u.u.u.C -.V.!.!.!.m.UXUXUXUXUXUXUXUXUXUXUXUXUXUXUXUX",
"UXUXUXUXUXUXUXUXUXUXUXUXUXUXUXUXUXUXUXUXUXUXVXUXUXUXUXUXUXUX].V *Xi.u.u.u.r.. h.J.!.!.A.UXUXUXUXUXUXUXUXUXUXUXUXUXUXUXUX",
"UXUXUXUXUXUXUXUXUXUXUXUXUXUXUXUXUXUXUXUXUXUX`.UXo.UX{ UX( o.UXf ,X#Xu.u.u.u.. -.J.!.!.P UXUXUXUXUXUXUXUXUXUXUXUXUXUXUXUX",
"UXUXUXUXUXUXUXUXUXUXUXUXUXUXUXUXUXUXUXUXUXUXUXO.UX| UX( UXUXUXf 2X*X+Xu.u.r.. -.g.J.;.y.UXUXUXUXUXUXUXUXUXUXUXUXUXUXUXUX",
"UXUXUXUXUXUXUXUXUXUXUXUXUXUXUXUXUXUXUXUXUXUXUXUXUXUXUXUXUXUXUXUX2X2X-X@Xi.r.. $.$.< OX*X. UXUXUXUXUXUXUXUXUXUXUXUXUXUXUX",
"UXUXUXUXUXUXUXUXUXUXUXUXUXUXUXUXUXUXUXUXUXUXUXUXUXUXUXUXUXUXUXUX; <X2X-X*X*XF F F $X$X/.xXUXUXUXUXUXUXUXUXUXUXUXUXUXUXUX",
"UXUXUXUXUXUXUXUXUXUXUXUXUXUXUXUXUXUXUXUXUXUXUXUXUXUXUXUXUXUXUXUXUXUX8 8 5 5 5 5 5 5 UXUXK DXUXUXUXUXUXUXUXUXUXUXUXUXUXUX",
"UXUXUXUXUXUXUXUXUXUXUXUXUXUXUXUXUXUXUXUXUXUXUXUXUXUXUXUXUXUXUXUXUXUXUXyX. UXUXUXUXUXUXUXUXtXnXUXUXUXUXUXUXUXUXUXUXUXUXUX",
"UXUXUXUXUXUXUXUXUXUXUXUXUXUXUXUXUXUXUXUXUXUXUXUXUXUXUXUXUXUXUXUXUXgXuXcX. UXUXUXUXUXUXUXx.JXvXUXUXUXUXUXUXUXUXUXUXUXUXUX",
"UXUXUXUXUXUXUXUXUXUXUXUXUXUXUXUXUXUXUXUXUXUXUXUXUXUXUXUXUXUXUXUXUX0X0X0XUXUXUXUXUXUXUXQ HX0XUXUXUXUXUXUXUXUXUXUXUXUXUXUX",
"UXUXUXUXUXUXUXUXUXUXUXUXUXUXUXUXUXUXUXUXUXUXUXUXUXUXUXUXUXUXUXUXUXUXUXUXUXUXUXUXUXUXUXUXUXUXUXUXUXUXUXUXUXUXUXUXUXUXUXUX",
"UXUXUXUXUXUXUXUXUXUXUXUXUXUXUXUXUXUXUXUXUXUXUXUXUXUXUXUXUXUXUXUXUXUXUXUXUXUXUXUXUXUXUXUXUXUXUXUXUXUXUXUXUXUXUXUXUXUXUXUX",
"UXUXUXUXUXUXUXUXUXUXUXUXUXUXUXUXUXUXUXUXUXUXUXUXUXUXUXUXUXUXUXUXUXUXUXUXUXUXUXUXUXUXUXUXUXUXUXUXUXUXUXUXUXUXUXUXUXUXUXUX",
"UXUXUXUXUXUXUXUXUXUXUXUXUXUXUXUXUXUXUXUXUXUXUXUXUXUXUXUXUXUXUXUXUXUXUXUXUXUXUXUXUXUXUXUXUXUXUXUXUXUXUXUXUXUXUXUXUXUXUXUX",
"UXUXUXUXUXUXUXUXUXUXUXUXUXUXUXUXUXUXUXUXUXUXUXUXUXUXUXUXUXUXUXUXUXUXUXUXUXUXUXUXUXUXUXUXUXUXUXUXUXUXUXUXUXUXUXUXUXUXUXUX"
};
