/* XPM */
static char *xpm_[] = {
/* columns rows colors chars-per-pixel */
"60 60 224 2 ",
"   c black",
".  c #010000",
"X  c #040202",
"o  c #050303",
"O  c #050104",
"+  c #070305",
"@  c gray2",
"#  c #0A0405",
"$  c #090604",
"%  c #0A0507",
"&  c #0A0607",
"*  c #0B0607",
"=  c #0E0507",
"-  c #0B0907",
";  c #0F0A06",
":  c #0F0B06",
">  c #090408",
",  c #0A0509",
"<  c #0C0609",
"1  c #0D070B",
"2  c #000B0A",
"3  c #070A0B",
"4  c #0E080B",
"5  c #0F0C0A",
"6  c #0A0A0C",
"7  c #0E080D",
"8  c #0F080E",
"9  c #0F090F",
"0  c #0D0C0F",
"q  c #120707",
"w  c #100608",
"e  c #11040E",
"r  c #10080A",
"t  c #11090B",
"y  c #130D08",
"u  c #130A0E",
"i  c #150B0E",
"p  c #1F140D",
"a  c #1F160D",
"s  c #0F0B10",
"d  c #1C0717",
"f  c #120A11",
"g  c #130A11",
"h  c #160C15",
"j  c #180E17",
"k  c #1C0918",
"l  c #1B0F19",
"z  c #001616",
"x  c #091512",
"c  c #001A19",
"v  c #1F1014",
"b  c #17111C",
"n  c #1D101C",
"m  c #1F111D",
"M  c #12191B",
"N  c #250F13",
"B  c #220C1C",
"V  c #2F0F18",
"C  c #221216",
"Z  c #281015",
"A  c #21121B",
"S  c #23131B",
"D  c #241318",
"F  c #27151A",
"G  c #21121F",
"H  c #2B1318",
"J  c #2C1419",
"K  c #2B161C",
"L  c #28161F",
"P  c #2C171E",
"I  c #251C18",
"U  c #2B1E1B",
"Y  c #3D1616",
"T  c #321B1C",
"R  c #3A181F",
"E  c #002315",
"W  c #0D0F23",
"Q  c #111122",
"!  c #1D172B",
"~  c #241422",
"^  c #261524",
"/  c #281621",
"(  c #291725",
")  c #291727",
"_  c #2A1727",
"`  c #2F1920",
"'  c #2E1927",
"]  c #2B182A",
"[  c #2D1929",
"{  c #311B27",
"}  c #381D25",
"|  c #3A1E27",
" . c #361D29",
".. c #341D2C",
"X. c #351D2C",
"o. c #3A1F2A",
"O. c #381F2C",
"+. c #0D2728",
"@. c #0A2B2A",
"#. c #152127",
"$. c #1B2321",
"%. c #15232A",
"&. c #00312E",
"*. c #1C2331",
"=. c #182B35",
"-. c #182C35",
";. c #172B3A",
":. c #192E38",
">. c #1B323E",
",. c #19343F",
"<. c #2B2324",
"1. c #2A2A2B",
"2. c #3E2129",
"3. c #3B202F",
"4. c #3C2130",
"5. c #3F2231",
"6. c #4B1019",
"7. c #572313",
"8. c #5A211D",
"9. c #5B221D",
"0. c #45301D",
"q. c #461B20",
"w. c #570E31",
"e. c #711F38",
"r. c #452320",
"t. c #462126",
"y. c #42222C",
"u. c #532025",
"i. c #562A29",
"p. c #5D2E2A",
"a. c #5F332E",
"s. c #412433",
"d. c #422433",
"f. c #432534",
"g. c #452634",
"h. c #492731",
"j. c #4B2732",
"k. c #492735",
"l. c #4A2836",
"z. c #4D2937",
"x. c #4F2A38",
"c. c #502A35",
"v. c #522B37",
"b. c #502B39",
"n. c #552D39",
"m. c #562D39",
"M. c #562D3B",
"N. c #562E3B",
"B. c #572E3B",
"V. c #592F3C",
"C. c #5A2F3C",
"Z. c #4F3C32",
"A. c #5B303D",
"S. c #7D3725",
"D. c #743F39",
"F. c #78412C",
"G. c #1D3341",
"H. c #133C43",
"J. c #113E45",
"K. c #303A58",
"L. c #501443",
"P. c #5A174C",
"I. c #60174C",
"U. c #731A51",
"Y. c #004744",
"T. c #0A474A",
"R. c #064D4D",
"E. c #025350",
"W. c #005551",
"Q. c #005652",
"!. c #006F4D",
"~. c #007344",
"^. c #00764C",
"/. c #00774C",
"(. c #007948",
"). c #007E4B",
"_. c #0D6F55",
"`. c #454346",
"'. c #414452",
"]. c #595559",
"[. c #6F5546",
"{. c #725748",
"}. c #735848",
"|. c #77594A",
" X c #7C5E4E",
".X c #74645D",
"XX c #634967",
"oX c #695C71",
"OX c #8F332E",
"+X c #90352F",
"@X c #85423D",
"#X c #83174E",
"$X c #88174E",
"%X c #8C174F",
"&X c #9F264A",
"*X c #B82745",
"=X c #C62942",
"-X c #8C4540",
";X c #8F4741",
":X c #905A4E",
">X c #AD5259",
",X c #9F6E44",
"<X c #836453",
"1X c #846554",
"2X c #8F6D5A",
"3X c #9B735F",
"4X c #957562",
"5X c #D16557",
"6X c #D77459",
"7X c #DC7663",
"8X c #D97268",
"9X c #B1876F",
"0X c #DF9A5F",
"qX c #C7987D",
"wX c #FFB06D",
"eX c #69708A",
"rX c #A1A1A7",
"tX c #EC9C85",
"yX c #D1A185",
"uX c #F5BB9A",
"iX c #ECBBA0",
"pX c #FFC3A1",
"aX c #FEC3A2",
"sX c None",
/* pixels */
"sXsXsXsXsXsXsXsXsXsXsXsXsXsXsXsXsXsXsXsXsXsXsXsXsXsXsXsXsXsXsXsXsXsXsXsXsXsXsXsXsXsXsXsXsXsXsXsXsXsXsXsXsXsXsXsXsXsXsXsX",
"sXsXsXsXsXsXsXsXsXsXsXsXsXsXsXsXsXsXsXsXsXsXsXsXsXsXsXsXsXsXsXsXsXsXsXsXsXsXsXsXsXsXsXsXsXsXsXsXsXsXsXsXsXsXsXsXsXsXsXsX",
"sXsXsXsXsXsXsXsXsXsXsXsXsXsXsXsXsXsXsXsXsXsXsXsXsXsXsXsXsXsXsXsXsXsXsXsXsXsXsXsXsXsXsXsXsXsXsXsXsXsXsXsXsXsXsXsXsXsXsXsX",
"sXsXsXsXsXsXsXsXsXsXsXsXsXsXsXsXsXsXsXsXsXsXsXsXsXsXsXsXsXsXsXsXsXsXsXsXsXsXsXsXsXsXsXsXsXsXsXsXsXsXsXsXsXsXsXsXsXsXsXsX",
"sXsXsXsXsXsXsXsXsXsXsXsXsXsXsXsXsXsXsXsXsXsXsXsXsXsXsXsXsXsXsXsXsXsXsXsXsXsXsXsXsXsXsXsXsXsXsXsXsXsXsXsXsXsXsXsXsXsXsXsX",
"sXsXsXsXsXsXsXsXsXsXsXsXsXsXsXsXsXsXsXsXsXsXsXsXsXsXsXsXsXsXsXsXsXsXsXsXsXsXsXsXsXsXsXsXsXsXsXsXsXsXsXsXsXsXsXsXsXsXsXsX",
"sXsXsXsXsXsXsXsXsXsXsXsXsXsXsXsXsXsXsXsXsXsXsXsXsXsXsXsXsXsXsXsXsXsXsXsXsXsXsXsXsXsXsXsXsXsXsXsXsXsXsXsXsXsXsXsXsXsXsXsX",
"sXsXsXsXsXsXsXsXsXsXsXsXsXsXsXsXsXsXsXsXsXsXsXsXsXsXsXsXsXsXsXsXsXsXsXsXsXsXsXsXsXsXsXsXsXsXsXsXsXsXsXsXsXsXsXsXsXsXsXsX",
"sXsXsXsXsXsXsXsXsXsXsXsXsXsXsXsXsXsXsXsXsXsXsXsXsXsXsXsXsXsXsXsXsXsXsXsXsXsXsXsXsXsXsXsXsXsXsXsXsXsXsXsXsXsXsXsXsXsXsXsX",
"sXsXsXsXsXsXsXsXsXsXsXsXsXsXsXsXsXsXsXsXsXsXsXsXsXsXsXsXsXsXsXsXsXsXsXsXsXsXsXsXsXsXsXsXsXsXsXsXsXsXsXsXsXsXsXsXsXsXsXsX",
"sXsXsXsXsXsXsXsXsXsXsXsXsXsXsXsXsXsXsXsXsXsXsXsXsXsXsXsXsXsXsXsXsXsXsXsXsXsXsXsXsXsXsXsXsXsXsXsXsXsXsXsXsXsXsXsXsXsXsXsX",
"sXsXsXsXsXsXsXsXsXsXsXsXsXsXsXsXsXsXsXsXsXsXsXsXsXsXsXsXsXsXsXsXsXsXsXsXsXsXsXsXsXsXsXsXsXsXsXsXsXsXsXsXsXsXsXsXsXsXsXsX",
"sXsXsXsXsXsXsXsXsXsXsXsXsXsXsXsXsXsXsXsXsXsXsXsXsXsXsXsXsXsXsXsXsXsXsXsXsXsXsXsXsXsXsXsXsXsXsXsXsXsXsXsXsXsXsXsXsXsXsXsX",
"sXsXsXsXsXsXsXsXsXsXsXsXsXsXsXsXsXsXsXsXsXsXsXsXsXsXsXsXsXsXsXsXsXsXsXsXsXsXsXsXsXsXsXsXsXsXsXsXsXsXsXsXsXsXsXsXsXsXsXsX",
"sXsXsXsXsXsXsXsXsXsXsXsXsXsXsXsXsXsXsXsXsXsXsXsXsXsXsXsXsXsXsXsXsXsXsXsXsXsXsXsXsXsXsXsXsXsXsXsXsXsXsXsXsXsXsXsXsXsXsXsX",
"sXsXsXsXsXsXsXsXsXsXsXsXsXsXsXsXsXsXsXsXsXsXsXsXsXsXsXsXsXsXsXsXsXsXsXsXsXsXsXsXsXsXsXsXsXsXsXsXsXsXsXsXsXsXsXsXsXsXsXsX",
"sXsXsXsXsXsXsXsXsXsXsXsXsXsXsXsXsXsXsXsXsXsXsXsXsXsXsXsXsXsXsXsXsXsXsXsXsXsXsXsXsXsXsXsXsXsXsXsXsXsXsXsXsXsXsXsXsXsXsXsX",
"sXsXsXsXsXsXsXsXsXsXsXsXsXsXsXsXsXsXsXsXsXsXsXsXsXsXsXsXsXsXsXsXsXsXsXsXsXsXsXsXsXsXsXsXsXsXsXsXsXsXsXsXsXsXsXsXsXsXsXsX",
"sXsXsXsXsXsXsXsXsXsXsXsXsXsXsXsXsXsXsXsXsXsXsXsXsXsXsXsXsXsXsXsXsXsXsXsXsXsXsXsXsXsXsXsXsXsXsXsXsXsXsXsXsXsXsXsXsXsXsXsX",
"sXsXsXsXsXsXsXsXsXsXsXsXsXsXsXsXsXsXsXsXsXsXsXsXsXsXsXsXsXsXsXsXsXsXsXsXsXsXsXsXsXsXsXsXsXsXsXsXsXsXsXsXsXsXsXsXsXsXsXsX",
"sXsXsXsXsXsXsXsXsXsXsXsXsXsXsXsXsXsXsXsXsXsXsXsXsXsXsXsXsXsXsXsXsXsXsXsXsXsXsXsXsXsXsXsXsXsXsXsXsXsXsXsXsXsXsXsXsXsXsXsX",
"sXsXsXsXsXsXsXsXsXsXsXsXsXsXsXsXsXsXsXsXsXsXsXsXsXsXsXsXsXsXsXsXsXsXsXsXsXsXsX        sXsXsXsXsXsXsXsXsXsXsXsXsXsXsXsXsX",
"sXsXsXsXsXsXsXsXsXsXsXsXsXsXsXsXsXsXsXsXsXsXsXsXsXsXsXsXsXsXsXsXsXsXsXsXsXsX  < w w q.9.sXsXsXsXsXsXsXsXsXsXsXsXsXsXsXsX",
"sXsXsXsXsXsXsXsXsXsXsXsXsXsXsXsXsXsXsXsXsXsXsXsXsXsXsXsXsXsXsXsXsXsXsXsXsXq H H R u.Y &XsXsXsXsXsXsXsXsXsXsXsXsXsXsXsXsX",
"sXsXsXsXsXsXsXsXsXsXsXsXsXsXsXsXsXsXsXsXsXsXsXsXsXsXsXsXsXsXsXsXsXsXsXsXsXo 5 }.U R 8.U.sXsXsXsXsXsXsXsXsXsXsXsXsXsXsXsX",
"sXsXsXsXsXsXsXsXsXsXsXsXsXsXsXsXsXsXsXsXsXsXsXsXsXsXsXsXsXsXsXsXsXsXsXsXsX  yXpXiXT Z *X=XsXsXsXsXsXsXsXsXsXsXsXsXsXsXsX",
"sXsXsXsXsXsXsXsXsXsXsXsXsXsXsXsXsXsXsXsXsXsXsXsXsXsXsXsXsXsXsXsXsXsXsXsXsXsXpXpXpX[.N R.sXsXsXsXsXsXsXsXsXsXsXsXsXsXsXsX",
"sXsXsXsXsXsXsXsXsXsXsXsXsXsXsXsXsXsXsXsXsXsXsXsXsXsXsXsXsXsXsXsXsXsXsXsXsXsXpXpXpXa.  sXsXsXsXsXsXsXsXsXsXsXsXsXsXsXsXsX",
"sXsXsXsXsXsXsXsXsXsXsXsXsXsXsXsXsXsXsXsXsXsXsXsXsXsXsXsXsXsXsXsXsXsXsXsXsXsXsXZ.8XsXsXsXsXsXsXsXsXsXsXsXsXsXsXsXsXsXsXsX",
"sXsXsXsXsXsXsXsXsXsXsXsXsXsXsXsXsXsXsXsXsXsXsXsXsXsXsXsXsXsXsXsXsXsXsXsXsXsX  <XtXr.  sXsXsXsXsXsXsXsXsXsXsXsXsXsXsXsXsX",
"sXsXsXsXsXsXsXsXsXsXsXsXsXsXsXsXsXsXsXsXsXsXsXsXsXsXsXsXsXsXsXsXsXsXsXsXsXP @ 4XpX.XC v sXsXsXsXsXsXsXsXsXsXsXsXsXsXsXsX",
"sXsXsXsXsXsXsXsXsXsXsXsXsXsXsXsXsXsXsXsXsXsXsXsXsXsXsXsXsXsXsXsXsXsXsXsXP { M.rX1.].C.A.  sXsXsXsXsXsXsXsXsXsXsXsXsXsXsX",
"sXsXsXsXsXsXsXsXsXsXsXsXsXsXsXsXsXsXsXsXsXsXsXsXsXsXsXsXsXsXsXsXsXsXsX` b.< C.t `.C./ g.M.sXsXsXsXsXsXsXsXsXsXsXsXsXsXsX",
"sXsXsXsXsXsXsXsXsXsXsXsXsXsXsXsXsXsXsXsXsXsXsXsXsXsXsXsXsXsXsXsXsXsX} O.+ ( A.A.2.A.l ..V.* sXsXsXsXsXsXsXsXsXsXsXsXsXsX",
"sXsXsXsXsXsXsXsXsXsXsXsXsXsXsXsXsXsXsXsXsXsXsXsXsXsXsXsXsXsXsXsXsX  A.M.' f d.D v.b.( < A.y.sXsXsXsXsXsXsXsXsXsXsXsXsXsX",
"sXsXsXsXsXsXsXsXsXsXsXsXsXsXsXsXsXsXsXsXsXsXsXsXsXsXsXsXsXsXsXsXsXsXj.A. .2Xf S 3.[ _ h z.A.i sXsXsXsXsXsXsXsXsXsXsXsXsX",
"sXsXsXsXsXsXsXsXsXsXsXsXsXsXsXsXsXsXsXsXsXsXsXsXsXsXsXsXsXsXsXsXsXsX2.o.* 9XuX- 6.V n ~ d.C.A.sXsXsXsXsXsXsXsXsXsXsXsXsX",
"sXsXsXsXsXsXsXsXsXsXsXsXsXsXsXsXsXsXsXsXsXsXsXsXsXsXsXsXsXsXsXsXsXsX/ t Q <.pXqX, < *   ( C.A.F sXsXsXsXsXsXsXsXsXsXsXsX",
"sXsXsXsXsXsXsXsXsXsXsXsXsXsXsXsXsXsXsXsXsXsXsXsXsXsXsXsXsXsXsXsXsXsX  t b 4 O   _ s.A.  ^ 4.C.K sXsXsXsXsXsXsXsXsXsXsXsX",
"sXsXsXsXsXsXsXsXsXsXsXsXsXsXsXsXsXsXsXsXsXsXsXsXsXsXsXsXsXsXsXsXsXsX  t ! W #XL.l x.A.  sX~ 4.A.  sXsXsXsXsXsXsXsXsXsXsX",
"sXsXsXsXsXsXsXsXsXsXsXsXsXsXsXsXsXsXsXsXsXsXsXsXsXsXsXsXsXsXsXsXsXsXsX  oXB $XP.k x.C.} sXsX, u   sXsXsXsXsXsXsXsXsXsXsX",
"sXsXsXsXsXsXsXsXsXsXsXsXsXsXsXsXsXsXsXsXsXsXsXsXsXsXsXsXsXsXsXsXsXsXsX8 XXe.%XI.d l.C.j.sXsX{.[.sXsXsXsXsXsXsXsXsXsXsXsX",
"sXsXsXsXsXsXsXsXsXsXsXsXsXsXsXsXsXsXsXsXsXsXsXsXsXsXsXsXsXsXsXsXsXsXsX8 '.[ w.w.e 4.A.v.sX  pX[.sXsXsXsXsXsXsXsXsXsXsXsX",
"sXsXsXsXsXsXsXsXsXsXsXsXsXsXsXsXsXsXsXsXsXsXsXsXsXsXsXsXsXsXsXsXsXsX  s *.;.>.#.M G B.B.  0X<X;X  sXsXsXsXsXsXsXsXsXsXsX",
"sXsXsXsXsXsXsXsXsXsXsXsXsXsXsXsXsXsXsXsXsXsXsXsXsXsXsXsXsXsXsXsXsXsX  x eXK.>.>.#.3 l.M.  ; ; : * sXsXsXsXsXsXsXsXsXsXsX",
"sXsXsXsXsXsXsXsXsXsXsXsXsXsXsXsXsXsXsXsXsXsXsXsXsXsXsXsXsXsXsXsXsXsX  )._.G.>.>.>.3 ..f.  p a p y sXsXsXsXsXsXsXsXsXsXsX",
"sXsXsXsXsXsXsXsXsXsXsXsXsXsXsXsXsXsXsXsXsXsXsXsXsXsXsXsXsXsXsXsXsXsX  ).!.T.>.>.>.%.8 [ # >X7XwX,XsXsXsXsXsXsXsXsXsXsXsX",
"sXsXsXsXsXsXsXsXsXsXsXsXsXsXsXsXsXsXsXsXsXsXsXsXsXsXsXsXsXsXsXsXsXsX  )./.E.>.>.>.-.s (   t.i.a.0.sXsXsXsXsXsXsXsXsXsXsX",
"sXsXsXsXsXsXsXsXsXsXsXsXsXsXsXsXsXsXsXsXsXsXsXsXsXsXsXsXsXsXsXsXsXsX  ).).Q.J.>.>.>.-.6 j @.&.sXsXsXsXsXsXsXsXsXsXsXsXsX",
"sXsXsXsXsXsXsXsXsXsXsXsXsXsXsXsXsXsXsXsXsXsXsXsXsXsXsXsXsXsXsXsXsXsX  ~.).Q.Q.J.>.>.>.:.+.Q.$.I sXsXsXsXsXsXsXsXsXsXsXsX",
"sXsXsXsXsXsXsXsXsXsXsXsXsXsXsXsXsXsXsXsXsXsXsXsXsXsXsXsXsXsXsXsXsXsXsX  (.^.Q.Q.Q.,.,.Q.Q.2 ;X|.sXsXsXsXsXsXsXsXsXsXsXsX",
"sXsXsXsXsXsXsXsXsXsXsXsXsXsXsXsXsXsXsXsXsXsXsXsXsXsXsXsXsXsXsXsXsXsXsX  D.E Q.Q.Q.Q.Q.Y.2 sXsX3X  sXsXsXsXsXsXsXsXsXsXsX",
"sXsXsXsXsXsXsXsXsXsXsXsXsXsXsXsXsXsXsXsXsXsXsXsXsXsXsXsXsXsXsXsXsXsXsX7.S.sXsXsXc c z sXsXsXsXF. XsXsXsXsXsXsXsXsXsXsXsX",
"sXsXsXsXsXsXsXsXsXsXsXsXsXsXsXsXsXsXsXsXsXsXsXsXsXsXsXsXsXsXsXsXsXsXF.5X@XsXsXsXsXsXsXsXsXsX  6X:XsXsXsXsXsXsXsXsXsXsXsX",
"sXsXsXsXsXsXsXsXsXsXsXsXsXsXsXsXsXsXsXsXsXsXsXsXsXsXsXsXsXsXsXsXsX+X+X+X+XsXsXsXsXsXsXsXsXsXsX+X+XsXsXsXsXsXsXsXsXsXsXsX",
"sXsXsXsXsXsXsXsXsXsXsXsXsXsXsXsXsXsXsXsXsXsXsXsXsXsXsXsXsXsXsXsXsXsXsXsXsXsXsXsXsXsXsXsXsXsXsXsXsXsXsXsXsXsXsXsXsXsXsXsX",
"sXsXsXsXsXsXsXsXsXsXsXsXsXsXsXsXsXsXsXsXsXsXsXsXsXsXsXsXsXsXsXsXsXsXsXsXsXsXsXsXsXsXsXsXsXsXsXsXsXsXsXsXsXsXsXsXsXsXsXsX",
"sXsXsXsXsXsXsXsXsXsXsXsXsXsXsXsXsXsXsXsXsXsXsXsXsXsXsXsXsXsXsXsXsXsXsXsXsXsXsXsXsXsXsXsXsXsXsXsXsXsXsXsXsXsXsXsXsXsXsXsX",
"sXsXsXsXsXsXsXsXsXsXsXsXsXsXsXsXsXsXsXsXsXsXsXsXsXsXsXsXsXsXsXsXsXsXsXsXsXsXsXsXsXsXsXsXsXsXsXsXsXsXsXsXsXsXsXsXsXsXsXsX",
"sXsXsXsXsXsXsXsXsXsXsXsXsXsXsXsXsXsXsXsXsXsXsXsXsXsXsXsXsXsXsXsXsXsXsXsXsXsXsXsXsXsXsXsXsXsXsXsXsXsXsXsXsXsXsXsXsXsXsXsX"
};
