/* XPM */
static char *e7c10150cb7f4bc781519f73903ad24fBysnoxMHE716PjaD[] = {
/* columns rows colors chars-per-pixel */
"60 60 177 2 ",
"   c None",
".  c black",
"X  c #010001",
"o  c #020102",
"O  c #030102",
"+  c #040203",
"@  c #050203",
"#  c #050303",
"$  c #040204",
"%  c #050204",
"&  c #060305",
"*  c #070405",
"=  c #070406",
"-  c #070407",
";  c #0B0401",
":  c #080304",
">  c #080406",
",  c #090506",
"<  c #080407",
"1  c #0A0507",
"2  c #0C0404",
"3  c #0D0606",
"4  c #0F0B06",
"5  c #090609",
"6  c #0B0608",
"7  c #0C070C",
"8  c #0D070C",
"9  c #000A0A",
"0  c #000B0A",
"q  c #0F080E",
"w  c #120605",
"e  c #140707",
"r  c #1F060A",
"t  c #11090B",
"y  c #10090F",
"u  c #160B0D",
"i  c #140B0F",
"p  c #1A0D0C",
"a  c #1F160D",
"s  c #120410",
"d  c #110A11",
"f  c #150C14",
"g  c #160C14",
"h  c #1A0D10",
"j  c #1C0F13",
"k  c #1C0F16",
"l  c #190E18",
"z  c #1B0F1A",
"x  c #1F111D",
"c  c #2D100E",
"v  c #2B0812",
"b  c #3C0C14",
"n  c #221216",
"m  c #251319",
"M  c #27151A",
"N  c #21121F",
"B  c #2B1419",
"V  c #28161F",
"C  c #2C171E",
"Z  c #2E181E",
"A  c #2F191F",
"S  c #38161D",
"D  c #39171E",
"F  c #3C181F",
"G  c #320C2A",
"H  c #231422",
"J  c #261524",
"K  c #271524",
"L  c #281622",
"P  c #291727",
"I  c #2F1920",
"U  c #2B1828",
"Y  c #2C1828",
"T  c #2D1929",
"R  c #2E1928",
"E  c #331B22",
"W  c #351C23",
"Q  c #321B26",
"!  c #361C24",
"~  c #301B2A",
"^  c #331C2C",
"/  c #381F2C",
"(  c #381E2D",
")  c #381F2E",
"_  c #391F2F",
"`  c #002D2A",
"'  c #002D2B",
"]  c #142026",
"[  c #13232C",
"{  c #00302E",
"}  c #152832",
"|  c #003B38",
" . c #1B323E",
".. c #3E2129",
"X. c #3C212F",
"o. c #3D212F",
"O. c #3F2332",
"+. c #57121D",
"@. c #5A201D",
"#. c #520D2E",
"$. c #401A20",
"%. c #421A22",
"&. c #451B22",
"*. c #570E31",
"=. c #462126",
"-. c #4F2724",
";. c #5D2E2A",
":. c #402332",
">. c #412432",
",. c #412433",
"<. c #432433",
"1. c #432533",
"2. c #452530",
"3. c #442534",
"4. c #4A2732",
"5. c #4C2832",
"6. c #4B2836",
"7. c #4F2A35",
"8. c #4C2936",
"9. c #4C2937",
"0. c #512B39",
"q. c #5A2F3C",
"w. c #5B303D",
"e. c #762B26",
"r. c #673F2D",
"t. c #6D3632",
"y. c #603F36",
"u. c #00452A",
"i. c #00462A",
"p. c #005C3E",
"a. c #00633B",
"s. c #00663C",
"d. c #154240",
"f. c #0A6146",
"g. c #006148",
"h. c #00644F",
"j. c #007646",
"k. c #017A4A",
"l. c #007B4B",
"z. c #007E4B",
"x. c #434346",
"c. c #5D565B",
"v. c #6E5446",
"b. c #6F5546",
"n. c #69696D",
"m. c #717276",
"M. c #78757A",
"N. c #78797D",
"B. c #90352F",
"V. c #B34D31",
"C. c #A11E5C",
"Z. c #8E2048",
"A. c #843144",
"S. c #AA2049",
"D. c #924843",
"F. c #AD564F",
"G. c #A24C57",
"H. c #89614E",
"J. c #8A6956",
"K. c #8D6956",
"L. c #CB6C48",
"P. c #D06760",
"I. c #D58462",
"U. c #CF8D78",
"Y. c #C3957B",
"T. c #F59F6A",
"R. c #E69370",
"E. c #FFB06D",
"W. c #909196",
"Q. c #AE988E",
"!. c #CE9D82",
"~. c #DBA488",
"^. c #DFAA8C",
"/. c #F4B999",
"(. c #FDBF9E",
"). c #D1BBB2",
"_. c #FFC3A1",
/* pixels */
"                                                                                                                        ",
"                                                                                                                        ",
"                                                                                                                        ",
"                                                                                                                        ",
"                                                                                                                        ",
"                                                                                                                        ",
"                                                                                                                        ",
"                                                                                                                        ",
"                                                                                                                        ",
"                                                                                                                        ",
"                                                                                                                        ",
"                                                                                                                        ",
"                                                                                                                        ",
"                                                                                                                        ",
"                                                                                                                        ",
"                                                                                                                        ",
"                                                                                                                        ",
"                                                                                                                        ",
"                                                                                                                        ",
"                                                                                                                        ",
"                                                                                  . F F $.e                             ",
"                                                                                @.S S S e.S c                           ",
"                                                                                h b.= B &.w C.                          ",
"                                                                                < !._.+ $.3 Z.                          ",
"                                                                                . Q.Y.).i : A.                          ",
"                                                                                . _._.(.. .                             ",
"                                                                                  J./.F.  .                             ",
"                                                                                    -.F.                                ",
"                                                                                . x._.~.W.! .                           ",
"                                                                              . Z m.b.N.W Z 2.                          ",
"                                                                              8...c.n.C 0.< 6.M                         ",
"                                                                              . ,.I M.q.,.< 6.w..                       ",
"                                                                              . / 8.m ,.:.= 6.w..                       ",
"                                                                            . x U k ,.,.U $ 6.w..                       ",
"                                                                            . H f 6 i P P $ 6.w.V                       ",
"                                                                            O.l b +.+.. d . / w.V                       ",
"                                                                            O.$ ~ s L P P $ n 5./ .                     ",
"                                                                            O.$ ~ G q T X.8.w.8.P .                     ",
"                                                                          t $ < T #.*.T X.4.w.:.P .                     ",
"                                                                          t J / 7 S.*.T :.J Q ^ P .                     ",
"                                                                            7 ,.7 v r T ,.T t.l P N                     ",
"                                                                            + 3.7 ]  .= :.f U.j d y                     ",
"                                                                            + 3.7 d.f.= J ^._.E .                       ",
"                                                                            + ,.P i.f.= 4 a y.;..                       ",
"                                                                            + ,.P i.f.. 3 4 4 4 .                       ",
"                                                                            + ,.P { k.[ p a a a .                       ",
"                                                                              6 x { z.} G.P.T.E.q .                     ",
"                                                                                ` p.z.s.=.=.;.r..                       ",
"                                                                                | z.z.z.z.z.z.a.                        ",
"                                                                                . g.z.z.z.z.z.                          ",
"                                                                                D.` h.k.j.j..                           ",
"                                                                                D.. 0 0   Y.                            ",
"                                                                              . V.      ; L.                            ",
"                                                                            K.I._.    H.R._.                            ",
"                                                                            B.B.B.    B.B.B.                            ",
"                                                                                                                        ",
"                                                                                                                        ",
"                                                                                                                        ",
"                                                                                                                        ",
"                                                                                                                        "
};
