/* XPM */
static char * Idle_6_xpm[] = {
"50 53 161 2",
"  	c None",
". 	c #030102",
"+ 	c #250E13",
"@ 	c #2C1415",
"# 	c #38161B",
"$ 	c #3A1614",
"% 	c #0A0406",
"& 	c #6E2929",
"* 	c #29150F",
"= 	c #4C1E21",
"- 	c #321616",
"; 	c #391E26",
"> 	c #4B2522",
", 	c #58131F",
"' 	c #772333",
") 	c #390F17",
"! 	c #12090E",
"~ 	c #584237",
"{ 	c #221217",
"] 	c #3A181F",
"^ 	c #481A18",
"/ 	c #621035",
"( 	c #8B1A4F",
"_ 	c #120C07",
": 	c #080808",
"< 	c #B78771",
"[ 	c #E4AE90",
"} 	c #6B5143",
"| 	c #1A0C0F",
"1 	c #350D2B",
"2 	c #AF2552",
"3 	c #E42B6F",
"4 	c #7C5E4E",
"5 	c #EABAA0",
"6 	c #ECB495",
"7 	c #E9B497",
"8 	c #72574A",
"9 	c #331C1D",
"0 	c #761828",
"a 	c #942147",
"b 	c #9B223D",
"c 	c #4C392F",
"d 	c #D2AF9E",
"e 	c #CFA38A",
"f 	c #C1A191",
"g 	c #3C3034",
"h 	c #3D212C",
"i 	c #6D3444",
"j 	c #96725E",
"k 	c #FFC3A1",
"l 	c #4B342E",
"m 	c #0E282A",
"n 	c #FDC09E",
"o 	c #CA796A",
"p 	c #806151",
"q 	c #DB8272",
"r 	c #522825",
"s 	c #C6625B",
"t 	c #271E18",
"u 	c #CE9C82",
"v 	c #FBBD9B",
"w 	c #838388",
"x 	c #695E59",
"y 	c #D6A387",
"z 	c #DEAA8C",
"A 	c #6B696D",
"B 	c #432B33",
"C 	c #0D060A",
"D 	c #23131C",
"E 	c #544B50",
"F 	c #756B68",
"G 	c #7C6356",
"H 	c #473239",
"I 	c #42232E",
"J 	c #1F1015",
"K 	c #2B171C",
"L 	c #2E181F",
"M 	c #7E7E82",
"N 	c #636367",
"O 	c #552D3A",
"P 	c #331B25",
"Q 	c #190D15",
"R 	c #4C2836",
"S 	c #592F3C",
"T 	c #6C6C70",
"U 	c #3D2131",
"V 	c #432533",
"W 	c #391F2C",
"X 	c #492734",
"Y 	c #51474C",
"Z 	c #512A36",
"` 	c #5B303D",
" .	c #341C2B",
"..	c #2D1825",
"+.	c #2D1928",
"@.	c #1D0C18",
"#.	c #1E111C",
"$.	c #291726",
"%.	c #140B13",
"&.	c #210D1A",
"*.	c #101C22",
"=.	c #47181D",
"-.	c #AE253B",
";.	c #231322",
">.	c #5A0E32",
",.	c #791634",
"'.	c #8F1E30",
").	c #030B0B",
"!.	c #0C1317",
"~.	c #763B36",
"{.	c #1A2F3A",
"].	c #533D37",
"^.	c #A76F5F",
"/.	c #086546",
"(.	c #08483A",
"_.	c #594438",
":.	c #003B36",
"<.	c #00734B",
"[.	c #065D48",
"}.	c #005541",
"|.	c #007D4B",
"1.	c #012A19",
"2.	c #734F30",
"3.	c #7C5534",
"4.	c #251A13",
"5.	c #103120",
"6.	c #AC614D",
"7.	c #F9A66B",
"8.	c #FFB06D",
"9.	c #12131A",
"0.	c #004E2E",
"a.	c #492E27",
"b.	c #4F3722",
"c.	c #052222",
"d.	c #00644B",
"e.	c #0C2F1F",
"f.	c #803C43",
"g.	c #C15E5D",
"h.	c #DB7663",
"i.	c #03191A",
"j.	c #7B3942",
"k.	c #A44D57",
"l.	c #E78766",
"m.	c #002928",
"n.	c #003921",
"o.	c #00170E",
"p.	c #005350",
"q.	c #00643C",
"r.	c #67332E",
"s.	c #00402E",
"t.	c #002013",
"u.	c #3D2C2B",
"v.	c #624A3F",
"w.	c #5A2C1B",
"x.	c #562D1D",
"y.	c #BE6240",
"z.	c #75422E",
"A.	c #8B3C34",
"B.	c #9E4237",
"C.	c #A24A3F",
"D.	c #A44F44",
"                                                                                                    ",
"                                                                                                    ",
"                                                                                                    ",
"                                                                                                    ",
"                                            . + @ @ # $ .                                           ",
"                                          . . . . . % # & *                                         ",
"                                        $ = - # ; > , # ' )                                         ",
"                                        ! ! ~ { + ] > ^ / (                                         ",
"                                        _ : < [ } | = ^ 1 2 3                                       ",
"                                          4 5 6 7 8 9 { 0 a b                                       ",
"                                          c d e f 5 g % h i                                         ",
"                                          j k k k 6 l _ m                                           ",
"                                          j n k n o - .                                             ",
"                                            p < q >                                                 ",
"                                              r s >                                                 ",
"                                          . t u v o - .                                             ",
"                                        % w x y z x A B { C                                         ",
"                                      C D E F G F A H I J ; |                                       ",
"                                    % K L { M N N B O P Q R P                                       ",
"                                    % K P S g T U S V D Q R h |                                     ",
"                                    . C W X g Y X Z V D Q R ` K                                     ",
"                                    . C  .V I ..R V V D Q R ` K                                     ",
"                                    . % +.U { I V V W @.@.R ` K                                     ",
"                                    . #.$.$.{ W U  .+.%.Q R ` ` J                                   ",
"                                    . #.#.% %.&.*.+.$.Q Q R S ` J                                   ",
"                                  . %.! =.-.-.-., % #.Q Q R S ` Q                                   ",
"                                  { +.@.C . . % % % % . %...Z R U |                                 ",
"                                  D +.%.+.! @.;.$.$.$.Q Q L W R U |                                 ",
"                                  { +.%.$.! 1 @.$. .+.K Z S X V +.C                                 ",
"                                . { $.Q ..! 1 @.;.W  ...O S Z V +.#.:                               ",
"                                D ..%.{  .! / >.@.W  .D X S V  .$.#.%                               ",
"                                D W ! .. .%.,./ @.W U ..@.h h +.$.*.%                               ",
"                                  Q %.P  .%.'.,.+ U V  .! % ;.+.$.&.%                               ",
"                                  . ; V  .! . ).!. .U  .! ~.@ ;.$.;.%                               ",
"                                  . W V  .%.m {.!.#.h ..].^.9 %.%.!                                 ",
"                                  . ; X  .! m /.(.!.@._.7 y B h %.                                  ",
"                                  . W X  .%.:.<.[.!.Q 8 6 u l Z J                                   ",
"                                  . ; V U $.!.}.|.1.> 2.~ 3.~.; ;                                   ",
"                                    J h  .$.!.}.|.1._ 4.. @ @ _ h Q                                 ",
"                                    % h U $.!.(.|.5.6.7.8.8.8.3.P Q                                 ",
"                                       . .$.9.0.<.1.@ =.a.b.b.4.; I !                               ",
"                                      % { +.;.c.d.e.f.g.h.7.8.3.K W C                               ",
"                                      i.c.% . 1.d.e.j.k.g.h.l.3.% %                                 ",
"                                        m.d.|.|.|.n.o.o.o.o.o.o..                                   ",
"                                        m.p.<.|.|.|.|.|.|.|.|.|.1.                                  ",
"                                        ).:.d.|.|.|.|.|.|.|.|.0.                                    ",
"                                        . . :.[.|.|.|.|.|.q.o.                                      ",
"                                        r.r . i.s.0.0.0.t..                                         ",
"                                        r.r         . c u.                                          ",
"                                        r.r           4 v.                                          ",
"                                      w.s x.        w.y.x.                                          ",
"                                  _.z.< n 2.    ~ z.q v }                                           ",
"                                  A.B.B.C.A.    B.B.B.D.A.                                          "};
