/* XPM */
static char * Idle_5_xpm[] = {
"50 53 161 2",
"  	c None",
". 	c #14070A",
"+ 	c #2C1216",
"@ 	c #431C1C",
"# 	c #30110F",
"$ 	c #010101",
"% 	c #1A0B0D",
"& 	c #3C1B1D",
"* 	c #662328",
"= 	c #240C0B",
"- 	c #32151C",
"; 	c #3D1921",
"> 	c #4C1E24",
", 	c #51171D",
"' 	c #270D12",
") 	c #2B1A1B",
"! 	c #4D372E",
"~ 	c #211215",
"{ 	c #391412",
"] 	c #6B1541",
"^ 	c #8A194D",
"/ 	c #12090D",
"( 	c #2F241E",
"_ 	c #C6987D",
": 	c #DBAD94",
"< 	c #4D3A31",
"[ 	c #5F2928",
"} 	c #581236",
"| 	c #C3275B",
"1 	c #9D7763",
"2 	c #FFC3A1",
"3 	c #E1AC8E",
"4 	c #554135",
"5 	c #160C13",
"6 	c #811B31",
"7 	c #992147",
"8 	c #962037",
"9 	c #6D574B",
"0 	c #E2BAA5",
"a 	c #BC927A",
"b 	c #CBAB9B",
"c 	c #BF9883",
"d 	c #0A0406",
"e 	c #4C2935",
"f 	c #6E3142",
"g 	c #B78B73",
"h 	c #392121",
"i 	c #06282A",
"j 	c #B1876F",
"k 	c #FDC19F",
"l 	c #F8B798",
"m 	c #A76255",
"n 	c #8F6C59",
"o 	c #C78D77",
"p 	c #CC7366",
"q 	c #713833",
"r 	c #C4615A",
"s 	c #30221E",
"t 	c #E6AE90",
"u 	c #0E080D",
"v 	c #7E7E82",
"w 	c #7E6558",
"x 	c #F1B898",
"y 	c #736966",
"z 	c #5C575B",
"A 	c #43242D",
"B 	c #1A0D13",
"C 	c #0B060A",
"D 	c #2A161C",
"E 	c #605B5F",
"F 	c #452932",
"G 	c #24131C",
"H 	c #331B24",
"I 	c #3C3034",
"J 	c #6C6C70",
"K 	c #592F3C",
"L 	c #5E5E61",
"M 	c #3C212C",
"N 	c #532C39",
"O 	c #422433",
"P 	c #1B0E19",
"Q 	c #482734",
"R 	c #4C3D43",
"S 	c #4B4146",
"T 	c #512A36",
"U 	c #1F1115",
"V 	c #391F2D",
"W 	c #251421",
"X 	c #5B303D",
"Y 	c #341C2B",
"Z 	c #3D2131",
"` 	c #291724",
" .	c #1C101A",
"..	c #681624",
"+.	c #AF253B",
"@.	c #3C0E16",
"#.	c #210C1A",
"$.	c #120710",
"%.	c #2E1929",
"&.	c #2D0B25",
"*.	c #2E1923",
"=.	c #400A24",
"-.	c #390A21",
";.	c #030C0D",
">.	c #13141B",
",.	c #583C26",
"'.	c #0F141B",
").	c #182E39",
"!.	c #0B1818",
"~.	c #8F504D",
"{.	c #77584B",
"].	c #0F1A21",
"^.	c #034E3C",
"/.	c #04241B",
"(.	c #99745F",
"_.	c #085A40",
":.	c #001D12",
"<.	c #68482C",
"[.	c #594339",
"}.	c #8F4849",
"|.	c #66322E",
"1.	c #21140E",
"2.	c #1E150D",
"3.	c #313628",
"4.	c #CD7B5A",
"5.	c #FDAC6C",
"6.	c #FFB06D",
"7.	c #534228",
"8.	c #4E3521",
"9.	c #003230",
"0.	c #252527",
"a.	c #C8635E",
"b.	c #E58566",
"c.	c #A54E57",
"d.	c #D97163",
"e.	c #EC9167",
"f.	c #005431",
"g.	c #00482B",
"h.	c #005B50",
"i.	c #00170E",
"j.	c #003A24",
"k.	c #005652",
"l.	c #00744C",
"m.	c #007E4B",
"n.	c #004340",
"o.	c #00644C",
"p.	c #00504C",
"q.	c #00643C",
"r.	c #42201E",
"s.	c #8E6052",
"t.	c #864C35",
"u.	c #7A3C26",
"v.	c #CE6A46",
"w.	c #452417",
"x.	c #63483B",
"y.	c #DE9675",
"z.	c #752A26",
"A.	c #A44E43",
"B.	c #9E4438",
"C.	c #85372F",
"D.	c #944138",
"                                                                                                    ",
"                                                                                                    ",
"                                                                                                    ",
"                                                                                                    ",
"                                            . + + + @ # $                                           ",
"                                        $ $ $ $ $ $ % & * =                                         ",
"                                        @ @ + - ; > , + * '                                         ",
"                                        % ) ! % ~ & * { ] ^                                         ",
"                                        / ( _ : < ' [ { } |                                         ",
"                                        $ 1 2 3 : 4 5 / 6 7 8                                       ",
"                                        $ 9 0 a b c ) d e f                                         ",
"                                        $ g 2 2 2 _ h % i                                           ",
"                                        $ j k 2 l m %                                               ",
"                                          ( n o p @                                                 ",
"                                            $ q r s                                                 ",
"                                          $ 4 t l m % $                                             ",
"                                      u d v w x _ y z A B C                                         ",
"                                      % D z y w y E F A G H                                         ",
"                                    B ~ H I J J z F K ~ G e D                                       ",
"                                    % G H e z L M N O P G N H                                       ",
"                                    $ B O Q R S Q T O P G N K U                                     ",
"                                    $ 5 V O H H T O O P W N X ~                                     ",
"                                    $ / Y V D Q O Z V u W N X B                                     ",
"                                    C W ` W W Z Z Y ` u G N X T B                                   ",
"                                    C W  .d 5 P W ` ` u W N X K %                                   ",
"                                  $ 5 d ..+.+.+.@.u W u W N X N U                                   ",
"                                $ ` ` P d $ $ d d d d $ 5 Y K Q H C                                 ",
"                                $ W W #.Y $.P W ` ` %.5 ~ D A O Y C                                 ",
"                                $ D W P Y 5 &.P %.Y D *.K N F O W d                                 ",
"                                $ W G G Y 5 &.P %.V G H K K e Z %.5                                 ",
"                                ) D B W Y #.} =.P Z *.D T N O Y ` 5                                 ",
"                                H Y B M M W -.=.#.V Z W G M Y %.` P                                 ",
"                                $ P P Y Z ` =., P Z O Y C $.` %.` 5                                 ",
"                                  d M O Z ` d ;.>.M O Y + ,.P ` ` 5                                 ",
"                                  d M O O ` '.).!.G V #.9 ~.U P 5 u                                 ",
"                                    G O O ` '.).). .P {.x j M V C                                   ",
"                                    B O O %.P ].^./.U n x (.A e G                                   ",
"                                    B A O V P ]._.:.<.<.[.}.|.h A .                                 ",
"                                    B O O Z U ]._.:.1.2.d & 2.% A )                                 ",
"                                      ) Q Z  .]._.3.4.5.6.6.5.7.A X +                               ",
"                                      G M O Y >.^.!.) > 8.8.8.~ A T U                               ",
"                                        % Y V 5 9.0.}.a.b.5.5.,.B B                                 ",
"                                        $ $ d $ 9.0.}.c.a.d.e.7.f.g.                                ",
"                                        9.h.h.h.h./.i.i.i.i.i.:.^.j.                                ",
"                                        9.k.h.l.m.m.m.m.m.m.m.f.j.                                  ",
"                                        ;.n.h.h.o.l.m.m.m.m.g.                                      ",
"                                        <.& $ i p.p.p.o.q.i.                                        ",
"                                        7 8.    $ $ $ + %                                           ",
"                                        <.r.          s.!                                           ",
"                                        t.>           1 <                                           ",
"                                      u.v.w.        u.v.w.                                          ",
"                                  x.t.y.2 <     x.t.y.2 4                                           ",
"                                z.A.B.A.A.C.  z.D.B.A.A.C.                                          "};
