/* XPM */
static char * Idle_9_xpm[] = {
"50 53 161 2",
"  	c None",
". 	c #0A0506",
"+ 	c #250F13",
"@ 	c #2C1415",
"# 	c #38161B",
"$ 	c #3A1614",
"% 	c #020102",
"& 	c #100807",
"* 	c #3A181F",
"= 	c #6E2929",
"- 	c #29150F",
"; 	c #4C1E21",
"> 	c #321616",
", 	c #331B24",
"' 	c #441B22",
") 	c #58131F",
"! 	c #772333",
"~ 	c #390F17",
"{ 	c #12090E",
"] 	c #1B0C0F",
"^ 	c #584237",
"/ 	c #251A13",
"( 	c #190D16",
"_ 	c #522825",
": 	c #481A18",
"< 	c #601031",
"[ 	c #8B1A4F",
"} 	c #0C070A",
"| 	c #B78771",
"1 	c #E4AE90",
"2 	c #6B5143",
"3 	c #350D2B",
"4 	c #AF2552",
"5 	c #E42B6F",
"6 	c #785A4A",
"7 	c #EBB495",
"8 	c #7D6457",
"9 	c #23131B",
"0 	c #2A1725",
"a 	c #761828",
"b 	c #942147",
"c 	c #9B223D",
"d 	c #533D37",
"e 	c #D2AF9E",
"f 	c #CFA38A",
"g 	c #C1A191",
"h 	c #271E18",
"i 	c #3D222A",
"j 	c #6D3444",
"k 	c #96725E",
"l 	c #FFC3A1",
"m 	c #48352D",
"n 	c #0E0A0D",
"o 	c #072225",
"p 	c #FBBD9B",
"q 	c #CA796A",
"r 	c #806151",
"s 	c #DB8272",
"t 	c #C6625B",
"u 	c #CE9C82",
"v 	c #838388",
"w 	c #695E59",
"x 	c #D6A387",
"y 	c #DEAA8C",
"z 	c #6B696D",
"A 	c #432B33",
"B 	c #221217",
"C 	c #544B50",
"D 	c #756B68",
"E 	c #473239",
"F 	c #42232E",
"G 	c #381E27",
"H 	c #150B13",
"I 	c #2B171C",
"J 	c #2E181F",
"K 	c #7E7E82",
"L 	c #636367",
"M 	c #3D2C2B",
"N 	c #552D3A",
"O 	c #492734",
"P 	c #592F3C",
"Q 	c #3C3034",
"R 	c #6C6C70",
"S 	c #3D2131",
"T 	c #4C2836",
"U 	c #391F2C",
"V 	c #51474C",
"W 	c #422432",
"X 	c #5B303D",
"Y 	c #331C2B",
"Z 	c #32151B",
"` 	c #2E1825",
" .	c #1E111B",
"..	c #2B1828",
"+.	c #251422",
"@.	c #512A36",
"#.	c #47181D",
"$.	c #AE253B",
"%.	c #1C0D19",
"&.	c #020907",
"*.	c #210D1A",
"=.	c #290A1B",
"-.	c #5A0E32",
";.	c #520D2E",
">.	c #A11D4A",
",.	c #B72447",
"'.	c #801B2C",
").	c #030B0B",
"!.	c #763B36",
"~.	c #101A21",
"{.	c #152329",
"].	c #1A2F3A",
"^.	c #0F1A20",
"/.	c #A76F5F",
"(.	c #35211F",
"_.	c #163A3D",
":.	c #0D5743",
"<.	c #096345",
"[.	c #7C5534",
"}.	c #C9987E",
"|.	c #4A332E",
"1.	c #005A35",
"2.	c #734F30",
"3.	c #594438",
"4.	c #004339",
"5.	c #0B1C1F",
"6.	c #AC614D",
"7.	c #F9A66B",
"8.	c #FFB06D",
"9.	c #007E4B",
"0.	c #031916",
"a.	c #492922",
"b.	c #4F3722",
"c.	c #00764B",
"d.	c #1A1319",
"e.	c #803C43",
"f.	c #C15E5D",
"g.	c #DB7663",
"h.	c #00301D",
"i.	c #A44D57",
"j.	c #E78766",
"k.	c #002A28",
"l.	c #006C4C",
"m.	c #003921",
"n.	c #00160D",
"o.	c #036B44",
"p.	c #002C1C",
"q.	c #00663D",
"r.	c #0F4F42",
"s.	c #04241A",
"t.	c #67332E",
"u.	c #055B49",
"v.	c #004E2E",
"w.	c #624A3F",
"x.	c #582D1C",
"y.	c #BE6240",
"z.	c #75422E",
"A.	c #8B3C34",
"B.	c #9E4237",
"C.	c #A24A3F",
"D.	c #A44F44",
"                                                                                                    ",
"                                                                                                    ",
"                                                                                                    ",
"                                                                                                    ",
"                                            . + @ @ # $ %                                           ",
"                                          % % % % % & * = -                                         ",
"                                        $ ; > # , ' ) # ! ~                                         ",
"                                        { ] ^ / ( * _ : < [                                         ",
"                                        } . | 1 2 ] ; : 3 4 5                                       ",
"                                        % 6 7 7 8 9 0 + a b c                                       ",
"                                        % d e f g | h ] i j                                         ",
"                                          k l l l 7 m n o                                           ",
"                                          k l l p q @ %                                             ",
"                                            r | s _                                                 ",
"                                              _ t _                                                 ",
"                                          % h u p q > %                                             ",
"                                        . v w x y w z A B }                                         ",
"                                      } 9 C D 8 D z E F B G H                                       ",
"                                    . I J B K L L M N , ( O ,                                       ",
"                                    . I , P Q R S P O 9 ( T i {                                     ",
"                                    % } U O Q V A N W 9 ( T X I                                     ",
"                                    % } Y S W I O W W 9 ( T X Z                                     ",
"                                    % } ` W B W W W S ( ( T X J                                     ",
"                                  % %  ...0 B U S Y ..( ( T X , }                                   ",
"                                  % %  . .. { ( +.....( ( T X @.H                                   ",
"                                  B +.} #.$.$.$.) .  .( ( T X T (                                   ",
"                                  B Y %.} % % . . &.. % { 0 @.T (                                   ",
"                                  9 ..( 3 { %.+.......%.( I U O ` }                                 ",
"                                  9 ..H ..{ 3 ( +.Y ..I @.P O U 0 n                                 ",
"                                % B ` H ` { 3 *.+.U ..` P P @.U +.n                                 ",
"                                9 0 H %.0 =.! -.%.S Y =.O N W ..+.}                                 ",
"                                9 U { ` ( ;.>.< *.U S ` %.i U ..+.}                                 ",
"                                  ( H 0 ( ;.,.'.*.U W Y H . +.+... ..                               ",
"                                  % G S ( % &.).H Y S U n !.> ~.` *..                               ",
"                                  % G W ( n {.].^.%.U +.^ /.(.*.H H                                 ",
"                                  % G W ( ~._.:.^.%.+.V 7 x T 9                                     ",
"                                  % G W %.~.<.<.^.( +.[.7 }.|.B                                     ",
"                                  % , S ..n 1.<.^.H M 2.3.[.!.&                                     ",
"                                  % 0 S ..{ 1.<.^.&.n / % @ @ %                                     ",
"                                  % I S ..H 4.:.5.& 6.7.8.8.8.[.%                                   ",
"                                    B Y 0 { 4.9.:.0.- * a.b.b./ .                                   ",
"                                      n ( n 4.c.:.d.e.f.g.7.8.[.H n                                 ",
"                                      0.o % 4.c.c.h.e.i.t g.j.[.% %                                 ",
"                                        k.l.9.9.9.m.0.n.n.n.n.&.                                    ",
"                                        k.l.9.9.9.9.9.9.9.9.o.p.                                    ",
"                                        ).m.c.9.9.9.9.9.9.q.p.                                      ",
"                                        . % r.c.9.9.9.9.9.q.s.                                      ",
"                                        t._ k.u.c.c.1.v.s.%                                         ",
"                                        t._ &.0.0.p.n.b.M                                           ",
"                                        t._           6 w.                                          ",
"                                      x.t x.        x.y.x.                                          ",
"                                  3.z.| p 2.    ^ z.s p 2                                           ",
"                                  A.B.B.C.A.    B.B.B.D.A.                                          "};
