/* XPM */
static char * Idle_4_xpm[] = {
"50 50 163 2",
"  	c None",
". 	c #12090D",
"+ 	c #2C1116",
"@ 	c #431C1C",
"# 	c #30110F",
"$ 	c #020102",
"% 	c #160C13",
"& 	c #3B1A22",
"* 	c #662328",
"= 	c #240C0B",
"- 	c #32151C",
"; 	c #3B1A1E",
"> 	c #4C1E24",
", 	c #501D1D",
"' 	c #651523",
") 	c #1A0B0D",
"! 	c #2B1A1B",
"~ 	c #4B382F",
"{ 	c #230C15",
"] 	c #3C0E16",
"^ 	c #8A194D",
"/ 	c #2F241E",
"( 	c #C6987D",
"_ 	c #E1AC8E",
": 	c #4D3A31",
"< 	c #5F2928",
"[ 	c #521336",
"} 	c #C3275B",
"| 	c #9D7763",
"1 	c #FFC3A1",
"2 	c #DBAD94",
"3 	c #4B4146",
"4 	c #841A38",
"5 	c #992147",
"6 	c #962037",
"7 	c #6D574B",
"8 	c #E2BAA5",
"9 	c #BC927A",
"0 	c #CBAB9B",
"a 	c #BF9883",
"b 	c #0A0406",
"c 	c #4B2935",
"d 	c #6E3142",
"e 	c #B78B73",
"f 	c #30221E",
"g 	c #120709",
"h 	c #0C272C",
"i 	c #B1876F",
"j 	c #FDC19F",
"k 	c #F8B798",
"l 	c #A76255",
"m 	c #8F6C59",
"n 	c #C78D77",
"o 	c #CC7366",
"p 	c #713833",
"q 	c #C4615A",
"r 	c #554135",
"s 	c #E6AE90",
"t 	c #7E7E82",
"u 	c #7E6558",
"v 	c #F1B898",
"w 	c #736966",
"x 	c #5C575B",
"y 	c #41242C",
"z 	c #1A0D14",
"A 	c #0C060A",
"B 	c #605B5F",
"C 	c #452932",
"D 	c #24131D",
"E 	c #331B24",
"F 	c #211115",
"G 	c #3C3034",
"H 	c #6C6C70",
"I 	c #592F3C",
"J 	c #241421",
"K 	c #29161C",
"L 	c #391F2D",
"M 	c #482734",
"N 	c #5E5E61",
"O 	c #3D212C",
"P 	c #532C39",
"Q 	c #512A36",
"R 	c #432533",
"S 	c #1B0D18",
"T 	c #1F1115",
"U 	c #120710",
"V 	c #5B303D",
"W 	c #331C2B",
"X 	c #3D2230",
"Y 	c #0F0C13",
"Z 	c #291725",
"` 	c #060808",
" .	c #1E150D",
"..	c #AF253B",
"+.	c #2D1929",
"@.	c #2E1922",
"#.	c #2D0B25",
"$.	c #741341",
"%.	c #460B26",
"&.	c #270B15",
"*.	c #A62338",
"=.	c #030D0D",
"-.	c #131119",
";.	c #593D27",
">.	c #13232A",
",.	c #1A313C",
"'.	c #0C1217",
").	c #8F504D",
"!.	c #0E3E36",
"~.	c #066B47",
"{.	c #1B101A",
"].	c #77584B",
"^.	c #00523F",
"/.	c #007849",
"(.	c #074E3D",
"_.	c #052222",
":.	c #006549",
"<.	c #007445",
"[.	c #001D11",
"}.	c #68482C",
"|.	c #5E463C",
"1.	c #8F4849",
"2.	c #342821",
"3.	c #21140E",
"4.	c #341B1A",
"5.	c #0A1A1D",
"6.	c #006746",
"7.	c #313628",
"8.	c #CD7B5A",
"9.	c #FDAC6C",
"0.	c #FFB06D",
"a.	c #03261A",
"b.	c #4E3521",
"c.	c #533A23",
"d.	c #012C2B",
"e.	c #252F25",
"f.	c #C8635E",
"g.	c #E58566",
"h.	c #A54E57",
"i.	c #D97163",
"j.	c #EC9167",
"k.	c #003230",
"l.	c #006B4E",
"m.	c #007D4B",
"n.	c #00170E",
"o.	c #005C50",
"p.	c #00462F",
"q.	c #004440",
"r.	c #004E2E",
"s.	c #7F3E3A",
"t.	c #85372F",
"u.	c #462220",
"v.	c #99745F",
"w.	c #7A3C26",
"x.	c #CE6A46",
"y.	c #452417",
"z.	c #864C35",
"A.	c #DE9675",
"B.	c #63483B",
"C.	c #752A26",
"D.	c #944138",
"E.	c #9E4438",
"F.	c #A44E43",
"                                                                                                    ",
"                                              . + + + @ # $                                         ",
"                                          $ $ $ $ $ $ % & * =                                       ",
"                                          @ @ - - ; > , + ' #                                       ",
"                                          ) ! ~ . { ; * ] * ^                                       ",
"                                          . / ( _ : { < ] [ }                                       ",
"                                          $ | 1 _ 2 3 ; = 4 5 6                                     ",
"                                          $ 7 8 9 0 a ! b c d                                       ",
"                                          $ e 1 1 1 ( f g h                                         ",
"                                          $ i j 1 k l )                                             ",
"                                            / m n o @                                               ",
"                                              $ p q f                                               ",
"                                            $ r s k l ) $                                           ",
"                                        g b t u v ( w x y z A                                       ",
"                                        . ! x w u w B C y D E                                       ",
"                                      z F & G H H x C I F J c K                                     ",
"                                      z K L M x N O P C z D P E                                     ",
"                                      $ z O C 3 3 M Q R S D Q I T                                   ",
"                                      $ U O R E E Q R R S J P V F                                   ",
"                                      $ U O W K M R X L Y J Q V z                                   ",
"                                      A J Z J J X X W Z A J Q V P z                                 ",
"                                      A J S ` % S J Z Z U J Q V P  .                                ",
"                                    $ U ` ' ......] A J U J Q V P z                                 ",
"                                  $ Z +.S A $ b b b b b $ % L P M E A                               ",
"                                  $ J J { W U S J Z Z W % { @.y c L b                               ",
"                                  $ K J S W % #.S +.W J ! P P C R J b                               ",
"                                  $ K J F W % #.S +.L J E I I Q X +.S                               ",
"                                  ! D S J W { $.%.S L Z K Q Q R +.+.%                               ",
"                                  E L z W W &.^ %.% X R J D R W +.Z %                               ",
"                                  $ S % O W &.*.' S L R W A A Z Z Z S                               ",
"                                    b O R +.A ` =.-.O R E + ;.S J Z S                               ",
"                                    b O R W Y >.,.'.J W { 7 ).T S % A                               ",
"                                    b O M W Y !.~.!.{.S ].v i O O U                                 ",
"                                    A O R W '.^./.(.'.F m v | y c z                                 ",
"                                    b O C W J _.:.<.[.}.}.|.1.< 2.E                                 ",
"                                      K y W J _.:.<.[.3. .b 4.3.z E .                               ",
"                                      T R W J 5.6.<.7.8.9.0.9.9.;.! g                               ",
"                                      . O W J 5.^.~.a.! > b.b.c.3.y E                               ",
"                                        g Z Z {.d.6.e.1.f.g.9.9.;.E K                               ",
"                                        _.5.` $ d.6.e.1.h.f.i.j.c.` `                               ",
"                                          k.l.m.m.<.d.n.n.n.[.n.n.$                                 ",
"                                          k.o./.m.m.m.m.m.m.m.m.<.a.                                ",
"                                          n.(.l./.m.m.m.m.m.m.m.p.                                  ",
"                                          $ =.q.:.m.m.m.m./.r.$                                     ",
"                                          s.; $ a.p.r.r.r.n.                                        ",
"                                          t.u.        $ |.2.                                        ",
"                                          s.u.          v.r                                         ",
"                                        w.x.y.        w.x.y.                                        ",
"                                    7 z.A.j r     B.z.A.j r                                         ",
"                                  C.D.E.F.F.t.  C.D.E.F.F.t.                                        "};
