/* XPM */
static char *result[] = {
/* columns rows colors chars-per-pixel */
"60 60 176 2 ",
"   c black",
".  c #010000",
"X  c #020101",
"o  c #020102",
"O  c #040102",
"+  c #040203",
"@  c #070303",
"#  c #010204",
"$  c #070105",
"%  c #070304",
"&  c #070405",
"*  c #070406",
"=  c #0B0401",
"-  c #090204",
";  c #090305",
":  c #0D0706",
">  c #0B0907",
",  c #0F0B06",
"<  c #080408",
"1  c #090508",
"2  c #0C0608",
"3  c #0D070A",
"4  c #0C070C",
"5  c #0E080D",
"6  c #0F080E",
"7  c #120605",
"8  c #150407",
"9  c #11090B",
"0  c #10090F",
"q  c #140B0F",
"w  c #1B0E0C",
"e  c #1F160D",
"r  c #170513",
"t  c #110A11",
"y  c #150B10",
"u  c #150C14",
"i  c #170C15",
"p  c #190D13",
"a  c #1C0F13",
"s  c #190E18",
"d  c #191015",
"f  c #1F111D",
"g  c #220D07",
"h  c #22070B",
"j  c #221014",
"k  c #201117",
"l  c #221216",
"z  c #251319",
"x  c #26141A",
"c  c #27151A",
"v  c #21121F",
"b  c #24141C",
"n  c #25141E",
"m  c #30151B",
"M  c #38161D",
"N  c #3C181F",
"B  c #2F2114",
"V  c #0F1A20",
"C  c #101F26",
"Z  c #3D0A22",
"A  c #221320",
"S  c #241422",
"D  c #261524",
"F  c #281623",
"G  c #291727",
"H  c #2A1727",
"J  c #2C1821",
"K  c #2B1828",
"L  c #2C1828",
"P  c #311A21",
"I  c #331B22",
"U  c #331B23",
"Y  c #341B23",
"T  c #371D25",
"R  c #3A1E27",
"E  c #321B2B",
"W  c #321C2B",
"Q  c #351D28",
"!  c #341D29",
"~  c #351D29",
"^  c #351D2B",
"/  c #331C2C",
"(  c #3B1F28",
")  c #3D0F34",
"_  c #002E2C",
"`  c #002F2C",
"'  c #0B2B2F",
"]  c #003720",
"[  c #00302E",
"{  c #1B323E",
"}  c #3E2129",
"|  c #3D212E",
" . c #3C202F",
".. c #3C2130",
"X. c #3E2231",
"o. c #303032",
"O. c #4C101A",
"+. c #57121D",
"@. c #42211E",
"#. c #451B22",
"$. c #461C23",
"%. c #4A1D22",
"&. c #4F1F24",
"*. c #600F36",
"=. c #462126",
"-. c #482226",
";. c #462924",
":. c #5D2E2A",
">. c #402332",
",. c #412433",
"<. c #422433",
"1. c #492736",
"2. c #4F2A35",
"3. c #4E2A37",
"4. c #502A35",
"5. c #512B39",
"6. c #522B38",
"7. c #552D39",
"8. c #542C3A",
"9. c #592F3C",
"0. c #5B303D",
"q. c #672622",
"w. c #702924",
"e. c #773B37",
"r. c #00462A",
"t. c #004E2E",
"y. c #005C3E",
"u. c #00663C",
"i. c #5E473B",
"p. c #69432E",
"a. c #004B47",
"s. c #00504D",
"d. c #006E41",
"f. c #006C4E",
"g. c #007646",
"h. c #00714D",
"j. c #007A4B",
"k. c #007E4B",
"l. c #595559",
"z. c #6F5546",
"x. c #6A666B",
"c. c #737478",
"v. c #757579",
"b. c #841B2F",
"n. c #90352F",
"m. c #85423D",
"M. c #C05337",
"N. c #AB1F5D",
"B. c #862F42",
"V. c #8C2048",
"C. c #8B4540",
"Z. c #825541",
"A. c #A44D57",
"S. c #BA5C55",
"D. c #89614E",
"F. c #856554",
"G. c #A57E68",
"H. c #C86C4A",
"J. c #D56B62",
"K. c #A78069",
"L. c #B88670",
"P. c #E69370",
"I. c #E99A76",
"U. c #FBA96B",
"Y. c #FFB06D",
"T. c #7D7D82",
"R. c #BFA9A0",
"E. c #D19F84",
"W. c #E09680",
"Q. c #DCA88A",
"!. c #EFB696",
"~. c #F6BA9A",
"^. c #FCBC9C",
"/. c #FFC3A1",
"(. c #F2CEBD",
"). c None",
/* pixels */
").).).).).).).).).).).).).).).).).).).).).).).).).).).).).).).).).).).).).).).).).).).).).).).).).).).).).).).).).).).).",
").).).).).).).).).).).).).).).).).).).).).).).).).).).).).).).).).).).).).).).).).).).).).).).).).).).).).).).).).).).).",
").).).).).).).).).).).).).).).).).).).).).).).).).).).).).).).).).).).).).).).).).).).).).).).).).).).).).).).).).).).).",
").).).).).).).).).).).).).).).).).).).).).).).).).).).).).).).).).).).).).).).).).).).).).).).).).).).).).).).).).).).).",
").).).).).).).).).).).).).).).).).).).).).).).).).).).).).).).).).).).).).).).).).).).).).).).).).).).).).).).).).).).).",
").).).).).).).).).).).).).).).).).).).).).).).).).).).).).).).).).).).).).).).).).).).).).).).).).).).).).).).).).).).).",
").).).).).).).).).).).).).).).).).).).).).).).).).).).).).).).).).).).).).).).).).).).).).).).).).).).).).).).).).).).).",
").).).).).).).).).).).).).).).).).).).).).).).).).).).).).).).).).).).).).).).).).).).).).).).).).).).).).).).).).).).).",
").).).).).).).).).).).).).).).).).).).).).).).).).).).).).).).).).).).).).).).).).).).).).).).).).).).).).).).).).).).).",
").).).).).).).).).).).).).).).).).).).).).).).).).).).).).).).).).).).).).).).).).).).).).).).).).).).).).).).).).).).).",
").).).).).).).).).).).).).).).).).).).).).).).).).).).).).).).).).).).).).).).).).).).).).).).).).).).).).).).).).).).).",
").).).).).).).).).).).).).).).).).).).).).).).).).).).).).).).).).).).).).).).).).).).).).).).).).).).).).).).).).).).).",
").).).).).).).).).).).).).).).).).).).).).).).).).).).).).).).).).).).).).).).).).).).).).).).).).).).).).).).).).).).).",
").).).).).).).).).).).).).).).).).).).).).).).).).).).).).).).).).).).).).).).).).).).).).).).).).).).).).).).).).).).).",
").).).).).).).).).).).).).).).).).).).).).).).).).).).).).).).).).).).).).).).).).).).).).).).).).).).).).).).).).).).).",
").).).).).).).).).).).).).).).).).).).).).).).).).).).).).).).).).).).).).).).).).).).).).).).).).).).).).).).).).).).).",
").).).).).).).).).).).).).).).).).).).).).).).).).).).).).).).).).).).).).).).).).).).).).).).).).).).).).).).).).).).).",
").).).).).).).).).).).).).).).).).).).).).).).).).).).).).).).).).).).).).).).).).).).).).).).).).).).).).).).).).).).).",
").).).).).).).).).).).).).).).).).).).).).).).).).).).).).).).).).).).).).).).).).).).).).).).).).).).).).).).).).).).).",
").).).).).).).).).).).).).).).).).).).).).).).).).).).).).).).).).).).).).).).).).).).).).).).).).).).).).).).).).).).).",
").).).).).).).).).).).).).).).).).).).).).).).).).).).).).).).).).).).).).).).).  N N %.O ).).).).).).).).).).).).).).).",
").).).).).).).).).).).).).).).).).).).).).).).).).).).).).).).).).).).).).).).w.M M M q.#.7 ).).).).).).).).).).).).).).",
").).).).).).).).).).).).).).).).).).).).).).).).).).).).).).).).).).).).).).).j F.& m &.$ N.).).).).).).).).).).).).).).",
").).).).).).).).).).).).).).).).).).).).).).).).).).).).).).).).).).).).).).).2 Q./.i.$.- V.).).).).).).).).).).).).).).",
").).).).).).).).).).).).).).).).).).).).).).).).).).).).).).).).).).).).).).).  R.G.(.@ % B.).).).).).).).).).).).).).).",
").).).).).).).).).).).).).).).).).).).).).).).).).).).).).).).).).).).).).).).  /./.^.; # ).).).).).).).).).).).).).).).",
").).).).).).).).).).).).).).).).).).).).).).).).).).).).).).).).).).).).).).).).K.~.m.).).).).).).).).).).).).).).).).).",
").).).).).).).).).).).).).).).).).).).).).).).).).).).).).).).).).).).).).).).).).e.m.).).).).).).).).).).).).).).).).).",
").).).).).).).).).).).).).).).).).).).).).).).).).).).).).).).).).).).).).).).  o./.L.T.(   ).).).).).).).).).).).).).).",
").).).).).).).).).).).).).).).).).).).).).).).).).).).).).).).).).).).).).).X P v.z.c.R x 6.).).).).).).).).).).).).).).",
").).).).).).).).).).).).).).).).).).).).).).).).).).).).).).).).).).).).).).7.2.x.c.T 5.o 8.a ).).).).).).).).).).).).).",
").).).).).).).).).).).).).).).).).).).).).).).).).).).).).).).).).).).).).).+ ,.x l.9.,.o 8.0.).).).).).).).).).).).).).",
").).).).).).).).).).).).).).).).).).).).).).).).).).).).).).).).).).).).).).o X.3.Y ,.>.o 8.0.).).).).).).).).).).).).).",
").).).).).).).).).).).).).).).).).).).).).).).).).).).).).).).).).).).).).).S K q <.,.K o 8.0.z ).).).).).).).).).).).).",
").).).).).).).).).).).).).).).).).).).).).).).).).).).).).).).).).).).).).  G 0 3 q G G o 8.0.c ).).).).).).).).).).).).",
").).).).).).).).).).).).).).).).).).).).).).).).).).).).).).).).).).).).).n u O.+.+.  t o  .0.Q ).).).).).).).).).).).).",
").).).).).).).).).).).).).).).).).).).).).).).).).).).).).).).).).).).).)...+ L r F G H X l 4.,.  ).).).).).).).).).).).",
").).).).).).).).).).).).).).).).).).).).).).).).).).).).).).).).).).).).  ..+ L ) i E ! 0.0.1./ < ).).).).).).).).).).).",
").).).).).).).).).).).).).).).).).).).).).).).).).).).).).).).).).).).).l 1 * L *.Z E ~ 7.0.,.G s ).).).).).).).).).).).",
").).).).).).).).).).).).).).).).).).).).).).).).).).).).).).).).).).).).l v ,.L b.Z E >.A | W G s ).).).).).).).).).).).",
").).).).).).).).).).).).).).).).).).).).).).).).).).).).).).).).).).).).).y ,.L h 8 E ,.D C.f G s ).).).).).).).).).).).",
").).).).).).).).).).).).).).).).).).).).).).).).).).).).).).).).).).).).).9 ,.L V { 6 X.d W.p t 5 ).).).).).).).).).).).",
").).).).).).).).).).).).).).).).).).).).).).).).).).).).).).).).).).).).).9 ,.L ' k.C v /./.} k ).).).).).).).).).).).).",
").).).).).).).).).).).).).).).).).).).).).).).).).).).).).).).).).).).).).9 ,.L 4 f.t.B > ;.@.Y ).).).).).).).).).).).).",
").).).).).).).).).).).).).).).).).).).).).).).).).).).).).).).).).).).).).).9.L 4 f.t.: , , , I   ).).).).).).).).).).).",
").).).).).).).).).).).).).).).).).).).).).).).).).).).).).).).).).).).).).).9.L 4 f.t.w e e e I U ).).).).).).).).).).).",
").).).).).).).).).).).).).).).).).).).).).).).).).).).).).).).).).).).).).).. ^ G [ t.A.J.U.Y.b J ).).).).).).).).).).).",
").).).).).).).).).).).).).).).).).).).).).).).).).).).).).).).).).).).).).).).` r.y.t.=.-.:.p.  ).).).).).).).).).).).).",
").).).).).).).).).).).).).).).).).).).).).).).).).).).).).).).).).).).).).).).a.h.k.k.k.k.k.k.] ).).).).).).).).).).).).",
").).).).).).).).).).).).).).).).).).).).).).).).).).).).).).).).).).).).).).).  s.j.k.k.k.k.u.).).).).).).).).).).).).).",
").).).).).).).).).).).).).).).).).).).).).).).).).).).).).).).).).).).).).).).S.  _ g.g.d.  ).).).).).).).).).).).).).).",
").).).).).).).).).).).).).).).).).).).).).).).).).).).).).).).).).).).).).).).S.).).).).E.).).).).).).).).).).).).).).).",
").).).).).).).).).).).).).).).).).).).).).).).).).).).).).).).).).).).).).).= M.).).).g H.).).).).).).).).).).).).).).).",
").).).).).).).).).).).).).).).).).).).).).).).).).).).).).).).).).).).).).D.P./.).).Z.I.!.).).).).).).).).).).).).).).).",
").).).).).).).).).).).).).).).).).).).).).).).).).).).).).).).).).).).).).n.n.n.).).n.n.n.).).).).).).).).).).).).).).).",
").).).).).).).).).).).).).).).).).).).).).).).).).).).).).).).).).).).).).).).).).).).).).).).).).).).).).).).).).).).).",
").).).).).).).).).).).).).).).).).).).).).).).).).).).).).).).).).).).).).).).).).).).).).).).).).).).).).).).).).).).).",
").).).).).).).).).).).).).).).).).).).).).).).).).).).).).).).).).).).).).).).).).).).).).).).).).).).).).).).).).).).).",
").).).).).).).).).).).).).).).).).).).).).).).).).).).).).).).).).).).).).).).).).).).).).).).).).).).).).).).).).).).).",
").).).).).).).).).).).).).).).).).).).).).).).).).).).).).).).).).).).).).).).).).).).).).).).).).).).).).).).).).).).)."
};
