/* XPM */
static char * Idle_2_xpm[] = {
"50 50 163 2",
"  	c None",
". 	c #020102",
"+ 	c #1A0E13",
"@ 	c #310D13",
"# 	c #2B1315",
"$ 	c #4B1B1B",
"% 	c #230C0A",
"& 	c #220B15",
"* 	c #542527",
"= 	c #501D1B",
"- 	c #3C1B1C",
"; 	c #34141A",
"> 	c #5A1A26",
", 	c #3F2D27",
"' 	c #43322A",
") 	c #0F080C",
"! 	c #6E2929",
"~ 	c #40141C",
"{ 	c #791747",
"] 	c #140A0C",
"^ 	c #5C453A",
"/ 	c #DCA88B",
"( 	c #CE9E83",
"_ 	c #73193F",
": 	c #D32963",
"< 	c #1E1117",
"[ 	c #BB927C",
"} 	c #EFC2AA",
"| 	c #D5A386",
"1 	c #58453B",
"2 	c #221215",
"3 	c #861A3D",
"4 	c #9F2247",
"5 	c #16110E",
"6 	c #967664",
"7 	c #B18A73",
"8 	c #BB9D8E",
"9 	c #2B151A",
"0 	c #562D3A",
"a 	c #362A23",
"b 	c #FEC3A1",
"c 	c #8F6D5A",
"d 	c #1B0B0E",
"e 	c #0F2C32",
"f 	c #EFA88D",
"g 	c #7D5E4D",
"h 	c #D2907A",
"i 	c #AA5556",
"j 	c #964137",
"k 	c #9D504A",
"l 	c #F7BC9B",
"m 	c #EFA886",
"n 	c #7A443D",
"o 	c #262525",
"p 	c #6E6E72",
"q 	c #F9BD9C",
"r 	c #AE8873",
"s 	c #787476",
"t 	c #524A4E",
"u 	c #3A1C24",
"v 	c #37252B",
"w 	c #656165",
"x 	c #756A66",
"y 	c #7E6253",
"z 	c #534C51",
"A 	c #422432",
"B 	c #331B25",
"C 	c #24131B",
"D 	c #271A19",
"E 	c #5E5E61",
"F 	c #4F2A38",
"G 	c #592F3C",
"H 	c #331B2A",
"I 	c #4C2935",
"J 	c #42232C",
"K 	c #3D2131",
"L 	c #1B0F19",
"M 	c #4C1E24",
"N 	c #4A3C3C",
"O 	c #492734",
"P 	c #140B13",
"Q 	c #3D212E",
"R 	c #391F2C",
"S 	c #0B0D11",
"T 	c #291725",
"U 	c #241421",
"V 	c #2E1929",
"W 	c #0C060A",
"X 	c #090406",
"Y 	c #AF253B",
"Z 	c #A22237",
"` 	c #2C0A11",
" .	c #160713",
"..	c #240B1E",
"+.	c #270B20",
"@.	c #2B0922",
"#.	c #4E0E2D",
"$.	c #85154B",
"%.	c #30081C",
"&.	c #9B1B4B",
"*.	c #C22845",
"=.	c #430F19",
"-.	c #040B0B",
";.	c #5A2D29",
">.	c #18161D",
",.	c #172A34",
"'.	c #0F1017",
").	c #2E1923",
"!.	c #926A59",
"~.	c #68453B",
"{.	c #085743",
"].	c #11413B",
"^.	c #0D3731",
"/.	c #00754B",
"(.	c #0F463C",
"_.	c #AE846B",
":.	c #EEB696",
"<.	c #062F20",
"[.	c #007646",
"}.	c #966740",
"|.	c #5D422C",
"1.	c #664435",
"2.	c #45231F",
"3.	c #351A13",
"4.	c #062122",
"5.	c #006449",
"6.	c #E88F65",
"7.	c #FFB06D",
"8.	c #EBA264",
"9.	c #3C291A",
"0.	c #462B29",
"a.	c #4E3522",
"b.	c #49321F",
"c.	c #007D4B",
"d.	c #CF6960",
"e.	c #EC9167",
"f.	c #FDAD6C",
"g.	c #002C2A",
"h.	c #011615",
"i.	c #011E1D",
"j.	c #015634",
"k.	c #9E4A54",
"l.	c #D97263",
"m.	c #DE8D60",
"n.	c #00433B",
"o.	c #00663E",
"p.	c #002316",
"q.	c #00170E",
"r.	c #004E2F",
"s.	c #00221E",
"t.	c #003B23",
"u.	c #773B36",
"v.	c #004227",
"w.	c #230E07",
"x.	c #90482E",
"y.	c #B15B3C",
"z.	c #9B583E",
"A.	c #3F3028",
"B.	c #7A2E28",
"C.	c #9F453A",
"D.	c #A44F43",
"E.	c #9D493F",
"F.	c #80332D",
"                                                                                                    ",
"                                            . + @ # # $ %                                           ",
"                                          . . . . . . & * =                                         ",
"                                        . $ - ; ; - > $ ; >                                         ",
"                                        . + , ' ) # - ! ~ {                                         ",
"                                        . ] ^ / ( , # ! ; _ :                                       ",
"                                        . < [ } | 1 2 - @ 3 4                                       ",
"                                          5 6 } 7 8 ^ 9 2 0                                         ",
"                                          a | b b b c d ) e                                         ",
"                                          a ( b b f g . .                                           ",
"                                            1 6 h i #                                               ",
"                                              . j k #                                               ",
"                                            . g l m n . .                                           ",
"                                        ] o p 6 q r s t u ] )                                       ",
"                                        + v w x y x z A B B C                                       ",
"                                      D < B E E p t F G 2 H I +                                     ",
"                                      C 2 J H s z A 0 K L B 0 #                                     ",
"                                      . C A M z N O O A P B 0 0 +                                   ",
"                                      . L Q I 9 R I A A + B G 0 +                                   ",
"                                      . P R C B O A A H ) H 0 0 +                                   ",
"                                    . S T T U T K K H V ) H 0 0 C                                   ",
"                                    . P T P W L L U T T ) H 0 G B )                                 ",
"                                  X C L . 3 Y Y Z ` P T S H 0 G H W                                 ",
"                                  X T T P X . . X X X X X L J 0 R )                                 ",
"                                  X T L C T  ...C T T V P # 9 I K L                                 ",
"                                  . T L 9 T +.+.L V R 2 v 0 F A H L                                 ",
"                                . X T L C T +.@.L V M L Q G G O V P                                 ",
"                                . B 2 P T ..#.$.%.T K L B 0 F R T L                                 ",
"                                . u T 2 H & _ &.%.C K K U T A H T P                                 ",
"                                  X P 2 H L 3 *.=.T K A T X L T T T ]                               ",
"                                    + A H W -.-.-.U R A T * ;. .U T ]                               ",
"                                    + A H  .>.,.,.'.).v B !.~.L L P W                               ",
"                                    + J H S e {.].'.T P 6 q g B +                                   ",
"                                    + A H P ^./.(.S U 2 _.:.g u P                                   ",
"                                    + R H U <.[.(.'.P }.|.1.k 2..                                   ",
"                                    ] R H U <.[.(.S . 3.5 ] - ] .                                   ",
"                                    ] R H U 4.5.(.-.;.6.7.7.7.8.9..                                 ",
"                                    ] T H U 4.5./.^.P - 0.a.a.b.5 X                                 ",
"                                      ) ] L 4.5.c.^.J i d.e.f.8.' P                                 ",
"                                        g.h.i.5.c.j.0.k.i d.l.m.9..                                 ",
"                                        . n.c.c.c.o.p.q.q.q.q.q..                                   ",
"                                        . n.c.c.c.c.c.c.c.c.c.r.                                    ",
"                                        . h.{.c.c.c.c.c.c.c.r.                                      ",
"                                        . X s.5.c.c.c.c.c.[.t.                                      ",
"                                        . u.o n.5./.o.j.v.-.                                        ",
"                                        . u.# h.s.s.p.. ^ D                                         ",
"                                        . u.3.        . c ,                                         ",
"                                      w.x.y.3.      w.x.y.3.                                        ",
"                                    1.z.m | A.    1.z.m | A.                                        ",
"                                  B.j C.D.E.F.  B.j C.D.D.F.                                        "};
