/* XPM */
static char *_5eb5950daa14e788fc26e36037dd30asakejBFtRJO8JJDf[] = {
/* columns rows colors chars-per-pixel */
"60 60 191 2 ",
"   c None",
".  c black",
"X  c #020101",
"o  c #020102",
"O  c #030103",
"+  c #030202",
"@  c #040202",
"#  c #040203",
"$  c #050303",
"%  c #060402",
"&  c #050204",
"*  c #070405",
"=  c #070407",
"-  c #080302",
";  c #0B0406",
":  c #0A0607",
">  c #0B0607",
",  c #0D0607",
"<  c #0D0905",
"1  c #0F0B06",
"2  c #090508",
"3  c #0C0609",
"4  c #0E070A",
"5  c #0E070B",
"6  c #0C070C",
"7  c #000A0A",
"8  c #000B0A",
"9  c #0F0C0A",
"0  c #0E080D",
"q  c #0F080E",
"w  c #11080A",
"e  c #13090B",
"r  c #10090F",
"t  c #170A0D",
"y  c #140B0F",
"u  c #1A0E09",
"i  c #1F160D",
"p  c #110A11",
"a  c #1E0E10",
"s  c #1C0F13",
"d  c #1A0E14",
"f  c #190D16",
"g  c #1D0F14",
"h  c #1C0F18",
"j  c #0D1911",
"k  c #1B1511",
"l  c #1F1814",
"z  c #1D101C",
"x  c #210D11",
"c  c #320A11",
"v  c #360B12",
"b  c #221217",
"n  c #201118",
"m  c #27151A",
"M  c #25101E",
"N  c #26151D",
"B  c #28151B",
"V  c #28161F",
"C  c #2C171E",
"Z  c #281F19",
"A  c #3E1B12",
"S  c #38161D",
"D  c #3C181F",
"F  c #381C1D",
"G  c #302114",
"H  c #101F26",
"J  c #131B2B",
"K  c #270A21",
"L  c #231422",
"P  c #241422",
"I  c #261524",
"U  c #271625",
"Y  c #281626",
"T  c #291727",
"R  c #2A1727",
"E  c #2D1929",
"W  c #2E1A28",
"Q  c #2E1A29",
"!  c #311A21",
"~  c #331B22",
"^  c #331B23",
"/  c #311B2A",
"(  c #331C2C",
")  c #381F2C",
"_  c #391F2D",
"`  c #002221",
"'  c #002E2C",
"]  c #003720",
"[  c #00302D",
"{  c #00302E",
"}  c #003F2B",
"|  c #172A35",
" . c #192D37",
".. c #3A202F",
"X. c #3B202F",
"o. c #3C212F",
"O. c #3C2130",
"+. c #3D2131",
"@. c #3F2332",
"#. c #451B1F",
"$. c #57121D",
"%. c #42211E",
"&. c #75331C",
"*. c #7A321A",
"=. c #401A22",
"-. c #4D1E21",
";. c #462126",
":. c #44242E",
">. c #5C2325",
",. c #5A2C2A",
"<. c #5D2E2A",
"1. c #413229",
"2. c #493029",
"3. c #49392D",
"4. c #412433",
"5. c #422433",
"6. c #442534",
"7. c #4A2732",
"8. c #492736",
"9. c #4C2835",
"0. c #4C2937",
"q. c #4F2A38",
"w. c #522B37",
"e. c #502B38",
"r. c #512B38",
"t. c #522B39",
"y. c #522C39",
"u. c #542C38",
"i. c #572E3A",
"p. c #592F3C",
"a. c #5A2F3C",
"s. c #4F3C32",
"d. c #523736",
"f. c #5B303D",
"g. c #584237",
"h. c #6F4D2F",
"j. c #6E184D",
"k. c #6D3340",
"l. c #004F40",
"z. c #0A5148",
"x. c #005652",
"c. c #0A6146",
"v. c #096346",
"b. c #006D41",
"n. c #076248",
"m. c #00644F",
"M. c #00684C",
"N. c #00684E",
"B. c #006C4E",
"V. c #007646",
"C. c #007B4B",
"Z. c #007D4A",
"A. c #007E4B",
"S. c #534C50",
"D. c #595559",
"F. c #664D40",
"G. c #7F6151",
"H. c #74645D",
"J. c #645E63",
"K. c #6D6A6F",
"L. c #756760",
"P. c #6C6C70",
"I. c #74767A",
"U. c #851D3E",
"Y. c #843F27",
"T. c #8B3A20",
"R. c #82302B",
"E. c #87312C",
"W. c #86312D",
"Q. c #90352F",
"!. c #8C174F",
"~. c #A31E4A",
"^. c #C02756",
"/. c #A3514B",
"(. c #B1545A",
"). c #8F6D5A",
"_. c #947D72",
"`. c #A77F69",
"'. c #D56A62",
"]. c #DE7964",
"[. c #AF866E",
"{. c #C89079",
"}. c #EFA566",
"|. c #FFB06D",
" X c #CF9E82",
".X c #ED9E86",
"XX c #D5A386",
"oX c #EFB696",
"OX c #FBBC9A",
"+X c #FFC3A1",
"@X c #F6CBB4",
/* pixels */
"                                                                                                                        ",
"                                                                                                                        ",
"                                                                                                                        ",
"                                                                                                                        ",
"                                                                                                                        ",
"                                                                                                                        ",
"                                                                                                                        ",
"                                                                                                                        ",
"                                                                                                                        ",
"                                                                                                                        ",
"                                                                                                                        ",
"                                                                                                                        ",
"                                                                                                                        ",
"                                                                                                                        ",
"                                                                                                                        ",
"                                                                                                                        ",
"                                                                                                                        ",
"                                                                                                                        ",
"                                                                                                                        ",
"                                                                                                                        ",
"                                                                                o x D D R.-                             ",
"                                                                              o -.S S #.: W.                            ",
"                                                                              o w g.w =.W.j.                            ",
"                                                                              o F.+XXXy >.U.^.                          ",
"                                                                                1.@X_. XD k.  J                         ",
"                                                                                [.+X+X{.o |                             ",
"                                                                                o oX.Xo   o                             ",
"                                                                                  o '.o                                 ",
"                                                                              o I.).+Xd.o :                             ",
"                                                                              b S.L.H.D.u.d a                           ",
"                                                                            # : ! P.J.a.0.L f.                          ",
"                                                                            o _ q.K.C r.o.L f.m                         ",
"                                                                            o L 4.B r.4...L f.m                         ",
"                                                                            o T ..N 4.+.I L f.u.o                       ",
"                                                                            o T # y h T I L f.f.o                       ",
"                                                                          2 I o $.$.v o r L r.y.d                       ",
"                                                                          3 I _ 6 M T T W g ! 0.V                       ",
"                                                                          3 I _ 6 K T 4.# f.f.4.z                       ",
"                                                                          7.P _ 6 !.q 4.* a.8.( T o                     ",
"                                                                          r.# 4.6 ~.q 4.+.3 4.T T o                     ",
"                                                                            :.4.6 c q 4.+.& F T T o                     ",
"                                                                            a.4.6  .H W / G.2.n p                       ",
"                                                                            a.4.6 n.z.* 9 +Xs.m                         ",
"                                                                            a.4.6 B.c.o }.`./.! o                       ",
"                                                                            # 6.q M.c.o 1 1 1 % o                       ",
"                                                                            # 6.T { A.# i i i 1 !                       ",
"                                                                              3 W { A.a (.].|.h.w.o                     ",
"                                                                              ` } l.A., ;.,.<.G                         ",
"                                                                              o x.A.A.A.A.A.A.]                         ",
"                                                                              o { M.A.A.A.A.b.                          ",
"                                                                              o %.' m.C.A.V.                            ",
"                                                                              o %.  8 8 j k                             ",
"                                                                              *.A       T.u                             ",
"                                                                          Z &.OXs.  3.Y.+Xl                             ",
"                                                                          Q.Q.Q.Q.  Q.Q.Q.Q.                            ",
"                                                                                                                        ",
"                                                                                                                        ",
"                                                                                                                        ",
"                                                                                                                        ",
"                                                                                                                        "
};
