/* XPM */
static char * Idle_7_xpm[] = {
"50 50 163 2",
"  	c None",
". 	c #12090D",
"+ 	c #2C1116",
"@ 	c #431C1C",
"# 	c #30110F",
"$ 	c #020101",
"% 	c #1A0D14",
"& 	c #3D1921",
"* 	c #662328",
"= 	c #240C0B",
"- 	c #32151C",
"; 	c #3B1A1E",
"> 	c #4C1E24",
", 	c #501D1D",
"' 	c #651523",
") 	c #1A0B0D",
"! 	c #2C191C",
"~ 	c #4B382F",
"{ 	c #230C15",
"] 	c #5F2928",
"^ 	c #3C0E16",
"/ 	c #8A194D",
"( 	c #31241F",
"_ 	c #C6987D",
": 	c #E1AC8E",
"< 	c #4D3A31",
"[ 	c #521336",
"} 	c #C3275B",
"| 	c #9D7763",
"1 	c #F4BFA2",
"2 	c #E6AE90",
"3 	c #DBAD94",
"4 	c #5D5A46",
"5 	c #841A38",
"6 	c #992147",
"7 	c #962037",
"8 	c #6D574B",
"9 	c #E2BAA5",
"0 	c #BC927A",
"a 	c #CBAB9B",
"b 	c #BF9883",
"c 	c #331B24",
"d 	c #4B2935",
"e 	c #6E3142",
"f 	c #B78B73",
"g 	c #FFC3A1",
"h 	c #241916",
"i 	c #0C272C",
"j 	c #B1876F",
"k 	c #FDC19F",
"l 	c #F8B798",
"m 	c #A76255",
"n 	c #2F241E",
"o 	c #8F6C59",
"p 	c #C78D77",
"q 	c #CC7366",
"r 	c #713833",
"s 	c #C4615A",
"t 	c #554135",
"u 	c #090406",
"v 	c #7E7E82",
"w 	c #7E6558",
"x 	c #F1B898",
"y 	c #736966",
"z 	c #5C575B",
"A 	c #42242D",
"B 	c #0C060A",
"C 	c #29161C",
"D 	c #3D212C",
"E 	c #24141D",
"F 	c #2E1922",
"G 	c #221116",
"H 	c #3C3034",
"I 	c #6C6C70",
"J 	c #3D2230",
"K 	c #5B303D",
"L 	c #241421",
"M 	c #391F2C",
"N 	c #482734",
"O 	c #5E5E61",
"P 	c #532C39",
"Q 	c #432533",
"R 	c #1F1015",
"S 	c #4C3D43",
"T 	c #4B4146",
"U 	c #160C14",
"V 	c #331C2B",
"W 	c #592F3C",
"X 	c #291725",
"Y 	c #120710",
"Z 	c #1B0D19",
"` 	c #060808",
" .	c #0E0D14",
"..	c #AF253B",
"+.	c #2D1929",
"@.	c #2D0B25",
"#.	c #351A19",
"$.	c #452932",
"%.	c #741341",
"&.	c #460B26",
"*.	c #270B15",
"=.	c #1B101A",
"-.	c #A62338",
";.	c #040C0D",
">.	c #563B24",
",.	c #13232A",
"'.	c #1A313C",
").	c #0B1317",
"!.	c #8F504D",
"~.	c #0E3837",
"{.	c #065A4A",
"].	c #131119",
"^.	c #77584B",
"/.	c #005541",
"(.	c #007D4B",
"_.	c #0F463C",
":.	c #99745F",
"<.	c #68482C",
"[.	c #5F463C",
"}.	c #392121",
"|.	c #21140E",
"1.	c #1E150D",
"2.	c #021F1E",
"3.	c #006449",
"4.	c #007445",
"5.	c #313628",
"6.	c #CD7B5A",
"7.	c #FDAC6C",
"8.	c #FFB06D",
"9.	c #052222",
"0.	c #4E3521",
"a.	c #252F25",
"b.	c #8F4849",
"c.	c #C8635E",
"d.	c #E58566",
"e.	c #A54E57",
"f.	c #D97163",
"g.	c #EC9167",
"h.	c #003230",
"i.	c #006A4D",
"j.	c #00734C",
"k.	c #002D1B",
"l.	c #00160E",
"m.	c #005C50",
"n.	c #004E2F",
"o.	c #004441",
"p.	c #7F3E3A",
"q.	c #001716",
"r.	c #00623A",
"s.	c #004227",
"t.	c #85372F",
"u.	c #462220",
"v.	c #00221E",
"w.	c #7A3C26",
"x.	c #CE6A46",
"y.	c #452417",
"z.	c #864C35",
"A.	c #DE9675",
"B.	c #63483B",
"C.	c #752A26",
"D.	c #944138",
"E.	c #9E4438",
"F.	c #A44E43",
"                                                                                                    ",
"                                              . + + + @ # $                                         ",
"                                          $ $ $ $ $ $ % & * =                                       ",
"                                          @ @ - - ; > , + ' +                                       ",
"                                          ) ! ~ . { ; ] ^ * /                                       ",
"                                          . ( _ : < { * ^ [ }                                       ",
"                                          $ | 1 2 3 4 ^ ) 5 6 7                                     ",
"                                          $ 8 9 0 a b c ) d e                                       ",
"                                          $ f g g g _ h $ i                                         ",
"                                          $ j k g l m ) $                                           ",
"                                            n o p q @                                               ",
"                                              $ r s (                                               ",
"                                            $ t 2 l m ) $                                           ",
"                                        . u v w x _ y z A % B                                       ",
"                                        ) C z y o y z d D E F                                       ",
"                                      % G c H I I z J K E L d C                                     ",
"                                      ) E M N z O M P Q R E d c                                     ",
"                                      $ R Q A S T N d Q % E P K R                                   ",
"                                      $ U M Q c c d Q Q U L P K R                                   ",
"                                      $ . V M C N Q Q V U E P W R                                   ",
"                                      B L X L C J J V X Y E P K P %                                 ",
"                                      B L Z ` U Z L X X  .L P K P )                                 ",
"                                    $ Y u ' ......^ Y L U E P K P %                                 ",
"                                  $ X +.Z B $ $ u u u ` $ U V P N c B                               ",
"                                  $ L L Z +.Y Z L X X +.U { @.A d c .                               ",
"                                  $ L L { V Z @.Z +.V L #.P P $.Q L B                               ",
"                                  $ L E E V U @.Z +.J L c S W d J +.%                               ",
"                                  #.C U C V Z %.&.Z M X E P d Q +.X Z                               ",
"                                  c V U D +.*./ &.{ J J L E > M +.X Z                               ",
"                                  $ =.% D +.+ -., { J Q V B Y L X X U                               ",
"                                    B M Q V u ` ;.Z V Q V + >.Z L +.U                               ",
"                                    u A Q V  .,.'.).L M G 8 !.E =.U B                               ",
"                                    u M Q V  .~.{.~.].U ^.x j D R                                   ",
"                                    u A Q V )./.(._.].G o x :.A E                                   ",
"                                    u A Q V )./.(._.;.<.<.[.!.] }.%                                 ",
"                                      + Q V )./.(._.;.|.1.u #.1.. u                                 ",
"                                      % Q V L 2.3.4.5.6.7.8.8.8.>.$                                 ",
"                                      ) M V C 9.3.4.2.+ > 0.>.0.1.F .                               ",
"                                        . L L 9.3.4.a.b.c.d.7.8.>.D C                               ",
"                                        9.9.$ 2.3.4.a.b.e.c.f.g.>.u u                               ",
"                                          h.i.i.j.4.k.l.l.l.l.l.$                                   ",
"                                          h.m.(.(.(.(.(.(.(.(.(.k.                                  ",
"                                          ;._.i.(.(.(.(.(.(.(.n.                                    ",
"                                          $ l.o.i.(.(.(.(.(.n.                                      ",
"                                          p.; q.o.i.j.(.r.s.l.                                      ",
"                                          t.u.  q.v.v.k.4 (                                         ",
"                                          t.A           :.t                                         ",
"                                        w.x.y.        w.x.y.                                        ",
"                                    4 z.A.k t     B.z.A.k t                                         ",
"                                  C.D.E.F.F.t.  C.D.E.F.F.t.                                        "};
