/* XPM */
static char * Idle_8_xpm[] = {
"50 50 170 2",
"  	c None",
". 	c #020102",
"+ 	c #1B0B0E",
"@ 	c #2B1316",
"# 	c #4B1B1B",
"$ 	c #230C0A",
"% 	c #290D12",
"& 	c #4C1E24",
"* 	c #501D1B",
"= 	c #3B1B1D",
"- 	c #34141A",
"; 	c #562727",
"> 	c #40141C",
", 	c #5A1A26",
"' 	c #3F2D27",
") 	c #452F2D",
"! 	c #0F0809",
"~ 	c #6E2929",
"{ 	c #791747",
"] 	c #120A0C",
"^ 	c #594439",
"/ 	c #DCA88B",
"( 	c #CE9E83",
"_ 	c #310D13",
": 	c #73193F",
"< 	c #D32963",
"[ 	c #231815",
"} 	c #B18A73",
"| 	c #EFC2AA",
"1 	c #E2AD90",
"2 	c #BF9882",
"3 	c #46312C",
"4 	c #3A1C24",
"5 	c #871D3A",
"6 	c #9F2247",
"7 	c #151814",
"8 	c #AE846B",
"9 	c #D8B3A1",
"0 	c #8F705F",
"a 	c #2A151B",
"b 	c #231315",
"c 	c #592F3C",
"d 	c #362A23",
"e 	c #D6A387",
"f 	c #FEC3A1",
"g 	c #8F6D5A",
"h 	c #06090B",
"i 	c #0F2C32",
"j 	c #D2907A",
"k 	c #EEB696",
"l 	c #7A443D",
"m 	c #AA5556",
"n 	c #964137",
"o 	c #9D504A",
"p 	c #7D5E4D",
"q 	c #F7BC9B",
"r 	c #EFA886",
"s 	c #292628",
"t 	c #6E6E72",
"u 	c #967664",
"v 	c #F9BD9C",
"w 	c #AE8873",
"x 	c #787476",
"y 	c #524A4E",
"z 	c #1B0E13",
"A 	c #37252B",
"B 	c #656165",
"C 	c #756A66",
"D 	c #7E6253",
"E 	c #534C51",
"F 	c #4C2935",
"G 	c #2E1923",
"H 	c #24131B",
"I 	c #331B25",
"J 	c #5D565B",
"K 	c #5E5E61",
"L 	c #5B303D",
"M 	c #1D1215",
"N 	c #331B2B",
"O 	c #3C212D",
"P 	c #44232D",
"Q 	c #4F2A38",
"R 	c #3E2231",
"S 	c #562D3A",
"T 	c #47393F",
"U 	c #492735",
"V 	c #422433",
"W 	c #140B13",
"X 	c #1B0F19",
"Y 	c #391F2C",
"Z 	c #2D181E",
"` 	c #291725",
" .	c #090406",
"..	c #251421",
"+.	c #2E1929",
"@.	c #7F1B2B",
"#.	c #AF253B",
"$.	c #A22237",
"%.	c #160713",
"&.	c #270B20",
"*.	c #1C121C",
"=.	c #2B0922",
"-.	c #370B21",
";.	c #821549",
">.	c #30081C",
",.	c #440F1C",
"'.	c #911A46",
").	c #240B1E",
"!.	c #4C121D",
"~.	c #B8273F",
"{.	c #080C10",
"].	c #0F1016",
"^.	c #172B35",
"/.	c #926A59",
"(.	c #68453B",
"_.	c #0A1619",
":.	c #065649",
"<.	c #0E282E",
"[.	c #00644A",
"}.	c #007D4B",
"|.	c #0D3731",
"1.	c #062122",
"2.	c #95673F",
"3.	c #5D422C",
"4.	c #664435",
"5.	c #4C2524",
"6.	c #007445",
"7.	c #2E2013",
"8.	c #012C2B",
"9.	c #00724C",
"0.	c #00613A",
"a.	c #5B3C32",
"b.	c #E88F65",
"c.	c #FFB06D",
"d.	c #EBA264",
"e.	c #3D2A1A",
"f.	c #005B36",
"g.	c #4E3522",
"h.	c #49321F",
"i.	c #006D4D",
"j.	c #CF6960",
"k.	c #EC9167",
"l.	c #503427",
"m.	c #9E4A54",
"n.	c #D97263",
"o.	c #DE8D60",
"p.	c #0B0609",
"q.	c #07483C",
"r.	c #00231E",
"s.	c #00170E",
"t.	c #003D3A",
"u.	c #002516",
"v.	c #011C1B",
"w.	c #004D4A",
"x.	c #003E24",
"y.	c #773B36",
"z.	c #00321E",
"A.	c #351A14",
"B.	c #002E1C",
"C.	c #595140",
"D.	c #3F3028",
"E.	c #230E07",
"F.	c #90482E",
"G.	c #B15B3C",
"H.	c #9B583E",
"I.	c #7A2E28",
"J.	c #9F453A",
"K.	c #A44F43",
"L.	c #9D493F",
"M.	c #80332D",
"                                                                                                    ",
"                                          . + @ @ @ # $                                             ",
"                                        . . . . . . % & *                                           ",
"                                      . # = - - = ; > = ,                                           ",
"                                      . + ' ) ! @ & ~ = {                                           ",
"                                      . ] ^ / ( ' @ ~ _ : <                                         ",
"                                        [ } | 1 2 3 4 _ 5 6                                         ",
"                                        7 8 | } 9 0 a b c                                           ",
"                                        d e f f f g ! h i                                           ",
"                                        d j f f k l . .                                             ",
"                                          ^ 0 j m @                                                 ",
"                                            . n o @                                                 ",
"                                          . p q r l . .                                             ",
"                                      ] s t u v w x y 4 + !                                         ",
"                                      z A B C D C E F 4 G H                                         ",
"                                    a + I J K t y F L M N F b                                       ",
"                                    H a O 4 x y P Q R M I S a                                       ",
"                                    . H P P E T U F V W N S S z                                     ",
"                                    . X O U H Y F R V W N S S +                                     ",
"                                    . W O Z I U V V N W I S Q z                                     ",
"                                    W ` ` H ` R R N ` ! N S L P ]                                   ",
"                                  . W ` W  .X X ..` +.W N c L P ]                                   ",
"                                   .W . @.#.#.$.% W ` W N S L P ]                                   ",
"                                 .` ` W  ..  . . . . .. X R S U ..                                  ",
"                                 .Z z H ` %.X ..` ` +.+ a Z U U H                                   ",
"                                 .` X a ` &.&.X +.A *.4 S Q V R X                                   ",
"                              .  ...X H ` &.=.X +.R X O L c U Y +.]                                 ",
"                              . 4 H W G ` -.;.>.H R H G S F V +.` ]                                 ",
"                              . 4 ` M V ` ,.'.=...R R ).G V N +.` W                                 ",
"                                 .W H R ` !.~.,.&.R V `  .X ` ` ` ]                                 ",
"                                  z V R Z  .h {.*.A R ` ; ; W ` +.W                                 ",
"                                  z V V ` ].^.^.].I O G /.(.M X W  .                                ",
"                                  + V V ` _.:.:.<.*.W u v p I W                                     ",
"                                  M P V ` _.[.}.|.W M 8 k p 4 M                                     ",
"                                  z V V ` 1.[.}.|.h 2.3.4.o 5.Z ]                                   ",
"                                    I V ` 1.[.6.|.. 7.] ] = + !  .                                  ",
"                                    Z F +.*.8.9.0.a.b.c.c.c.d.e..                                   ",
"                                    b O +.X <.9.f.7 = 5.g.h.h.[ a                                   ",
"                                      ] G X 8.i.0.) m j.k.c.d.l.O M                                 ",
"                                      8._. .8.9.f.) m.m j.n.o.e.p.                                  ",
"                                      . q.9.i.}.0.r.s.s.s.s.s..                                     ",
"                                      . t.[.}.}.}.}.}.}.}.}.6.u.                                    ",
"                                      . v.w.9.}.}.}.}.}.}.}.q.                                      ",
"                                      . . v.w.i.}.}.}.}.}.x.                                        ",
"                                      . y.b v.w.i.}.}.f.z.                                          ",
"                                      . y.A.  v.r.r.B.C.[                                           ",
"                                      . y.A.        . g D.                                          ",
"                                    E.F.G.A.      E.F.G.A.                                          ",
"                                  4.H.r e D.    4.H.r e D.                                          ",
"                                I.n J.K.L.M.  I.n J.K.L.M.                                          "};
