/* XPM */
static char *result[] = {
/* columns rows colors chars-per-pixel */
"60 60 180 2 ",
"   c black",
".  c #020102",
"X  c #040102",
"o  c #050303",
"O  c #040204",
"+  c #050204",
"@  c #060305",
"#  c #070405",
"$  c #070406",
"%  c #070407",
"&  c #0B0401",
"*  c #080304",
"=  c #080406",
"-  c #090506",
";  c #080407",
":  c #0A0507",
">  c #0C0404",
",  c #0D0606",
"<  c #0F0B06",
"1  c #090508",
"2  c #0B0608",
"3  c #0D070C",
"4  c #000A0A",
"5  c #000F09",
"6  c #0F080E",
"7  c #120605",
"8  c #140707",
"9  c #1C0609",
"0  c #1F060A",
"q  c #11090B",
"w  c #10090F",
"e  c #140B0F",
"r  c #1A0D0C",
"t  c #1F160D",
"y  c #120410",
"u  c #110A11",
"i  c #150C14",
"p  c #160C14",
"a  c #1A0D10",
"s  c #1C0F13",
"d  c #1D0F14",
"f  c #1C0F16",
"g  c #190E18",
"h  c #1B0F1A",
"j  c #0C151A",
"k  c #1F111D",
"l  c #2D100E",
"z  c #3C0C14",
"x  c #221216",
"c  c #251319",
"v  c #27151A",
"b  c #21121F",
"n  c #24141D",
"m  c #2B1419",
"M  c #2C171E",
"N  c #2E181E",
"B  c #2F191F",
"V  c #38161D",
"C  c #39171E",
"Z  c #3C181F",
"A  c #002415",
"S  c #00311D",
"D  c #320C2A",
"F  c #231422",
"G  c #261524",
"H  c #271524",
"J  c #281622",
"K  c #291727",
"L  c #2F1920",
"P  c #2D1924",
"I  c #2B1828",
"U  c #2C1828",
"Y  c #2D1929",
"T  c #331B22",
"R  c #331B23",
"E  c #351C23",
"W  c #321B26",
"Q  c #361C24",
"!  c #381E26",
"~  c #3A1E27",
"^  c #301B2A",
"/  c #351D2D",
"(  c #381F2C",
")  c #381E2D",
"_  c #381F2E",
"`  c #391F2F",
"'  c #092327",
"]  c #002D2A",
"[  c #012D2C",
"{  c #00302E",
"}  c #152832",
"|  c #142C33",
" . c #003B38",
".. c #1B323E",
"X. c #3E2129",
"o. c #3D212D",
"O. c #3C212F",
"+. c #3D212F",
"@. c #3F2332",
"#. c #57121D",
"$. c #5A201D",
"%. c #4E0C2C",
"&. c #401A20",
"*. c #421A22",
"=. c #451B22",
"-. c #570E31",
";. c #6C1627",
":. c #462126",
">. c #4F2724",
",. c #5D2E2A",
"<. c #402332",
"1. c #412432",
"2. c #412433",
"3. c #432433",
"4. c #452530",
"5. c #442534",
"6. c #4A2732",
"7. c #4C2832",
"8. c #4B2836",
"9. c #4F2A35",
"0. c #4C2936",
"q. c #4C2937",
"w. c #512B39",
"e. c #5A2F3C",
"r. c #5B303D",
"t. c #762B26",
"y. c #673F2D",
"u. c #6D3632",
"i. c #603F36",
"p. c #00462A",
"a. c #00663C",
"s. c #004E4B",
"d. c #00524E",
"f. c #00654F",
"g. c #006C4E",
"h. c #007746",
"j. c #00744C",
"k. c #00794B",
"l. c #007B4B",
"z. c #007C4B",
"x. c #007E4B",
"c. c #434346",
"v. c #5D565B",
"b. c #6E5446",
"n. c #6F5546",
"m. c #775A4B",
"M. c #69696D",
"N. c #717276",
"B. c #78757A",
"V. c #78797D",
"C. c #90352F",
"Z. c #B34D31",
"A. c #A11E5C",
"S. c #8E2048",
"D. c #843144",
"F. c #924843",
"G. c #AD564F",
"H. c #A24C57",
"J. c #89614E",
"K. c #8A6956",
"L. c #8D6956",
"P. c #CB6C48",
"I. c #D06760",
"U. c #D58462",
"Y. c #CF8D78",
"T. c #C3957B",
"R. c #C3977C",
"E. c #F59F6A",
"W. c #E69370",
"Q. c #FFB06D",
"!. c #909196",
"~. c #AE988E",
"^. c #CE9D82",
"/. c #DBA488",
"(. c #DFAA8C",
"). c #F4B999",
"_. c #FDBF9E",
"`. c #FFC3A1",
"'. c #EFD2C5",
"]. c None",
/* pixels */
"].].].].].].].].].].].].].].].].].].].].].].].].].].].].].].].].].].].].].].].].].].].].].].].].].].].].].].].].].].].].",
"].].].].].].].].].].].].].].].].].].].].].].].].].].].].].].].].].].].].].].].].].].].].].].].].].].].].].].].].].].].].",
"].].].].].].].].].].].].].].].].].].].].].].].].].].].].].].].].].].].].].].].].].].].].].].].].].].].].].].].].].].].].",
"].].].].].].].].].].].].].].].].].].].].].].].].].].].].].].].].].].].].].].].].].].].].].].].].].].].].].].].].].].].].",
"].].].].].].].].].].].].].].].].].].].].].].].].].].].].].].].].].].].].].].].].].].].].].].].].].].].].].].].].].].].].",
"].].].].].].].].].].].].].].].].].].].].].].].].].].].].].].].].].].].].].].].].].].].].].].].].].].].].].].].].].].].].",
"].].].].].].].].].].].].].].].].].].].].].].].].].].].].].].].].].].].].].].].].].].].].].].].].].].].].].].].].].].].].",
"].].].].].].].].].].].].].].].].].].].].].].].].].].].].].].].].].].].].].].].].].].].].].].].].].].].].].].].].].].].].",
"].].].].].].].].].].].].].].].].].].].].].].].].].].].].].].].].].].].].].].].].].].].].].].].].].].].].].].].].].].].].",
"].].].].].].].].].].].].].].].].].].].].].].].].].].].].].].].].].].].].].].].].].].].].].].].].].].].].].].].].].].].].",
"].].].].].].].].].].].].].].].].].].].].].].].].].].].].].].].].].].].].].].].].].].].].].].].].].].].].].].].].].].].].",
"].].].].].].].].].].].].].].].].].].].].].].].].].].].].].].].].].].].].].].].].].].].].].].].].].].].].].].].].].].].].",
"].].].].].].].].].].].].].].].].].].].].].].].].].].].].].].].].].].].].].].].].].].].].].].].].].].].].].].].].].].].].",
"].].].].].].].].].].].].].].].].].].].].].].].].].].].].].].].].].].].].].].].].].].].].].].].].].].].].].].].].].].].].",
"].].].].].].].].].].].].].].].].].].].].].].].].].].].].].].].].].].].].].].].].].].].].].].].].].].].].].].].].].].].].",
"].].].].].].].].].].].].].].].].].].].].].].].].].].].].].].].].].].].].].].].].].].].].].].].].].].].].].].].].].].].].",
"].].].].].].].].].].].].].].].].].].].].].].].].].].].].].].].].].].].].].].].].].].].].].].].].].].].].].].].].].].].].",
"].].].].].].].].].].].].].].].].].].].].].].].].].].].].].].].].].].].].].].].].].].].].].].].].].].].].].].].].].].].].",
"].].].].].].].].].].].].].].].].].].].].].].].].].].].].].].].].].].].].].].].].].].].].].].].].].].].].].].].].].].].].",
"].].].].].].].].].].].].].].].].].].].].].].].].].].].].].].].].].].].].].].].].].].].].].].].].].].].].].].].].].].].].",
"].].].].].].].].].].].].].].].].].].].].].].].].].].].].].].].].].].].].].].].].].  Z Z &.8 ].].].].].].].].].].].].].].",
"].].].].].].].].].].].].].].].].].].].].].].].].].].].].].].].].].].].].].].].].$.V V V t.C l ].].].].].].].].].].].].].",
"].].].].].].].].].].].].].].].].].].].].].].].].].].].].].].].].].].].].].].].].a b.# m =.7 A.].].].].].].].].].].].].].",
"].].].].].].].].].].].].].].].].].].].].].].].].].].].].].].].].].].].].].].].].- ^.`.m.*.> S.].].].].].].].].].].].].].",
"].].].].].].].].].].].].].].].].].].].].].].].].].].].].].].].].].].].].].].].].  ~.T.'.X * D.].].].].].].].].].].].].].",
"].].].].].].].].].].].].].].].].].].].].].].].].].].].].].].].].].].].].].].].].  `.`._.    ].].].].].].].].].].].].].].",
"].].].].].].].].].].].].].].].].].].].].].].].].].].].].].].].].].].].].].].].].].K.).G.].].].].].].].].].].].].].].].].",
"].].].].].].].].].].].].].].].].].].].].].].].].].].].].].].].].].].].].].].].].].].>.G.].].].].].].].].].].].].].].].].",
"].].].].].].].].].].].].].].].].].].].].].].].].].].].].].].].].].].].].].].].].  c.`./.!.Q   ].].].].].].].].].].].].].",
"].].].].].].].].].].].].].].].].].].].].].].].].].].].].].].].].].].].].].].].  B N.n.V.E N 4.].].].].].].].].].].].].].",
"].].].].].].].].].].].].].].].].].].].].].].].].].].].].].].].].].].].].].].].9.X.v.M.M w.: 8.v ].].].].].].].].].].].].",
"].].].].].].].].].].].].].].].].].].].].].].].].].].].].].].].].].].].].].].].  2.L B.e.2.= 8.r.  ].].].].].].].].].].].",
"].].].].].].].].].].].].].].].].].].].].].].].].].].].].].].].].].].].].].].].  ` 0.c 2.<.$ 8.r.  ].].].].].].].].].].].",
"].].].].].].].].].].].].].].].].].].].].].].].].].].].].].].].].].].].].].].].k I f 3.2.I + 8.r.R ].].].].].].].].].].].",
"].].].].].].].].].].].].].].].].].].].].].].].].].].].].].].].].].].].].].].  F i 2 e K K + 8.r.! ].].].].].].].].].].].",
"].].].].].].].].].].].].].].].].].].].].].].].].].].].].].].].].].].].].].].n g z #.#.  u . ) r.o.].].].].].].].].].].].",
"].].].].].].].].].].].].].].].].].].].].].].].].].].].].].].].].].].].].].].@.+ ^ y J K K @ x 7.2.  ].].].].].].].].].].",
"].].].].].].].].].].].].].].].].].].].].].].].].].].].].].].].].].].].].].].@.+ ^ D 6 Y O.9.r.q._ 1 ].].].].].].].].].].",
"].].].].].].].].].].].].].].].].].].].].].].].].].].].].].].].].].].].].].q O ; ^ %.-.Y +.6.r.2.K b ].].].].].].].].].].",
"].].].].].].].].].].].].].].].].].].].].].].].].].].].].].].].].].].].].].q G ( ^ ;.-.Y <.H W / K b ].].].].].].].].].].",
"].].].].].].].].].].].].].].].].].].].].].].].].].].].].].].].].].].].].].].3 1.^ 9 0 Y 2.U u.h K b ].].].].].].].].].].",
"].].].].].].].].].].].].].].].].].].].].].].].].].].].].].].].].].].].].].].o 5.^ j ..% <.p Y.s u w ].].].].].].].].].].",
"].].].].].].].].].].].].].].].].].].].].].].].].].].].].].].].].].].].].].].o 5.^ ' j.} G (.`.T   ].].].].].].].].].].].",
"].].].].].].].].].].].].].].].].].].].].].].].].].].].].].].].].].].].].].].o 5.^ { x.} < t i.,.! ].].].].].].].].].].].",
"].].].].].].].].].].].].].].].].].].].].].].].].].].].].].].].].].].].].].].].9.^ [ z.| , < < <   ].].].].].].].].].].].",
"].].].].].].].].].].].].].].].].].].].].].].].].].].].].].].].].].].].].].].].9.^ u f.a.r t t t d   ].].].].].].].].].].",
"].].].].].].].].].].].].].].].].].].].].].].].].].].].].].].].].].].].].].].].  P u f.a.H.I.E.Q.x ~ ].].].].].].].].].].",
"].].].].].].].].].].].].].].].].].].].].].].].].].].].].].].].].].].].].].].].].] p.f.a.:.:.,.y.  ].].].].].].].].].].].",
"].].].].].].].].].].].].].].].].].].].].].].].].].].].].].].].].].].].].].].].]. .g.x.x.x.x.x.x.  ].].].].].].].].].].].",
"].].].].].].].].].].].].].].].].].].].].].].].].].].].].].].].].].].].].].].].].  s.k.x.x.x.x.S ].].].].].].].].].].].].",
"].].].].].].].].].].].].].].].].].].].].].].].].].].].].].].].].].].].].].].].].F.  d.l.x.h.A ].].].].].].].].].].].].].",
"].].].].].].].].].].].].].].].].].].].].].].].].].].].].].].].].].].].].].].].].F.].].4 5 R.].].].].].].].].].].].].].].",
"].].].].].].].].].].].].].].].].].].].].].].].].].].].].].].].].].].].].].].].  Z.].].].& P.].].].].].].].].].].].].].].",
"].].].].].].].].].].].].].].].].].].].].].].].].].].].].].].].].].].].].].].L.U.`.].].J.W.`.].].].].].].].].].].].].].].",
"].].].].].].].].].].].].].].].].].].].].].].].].].].].].].].].].].].].].].].C.C.C.].].C.C.C.].].].].].].].].].].].].].].",
"].].].].].].].].].].].].].].].].].].].].].].].].].].].].].].].].].].].].].].].].].].].].].].].].].].].].].].].].].].].].",
"].].].].].].].].].].].].].].].].].].].].].].].].].].].].].].].].].].].].].].].].].].].].].].].].].].].].].].].].].].].].",
"].].].].].].].].].].].].].].].].].].].].].].].].].].].].].].].].].].].].].].].].].].].].].].].].].].].].].].].].].].].].",
"].].].].].].].].].].].].].].].].].].].].].].].].].].].].].].].].].].].].].].].].].].].].].].].].].].].].].].].].].].].].",
"].].].].].].].].].].].].].].].].].].].].].].].].].].].].].].].].].].].].].].].].].].].].].].].].].].].].].].].].].].].]."
};
