/* XPM */
static char * Jump_3_xpm[] = {
"50 53 174 2",
"  	c None",
". 	c #010202",
"+ 	c #130406",
"@ 	c #130609",
"# 	c #321212",
"$ 	c #2E1113",
"% 	c #231316",
"& 	c #3B1A1E",
"* 	c #57121D",
"= 	c #481C23",
"- 	c #431B22",
"; 	c #662626",
"> 	c #5C1739",
", 	c #59172E",
"' 	c #030B0A",
") 	c #1E140D",
"! 	c #250C17",
"~ 	c #3A1E25",
"{ 	c #380B16",
"] 	c #6A183D",
"^ 	c #AE2855",
"/ 	c #8C6B59",
"( 	c #95725E",
"_ 	c #4C3A30",
": 	c #841B3C",
"< 	c #972248",
"[ 	c #8B6957",
"} 	c #9E7965",
"| 	c #93827B",
"1 	c #2B1924",
"2 	c #29161D",
"3 	c #1D1314",
"4 	c #52343E",
"5 	c #B53152",
"6 	c #301523",
"7 	c #F4BB9B",
"8 	c #190E0F",
"9 	c #081810",
"0 	c #01623A",
"a 	c #0B3825",
"b 	c #FFC3A1",
"c 	c #09130E",
"d 	c #0C0B0C",
"e 	c #C7987D",
"f 	c #432F2B",
"g 	c #0B0405",
"h 	c #2F231E",
"i 	c #60493C",
"j 	c #E2AC8E",
"k 	c #3D2E26",
"l 	c #695042",
"m 	c #EAB294",
"n 	c #291E19",
"o 	c #331B22",
"p 	c #522B37",
"q 	c #1A0D15",
"r 	c #2D2C2B",
"s 	c #7C6B5C",
"t 	c #351A17",
"u 	c #592F3C",
"v 	c #492734",
"w 	c #0B0609",
"x 	c #150B0E",
"y 	c #151A1C",
"z 	c #542C3A",
"A 	c #4F2A38",
"B 	c #341C2B",
"C 	c #1E111B",
"D 	c #432433",
"E 	c #110710",
"F 	c #5B303D",
"G 	c #140B13",
"H 	c #3B202F",
"I 	c #4C2835",
"J 	c #44242D",
"K 	c #291726",
"L 	c #2F1A29",
"M 	c #22121B",
"N 	c #251523",
"O 	c #352326",
"P 	c #3E2231",
"Q 	c #725648",
"R 	c #1A0D18",
"S 	c #846553",
"T 	c #4B3228",
"U 	c #5A4438",
"V 	c #AA816B",
"W 	c #7B1A29",
"X 	c #99745F",
"Y 	c #450F29",
"Z 	c #674E41",
"` 	c #E6B091",
" .	c #7F6150",
"..	c #771828",
"+.	c #F4B695",
"@.	c #765A4A",
"#.	c #BC2744",
"$.	c #691841",
"%.	c #270A21",
"&.	c #B1253B",
"*.	c #A21F49",
"=.	c #741649",
"-.	c #3D0E31",
";.	c #7B5535",
">.	c #825143",
",.	c #8C1D2F",
"'.	c #AE2245",
").	c #91184D",
"!.	c #84174E",
"~.	c #581545",
"{.	c #2A1D12",
"].	c #27150C",
"^.	c #000D07",
"/.	c #41201D",
"(.	c #89573B",
"_.	c #8E633E",
":.	c #005331",
"<.	c #007B4B",
"[.	c #005652",
"}.	c #063031",
"|.	c #0F181C",
"1.	c #0B1215",
"2.	c #8F402D",
"3.	c #995344",
"4.	c #AD764A",
"5.	c #00654F",
"6.	c #0F4145",
"7.	c #1B323E",
"8.	c #173039",
"9.	c #14232A",
"0.	c #582626",
"a.	c #A54E57",
"b.	c #CB635A",
"c.	c #E68766",
"d.	c #FEAE6C",
"e.	c #D7945B",
"f.	c #004328",
"g.	c #005C51",
"h.	c #123B43",
"i.	c #173741",
"j.	c #131E24",
"k.	c #0E0E12",
"l.	c #6F343B",
"m.	c #7A3B3B",
"n.	c #8A4441",
"o.	c #924843",
"p.	c #003E24",
"q.	c #007346",
"r.	c #00744C",
"s.	c #09494B",
"t.	c #04504E",
"u.	c #0B151A",
"v.	c #005C37",
"w.	c #006E4D",
"x.	c #084A4B",
"y.	c #182C35",
"z.	c #152126",
"A.	c #002D1B",
"B.	c #172831",
"C.	c #976A57",
"D.	c #984F34",
"E.	c #230E07",
"F.	c #8A3B25",
"G.	c #AF5346",
"H.	c #B35952",
"I.	c #AB6044",
"J.	c #EDA787",
"K.	c #D08771",
"L.	c #7C2E29",
"M.	c #943A33",
"N.	c #9C3D36",
"O.	c #BA7461",
"P.	c #C3745F",
"Q.	c #A44E43",
"                                                                                                    ",
"                                                                                                    ",
"                                                                                                    ",
"                                                                                                    ",
"                                                                                                    ",
"                                                                                                    ",
"                                                                                                    ",
"                                                                                                    ",
"                                                                                                    ",
"                                            . . . + @                                               ",
"                                        # $ % $ # & * $                                             ",
"                                        $ = - = ; # > , @                                           ",
"                                        ' ) ! ~ ; { ] ^ {                                           ",
"                                        / ( _ % & $ : < ^                                           ",
"                                        [ } | 1 2 3 4 < 5 6                                         ",
"                                        [ 7 7 [ 8 9 0 a                                             ",
"                                        [ b b ( 8 c a d                                             ",
"                                        [ b b e f d g                                               ",
"                                        h h i j j k . . .                                           ",
"                                              l m e n o p q                                         ",
"                                            . r s h t u v 1 w                                       ",
"                                          2 x r y o z A B C %                                       ",
"                                        o D q E ~ F z B x B o                                       ",
"                                      o v 1 @ o F p B G 6 z F %                                     ",
"                                    2 A D C o z z H C C I u F J x                                   ",
"                                  o z H q ~ u u I K q L A u F F !                                   ",
"                                o u D M ~ F u A B E N B A u u u v x                                 ",
"                              q v H M O z F u D M q N L P A u u z 1                                 ",
"                            3 Q O 1 q v F F I B E R K K L P v z u ~                                 ",
"                            h S ) . / T z v P G g g g q K K B B v o                                 ",
"                          . ( _   U V f D D B G * W W { . E R R M 3                                 ",
"                          l Q     X / M 1 B G . * Y E q M N 1 2 M g                                 ",
"                        Z ` U    .i     q N w . ..] R K H z u u I x                                 ",
"                        [ +.m @.j l     . . + ..#.$.%.N B D u u u ~                                 ",
"                        @. . .X +.i     . . { &.*.=.-.R K H A u F O                                 ",
"                          . ;.U h >.T     + ,.'.).!.~.%.R B D z F p 2                               ",
"                          g ) ) {.].) g   ^.^.^.Y =.~.%.R N B A F F o                               ",
"                          /.(._.S _.;.].. :.<.[.}.|.1.' . N B D u F u %                             ",
"                          ~ 2.3.4.4._.{.. :.5.[.6.7.8.9.1.E B D z F u J 8                           ",
"                          0.a.b.c.d.e.{.f.<.g.[.h.i.7.7.j.k.%.B z F u F J @                         ",
"                          ~ l.m.n.o.(.) p.<.g.[.6.7.7.7.9.k.j.B D u F F I %                         ",
"                                      . f.<.g.[.6.7.7.7.7.|.G B D z F F F o                         ",
"                                        f.<.g.[.6.7.7.7.7.|.G N H I F F F o                         ",
"                                        p.q.5.[.[.h.7.7.7.|.G K H D F F u 2                         ",
"                                        . :.r.g.[.s.7.7.7.|.k.C K H D A 1 @                         ",
"                                        . :.r.[.[.t.i.7.7.j.c R N K L 3 u.u.                        ",
"                                          ^.v.w.[.[.x.7.7.y.1.R N R . 1.y.7.u.                      ",
"                                          ^.0 <.r.[.[.s.i.8.u.d ' k.z.y.7.y.O                       ",
"                                            A.A.v.w.[.[.t.6.8.B.B.y.9.1.1.d m.C.                    ",
"                                                . . . ^.^.. . . . . .       g D.C.                  ",
"                                              E.F.G.t                       ].G.+. .                ",
"                                            0.2.b.H.t                     /.I.J.K.(.                ",
"                                          L.M.N.N.N.L.                  ~ O.P.Q.                    "};
