/* XPM */
static char *result[] = {
/* columns rows colors chars-per-pixel */
"60 60 221 2 ",
"   c black",
".  c #010101",
"X  c #020102",
"o  c #030102",
"O  c #040202",
"+  c #040203",
"@  c #050203",
"#  c #060202",
"$  c #000703",
"%  c #050204",
"&  c #050305",
"*  c #070307",
"=  c #040705",
"-  c #070407",
";  c #0C0204",
":  c #080404",
">  c #0A0405",
",  c #0A0607",
"<  c #0B0607",
"1  c #0C0605",
"2  c #0F0607",
"3  c #080408",
"4  c #090508",
"5  c #0A060A",
"6  c #0D0708",
"7  c #0E070A",
"8  c #0C070C",
"9  c #06090A",
"0  c #080A0B",
"q  c #170905",
"w  c #17050D",
"e  c #16060E",
"r  c #130A0D",
"t  c #10090F",
"y  c #160B0F",
"u  c #00160D",
"i  c #00170E",
"p  c #0B0F10",
"a  c #110A11",
"s  c #140B12",
"d  c #160C15",
"f  c #170D15",
"g  c #1B0E11",
"h  c #1B0F11",
"j  c #180D13",
"k  c #1B0E12",
"l  c #1C0F13",
"z  c #1A0E14",
"x  c #190E18",
"c  c #1A0E19",
"v  c #1C0F1A",
"b  c #0E1315",
"n  c #0F1517",
"m  c #0F1617",
"M  c #1F1114",
"N  c #101719",
"B  c #1C101A",
"V  c #12191B",
"C  c #121A1C",
"Z  c #230E07",
"A  c #24080C",
"S  c #24100B",
"D  c #3F0E15",
"F  c #3A091F",
"G  c #221216",
"H  c #271216",
"J  c #211218",
"K  c #21121F",
"L  c #2B1019",
"P  c #2B1419",
"I  c #28161F",
"U  c #271B19",
"Y  c #2E181F",
"T  c #311316",
"R  c #002818",
"E  c #002F1C",
"W  c #00351F",
"Q  c #2A201A",
"!  c #1C1121",
"~  c #270A21",
"^  c #380E2F",
"/  c #211220",
"(  c #221320",
")  c #231422",
"_  c #251523",
"`  c #261524",
"'  c #291725",
"]  c #2A1724",
"[  c #291727",
"{  c #2B1827",
"}  c #2B1828",
"|  c #2D1929",
" . c #331B22",
".. c #311B27",
"X. c #381D25",
"o. c #301B2A",
"O. c #351D2C",
"+. c #371E2E",
"@. c #381F2E",
"#. c #3A0E31",
"$. c #112028",
"%. c #16262D",
"&. c #14252E",
"*. c #0A2E31",
"=. c #192D37",
"-. c #1A313C",
";. c #1A313D",
":. c #1B323E",
">. c #3B2D25",
",. c #3E2129",
"<. c #3F212A",
"1. c #3A202F",
"2. c #3B2030",
"3. c #3E2231",
"4. c #3F2332",
"5. c #460F17",
"6. c #4B1019",
"7. c #5E141F",
"8. c #582918",
"9. c #7A321A",
"0. c #401A22",
"q. c #4E1E24",
"w. c #49123D",
"e. c #6D123E",
"r. c #462220",
"t. c #45242E",
"y. c #542025",
"u. c #5B2221",
"i. c #5D2E2A",
"p. c #412331",
"a. c #402332",
"s. c #412433",
"d. c #422433",
"f. c #442534",
"g. c #4B2732",
"h. c #482634",
"j. c #492736",
"k. c #4F2A35",
"l. c #4C2937",
"z. c #4D2937",
"x. c #4E2937",
"c. c #4E2A38",
"v. c #4F2A38",
"b. c #502A35",
"n. c #512B39",
"m. c #532C3A",
"M. c #552D39",
"N. c #562D39",
"B. c #552D3A",
"V. c #592F3C",
"C. c #5A2F3C",
"Z. c #5B303D",
"A. c #00462A",
"S. c #00433A",
"D. c #01673E",
"F. c #5F493C",
"G. c #745031",
"H. c #0E3D42",
"J. c #173640",
"K. c #183540",
"L. c #163841",
"P. c #5A174C",
"I. c #60174C",
"U. c #73174D",
"Y. c #0B4649",
"T. c #054E4D",
"R. c #00504C",
"E. c #005652",
"W. c #005B51",
"Q. c #00664F",
"!. c #007646",
"~. c #087046",
"^. c #00764C",
"/. c #007B4B",
"(. c #007E4B",
"). c #6D564A",
"_. c #725748",
"`. c #785C4B",
"'. c #83361C",
"]. c #921F31",
"[. c #90352F",
"{. c #87263A",
"}. c #B3263C",
"|. c #9F4039",
" X c #A1413B",
".X c #8B603B",
"XX c #95673F",
"oX c #8C174F",
"OX c #9D1C4B",
"+X c #A11E4B",
"@X c #A52446",
"#X c #BB2745",
"$X c #C92B44",
"%X c #B24E45",
"&X c #A24C57",
"*X c #B45954",
"=X c #9F6E44",
"-X c #8F6D5A",
";X c #936C59",
":X c #B57D4D",
">X c #C75D4F",
",X c #CA635F",
"<X c #D2665B",
"1X c #EA4973",
"2X c #D56A62",
"3X c #E27F65",
"4X c #B98D74",
"5X c #BF9278",
"6X c #D3865C",
"7X c #DF9A5F",
"8X c #DF8D7A",
"9X c #C9997F",
"0X c #EA9C64",
"qX c #E48C77",
"wX c #EFA566",
"eX c #E9B293",
"rX c #F4BA9A",
"tX c #F5BC9D",
"yX c #FBBF9E",
"uX c #FFC3A1",
"iX c None",
/* pixels */
"iXiXiXiXiXiXiXiXiXiXiXiXiXiXiXiXiXiXiXiXiXiXiXiXiXiXiXiXiXiXiXiXiXiXiXiXiXiXiXiXiXiXiXiXiXiXiXiXiXiXiXiXiXiXiXiXiXiXiXiX",
"iXiXiXiXiXiXiXiXiXiXiXiXiXiXiXiXiXiXiXiXiXiXiXiXiXiXiXiXiXiXiXiXiXiXiXiXiXiXiXiXiXiXiXiXiXiXiXiXiXiXiXiXiXiXiXiXiXiXiXiX",
"iXiXiXiXiXiXiXiXiXiXiXiXiXiXiXiXiXiXiXiXiXiXiXiXiXiXiXiXiXiXiXiXiXiXiXiXiXiXiXiXiXiXiXiXiXiXiXiXiXiXiXiXiXiXiXiXiXiXiXiX",
"iXiXiXiXiXiXiXiXiXiXiXiXiXiXiXiXiXiXiXiXiXiXiXiXiXiXiXiXiXiXiXiXiXiXiXiXiXiXiXiXiXiXiXiXiXiXiXiXiXiXiXiXiXiXiXiXiXiXiXiX",
"iXiXiXiXiXiXiXiXiXiXiXiXiXiXiXiXiXiXiXiXiXiXiXiXiXiXiXiXiXiXiXiXiXiXiXiXiXiXiXiXiXiXiXiXiXiXiXiXiXiXiXiXiXiXiXiXiXiXiXiX",
"iXiXiXiXiXiXiXiXiXiXiXiXiXiXiXiXiXiXiXiXiXiXiXiXiXiXiXiXiXiXiXiXiXiXiXiXiXiXiXiXiXiXiXiXiXiXiXiXiXiXiXiXiXiXiXiXiXiXiXiX",
"iXiXiXiXiXiXiXiXiXiXiXiXiXiXiXiXiXiXiXiXiXiXiXiXiXiXiXiXiXiXiXiXiXiXiXiXiXiXiXiXiXiXiXiXiXiXiXiXiXiXiXiXiXiXiXiXiXiXiXiX",
"iXiXiXiXiXiXiXiXiXiXiXiXiXiXiXiXiXiXiXiXiXiXiXiXiXiXiXiXiXiXiXiXiXiXiXiXiXiXiXiXiXiXiXiXiXiXiXiXiXiXiXiXiXiXiXiXiXiXiXiX",
"iXiXiXiXiXiXiXiXiXiXiXiXiXiXiXiXiXiXiXiXiXiXiXiXiXiXiXiXiXiXiXiXiXiXiXiXiXiXiXiXiXiXiXiXiXiXiXiXiXiXiXiXiXiXiXiXiXiXiXiX",
"iXiXiXiXiXiXiXiXiXiXiXiXiXiXiXiXiXiXiXiXiXiXiXiXiXiXiXiXiXiXiXiXiXiXiXiXiXiXiXiXiXiXiXiXiXiXiXiXiXiXiXiXiXiXiXiXiXiXiXiX",
"iXiXiXiXiXiXiXiXiXiXiXiXiXiXiXiXiXiXiXiXiXiXiXiXiXiXiXiXiXiXiXiXiXiXiXiXiXiXiXiXiXiXiXiXiXiXiXiXiXiXiXiXiXiXiXiXiXiXiXiX",
"iXiXiXiXiXiXiXiXiXiXiXiXiXiXiXiXiXiXiXiXiXiXiXiXiXiXiXiXiXiXiXiXiXiXiXiXiXiXiXiXiXiXiXiXiXiXiXiXiXiXiXiXiXiXiXiXiXiXiXiX",
"iXiXiXiXiXiXiXiXiXiXiXiXiXiXiXiXiXiXiXiXiXiXiXiXiXiXiXiXiXiXiXiXiXiXiXiXiXiXiXiXiXiXiXiXiXiXiXiXiXiXiXiXiXiXiXiXiXiXiXiX",
"iXiXiXiXiXiXiXiXiXiXiXiXiXiXiXiXiXiXiXiXiXiXiXiXiXiXiXiXiXiXiXiXiXiXiXiXiXiXiXiXiXiXiXiXiXiXiXiXiXiXiXiXiXiXiXiXiXiXiXiX",
"iXiXiXiXiXiXiXiXiXiXiXiXiXiXiXiXiXiXiXiXiXiXiXiXiXiXiXiXiXiXiXiXiXiXiXiXiXiXiXiXiXiXiXiXiXiXiXiXiXiXiXiXiXiXiXiXiXiXiXiX",
"iXiXiXiXiXiXiXiXiXiXiXiXiXiXiXiXiXiXiXiXiXiXiXiXiXiXiXiXiXiXiXiXiXiXiXiXiXiXiXiXiXiXiXiXiXiXiXiXiXiXiXiXiXiXiXiXiXiXiXiX",
"iXiXiXiXiXiXiXiXiXiXiXiXiXiXiXiXiXiXiXiXiXiXiXiXiXiXiXiXiXiXiXiXiXiXiXiXiXiXiXiXiXiXiXiXiXiXiXiXiXiXiXiXiXiXiXiXiXiXiXiX",
"iXiXiXiXiXiXiXiXiXiXiXiXiXiXiXiXiXiXiXiXiXiXiXiXiXiXiXiXiXiXiXiXiXiXiXiXiXiXiXiXiXiXiXiXiXiXiXiXiXiXiXiXiXiXiXiXiXiXiXiX",
"iXiXiXiXiXiXiXiXiXiXiXiXiXiXiXiXiXiXiXiXiXiXiXiXiXiXiXiXiXiXiXiXiXiXiXiXiXiXiXiXiXiXiXiXiXiXiXiXiXiXiXiXiXiXiXiXiXiXiXiX",
"iXiXiXiXiXiXiXiXiXiXiXiXiXiXiXiXiXiXiXiXiXiXiXiXiXiXiXiXiXiXiXiXiXiXiXiXiXiXiXiXiXiXiXiXiXiXiXiXiXiXiXiXiXiXiXiXiXiXiXiX",
"iXiXiXiXiXiXiXiXiXiXiXiXiXiXiXiXiXiXiXiXiXiXiXiXiXiXiXiXiXiXiXiXiXiXiXiXiXiXiXiXiXiXiXiXiXiXiXiXiXiXiXiXiXiXiXiXiXiXiXiX",
"iXiXiXiXiXiXiXiXiXiXiXiXiXiXiXiXiXiXiXiXiXiXiXiXiXiXiXiXiXiX      iXiXiXiXiXiXiXiXiXiXiXiXiXiXiXiXiXiXiXiXiXiXiXiXiXiXiX",
"iXiXiXiXiXiXiXiXiXiXiXiXiXiXiXiXiXiXiXiXiXiXiXiXiXiXiXiXiX`.uXuXyX5XY   iXiXiXiXiXiXiXiXiXiXiXiXiXiXiXiXiXiXiXiXiXiXiXiX",
"iXiXiXiXiXiXiXiXiXiXiXiXiXiXiXiXiXiXiXiXiXiXiXiXiXiXiXiX_.-X-X-Xo  .k Z. .iXiXiXiXiXiXiXiXiXiXiXiXiXiXiXiXiXiXiXiXiXiXiX",
"iXiXiXiXiXiXiXiXiXiXiXiXiXiXiXiXiXiXiXiXiXiXiXiXiXiXiX  uX9X  Q @ V.Z.G t.b.iXiXiXiXiXiXiXiXiXiXiXiXiXiXiXiXiXiXiXiXiXiX",
"iXiXiXiXiXiXiXiXiXiXiXiXiXiXiXiXiXiXiXiXiXiXiXiXiXiXiX:X  G.  iX+ m.Z.Z.<.] N.iXiXiXiXiXiXiXiXiXiXiXiXiXiXiXiXiXiXiXiXiX",
"iXiXiXiXiXiXiXiXiXiXiXiXiXiXiXiXiXiXiXiXiXiXiXiXiXiX1 0XwXwXXXiX4.a.n.Z.Z.g.' C.iXiXiXiXiXiXiXiXiXiXiXiXiXiXiXiXiXiXiXiX",
"iXiXiXiXiXiXiXiXiXiXiXiXiXiXiXiXiXiXiXiXiXiXiXiXiXiX: *X6X7X.X* [ } 1.f.Z.Z.k.r l iXiX          iXiXiXiXiXiXiXiXiXiXiXiX",
"iXiXiXiXiXiXiXiXiXiXiXiXiXiXiXiXiXiXiXiXiXiXiXiXiXiX> &X,X3X=XX 8 _ [ | o.j.Z.Z.J iXF.uXrXeXU q.  iXiXiXiXiXiXiXiXiXiXiX",
"iXiXiXiXiXiXiXiXiXiXiXiXiXiXiXiXiXiXiXiXiXiXiXiXiXiXiXiXiX  5.p.z.X. . . .a O.l.Z.y 4XuXtX).H 0.  iXiXiXiXiXiXiXiXiXiXiX",
"iXiXiXiXiXiXiXiXiXiXiXiXiXiXiXiXiXiXiXiXiXiXiXiXiXiXiXiXD ].7.6.v v.n.Z.Z.c.j x @.h.>.< 6 P y.u.2 iXiXiXiXiXiXiXiXiXiXiX",
"iXiXiXiXiXiXiXiXiXiXiXiXiXiXiXiXiXiXiXiXiXiXiXiXiXiXiXA $X+X^ 4 / 1.s.s.s.a.2.( K t , = i e w L T iXiXiXiXiXiXiXiXiXiXiX",
"iXiXiXiXiXiXiXiXiXiXiXiXiXiXiXiXiXiXiXiXiXiXiXiXiXiX; $XOXoX#.{ M.) [ 4.+.`   iXiXiXiX@ ~.#X@X{.  iXiXiXiXiXiXiXiXiXiXiX",
"iXiXiXiXiXiXiXiXiXiXiXiXiXiXiXiXiXiXiXiXiXiXiXiXiXu D.}.oXU.P.- f.7 [ [ % iXiXiXiXiXiXiXiX1XF # iXiXiXiXiXiXiXiXiXiXiXiX",
"iXiXiXiXiXiXiXiXiXiXiXiXiXiXiXiXiXiXiXiXiXiXiXiXR (.(.S.e.I.P.w.d.Z.,.& iXiXiXiXiXiXiXiXiXiXiXiXiXiXiXiXiXiXiXiXiXiXiXiX",
"iXiXiXiXiXiXiXiXiXiXiXiXiXiXiXiXiXiXiXiXiXiXiXiXE (.Q.E.*.! ~ c z.Z.Z.Z.z iXiXiXiXiXiXiXiXiXiXiXiXiXiXiXiXiXiXiXiXiXiXiX",
"iXiXiXiXiXiXiXiXiXiXiXiXiXiXiXiXiXiXiXiXiXiXiX  (.^.E.E.:.:.:.9 0 I x.B...iXiXiXiXiXiXiXiXiXiXiXiXiXiXiXiXiXiXiXiXiXiXiX",
"iXiXiXiXiXiXiXiXiXiXiXiXiXiXiXiXiXiXiXiXiXiXiX  (.^.E.J.:.:.:.=.V b f 3.s.  iXiXiXiXiXiXiXiXiXiXiXiXiXiXiXiXiXiXiXiXiXiX",
"iXiXiXiXiXiXiXiXiXiXiXiXiXiXiXiXiXiXiXiXiXiXiX$ (.^.E.J.:.:.;.N m h M d a.  iXiXiXiXiXiXiXiXiXiXiXiXiXiXiXiXiXiXiXiXiXiX",
"iXiXiXiXiXiXiXiXiXiXiXiXiXiXiXiXiXiXiXiXiXiXiXA.(.^.E.J.:.:.$.n . M M 6 B iXiXiXiXiXiXiXiXiXiXiXiXiXiXiXiXiXiXiXiXiXiXiX",
"iXiXiXiXiXiXiXiXiXiXiXiXiXiXiXiXiXiXiXiXiXiXiXA.(.^.E.T.:.:.:.=.N g M s 3 iXiXiXiXiXiXiXiXiXiXiXiXiXiXiXiXiXiXiXiXiXiXiX",
"iXiXiXiXiXiXiXiXiXiXiXiXiXiXiXiXiXiXiXiXiXiXiXA.(.(.E.E.L.:.:.:.%.p O 5 iXiXiXiXiXiXiXiXiXiXiXiXiXiXiXiXiXiXiXiXiXiXiXiX",
"iXiXiXiXiXiXiXiXiXiXiXiXiXiXiXiXiXiXiXiXiXiXiXA.(.(./.E.Y.:.:.:.-.C iXiXiXiXiXiXiXiXiXiXiXiXiXiXiXiXiXiXiXiXiXiXiXiXiXiX",
"iXiXiXiXiXiXiXiXiXiXiXiXiXiXiXiXiXiXiXiXiXiXiXW (.(.(.W.E.K.:.:.;.&.iXiXiXiXiXiXiXiXiXiXiXiXiXiXiXiXiXiXiXiXiXiXiXiXiXiX",
"iXiXiXiXiXiXiXiXiXiXiXiXiXiXiXiXiXiXiXiXiXiX  8X  i !.!.R.H.    q S iXiXiXiXiXiXiXiXiXiXiXiXiXiXiXiXiXiXiXiXiXiXiXiXiXiX",
"iXiXiXiXiXiXiXiXiXiXiXiXiXiXiXiXiXiXiXiXiXiX9.8.iXiXiXiXiXiXiXZ <X2XiXiXiXiXiXiXiXiXiXiXiXiXiXiXiXiXiXiXiXiXiXiXiXiXiXiX",
"iXiXiXiXiXiXiXiXiXiXiXiXiXiXiXiXiXiXiXiXiX'.qXi.iXiXiXiXiXiXr.>X XiXiXiXiXiXiXiXiXiXiXiXiXiXiXiXiXiXiXiXiXiXiXiXiXiXiXiX",
"iXiXiXiXiXiXiXiXiXiXiXiXiXiXiXiXiXiXiXiX;X%X|.iXiXiXiXiXiXiXiXiXiXiXiXiXiXiXiXiXiXiXiXiXiXiXiXiXiXiXiXiXiXiXiXiXiXiXiXiX",
"iXiXiXiXiXiXiXiXiXiXiXiXiXiXiXiXiXiXiXiX[.iXiXiXiXiXiXiXiXiXiXiXiXiXiXiXiXiXiXiXiXiXiXiXiXiXiXiXiXiXiXiXiXiXiXiXiXiXiXiX",
"iXiXiXiXiXiXiXiXiXiXiXiXiXiXiXiXiXiXiXiXiXiXiXiXiXiXiXiXiXiXiXiXiXiXiXiXiXiXiXiXiXiXiXiXiXiXiXiXiXiXiXiXiXiXiXiXiXiXiXiX",
"iXiXiXiXiXiXiXiXiXiXiXiXiXiXiXiXiXiXiXiXiXiXiXiXiXiXiXiXiXiXiXiXiXiXiXiXiXiXiXiXiXiXiXiXiXiXiXiXiXiXiXiXiXiXiXiXiXiXiXiX",
"iXiXiXiXiXiXiXiXiXiXiXiXiXiXiXiXiXiXiXiXiXiXiXiXiXiXiXiXiXiXiXiXiXiXiXiXiXiXiXiXiXiXiXiXiXiXiXiXiXiXiXiXiXiXiXiXiXiXiXiX",
"iXiXiXiXiXiXiXiXiXiXiXiXiXiXiXiXiXiXiXiXiXiXiXiXiXiXiXiXiXiXiXiXiXiXiXiXiXiXiXiXiXiXiXiXiXiXiXiXiXiXiXiXiXiXiXiXiXiXiXiX",
"iXiXiXiXiXiXiXiXiXiXiXiXiXiXiXiXiXiXiXiXiXiXiXiXiXiXiXiXiXiXiXiXiXiXiXiXiXiXiXiXiXiXiXiXiXiXiXiXiXiXiXiXiXiXiXiXiXiXiXiX",
"iXiXiXiXiXiXiXiXiXiXiXiXiXiXiXiXiXiXiXiXiXiXiXiXiXiXiXiXiXiXiXiXiXiXiXiXiXiXiXiXiXiXiXiXiXiXiXiXiXiXiXiXiXiXiXiXiXiXiXiX",
"iXiXiXiXiXiXiXiXiXiXiXiXiXiXiXiXiXiXiXiXiXiXiXiXiXiXiXiXiXiXiXiXiXiXiXiXiXiXiXiXiXiXiXiXiXiXiXiXiXiXiXiXiXiXiXiXiXiXiXiX",
"iXiXiXiXiXiXiXiXiXiXiXiXiXiXiXiXiXiXiXiXiXiXiXiXiXiXiXiXiXiXiXiXiXiXiXiXiXiXiXiXiXiXiXiXiXiXiXiXiXiXiXiXiXiXiXiXiXiXiXiX",
"iXiXiXiXiXiXiXiXiXiXiXiXiXiXiXiXiXiXiXiXiXiXiXiXiXiXiXiXiXiXiXiXiXiXiXiXiXiXiXiXiXiXiXiXiXiXiXiXiXiXiXiXiXiXiXiXiXiXiXiX",
"iXiXiXiXiXiXiXiXiXiXiXiXiXiXiXiXiXiXiXiXiXiXiXiXiXiXiXiXiXiXiXiXiXiXiXiXiXiXiXiXiXiXiXiXiXiXiXiXiXiXiXiXiXiXiXiXiXiXiXiX",
"iXiXiXiXiXiXiXiXiXiXiXiXiXiXiXiXiXiXiXiXiXiXiXiXiXiXiXiXiXiXiXiXiXiXiXiXiXiXiXiXiXiXiXiXiXiXiXiXiXiXiXiXiXiXiXiXiXiXiXiX"
};
