/* XPM */
static char *result[] = {
/* columns rows colors chars-per-pixel */
"60 60 195 2 ",
"   c black",
".  c #010001",
"X  c #020101",
"o  c #040202",
"O  c #040203",
"+  c #050303",
"@  c #040104",
"#  c #060304",
"$  c #060305",
"%  c #070106",
"&  c #000704",
"*  c #080302",
"=  c #0B0405",
"-  c #090506",
";  c #0B0607",
":  c #0D0606",
">  c #0B0709",
",  c #0C0608",
"<  c #000F09",
"1  c #090809",
"2  c #0E0B09",
"3  c #0F0C0A",
"4  c #080A0C",
"5  c #0F080E",
"6  c #170507",
"7  c #130408",
"8  c #120709",
"9  c #1C070B",
"0  c #130A0D",
"q  c #10090F",
"w  c #160B0F",
"e  c #170C0F",
"r  c #18080F",
"t  c #190C0F",
"y  c #00170E",
"u  c #070E11",
"i  c #130B12",
"p  c #150B10",
"a  c #170C11",
"s  c #150C14",
"d  c #160C15",
"f  c #1A0E11",
"g  c #1C0F13",
"h  c #1D0F14",
"j  c #001F12",
"k  c #1E1513",
"l  c #1F1814",
"z  c #1F111C",
"x  c #101A1E",
"c  c #121B1E",
"v  c #20070B",
"b  c #25070C",
"n  c #221110",
"m  c #221216",
"M  c #2A1D11",
"N  c #20121C",
"B  c #21121F",
"V  c #23131F",
"C  c #24141C",
"Z  c #291318",
"A  c #2B171E",
"S  c #291F1A",
"D  c #3E1B12",
"F  c #002616",
"G  c #002C1A",
"H  c #002F1C",
"J  c #0A2C1E",
"K  c #2F241E",
"L  c #101C23",
"P  c #231422",
"I  c #241422",
"U  c #251523",
"Y  c #271623",
"T  c #271625",
"R  c #281626",
"E  c #291727",
"W  c #2A1727",
"Q  c #2F1922",
"!  c #2D1929",
"~  c #301B29",
"^  c #321B2B",
"/  c #331C2C",
"(  c #351D2D",
")  c #381F2C",
"_  c #381F2E",
"`  c #391F2F",
"'  c #3D0F34",
"]  c #002826",
"[  c #092C2B",
"{  c #12222B",
"}  c #003721",
"|  c #003B23",
" . c #003E24",
".. c #172830",
"X. c #3B202F",
"o. c #3B212F",
"O. c #3D2131",
"+. c #3E2231",
"@. c #3F2332",
"#. c #42211E",
"$. c #75331C",
"%. c #7A321A",
"&. c #401A22",
"*. c #451B21",
"=. c #471C23",
"-. c #491D23",
";. c #631522",
":. c #641328",
">. c #681235",
",. c #44242D",
"<. c #5B2224",
"1. c #43312A",
"2. c #412433",
"3. c #432433",
"4. c #472632",
"5. c #452634",
"6. c #472635",
"7. c #492736",
"8. c #4F2A35",
"9. c #4C2937",
"0. c #4D2937",
"q. c #4E2A38",
"w. c #512B38",
"e. c #512B39",
"r. c #522C39",
"t. c #532C3A",
"y. c #552D39",
"u. c #572E3B",
"i. c #592F3C",
"p. c #5A2F3C",
"a. c #5B303D",
"s. c #683331",
"d. c #00472B",
"f. c #004E2E",
"g. c #00403B",
"h. c #005633",
"j. c #095E3A",
"k. c #5D473A",
"l. c #5F493C",
"z. c #67472C",
"x. c #6B492D",
"c. c #734C3C",
"v. c #7F5237",
"b. c #143B43",
"n. c #541547",
"m. c #0D4448",
"M. c #014E4B",
"N. c #0B5E45",
"B. c #04544E",
"V. c #026C4B",
"C. c #006F4D",
"Z. c #007143",
"A. c #00764C",
"S. c #00784B",
"D. c #007D4A",
"F. c #007C4B",
"G. c #007E4B",
"H. c #705647",
"J. c #785C4B",
"K. c #785C4C",
"L. c #921F31",
"P. c #90342F",
"I. c #983A34",
"U. c #B1253C",
"Y. c #835A38",
"T. c #891E46",
"R. c #83154A",
"E. c #8C174F",
"W. c #851E48",
"Q. c #8D1948",
"!. c #A82449",
"~. c #BA2646",
"^. c #C92B44",
"/. c #8D424C",
"(. c #BB564E",
"). c #BE5D5B",
"_. c #BA5A5C",
"`. c #AC7749",
"'. c #AE784A",
"]. c #87756C",
"[. c #DD416A",
"{. c #D66C62",
"}. c #BD8250",
"|. c #B98D74",
" X c #EC9168",
".X c #E7907B",
"XX c #F9AB6A",
"oX c #CF9E82",
"OX c #D7A487",
"+X c #DFAA8C",
"@X c #F2B998",
"#X c #FABF9D",
"$X c #FDC19F",
"%X c #FFC3A1",
"&X c None",
/* pixels */
"&X&X&X&X&X&X&X&X&X&X&X&X&X&X&X&X&X&X&X&X&X&X&X&X&X&X&X&X&X&X&X&X&X&X&X&X&X&X&X&X&X&X&X&X&X&X&X&X&X&X&X&X&X&X&X&X&X&X&X&X",
"&X&X&X&X&X&X&X&X&X&X&X&X&X&X&X&X&X&X&X&X&X&X&X&X&X&X&X&X&X&X&X&X&X&X&X&X&X&X&X&X&X&X&X&X&X&X&X&X&X&X&X&X&X&X&X&X&X&X&X&X",
"&X&X&X&X&X&X&X&X&X&X&X&X&X&X&X&X&X&X&X&X&X&X&X&X&X&X&X&X&X&X&X&X&X&X&X&X&X&X&X&X&X&X&X&X&X&X&X&X&X&X&X&X&X&X&X&X&X&X&X&X",
"&X&X&X&X&X&X&X&X&X&X&X&X&X&X&X&X&X&X&X&X&X&X&X&X&X&X&X&X&X&X&X&X&X&X&X&X&X&X&X&X&X&X&X&X&X&X&X&X&X&X&X&X&X&X&X&X&X&X&X&X",
"&X&X&X&X&X&X&X&X&X&X&X&X&X&X&X&X&X&X&X&X&X&X&X&X&X&X&X&X&X&X&X&X&X&X&X&X&X&X&X&X&X&X&X&X&X&X&X&X&X&X&X&X&X&X&X&X&X&X&X&X",
"&X&X&X&X&X&X&X&X&X&X&X&X&X&X&X&X&X&X&X&X&X&X&X&X&X&X&X&X&X&X&X&X&X&X&X&X&X&X&X&X&X&X&X&X&X&X&X&X&X&X&X&X&X&X&X&X&X&X&X&X",
"&X&X&X&X&X&X&X&X&X&X&X&X&X&X&X&X&X&X&X&X&X&X&X&X&X&X&X&X&X&X&X&X&X&X&X&X&X&X&X&X&X&X&X&X&X&X&X&X&X&X&X&X&X&X&X&X&X&X&X&X",
"&X&X&X&X&X&X&X&X&X&X&X&X&X&X&X&X&X&X&X&X&X&X&X&X&X&X&X&X&X&X&X&X&X&X&X&X&X&X&X&X&X&X&X&X&X&X&X&X&X&X&X&X&X&X&X&X&X&X&X&X",
"&X&X&X&X&X&X&X&X&X&X&X&X&X&X&X&X&X&X&X&X&X&X&X&X&X&X&X&X&X&X&X&X&X&X&X&X&X&X&X&X&X&X&X&X&X&X&X&X&X&X&X&X&X&X&X&X&X&X&X&X",
"&X&X&X&X&X&X&X&X&X&X&X&X&X&X&X&X&X&X&X&X&X&X&X&X&X&X&X&X&X&X&X&X&X&X&X&X&X&X&X&X&X&X&X&X&X&X&X&X&X&X&X&X&X&X&X&X&X&X&X&X",
"&X&X&X&X&X&X&X&X&X&X&X&X&X&X&X&X&X&X&X&X&X&X&X&X&X&X&X&X&X&X&X&X&X&X&X&X&X&X&X&X&X&X&X&X&X&X&X&X&X&X&X&X&X&X&X&X&X&X&X&X",
"&X&X&X&X&X&X&X&X&X&X&X&X&X&X&X&X&X&X&X&X&X&X&X&X&X&X&X&X&X&X&X&X&X&X&X&X&X&X&X&X&X&X&X&X&X&X&X&X&X&X&X&X&X&X&X&X&X&X&X&X",
"&X&X&X&X&X&X&X&X&X&X&X&X&X&X&X&X&X&X&X&X&X&X&X&X&X&X&X&X&X&X&X&X&X&X&X&X&X&X&X&X&X&X&X&X&X&X&X&X&X&X&X&X&X&X&X&X&X&X&X&X",
"&X&X&X&X&X&X&X&X&X&X&X&X&X&X&X&X&X&X&X&X&X&X&X&X&X&X&X&X&X&X&X&X&X&X&X&X&X&X&X&X&X&X&X&X&X&X&X&X&X&X&X&X&X&X&X&X&X&X&X&X",
"&X&X&X&X&X&X&X&X&X&X&X&X&X&X&X&X&X&X&X&X&X&X&X&X&X&X&X&X&X&X&X&X&X&X&X&X&X&X&X&X&X&X&X&X&X&X&X&X&X&X&X&X&X&X&X&X&X&X&X&X",
"&X&X&X&X&X&X&X&X&X&X&X&X&X&X&X&X&X&X&X&X&X&X&X&X&X&X&X&X&X&X&X&X&X&X&X&X&X&X&X  /.&X&X&X&X&X&X&X&X&X&X&X&X&X&X&X&X&X&X&X",
"&X&X&X&X&X&X&X&X&X&X&X&X&X&X&X&X&X&X&X&X&X&X&X&X&X&X&X&X&X&X&X&X&X&X&X&X&X&X: )._.s.&X&X&X&X&X&X&X&X&X&X&X&X&X&X&X&X&X&X",
"&X&X&X&X&X&X&X&X&X&X&X&X&X&X&X&X&X&X&X&X&X&X&X&X&X&X&X&X&X&X&X&X&X&XC &X&Xn {. Xv.'.x.&X&X&X&X&X&X&X&X&X&X&X&X&X&X&X&X&X",
"&X&X&X&X&X&X&X&X&X&X&X&X&X&X&X&X&X&X&X&X&X&X&X&X&X&X&X&X&X&X&X&X&Xo.2.&X&XM XXz.}.  l.&Xk.&X&X&X&X&X&X&X&X&X&X&X&X&X&X&X",
"&X&X&X&X&X&X&X&X&X&X&X&X&X&X&X&X&X&X&X&X&X&X&X&X&X&X&X&X&X&X&X&Xj j j p &X&X  `.Y.J.OXoX%Xl &X&X&X&X&X&X&X&X&X&X&X&X&X&X",
"&X&X&X&X&X&X&X&X&X&X&X&X&X&X&X&X&X&X&X&X&X&X&X&X&X&X&X&X&X&X&Xy G.G.G.| &X&X&X&X&X&X&X@X2 $X&X&X&X&X&X&X&X&X&X&X&X&X&X&X",
"&X&X&X&X&X&X&X&X&X&X&X&X&X&X&X&X&X&X&X&X&X&X&X&X&X&X&X&X&X&X&XZ.G.G.G.G.d.&X&X&X&X&X&XK   +X&X&X&X&X&X&X&X&X&X&X&X&X&X&X",
"&X&X&X&X&X&X&X&X&X&X&X&X&X&X&X&X&X&X&X&X&X&X&X&X&X&X&X&X&X&X&XS.b.V.G.G.f.  &X&X&X&X&X, o ,.&X&X&X&X&X&X&X&X&X&X&X&X&X&X",
"&X&X&X&X&X&X&X&X&X&X&X&X&X&X&X&X&X&X&X&X&X&X&X&X&X&X&X  g &XH [ N.G.G.h.L.;.&X&X&X&Xf a.O i.&X&X&X&X&X&X&X&X&X&X&X&X&X&X",
"&X&X&X&X&X&X&X&X&X&X&X&X&X&X&X&X&X&X&X&X&X&X&X&X&X&X&Xa a.w F  .G.G.C.:.~.U.&X&X&Xm e.5.O u.&X&X&X&X&X&X&X&X&X&X&X&X&X&X",
"&X&X&X&X&X&X&X&X&X&X&X&X&X&X&X&X&X&X&X&X&X&X&X&X&X&X&X) a.a.J G.A.B.u E.E.^.b &X  ~ Y a.0 w.&X&X&X&X&X&X&X&X&X&X&X&X&X&X",
"&X&X&X&X&X&X&X&X&X&X&X&X&X&X&X&X&X&X&X&X&X&X&X&X&X&X&X) p.a.a.+ M.c ' n.R.Q.6 9 y.X X.a.y.) g &X&X&X&X&X&X&X&X&X&X&X&X&X",
"&X&X&X&X&X&X&X&X&X&X&X&X&X&X&X&X&X&X&X&X&X&X&X&X&X&X&X) r.a.a.a.8.> % 8.4.v 9 i.8.O i a.y.) g &X&X&X&X&X&X&X&X&X&X&X&X&X",
"&X&X&X&X&X&X&X&X&X&X&X&X&X&X&X&X&X&X&X&X&X&X&X&X&X&X&XP 2.a.a.a.a.a.q.7.V z t.a.a.a.A 5.y.P g &X&X&X&X&X&X&X&X&X&X&X&X&X",
"&X&X&X&X&X&X&X&X&X&X&X&X&X&X&X&X&X&X&X&X&X&X&X&X&X&X&Xq ` 6.9.2.2.( / N 5 ! 0.a.a.a.Q ^ y.P g &X&X&X&X&X&X&X&X&X&X&X&X&X",
"&X&X&X&X&X&X&X&X&X&X&X&X&X&X&X&X&X&X&X&X&X&X&X&X&X&X&XG I O.2.@.R @   &X5 E _ _ 9.3.s ^ y.h e &X&X&X&X&X&X&X&X&X&X&X&X&X",
"&X&X&X&X&X&X&X&X&X&X&X&X&X&X&X&X&X&X&X&X&X&X&X&X&X&X&XZ.} U +.T   &X&X&X&X      B E W 5.y.S H.&X&X&X&X&X&X&X&X&X&X&X&X&X",
"&X&X&X&X&X&X&X&X&X&X&X&X&X&X&X&X&X&X&X&X&X&X&X&X&X&X& D.F.] T B &X&X&X&X&X&X&X&X&Xd ^ a.8.. #XK.3 &X&X&X&X&X&X&X&X&X&X&X",
"&X&X&X&X&X&X&X&X&X&X&X&X&X&X&X&X&X&X&X&X&X&X&X&X&X&X&X< g.m.L O &X&X&X&X&X&X&X&X&X&X$ ; . # k %X%X  &X&X&X&X&X&X&X&X&X&X",
"&X&X&X&X&X&X&X&X&X&X&X&X&X&X&X&X&X&X&X&X&X&X&X&X&X&X&X%.D { ..  &X&X&X&X&X&X&X&X&X&X&X&Xj.< - %X%X  &X&X&X&X&X&X&X&X&X&X",
"&X&X&X&X&X&X&X&X&X&X&X&X&X&X&X&X&X&X&X&X&X&X&X&X&X&X$..X#.  x &X&X&X&X&X&X&X&X&X&X&X&X[.!.1 Z ].|.  &X&X&X&X&X&X&X&X&X&X",
"&X&X&X&X&X&X&X&X&X&X&X&X&X&X&X&X&X&X&X&X&X&X&X&X&Xc.(.I.&X&X4 &X&X&X&X&X&X&X&X&X&X&X&X>.W.7 -.t 1.  &X&X&X&X&X&X&X&X&X&X",
"&X&X&X&X&X&X&X&X&X&X&X&X&X&X&X&X&X&X&X&X&X&X&X&X&XP.&X&X&X&X&X&X&X&X&X&X&X&X&X&X&X&X&X= T.r <.&.=.  &X&X&X&X&X&X&X&X&X&X",
"&X&X&X&X&X&X&X&X&X&X&X&X&X&X&X&X&X&X&X&X&X&X&X&X&X&X&X&X&X&X&X&X&X&X&X&X&X&X&X&X&X&X&X&X* *.8     &X&X&X&X&X&X&X&X&X&X&X",
"&X&X&X&X&X&X&X&X&X&X&X&X&X&X&X&X&X&X&X&X&X&X&X&X&X&X&X&X&X&X&X&X&X&X&X&X&X&X&X&X&X&X&X&X&X&X&X&X&X&X&X&X&X&X&X&X&X&X&X&X",
"&X&X&X&X&X&X&X&X&X&X&X&X&X&X&X&X&X&X&X&X&X&X&X&X&X&X&X&X&X&X&X&X&X&X&X&X&X&X&X&X&X&X&X&X&X&X&X&X&X&X&X&X&X&X&X&X&X&X&X&X",
"&X&X&X&X&X&X&X&X&X&X&X&X&X&X&X&X&X&X&X&X&X&X&X&X&X&X&X&X&X&X&X&X&X&X&X&X&X&X&X&X&X&X&X&X&X&X&X&X&X&X&X&X&X&X&X&X&X&X&X&X",
"&X&X&X&X&X&X&X&X&X&X&X&X&X&X&X&X&X&X&X&X&X&X&X&X&X&X&X&X&X&X&X&X&X&X&X&X&X&X&X&X&X&X&X&X&X&X&X&X&X&X&X&X&X&X&X&X&X&X&X&X",
"&X&X&X&X&X&X&X&X&X&X&X&X&X&X&X&X&X&X&X&X&X&X&X&X&X&X&X&X&X&X&X&X&X&X&X&X&X&X&X&X&X&X&X&X&X&X&X&X&X&X&X&X&X&X&X&X&X&X&X&X",
"&X&X&X&X&X&X&X&X&X&X&X&X&X&X&X&X&X&X&X&X&X&X&X&X&X&X&X&X&X&X&X&X&X&X&X&X&X&X&X&X&X&X&X&X&X&X&X&X&X&X&X&X&X&X&X&X&X&X&X&X",
"&X&X&X&X&X&X&X&X&X&X&X&X&X&X&X&X&X&X&X&X&X&X&X&X&X&X&X&X&X&X&X&X&X&X&X&X&X&X&X&X&X&X&X&X&X&X&X&X&X&X&X&X&X&X&X&X&X&X&X&X",
"&X&X&X&X&X&X&X&X&X&X&X&X&X&X&X&X&X&X&X&X&X&X&X&X&X&X&X&X&X&X&X&X&X&X&X&X&X&X&X&X&X&X&X&X&X&X&X&X&X&X&X&X&X&X&X&X&X&X&X&X",
"&X&X&X&X&X&X&X&X&X&X&X&X&X&X&X&X&X&X&X&X&X&X&X&X&X&X&X&X&X&X&X&X&X&X&X&X&X&X&X&X&X&X&X&X&X&X&X&X&X&X&X&X&X&X&X&X&X&X&X&X",
"&X&X&X&X&X&X&X&X&X&X&X&X&X&X&X&X&X&X&X&X&X&X&X&X&X&X&X&X&X&X&X&X&X&X&X&X&X&X&X&X&X&X&X&X&X&X&X&X&X&X&X&X&X&X&X&X&X&X&X&X",
"&X&X&X&X&X&X&X&X&X&X&X&X&X&X&X&X&X&X&X&X&X&X&X&X&X&X&X&X&X&X&X&X&X&X&X&X&X&X&X&X&X&X&X&X&X&X&X&X&X&X&X&X&X&X&X&X&X&X&X&X",
"&X&X&X&X&X&X&X&X&X&X&X&X&X&X&X&X&X&X&X&X&X&X&X&X&X&X&X&X&X&X&X&X&X&X&X&X&X&X&X&X&X&X&X&X&X&X&X&X&X&X&X&X&X&X&X&X&X&X&X&X",
"&X&X&X&X&X&X&X&X&X&X&X&X&X&X&X&X&X&X&X&X&X&X&X&X&X&X&X&X&X&X&X&X&X&X&X&X&X&X&X&X&X&X&X&X&X&X&X&X&X&X&X&X&X&X&X&X&X&X&X&X",
"&X&X&X&X&X&X&X&X&X&X&X&X&X&X&X&X&X&X&X&X&X&X&X&X&X&X&X&X&X&X&X&X&X&X&X&X&X&X&X&X&X&X&X&X&X&X&X&X&X&X&X&X&X&X&X&X&X&X&X&X",
"&X&X&X&X&X&X&X&X&X&X&X&X&X&X&X&X&X&X&X&X&X&X&X&X&X&X&X&X&X&X&X&X&X&X&X&X&X&X&X&X&X&X&X&X&X&X&X&X&X&X&X&X&X&X&X&X&X&X&X&X",
"&X&X&X&X&X&X&X&X&X&X&X&X&X&X&X&X&X&X&X&X&X&X&X&X&X&X&X&X&X&X&X&X&X&X&X&X&X&X&X&X&X&X&X&X&X&X&X&X&X&X&X&X&X&X&X&X&X&X&X&X",
"&X&X&X&X&X&X&X&X&X&X&X&X&X&X&X&X&X&X&X&X&X&X&X&X&X&X&X&X&X&X&X&X&X&X&X&X&X&X&X&X&X&X&X&X&X&X&X&X&X&X&X&X&X&X&X&X&X&X&X&X",
"&X&X&X&X&X&X&X&X&X&X&X&X&X&X&X&X&X&X&X&X&X&X&X&X&X&X&X&X&X&X&X&X&X&X&X&X&X&X&X&X&X&X&X&X&X&X&X&X&X&X&X&X&X&X&X&X&X&X&X&X",
"&X&X&X&X&X&X&X&X&X&X&X&X&X&X&X&X&X&X&X&X&X&X&X&X&X&X&X&X&X&X&X&X&X&X&X&X&X&X&X&X&X&X&X&X&X&X&X&X&X&X&X&X&X&X&X&X&X&X&X&X",
"&X&X&X&X&X&X&X&X&X&X&X&X&X&X&X&X&X&X&X&X&X&X&X&X&X&X&X&X&X&X&X&X&X&X&X&X&X&X&X&X&X&X&X&X&X&X&X&X&X&X&X&X&X&X&X&X&X&X&X&X",
"&X&X&X&X&X&X&X&X&X&X&X&X&X&X&X&X&X&X&X&X&X&X&X&X&X&X&X&X&X&X&X&X&X&X&X&X&X&X&X&X&X&X&X&X&X&X&X&X&X&X&X&X&X&X&X&X&X&X&X&X"
};
