/* XPM */
static char * Jump_8_xpm[] = {
"50 50 180 2",
"  	c None",
". 	c #020102",
"+ 	c #0B0607",
"@ 	c #130806",
"# 	c #2A1108",
"$ 	c #31140F",
"% 	c #3B1A1C",
"& 	c #281315",
"* 	c #341314",
"= 	c #3A1615",
"- 	c #592526",
"; 	c #441817",
"> 	c #1A0B0D",
", 	c #411A22",
"' 	c #481135",
") 	c #67173B",
"! 	c #290D15",
"~ 	c #1F1114",
"{ 	c #231717",
"] 	c #1B0E13",
"^ 	c #31141A",
"/ 	c #5E102E",
"( 	c #5C1534",
"_ 	c #992048",
": 	c #6A5143",
"< 	c #AC836C",
"[ 	c #775849",
"} 	c #2C1C1C",
"| 	c #761734",
"1 	c #AB2A55",
"2 	c #836352",
"3 	c #988D8B",
"4 	c #3C3637",
"5 	c #263F35",
"6 	c #8C2B49",
"7 	c #BC2B4D",
"8 	c #181C24",
"9 	c #EDB595",
"0 	c #FFC3A1",
"a 	c #C3957B",
"b 	c #025432",
"c 	c #00462A",
"d 	c #062D1D",
"e 	c #0C130E",
"f 	c #0C0A0C",
"g 	c #493628",
"h 	c #CE9D82",
"i 	c #4C3432",
"j 	c #512B37",
"k 	c #3B1F27",
"l 	c #4C2935",
"m 	c #592F3C",
"n 	c #23131C",
"o 	c #130B0C",
"p 	c #4D3B31",
"q 	c #4F2A38",
"r 	c #5B303D",
"s 	c #391F2B",
"t 	c #160C14",
"u 	c #45242E",
"v 	c #542C3A",
"w 	c #442432",
"x 	c #3D212C",
"y 	c #3D2130",
"z 	c #2A171F",
"A 	c #492633",
"B 	c #2C1827",
"C 	c #341B25",
"D 	c #0B060A",
"E 	c #1B111B",
"F 	c #341C2A",
"G 	c #251522",
"H 	c #290E0E",
"I 	c #0D171B",
"J 	c #17303A",
"K 	c #143B43",
"L 	c #533A32",
"M 	c #142D2D",
"N 	c #074532",
"O 	c #01654D",
"P 	c #065B49",
"Q 	c #104F43",
"R 	c #0E1C22",
"S 	c #050A0D",
"T 	c #3C2D25",
"U 	c #94715D",
"V 	c #4D4A39",
"W 	c #006E42",
"X 	c #007E4B",
"Y 	c #016D4C",
"Z 	c #0C3739",
"` 	c #291725",
" .	c #0C191E",
"..	c #655146",
"+.	c #EAAE91",
"@.	c #005E38",
"#.	c #001C1A",
"$.	c #430F18",
"%.	c #931F31",
"&.	c #0E2425",
"*.	c #095636",
"=.	c #23331F",
"-.	c #B18770",
";.	c #64513B",
">.	c #002616",
",.	c #012C2B",
"'.	c #001B13",
").	c #47311E",
"!.	c #1E140D",
"~.	c #003922",
"{.	c #044944",
"].	c #017346",
"^.	c #00754C",
"/.	c #00693E",
"(.	c #795635",
"_.	c #CF8F58",
":.	c #CC8A57",
"<.	c #894841",
"[.	c #192C36",
"}.	c #192D37",
"|.	c #03110C",
"1.	c #022524",
"2.	c #005451",
"3.	c #19343F",
"4.	c #654137",
"5.	c #6B3933",
"6.	c #9A6A43",
"7.	c #FFB06D",
"8.	c #F8A56B",
"9.	c #E17F65",
"0.	c #C35F5E",
"a.	c #823D43",
"b.	c #070D11",
"c.	c #000D07",
"d.	c #006139",
"e.	c #CC7064",
"f.	c #8B564B",
"g.	c #E98D67",
"h.	c #D87668",
"i.	c #C4625D",
"j.	c #A74F58",
"k.	c #7B3A42",
"l.	c #051415",
"m.	c #723934",
"n.	c #F3AC91",
"o.	c #916F5B",
"p.	c #6B4339",
"q.	c #A47D68",
"r.	c #213324",
"s.	c #BA6A5C",
"t.	c #9C7863",
"u.	c #B6775B",
"v.	c #F3AD8A",
"w.	c #EAA486",
"x.	c #A3534A",
"y.	c #574338",
"z.	c #BA6255",
"A.	c #935048",
"B.	c #934A2F",
"C.	c #CB816C",
"D.	c #173624",
"E.	c #EBAB8E",
"F.	c #B25852",
"G.	c #934E34",
"H.	c #C7775F",
"I.	c #A94D43",
"J.	c #3F201D",
"K.	c #D59A81",
"L.	c #BE836E",
"M.	c #9B6E5B",
"N.	c #4C2925",
"O.	c #A96A57",
"P.	c #D9A588",
"Q.	c #6A322D",
"R.	c #32251F",
"S.	c #9A4C47",
"T.	c #CD665E",
"U.	c #AD5650",
"V.	c #B46649",
"W.	c #A6483A",
"                                                                                                    ",
"                                                                                                    ",
"                                                                                                    ",
"                                                                                                    ",
"                                                                                                    ",
"                                                                                                    ",
"                                                                                                    ",
"                                                                                                    ",
"                                                                                                    ",
"                                                                                                    ",
"                    . . + @ #                                                                       ",
"                $ % & * = & - ;                                                                     ",
"                > % , , - = ' ) !                                                                   ",
"                ~ { ] ^ / $ ( _ /                                                                   ",
"                : < [ } ^ > | _ 1                                                                   ",
"                : 2 3 4 & > 5 6 7 ] 8                                                               ",
"                : 9 0 a } + b c                                                                     ",
"                : 9 0 a } + d e                                                                     ",
"                : 9 0 9 [ f +                                                                       ",
"                  . f a 0 : . .                                 . . . .                             ",
"                      g a h i j k >                         > ~ l m m j n o                         ",
"                        p i q r m s t                     ] u r v w x y l u >                       ",
"                          z A z l m v ^                 > A v s n + . . t B x ]                     ",
"                          n l C n l m m C             D x x ] . D ] { { o . t D                     ",
"                          E y v F n w m m s ] .     ] k F t ] ] { ] ] n ~ ~ o D .                   ",
"                          + G l v k n y v r j u > . n F E ] + + . f H ] ~ ~ ~ ] f                   ",
"                          . n y l v s E F q m m r A f t f I J K K 8 . . ] ] ] ] o                   ",
"                            + E y l q C E F w v r r A L L M N O O P Q K R S . . .                   ",
"                              + n y w y G t F w l m C T : U V W X X X Y Q Z S                       ",
"                                t ` ` t . t t ` y B +  .M ..+.V @.X X X X O #.                      ",
"                                  t t $.%.! . D G E &.*.=.p -.;.*.b @.@.@.@.W >.                    ",
"                                    . f I Z ,.,.I &.N '.).e . g !.. f f f S d ~.                    ",
"                                    #.{.O ].^.^./.].c (._._._.:.<.8 [.[.}.}. .|..                   ",
"                                    >./.X X X X X @.e @ !.# !.!.@ 1.2.{.3.3.}.I .                   ",
"                                    c ].X X X X *.4.5.6.7.8.9.0.a.M 2.2.2.Z R b.                    ",
"                                  c.d.X X X X b 4.e.f.6.g.h.i.j.k.M 2.,.#.l.                        ",
"                                  c.@.X X X b m.h.n.o.. . . . . . . .                               ",
"                                  c.d.X X *.p.e.n.q.        T p L                                   ",
"                                  c.d.X X r.s.n.t.      { 2 u.v.w.x.                                ",
"                                  c.@.X ~.f.n.0 y.. . m.z.A.& B.w.C.                                ",
"                                    >./.D.s.E.[ x.h.i.F.% .   @ G.H.I.                              ",
"                                      '.J.K.h L.9 M.N..           O.s.                              ",
"                                          y.P.0 2 <.Q.            R.Q.                              ",
"                                            . . o S.T.Q.                                            ",
"                                                    N.U.m.                                          ",
"                                                      % x.m.@                                       ",
"                                                        = V.+.V.                                    ",
"                                                        # V.h.I.                                    ",
"                                                        # W.I.                                      ",
"                                                        M.z.W.                                      "};
