/* XPM */
static char *result[] = {
/* columns rows colors chars-per-pixel */
"60 60 234 2 ",
"   c black",
".  c #010000",
"X  c #030101",
"o  c #020002",
"O  c #020102",
"+  c #030102",
"@  c #010202",
"#  c #050203",
"$  c #000503",
"%  c #040204",
"&  c #050204",
"*  c #000505",
"=  c #000704",
"-  c #070407",
";  c #090506",
":  c #0D0506",
">  c #020907",
",  c #010A06",
"<  c #0B0209",
"1  c #090509",
"2  c #0B060B",
"3  c #0C070C",
"4  c #060809",
"5  c #000C08",
"6  c #000F09",
"7  c #0E080E",
"8  c #0E090F",
"9  c #0F090F",
"0  c #130309",
"q  c #18040D",
"w  c #11090B",
"e  c #150B0E",
"r  c #170B0E",
"t  c #120F0F",
"y  c #140F0D",
"u  c #160C0E",
"i  c #180C0F",
"p  c #00140C",
"a  c #110A11",
"s  c #130A12",
"d  c #170C11",
"f  c #170C15",
"g  c #1A0F13",
"h  c #1C0F13",
"j  c #1E0F14",
"k  c #1C0F1A",
"l  c #001716",
"z  c #0D1417",
"x  c #001D11",
"c  c #1F1814",
"v  c #101719",
"b  c #1F111A",
"n  c #1F111E",
"m  c #39190E",
"M  c #3A190E",
"N  c #221216",
"B  c #291316",
"V  c #251319",
"C  c #25141B",
"Z  c #27151D",
"A  c #2F151B",
"S  c #2C171D",
"D  c #311910",
"F  c #30151B",
"G  c #32171B",
"H  c #3E1F1C",
"J  c #002013",
"K  c #2A201A",
"L  c #2B221B",
"P  c #0E1B21",
"I  c #0F1E25",
"U  c #111D24",
"Y  c #101F26",
"T  c #241421",
"R  c #241422",
"E  c #261524",
"W  c #261525",
"Q  c #271625",
"!  c #291727",
"~  c #2A1727",
"^  c #2D1926",
"/  c #2C1828",
"(  c #2E1A29",
")  c #2F1A29",
"_  c #2F1A2A",
"`  c #311A21",
"'  c #321A22",
"]  c #331B22",
"[  c #3C1820",
"{  c #301B2A",
"}  c #321C2A",
"|  c #361E2B",
" . c #341C2C",
".. c #351D2C",
"X. c #351D2D",
"o. c #381F2E",
"O. c #002D29",
"+. c #122129",
"@. c #12222A",
"#. c #003720",
"$. c #003D24",
"%. c #00302E",
"&. c #152832",
"*. c #162933",
"=. c #192C36",
"-. c #003533",
";. c #0D3136",
":. c #003B38",
">. c #352921",
",. c #3B202A",
"<. c #3D212D",
"1. c #3F2332",
"2. c #441C0E",
"3. c #471D0F",
"4. c #42211E",
"5. c #401A22",
"6. c #42222C",
"7. c #44242D",
"8. c #592226",
"9. c #5C2326",
"0. c #4D3521",
"q. c #4D382D",
"w. c #593D26",
"e. c #412433",
"r. c #472530",
"t. c #452532",
"y. c #432534",
"u. c #442534",
"i. c #482630",
"p. c #4B2732",
"a. c #4C2832",
"s. c #4A2836",
"d. c #4E2937",
"f. c #4F2A38",
"g. c #532B37",
"h. c #502A38",
"j. c #502B38",
"k. c #522B38",
"l. c #522B39",
"z. c #522C39",
"x. c #532C3A",
"c. c #552D39",
"v. c #542C3A",
"b. c #552D3A",
"n. c #562D3B",
"m. c #572E3A",
"M. c #572E3B",
"N. c #5B303D",
"B. c #622420",
"V. c #742B25",
"C. c #653430",
"Z. c #004428",
"A. c #004D2E",
"S. c #005130",
"D. c #005432",
"F. c #005633",
"G. c #005935",
"H. c #005B36",
"J. c #00663C",
"K. c #00673D",
"L. c #5F4228",
"P. c #6D4038",
"I. c #634C3E",
"U. c #123940",
"Y. c #153841",
"T. c #0A4346",
"R. c #0F4146",
"E. c #084446",
"W. c #004A46",
"Q. c #0B4649",
"!. c #0C4548",
"~. c #064D4D",
"^. c #03514F",
"/. c #005551",
"(. c #005652",
"). c #39534C",
"_. c #006E41",
"`. c #00654F",
"'. c #00674E",
"]. c #00684E",
"[. c #006F4D",
"{. c #006C4E",
"}. c #007948",
"|. c #00794B",
" X c #007B4B",
".X c #007C49",
"XX c #007D4B",
"oX c #007E4B",
"OX c #664D40",
"+X c #684F42",
"@X c #6C5244",
"#X c #6F5546",
"$X c #8A3130",
"%X c #963D36",
"&X c #983B35",
"*X c #85423D",
"=X c #9C443B",
"-X c #CD643F",
";X c #A52446",
":X c #BA2745",
">X c #C93865",
",X c #A44F44",
"<X c #AD564F",
"1X c #A44D57",
"2X c #A15B51",
"3X c #896956",
"4X c #8F6D5A",
"5X c #B37C4D",
"6X c #9F7964",
"7X c #A67E68",
"8X c #BB7863",
"9X c #D0665E",
"0X c #D36861",
"qX c #D56A62",
"wX c #AF866E",
"eX c #B98D74",
"rX c #BE9178",
"tX c #C38653",
"yX c #CD8B58",
"uX c #CF8F58",
"iX c #C8927A",
"pX c #E48466",
"aX c #E7907D",
"sX c #EFA566",
"dX c #CD9C81",
"fX c #CF9E82",
"gX c #D5A386",
"hX c #C6A593",
"jX c #F0A488",
"kX c #E4AE90",
"lX c #F6B093",
"zX c #FBBD9A",
"xX c #FFC3A1",
"cX c None",
/* pixels */
"cXcXcXcXcXcXcXcXcXcXcXcXcXcXcXcXcXcXcXcXcXcXcXcXcXcXcXcXcXcXcXcXcXcXcXcXcXcXcXcXcXcXcXcXcXcXcXcXcXcXcXcXcXcXcXcXcXcXcXcX",
"cXcXcXcXcXcXcXcXcXcXcXcXcXcXcXcXcXcXcXcXcXcXcXcXcXcXcXcXcXcXcXcXcXcXcXcXcXcXcXcXcXcXcXcXcXcXcXcXcXcXcXcXcXcXcXcXcXcXcXcX",
"cXcXcXcXcXcXcXcXcXcXcXcXcXcXcXcXcXcXcXcXcXcXcXcXcXcXcXcXcXcXcXcXcXcXcXcXcXcXcXcXcXcXcXcXcXcXcXcXcXcXcXcXcXcXcXcXcXcXcXcX",
"cXcXcXcXcXcXcXcXcXcXcXcXcXcXcXcXcXcXcXcXcXcXcXcXcXcXcXcXcXcXcXcXcXcXcXcXcXcXcXcXcXcXcXcXcXcXcXcXcXcXcXcXcXcXcXcXcXcXcXcX",
"cXcXcXcXcXcXcXcXcXcXcXcXcXcXcXcXcXcXcXcXcXcXcXcXcXcXcXcXcXcXcXcXcXcXcXcXcXcXcXcXcXcXcXcXcXcXcXcXcXcXcXcXcXcXcXcXcXcXcXcX",
"cXcXcXcXcXcXcXcXcXcXcXcXcXcXcXcXcXcXcXcXcXcXcXcXcXcXcXcXcXcXcXV.cXcXcXcXcXcXcXcXcXcXcXcXcXcXcXcXcXcXcXcXcXcXcXcXcXcXcXcX",
"cXcXcXcXcXcXcXcXcXcXcXcXcXcXcXcXcXcXcXcXcXcXcXcXcXcXcXcXcXcXcX,X3.cXcXcXcXcXcXcXcXcXcXcXcXcXcXcXcXcXcXcXcXcXcXcXcXcXcXcX",
"cXcXcXcXcXcXcXcXcXcXcXcXcXcXcXcXcXcXcXcXcXcXcXcXcXcXcXcXcXcXcXcXzXm cXcXcXcXcXcXcXcXcXcXcXcXcXcXcXcXcXcXcXcXcXcXcXcXcXcX",
"cXcXcXcXcXcXcXcXcXcXcXcXcXcXcXcXcXcXcXcXcXcXcXcXcXcXcXcXcXcXcXcX%X-XcXcXcXcXcXcXcXcXcXcXcXcXcXcXcXcXcXcXcXcXcXcXcXcXcXcX",
"cXcXcXcXcXcXcXcXcXcXcXcXcXcXcXcXcXcXcXcXcXcXcXcXcXcXcXcXcXcXcXcXcXc q.cXcXcXcXcXcXcXcXcXcXcXcXcXcXcXcXcXcXcXcXcXcXcXcXcX",
"cXcXcXcXcXcXcXcXcXcXcXcXcXcXcXcXcXcXcXcXcXcXcXcXcX    cXcXcXcXcXcXcXwXcXcXcXcXcXcXcXcXcXcXcXcXcXcXcXcXcXcXcXcXcXcXcXcXcX",
"cXcXcXcXcXcXcXcXcXcXcXcXcXcXcXcXcXcXcXcXcXcXcXcXcXZ.oXA.J cXcXcXcXcX  #XcXcXcXcXcXcXcXcXcXcXcXcXcXcXcXcXcXcXcXcXcXcXcXcX",
"cXcXcXcXcXcXcXcXcXcXcXcXcXcXcXcXcXcXcXcXcXcXcXcXcXcXoXoXoXS.cXcXcXcXcXgX  cXcXcXcXcXcXcXcXcXcXcXcXcXcXcXcXcXcXcXcXcXcXcX",
"cXcXcXcXcXcXcXcXcXcXcXcXcXcXcXcXcXcXcXcXcXcXcXcXcXcXK.oXoXoXp cXcXcXcX4XK cXcXcXcXcXcXcXcXcXcXcXcXcXcXcXcXcXcXcXcXcXcXcX",
"cXcXcXcXcXcXcXcXcXcXcXcXcXcXcXcXcXcXcXcXcXcXcXcXcXcX= XXoXoXoX  cXcXcX4X6XcXcXcXcXcXcXcXcXcXcXcXcXcXcXcXcXcXcXcXcXcXcXcX",
"cXcXcXcXcXcXcXcXcXcXcXcXcXcXcXcXcXcXcXcXcXcXcXcXcXcX* |.oXoXoXH.cXcXcX4X6XcXcXcXcXcX  cXcXcXcXcXcXcXcXcXcXcXcXcXcXcXcXcX",
"cXcXcXcXcXcXcXcXcXcXcXcXcXcXcXcXcXcXcXcXcXcXcXcXcXL @ U.oXoXoXJ.cXcXcX4XxX  cXcXcXW.-.cXcXcXcXcXcXcXcXcXcXcXcXcXcXcXcXcX",
"cXcXcXcXcXcXcXcXcXcXcXcXcXcXcXcXcXcXcXcXcXcXcXI.2XaX+ ] F.oXoXoX  cX  xXlX  $ %.W.(.l cXcXcXcXcXcXcXcXcXcXcXcXcXcXcXcXcX",
"cXcXcXcXcXcXcXcXcXcXcXcXcXcXcXcXcXcXcXcXcX2.8X*X    N.N.:.oXoXoX}.cXiXlX*XY.(.(.(.;.x cXcXcXcXcXcXcXcXcXcXcXcXcXcXcXcXcX",
"cXcXcXcXcXcXcXcXcXcXcXcXcXcXcXcXcXcXcXcXM jX4.cXcXw N.N.@.{.oXoXoXoXP.qXC.=.~.~.*.D.  cXcXcXcXcXcXcXcXcXcXcXcXcXcXcXcXcX",
"cXcXcXcXcXcXcXcXcXcXcXcXcXcXcXcXcXcXcXD 9X&XcXcXcXN.N.N.+./.oXoXoXoXoX= 4 v v > G.#.cXcXcXcXcXcXcXcXcXcXcXcXcXcXcXcXcXcX",
"cXcXcXcXcXcXcXcXcXcXcXcXcXcXcXcXcXcXcX=XcXcXcXcXd N.N.N.g Q.].oXoXoXoXoX_._._..XoX5 cXcXcXcXcXcXcXcXcXcXcXcXcXcXcXcXcXcX",
"cXcXcXcXcXcXcXcXcXcXcXcXcXcXcXcXcXcXcXcXcXcXcXcX| N.N.N.p.z !.`.oXoXoXoXoXoXoXoX$.cXcXcXcXcXcXcXcXcXcXcXcXcXcXcXcXcXcXcX",
"cXcXcXcXcXcXcXcXcXcXcXcXcXcXcXcXcXcXcXcXcXcXcX9 o.f.N.N.N.7.z R.'. XoXoXoXoX'.O.cXcXcXcXcXcXcXcXcXcXcXcXcXcXcXcXcXcXcXcX",
"cXcXcXcXcXcXcXcXcXcXcXcXcXcXcXcXcXcXcXcXcXcXcXf ( u.N.N.N.N.,.8 Y T.^.[.[.E.I cXcXcXcXcXcXcXcXcXcXcXcXcXcXcXcXcXcXcXcXcX",
"cXcXcXcXcXcXcXcXcXcXcXcXcXcXcXcXcXcXcXcXcXcXcXcXR / e.x.n.s.X.Q 1 2 U &.P   cXcXcXcXcXcXcXcXcXcXcXcXcXcXcXcXcXcXcXcXcXcX",
"cXcXcXcXcXcXcXcXcXcXcXcXcXcXcXcXcXcXcXcXcXcXcXcXcXW ! ! ! ! ! n ~ ~ ! a cXcXcXcXcXcXcXcXcXcXcXcXcXcXcXcXcXcXcXcXcXcXcXcX",
"cXcXcXcXcXcXcXcXcXcXcXcXcXcXcXcXcXcXcXcXcXcXcXcXcXcX- ! ! ! & ^ M.y._ a cXcXcXcXcXcXcXcXcXcXcXcXcXcXcXcXcXcXcXcXcXcXcXcX",
"cXcXcXcXcXcXcXcXcXcXcXcXcXcXcXcXcXcXcXcXcXcXcXcXcXcXcXcX  k Z N.N.N.{ a cXcX. cXcXcXcXcXcXcXcXcXcXcXcXcXcXcXcXcXcXcXcXcX",
"cXcXcXcXcXcXcXcXcXcXcXcXcXcXcXcXcXcXcXcXcXcXcXcXcXcXcXcX  k 6.N.N.N. .cX  y +X    cXcXcXcXcXcXcXcXcXcXcXcXcXcXcXcXcXcXcX",
"cXcXcXcXcXcXcXcXcXcXcXcXcXcXcXcXcXcXcXcXcXcXcXcXcXcXcXcXN 6.N.N.N.z.3 cXL.pX0X1XG cXcXcXcXcXcXcXcXcXcXcXcXcXcXcXcXcXcXcX",
"cXcXcXcXcXcXcXcXcXcXcXcXcXcXcXcXcXcXcXcXcXq >XcXcXcXe l.k.N.N.N.v.T cXcX0.uXyX<XB cXcXcXcXcXcXcXcXcXcXcXcXcXcXcXcXcXcXcX",
"cXcXcXcXcXcXcXcXcXcXcXcXcXcXcXcXcXcXcXcX$X:X;X).t cXN.) k d.j.1.E % cXo w.sXsXsXH cXcXcXcXcXcXcXcXcXcXcXcXcXcXcXcXcXcXcX",
"cXcXcXcXcXcXcXcXcXcXcXcXcXcXcXcXcXcXcX: [ < 0 6 , u N.b.7 ~ / & cX    } ` 5X  tXcXcXcXcXcXcXcXcXcXcXcXcXcXcXcXcXcXcXcXcX",
"cXcXcXcXcXcXcXcXcXcXcXcXcXcXcXcXcXcXcXX B.8.F r ; rX7Xg.h.s k k k ..C h ] ' xXc cXcXcXcXcXcXcXcXcXcXcXcXcXcXcXcXcXcXcXcX",
"cXcXcXcXcXcXcXcXcXcXcXcXcXcXcXcXcXcXcX  5.A OXhXxXkXcXV N.d.b f f O <.n.>.3X@XcXcXcXcXcXcXcXcXcXcXcXcXcXcXcXcXcXcXcXcXcX",
"cXcXcXcXcXcXcXcXcXcXcXcXcXcXcXcXcXcXcXcX9.i dXeXxXfXcXcXS a.N.N.m.t.N.r.    cXcXcXcXcXcXcXcXcXcXcXcXcXcXcXcXcXcXcXcXcXcX",
"cXcXcXcXcXcXcXcXcXcXcXcXcXcXcXcXcXcXcXcX            cXcXcXcXj i.N.N.N.cXcXcXcXcXcXcXcXcXcXcXcXcXcXcXcXcXcXcXcXcXcXcXcXcX",
"cXcXcXcXcXcXcXcXcXcXcXcXcXcXcXcXcXcXcXcXcXcXcXcXcXcXcXcXcXcXcXcX# c.c.cXcXcXcXcXcXcXcXcXcXcXcXcXcXcXcXcXcXcXcXcXcXcXcXcX",
"cXcXcXcXcXcXcXcXcXcXcXcXcXcXcXcXcXcXcXcXcXcXcXcXcXcXcXcXcXcXcXcXcXcXcXcXcXcXcXcXcXcXcXcXcXcXcXcXcXcXcXcXcXcXcXcXcXcXcXcX",
"cXcXcXcXcXcXcXcXcXcXcXcXcXcXcXcXcXcXcXcXcXcXcXcXcXcXcXcXcXcXcXcXcXcXcXcXcXcXcXcXcXcXcXcXcXcXcXcXcXcXcXcXcXcXcXcXcXcXcXcX",
"cXcXcXcXcXcXcXcXcXcXcXcXcXcXcXcXcXcXcXcXcXcXcXcXcXcXcXcXcXcXcXcXcXcXcXcXcXcXcXcXcXcXcXcXcXcXcXcXcXcXcXcXcXcXcXcXcXcXcXcX",
"cXcXcXcXcXcXcXcXcXcXcXcXcXcXcXcXcXcXcXcXcXcXcXcXcXcXcXcXcXcXcXcXcXcXcXcXcXcXcXcXcXcXcXcXcXcXcXcXcXcXcXcXcXcXcXcXcXcXcXcX",
"cXcXcXcXcXcXcXcXcXcXcXcXcXcXcXcXcXcXcXcXcXcXcXcXcXcXcXcXcXcXcXcXcXcXcXcXcXcXcXcXcXcXcXcXcXcXcXcXcXcXcXcXcXcXcXcXcXcXcXcX",
"cXcXcXcXcXcXcXcXcXcXcXcXcXcXcXcXcXcXcXcXcXcXcXcXcXcXcXcXcXcXcXcXcXcXcXcXcXcXcXcXcXcXcXcXcXcXcXcXcXcXcXcXcXcXcXcXcXcXcXcX",
"cXcXcXcXcXcXcXcXcXcXcXcXcXcXcXcXcXcXcXcXcXcXcXcXcXcXcXcXcXcXcXcXcXcXcXcXcXcXcXcXcXcXcXcXcXcXcXcXcXcXcXcXcXcXcXcXcXcXcXcX",
"cXcXcXcXcXcXcXcXcXcXcXcXcXcXcXcXcXcXcXcXcXcXcXcXcXcXcXcXcXcXcXcXcXcXcXcXcXcXcXcXcXcXcXcXcXcXcXcXcXcXcXcXcXcXcXcXcXcXcXcX",
"cXcXcXcXcXcXcXcXcXcXcXcXcXcXcXcXcXcXcXcXcXcXcXcXcXcXcXcXcXcXcXcXcXcXcXcXcXcXcXcXcXcXcXcXcXcXcXcXcXcXcXcXcXcXcXcXcXcXcXcX",
"cXcXcXcXcXcXcXcXcXcXcXcXcXcXcXcXcXcXcXcXcXcXcXcXcXcXcXcXcXcXcXcXcXcXcXcXcXcXcXcXcXcXcXcXcXcXcXcXcXcXcXcXcXcXcXcXcXcXcXcX",
"cXcXcXcXcXcXcXcXcXcXcXcXcXcXcXcXcXcXcXcXcXcXcXcXcXcXcXcXcXcXcXcXcXcXcXcXcXcXcXcXcXcXcXcXcXcXcXcXcXcXcXcXcXcXcXcXcXcXcXcX",
"cXcXcXcXcXcXcXcXcXcXcXcXcXcXcXcXcXcXcXcXcXcXcXcXcXcXcXcXcXcXcXcXcXcXcXcXcXcXcXcXcXcXcXcXcXcXcXcXcXcXcXcXcXcXcXcXcXcXcXcX",
"cXcXcXcXcXcXcXcXcXcXcXcXcXcXcXcXcXcXcXcXcXcXcXcXcXcXcXcXcXcXcXcXcXcXcXcXcXcXcXcXcXcXcXcXcXcXcXcXcXcXcXcXcXcXcXcXcXcXcXcX",
"cXcXcXcXcXcXcXcXcXcXcXcXcXcXcXcXcXcXcXcXcXcXcXcXcXcXcXcXcXcXcXcXcXcXcXcXcXcXcXcXcXcXcXcXcXcXcXcXcXcXcXcXcXcXcXcXcXcXcXcX",
"cXcXcXcXcXcXcXcXcXcXcXcXcXcXcXcXcXcXcXcXcXcXcXcXcXcXcXcXcXcXcXcXcXcXcXcXcXcXcXcXcXcXcXcXcXcXcXcXcXcXcXcXcXcXcXcXcXcXcXcX",
"cXcXcXcXcXcXcXcXcXcXcXcXcXcXcXcXcXcXcXcXcXcXcXcXcXcXcXcXcXcXcXcXcXcXcXcXcXcXcXcXcXcXcXcXcXcXcXcXcXcXcXcXcXcXcXcXcXcXcXcX",
"cXcXcXcXcXcXcXcXcXcXcXcXcXcXcXcXcXcXcXcXcXcXcXcXcXcXcXcXcXcXcXcXcXcXcXcXcXcXcXcXcXcXcXcXcXcXcXcXcXcXcXcXcXcXcXcXcXcXcXcX",
"cXcXcXcXcXcXcXcXcXcXcXcXcXcXcXcXcXcXcXcXcXcXcXcXcXcXcXcXcXcXcXcXcXcXcXcXcXcXcXcXcXcXcXcXcXcXcXcXcXcXcXcXcXcXcXcXcXcXcXcX",
"cXcXcXcXcXcXcXcXcXcXcXcXcXcXcXcXcXcXcXcXcXcXcXcXcXcXcXcXcXcXcXcXcXcXcXcXcXcXcXcXcXcXcXcXcXcXcXcXcXcXcXcXcXcXcXcXcXcXcXcX",
"cXcXcXcXcXcXcXcXcXcXcXcXcXcXcXcXcXcXcXcXcXcXcXcXcXcXcXcXcXcXcXcXcXcXcXcXcXcXcXcXcXcXcXcXcXcXcXcXcXcXcXcXcXcXcXcXcXcXcXcX",
"cXcXcXcXcXcXcXcXcXcXcXcXcXcXcXcXcXcXcXcXcXcXcXcXcXcXcXcXcXcXcXcXcXcXcXcXcXcXcXcXcXcXcXcXcXcXcXcXcXcXcXcXcXcXcXcXcXcXcXcX"
};
