/* XPM */
static char * Jump_5_xpm[] = {
"50 68 167 2",
"  	c None",
". 	c #34171C",
"+ 	c #602D33",
"@ 	c #3B1C1D",
"# 	c #291514",
"$ 	c #783845",
"% 	c #A04B56",
"& 	c #8E434D",
"* 	c #3C1C24",
"= 	c #9A4D45",
"- 	c #C6685C",
"; 	c #B25757",
"> 	c #6E3A32",
", 	c #401A22",
"' 	c #160C12",
") 	c #13090D",
"! 	c #DF7C64",
"~ 	c #764734",
"{ 	c #B27B4C",
"] 	c #604228",
"^ 	c #24141C",
"/ 	c #3E2231",
"( 	c #6D4432",
"_ 	c #F09769",
": 	c #DC935E",
"< 	c #91643D",
"[ 	c #C58854",
"} 	c #9D6D43",
"| 	c #2F2114",
"1 	c #090807",
"2 	c #020102",
"3 	c #3B212C",
"4 	c #432433",
"5 	c #895E3A",
"6 	c #BA8E75",
"7 	c #836453",
"8 	c #42322A",
"9 	c #020C09",
"0 	c #00150D",
"a 	c #1B131B",
"b 	c #1A0E15",
"c 	c #2B1E17",
"d 	c #6F4D2F",
"e 	c #765235",
"f 	c #9E7963",
"g 	c #EBB494",
"h 	c #FDC19F",
"i 	c #AD846D",
"j 	c #1B1312",
"k 	c #045131",
"l 	c #007E4B",
"m 	c #055538",
"n 	c #C4967B",
"o 	c #574237",
"p 	c #00301C",
"q 	c #007545",
"r 	c #00623A",
"s 	c #002213",
"t 	c #614A3D",
"u 	c #4F3C32",
"v 	c #4B392F",
"w 	c #026C4B",
"x 	c #015450",
"y 	c #015C4F",
"z 	c #01754B",
"A 	c #090506",
"B 	c #003C23",
"C 	c #103D43",
"D 	c #164533",
"E 	c #18090D",
"F 	c #2C191D",
"G 	c #492732",
"H 	c #331B23",
"I 	c #04432A",
"J 	c #052D2C",
"K 	c #053426",
"L 	c #642626",
"M 	c #A6233A",
"N 	c #5C131F",
"O 	c #43242E",
"P 	c #542D3A",
"Q 	c #2A151B",
"R 	c #3A1F2B",
"S 	c #000B06",
"T 	c #004226",
"U 	c #006C43",
"V 	c #014E2E",
"W 	c #641924",
"X 	c #C32943",
"Y 	c #C92B44",
"Z 	c #701726",
"` 	c #5B303D",
" .	c #002C1A",
"..	c #00693E",
"+.	c #02544E",
"@.	c #560D30",
"#.	c #941A4D",
"$.	c #B52547",
"%.	c #362622",
"&.	c #0A442C",
"*.	c #094B48",
"=.	c #10262B",
"-.	c #380C28",
";.	c #8C174F",
">.	c #9E1D4B",
",.	c #841C2D",
"'.	c #270A0C",
").	c #0C050A",
"!.	c #291724",
"~.	c #592F3C",
"{.	c #4F2A38",
"].	c #0A2C1D",
"^.	c #004033",
"/.	c #1B0E19",
"(.	c #4C1136",
"_.	c #6E174D",
":.	c #82174E",
"<.	c #250C13",
"[.	c #2D1A23",
"}.	c #4B2836",
"|.	c #0D0A0C",
"1.	c #130509",
"2.	c #53121D",
"3.	c #541520",
"4.	c #512B36",
"5.	c #2D1929",
"6.	c #341C2C",
"7.	c #241421",
"8.	c #221316",
"9.	c #171729",
"0.	c #442E2C",
"a.	c #BF9278",
"b.	c #2E231D",
"c.	c #092427",
"d.	c #F5BB9A",
"e.	c #FFC3A1",
"f.	c #765A4B",
"g.	c #113837",
"h.	c #192F3A",
"i.	c #0B1917",
"j.	c #562413",
"k.	c #8A3C27",
"l.	c #0F1D24",
"m.	c #D27C5D",
"n.	c #B66B5A",
"o.	c #381717",
"p.	c #423939",
"q.	c #817A79",
"r.	c #8D6E5E",
"s.	c #E08776",
"t.	c #A9524C",
"u.	c #A82F5C",
"v.	c #982148",
"w.	c #6A1632",
"x.	c #B58A72",
"y.	c #B75648",
"z.	c #A7463F",
"A.	c #90332D",
"B.	c #87193D",
"C.	c #290F13",
"D.	c #4D1D25",
"E.	c #A94D44",
"F.	c #380E1D",
"G.	c #7F1B43",
"H.	c #491A19",
"I.	c #521E1E",
"J.	c #561D21",
"                                                                                                    ",
"                                                                                                    ",
"                                                                                                    ",
"                                                                                                    ",
"                                                                                                    ",
"                                                                                                    ",
"                                                                                                    ",
"                                                                                                    ",
"                                                                                                    ",
"                                                                                                    ",
"                                                            . + @                                   ",
"                                                          # $ % & *                                 ",
"                                                        # = - ; > > ,                               ",
"                                            ' )       @ = ! - ~ { { ]                               ",
"                                          ^ / ^       ( _ : < [ } | | 1   2                         ",
"                                        ^ 3 4 ^         < 5 [ } 1 | 6 7 7 6 8                       ",
"                                        9 9 0 a b         c d d e f g h 7 i i j                     ",
"                                      k l l l m 0           2 2     8 n i f 6 o                     ",
"                                    p q l l l l r s                   8 f t 7 7                     ",
"                                  s r l l l l l l r s                   7 u v 7                     ",
"                                  s r w x y z l l r s                   A 2 1 2                     ",
"                          '       B m C D w l l l k # A               E 3 F G H                     ",
"                        1 F '   9 I J K z l l l k L M N             j O P Q O F                     ",
"                        A R 3   S T B U l l l V W X Y Z           ) O P G Q 3 H                     ",
"                        ^ P ` H 1  ...l l z +.J @.#.$.Y N       F P 4 / G Q 3 H                     ",
"                        ^ P ` ` %.&.q l w *.=.-.;.;.>.Y ,.'.  2 ).!.!.G ~.H H R E                   ",
"                        ^ {.` ~.~.3 ].^.*.=./.(._.:.;.$.,.N <.H b ).[.P ~.G ^ G F                   ",
"                        ^ }.~.~.~.~.{.[.9 |./.-.).).1.1.W 2.. ).Q ^ !.}.` G ^ G Q                   ",
"                        ^ 4 P ~.` ` ` ` P ^ A [.~.P [.2.3.O ` ` F A ).R ~.G ^ G Q                   ",
"                        /.R }.~.` ` ` ` ~.~.~.{.{.R /.' H ~.` ` ~.4.!.[.4.G b R Q                   ",
"                        ' 5.4 {.` ` {.}.}.}.G (.6././.6.P ~.` ` ~.~.R b G G b / Q                   ",
"                        A 7./ 4 }./ / / / 5.5.5.' A 7.6.4 P ` ` ~.~.H ' 4 G /.3 F                   ",
"                        9 a 5./ / / 4 6.7.).2 2   ).7.!.6./ 4 }.P 4 /./.O G E Q Q                   ",
"                        T I a 5./ / 6.7.|.          ' /././.7.6.6.!./.!.G G 8.8 8                   ",
"                       ...q T a 6.3 9.).                    A |.a !.5./ {.G 0.a.n u                 ",
"                      B l l w J a 5.a 2                         )./.5.}.` G E 7 h n b.2             ",
"                        T U y x c././.1                           ).7.4 G ) 1 |.7 d.e.e.f.          ",
"                        1 c g.C h.i.2                               2 2 2 |.i.|.j i e.e.f.          ",
"                        j.k.# =.h.l.2                                   S I V |.j i e.e.f.          ",
"                      j.m.n.o.2 l.i.1                               9.  M $ D j Q p.q.r.f.          ",
"                    j.m.s.t.@   |.9                                     u.v.w.<.Q %.x.g f.          ",
"                  ( y.y.z.A.    9 ).                                    B.>.w.C.D.# 1.v u           ",
"                L = E.                                                  F.G.(.H.L * . C.1.          ",
"                                                                        1.I.D.<.I.J., L o.          ",
"                                                                          '.j.* ) 2 2 2             ",
"                                                                            2 2 2 2                 ",
"                                                                                                    ",
"                                                                                                    ",
"                                                                                                    ",
"                                                                                                    ",
"                                                                                                    ",
"                                                                                                    ",
"                                                                                                    ",
"                                                                                                    ",
"                                                                                                    ",
"                                                                                                    ",
"                                                                                                    ",
"                                                                                                    ",
"                                                                                                    ",
"                                                                                                    ",
"                                                                                                    ",
"                                                                                                    ",
"                                                                                                    ",
"                                                                                                    ",
"                                                                                                    ",
"                                                                                                    ",
"                                                                                                    ",
"                                                                                                    "};
