/* XPM */
static char * Run_2_xpm[] = {
"50 50 170 2",
"  	c None",
". 	c #010101",
"+ 	c #0A0405",
"@ 	c #170B0A",
"# 	c #220C0C",
"$ 	c #331213",
"% 	c #230D11",
"& 	c #36161C",
"* 	c #5B2827",
"= 	c #3B1514",
"- 	c #421A22",
"; 	c #622527",
"> 	c #501337",
", 	c #631737",
"' 	c #17110E",
") 	c #221414",
"! 	c #1B0E13",
"~ 	c #9D1D4A",
"{ 	c #4E0D27",
"] 	c #7E604F",
"^ 	c #AE856D",
"/ 	c #6B5244",
"( 	c #2D191E",
"_ 	c #7C1837",
": 	c #AF2B57",
"< 	c #876655",
"[ 	c #948783",
"} 	c #332422",
"| 	c #2B161C",
"1 	c #363B39",
"2 	c #942449",
"3 	c #C23053",
"4 	c #22121D",
"5 	c #7C5D4C",
"6 	c #F9BE9D",
"7 	c #FFC3A1",
"8 	c #1E1016",
"9 	c #070C0B",
"0 	c #00643B",
"a 	c #004429",
"b 	c #A57E68",
"c 	c #0B0B0C",
"d 	c #052F1D",
"e 	c #DDA98B",
"f 	c #5B4539",
"g 	c #0A0509",
"h 	c #362922",
"i 	c #D6A387",
"j 	c #F6BC9B",
"k 	c #4F3C31",
"l 	c #4D2835",
"m 	c #592F3C",
"n 	c #45252E",
"o 	c #5B303D",
"p 	c #3B202D",
"q 	c #140A0C",
"r 	c #31231F",
"s 	c #532C39",
"t 	c #341C23",
"u 	c #512B36",
"v 	c #432433",
"w 	c #391E27",
"x 	c #140B13",
"y 	c #2D1928",
"z 	c #4A2733",
"A 	c #755A4A",
"B 	c #331C2B",
"C 	c #291727",
"D 	c #1B0E19",
"E 	c #251523",
"F 	c #97745F",
"G 	c #2C1924",
"H 	c #3E2231",
"I 	c #160714",
"J 	c #1E101C",
"K 	c #391F2E",
"L 	c #3F3028",
"M 	c #CD9C81",
"N 	c #E2AD8F",
"O 	c #B48A72",
"P 	c #48372D",
"Q 	c #9F7861",
"R 	c #7C5246",
"S 	c #401F1D",
"T 	c #C3947A",
"U 	c #372617",
"V 	c #2D1614",
"W 	c #532925",
"X 	c #60493D",
"Y 	c #793935",
"Z 	c #CC8758",
"` 	c #DF9A5F",
" .	c #AA7548",
"..	c #2E2013",
"+.	c #2A1813",
"@.	c #B75957",
"#.	c #D77262",
"$.	c #F39B69",
"%.	c #FFB06D",
"&.	c #C9745A",
"*.	c #602D33",
"=.	c #A34D57",
"-.	c #DD8F6D",
";.	c #BB7A50",
">.	c #58121E",
",.	c #4C0F19",
"'.	c #A5223A",
").	c #B42447",
"!.	c #131E22",
"~.	c #00341E",
"{.	c #5A1125",
"].	c #88174C",
"^.	c #591340",
"/.	c #35102F",
"(.	c #007344",
"_.	c #007847",
":.	c #015B36",
"<.	c #550D30",
"[.	c #006E41",
"}.	c #007E4B",
"|.	c #00744C",
"1.	c #016C4D",
"2.	c #015651",
"3.	c #012B29",
"4.	c #3A0D2B",
"5.	c #00634F",
"6.	c #03534E",
"7.	c #0B4749",
"8.	c #133C43",
"9.	c #12171D",
"0.	c #172932",
"a.	c #121A1C",
"b.	c #0D1315",
"c.	c #005331",
"d.	c #12373C",
"e.	c #4F2A38",
"f.	c #021C12",
"g.	c #030A08",
"h.	c #005C43",
"i.	c #0B4C3C",
"j.	c #083831",
"k.	c #080F13",
"l.	c #005D3B",
"m.	c #0B4849",
"n.	c #0F1A21",
"o.	c #251D20",
"p.	c #A4524C",
"q.	c #D66F65",
"r.	c #CC8C76",
"s.	c #0B2227",
"t.	c #B47765",
"u.	c #032425",
"v.	c #44221C",
"w.	c #68312A",
"x.	c #6A3531",
"y.	c #27150D",
"z.	c #582718",
"A.	c #B46455",
"B.	c #AA6055",
"C.	c #361A19",
"D.	c #66322E",
"E.	c #745446",
"F.	c #944B40",
"G.	c #BD543D",
"H.	c #73321F",
"I.	c #CB604F",
"J.	c #C35C4C",
"K.	c #BC584E",
"L.	c #A2433C",
"M.	c #993B36",
"                                                                                                    ",
"                                                                                                    ",
"                                                                                                    ",
"                            . . + @ #                                                               ",
"                        $ $ % $ $ & * =                                                             ",
"                        % - - - ; $ > , @                                                           ",
"                        ' ) ! & * $ , ~ {                                                           ",
"                        ] ^ / ( & % _ ~ :                                                           ",
"                        ] < [ } | ' 1 2 3 4                                                         ",
"                        5 6 7 ^ 8 9 0 a                                                             ",
"                        5 6 7 b ) c d c                                                             ",
"                        5 6 7 e f g + . .                                                           ",
"                          c h i j k @ l m ' . . . . .                                               ",
"                              f i f n o o m o o o o p ! q                                           ",
"                                f r n m o o m m o o o o s t ( q                                     ",
"                                . ( ( u o o m v v v v m o o m l w g                                 ",
"                                . t | l o s 4 + . . x y v m m m z < A                               ",
"                                . w t n m s w B C D x x E B l u r ] i F f                           ",
"                                  8 t G m o o m H 4 I c J C K 4 q . L M N O k                       ",
"                                  + t & m o o o m v D D c E C q q .   h i 7 f                       ",
"                                    . ) m o o o m v J x J x D L P     f Q R S                       ",
"                                      4 u o o o l H C J D D . / T A . U @ V W @                     ",
"                                      x K v v v H B C C J g     X A Y Z ` ` `  ...                  ",
"                                      x 4 4 E J J E 4 E J g       . q +.+.....+.+                   ",
"                                        . . x x D | ( 8 g           m @.#.$.%.&...                  ",
"                                        . I C p l m o l !           *.=.@.#.-.;...                  ",
"                                    + >.{ 4 y H s m m m %           . . . . . . .                   ",
"                                  ,.'.).~ - !.B v s o o !                                           ",
"                                ~.} {.].].^.% /.v s o o %                                           ",
"                              ~.(._.:.c <.^.D C K v m o l x                                         ",
"                            ~.[.}.|.1.2.3.4./.D B v u o l q                                         ",
"                          . :.}.}.5.6.7.8.9.I D C p l o l q                                         ",
"                          . :.}.1.2.8.0.!.a.b.c J y v s m t                                         ",
"                          . c.(.1.2.d.!.a.a.a.c J y H e.o p                                         ",
"                              f.:.1.6.7.0.a.a.9 D y H z m v )                                       ",
"                              + f.0 1.6.8.0.a.9 J C p H s o (                                       ",
"                                c g.f.h.2.d.!.9 J C B H v t .                                       ",
"                                ~.i.j.j.h.7.0.9 D C B H y 9.k.                                      ",
"                                . c.|.l.0 1.d.b.8 C C 4 9.} R P                                     ",
"                                . c.}.}.}.5.m.n.8 n.g n.o.p.q.r.P                                   ",
"                                  g.c.|.5.2.m.s.. + k.+   W @.q.t.r                                 ",
"                                      u.3.3.3.s.v.w.x.Y     v.@.p.V                                 ",
"                                                y.z.&.A.      v.B.5                                 ",
"                                                    z.-.A.      C.D.                                ",
"                                                      E.F.      C.D.C.                              ",
"                                                                  w.W                               ",
"                                                                  x.G.S                             ",
"                                                                  H.I.r.P                           ",
"                                                                H.J.K.A.                            ",
"                                                              Y K.L.M.                              "};
