/* XPM */
static char * Run_7_xpm[] = {
"50 53 171 2",
"  	c None",
". 	c #020101",
"+ 	c #130B0D",
"@ 	c #2C1414",
"# 	c #341211",
"$ 	c #4F1D19",
"% 	c #39141C",
"& 	c #5D2324",
"* 	c #35141C",
"= 	c #6A2726",
"- 	c #241314",
"; 	c #3B1B21",
"> 	c #781D38",
", 	c #6A1438",
"' 	c #1A0B0D",
") 	c #49382E",
"! 	c #291B19",
"~ 	c #130B12",
"{ 	c #521F23",
"] 	c #6C1648",
"^ 	c #94194C",
"/ 	c #99745F",
"( 	c #D19F84",
"_ 	c #7E604F",
": 	c #330C19",
"< 	c #901C40",
"[ 	c #BE3461",
"} 	c #736056",
"| 	c #757173",
"1 	c #2B161B",
"2 	c #0E2218",
"3 	c #384543",
"4 	c #A12545",
"5 	c #0F0F1C",
"6 	c #FFC3A1",
"7 	c #7D5F4E",
"8 	c #045D38",
"9 	c #032215",
"0 	c #0B060A",
"a 	c #0B110D",
"b 	c #0C1E15",
"c 	c #0A0406",
"d 	c #F6B999",
"e 	c #5B4539",
"f 	c #513D33",
"g 	c #D6A387",
"h 	c #F0B797",
"i 	c #CB9B80",
"j 	c #876655",
"k 	c #4A2732",
"l 	c #3C202C",
"m 	c #4C2935",
"n 	c #5B303D",
"o 	c #2F211D",
"p 	c #592F3C",
"q 	c #44242E",
"r 	c #241422",
"s 	c #301B26",
"t 	c #3D2231",
"u 	c #4F2A38",
"v 	c #542D3A",
"w 	c #1A0E15",
"x 	c #410E31",
"y 	c #1B0D19",
"z 	c #331C2B",
"A 	c #442533",
"B 	c #512B37",
"C 	c #513634",
"D 	c #6D5345",
"E 	c #352922",
"F 	c #150809",
"G 	c #2E1929",
"H 	c #B68A72",
"I 	c #C5977C",
"J 	c #141F24",
"K 	c #291726",
"L 	c #3D2E26",
"M 	c #6F4E33",
"N 	c #775848",
"O 	c #72493E",
"P 	c #723834",
"Q 	c #371A19",
"R 	c #391F2E",
"S 	c #B1876F",
"T 	c #1E1114",
"U 	c #05090A",
"V 	c #683830",
"W 	c #C38653",
"X 	c #CF8F58",
"Y 	c #9E6D43",
"Z 	c #0A0B0D",
"` 	c #62302D",
" .	c #9A423A",
"..	c #7F5736",
"+.	c #614329",
"@.	c #1A110C",
"#.	c #1C101B",
"$.	c #2D1925",
"%.	c #602D33",
"&.	c #A85054",
"*.	c #D26C61",
"=.	c #EE9468",
"-.	c #FFB06D",
";.	c #332315",
">.	c #5A2A30",
",.	c #974751",
"'.	c #C6665A",
").	c #AD6E4B",
"!.	c #2F2113",
"~.	c #350B11",
"{.	c #861A34",
"].	c #481027",
"^.	c #591340",
"/.	c #8C174D",
"(.	c #001A0F",
"_.	c #3B0E31",
":.	c #005C36",
"<.	c #00694D",
"[.	c #133135",
"}.	c #3D0F27",
"|.	c #00331E",
"1.	c #007646",
"2.	c #00634F",
"3.	c #054C4C",
"4.	c #172A32",
"5.	c #240718",
"6.	c #2F0B26",
"7.	c #00693E",
"8.	c #025350",
"9.	c #133B43",
"0.	c #1A2F3A",
"a.	c #173640",
"b.	c #1B323E",
"c.	c #152228",
"d.	c #49282A",
"e.	c #774437",
"f.	c #004B2C",
"g.	c #A87961",
"h.	c #B67458",
"i.	c #007E4B",
"j.	c #E1AB8D",
"k.	c #E58E7B",
"l.	c #441C0E",
"m.	c #D38463",
"n.	c #B15A55",
"o.	c #001E12",
"p.	c #00653C",
"q.	c #00754C",
"r.	c #005D50",
"s.	c #B57967",
"t.	c #542516",
"u.	c #C57B57",
"v.	c #582C29",
"w.	c #B36454",
"x.	c #A1443D",
"y.	c #004529",
"z.	c #0C4549",
"A.	c #762B27",
"B.	c #0B4E30",
"C.	c #006F41",
"D.	c #9A5C4D",
"E.	c #003C23",
"F.	c #0B1113",
"G.	c #662B18",
"H.	c #893E2E",
"I.	c #28130E",
"J.	c #C75D4B",
"K.	c #A25049",
"L.	c #9E4A45",
"M.	c #785040",
"N.	c #B55448",
"                                                                                                    ",
"                                                                                                    ",
"                                                                                                    ",
"                                                                                                    ",
"                                                                                                    ",
"                                                                                                    ",
"                                                                                                    ",
"                                  . . . + @ #                                                       ",
"                                $ $ % & # * = #                                                     ",
"                                - ; ; ; = % > , '                                                   ",
"                                ) ! ~ * { % ] ^ ,                                                   ",
"                                / ( _ - * : < < [                                                   ",
"                                / } | ! 1 2 3 4   5                                                 ",
"                                / 6 6 7 + 2 8 9                                                     ",
"                                / 6 6 _ 0 a b c                                                     ",
"                                / 6 6 d e 0 c                                                       ",
"                                  . f g h e 0 c + + ' ~ + +                                         ",
"                                      e i j k l m n n n n k ! 1 c                                   ",
"                                        o k p n n n n n n n n p m 1 .                               ",
"                                        c q n n n n q r r s t u p n v w c                           ",
"                                        c q n n n x y ~ 0 0 r z A v n B C D E                       ",
"                                        c q n n p m k A r 0 F r G l B - ! H I j 0                   ",
"                                        c ; p n n n n p A y y ~ J K z + w 0 H 6 6 e                 ",
"                                          + t p n n n p A G y ~ ~ K + + 0   E g g L                 ",
"                                            ! v n n n n p A G ~ c y 0 c     M N O P Q               ",
"                                            ~ R p p n n n u z r ~ + / S T . a U U + c .             ",
"                                              y t B B u A R K K y . a H j V W X X X Y !             ",
"                                              Z K K w ~ ~ ~ ~ ~ ~ c     L Q ` V  ...+.@.            ",
"                                                c ~ y #.r $.$.q $.c     . %.&.*.=.-.W ;.            ",
"                                              c c #.K K t u p n R c       >.,.&.'.'.).!.            ",
"                                            ~.{.].y K z A p p n n 1       . . . . . .               ",
"                                          ~.{.^ ^.y K R A p p n n 1                                 ",
"                                        F {.^ /.^.y K R A v p n n p T                               ",
"                                      (.b > /./.] _.y R m p n n n n -                               ",
"                                    9 :.<.[.}.] /._.y R A p n n n n T                               ",
"                                    |.1.2.3.4.y 5.6.y t A v n n n n y                               ",
"                                  (.7.<.8.9.0.a.4.U . #.t v n n n n 1                               ",
"                                  (.7.<.8.9.b.b.0.c.Z #.t m n n n n v w       d.D e.                ",
"                                  f.1.<.8.9.b.b.b.4.Z #.R m n n n n v + . N g.h.d h.                ",
"                                . :.i.<.8.9.a.b.b.4.Z y t A u n n n T E j.k.Q l.m.d n.              ",
"                                o.p.i.q.r.3.a.b.a.4.Z y G t A t z ; s.S V .     t.u.'.              ",
"                                f.i.i.i.2.8.9.a.a.4.U y K G z K ; ` v.-           t.w.x.            ",
"                                y.i.i.i.q.r.z.b.b.4.a y K K 5 c c F                 Q A.            ",
"                              7 N B.C.i.i.q.r.z.b.4.a w #.w Z U                                     ",
"                              O D.@ o.E.y.C.q.r.z.0.c.F.Z U U                                       ",
"                            ) s.v.        o.y.q.r.z.0.F.U c                                         ",
"                            d.`               . . . .                                               ",
"                          ' Y V                                                                     ",
"                          G.H.I.                                                                    ",
"                        G.J.K.@                                                                     ",
"                      G.J.'.L.                                                                      ",
"                    M.N.N.x.                                                                        ",
"                  A. . .                                                                            "};
