/* XPM */
static char * Run_6_xpm[] = {
"50 50 176 2",
"  	c None",
". 	c #010001",
"+ 	c #240D0D",
"@ 	c #130A06",
"# 	c #31151A",
"$ 	c #592725",
"% 	c #431818",
"& 	c #0A0405",
"* 	c #421D1D",
"= 	c #421B22",
"- 	c #391225",
"; 	c #711A36",
"> 	c #0B060A",
", 	c #1C1512",
"' 	c #4C1E24",
") 	c #501D1B",
"! 	c #390C26",
"~ 	c #9D2149",
"{ 	c #1A050C",
"] 	c #95715E",
"^ 	c #47362C",
"/ 	c #231415",
"( 	c #2A161C",
"_ 	c #260E16",
": 	c #681526",
"< 	c #8B1C4A",
"[ 	c #A42151",
"} 	c #A57E68",
"| 	c #BE9D8B",
"1 	c #60544E",
"2 	c #170B0D",
"3 	c #272728",
"4 	c #872E4A",
"5 	c #A5274E",
"6 	c #85283F",
"7 	c #B48971",
"8 	c #DEB096",
"9 	c #D5A88F",
"0 	c #442627",
"a 	c #130A0D",
"b 	c #014128",
"c 	c #186546",
"d 	c #2D2424",
"e 	c #C4957B",
"f 	c #FFC3A1",
"g 	c #4C3930",
"h 	c #0D0B0B",
"i 	c #013C23",
"j 	c #172F22",
"k 	c #070708",
"l 	c #826352",
"m 	c #5A4438",
"n 	c #60493D",
"o 	c #BC9076",
"p 	c #F0B797",
"q 	c #775A4A",
"r 	c #BA8D75",
"s 	c #FABF9E",
"t 	c #765A4B",
"u 	c #32261F",
"v 	c #5B4539",
"w 	c #3A2825",
"x 	c #5B303D",
"y 	c #542C3A",
"z 	c #23131C",
"A 	c #2D181E",
"B 	c #592F3C",
"C 	c #3B202F",
"D 	c #1A0E13",
"E 	c #452534",
"F 	c #4E2A38",
"G 	c #4A2735",
"H 	c #4B2836",
"I 	c #391F2D",
"J 	c #261523",
"K 	c #130B12",
"L 	c #341C2A",
"M 	c #341B23",
"N 	c #1D111B",
"O 	c #120610",
"P 	c #AC846C",
"Q 	c #342720",
"R 	c #2D1929",
"S 	c #1B0D19",
"T 	c #291725",
"U 	c #9E7662",
"V 	c #131A21",
"W 	c #372617",
"X 	c #88654F",
"Y 	c #57312D",
"Z 	c #351717",
"` 	c #2E1926",
" .	c #24091E",
"..	c #2B211B",
"+.	c #2F2114",
"@.	c #2C1E13",
"#.	c #A37C66",
"$.	c #66453A",
"%.	c #B4694D",
"&.	c #DF9A5F",
"*.	c #4C3728",
"=.	c #2B1315",
"-.	c #99494E",
";.	c #CA645F",
">.	c #E78866",
",.	c #FBAA6B",
"'.	c #FFB06D",
").	c #5A3E26",
"!.	c #8E424C",
"~.	c #A95058",
"{.	c #DD7864",
"].	c #EF9568",
"^.	c #31090F",
"/.	c #8C1D2F",
"(.	c #B62446",
"_.	c #8A174F",
":.	c #471037",
"<.	c #00190E",
"[.	c #93194D",
"}.	c #6D174D",
"|.	c #005733",
"1.	c #016B4B",
"2.	c #012B25",
"3.	c #600F36",
"4.	c #77174C",
"5.	c #3D2231",
"6.	c #00774C",
"7.	c #025A4B",
"8.	c #0F3F45",
"9.	c #591135",
"0.	c #5F174C",
"a.	c #007B49",
"b.	c #0F4245",
"c.	c #16353F",
"d.	c #16272F",
"e.	c #163741",
"f.	c #12191C",
"g.	c #0E171B",
"h.	c #0D1315",
"i.	c #006B40",
"j.	c #002F1E",
"k.	c #0A3738",
"l.	c #143941",
"m.	c #033534",
"n.	c #502A36",
"o.	c #00463B",
"p.	c #005652",
"q.	c #00302E",
"r.	c #162831",
"s.	c #141519",
"t.	c #00534E",
"u.	c #044A49",
"v.	c #6F3632",
"w.	c #D47566",
"x.	c #EBA68B",
"y.	c #060A0C",
"z.	c #8F5047",
"A.	c #EDA88D",
"B.	c #002220",
"C.	c #002B29",
"D.	c #091D21",
"E.	c #65312B",
"F.	c #91554B",
"G.	c #95422C",
"H.	c #C1584C",
"I.	c #BE836E",
"J.	c #B7584F",
"K.	c #7F3B35",
"L.	c #B1785E",
"M.	c #733A25",
"N.	c #3C1B0F",
"O.	c #F0A588",
"P.	c #441C0E",
"Q.	c #AA4F3A",
"R.	c #672D29",
"S.	c #AD4A42",
"                                                                                                    ",
"                                                                                                    ",
"                                  . . . .                                                           ",
"                              + @ @ + # $ %                                                         ",
"                            & * = = $ % - ; -                                                       ",
"                            . > , # ' ) ! ~ ; {                                                     ",
"                            , ] ^ / ( _ : < ~ [                                                     ",
"                            , } | 1 2 _ 3 4 5 6                                                     ",
"                            , 7 8 9 0 a b c d                                                       ",
"                            , e f f g h i j k                                                       ",
"                            , e f f l , > &                                                         ",
"                              m n o p q a . .                                                       ",
"                                  h r s t . . . . . . . .                                           ",
"                                    u v w x x x x x x x y z 2 a                                     ",
"                                      . A B B x x x x x x x x C A / .                               ",
"                                      D E B B x B F G G E H B x x y H D .                           ",
"                                      , E B x B I > . . . J E y x x y 0 ] ^                         ",
"                                      K I y x y L M L N K O J C G y ( n P 7 t Q                     ",
"                                      > J E B B x y G L h K K R L R , a / ] f e l                   ",
"                                        K I G y x x x F R O O S T S a & . . U f }                   ",
"                                        . N E y B x x x G / V S K / ^ u   W X U Y Z                 ",
"                                          O ` E y x x x x C S  .h Q r P ..+.@.& 0 @..               ",
"                                          . S L E y x x G R T O     , #.$.%.&.&.&.&.*.              ",
"                                          . S J T L L L J J J h       . & D =.@.+.+.@               ",
"                                              > K K S , ( z 2           # -.;.>.,.'.).              ",
"                                            . O T R I G x y A           ( !.~.;.{.].).              ",
"                                        @ { : # T I G B x x M           . . . . . . .               ",
"                                      ^./.(._.:.S I G B x x M                                       ",
"                                    <.j ; [._.}. .z E x x x M                                       ",
"                                  . |.1.2.3._.4. . .5.F x x y z                                     ",
"                                <.|.6.7.8.V 9.4.0. .L F x x B /                                     ",
"                                i a.1.b.c.d., ! ! O J E B B B (                                     ",
"                                i a.7.e.d.f.g.h.h.h., 5.y B x y D                                   ",
"                                i i.7.e.d.f.f.f.f.h.O L y B B B D                                   ",
"                                  . j.k.l.d.f.f.f.g.O L E y B x M                                   ",
"                                  . i b m.l.d.f.f.h.K T 5.G B B n.2                                 ",
"                                    j.|.2.m.l.d.f.h.K J I 5.H B D .                                 ",
"                                    <.o.p.q.m.c.r.g.K J T C L s.g.>                                 ",
"                                      j.7.t.o.u.l.V K T T J s.h.Y Y                                 ",
"                                      j.7.p.p.p.8.r.h.T h k k v.w.x.t                               ",
"                                        2.t.p.p.p.k.y.. h h     z.A.f m                             ",
"                                          B.C.C.C.D.Q $ E.v.      F.x.m                             ",
"                                                    / Z G.H.G.      z.I.^                           ",
"                                                        @ G.J.      . K.*                           ",
"                                                          Z 6         E.m                           ",
"                                                                      , X Q                         ",
"                                                                      , L.M.                        ",
"                                                                      N.%.O.$.                      ",
"                                                                    P.Q.w.J.R.                      ",
"                                                                  $ J.S.G.                          "};
