/* XPM */
static char * Run_8_xpm[] = {
"50 50 162 2",
"  	c None",
". 	c #020102",
"+ 	c #1C0C0B",
"@ 	c #3B1B1C",
"# 	c #54181E",
"$ 	c #4B1A1C",
"% 	c #572125",
"& 	c #3A1E25",
"* 	c #521D28",
"= 	c #2B1316",
"- 	c #170607",
"; 	c #090907",
"> 	c #2C161C",
", 	c #682728",
"' 	c #32130B",
") 	c #571339",
"! 	c #6E174D",
"~ 	c #2A0B14",
"{ 	c #5A4539",
"] 	c #4E3731",
"^ 	c #0B0506",
"/ 	c #441B22",
"( 	c #751938",
"_ 	c #982047",
": 	c #88193F",
"< 	c #7C5E4D",
"[ 	c #ECB495",
"} 	c #D4A387",
"| 	c #2E221D",
"1 	c #32171B",
"2 	c #912048",
"3 	c #BD3865",
"4 	c #9D7763",
"5 	c #AE978D",
"6 	c #554136",
"7 	c #10100E",
"8 	c #145039",
"9 	c #5B303D",
"0 	c #F9BE9D",
"a 	c #B98D75",
"b 	c #1E111C",
"c 	c #0D0B0C",
"d 	c #044F30",
"e 	c #08281A",
"f 	c #FFC3A1",
"g 	c #221316",
"h 	c #130A0C",
"i 	c #695142",
"j 	c #9D7863",
"k 	c #241A13",
"l 	c #F5BB9B",
"m 	c #2C1A1D",
"n 	c #2D1925",
"o 	c #41242D",
"p 	c #592F3C",
"q 	c #552D3A",
"r 	c #492734",
"s 	c #3C202D",
"t 	c #0D070B",
"u 	c #321B25",
"v 	c #23131E",
"w 	c #341C2B",
"x 	c #4F2A38",
"y 	c #251422",
"z 	c #3A1F2D",
"A 	c #1B0D19",
"B 	c #1A0D14",
"C 	c #291727",
"D 	c #4C2835",
"E 	c #442533",
"F 	c #2D1928",
"G 	c #131E23",
"H 	c #140C14",
"I 	c #3C2130",
"J 	c #725748",
"K 	c #CC9C81",
"L 	c #403128",
"M 	c #0E0D11",
"N 	c #8C613B",
"O 	c #56362A",
"P 	c #AF5751",
"Q 	c #4B2626",
"R 	c #E9A486",
"S 	c #2C1C12",
"T 	c #2F2114",
"U 	c #A57E68",
"V 	c #744732",
"W 	c #7F5836",
"X 	c #755132",
"Y 	c #89443F",
"Z 	c #A55848",
"` 	c #BA7B50",
" .	c #C77860",
"..	c #B0794B",
"+.	c #39251C",
"@.	c #9E4A54",
"#.	c #C45F5D",
"$.	c #E28065",
"%.	c #F9A66B",
"&.	c #EAA064",
"*.	c #4D3621",
"=.	c #3A0B15",
"-.	c #230D1B",
";.	c #622E35",
">.	c #6C3435",
",.	c #8E3732",
"'.	c #8A563C",
").	c #601320",
"!.	c #971B48",
"~.	c #2D091B",
"{.	c #931C3D",
"].	c #87184A",
"^.	c #591545",
"/.	c #4B1340",
"(.	c #3A0C28",
"_.	c #000D07",
":.	c #005633",
"<.	c #005D50",
"[.	c #013331",
"}.	c #004428",
"|.	c #007A4B",
"1.	c #0B4649",
"2.	c #163740",
"3.	c #0C1215",
"4.	c #00361F",
"5.	c #007043",
"6.	c #006C4D",
"7.	c #025248",
"8.	c #192E38",
"9.	c #00734C",
"0.	c #0E3C40",
"a.	c #001F12",
"b.	c #00623B",
"c.	c #015450",
"d.	c #12363D",
"e.	c #723835",
"f.	c #392A24",
"g.	c #0D181C",
"h.	c #B8645A",
"i.	c #A16B5B",
"j.	c #32231A",
"k.	c #002616",
"l.	c #006F41",
"m.	c #091E20",
"n.	c #64312D",
"o.	c #652E22",
"p.	c #CA8F72",
"q.	c #001712",
"r.	c #261008",
"s.	c #9E553A",
"t.	c #7D3E3A",
"u.	c #381615",
"v.	c #5F2E2A",
"w.	c #B35E51",
"x.	c #752F2A",
"y.	c #291009",
"z.	c #9A4237",
"A.	c #823729",
"B.	c #694130",
"C.	c #A04832",
"D.	c #D2665A",
"E.	c #9C3E36",
"                                                                                                    ",
"                                                                                                    ",
"                                                                                                    ",
"                                                                                                    ",
"                                    . . .                                                           ",
"                                . . . + @ # +                                                       ",
"                              $ % & * $ = * # -                                                     ",
"                              ; = > $ , ' ) ! ~                                                     ",
"                              { ] ^ = / ~ ( _ :                                                     ",
"                              < [ } | 1 ~ ( 2 3                                                     ",
"                              < 4 5 6 = 7 8 9                                                       ",
"                              < 0 0 a b c d e                                                       ",
"                              < 0 f a g ; h ;                                                       ",
"                              i a a [ j k .                                                         ",
"                                  k a l 6 g > > m n n > > ^                                         ",
"                                      | o p 9 9 9 9 p 9 q r r + .                                   ",
"                                      . s 9 9 9 9 p p q q p p p s t                                 ",
"                                      . u p 9 9 p / v v w o x p 9 p & g ;                           ",
"                                      . y q 9 9 z A A A B C z D q 9 p ] 4 { .                       ",
"                                        ^ & q 9 9 x E F G H C I r p g t J 0 } m                     ",
"                                        ^ u q p 9 9 9 D w b H C z z + + t J [ 0 <                   ",
"                                          H o p 9 9 9 p r w b H C A h c   . a K L                   ",
"                                          t F q p 9 9 p r z C v H M .     N O O P Q                 ",
"                                            H w x q E I z C C y . i R 6 7 S T S T T ^               ",
"                                            t y w b H H H H H h . . J U Q V W W W X k               ",
"                                              ^ M A b v C F & & ^     | @ Y Z `  ...+.              ",
"                                              . A C w E E q 9 p s       Q @.#.$.%.&.*.              ",
"                                            =.=.-.y w r q 9 9 p s       1 ;.>.,.J '.T               ",
"                                            ).!.~.y w q 9 9 9 9 s                                   ",
"                                          =.{.!.~.v w x 9 9 9 9 s                                   ",
"                                          # !.].^.A w I q 9 9 9 &                                   ",
"                                        - : !.! /.A y I q 9 9 9 D g                                 ",
"                                        . - (.^./.A y I q 9 9 9 9 >                                 ",
"                                      _.:.<.[.. ^ t y I E p 9 p 9 n                                 ",
"                                      }.|.<.1.2.G H b z E q 9 9 9 >                                 ",
"                                      }.|.<.1.2.G M H F E p 9 9 9 >                                 ",
"                                      }.|.<.1.2.G 3.A C I r p 9 9 >                                 ",
"                                      4.5.6.7.2.8.3.H C z E r q 1                                   ",
"                                      . :.9.<.0.8.3.A C F F y g                                     ",
"                                        a.b.6.c.d.3.H C C b e.a f.                                  ",
"                                        _.:.6.c.0.g.H b b . >.h.i.s T j.                            ",
"                                          k.l.9.7.m._..       + n.o.p.R Z                           ",
"                                            k.a.q.                r.s.R p.                          ",
"                                              t.P u.                - s. .                          ",
"                                              . ,.v.                  ' Z w.                        ",
"                                                O e.                    u.x.                        ",
"                                                1 n.                                                ",
"                                              y.z.A.                                                ",
"                                            B.C.D.Y                                                 ",
"                                          A.z.E.E.,.                                                "};
