/* XPM */
static char *result[] = {
/* columns rows colors chars-per-pixel */
"60 60 174 2 ",
"   c black",
".  c #010101",
"X  c #020101",
"o  c #020102",
"O  c #040102",
"+  c #040203",
"@  c #050303",
"#  c #070202",
"$  c #000404",
"%  c #080403",
"&  c #090506",
"*  c #0C060B",
"=  c #0C070C",
"-  c #060A0B",
";  c #0F0C0A",
":  c #0E080D",
">  c #0F080D",
",  c #0F080E",
"<  c #140A09",
"1  c #14080A",
"2  c #150A0D",
"3  c #140B0F",
"4  c #1D0B0C",
"5  c #1C0B0D",
"6  c #18130F",
"7  c #1D140C",
"8  c #0B0F10",
"9  c #190D11",
"0  c #180E10",
"q  c #1B0F12",
"w  c #1F0C10",
"e  c #1D0F12",
"r  c #1C0F13",
"t  c #190E18",
"y  c #1C0F1A",
"u  c #0C1112",
"i  c #101719",
"p  c #1C101B",
"a  c #240D08",
"s  c #2F0A0F",
"d  c #23180F",
"f  c #21081C",
"g  c #31081B",
"h  c #34081D",
"j  c #201115",
"k  c #221216",
"l  c #291217",
"z  c #251319",
"x  c #27141A",
"c  c #291318",
"v  c #29151B",
"b  c #28161F",
"n  c #2C171D",
"m  c #2D181F",
"M  c #361311",
"N  c #002F1C",
"B  c #10291E",
"V  c #101F26",
"C  c #261524",
"Z  c #291727",
"A  c #2A1727",
"S  c #2F1920",
"D  c #2C1823",
"F  c #2D1924",
"G  c #2F1924",
"H  c #2B1828",
"J  c #2C1828",
"K  c #2E1A29",
"L  c #311A21",
"P  c #381E26",
"I  c #381E27",
"U  c #391E27",
"Y  c #321B29",
"T  c #301B2A",
"R  c #321B2B",
"E  c #331C2B",
"W  c #381F2E",
"Q  c #12222A",
"!  c #172830",
"~  c #003533",
"^  c #003B38",
"/  c #063F3D",
"(  c #292A28",
")  c #3E2129",
"_  c #39202F",
"`  c #3C212F",
"'  c #313628",
"]  c #3D2130",
"[  c #4A1019",
"{  c #5A211D",
"}  c #401A22",
"|  c #411A22",
" . c #511F24",
".. c #7B163B",
"X. c #4A2522",
"o. c #4B2522",
"O. c #4D2723",
"+. c #4F2724",
"@. c #40222C",
"#. c #43232D",
"$. c #47252F",
"%. c #5C2323",
"&. c #45342B",
"*. c #402331",
"=. c #402332",
"-. c #412433",
";. c #432433",
":. c #442532",
">. c #462533",
",. c #442534",
"<. c #472635",
"1. c #492735",
"2. c #492736",
"3. c #4D2937",
"4. c #4F2A38",
"5. c #502A35",
"6. c #502B39",
"7. c #512B39",
"8. c #522C39",
"9. c #552D39",
"0. c #552D3B",
"q. c #582E3B",
"w. c #592F3C",
"e. c #5A2F3C",
"r. c #4F3C32",
"t. c #5B303D",
"y. c #004E2E",
"u. c #005633",
"i. c #5F4228",
"p. c #5F493C",
"a. c #113A41",
"s. c #123D44",
"d. c #761E40",
"f. c #094749",
"g. c #0B4649",
"h. c #03504F",
"j. c #005652",
"k. c #00644F",
"l. c #00654F",
"z. c #006F4D",
"x. c #007948",
"c. c #007E4B",
"v. c #20654B",
"b. c #984637",
"n. c #B64B27",
"m. c #A0403A",
"M. c #AB4F3D",
"N. c #962147",
"B. c #8D295A",
"V. c #B22348",
"C. c #974751",
"Z. c #AB4940",
"A. c #A94842",
"S. c #A7534C",
"D. c #A24C57",
"F. c #B05F56",
"G. c #997560",
"H. c #9F7964",
"J. c #A57E68",
"K. c #CC6E4B",
"L. c #D36D4F",
"P. c #D5734F",
"I. c #C7635B",
"U. c #CF6660",
"Y. c #D56A62",
"T. c #D76F65",
"R. c #AF866E",
"E. c #E69264",
"W. c #F5A06A",
"Q. c #FFB06D",
"!. c #BE9985",
"~. c #EFA189",
"^. c #FFC3A1",
"/. c None",
/* pixels */
"/./././././././././././././././././././././././././././././././././././././././././././././././././././././././././././.",
"/./././././././././././././././././././././././././././././././././././././././././././././././././././././././././././.",
"/./././././././././././././././././././././././././././././././././././././././././././././././././././././././././././.",
"/./././././././././././././././././././././././././././././././././././././././././././././././././././././././././././.",
"/./././././././././././././././././././././././././././././././././././././././././././././././././././././././././././.",
"/./././././././././././././././././././././././././././././././././././././././././././././././././././././././././././.",
"/./././././././././././././././././././././././././././././././././././././././././././././././././././././././././././.",
"/./././././././././././././././././././././././././././././././././././././././././././././././././././././././././././.",
"/./././././././././././././././././././././././././././././././././././././././././././././././././././././././././././.",
"/./././././././././././././././././././././././././././././././././././././././././././././././././././././././././././.",
"/./././././././././././././././././././././././././././././././././././././././././././././././././././././././././././.",
"/./././././././././././././././././././././././././././././././././././././././././././././././././././././././././././.",
"/./././././././././././././././././././././././././././././././././././././././././././././././././././././././././././.",
"/./././././././././././././././././././././././././././././././././././././././././././././././././././././././././././.",
"/./././././././././././././././././././././././././././././././././././././././././././././././././././././././././././.",
"/./././././././././././././././././././././././././././././././././././././././././././././././././././././././././././.",
"/./././././././././././././././././././././././././././././././././././././././././././././././././././././././././././.",
"/./././././././././././././././././././././././././././././././././././././././././././././././././././././././././././.",
"/./././././././././././././././././././././././././././././././././././././././././././././././././././././././././././.",
"/./././././././././././././././././././././././././././././././././././././././.    1 } M /././././././././././././././.",
"/././././././././././././././././././././././././././././././././././././././.4 | } %.5 d.w /./././././././././././././.",
"/././././././././././././././././././././././././././././././././././././././.6 0 l  .# N..././././././././././././././.",
"/././././././././././././././././././././././././././././././././././././././.r.^.p.c O V.B././././././././././././././.",
"/././././././././././././././././././././././././././././././././././././././.r.J.!.2 X v.[ /./././././././././././././.",
"/././././././././././././././././././././././././././././././././././././././.r.^.^.& . B /././././././././././././././.",
"/././././././././././././././././././././././././././././././././././././././.r.^.^.R.e /./././././././././././././././.",
"/././././././././././././././././././././././././././././././././././././././././.H.R./././././././././././././././././.",
"/./././././././././././././././././././././././././././././././././././././././.q v S j /./././././././././././././././.",
"/././././././././././././././././././././././././././././././././././././././.r @ k r t.k /././././././././././././././.",
"/././././././././././././././././././././././././././././././././././././././.x >.P ) 9.k /././././././././././././././.",
"/./././././././././././././././././././././././././././././././././././././.  m G @.D 9.  /././././././././././././././.",
"/./././././././././././././././././././././././././././././././././././././.P 8.+ 7.D 9.  /././././././././././././././.",
"/./././././././././././././././././././././././././././././././././././././.P *.o 7.D   k /././././././././././././././.",
"/./././././././././././././././././././././././././././././././././././././.b y :.t.D ` L   /./././././././././././././.",
"/./././././././././././././././././././././././././././././././././././././.  r t.t.D ` ,   /./././././././././././././.",
"/./././././././././././././././././././././././././././././././././././././.s #.t.6.y : Y n /./././././././././././././.",
"/./././././././././././././././././././././././././././././././././././././.#.t.t.;.> q.t I /./././././././././././././.",
"/././././././././././././././././././././././././././././././././././././.9.t.t.t.R 3 w.k 2.@ /././././././././././././.",
"/./././././././././././././././././././././././././././././././././././.r t.t.0.-.J 9 e.k E U /././././././././././././.",
"/./././././././././././././././././././././././././././././././././././.6 r.5.3._ , ] t.t.= 1./././././././././././././.",
"/././././././././././././././././././././././././././././././././././.  ^.; h -.A , 2.t.t.    /././././././././././././.",
"/././././././././././././././././././././././././././././././././././.H.R.g f = Z , 2.t.t.) /./././././././././././././.",
"/././././././././././././././././././././././././././././././././././.7 < E.8 u * F 2.t.t.$././././././././././././././.",
"/./././././././././././././././././././././././././././././././././.          u C W 2.t.t.t.@ /././././././././././././.",
"/./././././././././././././././././././././././././././././././././.X.i.i.i.d u C K ,.w.t.t.@ /././././././././././././.",
"/./././././././././././././././././././././././././././././././././.C.U.W.Q.i.u C Z -.7.t.t.j /././././././././././././.",
"/./././././././././././././././././././././././././././././././././.C.D.Y.Y.i.u C Z T -.t.t.t./././././././././././././.",
"/./././././././././././././././././././././././././././././././././.  y.~ ~ V u C Z H =.<.4.z /././././././././././././.",
"/./././././././././././././././././././././././././././././././././.  c.c.k.g.Q C Z Z p D - a./././././././././././././.",
"/./././././././././././././././././././././././././././././././././.  c.c.c.l.^       i ! s.j./././././././././././././.",
"/./././././././././././././././././././././././././././././././././.  ' N x.c.z.z.z./ f.h.( % /././././././././././././.",
"/./././././././././././././././././././././././././././././././././.  F./.    u.u.^ ^ $   S.o./././././././././././././.",
"/./././././././././././././././././././././././././././././././././.  p././././././././././.I./././././././././././././.",
"/./././././././././././././././././././././././././././././././././.G.p././././././././././.O.+././././././././././././.",
"/././././././././././././././././././././././././././././././././.a K./././././././././././.  L.&./././././././././././.",
"/./././././././././././././././././././././././././././././././.  P.T./././././././././././.n.~.R./././././././././././.",
"/././././././././././././././././././././././././././././././.{ M.A.A././././././././././.b.Z.m././././././././././././.",
"/./././././././././././././././././././././././././././././././././././././././././././././././././././././././././././.",
"/./././././././././././././././././././././././././././././././././././././././././././././././././././././././././././.",
"/./././././././././././././././././././././././././././././././././././././././././././././././././././././././././././."
};
