/* XPM */
static char *portal_91722255174[] = {
/* columns rows colors chars-per-pixel */
"50 50 56 1 ",
"  c None",
". c #091D2B",
"X c #092031",
"o c #0B263A",
"O c #0C293F",
"+ c #0D2B41",
"@ c #0E334D",
"# c #0F3652",
"$ c #0F3954",
"% c #0F3B59",
"& c #103754",
"* c #103B57",
"= c #113C5A",
"- c #11405D",
"; c #124163",
": c #15466C",
"> c #15486E",
", c #164C73",
"< c #184E77",
"1 c #175079",
"2 c #19537D",
"3 c #175784",
"4 c #195782",
"5 c #175884",
"6 c #1A5885",
"7 c #1C5D8B",
"8 c #1A5F90",
"9 c #1E6394",
"0 c #1F669A",
"q c #1F689E",
"w c #20699C",
"e c #1F6CA4",
"r c #1E70A9",
"t c #216DA4",
"y c #216FA8",
"u c #2670A4",
"i c #2272AD",
"p c #2375B2",
"a c #2579B6",
"s c #257CBB",
"d c #297DBB",
"f c #277FC1",
"g c #2782C4",
"h c #2983C5",
"j c #2886CA",
"k c #2A89CE",
"l c #2B8DD4",
"z c #2C8FD8",
"x c #2D90D7",
"c c #2D91DA",
"v c #2D96E3",
"b c #2E99E5",
"n c #2E9CEA",
"m c #3099E7",
"M c #319CEB",
"N c #309FF0",
/* pixels */
"                                                  ",
"                                                  ",
"                                                  ",
"                    xcccc                         ",
"                  ccxxlccc                        ",
"                 c   uakccjii                     ",
"                     iialzlsii                    ",
"                    iiieelbgii                    ",
"                  pypy943qnbpi                    ",
"                  ip084447hnaii                   ",
"                  pw344444ibliip                  ",
"                 py94444424gbwri                  ",
"                 u9644441><tbg9ii                 ",
"             k  ii33442,:::>l97eiic               ",
"                iiiMu6<:::;%;24tpic               ",
"                iimvw2:::;=**;40uix               ",
"                igns62:::****;64iic               ",
"                gbz84,::;**&**,4iix               ",
"               pjm364:::=**@++:4tikl              ",
"               pzj663>::=*&O++;47ijl              ",
"               fnw444>:;**#+OX;67rjl              ",
"              ijc944,::;%$++X.-27ijl              ",
"              pzd444,>:;*$++...,7ijx              ",
"              zMp464,>:;$$OO...,7sll              ",
"              zl7444,::-*$++...>7fcl              ",
"              vk6466,::;*&++..o<6icx              ",
"              Nk4436,::;*$++..;27jm               ",
"              vz8433,::;**@Oo.;49vb               ",
"              zz9444,>>;**&+OO:2wNc               ",
"              zzw646,::;**@+O+:5vmh               ",
"              lfy744,::;***+OO:5ml                ",
"             zlii746,:::=**$&$>hma                ",
"             lc p7444:::==***:dnli                ",
"             cc i0443,::;=**-amngi                ",
"             zx py6642:::%*=-sNcpi                ",
"             xc uipp66:::=**%6guii                ",
"             cc pisvu41,::-==47rii                ",
"             xc  ithl74<::;->7eii                 ",
"             xc  iiab83<::,<29iii                 ",
"              l  piikc84,,2479ii   b              ",
"                 iiiimz97437iiip  NM              ",
"                  piignkpqqyiii                   ",
"                   uipbbsiiipi  xx                ",
"                    iisbNckslzxxl                 ",
"                     iscbccccccx                  ",
"                        cczccx                    ",
"                          zcxx                    ",
"                                                  ",
"                                                  ",
"                                                  "
};
