/* XPM */
static char *portal_51722255114[] = {
/* columns rows colors chars-per-pixel */
"50 50 56 1 ",
"  c None",
". c #071C2A",
"X c #081C2A",
"o c #0B2334",
"O c #0B2539",
"+ c #0D293E",
"@ c #0D2B41",
"# c #0F334C",
"$ c #0F3751",
"% c #0F3954",
"& c #0F3B59",
"* c #103651",
"= c #103B56",
"- c #103C59",
"; c #123F61",
": c #134163",
"> c #15476C",
", c #15486E",
"< c #164C73",
"1 c #174F78",
"2 c #175079",
"3 c #18537D",
"4 c #195682",
"5 c #1A5986",
"6 c #1B5C8B",
"7 c #1D5F90",
"8 c #1E6294",
"9 c #1E6599",
"0 c #1F689D",
"q c #20699F",
"w c #1F6CA3",
"e c #206CA4",
"r c #206FA9",
"t c #2470A7",
"y c #2272AD",
"u c #2376B2",
"i c #2478B4",
"p c #257CBB",
"a c #277FC1",
"s c #287FC1",
"d c #2783C5",
"f c #2883C4",
"g c #2785C9",
"h c #2886CA",
"j c #2A89CE",
"k c #2B8DD4",
"l c #2C8FD8",
"z c #2D90D6",
"x c #2C91DA",
"c c #3092D7",
"v c #2D96E2",
"b c #2E99E6",
"n c #2F9CEA",
"m c #309BE7",
"M c #309BE8",
"N c #2F9FF0",
/* pixels */
"                                                  ",
"                                                  ",
"                                                  ",
"                           zz                     ",
"                            k                     ",
"                      yyyyy  x                    ",
"                    tyyyyyyy x                    ",
"                   yyyyyyyyyypx                   ",
"                   yyyr0qqeyypxx                  ",
"                  uphf73446eyijx                  ",
"                 xllxlky4445eyfx                  ",
"                 vnnnnbnq4445ygxx                 ",
"                kvhiiiiy51124qdvx                 ",
"               lfpw4443<>>>,>59xb                 ",
"              kjuy54441>>>>--34hnx                ",
"              kfrw4443>>>:&&-:2hnx                ",
"             kx u64441>>;--=-=<hnx                ",
"             kkyr6444,>>-&====<hnc                ",
"             x yu6444,,,;===@@>hnh                ",
"             c ue5444,>,--*@@@%lbp                ",
"            x  y74441>>;==#@@@@kbr                ",
"               u9444<>>;==@@@O.jj9y               ",
"               y94441>>;-%@@oX.jj8y               ",
"              ry7y44<>>;=%@@X..kkey               ",
"              re5h44<,>;=%@@XX.>hyy               ",
"              yq7j44<>>:=%@@XXXX6yy               ",
"               qpM54<,>;&%@@oXX#6yy               ",
"               epM44<,>;==#@@oX,5qy c             ",
"               yhm44<,>;--#@@++<48y x             ",
"               yhm44<,,;=-*@+@+<40 xl             ",
"               uhm54<>,:---*@@=30yfxl             ",
"               yhM44<>,,---==*,48yhxz             ",
"               yhm544,>>;&&--=,5tsxz              ",
"                hb444,>>>%-&--23yfxz              ",
"                hb4441,>,---=>39ijx               ",
"                iv5444,>>:--&>5epxx               ",
"                yvj4443,>>:-:50plx                ",
"                ixl44441>>>>3qpxvx                ",
"                 pz44443<><35jxNvx                ",
"                 pxf644467qsxNNxx                 ",
"                 cxf0444hvbNbbvx                  ",
"                  xfu044uhjhfhz                   ",
"                  khyyeryyyyyu                    ",
"                   xayyyyyyyyr                    ",
"                   cxyyyyyyy                      ",
"                    xj   uy                       ",
"                    xxl                           ",
"                     xxx                          ",
"                                                  ",
"                                                  "
};
