/* XPM */
static char *portal_71722255144[] = {
/* columns rows colors chars-per-pixel */
"50 50 55 1 ",
"  c None",
". c #071D2D",
"X c #081C2B",
"o c #0A2133",
"O c #0C263A",
"+ c #0D293E",
"@ c #0D2B41",
"# c #0E334D",
"$ c #0F3753",
"% c #0F3954",
"& c #0F3B59",
"* c #103B56",
"= c #103C59",
"- c #124163",
"; c #15476C",
": c #15486E",
"> c #154C73",
", c #184E75",
"< c #17517A",
"1 c #19537C",
"2 c #195682",
"3 c #1A5986",
"4 c #1C5D8C",
"5 c #1D5F91",
"6 c #1E6395",
"7 c #1E669A",
"8 c #1F699F",
"9 c #206495",
"0 c #21679A",
"q c #21699D",
"w c #206DA4",
"e c #216FA9",
"r c #2272AD",
"t c #2376B2",
"y c #2479B6",
"u c #257CBB",
"i c #287FBE",
"p c #267FC1",
"a c #2680BF",
"s c #2681C3",
"d c #2984C6",
"f c #2985C9",
"g c #2A8ACE",
"h c #2B8DD4",
"j c #2C8FD8",
"k c #2C90D5",
"l c #2C91DB",
"z c #3093D7",
"x c #3093DB",
"c c #2D97E3",
"v c #2E99E6",
"b c #2E9CEA",
"n c #3096E2",
"m c #309AE7",
"M c #309DEB",
/* pixels */
"                                                  ",
"                                                  ",
"                                                  ",
"                                                  ",
"                              l                   ",
"                      etrrrr                      ",
"                   ljgrrrrrrrr                    ",
"                  jlbMljyerrrr l                  ",
"                 ksujcvMd34errrg                  ",
"                lhtryriMmy24rrr h                 ",
"               lgtrr6236ll324rr jj                ",
"                 rr72222yhy12rrrgl                ",
"                 rr52221;16:16rrfl                ",
"                 rw222<:;;;=;28rsj                ",
"                rr2222<;;&=**;2wyl                ",
"                rw1222,;-&***=<wyl                ",
"                r4122<;;-&==&*:5yl                ",
"                r4222:;;=&==**>2tl                ",
"               r63922>;;===#@@;16l                ",
"               r63g22;;-==%@@+*16kf               ",
"               w4dl2,:;-*=#@++o>6cd               ",
"               r8l42,;;-**#@+.X>qvd               ",
"               rgM22>;;-*%@@oXX>lva               ",
"              rrjl22>;;-=%@+.XX>lvs               ",
"              ruvr22>;;-=*@@.XX>lva               ",
"               pb722>;;-&$@+.XX>Mvu               ",
"               fMq22>;;&*$+@oXX>Mgr               ",
"              rfv723>;;-*&@++XXtMfr               ",
"              dfv622,;;-=*@@++#kxwr               ",
"               hv622,;;-*=#+++0gsrr               ",
"               vv522>;;-==*#@++,4rt               ",
"               jc922>;;-=****$$1wrr               ",
"               ll722>;;;====&*=1rr                ",
"               ll622<;;;==&=&&>2rr                ",
"               lle222>;;-==*&-<7rr k              ",
"               jly3221;;:&==&12wrrzk              ",
"                ju8222<;;;-&-33etzlh              ",
"                lye422<>;;;:227rdll               ",
"                lyr7232,;:,224erkll               ",
"                lurr46mi34234rygll                ",
"                lhtr74gMsg7rtdllll                ",
"                ljrrr8rlvblllbbcl                 ",
"                lh rtrryulvbbbll                  ",
"                 j  errrruhlllk                   ",
"                 lk  rrrrryh                      ",
"                        t                         ",
"                                                  ",
"                                                  ",
"                                                  ",
"                                                  "
};
