/* XPM */
static char *portal_31722255068[] = {
/* columns rows colors chars-per-pixel */
"50 50 58 1 ",
"  c None",
". c #091C2B",
"X c #071F31",
"o c #0A2233",
"O c #0C293D",
"+ c #0D2B41",
"@ c #0E334B",
"# c #0F3751",
"$ c #0F3954",
"% c #0F3B59",
"& c #103753",
"* c #103B57",
"= c #113C5A",
"- c #113F61",
"; c #124163",
": c #15466C",
"> c #15486E",
", c #164C74",
"< c #184E76",
"1 c #175076",
"2 c #16517C",
"3 c #19547D",
"4 c #1A5782",
"5 c #1A5884",
"6 c #1B5D8B",
"7 c #1B5F90",
"8 c #1E6395",
"9 c #1E6599",
"0 c #1F689D",
"q c #20679C",
"w c #206A9E",
"e c #1F6AA1",
"r c #226EA5",
"t c #216FA9",
"y c #2272AD",
"u c #2375B1",
"i c #2479B6",
"p c #257CBB",
"a c #277FC0",
"s c #2780BF",
"d c #2782C4",
"f c #2984C6",
"g c #2785CA",
"h c #2986CA",
"j c #2A8ACE",
"k c #308ECF",
"l c #2B8DD4",
"z c #2E8FD8",
"x c #308ED3",
"c c #2D90D6",
"v c #2C91DA",
"b c #3190D6",
"n c #3091D9",
"m c #2D96E2",
"M c #2E99E5",
"N c #2F9BEA",
"B c #3099E5",
"V c #319CEC",
/* pixels */
"                                                  ",
"                                                  ",
"                     cnnvx                        ",
"                       lvvv                       ",
"                        lvvv                      ",
"                      yyyvvvl                     ",
"                     yyyyihvc                     ",
"                    yyyyyypcvj                    ",
"                    yyyyryypvvp                   ",
"                   yyy885885vmi                   ",
"                  uy864444440Nay                  ",
"                uuyt008444446Nju                  ",
"                yytrvvd421246lmiy                 ",
"                uyicmv8,:::,4yMiyy                ",
"                yjvMc6>::::;;yMtyy                ",
"                yvmj93::::=%%rmdyy                ",
"                lNj94<>:::*$=<hfyy                ",
"                Mv844::::==$*3lx9y  c             ",
"               mM9444:::;==&+@$2tt  vb            ",
"              lvd6454>::==*@+++<88 cvc            ",
"              zj94541>>>==&+OX=348ylvb            ",
"             xlu8444,>>-=*@+X.X,58ilvc            ",
"             zlu8444,::-*&+O...,6yhvv             ",
"             lly8444,>:-*&++..@<6ypll             ",
"             niu7444,>:-*&O+..;549fvc             ",
"             cuy9444,::;*#++..;538hvv             ",
"             cyy7654,::-*&O+..;44rgv              ",
"             v y7544,::-*&+Oo.;46pll              ",
"             c uq654<::-**@O+O:35scl              ",
"               u7h44<:>-**#OO+:4qsvc              ",
"               u9hy4,::;**$@OO:3yfN               ",
"               ytla53,>>=**$$$>5jMB               ",
"               yu8Np4:::;****;44MN                ",
"                y6Nd4<:::=**%;4rVM                ",
"                y6vd43<::;$%%:emMv                ",
"                yydNr42:::%%%4dNji                ",
"                uypVt44<:::;:sMluy                ",
"                 ydVt443:::,6Mjyy                 ",
"                 upBy444,:,3jMiyy                 ",
"                  pmvq443444fuyyu                 ",
"                  udBl554456qyy                   ",
"                   ymnq746qtyyy                   ",
"                   ppBgtrtyyyyy                   ",
"                    tjzduyyyt                     ",
"                     dvvpyyy                      ",
"                      vvjy  l                     ",
"                       vvl lvk                    ",
"                        zvvnl                     ",
"                         lv                       ",
"                                                  "
};
