/* XPM */
static char *result[] = {
/* columns rows colors chars-per-pixel */
"50 50 55 1 ",
"  c #071D2D",
". c #081C2B",
"X c #0A2133",
"o c #0C263A",
"O c #0D293E",
"+ c #0D2B41",
"@ c #0E334D",
"# c #0F3753",
"$ c #0F3954",
"% c #0F3B59",
"& c #103B56",
"* c #103C59",
"= c #124163",
"- c #15476C",
"; c #15486E",
": c #154C73",
"> c #184E75",
", c #17517A",
"< c #19537C",
"1 c #195682",
"2 c #1A5986",
"3 c #1C5D8C",
"4 c #1D5F91",
"5 c #1E6395",
"6 c #1E669A",
"7 c #1F699F",
"8 c #206495",
"9 c #21679A",
"0 c #21699D",
"q c #206DA4",
"w c #216FA9",
"e c #2272AD",
"r c #2376B2",
"t c #2479B6",
"y c #257CBB",
"u c #287FBE",
"i c #267FC1",
"p c #2680BF",
"a c #2681C3",
"s c #2984C6",
"d c #2985C9",
"f c #2A8ACE",
"g c #2B8DD4",
"h c #2C8FD8",
"j c #2C90D5",
"k c #2C91DB",
"l c #3093D7",
"z c #3093DB",
"x c #2D97E3",
"c c #2E99E6",
"v c #2E9CEA",
"b c #3096E2",
"n c #309AE7",
"m c #309DEB",
"M c None",
/* pixels */
"MMMMMMMMMMMMMMMMMMMMMMMMMMMMMMMMMMMMMMMMMMMMMMMMMM",
"MMMMMMMMMMMMMMMMMMMMMMMMMMMMMMMMMMMMMMMMMMMMMMMMMM",
"MMMMMMMMMMMMMMMMMMMMMMMMMMMMMMMMMMMMMMMMMMMMMMMMMM",
"MMMMMMMMMMMMMMMMMMMMMMMMMMMMMMMMMMMMMMMMMMMMMMMMMM",
"MMMMMMMMMMMMMMMMMMMkMMMMMMMMMMMMMMMMMMMMMMMMMMMMMM",
"MMMMMMMMMMMMMMMMMMMMMMeeeeeeMMMMMMMMMMMMMMMMMMMMMM",
"MMMMMMMMMMMMMMMMMMMMeeeeeeeefhkMMMMMMMMMMMMMMMMMMM",
"MMMMMMMMMMMMMMMMMMjMeeeewykkmmkhMMMMMMMMMMMMMMMMMM",
"MMMMMMMMMMMMMMMMMMfeeew31smcxhyajMMMMMMMMMMMMMMMMM",
"MMMMMMMMMMMMMMMMMjMeee31tcmueyeegjMMMMMMMMMMMMMMMM",
"MMMMMMMMMMMMMMMMkhMee312kk5215eerfkMMMMMMMMMMMMMMM",
"MMMMMMMMMMMMMMMMkfeew2,tgr21116erMMMMMMMMMMMMMMMMM",
"MMMMMMMMMMMMMMMMksee5<;5,;,1114weMMMMMMMMMMMMMMMMM",
"MMMMMMMMMMMMMMMMhie02=*--;;<11<weMMMMMMMMMMMMMMMMM",
"MMMMMMMMMMMMMMMMktq1=****--,1112eeMMMMMMMMMMMMMMMM",
"MMMMMMMMMMMMMMMMktq<=&&%*=-><1117rMMMMMMMMMMMMMMMM",
"MMMMMMMMMMMMMMMMht4:&*&***--<1113eMMMMMMMMMMMMMMMM",
"MMMMMMMMMMMMMMMMkr1;&*&*%=--;1112rMMMMMMMMMMMMMMMM",
"MMMMMMMMMMMMMMMMk51=++@*&*;-;11815eMMMMMMMMMMMMMMM",
"MMMMMMMMMMMMMMMsk5<%+++$**--;11f25eMMMMMMMMMMMMMMM",
"MMMMMMMMMMMMMMMdx5;Xo+O@%%=-;>1ks2qMMMMMMMMMMMMMMM",
"MMMMMMMMMMMMMMMsx7:. O+@$$=;->13z6eMMMMMMMMMMMMMMM",
"MMMMMMMMMMMMMMMpck:. oO+$%==->11mfeMMMMMMMMMMMMMMM",
"MMMMMMMMMMMMMMMuck:.. O+$%=--:11xheeMMMMMMMMMMMMMM",
"MMMMMMMMMMMMMMManz:..X++$*=--:11ecueMMMMMMMMMMMMMM",
"MMMMMMMMMMMMMMMuxm;...++$%=--:110viMMMMMMMMMMMMMMM",
"MMMMMMMMMMMMMMMegm;..X++#*=-->110msMMMMMMMMMMMMMMM",
"MMMMMMMMMMMMMMMesmr..O++$&*;-:116vseMMMMMMMMMMMMMM",
"MMMMMMMMMMMMMMMe0xg@O+++#%=--:216xssMMMMMMMMMMMMMM",
"MMMMMMMMMMMMMMMewig9+++@%%=--:118cgMMMMMMMMMMMMMMM",
"MMMMMMMMMMMMMMMre2:O++@#%%=--:115xxMMMMMMMMMMMMMMM",
"MMMMMMMMMMMMMMMeew>###*%%%=--:119kkMMMMMMMMMMMMMMM",
"MMMMMMMMMMMMMMMMew<=$*****;;;:116kkMMMMMMMMMMMMMMM",
"MMMMMMMMMMMMMMMMee<:&*****--;,116jkMMMMMMMMMMMMMMM",
"MMMMMMMMMMMMMMjMee6<=****=--;111wkkMMMMMMMMMMMMMMM",
"MMMMMMMMMMMMMMhleeq1<****--;<112tkkMMMMMMMMMMMMMMM",
"MMMMMMMMMMMMMMhkkrq21=%=--;,11<qtkMMMMMMMMMMMMMMMM",
"MMMMMMMMMMMMMMMkhde611;;-;:<113etkMMMMMMMMMMMMMMMM",
"MMMMMMMMMMMMMMMkkhrw311:-;>11<7etkMMMMMMMMMMMMMMMM",
"MMMMMMMMMMMMMMMMkkfte32132pc53eeykMMMMMMMMMMMMMMMM",
"MMMMMMMMMMMMMMMMkkkksre6famf36erhkMMMMMMMMMMMMMMMM",
"MMMMMMMMMMMMMMMMMkxvvkkkcxkw7eeehkMMMMMMMMMMMMMMMM",
"MMMMMMMMMMMMMMMMMMkkvvmckyteeeeMhjMMMMMMMMMMMMMMMM",
"MMMMMMMMMMMMMMMMMMMjkhkhtreeeeMMhMMMMMMMMMMMMMMMMM",
"MMMMMMMMMMMMMMMMMMMMMMgtwrwreMMkkMMMMMMMMMMMMMMMMM",
"MMMMMMMMMMMMMMMMMMMMMMMMMrMMMMMMMMMMMMMMMMMMMMMMMM",
"MMMMMMMMMMMMMMMMMMMMMMMMMMMMMMMMMMMMMMMMMMMMMMMMMM",
"MMMMMMMMMMMMMMMMMMMMMMMMMMMMMMMMMMMMMMMMMMMMMMMMMM",
"MMMMMMMMMMMMMMMMMMMMMMMMMMMMMMMMMMMMMMMMMMMMMMMMMM",
"MMMMMMMMMMMMMMMMMMMMMMMMMMMMMMMMMMMMMMMMMMMMMMMMMM"
};
