/* XPM */
static char *result[] = {
/* columns rows colors chars-per-pixel */
"50 50 33 1 ",
"  c black",
". c gray8",
"X c #181818",
"o c #1B1B1B",
"O c #1E1E1E",
"+ c #282828",
"@ c #2F2F2F",
"# c gray19",
"$ c #313131",
"% c #444444",
"& c gray27",
"* c #4B4B4B",
"= c #5D5D5D",
"- c #606060",
"; c #656565",
": c #6C6C6C",
"> c #717171",
", c #727272",
"< c gray48",
"1 c gray51",
"2 c #838383",
"3 c gray54",
"4 c #8D8D8D",
"5 c #8E8E8E",
"6 c #909090",
"7 c gray57",
"8 c gray58",
"9 c #959595",
"0 c gray59",
"q c #989898",
"w c gray60",
"e c #9A9A9A",
"r c None",
/* pixels */
"rrr                                           rrrr",
"rrr                                            rrr",
"rrr                                            rrr",
"rrr;;;;;;;;;;;;;;;;;;;;;;;;;;;;;;;;;;;;;;;;;;;-rrr",
"  $wwwwwwwwwwwwwwwwwwwwwwwwwwwwwwwwwwwwwwwwwww3   ",
"  $wwwwwwwwwwwwwwwwwwwwwwwwwwwwwwwwwwwwwwwwwww3   ",
"  $www2110wwwwwwwwwwwwwwwwwwwwwwwwwwwwww5113ww3   ",
"  $wwqO  4wwwwwwwwwwwwwwwwwwwwwwwwwwwwww>  =ww3   ",
"  $wwqO  4wwwwwwwwwwwwwwwwwwwwwwwwwwwwww>  =ww3   ",
"  $wwq*&%6wwwwwwwwwwwwwwwwwwwwwwwwwwwwww<&&:ww3   ",
"  $wwwwwwwwwwwwwwwwwwwwwwwwwwwwwwwwwwwwwwwwwww3   ",
"  $wwwwwwwwwwwwwwwwwwwwwwwwwwwwwwwwwwwwwwwwwww3   ",
"  $wwwwwwwwwwwwwwwwwwwwwwwwwwwwwwwwwwwwwwwwwww3   ",
"  $wwwwwwwwwwwwwwwwwwwwwwwwwwwwwwwwwwwwwwwwwww3   ",
"  $wwwwwwwwwwwwwwwwwwwwwwwwwwwwwwwwwwwwwwwwwww3   ",
"  $wwwwwwwwwwwwwwwwwwwwwwwwwwwwwwwwwwwwwwwwwww3   ",
"  $wwwwwwwwwwwwwwwwwwwwwwwwwwwwwwwwwwwwwwwwwww3   ",
"  $wwwwwwwwwwwwwwwwwwwwwwwwwwwwwwwwwwwwwwwwwww3   ",
"  $wwwwwwwwwwwwwwwwwwwwwwwwwwwwwwwwwwwwwwwwwww3   ",
"  $wwwwwwwwwwwwwwwwwwwwwwwwwwwwwwwwwwwwwwwwwww3   ",
"  $wwwwwwwwwwwwwwwwwwwwwwwwwwwwwwwwwwwwwwwwwww3   ",
"  $wwwwwwwwwwwwwwwwwwwwwwwwwwwwwwwwwwwwwwwwwww3   ",
"  $wwwwwwwwwwwwwwwwwwwwwwwwwwwwwwwwwwwwwwwwwww3   ",
"  $wwwwwwwwwwwwwwwwwwwwwwwwwwwwwwwwwwwwwwwwwww3   ",
"  $wwwwwwwwwwwwwwwwwwwwwwwwwwwwwwwwwwwwwwwwwww3   ",
"  $wwwwwwwwwwwwwwwwwwwwwwwwwwwwwwwwwwwwwwwwwww3   ",
"  $wwwwwwwwwwwwwwwwwwwwwwwwwwwwwwwwwwwwwwwwwww3   ",
"  $wwwwwwwwwwwwwwwwwwwwwwwwwwwwwwwwwwwwwwwwwww3   ",
"  $wwwwwwwwwwwwwwwwwwwwwwwwwwwwwwwwwwwwwwwwwww3   ",
"  $wwwwwwwwwwwwwwwwwwwwwwwwwwwwwwwwwwwwwwwwwww3   ",
"  $wwwwwwwwwwwwwwwwwwwwwwwwwwwwwwwwwwwwwwwwwww3   ",
"  $wwwwwwwwwwwwwwwwwwwwwwwwwwwwwwwwwwwwwwwwwww3   ",
"  $wwwwwwwwwwwwwwwwwwwwwwwwwwwwwwwwwwwwwwwwwww3   ",
"  $wwwwwwwwwwwwwwwwwwwwwwwwwwwwwwwwwwwwwwwwwww3   ",
"  $wwwwwwwwwwwwwwwwwwwwwwwwwwwwwwwwwwwwwwwwwww3   ",
"  $wwwwwwwwwwwwwwwwwwwwwwwwwwwwwwwwwwwwwwwwwww3   ",
"  $wwwwwwwwwwwwwwwwwwwwwwwwwwwwwwwwwwwwwwwwwww3   ",
"  $wwwwwwwwwwwwwwwwwwwwwwwwwwwwwwwwwwwwwwwwwww3   ",
"  $wwwwwwwwwwwwwwwwwwwwwwwwwwwwwwwwwwwwwwwwwww3   ",
"  $wwwwwwwwwwwwwwwwwwwwwwwwwwwwwwwwwwwwwwwwwww3   ",
"  $www777qwwwwwwwwwwwwwwwwwwwwwwwwwwwwww9778ww3   ",
"  $wwqo  4wwwwwwwwwwwwwwwwwwwwwwwwwwwwww>  =ww3   ",
"  $wwqO  4wwwwwwwwwwwwwwwwwwwwwwwwwwwwww>  =ww3   ",
"  $wwq+X.5wwwwwwwwwwwwwwwwwwwwwwwwwwwwww,XX-ww3   ",
"  $wwwqqqwwwwwwwwwwwwwwwwwwwwwwwwwwwwwwwqqqqww3   ",
"  $wwwwwwwwwwwwwwwwwwwwwwwwwwwwwwwwwwwwwwwwwww3   ",
"  $ewwwwwwwwwwwwwwwwwwwwwwwwwwwwwwwwwwwwwwwwww3   ",
"rrr###########################################@rrr",
"rrr                                            rrr",
"rrr                                            rrr"
};
