/* XPM */
static char *result[] = {
/* columns rows colors chars-per-pixel */
"50 50 114 2 ",
"   c #AE562F",
".  c #AD5C2D",
"X  c #B25C27",
"o  c #B2562F",
"O  c #B85729",
"+  c #B25C2E",
"@  c #A75D37",
"#  c #AE5C32",
"$  c #AC573E",
"%  c #A65D3B",
"&  c #AD5B3B",
"*  c #B25732",
"=  c #B15C32",
"-  c #B85A31",
";  c #B3573C",
":  c #BC5438",
">  c #B45C3B",
",  c #BA593B",
"<  c #A66024",
"1  c #AB6025",
"2  c #AD602B",
"3  c #B1602A",
"4  c #AC6132",
"5  c #A7603F",
"6  c #AF623A",
"7  c #B36234",
"8  c #B3613D",
"9  c #B9623A",
"0  c #A55E45",
"q  c #AD5A42",
"w  c #AE5C48",
"e  c #B45744",
"r  c #B15A43",
"t  c #AE6244",
"y  c #B36142",
"u  c #B76D4D",
"i  c #B56552",
"p  c #B46F55",
"a  c #B86A56",
"s  c #BF6E5D",
"d  c #AD7255",
"f  c #A8755D",
"g  c #BC7853",
"h  c #B57559",
"j  c #BD7560",
"k  c #BF846E",
"l  c #BF886E",
"z  c #BE8475",
"x  c #BE8976",
"c  c #BE847A",
"v  c #BD8B7B",
"b  c #BA9278",
"n  c #C2866D",
"m  c #C18574",
"M  c #C28A73",
"N  c #C2857A",
"B  c #C28A7B",
"V  c #C88C7F",
"C  c #BE8983",
"Z  c #B49785",
"A  c #BD9782",
"S  c #B7938C",
"D  c #BC9588",
"F  c #BE9A88",
"G  c #BD9F92",
"H  c #BDA28F",
"J  c #BEA294",
"K  c #C58E82",
"L  c #C39183",
"P  c #C89685",
"I  c #C89986",
"U  c #C5938A",
"Y  c #C59A8A",
"T  c #C9998A",
"R  c #D09F86",
"E  c #D2948B",
"W  c #C59C92",
"Q  c #CB9E93",
"!  c #D29E97",
"~  c #C1A296",
"^  c #C8A691",
"/  c #C5A49A",
"(  c #C9A59A",
")  c #C0A5A3",
"_  c #D5BAAF",
"`  c #D3BAB1",
"'  c #CDC4B2",
"]  c #D7C0B1",
"[  c #D9C7C0",
"{  c #DCCCC4",
"}  c #DED0CC",
"|  c #DFD6D0",
" . c #E2CCC7",
".. c #E2CCC9",
"X. c #E2D2C6",
"o. c #E2D2CD",
"O. c #E2D5D0",
"+. c #E3D9D7",
"@. c #EDDDD5",
"#. c #E6DDDA",
"$. c #E9DEDA",
"%. c #E7E1DE",
"&. c #E9E1DC",
"*. c #EDE6E3",
"=. c #EEE8E4",
"-. c #F1E9E4",
";. c #F8ECE7",
":. c #F3EDEB",
">. c #F6F1EE",
",. c #F5EFF0",
"<. c #F6F4F2",
"1. c #F9F6F5",
"2. c #FFFFFF",
"3. c None",
/* pixels */
"3.2.2.2.2.2.2.2.2.2.2.2.2.2.2.2.2.2.2.2.2.2.2.2.2.2.2.2.2.2.2.2.2.2.2.2.2.2.2.2.2.2.2.2.2.2.2.2.2.3.",
"2.-.E N N N x x c c c c m x c c c c m m N B v | 2.2.#.b M n m z c c j K m N N N j C z c c v N Q ,.2.",
"2.Z r r q q $ $ q q q q q & q q $ q $ & q r 8 h 1.<.a . = 8 > r q q q q e ; e e q q $ q w y - - Y 2.",
"2.x = ; &   @ # # @ & # & # & & @ & @ 7 > & 2 7 :.:.4 . = > = = ; # & > * $ $ # @ @ # @ & & = - m 2.",
"2.N > =   . o # #   # # = = # # . . . 2 # 3 . 8 :.:.6 . = = = = + # # # . @ . #     # & = & 4 = l 2.",
"2.v = # # . o . . = = + = = = = # o + + 7 # . y :.:.> . = + = = + . 4 # . . @ .   & = = = = 4 2 l 2.",
"2.v > = + o = = = = = = = 7 = = = = = 7 = 7 . y :.:.8 . = = - = + 7 # # # . . . # = = = = = 4 # n 2.",
"2.v = # # = = = = = = = # = = = = + = = # # # 8 :.:.8 2 = = = + = = # # # # . = = # = ; > = = . n 2.",
"2.v ; # = = = = = = = + # = = . = = = 7 = # # y =.:.8 2 # = = = = # = 4 = = 4 = = = # = = = # > m 2.",
"2.v # = = + = = = = = = = + = 7 = = # # # # . y :.:.8 2 + = = = = = = + = = = = = = 7 = = = 6 r m 2.",
"2.K = = = = = + # + = # = 7 = = = = = = 7 . . y :.:.q . = + = = = 7 = = = = = = = . = = = # # q c 2.",
"2.v ; = = + + = + = = 7 = = = = = = 3 = + # # y :.:.t # . + o + = = = = 7 . = = 7 = = = 7 # & q c 2.",
"2.N = ; = + = + = = = = = = + = 7 = + . = + 2 8 :.,.8 # . . 2 2 3 3 # 3 2 2 7 X . 2 4 . 4 7 & ; c 2.",
"2.v = = = + + + + = = = = = = = = = = = = = = 9 :.:.> = 2 . . 4 # 4 4 2 = + o - + 2 . 4 2 # @ = x 2.",
"2.J ; > = + = = = = 7 - - = = 7 = = = = = = - j 1.<.s = > > > > > , > , , , , , , , > > , > 4 7 W 2.",
"2.-.Q L L L L L L L L L L L L L L L L L L L P o.2.2.+.L L L L L L L L L L L K L L L L L L L L W :.2.",
"2.2.2.2.2.2.2.2.2.2.2.2.2.2.2.2.2.2.2.2.2.2.2.2.2.2.2.2.2.2.2.2.2.2.2.2.2.2.2.2.2.2.2.2.2.2.2.2.2.2.",
"2.2.*.#.+.+.+.+.+.+.*.2.2.2.>.+.+.+.+.+.+.+.+.+.+.+.| +.+.+.+.+.+.+.+.>.2.2.2.*.+.+.+.+.+.+.+.%.1.2.",
"2.{ 8 - > > > # # # 0 ..2.:.d X . = *   # # # 4 # 4 4 2 = - - - - - + d -.2.o.8 7 = = = = = # 4 ] 2.",
"2.L 4 # 4 + = = # # 3 ~ 2.o.7 = = = = = = = = = = = = = + + = > = > = 4 [ 2.( = = . + + + # = > N 2.",
"2.C # # = = = = & & + ~ 2.o.= = = = = = = = = = = = = # = = = = 7 = > # _ 2.( * = = + + = # > r N 2.",
"2.B # 7 = = = = # = - ~ 2.} # = = = = = = # = = = = = # # # = 4 # 7 * 3 ` 2.( + # + = = = # 4 q N 2.",
"2.B # = = = = = > > 7 ^ 2.} = = = = ; ; = > = = = # # # # # # 4 6 # - X _ 2.! ; # . = = = # 4 q c 2.",
"2.B = = = = = = = * + W 2.} # # # # = # = # # = = # #   # # @ # # 4 - + _ 2.( O . = = = = > & q x 2.",
"2.B = = = = = = * , - J 2.} =       # # # = = # = = = # #   @ # # 4 - + _ 2.( o = . = = ; # # q N 2.",
"2.K = = = = * - - = + W 2.} = . # # = *   # . = = # & # # # . @ # 4 - + _ 2.( - # = = # # # & w N 2.",
"2.C = = = = * > > = = G 2.} = # = = = # = = # =   # # = @   # # # # o X _ 2.~ + = . = # 4 = # q N 2.",
"2.v # # = = = * > * - G 2.} = = = = = = . = + # = = # # #   # # # # o   _ 2.~ * # + 7 # # = # q c 2.",
"2.v # # # . # # > = = G 2.} # # = = = = = = = = = = . .     @     #   X ` 2.~   = + = # # # # $ z 2.",
"2.C @ . . # # # = = O W 2.} = . # = o # = = = = = # # @ # # # . .   ;   ` 2.J o # = = # .     q N 2.",
"2.S 2 . . # # # 4 & o J 2.o..     # # # = # = + # # @   @   @   # @ #   ` 2./ > . + + .   . $ r B 2.",
"2.{ & . # #   # + X 7 { 2.;.f X . #   . + = 3 3 3 3 X X . .   . . X . p &.2.' 5 4 4 . . . o O e  .2.",
"2.2.*.#.#.#.#.$.$.$.*.2.2.2.1.%.@.$.$.$.$.$.#.#.@.#.#.#.+.#.#.#.#.#.%.1.2.1.<.=.%.%.%.$.$.$.$.*.2.2.",
"2.2.2.2.2.2.2.2.2.2.2.2.2.2.2.2.2.2.2.2.2.2.2.2.2.2.2.2.2.2.2.2.2.2.2.2.2.2.2.2.2.2.2.2.2.2.2.2.2.2.",
"2.@.I v v v c B B B B B B B B B V B B x B x C { 2.2.o.b v x x v B B B v v v v c v v v v x v v U *.2.",
"2.Y 4 # . + = = . # . 4 4 2 . + X 2 1 X 1 < . i 1.>.a % $   = = + = = 2 . . . . 2 4 3 . . . . ; F 2.",
"2.z = # # #   # = & # # # # = ; = = = # @ . @ t :.:.y q $ # = = = = = = . #   # = = = = . # @ @ x 2.",
"2.B = # # # & # # # # # # # * = = # # # . . @ t >.:.t % # . o = = = = # # # # # # = = . # #   $ N 2.",
"2.B .       # # = # #   #   = *   . . .   @ # t :.>.y 4 # # # = + = # = = = #   # = = # # # # q N 2.",
"2.z . # . . # # = = #   # #   # . @     @ . # t >.:.r # .   # # = = = 4 = # # . # = = = #   & q z 2.",
"2.z # # # . . + o = + # # # # # . . . . # # # > >.:.> # @ # @ # 4 = 7 = o ; # # = o = . = . # # k 2.",
"2.x # # # . # . = = = # = # # # # . .     # & 7 :.:.9 # . # # 4 # # # = + = # # o . . 7 # 7 # . n 2.",
"2.x # 4 # # + = = = = = = . # # = . = . # = & 8 :.>.8 . # @ 4 # # = = = = = = # . 3 = . = . # # n 2.",
"2.x 4 4 # # = = + = 7 + = = = = = = = = # = ; 7 >.:.> # . . # 4 = 4 = = = # = = = + = = = = = = n 2.",
"2.x # = # 7 + = = = = = = = = = = = = = = = 7 y :.:.7 = # 4 # # = 7 # = = ; = = = . = = = = + # n 2.",
"2.x # = = = = = 7 = = = = = = = = = = = = = 6 y :.:.7 = = # = # = + = = = = = = = = = 7 = = 7 = n 2.",
"2.v 7 = = = = = = = = = = = = + # = = = = # # y :.:.6 # = = > = = = = = = = = > 7 = = = = = # - n 2.",
"2.! = # = = = = = = = = = = = = 7 = = 4 # # @ p <.1.g 6 > > > = > > = = = 7 & 4 > = = & 7 4 ; - I 2.",
"2.;.^ F F F Y Y Y Y Y Y I I I T T T Y I Y F G  .2.2.*.) D A A A B H b b Y A A b A A A A A L U / &.2.",
"3.2.2.2.2.2.2.2.2.2.2.2.2.2.2.2.2.2.2.2.2.2.2.2.2.2.2.2.2.2.2.2.2.2.2.2.2.2.2.2.2.2.2.2.2.2.2.2.2.3."
};
