/* XPM */
static char * caixa_xpm[] = {
"50 50 547 2",
"  	c #6B4328",
". 	c #72472A",
"+ 	c #7B4E2D",
"@ 	c #815230",
"# 	c #825431",
"$ 	c #835431",
"% 	c #835331",
"& 	c #825330",
"* 	c #7D502F",
"= 	c #754A2B",
"- 	c #6C4428",
"; 	c #684126",
"> 	c #7D4F2D",
", 	c #855431",
"' 	c #996237",
") 	c #A56B3D",
"! 	c #AA6E40",
"~ 	c #AB6E40",
"{ 	c #AA6E3F",
"] 	c #A86E3F",
"^ 	c #AB6F40",
"/ 	c #AC6F40",
"( 	c #A96D3F",
"_ 	c #A76C3E",
": 	c #9D6539",
"< 	c #8D5932",
"[ 	c #7C4F2D",
"} 	c #73492A",
"| 	c #915C34",
"1 	c #905C34",
"2 	c #945F36",
"3 	c #A3693B",
"4 	c #AC703F",
"5 	c #AD703E",
"6 	c #A46A3B",
"7 	c #9E6639",
"8 	c #A66B3C",
"9 	c #AE703F",
"0 	c #B07140",
"a 	c #AE713F",
"b 	c #A86D3D",
"c 	c #A0673A",
"d 	c #A1683A",
"e 	c #AA6E3E",
"f 	c #A76B3C",
"g 	c #9A6237",
"h 	c #8E5A33",
"i 	c #8A5831",
"j 	c #7F512E",
"k 	c #9E653A",
"l 	c #A3693C",
"m 	c #976037",
"n 	c #955F36",
"o 	c #A2693A",
"p 	c #A66B3B",
"q 	c #895730",
"r 	c #734927",
"s 	c #905C32",
"t 	c #A76C3B",
"u 	c #AE703E",
"v 	c #A96D3D",
"w 	c #986135",
"x 	c #7C4F2B",
"y 	c #7E502C",
"z 	c #9D6438",
"A 	c #9A6337",
"B 	c #935D34",
"C 	c #976036",
"D 	c #945E35",
"E 	c #83522F",
"F 	c #A2683B",
"G 	c #AD7040",
"H 	c #A56A3C",
"I 	c #945F35",
"J 	c #9D6538",
"K 	c #8B5831",
"L 	c #7B4E2A",
"M 	c #935E33",
"N 	c #A86B3B",
"O 	c #AC6F3D",
"P 	c #AD6F3E",
"Q 	c #AC6E3D",
"R 	c #A96C3C",
"S 	c #9A6236",
"T 	c #83542E",
"U 	c #84542E",
"V 	c #986136",
"W 	c #935E35",
"X 	c #9B6338",
"Y 	c #A2673A",
"Z 	c #835230",
"` 	c #A2683C",
" .	c #AF7142",
"..	c #A86C3D",
"+.	c #9C6438",
"@.	c #925D35",
"#.	c #945E34",
"$.	c #9B6237",
"%.	c #A16739",
"&.	c #A2683A",
"*.	c #976035",
"=.	c #955F35",
"-.	c #925D34",
";.	c #A3683A",
">.	c #AB6E3F",
",.	c #82542E",
"'.	c #8C5932",
").	c #8D5933",
"!.	c #905B34",
"~.	c #915D34",
"{.	c #8B5932",
"].	c #8B5832",
"^.	c #8F5B33",
"/.	c #8D5A33",
"(.	c #8B5930",
"_.	c #86552E",
":.	c #966035",
"<.	c #A96D3E",
"[.	c #81532D",
"}.	c #6E4626",
"|.	c #945F34",
"1.	c #9B6337",
"2.	c #976137",
"3.	c #9C6539",
"4.	c #976138",
"5.	c #714728",
"6.	c #684124",
"7.	c #674024",
"8.	c #684025",
"9.	c #663F23",
"0.	c #684125",
"a.	c #694125",
"b.	c #664024",
"c.	c #663F24",
"d.	c #694124",
"e.	c #694225",
"f.	c #674025",
"g.	c #6C4426",
"h.	c #7C4F2C",
"i.	c #8F5B34",
"j.	c #966036",
"k.	c #81522D",
"l.	c #704726",
"m.	c #8D5A31",
"n.	c #915D33",
"o.	c #A06739",
"p.	c #8E5B33",
"q.	c #905C33",
"r.	c #965F35",
"s.	c #A56B3C",
"t.	c #9C643A",
"u.	c #82522F",
"v.	c #6E4428",
"w.	c #6B4327",
"x.	c #694126",
"y.	c #6F4628",
"z.	c #714729",
"A.	c #6E4528",
"B.	c #724829",
"C.	c #6D4428",
"D.	c #6A4227",
"E.	c #774C2B",
"F.	c #915E35",
"G.	c #9F6538",
"H.	c #915C33",
"I.	c #966037",
"J.	c #A0673B",
"K.	c #AB6F3E",
"L.	c #925D33",
"M.	c #B07141",
"N.	c #AB6E3E",
"O.	c #A86C3C",
"P.	c #996136",
"Q.	c #784C29",
"R.	c #83532D",
"S.	c #AD7041",
"T.	c #9D653C",
"U.	c #855432",
"V.	c #774B2D",
"W.	c #754A2C",
"X.	c #73482B",
"Y.	c #71472A",
"Z.	c #7F502F",
"`.	c #7A4D2D",
" +	c #774B2C",
".+	c #764B2D",
"++	c #7F512F",
"@+	c #794C2D",
"#+	c #764A2C",
"$+	c #7E4F2F",
"%+	c #935E37",
"&+	c #A86D3F",
"*+	c #AA6D3D",
"=+	c #794D2A",
"-+	c #925E34",
";+	c #986237",
">+	c #A3693D",
",+	c #B27341",
"'+	c #AA6E3D",
")+	c #A4693B",
"!+	c #B17242",
"~+	c #B0713F",
"{+	c #996337",
"]+	c #9A6336",
"^+	c #89572F",
"/+	c #A46A3A",
"(+	c #B07241",
"_+	c #AE7041",
":+	c #9F663C",
"<+	c #895733",
"[+	c #7A4D2E",
"}+	c #74492B",
"|+	c #80512F",
"1+	c #825230",
"2+	c #7D4F2F",
"3+	c #794D2E",
"4+	c #764B2C",
"5+	c #7B4E2E",
"6+	c #966038",
"7+	c #A86C3F",
"8+	c #AB6E3D",
"9+	c #8B5931",
"0+	c #8C5A31",
"a+	c #976135",
"b+	c #986137",
"c+	c #B37442",
"d+	c #AC6F3E",
"e+	c #A66A3B",
"f+	c #B07240",
"g+	c #AB6D3D",
"h+	c #A36939",
"i+	c #A56B3A",
"j+	c #AF713F",
"k+	c #B17241",
"l+	c #A0673C",
"m+	c #835231",
"n+	c #744A2B",
"o+	c #7F502E",
"p+	c #A96D3C",
"q+	c #A4693A",
"r+	c #A16839",
"s+	c #B37443",
"t+	c #A3693A",
"u+	c #AA6D3C",
"v+	c #AD6F3D",
"w+	c #A1673C",
"x+	c #885632",
"y+	c #784C2C",
"z+	c #825231",
"A+	c #73492B",
"B+	c #875632",
"C+	c #986139",
"D+	c #996137",
"E+	c #AD6E3E",
"F+	c #A06639",
"G+	c #865530",
"H+	c #86552F",
"I+	c #AE7141",
"J+	c #8B5833",
"K+	c #815130",
"L+	c #7C4E2F",
"M+	c #986239",
"N+	c #AA6D3F",
"O+	c #895732",
"P+	c #9F6639",
"Q+	c #7F512D",
"R+	c #6F4627",
"S+	c #81522E",
"T+	c #A4683B",
"U+	c #AF7141",
"V+	c #A3683C",
"W+	c #8E5A35",
"X+	c #805130",
"Y+	c #7B4D2E",
"Z+	c #794C2E",
"`+	c #7F5130",
" @	c #966138",
".@	c #885631",
"+@	c #754A29",
"@@	c #7E502E",
"#@	c #A1683C",
"$@	c #7F502D",
"%@	c #633E22",
"&@	c #674023",
"*@	c #7F502C",
"=@	c #A2683D",
"-@	c #8C5935",
";@	c #976139",
">@	c #875630",
",@	c #6E4527",
"'@	c #633E23",
")@	c #7C4E2D",
"!@	c #5F3B22",
"~@	c #664023",
"{@	c #956035",
"]@	c #A3683B",
"^@	c #B17240",
"/@	c #8B5834",
"(@	c #885630",
"_@	c #603C22",
":@	c #674026",
"<@	c #845430",
"[@	c #75492B",
"}@	c #6C4327",
"|@	c #654023",
"1@	c #7D502D",
"2@	c #8C5934",
"3@	c #7D4F2E",
"4@	c #845431",
"5@	c #99623A",
"6@	c #74482B",
"7@	c #865532",
"8@	c #855430",
"9@	c #784B2D",
"0@	c #5D3A21",
"a@	c #643F23",
"b@	c #7D502C",
"c@	c #AE7140",
"d@	c #925E36",
"e@	c #9B6439",
"f@	c #6E4526",
"g@	c #643E22",
"h@	c #6D4527",
"i@	c #875633",
"j@	c #A3693E",
"k@	c #72482A",
"l@	c #613C22",
"m@	c #7E4F2C",
"n@	c #AF7140",
"o@	c #AD6F40",
"p@	c #A56A3B",
"q@	c #855530",
"r@	c #6D4426",
"s@	c #613C21",
"t@	c #7C4F2F",
"u@	c #74492C",
"v@	c #73482A",
"w@	c #724729",
"x@	c #7C4E2C",
"y@	c #B17341",
"z@	c #B27443",
"A@	c #85552F",
"B@	c #5D3A20",
"C@	c #794B2B",
"D@	c #75492C",
"E@	c #764B2A",
"F@	c #643E23",
"G@	c #653F23",
"H@	c #84542F",
"I@	c #5F3C21",
"J@	c #643E24",
"K@	c #704529",
"L@	c #7D4E2E",
"M@	c #81512F",
"N@	c #80502F",
"O@	c #714629",
"P@	c #623D23",
"Q@	c #7B4D2B",
"R@	c #AF703F",
"S@	c #B27342",
"T@	c #A5693B",
"U@	c #84532F",
"V@	c #6B4326",
"W@	c #70462A",
"X@	c #7C4E2B",
"Y@	c #965F36",
"Z@	c #B47443",
"`@	c #85542F",
" #	c #6B4325",
".#	c #694226",
"+#	c #7C4E2E",
"@#	c #6E4529",
"##	c #915C35",
"$#	c #A76A3B",
"%#	c #A16639",
"&#	c #7A4D2B",
"*#	c #653F24",
"=#	c #744A2C",
"-#	c #9D653A",
";#	c #9F663A",
">#	c #8A5833",
",#	c #764B2B",
"'#	c #865632",
")#	c #AD703F",
"!#	c #8F5C35",
"~#	c #7E502F",
"{#	c #794D2D",
"]#	c #885733",
"^#	c #9D653B",
"/#	c #915C36",
"(#	c #784C2D",
"_#	c #9E663B",
":#	c #A4683A",
"<#	c #A56A3E",
"[#	c #915D36",
"}#	c #75482B",
"|#	c #835330",
"1#	c #9E6538",
"2#	c #A56B3E",
"3#	c #8D5A34",
"4#	c #976136",
"5#	c #905C36",
"6#	c #925E37",
"7#	c #885732",
"8#	c #9F663B",
"9#	c #5A381F",
"0#	c #603C21",
"a#	c #764A2A",
"b#	c #9E6539",
"c#	c #A66C3E",
"d#	c #955F37",
"e#	c #865633",
"f#	c #895833",
"g#	c #B17340",
"h#	c #664124",
"i#	c #5D3B21",
"j#	c #643F24",
"k#	c #613D23",
"l#	c #623D22",
"m#	c #A76C3C",
"n#	c #AF7241",
"o#	c #A76B3E",
"p#	c #945F37",
"q#	c #794B2E",
"r#	c #674124",
"s#	c #5F3C22",
"t#	c #754929",
"u#	c #8D5A32",
"v#	c #A2693D",
"w#	c #875531",
"x#	c #613D22",
"y#	c #623E24",
"z#	c #925F37",
"A#	c #8B5934",
"B#	c #8C5933",
"C#	c #AE7040",
"D#	c #AE713E",
"E#	c #6F4629",
"F#	c #764A29",
"G#	c #A2693C",
"H#	c #956037",
"I#	c #9F673A",
"J#	c #A76B3B",
"K#	c #7D4F2C",
"L#	c #5F3B21",
"M#	c #734929",
"N#	c #6A4327",
"O#	c #744929",
"P#	c #8C5931",
"Q#	c #9A6338",
"R#	c #925E33",
"S#	c #5B3920",
"T#	c #72482B",
"U#	c #744A2A",
"V#	c #9C6338",
"W#	c #8D5931",
"X#	c #8E5A32",
"Y#	c #996236",
"Z#	c #B07242",
"`#	c #AA6E3C",
" $	c #774B29",
".$	c #9F6638",
"+$	c #7B4E2C",
"@$	c #674126",
"#$	c #613D21",
"$$	c #724828",
"%$	c #8B5732",
"&$	c #9D6338",
"*$	c #935E34",
"=$	c #986238",
"-$	c #9B6336",
";$	c #A1673A",
">$	c #6C4328",
",$	c #734829",
"'$	c #9C6437",
")$	c #8E5B32",
"!$	c #9F6738",
"~$	c #996235",
"{$	c #895831",
"]$	c #7C4F2A",
"^$	c #865531",
"/$	c #714829",
"($	c #694326",
"_$	c #72492A",
":$	c #7C4F2E",
"<$	c #855532",
"[$	c #6D4528",
"}$	c #7E502D",
"|$	c #925E35",
"1$	c #8A5830",
"2$	c #7E502B",
"3$	c #955F34",
"4$	c #9D6439",
"5$	c #9C6439",
"6$	c #986138",
"7$	c #905D35",
"8$	c #8B5933",
"9$	c #925D37",
"0$	c #945E37",
"a$	c #955F38",
"b$	c #8E5B35",
"c$	c #8E5B34",
"d$	c #976038",
"e$	c #7F512C",
"f$	c #AF7041",
"g$	c #996336",
"h$	c #996238",
"i$	c #A86C3E",
"j$	c #AA6D3E",
"k$	c #AB6D3F",
"l$	c #AB6D40",
"m$	c #A96C3E",
"n$	c #A56A3D",
"o$	c #9E653B",
"p$	c #9D6537",
"q$	c #935F34",
"r$	c #B27340",
"s$	c #B37340",
"t$	c #B37240",
"u$	c #B37241",
"v$	c #8C5A32",
"w$	c #A66B3D",
"x$	c #9B6437",
"y$	c #6F4625",
"z$	c #8F5B32",
"A$	c #A86C3B",
"B$	c #794D29",
"C$	c #9E6438",
"D$	c #A86B3C",
"E$	c #8B5830",
"F$	c #8F5C32",
"G$	c #915C32",
"H$	c #A26839",
"I$	c #A86D3C",
"J$	c #9F6739",
"K$	c #83532F",
"L$	c #875530",
"M$	c #82532F",
"N$	c #7B4D2D",
"O$	c #875631",
"P$	c #865631",
"Q$	c #885731",
"R$	c #81522F",
"S$	c #664026",
"T$	c #694227",
"U$	c #6D4429",
"V$	c #643F26",
"  . + @ # $ $ $ $ $ $ $ $ $ $ $ $ $ $ $ $ $ $ $ $ $ $ $ $ $ $ $ $ $ $ $ $ $ $ $ $ % % $ $ & * = - ; ",
"> , ' ) ! ~ { ] ! ^ / / / / / / / / / / / / / / / / / / / / / / / / / / / / / ^ ! ( ( ~ ^ _ : < [ } ",
"| 1 2 3 4 5 6 7 8 9 0 0 0 0 0 0 0 0 0 0 0 0 0 0 0 0 0 0 0 0 0 0 0 0 0 0 0 0 0 a b c d e 9 f g h i j ",
"k l m n o p q r s t u u u u u u u u u u u u u u u u u u u u u u u u u u u u u v w x y z f A B C D E ",
"F G H n I J K L M N O P P P P P P P P P P P P P P P P P P P P P P P P P P P Q R S T U V g W X Y C Z ",
"`  ...+.W @.I #.$.%.&.&.&.&.&.&.&.&.&.&.&.&.&.&.&.&.&.&.&.&.&.&.&.&.&.&.&.&.&.%.z *.=.I -.V %.;.C Z ",
"F >.-.,.I -.'.).!.| ~.-.1 h {.].].].].].].].].].].].].].].].].].].].].< ^.| -.| 1 ^./.| D (._.:.C Z ",
"F <.[.}.|.1.{.!.m 2.' 3.4., 5.6.7.8.7.9.0.a.0.0.0.0.7.b.c.d.e.0.f.7.g.h.i.' g V j.W i.' : k.l.m.C Z ",
"F / A n.o.o.p.C 1.q.r.s.e t.u.v.w.w.x.f.y.z.A.      w.x.f.y.B.C.D.w.E.F.) v G.H.-.V I.J.K.S L.1.C Z ",
"` M.N.O.O.%.p.P.L.Q.R.o.a S.T.U.V.W.X.Y.[ Z.`. +V.V..+X.Y.[ ++@+#+$+%+&+0 *+=.=+x -+;+>+,+'+f )+C Z ",
"` !+~+u *+%.p.{+]+^+s /+u (+_+:+<+[+W.}+|+1+2+[+[+[+3+4+}+++& 5+1+6+7+(+~+8+J 9+0+a+b+>+c+a d+e+C Z ",
"` !+f+u g+%.p.A /+h+i+O u j+k+_+l+<+V.} |+m+2+[+[+[+3+4+n+o+@ $ 6+( (+j+u 5 p+q+r+z I.>+s+j+P e+C Z ",
"` !+f+u g+%.'.I t+u+v+u u u j+(+_+w+x+y+|+z+2+[+[+[+3+4+A++ B+C+( (+j+u u u P 8+6 D+@.>+s+j+E+e+C Z ",
"` !+f+u g+F+G+H+C )+g+P u u u j+k+I+w+J+Z K+L+[+[+[+3+4+} @ M+N+(+j+u u u u Q 8 X {.O+` s+j+E+e+C Z ",
"` !+f+u g+P+Q+R+S+r.T+g+P u u u j+k+U+V+W+X+Y+[+[+[+Z+V.`+ @N+(+j+u u u u Q e+X .@+@@@#@s+j+E+e+C Z ",
"` !+f+u g+P+$@%@&@*@=.3 g+P u u u j+k+U+=@-@L+@+[+3+3+& ;@( (+j+u u u u Q e+X >@,@'@)@=@s+j+E+e+C Z ",
"` !+f+u g+F+u.w.!@~@Q+{@]@*+P u u u j+^@U+=@/@5+@+3+% M+{ (+j+u u u u Q e+A (@R+_@:@1+=@s+j+E+e+C Z ",
"` !+f+u g+F+<@[@}@!@|@1@I ]@*+P u u u j+^@U+=@2@3@4@5@! (+j+u u u u 8+e+A >@R+'@; 6@7@>+s+j+E+e+C Z ",
"` !+f+u g+F+8@9@#+D.0@a@b@=.]@*+P u u u j+^@c@w+d@e@^ (+j+u u u u Q e+g H+f@g@h@#+@+i@j@s+j+E+e+C Z ",
"` !+f+u g+F+8@9@@+k@; l@6.m@D ;.*+P u u u j+n@o@&+G (+j+u u u u 8+p@' q@r@s@,@)@t@`.i@j@s+j+E+e+C Z ",
"` !+f+u g+F+8@9@@+u@v@w@6.b.x@D &.*+P u u u j+y@z@,+j+u u u u Q p@' A@g.B@c.C@@ 2+`.i@j@s+j+E+e+C Z ",
"` !+f+u g+F+8@9@@+D@#+3@E@F@G@h.W Y *+P u a y@c+,+j+u u u u 8+p@D+H@g.I@J@K@L@1+2+`.i@j@s+j+E+e+C Z ",
"` !+f+u g+F+8@9@@+D@#+M@N@O@P@G@Q@B Y *+R@S@s+,+j+u u u u 8+T@b+U@V@_@; W@[@L@1+2+`.i@j@s+j+E+e+C Z ",
"` !+f+u g+F+8@9@@+D@#+M@1+@+A.P@G@X@Y@..!+Z@,+j+u u u u 8+p@g `@ #_@.#u@W.[@L@1+2+`.i@j@s+j+E+e+C Z ",
"` !+f+u g+F+8@9@@+D@#+M@1++#V.@#'@R+##N+s+,+j+u u u P 8+$#%##.&#*#.#=#Z+#+[@L@1+2+`.i@j@s+j+E+e+C Z ",
"` !+f+u g+F+8@9@@+D@#+M@1+t@[+.+} |+-#U+,+j+u u u P 8+e+t+T@;#>#,#n+Z+[+#+[@L@1+2+`.i@j@s+j+E+e+C Z ",
"` !+f+u g+F+8@9@@+D@#+M@1+t@3+5+'#t./ k+j+u u u P 8+$#q+p 8+)#>+!#~#{#Z+W.[@L@1+2+`.i@j@s+j+E+e+C Z ",
"` !+f+u g+F+8@9@@+D@#+M@1+5+5+]#^#S.k+j+u u u P 8+$#q+p 8+u f+U+) /#Z.(#W.[@L@1+2+`.i@j@s+j+E+e+C Z ",
"` !+f+u g+F+8@9@@+D@#+M@@ 3@]#_#G k+j+u u u P 8+p :#e+8+u u u f+U+<#[#~#[@}#L@1+2+`.i@j@s+j+E+e+C Z ",
"` !+f+u g+F+8@9@@+D@#+Z.|#>#_#_+k+j+u u u P g+T@1#F+f Q u u u u 0 M.2#[#+#[@L@1+2+`.i@j@s+j+E+e+C Z ",
"` !+f+u g+F+8@9@@+u@[@o+3#l+c@k+j+u u u P g+q+4#'.D F+O.O u u u u f+M.<#5#$+3@1+2+`.i@j@s+j+E+e+C Z ",
"` !+f+u g+F+8@9@9@}+ +<+l+I+y@j+u u u P g+)+j.S+R+&#^.P+O.O u u u u 0 U+<#6#4@|++#`.i@j@s+j+E+e+C Z ",
"` !+f+u g+F+8@9@9@@+7#8#_+k+j+u u u P g+q+j.$@~@9#0#a#h b#O.O u u u u 0 U+c#d#4@Y+@+e#j@s+j+E+e+C Z ",
"` !+f+u g+F+<@ +5+f#J.c@g#j+u u u P g+T+r.Q+h#i#j#k#l#a#h b#m#O u u u u f+n#o#p#K+q#7@>+s+j+E+e+C Z ",
"` !+f+u g+F+<@`.>##@I+^@j+u u u P g+:#=.$@r#s#w.=#Y.j#l#t#u#1#f O u u u u 0 U+o#%+X+'#v#s+j+E+e+C Z ",
"` !+f+u g+F+w#>##@U+k+j+u u u P *+]@=.$@r#x#C..+[+@+Y.y#0#t#< z f O u u u u 0 M.c#z#A#=@s+j+E+e+C Z ",
"` !+f+u g+o.B#e@C#g#D#u u u P *+]@I m@&@G@B.@+[+[+[+(#E#s#0#F#'.z f O u u u u ~+c@G#H#=@s+j+E+e+C Z ",
"` !+f+u g+%.^.I#'+p J#O u P *+&.D K#'@L#M#Z.2+[+[+[+[+W.N#'@a@O#P#z f Q u 5 '+p 8 3 Q#>+s+j+P e+C Z ",
"` !+f+u g+%.p.1.+.9+R#p@O *+;.W K#a@S#; @@m+2+[+[+[+3+4+T#U#g.%@O#K V#8 O 8+7 W#X#Y#;+>+s+j+P e+C Z ",
"` Z#)#`#v %.p.' #. $[..$O.&.W +$a@!@@$Y.N@z+2+[+[+[+3+4+n+@@)@0.#$$$%$&$J#t {@=+x *$=$>+c+d+p+T@C Z ",
"` S.P+Y#;.F+p.V -$P#n.o.;$W [ a@!@>$X.}+Z.z+L+3+3+3+3+4+n+++@ [@*#x#,$].'$;.'$u#)$4#I.` c@!$~$J C Z ",
"F { {$]$P.z /.D z z 1#P+2.^$/$($_$:$t@5+|#, @ `+`+`+~#t@5+% <$X+(#[$h@}$1 +.P+J +.;+|$: )+1$]$n.j.Z ",
"F >.< 2$3$*./.W X 4$4$5$6$7$8$2@[#6#9$[#0$d#0$%+6#6#6#6#9$p#a$%+6#b$A#c$d#X 4$4$5$d$7$2 ' q e$-+C Z ",
"` f$p@g$:.| *$h$l i$<.j$N+N+k$k$k$>.>.k$>.>.>.>.>.>.>.>.k$>.>.>.>.l$l$N+N+j$j$m$n$o$I.-.D Y#p$o.4#Z ",
"F U+v '$q$4#^.i b#9 r$r$s$t$u$u$t$t$t$t$t$t$t$t$t$t$t$t$t$t$t$t$t$u$u$u$t$s$,+n@)+~.v$:.Y@C %.)+2.|#",
";#w$z W x$&._.y$z$A$u u u u u u u u u u u u u u u u u u u u u u u u u u u u u u+a+B$L Y#o.n j.C$b+|#",
"Y@j.-.g e+D$:.E$g O.Q Q Q Q Q Q Q Q Q Q Q Q Q Q Q Q Q Q Q Q Q Q Q Q Q Q Q Q 8+p+.$F$G$H$I$J$I -.~.K$",
"8@L$B +.P+F+4$+.b#F+o.o.o.o.o.o.o.o.o.o.o.o.o.o.o.o.o.o.o.o.o.o.o.o.o.o.o.o.o.o.7 +.+.P+o.b#C {.M$+$",
"Y.N$w#x+O$O$P$P$O$O$O$O$O$O$O$O$O$O$O$O$O$O$O$O$O$O$O$O$O$O$O$O$O$O$O$O$O$O$O$O$O$P$P$w#w#Q$Q$R$A+[$",
"S$T$C.C.U$U$U$U$U$U$U$U$U$U$U$U$U$U$U$U$U$U$U$U$U$U$U$U$U$U$U$U$U$U$U$U$U$U$U$U$U$U$U$U$U$U$C.N#@$V$"};
