/* XPM */
static char *result[] = {
/* columns rows colors chars-per-pixel */
"30 30 55 1 ",
"  c black",
". c gray7",
"X c #1D1D1D",
"o c gray13",
"O c #6D5101",
"+ c #755701",
"@ c #795A01",
"# c #7B5C01",
"$ c #7C5C01",
"% c #7D5D01",
"& c #987202",
"* c #A17903",
"= c #A27903",
"- c #A37A03",
"; c #A97F03",
": c #AA7F03",
"> c #AA9200",
", c #BE9303",
"< c #BF9004",
"1 c #C09004",
"2 c #CB9904",
"3 c #CC9A04",
"4 c #D19E04",
"5 c #D29E05",
"6 c #D5A105",
"7 c #CBB008",
"8 c #CBB00F",
"9 c #CBB012",
"0 c #E6AE06",
"q c #E7AF06",
"w c #E8AF06",
"e c #E2B304",
"r c #ECB206",
"t c #ECBF03",
"y c #ECB805",
"u c #E1C300",
"i c #E7C800",
"p c #FEC007",
"a c #FFC107",
"s c #FFC706",
"d c #F6C903",
"f c #FFCD04",
"g c #FFCF04",
"h c #F6D500",
"j c #FAD002",
"k c #FFD003",
"l c #FFD203",
"z c #FFD303",
"x c #FFD702",
"c c #FFD801",
"v c #FFD901",
"b c #FFDA01",
"n c #FFDB01",
"m c #FFDD00",
"M c None",
/* pixels */
"MMMMMMMMMMMMMMMMMMMMMMMMMMMMMM",
"MMMMMMMMMMMMMM  MMMMMMMMMMMMMM",
"MMMMMMMMMMMMM 66 MMMMMMMMMMMMM",
"MMMMMMMMMMMMM$rr$MMMMMMMMMMMMM",
"MMMMMMMMMMM %aaaa% MMMMMMMMMMM",
"MMMMMMMMMMM %agga% MMMMMMMMMMM",
"MMMMMMMMMMM %acca% MMMMMMMMMMM",
"MMMMMMMMMM qsmmmmsq MMMMMMMMMM",
"MMMMMMMMMM qsmmmmsq MMMMMMMMMM",
"MMMMMMMMMM qsmmmmsq MMMMMMMMMM",
"M        *qjvmmmmvjq*        M",
"M #$$$$$$,svihmmhivs,$$$$$$# M",
"M paaaaaafmm.7mm7.mmfaaaaaap M",
"MM;4aglllxmmo9mm9ommxlllga4;MM",
"MM :acmmmmmmo9mm9ommmmmmca: MM",
"MMMM wfmmmmmX8mm8Xmmmmmfw MMMM",
"MMMM 1elnmmm>ummu>mmmnle1 MMMM",
"MMMMM :acmmmmmmmmmmmmca: MMMMM",
"MMMMMMO$ykmmmmmmmmmmky$OMMMMMM",
"MMMMMMM qfmmmmmmmmmmfq MMMMMMM",
"MMMMMMM qfmmmmmmmmmmfq MMMMMMM",
"MMMMMM&2dxmmbffffbmmxd2&MMMMMM",
"MMMMM :acmmmcaaaacmmmca: MMMMM",
"MMMMM :aczaa0    0aazca: MMMMM",
"MMMMM-4agt22<    <22tga4-MMMMM",
"MMMM waaa3   MMMM   3aaaw MMMM",
"MMMM waa=+MMMMMMMMMM+=aaw MMMM",
"MMMM 5qq@MMMMMMMMMMMM@qq5 MMMM",
"MMMM    MMMMMMMMMMMMMM    MMMM",
"MMMMMMMMMMMMMMMMMMMMMMMMMMMMMM"
};
