/* XPM */
static char *result[] = {
/* columns rows colors chars-per-pixel */
"50 50 108 2 ",
"   c black",
".  c #0F0703",
"X  c #140A04",
"o  c #083900",
"O  c #352213",
"+  c #333F11",
"@  c #402919",
"#  c #402A19",
"$  c #4E331F",
"%  c #4E341F",
"&  c #543822",
"*  c #0F5200",
"=  c #105400",
"-  c #115700",
";  c #166700",
":  c #197300",
">  c #1D7D00",
",  c #2C640B",
"<  c #2A7508",
"1  c #435319",
"2  c #425419",
"3  c #415618",
"4  c #6D4A2F",
"5  c #704C30",
"6  c #7B5436",
"7  c #7D5537",
"8  c #7E5537",
"9  c #7F5738",
"0  c #865B3B",
"q  c #885D3C",
"w  c #8A5E3D",
"e  c #8B5F3E",
"r  c #8C5F3E",
"t  c #8D613F",
"y  c #946642",
"u  c #956643",
"i  c #956743",
"p  c #966743",
"a  c #976743",
"s  c #986844",
"d  c #9F6D47",
"f  c #A06E47",
"g  c #A37049",
"h  c #A47049",
"j  c #A57149",
"k  c #B87F52",
"l  c #BA7F53",
"z  c #1E8300",
"x  c #1F8700",
"c  c #1F8900",
"v  c #1F8B00",
"b  c #208700",
"n  c #208C00",
"m  c #208E00",
"M  c #228F00",
"N  c #249900",
"B  c #259E00",
"V  c #26A200",
"C  c #26A300",
"Z  c #27A400",
"A  c #27AC00",
"S  c #28AA00",
"D  c #28AC00",
"F  c #2AB300",
"G  c #2AB400",
"H  c #2AB500",
"J  c #2BB500",
"K  c #2BB900",
"L  c #2CBB00",
"P  c #2CBC00",
"I  c #2DC000",
"U  c #2EC400",
"Y  c #BA8053",
"T  c #C38657",
"R  c #C48758",
"E  c #C58758",
"W  c #C68859",
"Q  c #CD8D5C",
"!  c #CE8D5C",
"~  c #D08F5D",
"^  c #D3915F",
"/  c #D5925F",
"(  c #D59260",
")  c #D69260",
"_  c #D69360",
"`  c #D79360",
"'  c #D79660",
"]  c #D79860",
"[  c #D79961",
"{  c #DBAA62",
"}  c #DFB764",
"|  c #DFB964",
" . c #E0BD65",
".. c #E1BF65",
"X. c #E4C966",
"o. c #E5CD67",
"O. c #E6D167",
"+. c #E6D267",
"@. c #E7D467",
"#. c #E8DA68",
"$. c #EADF69",
"%. c #EBE169",
"&. c #EBE26A",
"*. c #EEEA6B",
"=. c #F1F46C",
"-. c #F2F56C",
";. c #F5FE6E",
":. c #F5FF6E",
/* pixels */
"                                                                                                    ",
"                                                                                                    ",
"                                                                                                    ",
"A A A A A A A A A A A A A A A A A A A A A A A A A A A A A A A A A A A A A A A A A A A A A A A A A A ",
"U U U U U U U U U U U U U U U U U U U U U U U U U U U U U U U U U U U U U U U U U U U U U U U U U U ",
"U U U U U U U U U U U U U U U U U U U U U U U U U U U U U U U U U U U U U U U U U U U U U U U U U U ",
"U U U U U U U U U U U U U U U U U U U U U U U U U U U U U U U U U U U U U U U U U U U U U U U U U U ",
"U U U U U U U U U U U U U U U U U U U U U U U U U U U U U U U U U U U U U U U U U U U U U U U U U U ",
"U U U U U U U U U U U U U U U U U U U U U U U U U U U U U U U U U U U U U U U U U U U U U U U U U U ",
"D D D D D D I U U U U U U U U U U U U U U U U U U U U U G D D D D D H U U U U U U U U U U U U G D D ",
"M M M M M M P U U U U U U U U U U U U U U U U U U U U U C M M M M M Z U U U U U U U U U U U U V M M ",
"M M M M M M P U U U U U U U U U U U U U U U U U U U U U C M M M M M Z U U U U U U U U U U U U V M M ",
": : : : : : S F F F F F L U U U U U U U U U U U U J F F n : : : : : m F F F F F F F F F F F F v : : ",
"            z M M M M M D U U U U U U U U U U U U N M M =           - M M M M M M M M M M M M *     ",
"            z M M M M M D U U U U U U U U U U U U N M M =           - M M M M M M M M M M M M *     ",
"% % % % % $ < > > > > > B K K K K K K K K K K K K c > > 2 % % % % % 3 > > > > > > > > > > > > 1 % % ",
"p p p p p a @           ; M M M M M M M M M M M M o     8 p p p p p 6                         9 p p ",
"p p p p p p #           ; M M M M M M M M M M M M o     7 p p p p p 6                         9 p p ",
"d d d d d f & O O O O O , b b b b b b b b b b b x + O O q d d d d d 0 O O O O O O O O O O O O w d d ",
"_ _ _ _ _ ` h p p p p p 4                         r p p E _ _ _ _ _ T p p p p p p p p p p p p W _ _ ",
"_ _ _ _ _ _ g p p p p p 4                         e p p R _ _ _ _ _ T p p p p p p p p p p p p E _ _ ",
"_ _ _ _ _ _ j s s s s s 5 X X X X X X X X X X X . t s s E _ _ _ _ _ T s s s s s s s s s s s s W _ _ ",
"_ _ _ _ _ _ ( / / / / / k y y y y y y y y y y y y Q / / _ _ _ _ _ _ _ / / / / / / / / / / / / _ _ _ ",
"_ _ _ _ _ _ _ _ _ _ _ _ Y p p p p p p p p p p p i ! _ _ _ _ _ _ _ _ _ _ _ _ _ _ _ _ _ _ _ _ _ _ _ _ ",
"_ _ _ _ _ _ _ _ _ _ _ _ l i i i i i i i i i i i u ! _ _ _ _ _ _ _ _ _ _ _ _ _ _ _ ) ) ) ) ) ) _ _ _ ",
"_ _ _ _ _ _ _ _ _ _ _ _ ^ ~ ~ ~ ~ ~ ~ ~ ~ ~ ~ ~ ~ ( _ _ _ _ _ _ _ _ _ _ _ _ _ _ ] =.-.-.-.-.-.| _ _ ",
"_ _ _ _ _ _ _ _ _ _ _ _ _ _ _ _ _ _ _ _ _ _ _ _ _ _ _ _ _ _ _ _ _ _ _ _ _ _ _ _ [ ;.:.:.:.:.:. ._ _ ",
"_ _ _ _ _ _ _ _ _ _ _ _ _ _ _ _ _ _ _ _ _ _ _ _ _ _ _ _ _ _ _ _ _ _ _ _ _ _ _ _ [ ;.:.:.:.:.:. ._ _ ",
"_ _ _ _ _ _ _ _ _ +.*.*.*.*.*.+._ _ _ _ _ _ _ _ _ _ _ _ _ _ _ _ _ _ _ _ _ _ _ _ [ ;.:.:.:.:.:. ._ _ ",
"_ _ _ _ _ _ _ _ _ &.:.:.:.:.:.&._ _ _ _ _ _ _ _ _ _ _ _ _ _ _ _ _ _ _ _ _ _ _ _ [ ;.:.:.:.:.:. ._ _ ",
"_ _ _ _ _ _ _ _ _ &.:.:.:.:.:.&._ _ _ _ _ _ _ _ _ _ _ _ _ _ _ _ _ _ _ _ _ _ _ _ [ ;.:.:.:.:.:. ._ _ ",
"_ _ _ _ _ _ _ _ _ &.:.:.:.:.:.&._ _ _ _ _ _ _ _ _ _ _ _ _ _ _ _ _ _ _ _ _ _ _ _ [ ;.:.:.:.:.:. ._ _ ",
"_ _ _ _ _ _ _ _ _ &.:.:.:.:.:.&._ _ _ _ _ _ _ _ _ _ _ _ _ _ _ _ _ _ _ _ _ _ _ _ [ ;.:.:.:.:.:. ._ _ ",
"_ _ _ _ _ _ _ _ _ &.:.:.:.:.:.&._ _ _ _ _ _ _ _ _ _ _ _ _ _ _ _ _ _ _ _ _ _ _ _ [ ;.:.:.:.:.:. ._ _ ",
"_ _ _ _ _ _ _ _ _ &.:.:.:.:.:.&._ _ _ _ _ _ _ _ _ _ _ _ _ _ _ } +.+..._ _ _ _ _ ' O.+.+.+.+.+.{ _ _ ",
"_ _ _ _ _ _ _ _ _ &.:.:.:.:.:.&._ _ _ _ _ _ _ _ _ _ _ _ _ _ _ @.:.:.%._ _ _ _ _ _ _ _ _ _ _ _ _ _ _ ",
"_ _ _ _ _ _ _ _ _ &.:.:.:.:.:.&._ _ _ _ _ _ _ _ _ _ _ _ _ _ _ @.:.:.%._ _ _ _ _ _ _ _ _ _ _ _ _ _ _ ",
"_ _ _ _ _ _ _ _ _ X.$.$.$.$.$.X._ _ _ _ _ _ _ _ _ _ _ _ _ _ _ @.:.:.%._ _ _ _ _ _ _ _ _ _ _ _ _ _ _ ",
"_ _ _ _ _ _ _ _ _ _ _ _ _ _ _ _ _ _ _ _ _ _ _ _ _ _ _ _ _ _ _ @.:.:.%._ _ _ _ _ _ _ _ _ _ _ _ _ _ _ ",
"_ _ _ _ _ _ _ _ _ _ _ _ _ _ _ _ _ _ _ _ _ _ _ _ _ _ _ _ _ _ _ @.:.:.%._ _ _ _ _ _ _ _ _ _ _ _ _ _ _ ",
"_ _ _ _ _ _ _ _ _ _ _ _ _ _ _ _ _ _ _ _ _ _ _ _ _ _ _ _ _ _ _ @.:.:.%._ _ _ _ _ _ _ _ _ _ _ _ _ _ _ ",
"_ _ _ _ _ _ _ _ _ _ _ _ _ _ _ _ _ _ _ _ _ _ _ _ _ _ _ _ _ _ _ @.:.:.%._ _ _ _ _ _ _ _ _ _ _ _ _ _ _ ",
"_ _ _ _ _ _ _ _ _ _ _ _ _ _ _ _ _ _ _ _ _ _ _ _ _ _ _ _ _ _ _ @.:.:.%._ _ _ _ _ _ _ _ _ _ _ _ _ _ _ ",
"_ _ _ _ _ _ _ _ _ _ _ _ _ _ _ _ _ _ _ _ _ _ _ _ _ _ _ _ _ _ _ o.-.-.#._ _ _ _ _ _ _ _ _ _ _ _ _ _ _ ",
"_ _ _ _ _ _ _ _ _ _ _ _ _ _ _ _ _ _ _ _ _ _ _ _ _ _ _ _ _ _ _ ) ) ) ) _ _ _ _ _ _ _ _ _ _ _ _ _ _ _ ",
"_ _ _ _ _ _ _ _ _ _ _ _ _ _ _ _ _ _ _ _ _ _ _ _ _ _ _ _ _ _ _ _ _ _ _ _ _ _ _ _ _ _ _ _ _ _ _ _ _ _ ",
"_ _ _ _ _ _ _ _ _ _ _ _ _ _ _ _ _ _ _ _ _ _ _ _ _ _ _ _ _ _ _ _ _ _ _ _ _ _ _ _ _ _ _ _ _ _ _ _ _ _ ",
"_ _ _ _ _ _ _ _ _ _ _ _ _ _ _ _ _ _ _ _ _ _ _ _ _ _ _ _ _ _ _ _ _ _ _ _ _ _ _ _ _ _ _ _ _ _ _ _ _ _ ",
"_ _ _ _ _ _ _ _ _ _ _ _ _ _ _ _ _ _ _ _ _ _ _ _ _ _ _ _ _ _ _ _ _ _ _ _ _ _ _ _ _ _ _ _ _ _ _ _ _ _ ",
"_ _ _ _ _ _ _ _ _ _ _ _ _ _ _ _ _ _ _ _ _ _ _ _ _ _ _ _ _ _ _ _ _ _ _ _ _ _ _ _ _ _ _ _ _ _ _ _ _ _ "
};
