/* XPM */
static char *xpm_[] = {
/* columns rows colors chars-per-pixel */
"60 60 216 2 ",
"   c black",
".  c #010001",
"X  c #010101",
"o  c #040203",
"O  c #050303",
"+  c #050402",
"@  c #000505",
"#  c #0C0204",
"$  c #0A0704",
"%  c #090506",
"&  c #080407",
"*  c #0C0605",
"=  c #0D0606",
"-  c #0E0807",
";  c #0F0B06",
":  c #0C060C",
">  c #0C070C",
",  c #06090A",
"<  c #0F0C0A",
"1  c #0E080D",
"2  c #0F080E",
"3  c #0F090E",
"4  c #0A0E0F",
"5  c #0E0E0E",
"6  c #14080A",
"7  c #12090C",
"8  c #10080F",
"9  c #130A0F",
"0  c #150A0D",
"q  c #150B0D",
"w  c #18090C",
"e  c #1D140C",
"r  c #030610",
"t  c #080F12",
"y  c #0F0B15",
"u  c #070C1E",
"i  c #110910",
"p  c #120A11",
"a  c #130A12",
"s  c #120B15",
"d  c #150D15",
"f  c #180D11",
"g  c #1B0E12",
"h  c #1C0F13",
"j  c #1E0A1A",
"k  c #190E18",
"l  c #1C0F1A",
"z  c #0C1112",
"x  c #1D1612",
"c  c #1F1114",
"v  c #1D1016",
"b  c #1F111B",
"n  c #12191B",
"m  c #13181F",
"M  c #250D0D",
"N  c #2B090E",
"B  c #2B100E",
"V  c #21081C",
"C  c #221216",
"Z  c #2A1513",
"A  c #281015",
"S  c #251319",
"D  c #21121D",
"F  c #27151F",
"G  c #2E1419",
"H  c #28161F",
"J  c #361311",
"K  c #311816",
"L  c #35171D",
"P  c #38161E",
"I  c #361B19",
"U  c #002013",
"Y  c #002616",
"T  c #002717",
"R  c #00201E",
"E  c #002A1C",
"W  c #0A102A",
"Q  c #0A112B",
"!  c #0B112C",
"~  c #0B122C",
"^  c #191B25",
"/  c #131732",
"(  c #380E2F",
")  c #241423",
"_  c #261524",
"`  c #291727",
"'  c #2F1920",
"]  c #2B1828",
"[  c #2C1828",
"{  c #2E1929",
"}  c #331B22",
"|  c #371D25",
" . c #3E1921",
".. c #381E26",
"X. c #3B1F27",
"o. c #321B2B",
"O. c #371E2A",
"+. c #361D2C",
"@. c #381F2E",
"#. c #0C2C2C",
"$. c #132026",
"%. c #152228",
"&. c #182A33",
"*. c #063133",
"=. c #003B38",
"-. c #1B323E",
";. c #362922",
":. c #3A2129",
">. c #3E2129",
",. c #39202F",
"<. c #3E312F",
"1. c #302633",
"2. c #3F2332",
"3. c #59201D",
"4. c #5E231F",
"5. c #79321A",
"6. c #401A22",
"7. c #4D0E30",
"8. c #7D1A2A",
"9. c #6F1433",
"0. c #40212B",
"q. c #47252F",
"w. c #412332",
"e. c #412433",
"r. c #492631",
"t. c #492735",
"y. c #4D2937",
"u. c #4F2A38",
"i. c #502B38",
"p. c #512B39",
"a. c #522C39",
"s. c #552D3A",
"d. c #572D3A",
"f. c #572E3B",
"g. c #592F3C",
"h. c #5A2F3C",
"j. c #4C3A30",
"k. c #4D3B30",
"l. c #4F3C32",
"z. c #5B303D",
"x. c #632420",
"c. c #6A2F22",
"v. c #004E2E",
"b. c #5F493C",
"n. c #173640",
"m. c #113E45",
"M. c #103F45",
"N. c #2D2D4A",
"B. c #353844",
"V. c #5A174C",
"C. c #5D174C",
"Z. c #7C174E",
"A. c #0F4146",
"S. c #064C4C",
"D. c #084A4B",
"F. c #005751",
"G. c #005652",
"H. c #005851",
"J. c #005A51",
"K. c #00664F",
"L. c #006F4D",
"P. c #007646",
"I. c #00714D",
"U. c #007A4B",
"Y. c #007E4B",
"T. c #464648",
"R. c #7C5E4E",
"E. c #494B67",
"W. c #655569",
"Q. c #7A7B7F",
"!. c #8A1D2E",
"~. c #9E3D2C",
"^. c #BC283F",
"/. c #85423D",
"(. c #A7453A",
"). c #8C174F",
"_. c #801D50",
"`. c #A21E4A",
"'. c #A21D56",
"]. c #B12645",
"[. c #C22944",
"{. c #C92B44",
"}. c #EB2A7A",
"|. c #924843",
" X c #9B5745",
".X c #A94842",
"XX c #A24C57",
"oX c #B1555A",
"OX c #B3565A",
"+X c #97735F",
"@X c #AF794A",
"#X c #B36555",
"$X c #B96A59",
"%X c #9B7662",
"&X c #9F7964",
"*X c #A67E68",
"=X c #D56A62",
"-X c #DE7A64",
";X c #AF866E",
":X c #DB8574",
">X c #EC9168",
",X c #E89774",
"<X c #FFB06D",
"1X c #6A6F8A",
"2X c #6E728E",
"3X c #CD9C81",
"4X c #C19F8D",
"5X c #D89A81",
"6X c #DBA78A",
"7X c #EFB696",
"8X c #F6B194",
"9X c #FFC3A1",
"0X c #F0C7B2",
"qX c #A2A9C3",
"wX c #D2D2DA",
"eX c None",
/* pixels */
"eXeXeXeXeXeXeXeXeXeXeXeXeXeXeXeXeXeXeXeXeXeXeXeXeXeXeXeXeXeXeXeXeXeXeXeXeXeXeXeXeXeXeXeXeXeXeXeXeXeXeXeXeXeXeXeXeXeXeXeX",
"eXeXeXeXeXeXeXeXeXeXeXeXeXeXeXeXeXeXeXeXeXeXeXeXeXeXeXeXeXeXeXeXeXeXeXeXeXeXeXeXeXeXeXeXeXeXeXeXeXeXeXeXeXeXeXeXeXeXeXeX",
"eXeXeXeXeXeXeXeXeXeXeXeXeXeXeXeXeXeXeXeXeXeXeXeXeXeXeXeXeXeXeXeXeXeXeXeXeXeXeXeXeXeXeXeXeXeXeXeXeXeXeXeXeXeXeXeXeXeXeXeX",
"eXeXeXeXeXeXeXeXeXeXeXeXeXeXeXeXeXeXeXeXeXeXeXeXeXeXeXeXeXeXeXeXeXeXeXeXeXeXeXeXeXeXeXeXeXeXeXeXeXeXeXeXeXeXeXeXeXeXeXeX",
"eXeXeXeXeXeXeXeXeXeXeXeXeXeXeXeXeXeXeXeXeXeXeXeXeXeXeXeXeXeXeXeXeXeXeXeXeXeXeXeXeXeXeXeXeXeXeXeXeXeXeXeXeXeXeXeXeXeXeXeX",
"eXeXeXeXeXeXeXeXeXeXeXeXeXeXeXeXeXeXeXeXeXeXeXeXeXeXeXeXeXeXeXeXeXeXeXeXeXeXeXeXeXeXeXeXeXeXeXeXeXeXeXeXeXeXeXeXeXeXeXeX",
"eXeXeXeXeXeXeXeXeXeXeXeXeXeXeXeXeXeXeXeXeXeXeXeXeXeXeXeXeXeXeXeXeXeXeXeXeXeXeXeXeXeXeXeXeXeXeXeXeXeXeXeXeXeXeXeXeXeXeXeX",
"eXeXeXeXeXeXeXeXeXeXeXeXeXeXeXeXeXeXeXeXeXeXeXeXeXeXeXeXeXeXeXeXeXeXeXeXeXeXeXeXeXeXeXeXeXeXeXeXeXeXeXeXeXeXeXeXeXeXeXeX",
"eXeXeXeXeXeXeXeXeXeXeXeXeXeXeXeXeXeXeXeXeXeXeXeXeXeXeXeXeXeXeXeXeXeXeXeXeXeXeXeXeXeXeXeXeXeXeXeXeXeXeXeXeXeXeXeXeXeXeXeX",
"eXeXeXeXeXeXeXeXeXeXeXeXeXeXeXeXeXeXeXeXeXeXeXeXeXeXeXeXeXeXeXeXeXeXeXeXeXeXeXeXeXeXeXeXeXeXeXeXeXeXeXeXeXeXeXeXeXeXeXeX",
"eXeXeXeXeXeXeXeXeXeXeXeXeXeXeXeXeXeXeXeXeXeXeXeXeXeXeXeXeXeXeXeXeXeXeXeXeXeXeXeXeXeXeXeXeXeXeXeXeXeXeXeXeXeXeXeXeXeXeXeX",
"eXeXeXeXeXeXeXeXeXeXeXeXeXeXeXeXeXeXeXeXeXeXeXeXeXeXeXeXeXeXeXeXeXeXeXeXeXeXeXeXeXeXeXeXeXeXeXeXeXeXeXeXeXeXeXeXeXeXeXeX",
"eXeXeXeXeXeXeXeXeXeXeXeXeXeXeXeXeXeXeXeXeXeXeXeXeXeXeXeXeXeXeXeXeXeXeXeXeXeXeXeXeXeXeXeXeXeXeXeXeXeXeXeXeXeXeXeXeXeXeXeX",
"eXeXeXeXeXeXeXeXeXeXeXeXeXeXeXeXeXeXeXeXeXeXeXeXeXeXeXeXeXeXeXeXeXeXeXeXeXeXeXeXeXeXeXeXeXeXeXeXeXeXeXeXeXeXeXeXeXeXeXeX",
"eXeXeXeXeXeXeXeXeXeXeXeXeXeXeXeXeXeXeXeXeXeXeXeXeXeXeXeXeXeXeXeXeXeXeXeXeXeXeXeXeXeXeXeXeXeXeXeXeXeXeXeXeXeXeXeXeXeXeXeX",
"eXeXeXeXeXeXeXeXeXeXeXeXeXeXeXeXeXeXeXeXeXeXeXeXeXeXeXeXeXeXeXeXeXeXeXeXeXeXeXeXeXeXeXeXeXeXeXeXeXeXeXeXeXeXeXeXeXeXeXeX",
"eXeXeXeXeXeXeXeXeXeXeXeXeXeXeXeXeXeXeXeXeXeXeXeXeXeXeXeXeXeXeXeXeXeXeXeXeXeXeXeXeXeXeXeXeXeXeXeXeXeXeXeXeXeXeXeXeXeXeXeX",
"eXeXeXeXeXeXeXeXeXeXeXeXeXeXeXeXeXeXeXeXeXeXeXeXeXeXeXeXeXeXeXeXeXeXeXeXeXeXeXeXeXeXeXeXeXeXeXeXeXeXeXeXeXeXeXeXeXeXeXeX",
"eXeXeXeXeXeXeXeXeXeXeXeXeXeXeXeXeXeXeXeXeXeXeXeXeXeXeXeXeXeXeXeXeXeXeXeXeXeXeXeXeXeXeXeXeXeXeXeXeXeXeXeXeXeXeXeXeXeXeXeX",
"eXeXeXeXeXeXeXeXeXeXeXeXeXeXeXeXeXeXeXeXeXeXeXeXeXeXeXeXeXeXeXeXeXeXeX  eXeXeXeXeXeXeXeXeXeXeXeXeXeXeXeXeXeXeXeXeXeXeXeX",
"eXeXeXeXeXeXeXeXeXeXeXeXeXeXeXeXeXeXeXeXeXeXeXeXeXeXeXeXeXeXeXeXeXeX~ <.R.  A A A B eXeXeXeXeXeXeXeXeXeXeXeXeXeXeXeXeXeX",
"eXeXeXeXeXeXeXeXeXeXeXeXeXeXeXeXeXeXeXeXeXeXeXeXeXeXeXeXeXeXeXeXeXeXu x M 6 6 6 B P x.eXeXeXeXeXeXeXeXeXeXeXeXeXeXeXeXeX",
"eXeXeXeXeXeXeXeXeXeXeXeXeXeXeXeXeXeXeXeXeXeXeXeXeXeXeXeXeXeXeXeXeXeX~ X L   v 6.6.J '.eXeXeXeXeXeXeXeXeXeXeXeXeXeXeXeXeX",
"eXeXeXeXeXeXeXeXeXeXeXeXeXeXeXeXeXeXeXeXeXeXeXeXeXeXeXeXeXeXeXeXeXeXeX^ q 8X&X0  .J _.}.eXeXeXeXeXeXeXeXeXeXeXeXeXeXeXeX",
"eXeXeXeXeXeXeXeXeXeXeXeXeXeXeXeXeXeXeXeXeXeXeXeXeXeXeXeXeXeXeXeXeXeXE.B.;.0X3X4XG w ].[.eXeXeXeXeXeXeXeXeXeXeXeXeXeXeXeX",
"eXeXeXeXeXeXeXeXeXeXeXeXeXeXeXeXeXeXeXeXeXeXeXeXeXeXeXeXeXeXeXeXeXeXeXeXl.9X9X9X< w D.eXeXeXeXeXeXeXeXeXeXeXeXeXeXeXeXeX",
"eXeXeXeXeXeXeXeXeXeXeXeXeXeXeXeXeXeXeXeXeXeXeXeXeXeXeXeXeXeXeXeXeXeX2XW l.9X9X8X-   eXeXeXeXeXeXeXeXeXeXeXeXeXeXeXeXeXeX",
"eXeXeXeXeXeXeXeXeXeXeXeXeXeXeXeXeXeXeXeXeXeXeXeXeXeXeXeXeXeXeXeXeX/ qXy q.*X5X|.eXeXeXeXeXeXeXeXeXeXeXeXeXeXeXeXeXeXeXeX",
"eXeXeXeXeXeXeXeXeXeXeXeXeXeXeXeXeXeXeXeXeXeXeXeXeXeXeXeXeXeXeXeXeX/ eXW.z.z./.|.eXeXeXeXeXeXeXeXeXeXeXeXeXeXeXeXeXeXeXeX",
"eXeXeXeXeXeXeXeXeXeXeXeXeXeXeXeXeXeXeXeXeXeXeXeXeXeXeXeXeXeXeXeXW eXN.1.O.+X%XQ.:.g eXeXeXeXeXeXeXeXeXeXeXeXeXeXeXeXeXeX",
"eXeXeXeXeXeXeXeXeXeXeXeXeXeXeXeXeXeXeXeXeXeXeXeXeXeXeXeXeXeXeXeXeX1X~ s T.5 Q.' 0.d.g eXeXeXeXeXeXeXeXeXeXeXeXeXeXeXeXeX",
"eXeXeXeXeXeXeXeXeXeXeXeXeXeXeXeXeXeXeXeXeXeXeXeXeXeXeXeXeXeXeXeXW eXeXr   wX| z.{ F z.O eXeXeXeXeXeXeXeXeXeXeXeXeXeXeXeX",
"eXeXeXeXeXeXeXeXeXeXeXeXeXeXeXeXeXeXeXeXeXeXeXeXeXeXeXeXeXeXeXeXeXeXeX  r.| z.z.t.i u.X.eXeXeXeXeXeXeXeXeXeXeXeXeXeXeXeX",
"eXeXeXeXeXeXeXeXeXeXeXeXeXeXeXeXeXeXeXeXeXeXeXeXeXeXeXeXeXeXeXeXeXeXeX  } d.z.z.z.8 +.h.8 eXeXeXeXeXeXeXeXeXeXeXeXeXeXeX",
"eXeXeXeXeXeXeXeXeXeXeXeXeXeXeXeXeXeXeXeXeXeXeXeXeXeXeXeXeXeXeXeXeXeXeX  h z.z.z.z.1 ` 2.C eXeXeXeXeXeXeXeXeXeXeXeXeXeXeX",
"eXeXeXeXeXeXeXeXeXeXeXeXeXeXeXeXeXeXeXeXeXeXeXeXeXeXeXeXeXeXeXeXeXeXeXv u.z.z.z.S D & F f.  eXeXeXeXeXeXeXeXeXeXeXeXeXeX",
"eXeXeXeXeXeXeXeXeXeXeXeXeXeXeXeXeXeXeXeXeXeXeXeXeXeXeXeXeXeXeXeXeXeXeXi D i.a.y.,.i { a.z.  eXeXeXeXeXeXeXeXeXeXeXeXeXeX",
"eXeXeXeXeXeXeXeXeXeXeXeXeXeXeXeXeXeXeXeXeXeXeXeXeXeXeXeXeXeXeXeXeXeXeX8.{.# k ` `   > w.z.  eXeXeXeXeXeXeXeXeXeXeXeXeXeX",
"eXeXeXeXeXeXeXeXeXeXeXeXeXeXeXeXeXeXeXeXeXeXeXeXeXeXeXeXeXeXeXeXeXeX  8.7.( 8 k   6X;X8 w.  eXeXeXeXeXeXeXeXeXeXeXeXeXeX",
"eXeXeXeXeXeXeXeXeXeXeXeXeXeXeXeXeXeXeXeXeXeXeXeXeXeXeXeXeXeXeXeXeXeX  {.Z.V.k ) k.9X&   > eXeXeXeXeXeXeXeXeXeXeXeXeXeXeX",
"eXeXeXeXeXeXeXeXeXeXeXeXeXeXeXeXeXeXeXeXeXeXeXeXeXeXeXeXeXeXeXeXeXeX^.`.Z.V.k b 7X9X&   eXeXeXeXeXeXeXeXeXeXeXeXeXeXeXeX",
"eXeXeXeXeXeXeXeXeXeXeXeXeXeXeXeXeXeXeXeXeXeXeXeXeXeXeXeXeXeXeXeXeXeX^.`.).V.j e + K I   eXeXeXeXeXeXeXeXeXeXeXeXeXeXeXeX",
"eXeXeXeXeXeXeXeXeXeXeXeXeXeXeXeXeXeXeXeXeXeXeXeXeXeXeXeXeXeXeXeXeXN !.9.).).V  X@X@X@X$ eXeXeXeXeXeXeXeXeXeXeXeXeXeXeXeX",
"eXeXeXeXeXeXeXeXeXeXeXeXeXeXeXeXeXeXeXeXeXeXeXeXeXeXeXeXeXeXeXeXeXT Y.M.      OX=X<X<X; eXeXeXeXeXeXeXeXeXeXeXeXeXeXeXeX",
"eXeXeXeXeXeXeXeXeXeXeXeXeXeXeXeXeXeXeXeXeXeXeXeXeXeXeXeXeXeXeXeX  Y.K.M.-.-., XXOX-X>X; eXeXeXeXeXeXeXeXeXeXeXeXeXeXeXeX",
"eXeXeXeXeXeXeXeXeXeXeXeXeXeXeXeXeXeXeXeXeXeXeXeXeXeXeXeXeXeXeXeXU U.F.-.-.-.4   > 1 1 p } eXeXeXeXeXeXeXeXeXeXeXeXeXeXeX",
"eXeXeXeXeXeXeXeXeXeXeXeXeXeXeXeXeXeXeXeXeXeXeXeXeXeXeXeXeXeXeXeXv.I.F.-.-.-.%.> ` ,.z.z.z.  eXeXeXeXeXeXeXeXeXeXeXeXeXeX",
"eXeXeXeXeXeXeXeXeXeXeXeXeXeXeXeXeXeXeXeXeXeXeXeXeXeXeXeXeXeXeXeXv.I.F.-.-.-.%.1 ` +.z.z.z.>.eXeXeXeXeXeXeXeXeXeXeXeXeXeX",
"eXeXeXeXeXeXeXeXeXeXeXeXeXeXeXeXeXeXeXeXeXeXeXeXeXeXeXeXeXeXeXeXv.I.G.n.n.-.-.y _ 2.i.h.z.>.eXeXeXeXeXeXeXeXeXeXeXeXeXeX",
"eXeXeXeXeXeXeXeXeXeXeXeXeXeXeXeXeXeXeXeXeXeXeXeXeXeXeXeXeXeXeXeX  Y.F.M.-.-.-.z _ _ e.h.z.  eXeXeXeXeXeXeXeXeXeXeXeXeXeX",
"eXeXeXeXeXeXeXeXeXeXeXeXeXeXeXeXeXeXeXeXeXeXeXeXeXeXeXeXeXeXeXeX  Y.L.F.A.-.-.%.i ] ] o.^ *.eXeXeXeXeXeXeXeXeXeXeXeXeXeX",
"eXeXeXeXeXeXeXeXeXeXeXeXeXeXeXeXeXeXeXeXeXeXeXeXeXeXeXeXeXeXeXeXeXT Y.J.F.m.-.&.  l d t S.F.@ eXeXeXeXeXeXeXeXeXeXeXeXeX",
"eXeXeXeXeXeXeXeXeXeXeXeXeXeXeXeXeXeXeXeXeXeXeXeXeXeXeXeXeXeXeXeXeXeXP.Y.F.J.F.&.n n #.F.F.=.7XeXeXeXeXeXeXeXeXeXeXeXeXeX",
"eXeXeXeXeXeXeXeXeXeXeXeXeXeXeXeXeXeXeXeXeXeXeXeXeXeXeXeXeXeXeXeXeXeXeXT E n R $.R R R eXeXZ :Xk.eXeXeXeXeXeXeXeXeXeXeXeX",
"eXeXeXeXeXeXeXeXeXeXeXeXeXeXeXeXeXeXeXeXeXeXeXeXeXeXeXeXeXeXeXeXeXeXeXeXc.= eXeXeXeXeXeXeXeX  b.eXeXeXeXeXeXeXeXeXeXeXeX",
"eXeXeXeXeXeXeXeXeXeXeXeXeXeXeXeXeXeXeXeXeXeXeXeXeXeXeXeXeXeXeXeXeXeX  5.=X= eXeXeXeXeXeXeXeX  ,X  eXeXeXeXeXeXeXeXeXeXeX",
"eXeXeXeXeXeXeXeXeXeXeXeXeXeXeXeXeXeXeXeXeXeXeXeXeXeXeXeXeXeXeXeXeXeX#X(..X4.eXeXeXeXeXeXeXeX~.$X3.eXeXeXeXeXeXeXeXeXeXeX",
"eXeXeXeXeXeXeXeXeXeXeXeXeXeXeXeXeXeXeXeXeXeXeXeXeXeXeXeXeXeXeXeXeXeXeXeXeXeXeXeXeXeXeXeXeXeXeXeXeXeXeXeXeXeXeXeXeXeXeXeX",
"eXeXeXeXeXeXeXeXeXeXeXeXeXeXeXeXeXeXeXeXeXeXeXeXeXeXeXeXeXeXeXeXeXeXeXeXeXeXeXeXeXeXeXeXeXeXeXeXeXeXeXeXeXeXeXeXeXeXeXeX",
"eXeXeXeXeXeXeXeXeXeXeXeXeXeXeXeXeXeXeXeXeXeXeXeXeXeXeXeXeXeXeXeXeXeXeXeXeXeXeXeXeXeXeXeXeXeXeXeXeXeXeXeXeXeXeXeXeXeXeXeX"
};
