/* XPM */
static char *xpm_[] = {
/* columns rows colors chars-per-pixel */
"60 60 225 2 ",
"   c black",
".  c #010001",
"X  c #010101",
"o  c #020101",
"O  c #020102",
"+  c #040203",
"@  c #050203",
"#  c #050303",
"$  c #050403",
"%  c #050305",
"&  c #060305",
"*  c #030405",
"=  c #070407",
"-  c #0B0203",
";  c #0B0607",
":  c #080508",
">  c #0D0708",
",  c #0E070A",
"<  c #000A0A",
"1  c #000F09",
"2  c #0F080E",
"3  c #11090B",
"4  c #11090E",
"5  c #12090E",
"6  c #150B0D",
"7  c #160B0F",
"8  c #1A0D0C",
"9  c #00170E",
"0  c #120A11",
"q  c #130A12",
"w  c #160C15",
"e  c #190D10",
"r  c #1A0E11",
"t  c #1A0E12",
"y  c #1C0E11",
"u  c #1C0F13",
"i  c #180D16",
"p  c #1E0A1A",
"a  c #190E18",
"s  c #1A0E19",
"d  c #0E1415",
"f  c #001F13",
"g  c #0D181E",
"h  c #181210",
"j  c #1E1014",
"k  c #17141B",
"l  c #101C1E",
"z  c #21060B",
"x  c #260D12",
"c  c #240E13",
"v  c #230A1E",
"b  c #211116",
"n  c #201914",
"m  c #251319",
"M  c #21121F",
"N  c #331312",
"B  c #34151B",
"V  c #002F1C",
"C  c #172B1E",
"Z  c #3E201D",
"A  c #0A0F2A",
"S  c #09102A",
"D  c #09102B",
"F  c #0A112A",
"G  c #0A102B",
"H  c #0A112B",
"J  c #0B112C",
"K  c #0C122C",
"L  c #0D122C",
"P  c #0C132C",
"I  c #0C132D",
"U  c #0F1530",
"Y  c #101530",
"T  c #131832",
"R  c #141833",
"E  c #141934",
"W  c #1C1E3A",
"Q  c #1D1F3C",
"!  c #2A0A23",
"~  c #280F26",
"^  c #2A1724",
"/  c #281626",
"(  c #291727",
")  c #2A1727",
"_  c #2D1929",
"`  c #341B23",
"'  c #371D25",
"]  c #3C1820",
"[  c #381E26",
"{  c #321B2B",
"}  c #341C2B",
"|  c #341D2C",
" . c #351D2C",
".. c #371E2D",
"X. c #381F2E",
"o. c #0A272B",
"O. c #142228",
"+. c #143023",
"@. c #172931",
"#. c #192D37",
"$. c #1E203B",
"%. c #1D233D",
"&. c #003230",
"*. c #1B323E",
"=. c #19343F",
"-. c #3B202F",
";. c #21223F",
":. c #3E2231",
">. c #4D1C19",
",. c #4E1D1C",
"<. c #401A22",
"1. c #570E31",
"2. c #4E1932",
"3. c #431139",
"4. c #43232D",
"5. c #522025",
"6. c #422433",
"7. c #442533",
"8. c #452634",
"9. c #462634",
"0. c #482634",
"q. c #4D2937",
"w. c #4F2A38",
"e. c #512A36",
"r. c #522B39",
"t. c #542D3A",
"y. c #572E3B",
"u. c #582F3C",
"i. c #592F3C",
"p. c #4D3B30",
"a. c #5B303D",
"s. c #682624",
"d. c #653133",
"f. c #5F4228",
"g. c #574338",
"h. c #5C463A",
"j. c #5F483B",
"k. c #62463E",
"l. c #7C4338",
"z. c #173640",
"x. c #153841",
"c. c #222340",
"v. c #222440",
"b. c #252541",
"n. c #252643",
"m. c #262643",
"M. c #272743",
"N. c #272744",
"B. c #2B2B47",
"V. c #4F1443",
"C. c #5F1546",
"Z. c #5A174C",
"A. c #6D1A4A",
"S. c #78174D",
"D. c #731B4A",
"F. c #09494A",
"G. c #00504C",
"H. c #00524E",
"J. c #015350",
"K. c #005652",
"L. c #005B51",
"P. c #007646",
"I. c #00764C",
"U. c #00774C",
"Y. c #007B4B",
"T. c #007D4A",
"R. c #017D4B",
"E. c #007E4B",
"W. c #6B5143",
"Q. c #6F5546",
"!. c #775A4B",
"~. c #424561",
"^. c #843F27",
"/. c #90352E",
"(. c #90352F",
"). c #992034",
"_. c #AF253B",
"`. c #B34D31",
"'. c #8F633D",
"]. c #C65731",
"[. c #83174E",
"{. c #8C174F",
"}. c #871E4E",
"|. c #9B1C4C",
" X c #A01D4B",
".X c #C52944",
"XX c #A24C57",
"oX c #B05851",
"OX c #BC5D56",
"+X c #8D6956",
"@X c #8C6B58",
"#X c #AB634C",
"$X c #9F7964",
"%X c #C15843",
"&X c #C5605E",
"*X c #D56A62",
"=X c #C07360",
"-X c #BF8451",
";X c #AF866E",
":X c #B98D74",
">X c #C3957B",
",X c #EF9568",
"<X c #FDAC6C",
"1X c #666D87",
"2X c #6B6E8A",
"3X c #6A708A",
"4X c #6D708B",
"5X c #6D708C",
"6X c #727894",
"7X c #7C809C",
"8X c #979CB8",
"9X c #989FBA",
"0X c #9CA3BD",
"qX c #D3A085",
"wX c #E0AB8D",
"eX c #EAA88C",
"rX c #EDB595",
"tX c #EEBA9D",
"yX c #F2B998",
"uX c #F6BE9F",
"iX c #FBBE9C",
"pX c #FFC3A1",
"aX c #A1A6C1",
"sX c #A2A8C3",
"dX c None",
/* pixels */
"dXdXdXdXdXdXdXdXdXdXdXdXdXdXdXdXdXdXdXdXdXdXdXdXdXdXdXdXdXdXdXdXdXdXdXdXdXdXdXdXdXdXdXdXdXdXdXdXdXdXdXdXdXdXdXdXdXdXdXdX",
"dXdXdXdXdXdXdXdXdXdXdXdXdXdXdXdXdXdXdXdXdXdXdXdXdXdXdXdXdXdXdXdXdXdXdXdXdXdXdXdXdXdXdXdXdXdXdXdXdXdXdXdXdXdXdXdXdXdXdXdX",
"dXdXdXdXdXdXdXdXdXdXdXdXdXdXdXdXdXdXdXdXdXdXdXdXdXdXdXdXdXdXdXdXdXdXdXdXdXdXdXdXdXdXdXdXdXdXdXdXdXdXdXdXdXdXdXdXdXdXdXdX",
"dXdXdXdXdXdXdXdXdXdXdXdXdXdXdXdXdXdXdXdXdXdXdXdXdXdXdXdXdXdXdXdXdXdXdXdXdXdXdXdXdXdXdXdXdXdXdXdXdXdXdXdXdXdXdXdXdXdXdXdX",
"dXdXdXdXdXdXdXdXdXdXdXdXdXdXdXdXdXdXdXdXdXdXdXdXdXdXdXdXdXdXdXdXdXdXdXdXdXdXdXdXdXdXdXdXdXdXdXdXdXdXdXdXdXdXdXdXdXdXdXdX",
"dXdXdXdXdXdXdXdXdXdXdXdXdXdXdXdXdXdXdXdXdXdXdXdXdXdXdXdXdXdXdXdXdXdXdXdXdXdXdXdXdXdXdXdXdXdXdXdXdXdXdXdXdXdXdXdXdXdXdXdX",
"dXdXdXdXdXdXdXdXdXdXdXdXdXdXdXdXdXdXdXdXdXdXdXdXdXdXdXdXdXdXdXdXdXdXdXdXdXdXdXdXdXdXdXdXdXdXdXdXdXdXdXdXdXdXdXdXdXdXdXdX",
"dXdXdXdXdXdXdXdXdXdXdXdXdXdXdXdXdXdXdXdXdXdXdXdXdXdXdXdXdXdXdXdXdXdXdXdXdXdXm.dXdXm.dXY aXdXdXdXdXdXdXdXdXdXdXdXdXdXdXdX",
"dXdXdXdXdXdXdXdXdXdXdXdXdXdXdXdXdXdXdXdXdXdXdXdXdXdXdXdXdXdXdXdXdXdXdXdXF m.dXdXdXdXdXdXI m.dXm.0XdXdXdXdXdXdXdXdXdXdXdX",
"dXdXdXdXdXdXdXdXdXdXdXdXdXdXdXdXdXdXdXdXdXdXdXdXdXdXdXdXdXdXdXdXdXdXdXdXdXdXdXdXdXdXdXdXdXdXdXdXR dXdXdXdXdXdXdXdXdXdXdX",
"dXdXdXdXdXdXdXdXdXdXdXdXdXdXdXdXdXdXdXdXdXdXdXdXdXdXdXdXdXdXdXdXdXdXdXdXdXdXdXdXdXdXdXdXdXdXdXdXdXdXdXdXdXdXdXdXdXdXdXdX",
"dXdXdXdXdXdXdXdXdXdXdXdXdXdXdXdXdXdXdXdXdXdXdXdXdXdXdXdXdXdXdXdXdXdXdXdXdXdXdXdXdXdXdXdXdXdXdXdXdXdXdXN.dXdXdXdXdXdXdXdX",
"dXdXdXdXdXdXdXdXdXdXdXdXdXdXdXdXdXdXdXdXdXdXdXdXdXdXdXdXdXdXdXdXdXdXdXdXdXdXdXdXdXdXdXdXdXdXdXdXdXdXdXdX~.dXdXdXdXdXdXdX",
"dXdXdXdXdXdXdXdXdXdXdXdXdXdXdXdXdXdXdXdXdXdXdXdXdXdXdXdXdXdXdXdXdXdXdXdXdXdXdXdXdXdXdXdXdXdXdXdXdXdXdXdXF dXdXdXdXdXdXdX",
"dXdXdXdXdXdXdXdXdXdXdXdXdXdXdXdXdXdXdXdXdXdXdXdXdXdXdXdXdXdXdXdXdXdXdXdXdXdXdXdXdXdXdXdXdXdXdXdXdXdXdXdXdXdX1XdXdXdXdXdX",
"dXdXdXdXdXdXdXdXdXdXdXdXdXdXdXdXdXdXdXdXdXdXdXdXdXdXdXdXdXdXdXdXdXdXdXdXdXdXdXdXdXdXdXdXdXdXdXdXdXdXdXdXdXdXdXv.dXdXdXdX",
"dXdXdXdXdXdXdXdXdXdXdXdXdXdXdXdXdXdXdXdXdXdXdXdXdXdXdXdXdXdXdXdXdXdXdXdXdXdXdXdXdXdXdXdXdXdXdXdXdXdXdXdXdXdXdXdXF dXdXdX",
"dXdXdXdXdXdXdXdXdXdXdXdXdXdXdXdXdXdXdXdXdXdXdXdXdXdXdXdXdXdXdXdXdXdXdXdXdXdXdXdXdXdXdXdXdXdXdXdXdXdXdXdXdXdXdXdXB.dXdXdX",
"dXdXdXdXdXdXdXdXdXdXdXdXdXdXdXdXdXdXdXdXdXdXdXdXdXdXdXdXdXdXdXdXdXdXdXdXdXdXdXdXdXdXdXdXdXdXdXdXdXdXdXdXdXdXdXdXdXdXdXdX",
"dXdXdXdXdXdXdXdXdXdXdXdXdXdXdXdXdXdXdXdXdXdXdXdXdXdXdXdXdXdXdXdXdXdXdXdXdXdXdXdXdXdXdXdXdXdXdXdXdXdXdXdXdXdXdXdXdXdXdXdX",
"dXdXdXdXdXdXdXdXdXdXdXdXdXdXdXdXdXdXdXdXdXdXdXdXdXdXdXdXdXdXdXdXdXdXdXdXdXdXdXdXdXdXdXdXdXdXdXdXdXdXdXdXdXdXdXdXdXdXdXdX",
"dXdXdXdXdXdXdXdXdXdXdXdXdXdXdXdXdXdXdXdXdXdXdXdXdXdXdXdXdXdXdXdXdXdXdXdXdXdXdXdXdXdXdXdXdXdXdXdXdXdXdXdXdXdXdXdXdXc.%.dX",
"dXdXdXdXdXdXdXdXdXdXdXdXdXdXdXdXdXdXdXdXdXdXdXdXdXdXdXdXdXdXdXdXdXdXdXdXdXdXdXdXdXdXdXdXdXdXdXdXdXdXdXdXdXdXdXdXdXdXdXdX",
"dXdXdXdXdXdXdXdXdXdXdXdXdXdXdXdXdXdXdXdXdXdXdXdXdXdXdXdXdX    c >.dXdXdXdXdXdXdXdXdXdXdXdXdXdXdXdXdXdXdXdXdXdXdXdX2XF dX",
"dXdXdXdXdXdXdXdXdXdXdXdXdXdXdXdXdXdXdXdXdXdXdXdXdXdXdXdX,.<.5.N 2.c dXdXdXdXdXdXdXdXdXdXdXdXdXdXdXdXdXdXdXdXdXdXdXdXdXdX",
"dXdXdXdXdXdXdXdXdXdXdXdXdXdXdXdXdXdXdXdXdXdXdXdXdXdXdXdXn e ] s.D.|.dXdXdXdXdXdXdXdXdXdXdXdXdXdXdXdXdXdXdXdXdXdXdXdXdXdX",
"dXdXdXdXdXdXdXdXdXdXdXdXdXdXdXdXdXdXdXdXdXdXdXdXdXdXdXdX;XuX; B }.A.dX2XM.dXdXdXdXdXdXdXdXdXdXdXdXdXdXdXdXdXdXdXdXF dXdX",
"dXdXdXdXdXdXdXdXdXdXdXdXdXdXdXdXdXdXdXdXdXdXdXdXdXdXdXdX;XtX@Xy E.h y I I ;.sXdXdXdXdXdXdXdXdXdXdXdXdXdXdXdXdXdXdXdXdXdX",
"dXdXdXdXdXdXdXdXdXdXdXdXdXdXdXdXdXdXdXdXdXdXdXdXdXdXdXdX;XpX$Xe +.' 0 dXdXdXJ I 7XdXdXdXdXdXdXdXdXdXdXdXdXdXdX9XdXdXdXdX",
"dXdXdXdXdXdXdXdXdXdXdXdXdXdXdXdXdXdXdXdXdXdXdXdXdXdXdXdXh.Q.pX!.  3 % dXdXdXdXdXA T dXdXdXdXdXdXdXdXdXdXdX5XQ dXdXdXdXdX",
"dXdXdXdXdXdXdXdXdXdXdXdXdXdXdXdXdXdXdXdXdXdXdXdXdXdXdXdXdXdXp.rXm a.a.q dXdXdXdXdXdXY dXF dX6XdX3XdX9XdXW dXdXdXdXdXdXdX",
"dXdXdXdXdXdXdXdXdXdXdXdXdXdXdXdXdXdXdXdXdXdXdXdXdXdXdXdXdXdXdX3 a.3  .i.3 dXdXdXdXdXdXdXm.dX$.dXE dXJ dXdXdXdXdXdXdXdXdX",
"dXdXdXdXdXdXdXdXdXdXdXdXdXdXdXdXdXdXdXdXdXdXdXdXdXdXdXdXdXdXdX3 a.8.2 | a.a.$ dXdXdXdXdXdXdXdXdXdXdXdXdXdXdXdXdXdXdXdXdX",
"dXdXdXdXdXdXdXdXdXdXdXdXdXdXdXdXdXdXdXdXdXdXdXdXdXdXdXdXdXdXdXdXa.a.8.0  .a.a.e.e dXdXdXdXdXdXdXdXdXdXdXdXdXdXdXdXdXdXdX",
"dXdXdXdXdXdXdXdXdXdXdXdXdXdXdXdXdXdXdXdXdXdXdXdXdXdXdXdXdXdXdXdXa.a.a.-.w { a.a.a.b dXdXdXdXdXdXdXdXdXdXdXdXdXdXdXdXdXdX",
"dXdXdXdXdXdXdXdXdXdXdXdXdXdXdXdXdXdXdXdXdXdXdXdXdXdXdXdXdXdXdXdX$ a.a.t.( w q.a.a.k.W.dXdXdXdXdXdXdXdXdXdXdXdXdXdXdXdXdX",
"dXdXdXdXdXdXdXdXdXdXdXdXdXdXdXdXdXdXdXdXdXdXdXdXdXdXdXdXdXdXdXdX@ t.i.a.8.: -.q.4.; >Xg.dXdXdXdXdXdXdXdXdXdXdXdXdXdXdXdX",
"dXdXdXdXdXdXdXdXdXdXdXdXdXdXdXdXdXdXdXdXdXdXdXdXdXdXdXdXdXdXdXdX  X.r.t.{ ~ ( -.h , dXpX  dXdXdXdXdXdXdXdXdXdXdXdXdXdXdX",
"dXdXdXdXdXdXdXdXdXdXdXdXdXdXdXdXdXdXdXdXdXdXdXdXdXdXdXdXdXdXdXdXdX-       X $ ( 6 dXdXyXwXdXdXdXdXdXdXdXdXdXdXdXdXdXdXdX",
"dXdXdXdXdXdXdXdXdXdXdXdXdXdXdXdXdXdXdXdXdXdXdXdXdXdXdXdXdXdXdXdXdX_.A.w ( :.u.,   dXf.$ OX8 dXdXdXdXdXdXdXdXdXdXdXdXdXdX",
"dXdXdXdXdXdXdXdXdXdXdXdXdXdXdXdXdXdXdXdXdXdXdXdXdXdXdXdXdXdXdXdX). X[.v } a.a.a.dX  #X-X-X-XdXdXdXdXdXdXdXdXdXdXdXdXdXdX",
"dXdXdXdXdXdXdXdXdXdXdXdXdXdXdXdXdXdXdXdXdXdXdXdXdXdXdXdXdXdXdXz .X{.S.3.s 8.a.a.u   d.l.'.'.dXdXdXdXdXdXdXdXdXdXdXdXdXdX",
"dXdXdXdXdXdXdXdXdXdXdXdXdXdXdXdXdXdXdXdXdXdXdXdXdXdXdXdXdXdXdXC 1.1.V.Z.p _ i.a.a.3 XX&X,X<XdXdXdXdXdXdXdXdXdXdXdXdXdXdX",
"dXdXdXdXdXdXdXdXdXdXdXdXdXdXdXdXdXdXdXdXdXdXdXdXdXdXdXdXdXdXdXE.Y.z.g ~ ! ) 7.a.a.`         dXdXdXdXdXdXdXdXdXdXdXdXdXdX",
"dXdXdXdXdXdXdXdXdXdXdXdXdXdXdXdXdXdXdXdXdXdXdXdXdXdXdXdXdXdXV E.J.*.*.*.@.: ) t.a.a.@ dXdXdXdXdXdXdXdXdXdXdXdXdXdXdXdXdX",
"dXdXdXdXdXdXdXdXdXdXdXdXdXdXdXdXdXdXdXdXdXdXdXdXdXdXdXdXdXdXV I.J.*.*.*.*.d ) i.a.a.[ dXdXdXdXdXdXdXdXdXdXdXdXdXdXdXdXdX",
"dXdXdXdXdXdXdXdXdXdXdXdXdXdXdXdXdXdXdXdXdXdXdXdXdXdXdXdXdXdXV I.J.*.*.*.*.d ( :.a.a.[ dXdXdXdXdXdXdXdXdXdXdXdXdXdXdXdXdX",
"dXdXdXdXdXdXdXdXdXdXdXdXdXdXdXdXdXdXdXdXdXdXdXdXdXdXdXdXdXdXf E.K.z.*.*.*.O.0 ( 7.a.j dXdXdXdXdXdXdXdXdXdXdXdXdXdXdXdXdX",
"dXdXdXdXdXdXdXdXdXdXdXdXdXdXdXdXdXdXdXdXdXdXdXdXdXdXdXdXdXdXdXE.Y.K.z.*.*.#.  ) ( k o.dXdXdXdXdXdXdXdXdXdXdXdXdXdXdXdXdX",
"dXdXdXdXdXdXdXdXdXdXdXdXdXdXdXdXdXdXdXdXdXdXdXdXdXdXdXdXdXdXdX9 E.L.K.z.*.#.  ~ * F.K.  dXdXdXdXdXdXdXdXdXdXdXdXdXdXdXdX",
"dXdXdXdXdXdXdXdXdXdXdXdXdXdXdXdXdXdXdXdXdXdXdXdXdXdXdXdXdXdXdX9 P.E.K.K.K.*.g C H.H.&.oXdXdXdXdXdXdXdXdXdXdXdXdXdXdXdXdX",
"dXdXdXdXdXdXdXdXdXdXdXdXdXdXdXdXdXdXdXdXdXdXdXdXdXdXdXdXdXdXdXdXdX1 < < < < < < dXdXdXZ qXdXdXdXdXdXdXdXdXdXdXdXdXdXdXdX",
"dXdXdXdXdXdXdXdXdXdXdXdXdXdXdXdXdXdXdXdXdXdXdXdXdXdXdXdXdXdXdXdXdX  `.dXdXdXdXdXdXdXdXdX].:XdXdXdXdXdXdXdXdXdXdXdXdXdXdX",
"dXdXdXdXdXdXdXdXdXdXdXdXdXdXdXdXdXdXdXdXdXdXdXdXdXdXdXdXdXdXdXdX+X%X*XdXdXdXdXdXdXdXdX^.iX=XdXdXdXdXdXdXdXdXdXdXdXdXdXdX",
"dXdXdXdXdXdXdXdXdXdXdXdXdXdXdXdXdXdXdXdXdXdXdXdXdXdXdXdXdXdXdXdX(.(.(.dXdXdXdXdXdXdXj.eX(.dXdXdXdXdXdXdXdXdXdXdXdXdXdXdX",
"dXdXdXdXdXdXdXdXdXdXdXdXdXdXdXdXdXdXdXdXdXdXdXdXdXdXdXdXdXdXdXdXdXdXdXdXdXdXdXdXdXdXdXdXdXdXdXdXdXdXdXdXdXdXdXdXdXdXdXdX",
"dXdXdXdXdXdXdXdXdXdXdXdXdXdXdXdXdXdXdXdXdXdXdXdXdXdXdXdXdXdXdXdXdXdXdXdXdXdXdXdXdXdXdXdXdXdXdXdXdXdXdXdXdXdXdXdXdXdXdXdX",
"dXdXdXdXdXdXdXdXdXdXdXdXdXdXdXdXdXdXdXdXdXdXdXdXdXdXdXdXdXdXdXdXdXdXdXdXdXdXdXdXdXdXdXdXdXdXdXdXdXdXdXdXdXdXdXdXdXdXdXdX",
"dXdXdXdXdXdXdXdXdXdXdXdXdXdXdXdXdXdXdXdXdXdXdXdXdXdXdXdXdXdXdXdXdXdXdXdXdXdXdXdXdXdXdXdXdXdXdXdXdXdXdXdXdXdXdXdXdXdXdXdX",
"dXdXdXdXdXdXdXdXdXdXdXdXdXdXdXdXdXdXdXdXdXdXdXdXdXdXdXdXdXdXdXdXdXdXdXdXdXdXdXdXdXdXdXdXdXdXdXdXdXdXdXdXdXdXdXdXdXdXdXdX"
};
