/* XPM */
static char *xpm_[] = {
/* columns rows colors chars-per-pixel */
"60 60 240 2 ",
"   c black",
".  c #010000",
"X  c #010101",
"o  c #030002",
"O  c #020102",
"+  c #030102",
"@  c #040202",
"#  c #070303",
"$  c #050204",
"%  c #030405",
"&  c #000704",
"*  c #0C0203",
"=  c #0B0607",
"-  c #0F0B06",
";  c #050708",
":  c #0B060A",
">  c #0B060B",
",  c #000909",
"<  c #000A0A",
"1  c #000D08",
"2  c #000D09",
"3  c #0F0809",
"4  c #0E0B09",
"5  c #0E0B0A",
"6  c #1A030E",
"7  c #11090B",
"8  c #110D0B",
"9  c #11090E",
"0  c #160C0F",
"q  c #1A0C0B",
"w  c #1F160D",
"e  c #0F0B10",
"r  c #120A11",
"t  c #130A12",
"y  c #170C11",
"u  c #120D17",
"i  c #190D10",
"p  c #1B0E11",
"a  c #1F0C10",
"s  c #1A0F19",
"d  c #1B0F19",
"f  c #1C0F1A",
"g  c #0D181E",
"h  c #1F1013",
"j  c #1E101C",
"k  c #1F111D",
"l  c #131C1F",
"z  c #2A100F",
"x  c #21081C",
"c  c #201115",
"v  c #25131A",
"b  c #261419",
"n  c #27151A",
"m  c #21121F",
"M  c #29151B",
"N  c #2D181E",
"B  c #2E181F",
"V  c #3D1614",
"C  c #3A181F",
"Z  c #0E2319",
"A  c #002C1A",
"S  c #09102A",
"D  c #09112A",
"F  c #09102B",
"G  c #08112B",
"H  c #0A112A",
"J  c #0A102B",
"K  c #0D132E",
"L  c #0E1630",
"P  c #131833",
"I  c #121834",
"U  c #141934",
"Y  c #161D36",
"T  c #191F32",
"R  c #1A1D38",
"E  c #1C1E3A",
"W  c #271525",
"Q  c #271625",
"!  c #281624",
"~  c #281626",
"^  c #291727",
"/  c #2A1727",
"(  c #2B1826",
")  c #2B1827",
"_  c #2C1826",
"`  c #2E1927",
"'  c #2C1828",
"]  c #2D1929",
"[  c #331B23",
"{  c #351C24",
"}  c #3B1820",
"|  c #3F1628",
" . c #321B2B",
".. c #351D2D",
"X. c #371F2E",
"o. c #381F2E",
"O. c #391F2F",
"+. c #380F30",
"@. c #3F1035",
"#. c #132428",
"$. c #153425",
"%. c #152930",
"&. c #172830",
"*. c #1F203D",
"=. c #023A39",
"-. c #1A303B",
";. c #1B323E",
":. c #3B2526",
">. c #3E2129",
",. c #3F3028",
"<. c #20223E",
"1. c #21223F",
"2. c #3B2030",
"3. c #3E2231",
"4. c #3F2332",
"5. c #421918",
"6. c #652915",
"7. c #4B1720",
"8. c #401A22",
"9. c #431B22",
"0. c #570E31",
"q. c #4C1233",
"w. c #5A1436",
"e. c #63122F",
"r. c #701826",
"t. c #711826",
"y. c #6B113C",
"u. c #42222C",
"i. c #5D2E2A",
"p. c #49322F",
"a. c #412433",
"s. c #452531",
"d. c #442534",
"f. c #492731",
"g. c #492735",
"h. c #4A2836",
"j. c #4E2934",
"k. c #4E2937",
"l. c #4E2A38",
"z. c #4F2A38",
"x. c #5C2B31",
"c. c #502A38",
"v. c #522C39",
"b. c #542C38",
"n. c #552D39",
"m. c #552D3A",
"M. c #562D3B",
"N. c #572E3B",
"B. c #582E3B",
"V. c #592F3C",
"C. c #4F3C32",
"Z. c #5B303D",
"A. c #782D2B",
"S. c #773B37",
"D. c #005633",
"F. c #5F493C",
"G. c #0F3B41",
"H. c #163841",
"J. c #113E44",
"K. c #113E45",
"L. c #242643",
"P. c #262643",
"I. c #262644",
"U. c #262D47",
"Y. c #2A2A47",
"T. c #2D2F4B",
"R. c #2F2F4C",
"E. c #363B56",
"W. c #521545",
"Q. c #5A174C",
"!. c #71154A",
"~. c #79174D",
"^. c #004B48",
"/. c #064D4D",
"(. c #00504C",
"). c #04504E",
"_. c #005350",
"`. c #005751",
"'. c #005652",
"]. c #006E41",
"[. c #00624F",
"{. c #006B4E",
"}. c #007545",
"|. c #007646",
" X c #007A48",
".X c #007C4B",
"XX c #007E4B",
"oX c #6F5546",
"OX c #725748",
"+X c #735848",
"@X c #4D526D",
"#X c #4D536D",
"$X c #5D5F7B",
"%X c #86371C",
"&X c #90332D",
"*X c #90352F",
"=X c #AD253A",
"-X c #9F4328",
";X c #A34833",
":X c #8F633D",
">X c #8C174F",
",X c #8C1F48",
"<X c #A42049",
"1X c #AF2248",
"2X c #8A4741",
"3X c #A1524A",
"4X c #A24C57",
"5X c #BA5C55",
"6X c #BD5C5D",
"7X c #8A6956",
"8X c #9D7863",
"9X c #A57E68",
"0X c #F54D73",
"qX c #D56A62",
"wX c #C07360",
"eX c #BF8451",
"rX c #E78866",
"tX c #F8A46B",
"yX c #606680",
"uX c #676A86",
"iX c #69708A",
"pX c #8B90AC",
"aX c #9399B3",
"sX c #9BA0BC",
"dX c #9EA4BF",
"fX c #DD9981",
"gX c #D1A084",
"hX c #D2A084",
"jX c #D3A184",
"kX c #DFAA8C",
"lX c #E4AF92",
"zX c #EFB696",
"xX c #F6B390",
"cX c #F1B999",
"vX c #F3B999",
"bX c #F4BA9A",
"nX c #FFC2A0",
"mX c #FFC3A1",
"MX c #A3A8C3",
"NX c None",
/* pixels */
"NXNXNXNXNXNXNXNXNXNXNXNXNXNXNXNXNXNXNXNXNXNXNXNXNXNXNXNXNXNXNXNXNXNXNXNXNXNXNXNXNXNXNXNXNXNXNXNXNXNXNXNXNXNXNXNXNXNXNXNX",
"NXNXNXNXNXNXNXNXNXNXNXNXNXNXNXNXNXNXNXNXNXNXNXNXNXNXNXNXNXNXNXNXNXNXNXNXNXNXNXNXNXNXNXNXNXNXNXNXNXNXNXNXNXNXNXNXNXNXNXNX",
"NXNXNXNXNXNXNXNXNXNXNXNXNXNXNXNXNXNXNXNXNXNXNXNXNXNXNXNXNXNXNXNXNXNXNXNXNXNXNXNXNXNXNXNXNXNXNXNXNXNXNXNXNXNXNXNXNXNXNXNX",
"NXNXNXNXNXNXNXNXNXNXNXNXNXNXNXNXNXNXNXNXNXNXNXNXNXNXNXNXNXNXNXNXNXNXNXNXNXNXNXNXNXNXNXNXNXNXNXNXNXNXNXNXNXNXNXNXNXNXNXNX",
"NXNXNXNXNXNXNXNXNXNXNXNXNXNXNXNXNXNXNXNXNXNXNXNXNXNXNXNXNXNXNXNXNXNXNXNXNXNXNXNXNXNXNXNXNXNXNXNXNXNXNXNXNXNXNXNXNXNXNXNX",
"NXNXNXNXNXNXNXNXNXNXNXNXNXNXNXNXNXNXNXNXNXNXNXNXNXNXNXNXNXNXNXNXNXNXNXNXNXNXNXNXNXNXNXNXNXNXNXNXNXNXNXNXNXNXNXNXNXNXNXNX",
"NXNXNXNXNXNXNXNXNXNXNXNXNXNXNXNXNXNXNXNXNXNXNXNXNXNXNXNXNXNXNXNXNXNXNXNXNXNXNXNXNXNXNXNXNXNXNXNXNXNXNXNXNXNXNXNXNXNXNXNX",
"NXNXNXNXNXNXNXNXNXNXNXNXNXNXNXNXNXNXNXNXNXNXNXNXNXNXNXNXNXNXNXNXNXNXNXNXNXNXNXNXNXNXNXNXNXNXNXNXNXNXNXNXNXNXNXNXNXNXNXNX",
"NXNXNXNXNXNXNXNXNXNXNXNXNXNXNXNXNXNXNXNXNXNXNXNXNXNXNXaXNXyXNXU.NXNXNXNXNXNXNXNXNXNXNXNXNXNXNXNXNXNXNXNXNXNXNXNXNXNXNXNX",
"NXNXNXNXNXNXNXNXNXNXNXNXNXNXNXNXNXNXNXNXNXNXNX$XNXNXNXS NXR NX1.NXNXT.NXS NXNXNXNXNXNXNXNXNXNXNXNXNXNXNXNXNXNXNXNXNXNXNX",
"NXNXNXNXNXNXNXNXNXNXNXNXNXNXNXNXNXNXNXNXNXNXNXS NXNXNXNXNXNXNXNXNXNXNXI.F pXF NXNXNXNXNXNXNXNXNXNXNXNXNXNXNXNXNXNXNXNXNX",
"NXNXNXNXNXNXNXNXNXNXNXNXNXNXNXNXNXNXNXI NXNXNXNXNXNXNXNXNXNXNXNXNXNXNXNXNXNXF 1.NXNXNXNXNXNXNXNXNXNXNXNXNXNXNXNXNXNXNXNX",
"NXNXNXNXNXNXNXNXNXNXNXNXNXNXNXNXNX#XNXI.NXNXNXNXNXNXNXNXNXNXNXNXNXNXNXNXNXNXNXNXE.NXNXNXNXNXNXNXNXNXNXNXNXNXNXNXNXNXNXNX",
"NXNXNXNXNXNXNXNXNXNXNXNXNXNXNXL NXI.NXNXNXNXNXNXNXNXNXNXNXNXNXNXNXNXNXNXNXNXNXNXF NXNXNXNXNXNXNXNXNXNXNXNXNXNXNXNXNXNXNX",
"NXNXNXNXNXNXNXNXNXNXNXNXNXNXNXP.NXNXNXNXNXNXNXNXNXNXNXNXNXNXNXNXNXNXNXNXNXNXNXNXNXI.NXNXNXNXNXNXNXNXNXNXNXNXNXNXNXNXNXNX",
"NXNXNXNXNXNXNXNXNXNXNXNXNXdXK NXNXNXNXNXNXNXNXNXNXNXNXNXNXNXNXNXNXNXNXNXNXNXNXNXNXNXNXS NXNXNXNXNXNXNXNXNXNXNXNXNXNXNXNX",
"NXNXNXNXNXNXNXNXNXNXNXNXNXNXNXNXNXNXNXNXNXNXNXNXNXNXNXNXNXNXNXNXNXNXNXNXNXNXNXNXNXNXNXR.F NXNXNXNXNXNXNXNXNXNXNXNXNXNXNX",
"NXNXNXNXNXNXNXNXNXNXNX#XNXNXNXNXNXNXNXNXNXNXNXNXNXNXNXNXNXNXNXNXNXNXNXNXNXNXNXNXNXNXNXNXNXNXNXNXNXNXNXNXNXNXNXNXNXNXNXNX",
"NXNXNXNXNXNXNXNXNXNXS *.NXNXNXNXNXNXNXNXNXNXNXNXNXNXNXNXNXNXNXNXNXNXNXNXNXNXNXNXNXNXNXNXU iXNXNXNXNXNXNXNXNXNXNXNXNXNXNX",
"NXNXNXNXNXNXNXNXNXNXNXNXNXNXNXNXNXNXNXNXNXNXNXNXNXNXNXNXNXNXNXNXNXNXNXNXNXNXNXNXNXNXNXNXNXNXNXNXNXNXNXNXNXNXNXNXNXNXNXNX",
"NXNXNXNXNXNXNXNXNXNXNXNXNXNXNXNXNXNXNXNXNXNXNXNXNXNXNXNXNXNXNXNXNXNXNXNXNXNXNXNXNXNXNXNXsXF NXNXNXNXNXNXNXNXNXNXNXNXNXNX",
"NXNXNXNXNXNXNXNXNXNXNXNXNXNXNXNXNXNXNXNXNXNXNXNXNXNXNXNXNXNXNXNXNXNXNXNXNXNXNXNXNXNXNXNXNXNXNXNXNXNXNXNXNXNXNXNXNXNXNXNX",
"NXNXNXNXNXNXNXNXNXNXNXNXNXNXNXNXNXNXNXNXNXNXNXNXNXNXNXNXNXNXNXNXNXNXNXNXNXNXNXNXNXNXNXNXNXNXNXNXNXNXNXNXNXNXNXNXNXNXNXNX",
"NXNXNXNXNXNXNXNXNXNXNXNXNXNXNXNXNXNXNXNXNXNXNXNXNXNXNXNXNXNXNX    a 5.NXNXNXNXNXNXNXNXNXI.NXNXNXNXNXNXNXNXNXNXNXNXNXNXNX",
"NXNXNXNXNXNXNXNXNXNXNXNXNXNXNXNXNXNXNXNXNXNXNXNXNXNXNXNXNXNXz 8.9.V 8.7.NXNXNXNXNXNXNXNXE NXNXNXNXNXNXNXNXNXNXNXNXNXNXNX",
"NXNXNXNXNXNXNXNXNXNXNXNXNXNXNXNXNXNXNXNXNXNXNXNXNXNXNXNXNXNX8 i C A.q.<X6 NXNXNXNXNXNXP NXNXNXNXNXNXNXNXNXNXNXNXNXNXNXNX",
"NXNXNXNXNXNXNXNXNXNXNXNXNXNXNXNXNXNXNXNXNXNXNXNXNXNXNXNXNXNXF.cX  } w.,X0XNXNXNXNXNXY.NXNXNXNXNXNXNXNXNXNXNXNXNXNXNXNXNX",
"NXNXNXNXNXNXNXNXNXNXNXNXNXNXNXNXNXNXNXNXNXNXNXNXNXNXNXNXNXNXF.lXjXc D.$.NXNXNXNXMXuXY NXNXNXNXNXNXNXNXNXNXNXNXNXNXNXNXNX",
"NXNXNXNXNXNXNXNXNXNXNXNXNXNXNXNXNXNXNXNXNXNXNXNXNXNXNXNXNXNXF.mXzXi Z #   5 >.>.T NXNXNXNXNXNXNXNXNXNXNXNXNXNXNXNXNXNXNX",
"NXNXNXNXNXNXNXNXNXNXNXNXNXNXNXNXNXNXNXNXNXNXNXNXNXNXNXNXNXNX,.oXmX8X+   M Z.Z.Z.y NXNXNXNXNXNXNXNXNXNXNXNXNXNXNXNXNXNXNX",
"NXNXNXNXNXNXNXNXNXNXNXNXNXNXNXNXNXNXNXNXNXNXNXNXNXNXNXNXNXNXNXNX5 cXp.Z.V.b a.O.9 NXNXNXNXNXNXNXNXNXNXNXNXNXNXNXNXNXNXNX",
"NXNXNXNXNXNXNXNXNXNXNXNXNXNXNXNXNXNXNXNXNXNXNXNXNXNXNXNXNXNXNXNXNX  Z.n.( B.7 k : NXNXNXNXNXNXNXNXNXNXNXNXNXNXNXNXNXNXNX",
"NXNXNXNXNXNXNXNXNXNXNXNXNXNXNXNXNXNXNXNXNXNXNXNXNXNXNXNXNXNXNXNXNX  Z.Z.f ' V.Z.c NXNXNXNXNXNXNXNXNXNXNXNXNXNXNXNXNXNXNX",
"NXNXNXNXNXNXNXNXNXNXNXNXNXNXNXNXNXNXNXNXNXNXNXNXNXNXNXNXNXNXNXNXNXNXu.Z.c.f ' V.V.n.{ NXNXNXNXNXNXNXNXNXNXNXNXNXNXNXNXNX",
"NXNXNXNXNXNXNXNXNXNXNXNXNXNXNXNXNXNXNXNXNXNXNXNXNXNXNXNXNXNXNXNXNXNX>.Z.Z.c.s / Z.Z.Z.{ NXNXNXNXNXNXNXNXNXNXNXNXNXNXNXNX",
"NXNXNXNXNXNXNXNXNXNXNXNXNXNXNXNXNXNXNXNXNXNXNXNXNXNXNXNXNXNXNXNXNXNX  Z.V.V.4.r n.V.Z.:.7XNXNXNXNXNXNXNXNXNXNXNXNXNXNXNX",
"NXNXNXNXNXNXNXNXNXNXNXNXNXNXNXNXNXNXNXNXNXNXNXNXNXNXNXNXNXNXNXNXNXNX  h.Z.V.4.$ O.Z.j.= 9X+XNXNXNXNXNXNXNXNXNXNXNXNXNXNX",
"NXNXNXNXNXNXNXNXNXNXNXNXNXNXNXNXNXNXNXNXNXNXNXNXNXNXNXNXNXNXNXNXNXNX  ` 2.2.' ' f g.B i NXkXC.NXNXNXNXNXNXNXNXNXNXNXNXNX",
"NXNXNXNXNXNXNXNXNXNXNXNXNXNXNXNXNXNXNXNXNXNXNXNXNXNXNXNXNXNXNXNXNXNXNX*   +       / =   NXjXbXNXNXNXNXNXNXNXNXNXNXNXNXNX",
"NXNXNXNXNXNXNXNXNXNXNXNXNXNXNXNXNXNXNXNXNXNXNXNXNXNXNXNXNXNXNXNXNXNXNXt.!.> ' 4.z.v   NX- w 2Xi.NXNXNXNXNXNXNXNXNXNXNXNX",
"NXNXNXNXNXNXNXNXNXNXNXNXNXNXNXNXNXNXNXNXNXNXNXNXNXNXNXNXNXNXNXNXNXNXt.1X~.+./ d.Z.Z._ NX3XeXeXeX  NXNXNXNXNXNXNXNXNXNXNX",
"NXNXNXNXNXNXNXNXNXNXNXNXNXNXNXNXNXNXNXNXNXNXNXNXNXNXNXNXNXNXNXNXNXNX=X>X>XW.t  .M.Z.Z.M x.S.:X:X  NXNXNXNXNXNXNXNXNXNXNX",
"NXNXNXNXNXNXNXNXNXNXNXNXNXNXNXNXNXNXNXNXNXNXNXNXNXNXNXNXNXNXNXNXNXA e.0.y.Q.f W g.V.Z.f.4X6XrXtX  NXNXNXNXNXNXNXNXNXNXNX",
"NXNXNXNXNXNXNXNXNXNXNXNXNXNXNXNXNXNXNXNXNXNXNXNXNXNXNXNXNXNXNXNXNX]..X_.=.u @.s ..V.Z.j.        NXNXNXNXNXNXNXNXNXNXNXNX",
"NXNXNXNXNXNXNXNXNXNXNXNXNXNXNXNXNXNXNXNXNXNXNXNXNXNXNXNXNXNXNXNX& .X.X'.;.;.-.$ / j.Z.Z.n.NXNXNXNXNXNXNXNXNXNXNXNXNXNXNX",
"NXNXNXNXNXNXNXNXNXNXNXNXNXNXNXNXNXNXNXNXNXNXNXNXNXNXNXNXNXNXNXNX& .X[.'.;.;.;.l s O.Z.Z.n.NXNXNXNXNXNXNXNXNXNXNXNXNXNXNX",
"NXNXNXNXNXNXNXNXNXNXNXNXNXNXNXNXNXNXNXNXNXNXNXNXNXNXNXNXNXNXNXNX, XX[.'.;.;.;.l f ' h.Z.0 NXNXNXNXNXNXNXNXNXNXNXNXNXNXNX",
"NXNXNXNXNXNXNXNXNXNXNXNXNXNXNXNXNXNXNXNXNXNXNXNXNXNXNXNXNXNXNXNXNX|.[.'.K.;.;.%.e ' O.s.  NXNXNXNXNXNXNXNXNXNXNXNXNXNXNX",
"NXNXNXNXNXNXNXNXNXNXNXNXNXNXNXNXNXNXNXNXNXNXNXNXNXNXNXNXNXNXNXNXNX].XX'./.;.;.;.; / ! g G.NXNXNXNXNXNXNXNXNXNXNXNXNXNXNX",
"NXNXNXNXNXNXNXNXNXNXNXNXNXNXNXNXNXNXNXNXNXNXNXNXNXNXNXNXNXNXNXNXNX  XX{.'.).;.;.; m g J.'.< NXNXNXNXNXNXNXNXNXNXNXNXNXNX",
"NXNXNXNXNXNXNXNXNXNXNXNXNXNXNXNXNXNXNXNXNXNXNXNXNXNXNXNXNXNXNXNXNX  |. X`.'.'.H.#.%._.(.^.5XNXNXNXNXNXNXNXNXNXNXNXNXNXNX",
"NXNXNXNXNXNXNXNXNXNXNXNXNXNXNXNXNXNXNXNXNXNXNXNXNXNXNXNXNXNXNXNXNXNXNX1 1 < < < < < < NXNXq fXNXNXNXNXNXNXNXNXNXNXNXNXNX",
"NXNXNXNXNXNXNXNXNXNXNXNXNXNXNXNXNXNXNXNXNXNXNXNXNXNXNXNXNXNXNXNXNXNXNXNX-X  NXNXNXNXNXNXNXNX%XjXNXNXNXNXNXNXNXNXNXNXNXNX",
"NXNXNXNXNXNXNXNXNXNXNXNXNXNXNXNXNXNXNXNXNXNXNXNXNXNXNXNXNXNXNXNXNXNXOX;XqX  NXNXNXNXNXNXNX6.xXwXNXNXNXNXNXNXNXNXNXNXNXNX",
"NXNXNXNXNXNXNXNXNXNXNXNXNXNXNXNXNXNXNXNXNXNXNXNXNXNXNXNXNXNXNXNXNXNX*X*X*X*XNXNXNXNXNXNX5 mX*XNXNXNXNXNXNXNXNXNXNXNXNXNX",
"NXNXNXNXNXNXNXNXNXNXNXNXNXNXNXNXNXNXNXNXNXNXNXNXNXNXNXNXNXNXNXNXNXNXNXNXNXNXNXNXNXNXNXNXNXNXNXNXNXNXNXNXNXNXNXNXNXNXNXNX",
"NXNXNXNXNXNXNXNXNXNXNXNXNXNXNXNXNXNXNXNXNXNXNXNXNXNXNXNXNXNXNXNXNXNXNXNXNXNXNXNXNXNXNXNXNXNXNXNXNXNXNXNXNXNXNXNXNXNXNXNX",
"NXNXNXNXNXNXNXNXNXNXNXNXNXNXNXNXNXNXNXNXNXNXNXNXNXNXNXNXNXNXNXNXNXNXNXNXNXNXNXNXNXNXNXNXNXNXNXNXNXNXNXNXNXNXNXNXNXNXNXNX",
"NXNXNXNXNXNXNXNXNXNXNXNXNXNXNXNXNXNXNXNXNXNXNXNXNXNXNXNXNXNXNXNXNXNXNXNXNXNXNXNXNXNXNXNXNXNXNXNXNXNXNXNXNXNXNXNXNXNXNXNX",
"NXNXNXNXNXNXNXNXNXNXNXNXNXNXNXNXNXNXNXNXNXNXNXNXNXNXNXNXNXNXNXNXNXNXNXNXNXNXNXNXNXNXNXNXNXNXNXNXNXNXNXNXNXNXNXNXNXNXNXNX"
};
