/* XPM */
static char *xpm_[] = {
/* columns rows colors chars-per-pixel */
"60 60 251 2 ",
"   c black",
".  c #020101",
"X  c #030202",
"o  c #060304",
"O  c #090404",
"+  c #0B0507",
"@  c #0B0606",
"#  c #0C0607",
"$  c #0D0806",
"%  c #070508",
"&  c #0B060B",
"*  c #0D0608",
"=  c #0E0708",
"-  c #07090A",
";  c #000F09",
":  c #0F0909",
">  c #0F080E",
",  c #090F0E",
"<  c #100405",
"1  c #10060E",
"2  c #10080A",
"3  c #10090B",
"4  c #11090B",
"5  c #170B0E",
"6  c #190B08",
"7  c #00100E",
"8  c #06130D",
"9  c #070A18",
"0  c #100910",
"q  c #110911",
"w  c #110A11",
"e  c #120A11",
"r  c #130A12",
"t  c #130B13",
"y  c #140B13",
"u  c #1A0D12",
"i  c #180D15",
"p  c #1B0F14",
"a  c #1B0A18",
"s  c #001010",
"d  c #0C1215",
"f  c #0F181F",
"g  c #191010",
"h  c #1D1013",
"j  c #1A1410",
"k  c #1F1014",
"l  c #1F1019",
"z  c #1F111A",
"x  c #1E101B",
"c  c #1D131B",
"v  c #1F111D",
"b  c #260916",
"n  c #2B0618",
"m  c #370B12",
"M  c #251017",
"N  c #2E1315",
"B  c #20111D",
"V  c #21121D",
"C  c #23131C",
"Z  c #20111E",
"A  c #2B1318",
"S  c #2A161C",
"D  c #2B1A1A",
"F  c #2D181E",
"G  c #2E181E",
"H  c #341513",
"J  c #33121E",
"K  c #31161C",
"L  c #3A171E",
"P  c #002717",
"I  c #04211F",
"U  c #002918",
"Y  c #00341F",
"T  c #0D1B21",
"R  c #0D122C",
"E  c #0D132D",
"W  c #0D132E",
"Q  c #0E122E",
"!  c #151526",
"~  c #16182D",
"^  c #0F1530",
"/  c #121731",
"(  c #151932",
")  c #151A35",
"_  c #171A37",
"`  c #181B37",
"'  c #1B1E39",
"]  c #1B1E3A",
"[  c #1B1F3A",
"{  c #2F0B28",
"}  c #360B20",
"|  c #3D0F27",
" . c #221320",
".. c #241420",
"X. c #261523",
"o. c #271625",
"O. c #281623",
"+. c #291727",
"@. c #2A1727",
"#. c #281B21",
"$. c #2D1826",
"%. c #2C1828",
"&. c #3D1126",
"*. c #301920",
"=. c #331B23",
"-. c #351C23",
";. c #361C24",
":. c #381D25",
">. c #301B2A",
",. c #311B2B",
"<. c #321B2B",
"1. c #331C2C",
"2. c #381E2E",
"3. c #3E0F35",
"4. c #15232A",
"5. c #16242A",
"6. c #003720",
"7. c #00302E",
"8. c #19203A",
"9. c #1E203C",
"0. c #1F213E",
"q. c #1D233E",
"w. c #182D38",
"e. c #1A323E",
"r. c #1B323E",
"t. c #1A333E",
"y. c #18353F",
"u. c #3C2028",
"i. c #3D2028",
"p. c #3D2029",
"a. c #20223F",
"s. c #3E2231",
"d. c #3F2231",
"f. c #531E1E",
"g. c #442F1D",
"h. c #4F1723",
"j. c #441A20",
"k. c #421037",
"l. c #452220",
"z. c #582125",
"x. c #562B27",
"c. c #52262B",
"v. c #502F2A",
"b. c #5F2F2C",
"n. c #58332C",
"m. c #412433",
"M. c #422433",
"N. c #472633",
"B. c #452634",
"V. c #472735",
"C. c #4C2833",
"Z. c #4C2937",
"A. c #4D2937",
"S. c #4E2A38",
"D. c #4F2A38",
"F. c #512A36",
"G. c #532B37",
"H. c #512B39",
"J. c #522B38",
"K. c #522B39",
"L. c #532C39",
"P. c #542C38",
"I. c #552D39",
"U. c #552D3A",
"Y. c #572E3B",
"T. c #592F3C",
"R. c #5A2F3C",
"E. c #493C37",
"W. c #503D33",
"Q. c #5B303D",
"!. c #742133",
"~. c #004629",
"^. c #004D2D",
"/. c #33413C",
"(. c #564236",
"). c #63493F",
"_. c #7C403B",
"`. c #7F5836",
"'. c #0D3E42",
"]. c #252542",
"[. c #272744",
"{. c #292D48",
"}. c #2E334E",
"|. c #2E334F",
" X c #30304E",
".X c #2F3550",
"XX c #363A54",
"oX c #541547",
"OX c #5F174C",
"+X c #7B3942",
"@X c #0B4043",
"#X c #0E4045",
"$X c #0C4246",
"%X c #0A4749",
"&X c #014F4C",
"*X c #03514F",
"=X c #00534F",
"-X c #02524F",
";X c #015350",
":X c #005652",
">X c #00644B",
",X c #00674E",
"<X c #00684E",
"1X c #007746",
"2X c #00724C",
"3X c #007A48",
"4X c #00784B",
"5X c #007E4B",
"6X c #6A5042",
"7X c #7B5D4D",
"8X c #7B5E4D",
"9X c #424560",
"0X c #525971",
"qX c #921E32",
"wX c #883724",
"eX c #90342F",
"rX c #A02137",
"tX c #89462E",
"yX c #824B36",
"uX c #82403C",
"iX c #A34933",
"pX c #8C174F",
"aX c #992047",
"sX c #9B2148",
"dX c #B72547",
"fX c #D83D6B",
"gX c #A54F54",
"hX c #89664F",
"jX c #9C6943",
"kX c #9F6E43",
"lX c #8C6A58",
"zX c #A96652",
"xX c #B76857",
"cX c #9F7964",
"vX c #A57E68",
"bX c #C55E56",
"nX c #D0725E",
"mX c #AF856E",
"MX c #BF9278",
"NX c #C09279",
"BX c #C3957B",
"VX c #C99A7E",
"CX c #CA9A7F",
"ZX c #DE9377",
"AX c #E18F62",
"SX c #767A95",
"DX c #C9A089",
"FX c #EDB595",
"GX c #FFC3A0",
"HX c #FFC3A1",
"JX c None",
/* pixels */
"JXJXJXJXJXJXJXJXJXJXJXJXJXJXJXJXJXJXJXJXJXJXJXJXJXJXJXJXJXJXJXJXJXJXJXJXJXJXJXJXJXJXJXJXJXJXJXJXJXJXJXJXJXJXJXJXJXJXJXJX",
"JXJXJXJXJXJXJXJXJXJXJXJXJXJXJXJXJXJXJXJXJXJXJXJXJXJXJXJXJXJXJXJXJXJXJXJXJXJXJXJXJXJXJXJXJXJXJXJXJXJXJXJXJXJXJXJXJXJXJXJX",
"JXJXJXJXJXJXJXJXJXJXJXJXJXJXJXJXJXJXJXJXJXJXJXJXJXJXJXJXJXJXJXJXJXJXJXJXJXJXJXJXJXJXJXJXJXJXJXJXJXJXJXJXJXJXJXJXJXJXJXJX",
"JXJXJXJXJXJXJXJXJXJXJXJXJXJXJXJXJXJXJXJXJXJXJXJXJXJXJXJXJXJXJXJXJXJXJXJXJXJXJXJXJXJXJXJXJXJXJXJXJXJXJXJXJXJXJXJXJXJXJXJX",
"JXJXJXJXJXJXJXJXJXJXJXJXJXJXJXJXJXJXJXJXJXJXJXJXJXJXJXJXJXJXJXJXJXJXJXJXJXJXJXJXJXJXJXJXJXJXJXJXJXJXJXJXJXJXJXJXJXJXJXJX",
"JXJXJXJXJXJXJXJXJXJXJXJXJXJXJXJXJXJXJXJXJXJXJXJXJXJXJXJXJXJXJXJXJXJXJXJXJXJXJXJXJXJXJXJXJXJXJXJXJXJXJXJXJXJXJXJXJXJXJXJX",
"JXJXJXJXJXJXJXJXJXJXJXJXJXJXJXJXJXJXJXJXJXJXJXJXJXJXJXJXJXJXJXJXJXJXJXJXJXJXJXJXJXJXJXJXJXJXJXJXJXJXJXJXJXJXJXJXJXJXJXJX",
"JXJXJXJXJXJXJXJXJXJXJXJXJXJXJXJXJXJXJXJXJXJXJXJXJXJXJXJXJXJXJXJXJXJXJXJXJXJXJXJXJXJXJXJXJXJXJXJXJXJXJXJXJXJXJXJXJXJXJXJX",
"JXJXJXJXJXJXJXJXJXJXJXJXJXJXJXJXJXJXJXJXJXJXJXJXJXJXJXJXJXJXJXJXJXJXJXJXJXJXJXJXJXJXJXJXJXJXJXJXJXJXJXJXJXJXJXJXJXJXJXJX",
"JXJXJXJXJXJXJXJXJXJXJXJXJXJXJXJXJXJXJXJXJXJXJXJXJXJXJXJXJXJXJXJXJXJXJXJXJXJXJXJXJXJXJXJXJXJXJXJXJXJXJXJXJXJXJXJXJXJXJXJX",
"JXJXJXJXJXJXJXJXJXJXJXJXJXJXJXJXJXJXJXJXJXJXJXJXJXJXJXJXJXJXJXJXJXJXJXJXJXJXJXJXJXJXJXJXJXJXJXJXJXJXJXJXJXJXJXJXJXJXJXJX",
"JXJXJXJXJXJXJXJXJXJXJXJXJXJXJXJXJXJXJXJXJXJXJXJXJXJXJXJXJXJXJXJXJXJXJXJXJXJXJXJXJXJXJXJXJXJXJXJXJXJXJXJXJXJXJXJXJXJXJXJX",
"JXJXJXJXJXJXJXJXJXJXJXJXJXJXJXJXJXJXJXJXJXJXJXJXJXJXJXJXJXJXJXJXJXJXJXJXJXJXJXJXJXJXJXJXJXJXJXJXJXJXJXJXJXJXJXJXJXJXJXJX",
"JXJXJXJXJXJXJXJXJXJXJXJXJXJXJXJXJXJXJXJXJXJXJXJXJXJXJXJXJXJXJXJXJXJXJXJXJXJXJXJXJXJXJXJXJXJXJXJXJXJXJXJXJXJXJXJXJXJXJXJX",
"JXJXJXJXJXJXJXJXJXJXJXJXJXJXJXJXJXJXJXJXJXJXJXJXJXJXJXJXJXJXJXJXJXJXJXJXJXJXJXJXJXJXJXJXJXJXJXJXJXJXJXJXJXJXJXJXJXJXJXJX",
"JXJXJXJXJXJXJXJXJXJXJXJXJXJXJXJXJXJXJXJXJXJXJXJXJXJXJXJXJXJXJXJXJXJXJXJXJXJXJXJXJXJXJXJXJXJXJXJXJXJXJXJXJXJXJXJXJXJXJXJX",
"JXJXJXJXJXJXJXJXJXJXJXJXJXJXJXJXJXJXJXJXJXJXJXJXJXJXJXJXJXJXJXJXJXJXJXJXJXJXJXJXJXJXJXJXJXJXJXJXJXJXJXJXJXJXJXJXJXJXJXJX",
"JXJXJXJXJXJXJXJXJXJXJXJXJXJXJXJXJXJXJXJXJXJXJXJXJXJXJXJXJXJXJXJXJXJXJXJXJXJXJXJXJXJXJXJXJXJXJXJXJXJXJXJXJXJXJXJXJXJXJXJX",
"JXJXJXJXJXJXJXJXJXJXJXJXJXJXJXJXJXJXJXJXJXJXJXJXJXJXJXJXJXJXJXJXJXJXJXJXJXJXJXJXJXJXJXJXJXJXJXJXJXJXJXJXJXJXJXJXJXJXJXJX",
"JXJXJXJXJXJXJXJXJXJXJXJXJXJXJXJXJX XJXJXJXJXJXJXJXJXJXJXR JXJXJXJXJXJXJXJXJXJXJXJXJXJXJXJXJXJXJXJXJXJXJXJXJXJXJXJXJXJXJX",
"JXJXJXJXJXJXJXJXJXJXJXJXJXJXJXSX] JXJXJXJXJXJXJXJXJXJXJXJX].R .XJXJXJXJXJXJXJXJXJXJXJXJXJXJXJXJXJXJXJXJXJXJXJXJXJXJXJXJX",
"JXJXJXJXJXJXJXJXJXJXJXJXJX_ / JXJXJXJXJXJXJXJXJXJXJXJXJXJXJXJXJXJXJXJXJXJXJXJXJXJXJXJXJXJXJXJXJXJXJXJXJXJXJXJXJXJXJXJXJX",
"JXJXJXJXJXJXJXJXJXJXJX.X9.JXJXJXJXJXJXJXJXJXJXJXJXJXJXJXJXJXJXJXJX( 0XJXJXJXJXJXJXJXJXJXJXJXJXJXJXJXJXJXJXJXJXJXJXJXJXJX",
"JXJXJXJXJXJXJXJXJXJX].JXJXJXJXJXJXJXJXJXJXJXJXJXJXJXJXJXJXJXJXJX  = N 9 JXJXJXJXJXJXJXJXJXJXJXJXJXJXJXJXJXJXJXJXJXJXJXJX",
"JXJXJXJXJXJXJXJXJX[.JXJXJXJXJXJXJXJXJXJXJXJXJXJXJXJXJXJXJXJX  j.L f.J !.! 9.JXJXJXJXJXJXJXJXJXJXJXJXJXJXJXJXJXJXJXJXJXJX",
"JXJXJXJXJXJXJXJXR JXJXJXJXJXJXJXJXJXJXJXJXJXJXJXJXJXJXJXJXJX  D A z.b aXn JXJXJXJXJXJXJXJXJXJXJXJXJXJXJXJXJXJXJXJXJXJXJX",
"JXJXJXJXJXJXJX9XJXJXJXJXJXJXJXJXJXJXJXJXJXJXJXJXJXJXJXJXJXJX  cXE.K M sXfXJX8.{.JXJXJXJXJXJXJXJXJXJXJXJXJXJXJXJXJXJXJXJX",
"JXJXJXJXJXJXJXJXJXJXJXJXJXJXJXJXJXJXJXJXJXJXJXJXJXJXJXJXJXJX  BXDX5 U /.JXJXJX~ JXJXJXJXJXJXJXJXJXJXJXJXJXJXJXJXJXJXJXJX",
"JXJXJXJXJXXXJXJXJXJXJXJXJXJXJXJXJXJXJXJXJXJXJXJXJXJXJXJXJXJX  HXGXg 8 @ # $ -.-.JXJXJXJXJXJXJXJXJXJXJXJXJXJXJXJXJXJXJXJX",
"JXJXJXJX8.JXJXJXJXJXJXJXJXJXJXJXJXJXJXJXJXJXJXJXJXJXJXJXJXJXJX7XCXCX:   F N.Z.Q.:.JXJXJXJXJXJXJXJXJXJXJXJXJXJXJXJXJXJXJX",
"JXJXJX) JXJXJXJXJXJXJXJXJXJXJXJXJXJXJXJXJXJXJXJXJXJXJXJXJXJXJXJXJXNX).I.I.*.$.2.C JXJXJXJXJXJXJXJXJXJXJXJXJXJXJXJXJXJXJX",
"JXJXJX] JXJXJXJXJXJXJXJXJXJXJXJXJXJXJXJXJXJXJXJXJXJXJXJXJXJXJXJXJXj G.G.B D.=.x e JXJXJXJXJXJXJXJXJXJXJXJXJXJXJXJXJXJXJX",
"JXJX}.JXJXJXJXJXJXJXJXJXJXJXJXJXJXJXJXJXJXJXJXJXJXJXJXJXJXJXJXJXJXJXQ.T.o.x Z.F.:.M JXJXJXJXJXJXJXJXJXJXJXJXJXJXJXJXJXJX",
"JXJXJXJXJXJXJXJXJXJXJXJXJXJXJXJXJXJXJXJXJXJXJXJXJXJXJXJXJXJXJXJXJXJXF T.M.v V Z.Q.L.u.JXJXJXJXJXJXJXJXJXJXJXJXJXJXJXJXJX",
"JXJX/ JXJXJXJXJXJXJXJXJXJXJXJXJXJXJXJXJXJXJXJXJXJXJXJXJXJXJXJXJXJXJXu Q.K.%.v V Z.Q.Q.u.JXJXJXJXJXJXJXJXJXJXJXJXJXJXJXJX",
"JXJXJXJXJXJXJXJXJXJXJXJXJXJXJXJXJXJXJXJXJXJXJXJXJXJXJXJXJXJXJXJXJXJXJXQ.Q.%.+.e >.Q.Q.S lXJXJXJXJXJXJXJXJXJXJXJXJXJXJXJX",
"JXJXJXJXJXJXJXJXJXJXJXJXJXJXJXJXJXJXJXJXJXJXJXJXJXJXJXJXJXJXJXJXJXJXJXQ.Q.%.+.e @.V.I.4 6XmXJXJXJXJXJXJXJXJXJXJXJXJXJXJX",
"JXJX9.JXJXJXJXJXJXJXJXJXJXJXJXJXJXJXJXJXJXJXJXJXJXJXJXJXJXJXJXJXJXJXJX;.2.+.+.o.e >.F k JXvX7XJXJXJXJXJXJXJXJXJXJXJXJXJX",
"JXJXJXJXJXJXJXJXJXJXJXJXJXJXJXJXJXJXJXJXJXJXJXJXJXJXJXJXJXJXJXJXJXJXJX< } e y i u v . O JXhXMXl.JXJXJXJXJXJXJXJXJXJXJXJX",
"JXJX` JXJXJXJXJXJXJXJXJXJXJXJXJXJXJXJXJXJXJXJXJXJXJXJXJXJXJXJXJXJXJXJXrXpX1 +.M.Y.u.  JX. g.v.n.JXJXJXJXJXJXJXJXJXJXJXJX",
"JXJXW JXJXJXJXJXJXJXJXJXJXJXJXJXJXJXJXJXJXJXJXJXJXJXJXJXJXJXJXJXJXJXm dXpXk.V D.Q.Q.4 JXx.`.`.`.  JXJXJXJXJXJXJXJXJXJXJX",
"JXJXJXJXJXJXJXJXJXJXJXJXJXJXJXJXJXJXJXJXJXJXJXJXJXJXJXJXJXJXJXJXJXJXqXpXpXOXa d.Q.Q.F.JXc.uXjXkX  JXJXJXJXJXJXJXJXJXJXJX",
"JXJXJXJXJXJXJXJXJXJXJXJXJXJXJXJXJXJXJXJXJXJXJXJXJXJXJXJXJXJXJXJXJXU h.&.| oXk.C K.Q.Q.;.+XgXnXAX  JXJXJXJXJXJXJXJXJXJXJX",
"JXJXJXJXJXJXJXJXJXJXJXJXJXJXJXJXJXJXJXJXJXJXJXJXJXJXJXJXJXJXJXJXJX6.3X>X;XT { : d.Q.Q.Q.@ @ @ $ JXJXJXJXJXJXJXJXJXJXJXJX",
"JXJXJXJXJXJXJXJXJXJXJXJXJXJXJXJXJXJXJXJXJXJXJXJXJXJXJXJXJXJXJXJX  1X3X:X'.a.w.- ,.L.Q.Q.4 JXJXJXJXJXJXJXJXJXJXJXJXJXJXJX",
"JXJXJXJXJXJXJXJXJXJXJXJXJXJXJXJXJXJXJXJXJXJXJXJXJXJXJXJXJXJXJXJX  5X,X;Xr.r.r.d  .B.Q.Q.C.JXJXJXJXJXJXJXJXJXJXJXJXJXJXJX",
"JXJXJXJXJXJXJXJXJXJXJXJXJXJXJXJXJXJXJXJXJXJXJXJXJXJXJXJXJXJXJXJX  5X:X;Xr.r.e.5.> 1.I.Q.Q.JXJXJXJXJXJXJXJXJXJXJXJXJXJXJX",
"JXJXJXJXJXJXJXJXJXJXJXJXJXJXJXJXJXJXJXJXJXJXJXJXJXJXJXJXJXJXJXJXJX^.,X;Xr.e.e.5.1 +.d.I.#.JXJXJXJXJXJXJXJXJXJXJXJXJXJXJX",
"JXJXJXJXJXJXJXJXJXJXJXJXJXJXJXJXJXJXJXJXJXJXJXJXJXJXJXJXJXJXJXJXJXY 2X:X%Xr.r.5.> @.X.x @XJXJXJXJXJXJXJXJXJXJXJXJXJXJXJX",
"JXJXJXJXJXJXJXJXJXJXJXJXJXJXJXJXJXJXJXJXJXJXJXJXJXJXJXJXJXJXJXJXJXJX5X<X:X%Xe.5.% y T $X:XI JXJXJXJXJXJXJXJXJXJXJXJXJXJX",
"JXJXJXJXJXJXJXJXJXJXJXJXJXJXJXJXJXJXJXJXJXJXJXJXJXJXJXJXJXJXJXJXJXJX~.^.,X:X;X#X'.'.&X7.7._.W.JXJXJXJXJXJXJXJXJXJXJXJXJX",
"JXJXJXJXJXJXJXJXJXJXJXJXJXJXJXJXJXJXJXJXJXJXJXJXJXJXJXJXJXJXJXJXJXJXJXJX; , s s s s 7 JXJXJXzX(.JXJXJXJXJXJXJXJXJXJXJXJX",
"JXJXJXJXJXJXJXJXJXJXJXJXJXJXJXJXJXJXJXJXJXJXJXJXJXJXJXJXJXJXJXJXJXJXJXJXiX6 JXJXJXJXJXJXJXJXtXFX  JXJXJXJXJXJXJXJXJXJXJX",
"JXJXJXJXJXJXJXJXJXJXJXJXJXJXJXJXJXJXJXJXJXJXJXJXJXJXJXJXJXJXJXJXJXJXn.wXbXH JXJXJXJXJXJXJXyXZXxXJXJXJXJXJXJXJXJXJXJXJXJX",
"JXJXJXJXJXJXJXJXJXJXJXJXJXJXJXJXJXJXJXJXJXJXJXJXJXJXJXJXJXJXJXJXJXJXeXeXeXeXJXJXJXJXJXJX  HXeXJXJXJXJXJXJXJXJXJXJXJXJXJX",
"JXJXJXJXJXJXJXJXJXJXJXJXJXJXJXJXJXJXJXJXJXJXJXJXJXJXJXJXJXJXJXJXJXJXJXJXJXJXJXJXJXJXJXJXJXJXJXJXJXJXJXJXJXJXJXJXJXJXJXJX",
"JXJXJXJXJXJXJXJXJXJXJXJXJXJXJXJXJXJXJXJXJXJXJXJXJXJXJXJXJXJXJXJXJXJXJXJXJXJXJXJXJXJXJXJXJXJXJXJXJXJXJXJXJXJXJXJXJXJXJXJX",
"JXJXJXJXJXJXJXJXJXJXJXJXJXJXJXJXJXJXJXJXJXJXJXJXJXJXJXJXJXJXJXJXJXJXJXJXJXJXJXJXJXJXJXJXJXJXJXJXJXJXJXJXJXJXJXJXJXJXJXJX",
"JXJXJXJXJXJXJXJXJXJXJXJXJXJXJXJXJXJXJXJXJXJXJXJXJXJXJXJXJXJXJXJXJXJXJXJXJXJXJXJXJXJXJXJXJXJXJXJXJXJXJXJXJXJXJXJXJXJXJXJX",
"JXJXJXJXJXJXJXJXJXJXJXJXJXJXJXJXJXJXJXJXJXJXJXJXJXJXJXJXJXJXJXJXJXJXJXJXJXJXJXJXJXJXJXJXJXJXJXJXJXJXJXJXJXJXJXJXJXJXJXJX"
};
