/* XPM */
static char *xpm_[] = {
/* columns rows colors chars-per-pixel */
"60 60 241 2 ",
"   c black",
".  c #010001",
"X  c #010101",
"o  c #030201",
"O  c #020102",
"+  c #040203",
"@  c #070503",
"#  c #060304",
"$  c #000704",
"%  c #070407",
"&  c #0A0302",
"*  c #080405",
"=  c #0A0507",
"-  c #0A0806",
";  c #050708",
":  c #03050D",
">  c #0A0509",
",  c #0D0708",
"<  c #0C070C",
"1  c #000A0A",
"2  c #000F09",
"3  c #0E080D",
"4  c #0A0D0F",
"5  c #11090B",
"6  c #14080A",
"7  c #170B0A",
"8  c #150B0E",
"9  c #160B0F",
"0  c #120D0D",
"q  c #190B0E",
"w  c #1C120F",
"e  c #030710",
"r  c #160513",
"t  c #110910",
"y  c #110A11",
"u  c #130A12",
"i  c #110D14",
"p  c #190E17",
"a  c #1A0E18",
"s  c #0A1217",
"d  c #0E1415",
"f  c #0F1518",
"g  c #0B1B1F",
"h  c #1F1713",
"j  c #1E1014",
"k  c #1F1814",
"l  c #101719",
"z  c #1D101B",
"x  c #101C1E",
"c  c #230D0D",
"v  c #2C090E",
"b  c #2B0F0D",
"n  c #2D100E",
"m  c #290712",
"M  c #261312",
"N  c #271312",
"B  c #221216",
"V  c #231217",
"C  c #251319",
"Z  c #21121F",
"A  c #2E151A",
"S  c #3F1714",
"D  c #301319",
"F  c #31131A",
"G  c #3E121B",
"H  c #38161D",
"J  c #3A181F",
"K  c #0A0F2A",
"L  c #09112A",
"P  c #09102B",
"I  c #09112B",
"U  c #0A112A",
"Y  c #0A112B",
"T  c #0B112C",
"R  c #0C122C",
"E  c #0C132D",
"W  c #0D132F",
"Q  c #151933",
"!  c #121A34",
"~  c #141934",
"^  c #161A36",
"/  c #181C37",
"(  c #191D38",
")  c #1D1F3A",
"_  c #3D0A22",
"`  c #211220",
"'  c #231422",
"]  c #261524",
"[  c #291721",
"{  c #281623",
"}  c #281626",
"|  c #291727",
" . c #2A1727",
".. c #2B1822",
"X. c #2C1828",
"o. c #2E1929",
"O. c #2F1A29",
"+. c #331B22",
"@. c #351C24",
"#. c #381E26",
"$. c #321B28",
"%. c #351D2B",
"&. c #331C2C",
"*. c #3A1F2B",
"=. c #381F2E",
"-. c #380F30",
";. c #003B23",
":. c #192D37",
">. c #1E203C",
",. c #1A2F3B",
"<. c #073C3B",
"1. c #18323D",
"2. c #1B323E",
"3. c #3E2D27",
"4. c #39232A",
"5. c #3D2028",
"6. c #20223F",
"7. c #21223F",
"8. c #3E2231",
"9. c #4B1019",
"0. c #4C101A",
"q. c #57121D",
"w. c #572313",
"e. c #401A22",
"r. c #49123D",
"t. c #582B25",
"y. c #5E302B",
"u. c #412332",
"i. c #452533",
"p. c #472635",
"a. c #492731",
"s. c #482632",
"d. c #482736",
"f. c #4A2836",
"g. c #4B2837",
"h. c #4F2A35",
"j. c #4E2A38",
"k. c #4F2A38",
"l. c #502A35",
"z. c #512A36",
"x. c #512B39",
"c. c #532C38",
"v. c #542D3A",
"b. c #552D3A",
"n. c #562D3A",
"m. c #582E3B",
"M. c #592F3C",
"N. c #4E3632",
"B. c #4F3C32",
"V. c #4E3D37",
"C. c #5B303D",
"Z. c #642522",
"A. c #7D3725",
"S. c #00683D",
"D. c #5A4539",
"F. c #6F4D2F",
"G. c #78412C",
"H. c #133B43",
"J. c #123D44",
"K. c #232440",
"L. c #252542",
"P. c #242743",
"I. c #262643",
"U. c #272743",
"Y. c #272744",
"T. c #23324C",
"R. c #333451",
"E. c #5A174C",
"W. c #75174D",
"Q. c #79174D",
"!. c #423E43",
"~. c #793941",
"^. c #044F4E",
"/. c #09494A",
"(. c #084B4B",
"). c #00504C",
"_. c #005652",
"`. c #005B51",
"'. c #005D50",
"]. c #006E41",
"[. c #00624F",
"{. c #00684E",
"}. c #007445",
"|. c #007646",
" X c #007E4B",
".X c #4E4A4E",
"XX c #685042",
"oX c #6F5546",
"OX c #735848",
"+X c #5E5E62",
"@X c #5B5F6E",
"#X c #746965",
"$X c #8A1D2E",
"%X c #8F332E",
"&X c #90352F",
"*X c #85423D",
"=X c #83174E",
"-X c #8C174F",
";X c #8F184E",
":X c #8E1B52",
">X c #A61F4A",
",X c #932147",
"<X c #A62F44",
"1X c #C12941",
"2X c #C92B44",
"3X c #DF2A68",
"4X c #9F4F49",
"5X c #A34D57",
"6X c #B16D4E",
"7X c #9B7662",
"8X c #C7635B",
"9X c #D16557",
"0X c #CE6E64",
"qX c #D26861",
"wX c #D58462",
"eX c #C3957B",
"rX c #FAA76B",
"tX c #FFB06D",
"yX c #606680",
"uX c #616781",
"iX c #69708A",
"pX c #6A708A",
"aX c #7C7C81",
"sX c #737994",
"dX c #8C8C91",
"fX c #8C90AC",
"gX c #8E93AE",
"hX c #8E95B0",
"jX c #8F95B0",
"kX c #8F96B0",
"lX c #949AB6",
"zX c #DEA388",
"xX c #D8A588",
"cX c #DFAA8C",
"vX c #E4AE90",
"bX c #FEC2A0",
"nX c #FFC3A1",
"mX c #A3A9C3",
"MX c #A3A9C4",
"NX c #E7D9D7",
"BX c None",
/* pixels */
"BXBXBXBXBXBXBXBXBXBXBXBXBXBXBXBXBXBXBXBXBXBXBXBXBXBXBXBXBXBXBXBXBXBXBXBXBXBXBXBXBXBXBXBXBXBXBXBXBXBXBXBXBXBXBXBXBXBXBXBX",
"BXBXBXBXBXBXBXBXBXBXBXBXBXBXBXBXBXBXBXBXBXBXBXBXBXBXBXBXBXBXBXBXBXBXBXBXBXBXBXBXBXBXBXBXBXBXBXBXBXBXBXBXBXBXBXBXBXBXBXBX",
"BXBXBXBXBXBXBXBXBXBXBXBXBXBXBXBXBXBXBXBXBXBXBXBXBXBXBXBXBXBXBXBXBXBXBXBXBXBXBXBXBXBXBXBXBXBXBXBXBXBXBXBXBXBXBXBXBXBXBXBX",
"BXBXBXBXBXBXBXBXBXBXBXBXBXBXBXBXBXBXBXBXBXBXBXBXBXBXBXBXBXBXBXBXBXBXBXBXBXBXBXBXBXBXBXBXBXBXBXBXBXBXBXBXBXBXBXBXBXBXBXBX",
"BXBXBXBXBXBXBXBXBXBXBXBXBXBXBXBXBXBXBXBXBXBXBXBXBXBXBXBXBXBXBXBXBXBXBXBXBXBXBXBXBXBXBXBXBXBXBXBXBXBXBXBXBXBXBXBXBXBXBXBX",
"BXBXBXBXBXBXBXBXBXBXBXBXBXBXBXBXBXBXBXBXBXBXBXBXBXBXBXBXBXBXBXBXBXBXBXBXBXBXBXBXBXBXBXBXBXBXBXBXBXBXBXBXBXBXBXBXBXBXBXBX",
"BXBXBXBXBXBXBXBXBXBXBXBXBXBXBXBXBXBXBXBXBXBXBXBXBXBXBXBXBXBXBXBXBXBXBXBXBXBXBXBXBXBXBXBXBXBXBXBXBXBXBXBXBXBXBXBXBXBXBXBX",
"BXBXBXBXBXBXBXBXBXBXBXBXBXBXBXBXBXBXBXBXBXBXBXBXBXBXBXBXBXBXBXBXBXBXBXBXBXBXBXBXBXBXBXBXBXBXBXBXBXBXBXBXBXBXBXBXBXBXBXBX",
"BXBXBXBXBXBXBXBXBXBXBXBXBXBXBXBXBXBXBXBXBXBXBXBXBXBXBXBXBXBXBXBXBXBXBXBXBXBXBXBXBXBXBXBXBXBXBXBXBXBXBXBXBXBXBXBXBXBXBXBX",
"BXBXBXBXBXBXBXBXBXBXBXBXBXBXBXBXBXBXBXBXBXBXBXBXBXBXBXBXBXBXBXBXBXBXBXBXBXBXBXBXBXBXBXBXBXBXBXBXBXBXBXBXBXBXBXBXBXBXBXBX",
"BXBXBXBXBXBXBXBXBXBXBXBXBXBXBXBXBXBXBXBXBXBXBXBXBXBXBXBXBXBXBXBXBXBXBXBXBXBXBXBXBXBXBXBXBXBXBXBXBXBXBXBXBXBXBXBXBXBXBXBX",
"BXBXBXBXBXBXBXBXBXBXBXBXBXBXBXBXBXBXBXBXBXBXBXBXBXBXBXBXBXBXBXBXBXBXBXBXBXBXBXBXBXBXBXBXBXBXBXBXBXBXBXBXBXBXBXBXBXBXBXBX",
"BXBXBXBXBXBXBXBXBXBXBXBXBXBXBXBXBXBXBXBXBXBXBXBXBXBXBXBXBXBXBXBXBXBXBXBXBXBXBXBXBXBXBXBXBXBXBXBXBXBXBXBXBXBXBXBXBXBXBXBX",
"BXBXBXBXBXBXBXBXBXBXBXBXBXBXBXBXsXR BXT ! BXBXBXBXBXBXBXBXBXBXBXBXBXBXBXBXBXBXBXBXBXBXBXBXBXBXBXBXBXBXBXBXBXBXBXBXBXBXBX",
"BXBXBXBXBXBXBXBXBXBXBXBXBXBXBXBX>.BXBXBXR BXBXBXBXBXBXBXBXBXBXBXBXBXBXBXBXBXBXBXBXBXBXBXBXBXBXBXBXBXBXBXBXBXBXBXBXBXBXBX",
"BXBXBXBXBXBXBXBXBXBXBXBXBXBXjXU.BXBXBXBXBXBXBXL MXBXBXBXBXBXBXBXBXBXBXBXBXBXBXBXBXBXBXBXBXBXBXBXBXBXBXBXBXBXBXBXBXBXBXBX",
"BXBXBXBXBXBXBXBXBXBXBXBXBXBXT T BXBXBXBXBXBXBXBX( BXBXBXBXBXBXBXBXBXBXBXBXBXBXBXBXBXBXBXBXBXBXBXBXBXBXBXBXBXBXBXBXBXBXBX",
"BXBXBXBXBXBXBXBXBXBXBXBXBXBXBXBXBXBXBXBXBXBXBXBXBXBXK BXBXBXBXBXBXBXBXBXBXBXBXBXBXBXBXBXBXBXBXBXBXBXBXBXBXBXBXBXBXBXBXBX",
"BXBXBXBXBXBXBXBXBXBXBXBXBXBXBXR.BXBXBXBXBXBXBXBXBXBXBXBXBXBXBXBXBXBXBXBXBXBXBXBXBXBXBXBXBXBXBXBXBXBXBXBXBXBXBXBXBXBXBXBX",
"BXBXBXBXBXBXBXBXBXBXBXBXBXBXBXL BXBXBXBXBXBXBXBXBXBXBXU.BXBXiXBXBXBXBXBXBXBXBXBXBXBXBXBXBXBXBXBXBXBXBXBXBXBXBXBXBXBXBXBX",
"BXBXBXBXBXBXBXBXBXBXBXBXBXBXBXBXY.BXBXBXBXBXBXBXBXBXBXBXBXBX~ BXBXBX- BXBXBXBXBXBXBXBXBXBXBXBXBXBXBXBXBXBXBXBXBXBXBXBXBX",
"BXBXBXBXBXBXBXBXBXjXBXBXBXBXBXBXBXY.BXBXBXBXBXBXBXBXBXBXBXBXBXBXBXK.!.XX  H H H n BXBXBXBXBXBXBXBXBXBXBXBXBXBXBXBXBXBXBX",
"BXBXBXBXBXBXT BXBXY.jXBXBXBXBXBXBXBX/ BXBXBXBXBXBXBXBXBXBXBXBXBXBXBX: t.D D D Z.D S BXBXBXBXBXBXBXBXBXBXBXBXBXBXBXBXBXBX",
"BXBXBXBXBXBX) BXBXBXBXBXBXBXBXBXBXBXBXyXBXBXBXBXBXBXBXBXBXBXBXBXBX@XV.q 3., A e.n :XBXBXBXBXBXBXBXBXBXBXBXBXBXBXBXBXBXBX",
"BXBXBXBXBXBXBXBXBXBXBXBXBXBXBXBXBXBXBXR BXBXBXBXBXBXBXBXBXBXBXBXBXBXBX* 7XnXD.J c ,X3XBXBXBXBXBXBXBXBXBXBXBXBXBXBXBXBXBX",
"BXBXBXBXBXBX6.BXBXBXBXBXfXBXBXBXBXBXBXBXBXBXBXBXBXBXBXBXBXBXBXBXBXBXBXe #XxXNXk 7 <XBXT.BXBXBXBXBXBXBXBXBXBXBXBXBXBXBXBX",
"BXBXBXBXBXK BXBXBXBXBXBXU.BXBXBXBXBXBXBXBXL BXBXBXBXBXBXBXBXBXBXBXBXBX  nXnXnXk   BXBXBXBXBXBXBXBXBXBXBXBXBXBXBXBXBXBXBX",
"BXBXBXBXBXBXBXBXBXBXBXBXBXBXBXBXBXBXBXBXBXgXBXBXBXBXBXBXBXBXBXBXBXBX  z.OXnX0XBXBXBXBXBXBXBXBXBXBXBXBXBXBXBXBXBXBXBXBXBX",
"BXBXBXBXBXBXBXyXU.BXBXBXBXBXBXBXBXBXBXBXBXBXBXBXBXBXBXBXBXBXBXBXBX  &.C.z.N 8XBXBXBXBXBXBXBXBXBXBXBXBXBXBXBXBXBXBXBXBXBX",
"BXBXBXBXBXBXBXBXBXBXBXBXBXBXBXBXBXBXBXBXBX~ MXBXBXBXBXBXBXBXBXBXBXBX' u.N.vXaX4.8 BXBXBXBXBXBXBXBXBXBXBXBXBXBXBXBXBXBXBX",
"BXBXBXBXBXBXBXBXBXBXBXBXBXBXU.BXBXBXBXBXBXBXBXBXBXBXBXBXBXBXBXBXBXBXu t dX+XC 5.n.8 BXBXBXBXBXBXBXBXBXBXBXBXBXBXBXBXBXBX",
"BXBXBXBXBXBXBXBXBXBXBXBXBXBXBXK.BXBXBXBXBXU.lXBXBXBXBXBXBXBXBXBXBXBXBX+..Xj C.X.[ C.  BXBXBXBXBXBXBXBXBXBXBXBXBXBXBXBXBX",
"BXBXBXBXBXBXBXBXBXBXBXBXBXBXBXBX>.BXiXBXBXY.BXBXBXBXBXBXBXBXBXBXBXBXBX+.B C.C.C.< j.#.BXBXBXBXBXBXBXBXBXBXBXBXBXBXBXBXBX",
"BXBXBXBXBXBXBXBXBXBXBXBXBXBXBXBXBXBX~ BXBXBXBXBXBXBXBXBXBXBXBXBXBXBXBX* c.C.C.p.> p.n.  BXBXBXBXBXBXBXBXBXBXBXBXBXBXBXBX",
"BXBXBXBXBXBXBXBXBXBXBXBXBXBXBXBXBXBXBXBXBXBXBXBXBXBXBXBXBXBXBXBXBXBXBXV C.C.C.&.+ < +.@.BXBXBXBXBXBXBXBXBXBXBXBXBXBXBXBX",
"BXBXBXBXBXBXBXBXBXBXBXBXBXBXBXBXBXBXBXBXBXBXBXBXBXBXBXBXBXBXBXBXBXBX  &.x.m.f.a a ] j.a.BXBXBXBXBXBXBXBXBXBXBXBXBXBXBXBX",
"BXBXBXBXBXBXBXBXBXBXBXBXBXBXBXBXBXBXBXBXBXBXBXBXBXBXBXBXBXBXBXBXBXBX  9.G .. . .t 4.C.a.BXBXBXBXBXBXBXBXBXBXBXBXBXBXBXBX",
"BXBXBXBXBXBXBXBXBXBXBXBXBXBXBXBXBXBXBXBXBXBXBXBXBXBXBXBXBXBXBXBXBXBXv m r   >   eXoX$.a.BXBXBXBXBXBXBXBXBXBXBXBXBXBXBXBX",
"BXBXBXBXBXBXBXBXBXBXBXBXBXBXBXBXBXBXBXBXBXBXBXBXBXBXBXBXBXBXBXBXBXBX$X>XE.% ] 0 nX5 3   BXBXBXBXBXBXBXBXBXBXBXBXBXBXBXBX",
"BXBXBXBXBXBXBXBXBXBXBXBXBXBXBXBXBXBXBXBXBXBXBXBXBXBXBXBXBXBXBXBXBX  1X;XW.> ] cXnX5   BXBXBXBXBXBXBXBXBXBXBXBXBXBXBXBXBX",
"BXBXBXBXBXBXBXBXBXBXBXBXBXBXBXBXBXBXBXBXBXBXBXBXBXBXBXBXBXBXBXBXBX  2X-XQ.-.o @   7   BXBXBXBXBXBXBXBXBXBXBXBXBXBXBXBXBX",
"BXBXBXBXBXBXBXBXBXBXBXBXBXBXBXBXBXBXBXBXBXBXBXBXBXBXBXBXBXBXBXBXBX9.q._ =Xr.y.F.F.F.  BXBXBXBXBXBXBXBXBXBXBXBXBXBXBXBXBX",
"BXBXBXBXBXBXBXBXBXBXBXBXBXBXBXBXBXBXBXBXBXBXBXBXBXBXBXBXBXBXBXBXBX}.'.H.s % 5XqXrXtX  BXBXBXBXBXBXBXBXBXBXBXBXBXBXBXBXBX",
"BXBXBXBXBXBXBXBXBXBXBXBXBXBXBXBXBXBXBXBXBXBXBXBXBXBXBXBXBXBXBXBX$  X^.2.2.d ~.~.4X6X* BXBXBXBXBXBXBXBXBXBXBXBXBXBXBXBXBX",
"BXBXBXBXBXBXBXBXBXBXBXBXBXBXBXBXBXBXBXBXBXBXBXBXBXBXBXBXBXBXBXBX X`.J.2.2.f ]  .X.=.d.a.BXBXBXBXBXBXBXBXBXBXBXBXBXBXBXBX",
"BXBXBXBXBXBXBXBXBXBXBXBXBXBXBXBXBXBXBXBXBXBXBXBXBXBXBXBXBXBXBXBX X`.J.2.2.:.  u.C.C.C.M.  BXBXBXBXBXBXBXBXBXBXBXBXBXBXBX",
"BXBXBXBXBXBXBXBXBXBXBXBXBXBXBXBXBXBXBXBXBXBXBXBXBXBXBXBXBXBXBXBX X`.J.2.2.,.  X.n.C.C.C.  BXBXBXBXBXBXBXBXBXBXBXBXBXBXBX",
"BXBXBXBXBXBXBXBXBXBXBXBXBXBXBXBXBXBXBXBXBXBXBXBXBXBXBXBXBXBXBXBX;. X_.2.2.2.4 ] d.C.C.z.BXBXBXBXBXBXBXBXBXBXBXBXBXBXBXBX",
"BXBXBXBXBXBXBXBXBXBXBXBXBXBXBXBXBXBXBXBXBXBXBXBXBXBXBXBXBXBXBXBX$  X[./.2.2.l ' &.f.a.g   BXBXBXBXBXBXBXBXBXBXBXBXBXBXBX",
"BXBXBXBXBXBXBXBXBXBXBXBXBXBXBXBXBXBXBXBXBXBXBXBXBXBXBXBXBXBXBXBXBX]. X_.(.2.l z Z i U '.).BXBXBXBXBXBXBXBXBXBXBXBXBXBXBX",
"BXBXBXBXBXBXBXBXBXBXBXBXBXBXBXBXBXBXBXBXBXBXBXBXBXBXBXBXBXBXBXBXBXS.}.{._.`.2.g x <.).).w k BXBXBXBXBXBXBXBXBXBXBXBXBXBX",
"BXBXBXBXBXBXBXBXBXBXBXBXBXBXBXBXBXBXBXBXBXBXBXBXBXBXBXBXBXBXBXBXBXBXBX2 1 1 1 1 1 1 BXBXN zXBXBXBXBXBXBXBXBXBXBXBXBXBXBX",
"BXBXBXBXBXBXBXBXBXBXBXBXBXBXBXBXBXBXBXBXBXBXBXBXBXBXBXBXBXBXBXBXBXBXBXw.A.BXBXBXBXBXBXBXBXcXBXBXBXBXBXBXBXBXBXBXBXBXBXBX",
"BXBXBXBXBXBXBXBXBXBXBXBXBXBXBXBXBXBXBXBXBXBXBXBXBXBXBXBXBXBXBXBXBXBXG.9X*XBXBXBXBXBXBXBX& wXB.BXBXBXBXBXBXBXBXBXBXBXBXBX",
"BXBXBXBXBXBXBXBXBXBXBXBXBXBXBXBXBXBXBXBXBXBXBXBXBXBXBXBXBXBXBXBXBX&X&X&X&XBXBXBXBXBXBXBX&X&X&XBXBXBXBXBXBXBXBXBXBXBXBXBX",
"BXBXBXBXBXBXBXBXBXBXBXBXBXBXBXBXBXBXBXBXBXBXBXBXBXBXBXBXBXBXBXBXBXBXBXBXBXBXBXBXBXBXBXBXBXBXBXBXBXBXBXBXBXBXBXBXBXBXBXBX",
"BXBXBXBXBXBXBXBXBXBXBXBXBXBXBXBXBXBXBXBXBXBXBXBXBXBXBXBXBXBXBXBXBXBXBXBXBXBXBXBXBXBXBXBXBXBXBXBXBXBXBXBXBXBXBXBXBXBXBXBX",
"BXBXBXBXBXBXBXBXBXBXBXBXBXBXBXBXBXBXBXBXBXBXBXBXBXBXBXBXBXBXBXBXBXBXBXBXBXBXBXBXBXBXBXBXBXBXBXBXBXBXBXBXBXBXBXBXBXBXBXBX",
"BXBXBXBXBXBXBXBXBXBXBXBXBXBXBXBXBXBXBXBXBXBXBXBXBXBXBXBXBXBXBXBXBXBXBXBXBXBXBXBXBXBXBXBXBXBXBXBXBXBXBXBXBXBXBXBXBXBXBXBX",
"BXBXBXBXBXBXBXBXBXBXBXBXBXBXBXBXBXBXBXBXBXBXBXBXBXBXBXBXBXBXBXBXBXBXBXBXBXBXBXBXBXBXBXBXBXBXBXBXBXBXBXBXBXBXBXBXBXBXBXBX"
};
