/* XPM */
static char *xpm_[] = {
/* columns rows colors chars-per-pixel */
"60 60 245 2 ",
"   c black",
".  c #010001",
"X  c #010101",
"o  c #030201",
"O  c #020102",
"+  c #020303",
"@  c #040203",
"#  c #070503",
"$  c #060304",
"%  c #000704",
"&  c #070406",
"*  c #070407",
"=  c #0A0302",
"-  c #080405",
";  c #090506",
":  c #0A0507",
">  c #050708",
",  c #0A0509",
"<  c #0D0708",
"1  c #0C070C",
"2  c #000A0A",
"3  c #000F09",
"4  c #0E080D",
"5  c #11090B",
"6  c #14080A",
"7  c #170B0A",
"8  c #150B0E",
"9  c #160B0F",
"0  c #120D0D",
"q  c #190B0E",
"w  c #1C120F",
"e  c #030610",
"r  c #160513",
"t  c #110910",
"y  c #100A10",
"u  c #110A11",
"i  c #130A12",
"p  c #170D16",
"a  c #190E17",
"s  c #190E18",
"d  c #0D1113",
"f  c #0A1217",
"g  c #0E1415",
"h  c #0B1B1F",
"j  c #1F1713",
"k  c #1E1014",
"l  c #1F1814",
"z  c #101719",
"x  c #101C1E",
"c  c #230D0D",
"v  c #2C090E",
"b  c #2B0F0D",
"n  c #2D100E",
"m  c #290712",
"M  c #380F19",
"N  c #241210",
"B  c #261312",
"V  c #271312",
"C  c #221216",
"Z  c #231217",
"A  c #251319",
"S  c #21121F",
"D  c #2E151A",
"F  c #28151E",
"G  c #3C1613",
"H  c #3F1714",
"J  c #301319",
"K  c #31131A",
"L  c #38161D",
"P  c #3A181F",
"I  c #0A0F2A",
"U  c #09102A",
"Y  c #09112B",
"T  c #0A102A",
"R  c #0A102B",
"E  c #0D122C",
"W  c #0C132D",
"Q  c #11152E",
"!  c #111530",
"~  c #111631",
"^  c #151933",
"/  c #131A34",
"(  c #181B36",
")  c #181F39",
"_  c #221320",
"`  c #231422",
"'  c #251423",
"]  c #261524",
"[  c #241624",
"{  c #291721",
"}  c #281623",
"|  c #291724",
" . c #281626",
".. c #291727",
"X. c #2B1822",
"o. c #2B1828",
"O. c #2C1828",
"+. c #2E1A29",
"@. c #2F1A29",
"#. c #2E1C2C",
"$. c #331B22",
"%. c #351C24",
"&. c #381E26",
"*. c #321B29",
"=. c #301A2A",
"-. c #311B2B",
";. c #331C2C",
":. c #380F30",
">. c #142026",
",. c #112028",
"<. c #003B23",
"1. c #192D37",
"2. c #19203A",
"3. c #1F213D",
"4. c #073C3B",
"5. c #1A303B",
"6. c #1A303C",
"7. c #18323D",
"8. c #1B323E",
"9. c #3E2D27",
"0. c #39232A",
"q. c #3D2028",
"w. c #212437",
"e. c #20223E",
"r. c #3B2030",
"t. c #4B1019",
"y. c #4C101A",
"u. c #57121D",
"i. c #572313",
"p. c #401A22",
"a. c #49123D",
"s. c #69113B",
"d. c #44242F",
"f. c #5E302B",
"g. c #452533",
"h. c #472635",
"j. c #492731",
"k. c #4A2836",
"l. c #4B2837",
"z. c #4F2A35",
"x. c #4E2A38",
"c. c #502A35",
"v. c #512A36",
"b. c #512B39",
"n. c #532C38",
"m. c #522C39",
"M. c #532C3A",
"N. c #542D3A",
"B. c #552D3A",
"V. c #562D3A",
"C. c #582E3B",
"Z. c #582F3C",
"A. c #592F3C",
"S. c #4E3632",
"D. c #4F3C32",
"F. c #5B303D",
"G. c #642522",
"H. c #7D3725",
"J. c #5A4539",
"K. c #6F4D2F",
"L. c #78412C",
"P. c #123D44",
"I. c #232542",
"U. c #242542",
"Y. c #252542",
"T. c #262642",
"R. c #262643",
"E. c #272743",
"W. c #242B45",
"Q. c #23324C",
"!. c #2C334D",
"~. c #303650",
"^. c #3E3F5B",
"/. c #5A174C",
"(. c #79174D",
"). c #793941",
"_. c #044F4E",
"`. c #09494A",
"'. c #084B4B",
"]. c #00504C",
"[. c #005652",
"{. c #005B51",
"}. c #006E41",
"|. c #00624F",
" X c #00684E",
".X c #007445",
"XX c #007646",
"oX c #00754C",
"OX c #007E4B",
"+X c #4E4A4E",
"@X c #6F5546",
"#X c #735848",
"$X c #434661",
"%X c #424863",
"&X c #434A63",
"*X c #434965",
"=X c #4A516B",
"-X c #5E5E62",
";X c #565774",
":X c #746965",
">X c #8A1D2E",
",X c #8F332E",
"<X c #90352F",
"1X c #85423D",
"2X c #8C174F",
"3X c #8F184E",
"4X c #8E1B52",
"5X c #A61F4A",
"6X c #932147",
"7X c #A62F44",
"8X c #C12941",
"9X c #C92B44",
"0X c #DF2A68",
"qX c #9F4F49",
"wX c #A34D57",
"eX c #8B6A58",
"rX c #B16D4E",
"tX c #9B7662",
"yX c #C7635B",
"uX c #D16557",
"iX c #CE6E64",
"pX c #D26861",
"aX c #D58462",
"sX c #C3957B",
"dX c #FAA76B",
"fX c #FFB06D",
"gX c #606780",
"hX c #6C708C",
"jX c #7C7C81",
"kX c #747794",
"lX c #8C8C91",
"zX c #9399B4",
"xX c #969CB7",
"cX c #999FBB",
"vX c #9DA3BE",
"bX c #DEA388",
"nX c #D8A588",
"mX c #DFAA8C",
"MX c #E4AE90",
"NX c #FEC2A0",
"BX c #FFC3A1",
"VX c #A3A8C4",
"CX c #A2A9C4",
"ZX c #E7D9D7",
"AX c None",
/* pixels */
"AXAXAXAXAXAXAXAXAXAXAXAXAXAXAXAXAXAXAXAXAXAXAXAXAXAXAXAXAXAXAXAXAXAXAXAXAXAXAXAXAXAXAXAXAXAXAXAXAXAXAXAXAXAXAXAXAXAXAXAX",
"AXAXAXAXAXAXAXAXAXAXAXAXAXAXAXAXAXAXAXAXAXAXAXAXAXAXAXAXAXAXAXAXAXAXAXAXAXAXAXAXAXAXAXAXAXAXAXAXAXAXAXAXAXAXAXAXAXAXAXAX",
"AXAXAXAXAXAXAXAXAXAXAXAXAXAXAXAXAXAXAXAXAXAXAXAXAXAXAXAXAXAXAXAXAXAXAXAXAXAXAXAXAXAXAXAXAXAXAXAXAXAXAXAXAXAXAXAXAXAXAXAX",
"AXAXAXAXAXAXAXAXAXAXAXAXAXAXAXAXAXAXAXAXAXAXAXAXAXAXAXAXAXAXAXAXAXAXAXAXAXAXAXAXAXAXAXAXAXAXAXAXAXAXAXAXAXAXAXAXAXAXAXAX",
"AXAXAXAXAXAXAXAXAXAXAXAXAXAXAXAXAXAXAXAXAXAXAXAXAXAXAXAXAXAXAXAXAXAXAXAXAXAXAXAXAXAXAXAXAXAXAXAXAXAXAXAXAXAXAXAXAXAXAXAX",
"AXAXAXAXAXAXAXAXAXAXAXAXAXAXAXAXAXAXAXAXAXAXAXAXAXAXAXAXAXAXAXAXAXAXAXAXAXAXAXAXAXAXAXAXAXAXAXAXAXAXAXAXAXAXAXAXAXAXAXAX",
"AXAXAXAXAXAXAXAXAXAXAXAXAXAXAXAXAXAXAXAXAXAXAXAXAXAXAXAXAXAXAXAXAXAXAXAXAXAXAXAXAXAXAXAXAXAXAXAXAXAXAXAXAXAXAXAXAXAXAXAX",
"AXAXAXAXAXAXAXAXAXAXAXAXAXAXAXAXAXAXAXAXAXAXAXAXAXAXAXAXAXAXAXAXAXAXAXAXAXAXAXAXAXAXAXAXAXAXAXAXAXAXAXAXAXAXAXAXAXAXAXAX",
"AXAXAXAXAXAXAXAXAXAXAXAXAXAXAXAXAXAXAXAXAXAXAXAXAXAXAXAXAXAXAXAXAXAXAXAXAXAXAXAXAXAXAXAXAXAXAXAXAXAXAXAXAXAXAXAXAXAXAXAX",
"AXAXAXAXAXAXAXAXAXAXAXAXAXAXAXAXAXAXAXAXAXAXAXAXAXAXAXAXAXAXAXAXAXAXAXAXAXAXAXAXAXAXAXAXAXAXAXAXAXAXAXAXAXAXAXAXAXAXAXAX",
"AXAXAXAXAXAXAXAXAXAXAXAXAXAXAXAXAXAXAXAXAXAXAXAXAXAXAXAXAXAXAXAXAXAXAXAXAXAXAXAXAXAXAXAXAXAXAXAXAXAXAXAXAXAXAXAXAXAXAXAX",
"AXAXAXAXAXAXAXAXAXAXAXAXAXAXAXAXAXAXAXAXAXAXAXAXAXAXAXAXAXAXAXAXAXAXAXAXAXAXAXAXAXAXAXAXAXAXAXAXAXAXAXAXAXAXAXAXAXAXAXAX",
"AXAXAXAXAXAXAXAXAXAXAXAXAXAXAXAXAXAXAXAXAXAXAXAXAXAXAXAXAXAXAXAXAXAXAXAXAXAXAXAXAXAXAXAXAXAXAXAXAXAXAXAXAXAXAXAXAXAXAXAX",
"AXAXAXAXAXAXAXAXAXAXAXAXAXAXAXAXAXAXAXAXAXAXAXAXAXAXAXAXAXAXAXAXAXAXAXAXAXAXAXAXAXAXAXAXAXAXAXAXAXAXAXAXAXAXAXAXAXAXAXAX",
"AXAXAXAXAXAXAXAXAXAXAXAXAXAXAXAXAXAXAXAXAXAXAXAXAXAXAXAXAXAXAXAXAXAXAXAXAXAXAXAXAXAXAXAXAXAXAXAXAXAXAXAXAXAXAXAXAXAXAXAX",
"AXAXAXAXAXAXAXAXAXAXAXAXAXAXAXAXAXAXAX2.AXAXAXAXAXAXAXAXAXAXAXAXAXAXAXAXAXAXAXAXAXAXAXAXAXAXAXAXAXAXAXAXAXAXAXAXAXAXAXAX",
"AXAXAXAXAXAXAXAXAXAXAXAXAXAXAXAXAXAXAXAXR.AXAXAXAXAXVXR.AXAX*XAXAXAXAXAXAXAXAXAXAXAXAXAXAXAXAXAXAXAXAXAXAXAXAXAXAXAXAXAX",
"AXAXAXAXAXAXAXAXAXAXAXAXAXAXAXAXAXAXAXAXvXE AXAXAXAXR.AXAXAX;X( AXAXAXAXAXAXAXAXAXAXAXAXAXAXAXAXAXAXAXAXAXAXAXAXAXAXAXAX",
"AXAXAXAXAXAXAXAXAXAXAXAXAXAXAXAXAXAXAXAXR I.AXAX&XkXAXAXAXAXAXzX%XAXAXAXAXAXAXAXAXAXAXAXAXAXAXAXAXAXAXAXAXAXAXAXAXAXAXAX",
"AXAXAXAXAXAXAXAXAXAXAXAXAXAXAXAXAXAXAXAXAXR.AXAXAXAXAXAXAXAXAXW.AXAXAXAXAXAXAXAXAXAXAXAXAXAXAXAXAXAXAXAXAXAXAXAXAXAXAXAX",
"AXAXAXAXAXAXAXAXAXAXAXAXAXAXAXAXAXAXAXAXAXAXAXAXR R AXAXAXAXAXAXR./   AXAXAXAXAXAXAXAXAXAXAXAXAXAXAXAXAXAXAXAXAXAXAXAXAX",
"AXAXAXAXAXAXAXAXAXAXAXAXAXAXAXAXAXAXAXAXAXAXAXAXAX^.AXAXAXAXAXAXAXAXQ eX  L L L b AXAXAXAXAXAXAXAXAXAXAXAXAXAXAXAXAXAXAX",
"AXAXAXAXAXAXAXAXAXAXAXAXAXAXAXAXAXAXAXAXAX~ ~.AXAXAXe.AXAXAXAXAXAX$XxXG J J J G.J t.AXAXAXAXAXAXAXAXAXAXAXAXAXAXAXAXAXAX",
"AXAXAXAXAXAXAXAXAXAXAXAXAXAXAXAXAXAXAXAXAXAX~ AXAXAXAX=XR AXAXAXAXAXw.q 9.< D p.n 4XAXAXAXAXAXAXAXAXAXAXAXAXAXAXAXAXAXAX",
"AXAXAXAXAXAXAXAXAXAXAXAXAXAXAXAXAXAXAXAXAXAXAXAXAXAXAXAXe.AXAXAXAX^ R - tXBXJ.P c 6X0XAXAXAXAXAXAXAXAXAXAXAXAXAXAXAXAXAX",
"AXAXAXAXAXAXAXAXAXAXAXAXAXAXAXAXAXAXAXAXAXAXR.AXAXAXAXAXAXAXAXAXAXAXAX  :XnXZXl 7 7XAXQ.AXAXAXAXAXAXAXAXAXAXAXAXAXAXAXAX",
"AXAXAXAXAXAXAXAXAXAXAXAXAXAXAXAXAXAXAXAXAXAXvXI.AXAXAXAXR.AXAXAXAXW.R   BXBXBXj   AXAXAXAXAXAXAXAXAXAXAXAXAXAXAXAXAXAXAX",
"AXAXAXAXAXAXAXAXAXAXAXAXAXAXAXAXAXAXAXAXAXAXAXAXAXAXAXCXE AXAXAXAXAXe z.#XBXiXAXAXAXAXAXAXAXAXAXAXAXAXAXAXAXAXAXAXAXAXAX",
"AXAXAXAXAXAXAXAXAXAXAXAXAXAXAXAXAXAXAXAXAXAXAX!.AXAXAXAXAXAXAXAXAXAX#.F.v.V yXAXAXAXAXAXAXAXAXAXAXAXAXAXAXAXAXAXAXAXAXAX",
"AXAXAXAXAXAXAXAXAXAXAXAXAXAXAXAXAXAXAXAXAXAXAXAXgXY hXAXAXAXAXAXAX2.] m.S.MXjX0.8 AXAXAXAXAXAXAXAXAXAXAXAXAXAXAXAXAXAXAX",
"AXAXAXAXAXAXAXAXAXAXAXAXAXAXAXAXAXAXAXAXAXAXAXAXAXR AXAXAXAXAXAXAXAXi t lX-XA q.V.8 AXAXAXAXAXAXAXAXAXAXAXAXAXAXAXAXAXAX",
"AXAXAXAXAXAXAXAXAXAXAXAXAXAXAXAXAXAXAXAXAXAXAXAXAXAXAXAXAXAXAXAXAXAXAX- +Xk F.+.{ Z.  AXAXAXAXAXAXAXAXAXAXAXAXAXAXAXAXAX",
"AXAXAXAXAXAXAXAXAXAXAXAXAXAXAXAXAXAXAXAXAXAXAXAXAXAXAXAXAXAXAXAXAXAXAX$.Z F.F.F., x.&.AXAXAXAXAXAXAXAXAXAXAXAXAXAXAXAXAX",
"AXAXAXAXAXAXAXAXAXAXAXAXAXAXAXAXAXAXAXAXAXAXAXAXAXAXAXAXAXAXAXAXAXAXAX$ m.F.F.F.1 +.V.  AXAXAXAXAXAXAXAXAXAXAXAXAXAXAXAX",
"AXAXAXAXAXAXAXAXAXAXAXAXAXAXAXAXAXAXAXAXAXAXAXAXAXAXAXAXAXAXAXAXAXAXAXZ F.F.Z.;.@ - F %.AXAXAXAXAXAXAXAXAXAXAXAXAXAXAXAX",
"AXAXAXAXAXAXAXAXAXAXAXAXAXAXAXAXAXAXAXAXAXAXAXAXAXAXAXAXAXAXAXAXAXAX  +.b.F.l.s s ] m.j.AXAXAXAXAXAXAXAXAXAXAXAXAXAXAXAX",
"AXAXAXAXAXAXAXAXAXAXAXAXAXAXAXAXAXAXAXAXAXAXAXAXAXAXAXAXAXAXAXAXAXAX  t.M X.o...t _ g.j.AXAXAXAXAXAXAXAXAXAXAXAXAXAXAXAX",
"AXAXAXAXAXAXAXAXAXAXAXAXAXAXAXAXAXAXAXAXAXAXAXAXAXAXAXAXAXAXAXAXAXAXv m r   ,   sX@X{ g.AXAXAXAXAXAXAXAXAXAXAXAXAXAXAXAX",
"AXAXAXAXAXAXAXAXAXAXAXAXAXAXAXAXAXAXAXAXAXAXAXAXAXAXAXAXAXAXAXAXAXAX>X5X/.& ] 0 BX5 4   AXAXAXAXAXAXAXAXAXAXAXAXAXAXAXAX",
"AXAXAXAXAXAXAXAXAXAXAXAXAXAXAXAXAXAXAXAXAXAXAXAXAXAXAXAXAXAXAXAXAX  8X3X/., ] mXBX5   AXAXAXAXAXAXAXAXAXAXAXAXAXAXAXAXAX",
"AXAXAXAXAXAXAXAXAXAXAXAXAXAXAXAXAXAXAXAXAXAXAXAXAXAXAXAXAXAXAXAXAX  9X2X(.:.@ - N 7   AXAXAXAXAXAXAXAXAXAXAXAXAXAXAXAXAX",
"AXAXAXAXAXAXAXAXAXAXAXAXAXAXAXAXAXAXAXAXAXAXAXAXAXAXAXAXAXAXAXAXAXt.u.s.3Xa.f.K.K.K.  AXAXAXAXAXAXAXAXAXAXAXAXAXAXAXAXAX",
"AXAXAXAXAXAXAXAXAXAXAXAXAXAXAXAXAXAXAXAXAXAXAXAXAXAXAXAXAXAXAXAXAX.X[.,.f > wXpXdXfX  AXAXAXAXAXAXAXAXAXAXAXAXAXAXAXAXAX",
"AXAXAXAXAXAXAXAXAXAXAXAXAXAXAXAXAXAXAXAXAXAXAXAXAXAXAXAXAXAXAXAX% oX_.8.8.g ).).qXrX- AXAXAXAXAXAXAXAXAXAXAXAXAXAXAXAXAX",
"AXAXAXAXAXAXAXAXAXAXAXAXAXAXAXAXAXAXAXAXAXAXAXAXAXAXAXAXAXAXAXAXOX{.P.8.8.1.  ....+.l.j.AXAXAXAXAXAXAXAXAXAXAXAXAXAXAXAX",
"AXAXAXAXAXAXAXAXAXAXAXAXAXAXAXAXAXAXAXAXAXAXAXAXAXAXAXAXAXAXAXAXOX{.P.8.8.1.  o.b.F.F.C.  AXAXAXAXAXAXAXAXAXAXAXAXAXAXAX",
"AXAXAXAXAXAXAXAXAXAXAXAXAXAXAXAXAXAXAXAXAXAXAXAXAXAXAXAXAXAXAXAXOX{.P.8.8.5.d ` r.F.F.F.  AXAXAXAXAXAXAXAXAXAXAXAXAXAXAX",
"AXAXAXAXAXAXAXAXAXAXAXAXAXAXAXAXAXAXAXAXAXAXAXAXAXAXAXAXAXAXAXAX<.OX[.8.8.8.z ] =.h.F.v.AXAXAXAXAXAXAXAXAXAXAXAXAXAXAXAX",
"AXAXAXAXAXAXAXAXAXAXAXAXAXAXAXAXAXAXAXAXAXAXAXAXAXAXAXAXAXAXAXAX% OX|.'.8.8.>.a ..-.-.h   AXAXAXAXAXAXAXAXAXAXAXAXAXAXAX",
"AXAXAXAXAXAXAXAXAXAXAXAXAXAXAXAXAXAXAXAXAXAXAXAXAXAXAXAXAXAXAXAXAX}.OX[.'.8.8.  S t h [.].AXAXAXAXAXAXAXAXAXAXAXAXAXAXAX",
"AXAXAXAXAXAXAXAXAXAXAXAXAXAXAXAXAXAXAXAXAXAXAXAXAXAXAXAXAXAXAXAXAX  .X X[.[.8.h x 4.].].w l AXAXAXAXAXAXAXAXAXAXAXAXAXAX",
"AXAXAXAXAXAXAXAXAXAXAXAXAXAXAXAXAXAXAXAXAXAXAXAXAXAXAXAXAXAXAXAXAXAXAX3 2 2 2 2 2 2 AXAXV bXAXAXAXAXAXAXAXAXAXAXAXAXAXAX",
"AXAXAXAXAXAXAXAXAXAXAXAXAXAXAXAXAXAXAXAXAXAXAXAXAXAXAXAXAXAXAXAXAXAXAXi.H.AXAXAXAXAXAXAXAXmXAXAXAXAXAXAXAXAXAXAXAXAXAXAX",
"AXAXAXAXAXAXAXAXAXAXAXAXAXAXAXAXAXAXAXAXAXAXAXAXAXAXAXAXAXAXAXAXAXAXL.uX1XAXAXAXAXAXAXAX= aXD.AXAXAXAXAXAXAXAXAXAXAXAXAX",
"AXAXAXAXAXAXAXAXAXAXAXAXAXAXAXAXAXAXAXAXAXAXAXAXAXAXAXAXAXAXAXAXAX<X<X<X<XAXAXAXAXAXAXAX<X<X<XAXAXAXAXAXAXAXAXAXAXAXAXAX",
"AXAXAXAXAXAXAXAXAXAXAXAXAXAXAXAXAXAXAXAXAXAXAXAXAXAXAXAXAXAXAXAXAXAXAXAXAXAXAXAXAXAXAXAXAXAXAXAXAXAXAXAXAXAXAXAXAXAXAXAX",
"AXAXAXAXAXAXAXAXAXAXAXAXAXAXAXAXAXAXAXAXAXAXAXAXAXAXAXAXAXAXAXAXAXAXAXAXAXAXAXAXAXAXAXAXAXAXAXAXAXAXAXAXAXAXAXAXAXAXAXAX",
"AXAXAXAXAXAXAXAXAXAXAXAXAXAXAXAXAXAXAXAXAXAXAXAXAXAXAXAXAXAXAXAXAXAXAXAXAXAXAXAXAXAXAXAXAXAXAXAXAXAXAXAXAXAXAXAXAXAXAXAX",
"AXAXAXAXAXAXAXAXAXAXAXAXAXAXAXAXAXAXAXAXAXAXAXAXAXAXAXAXAXAXAXAXAXAXAXAXAXAXAXAXAXAXAXAXAXAXAXAXAXAXAXAXAXAXAXAXAXAXAXAX",
"AXAXAXAXAXAXAXAXAXAXAXAXAXAXAXAXAXAXAXAXAXAXAXAXAXAXAXAXAXAXAXAXAXAXAXAXAXAXAXAXAXAXAXAXAXAXAXAXAXAXAXAXAXAXAXAXAXAXAXAX"
};
