/* XPM */
static char *xpm_[] = {
/* columns rows colors chars-per-pixel */
"60 60 249 2 ",
"   c black",
".  c #010001",
"X  c #020101",
"o  c #020102",
"O  c #040203",
"+  c #050303",
"@  c #060202",
"#  c #060402",
"$  c #050104",
"%  c #040204",
"&  c #070304",
"*  c #000704",
"=  c #070407",
"-  c #090404",
";  c #080506",
":  c #080407",
">  c #0B0607",
",  c #0D0606",
"<  c #0F0A06",
"1  c #0F0B06",
"2  c #080508",
"3  c #0A0509",
"4  c #0C0709",
"5  c #0E0708",
"6  c #0C060B",
"7  c #0C070B",
"8  c #0C070C",
"9  c #000808",
"0  c #000A0A",
"q  c #05090B",
"w  c #06090A",
"e  c #000C09",
"r  c #000E08",
"t  c #0F080A",
"y  c #0F0C0A",
"u  c #120A0B",
"i  c #11090D",
"p  c #12090C",
"a  c #120A0C",
"s  c #140A0D",
"d  c #180D0F",
"f  c #00120B",
"g  c #00170E",
"h  c #1B130B",
"j  c #130A12",
"k  c #150C14",
"l  c #160C15",
"z  c #190D10",
"x  c #1E0E10",
"c  c #1D0F12",
"v  c #1C0F13",
"b  c #1D0F14",
"n  c #1C0F16",
"m  c #0E1415",
"M  c #1A1410",
"N  c #1D1017",
"B  c #1E1017",
"V  c #1D151C",
"C  c #121A1D",
"Z  c #101C1E",
"A  c #2B090E",
"S  c #240E13",
"D  c #23081D",
"F  c #250A1F",
"G  c #320A11",
"H  c #261312",
"J  c #201014",
"K  c #221216",
"L  c #241317",
"P  c #281315",
"I  c #21121F",
"U  c #26151F",
"Y  c #351311",
"T  c #3D131B",
"R  c #331918",
"E  c #351A18",
"W  c #3A181F",
"Q  c #3C181F",
"!  c #16271D",
"~  c #2A201A",
"^  c #2F231D",
"/  c #3F2C1B",
"(  c #071425",
")  c #09102A",
"_  c #09112A",
"`  c #09112B",
"'  c #0A102B",
"]  c #0B112C",
"[  c #081E2F",
"{  c #0F1B30",
"}  c #131833",
"|  c #101E32",
" . c #260B21",
".. c #3F0F2F",
"X. c #231422",
"o. c #241422",
"O. c #271525",
"+. c #281626",
"@. c #291727",
"#. c #2A1727",
"$. c #2A1827",
"%. c #2D1927",
"&. c #2B1828",
"*. c #2D1929",
"=. c #301921",
"-. c #331B22",
";. c #381E26",
":. c #3B1F27",
">. c #311B28",
",. c #321B28",
"<. c #311B2B",
"1. c #321B2B",
"2. c #341D29",
"3. c #341D2C",
"4. c #391F2F",
"5. c #122C20",
"6. c #142228",
"7. c #0C2034",
"8. c #152637",
"9. c #172830",
"0. c #192D37",
"q. c #1F203C",
"w. c #192E3B",
"e. c #0D3338",
"r. c #13333E",
"t. c #1A303C",
"y. c #1B323E",
"u. c #272121",
"i. c #3F212A",
"p. c #3F3128",
"a. c #20223E",
"s. c #3B2030",
"d. c #3C2130",
"f. c #3E2231",
"g. c #3F2332",
"h. c #363934",
"j. c #401817",
"k. c #4B1B19",
"l. c #75331C",
"z. c #401A22",
"x. c #491D23",
"c. c #45172E",
"v. c #600F36",
"b. c #42232C",
"n. c #49382E",
"m. c #402332",
"M. c #412433",
"N. c #422433",
"B. c #452531",
"V. c #472635",
"C. c #492731",
"Z. c #4F2A35",
"A. c #4C2937",
"S. c #4D2937",
"D. c #4F2A38",
"F. c #512B38",
"G. c #512B39",
"H. c #522B38",
"J. c #522C39",
"K. c #542C3A",
"L. c #542D3A",
"P. c #552D3A",
"I. c #562D3B",
"U. c #562E3B",
"Y. c #572E3B",
"T. c #582E3B",
"R. c #592F3C",
"E. c #463E3D",
"W. c #523E34",
"Q. c #5B303D",
"!. c #782C29",
"~. c #00413E",
"^. c #5A4539",
"/. c #6F4D2F",
"(. c #173640",
"). c #163741",
"_. c #183540",
"`. c #242441",
"'. c #262643",
"]. c #272743",
"[. c #272744",
"{. c #252945",
"}. c #2A2A47",
"|. c #2B2C49",
" X c #303651",
".X c #343955",
"XX c #5D1342",
"oX c #601741",
"OX c #721944",
"+X c #7F174E",
"@X c #542850",
"#X c #5F3958",
"$X c #0D4347",
"%X c #00504C",
"&X c #00524F",
"*X c #015350",
"=X c #005751",
"-X c #005652",
";X c #3C445E",
":X c #006E41",
">X c #00624F",
",X c #017047",
"<X c #007646",
"1X c #00764C",
"2X c #007B49",
"3X c #007B4B",
"4X c #007E4B",
"5X c #6F5546",
"6X c #636258",
"7X c #4B516C",
"8X c #526274",
"9X c #5C677E",
"0X c #90352F",
"qX c #AA4624",
"wX c #AB492E",
"eX c #AF4F39",
"rX c #85174E",
"tX c #801D49",
"yX c #A01E4A",
"uX c #AB554E",
"iX c #AB5158",
"pX c #846554",
"aX c #876755",
"sX c #8B6A58",
"dX c #8F6D5A",
"fX c #C8645C",
"gX c #D56A62",
"hX c #C07360",
"jX c #D97163",
"kX c #B68B72",
"lX c #B98D74",
"zX c #C8997E",
"xX c #EFA566",
"cX c #FFB06D",
"vX c #6C708B",
"bX c #60908F",
"nX c #9399B4",
"mX c #9CA3BD",
"MX c #9DA3BE",
"NX c #CF9E82",
"BX c #D3A085",
"VX c #DEA388",
"CX c #E9B597",
"ZX c #F4BC9C",
"AX c #F9BA9A",
"SX c #FBBC9A",
"DX c #F9BE9D",
"FX c #FFC3A1",
"GX c None",
/* pixels */
"GXGXGXGXGXGXGXGXGXGXGXGXGXGXGXGXGXGXGXGXGXGXGXGXGXGXGXGXGXGXGXGXGXGXGXGXGXGXGXGXGXGXGXGXGXGXGXGXGXGXGXGXGXGXGXGXGXGXGXGX",
"GXGXGXGXGXGXGXGXGXGXGXGXGXGXGXGXGXGXGXGXGXGXGXGXGXGXGXGXGXGXGXGXGXGXGXGXGXGXGXGXGXGXGXGXGXGXGXGXGXGXGXGXGXGXGXGXGXGXGXGX",
"GXGXGXGXGXGXGXGXGXGXGXGXGXGXGXGXGXGXGXGXGXGXGXGXGXGXGXGXGXGXGXGXGXGXGXGXGXGXGXGXGXGXGXGXGXGXGXGXGXGXGXGXGXGXGXGXGXGXGXGX",
"GXGXGXGXGXGXGXGXGXGXGXGXGXGXGXGXGXGXGXGXGXGXGXGXGXGXGXGXGXGXGXGXGXGXGXGXGXGXGXGXGXGXGXGXGXGXGXGXGXGXGXGXGXGXGXGXGXGXGXGX",
"GXGXGXGXGXGXGXGXGXGXGXGXGXGXGXGXGXGXGXGXGXGXGXGXGXGXGXGXGXGXGXGXGXGXGXGXGXGXGXGXGXGXGXGXGXGXGXGXGXGXGXGXGXGXGXGXGXGXGXGX",
"GXGXGXGXGXGXGXGXGXGXGXGXGXGXGXGXGXGXGXGXGXGXGXGXGXGXGXGXGXGXGXGXGXGXGXGXGXGXGXGXGXGXGXGXGXGXGXGXGXGXGXGXGXGXGXGXGXGXGXGX",
"GXGXGXGXGXGXGXGXGXGXGXGXGXGXGXGXGXGXGXGXGXGXGXGXGXGXGXGXGXGXGXGXGXGXGXGXGXGXGXGXGXGXGXGXGXGXGXGXGXGXGXGXGXGXGXGXGXGXGXGX",
"GXGXGXGXGXGXGXGXGXGXGXGXGXGXGXGXGXGXGXGXGXGXGXGXGXGXGXGXGXGXGXGXGXGXGXGXGXGXGXGXGXGXGXGXGXGXGXGXGXGXGXGXGXGXGXGXGXGXGXGX",
"GXGXGXGXGXGXGXGXGXGXGXGXGXGXGXGXGXGXGXGXGXGXGXGXGXGXGXGXGXGXGXGXGXGXGXGXGXGXGXGXGXGXGXGXGXGXGXGXGXGXGXGXGXGXGXGXGXGXGXGX",
"GXGXGXGXGXGXGXGXGXGXGXGXGXGXGXGXGXGXGXGXGXGXGXGXGXGXGXGXGXGXGXGXGXGXGXGXGXGXGXGXGXGXGXGXGXGXGXGXGXGXGXGXGXGXGXGXGXGXGXGX",
"GXGXGXGXGXGXGXGXGXGXGXGXGXGXGXGXGXGXGXGXGXGXGXGXGXGXGXGXGXGXGXGXGXGXGXGXGXGXGXGXGXGXGXGXGXGXGXGXGXGXGXGXGXGXGXGXGXGXGXGX",
"GXGXGXGXGXGXGXGXGXGXGXGXGXGXGXGXGXGXGXGXGXGXGXGXGXGXGXGXGXGXGXGXGXGXGXGXGXGXGXGXGXGXGXGXGXGXGXGXGXGXGXGXGXGXGXGXGXGXGXGX",
"GXGXGXGXGXGXGXGXGXGXGXGXGXGXGXGXGXGXGXGXGXGXGXGXGXGXGXGXGXGXGXGXGXGXGXGXGXGXGXGXGXGXGXGXGXGXGXGXGXGXGXGXGXGXGXGXGXGXGXGX",
"GXGXGXGXGXGXGXGXGXGXGXGXGXGXGXGXGXGXGXGXGXGXGXGXGXGXGXGXGXGXGXGXGXGXGXGXGXGXGXGXGXGXGXGXGXGXGXGXGXGXGXGXGXGXGXGXGXGXGXGX",
"GXGXGXGXGXGXGXGXGXGXGXGXGXGXGXGXGXGXGXGXGXGXGXGXGXGXGXGXGXGXGXGXGXGXGXGXGXGXGXGXGXGXGXGXGXGXGXGXGXGXGXGXGXGXGXGXGXGXGXGX",
"GXGXGXGXGXGXGXGXGXGXGXGXGXGXGXGXGXGXGXGXGXGXGXGXGXGXGXGXGXGXGXGXGXGXGXGXGXGXGXGXGXGXGXGXGXGXGXGXGXGXGXGXGXGXGXGXGXGXGXGX",
"GXGXGXGXGXGXGXGXGXGXGXGXGXGXGXGXGXGXGXGXGXGXGXGXGXGXGXGXGXGXGXGXGXGXGXGXGXGXGXGXGXGXGXGXGXGXGXGXGXGXGXGXGXGXGXGXGXGXGXGX",
"GXGXGXGXGXGXGXGXGXGXGXGXGXGXGXGXGXGXGXGXGXGXGXGXGXGXGXGXGXGXGXGXGXGXGXGXGXGXGXGXGXGXGXGXGXGXGXGXGXGXGXGXGXGXGXGXGXGXGXGX",
"GXGXGXGXGXGXGXGXGXGXGXGXGXGXGXGXGXGXGXGXGXGXGXGXGXGXGXGXGXGXGXGXGXGXGXGXGXGXGXGXGXGXGXGXGXGXGXGXGXGXGXGXGXGXGXGXGXGXGXGX",
"GXGXGXGXGXGXGXGXGXGXGXGXGXGXGXGXGXGXGXGXGXGXGXGXGXGXGXGXGXGXGXGXGXGXGXGXGXGXGXGXGXGXGXGXGXGXGXGXGXGXGXGXGXGXGXGXGXGXGXGX",
"GXGXGXGXGXGXGXGXGXGXGXGXGXGXGXGXGXGXGXGXGXGXGXGXGXGXGXGXGXGXGXGXGXGXGXGXGXGXGXGXGXGXGXGXGXGXGXGXGXGXGXGXGXGXGXGXGXGXGXGX",
"GXGXGXGXGXGXGXGXGXGXGXGXGXGXGXGXGXGXGXGXGXGXGXGXGXGXGXGXGXGXGXGXGXGXGXGXGXGXGXGXGXGXGXGXGXGXGXGXGXGXGXGXGXGXGXGXGXGXGXGX",
"GXGXGXGXGXGX{. XGXGXGXGXGXGXGXGXGXGXGXGXGXGXGXGXGXGXGXGXGXGXGXGXGXGXGXGXGXGXGXGXGXGXGXGXGXGXGXGXGXGXGXGXGXGXGXGXGXGXGXGX",
"GXGXGXGXGXGXq.GXGXGXGXGXGXGXGXGXGXGXGXGXGXGXGXGXGXGXGXGXGXGX    S k.GXGXGXGXGXGXGXGXGXGXGXGXGXGXGXGXGXGXGXGXGXGXGXGXGXGX",
"GXGXGXGXGXGXGXGXGXGXGXGXGXGXGXGXGXGXGXGXGXGXGXGXGXGXGXGXGXj.z.x.Y c.T GXGXGXGXGXGXGXGXGXGXGXGXGXGXGXGXGXGXGXGXGXGXGXGXGX",
"GXGXGXGXGXGXnX' GXGXGXGXGXGXGXGXGXGXGXGXGXGXGXGXGXGXGXGXGXM z W !.oXyXGXGXGXGXGXGXGXGXGXGXGXGXGXGXGXGXGXGXGXGXGXGXGXGXGX",
"GXGXGXGXGXGXGX'.GXGXGXGXGXGXGXGXGXGXGXGXGXGXGXGXGXGXGXGXGXdXZX+ W OXtXGXGXGXGXGXGXGXGXGXGXGXGXGXGXGXGXGXGXGXGXGXGXGXGXGX",
"GXGXGXGXGXGXGXGXGXGXGXGXGXGXGXGXGXGXGXGXGXGXGXGXGXGXGXGXGXdXCXkXK :X! GXGXGXGXGXGXGXGXGXGXGXGXGXGXGXGXGXGXGXGXGXGXGXGXGX",
"GXGXGXGXGXGXGXGXGXGXGXGXGXGXGXGXGXGXGXGXGXGXGXGXGXGXGXGXGXdXFXNXS 5.+ GXGXGXGXGXGXGXGXGXGXGXGXGXGXGXGXGXGXGXGXGXGXGXGXGX",
"GXGXGXGXGXGXGXvX' GXGXGXGXGXGXGXGXGXGXGXGXGXGXGXGXGXGXGXGXW.5XFXaX                GXGXGXGXGXGXGXGXGXGXGXGXGXGXGXGXGXGXGX",
"GXGXGXGXGXGXGXGXGXGXGXGXGXGXGXGXGXGXGXGXGXGXGXGXGXGXGXGXGXGXGX~ DX6XE.Q.Q.Q.R.R.R.K GXGXGXGXGXGXGXGXGXGXGXGXGXGXGXGXGXGX",
"GXGXGXGXGXGXGXGXGXGXGXGXGXGXGXGXGXGXGXGXGXGXGXGXGXGXGXGXGXGXGXGXh.u.Q.B.2.I @.U.Q.R.b.GXGXGXGXGXGXGXGXGXGXGXGXGXGXGXGXGX",
"GXGXGXGXGXGXGXGX' GXGXGXGXGXGXGXGXGXGXGXGXGXGXGXGXGXGXGXGXGXGXGX+ Q.Q.S.@.  $ @.F.Q.T.y GXGXGXGXGXGXGXGXGXGXGXGXGXGXGXGX",
"GXGXGXGXGXGXGXGX].' GXGXGXGXGXGXGXGXGXGXGXGXGXGXGXGXGXGXGXGXGX4 + Q.Q.Q.U.,.GXo.4.Q.;.n.BXGXGXGXGXGXGXGXGXGXGXGXGXGXGXGX",
"GXGXGXGXGXGXGXGXGXGXGXGXGXGXGXGXGXGXGXGXGXGXGXGXGXGXGXGXGXGXGXF.8 Z.Q.Q.Q.U.  8 @.D.3 ; ^.lXGXGXGXGXGXGXGXGXGXGXGXGXGXGX",
"GXGXGXGXGXGXGXGXGX].GXGXGXGXGXGXGXGXGXGXGXGXGXGXGXGXGXGXGXGXK F.  n U.Q.Q.Q.3.o @.n d GXy FXp.GXGXGXGXGXGXGXGXGXGXGXGXGX",
"GXGXGXGXGXGXGXGXGX' } GXGXGXGXGXGXGXGXGXGXGXGXGXGXGXGXGXGX  R.I GX,.o.T.Q.Q.g.&.l p 4 GXxXsXuXGXGXGXGXGXGXGXGXGXGXGXGXGX",
"GXGXGXGXGXGXGXGXGXGXGXGXGXGXGXGXGXGXGXGXGXGXGXGXGXGXGXGXGXp -.: GXA G o.4.i.@.&.8 GXGX; / / / h GXGXGXGXGXGXGXGXGXGXGXGX",
"GXGXGXGXGXGXGXGXGXGX].MXGXGXGXGXGXGXGXGXGXGXGXGXGXGXGXGXGX-.Q.f.    $   o o o o GXGXGX  , 1 1 # GXGXGXGXGXGXGXGXGXGXGXGX",
"GXGXGXGXGXGXGXGXGXGXGX].' GXGXGXGXGXGXGXGXGXGXGXGXGXGXGXGX-.Q.U.f.$ rX .@.@.g.U.x GXGXx iXjXcX/.GXGXGXGXGXGXGXGXGXGXGXGX",
"GXGXGXGXGXGXGXGXGXGXGXGX;XGXGXGXGXGXGXGXGXGXGXGXGXGXGXGXGX-.Q.U.O.3 v.XXl *.Q.Q.Q.GXGX; P R R h GXGXGXGXGXGXGXGXGXGXGXGX",
"GXGXGXGXGXGXGXGXGXGXGXGXGXa.GXGXGXGXGXGXGXGXGXGXGXGXGXGXGX-.U.*.p t @X+X .,.Q.Q.Q.B GXGXGXGXGXGXGXGXGXGXGXGXGXGXGXGXGXGX",
"GXGXGXGXGXGXGXGXGXGXGXGXGXnX' GXGXGXGXGXGXGXGXGXGXGXGXGXGX  V.# p q ..#XD *.N.R.Q.;.GXGXGXGXGXGXGXGXGXGXGXGXGXGXGXGXGXGX",
"GXGXGXGXGXGXGXGXGXGXGXGXGXGX].GXGXGXGXGXGXGXGXGXGXGXGXGXGXGXB a C y.{ w.9.= N.R.Q.Q.s GXGXGXGXGXGXGXGXGXGXGXGXGXGXGXGXGX",
"GXGXGXGXGXGXGXGXGXGXGXGXGXGXGXGXGXGXGXGXGXGXGXGXGXGXGXGXGXGXGXg *Xy.8.8X9.= @.U.Q.Q.Q.  GXGXGXGXGXGXGXGXGXGXGXGXGXGXGXGX",
"GXGXGXGXGXGXGXGXGXGXGXGXGXGXGXGX'.GXGXGXGXGXGXGXGXGXGXGXGXGXGXg 1X_.| y.y.m @.R.Q.Q.Q.b.GXGXGXGXGXGXGXGXGXGXGXGXGXGXGXGX",
"GXGXGXGXGXGXGXGXGXGXGXGXGXGXGXGXGX.XGXGXGXGXGXGXGXGXGXGXGXGXGXg 3X7.9Xy.y.m @.f.U.Q.Q.C.GXGXGXGXGXGXGXGXGXGXGXGXGXGXGXGX",
"GXGXGXGXGXGXGXGXGXGXGXGXGXGXGXGXGXGXGXGXGXGXGXGXGXGXGXGXGXGXGXf 4X[ r.y.y.6.j ,.N.V.S.L GXGXGXGXGXGXGXGXGXGXGXGXGXGXGXGX",
"GXGXGXGXGXGXGXGXGXGXGXGXGXGXGXGXGXGXGX'.mXGXGXGXGXGXGXGXGXGXGXGXbX,X=X).y.0.  &.@.,.V e.GXGXGXGXGXGXGXGXGXGXGXGXGXGXGXGX",
"GXGXGXGXGXGXGXGXGXGXGXGXGXGXGXGXGXGXGXGX' GXGXGXGXGXGXGXGXGXGXGX( 4X>X=X).0.  X.X.q $X-X  GXGXGXGXGXGXGXGXGXGXGXGXGXGXGX",
"GXGXGXGXGXGXGXGXGXGXGXGXGXGXGXGXGXGXGXGXGXGXGXGX|.GXGXGXGXGX|.' * <X3X*X=X*XZ Z Z %X%X~.fXGXGXGXGXGXGXGXGXGXGXGXGXGXGXGX",
"GXGXGXGXGXGXGXGXGXGXGXGXGXGXGXGXGXGXGXGXGXGXGXGX7XGXGX' GXGXGXGXGXGXr e 0 0 0 0 0 0 GXGXL VXGXGXGXGXGXGXGXGXGXGXGXGXGXGX",
"GXGXGXGXGXGXGXGXGXGXGXGXGXGXGXGXGXGXGXGXGXGXGXGXGXGXGXGXGXGXGXGXGXGXGXwX  GXGXGXGXGXGXGXGXqXzXGXGXGXGXGXGXGXGXGXGXGXGXGX",
"GXGXGXGXGXGXGXGXGXGXGXGXGXGXGXGXGXGXGXGXGXGXGXGXGXGXGXGXGXGXGXGXGXpXeXgX  GXGXGXGXGXGXGXl.SXhXGXGXGXGXGXGXGXGXGXGXGXGXGX",
"GXGXGXGXGXGXGXGXGXGXGXGXGXGXGXGXGXGXGXGXGXGXGXGXGXGXGXGXGXGXGXGXGX0X0X0XGXGXGXGXGXGXGX^ AX0XGXGXGXGXGXGXGXGXGXGXGXGXGXGX",
"GXGXGXGXGXGXGXGXGXGXGXGXGXGXGXGXGXGXGXGXGXGXGXGXGXGXGXGXGXGXGXGXGXGXGXGXGXGXGXGXGXGXGXGXGXGXGXGXGXGXGXGXGXGXGXGXGXGXGXGX",
"GXGXGXGXGXGXGXGXGXGXGXGXGXGXGXGXGXGXGXGXGXGXGXGXGXGXGXGXGXGXGXGXGXGXGXGXGXGXGXGXGXGXGXGXGXGXGXGXGXGXGXGXGXGXGXGXGXGXGXGX",
"GXGXGXGXGXGXGXGXGXGXGXGXGXGXGXGXGXGXGXGXGXGXGXGXGXGXGXGXGXGXGXGXGXGXGXGXGXGXGXGXGXGXGXGXGXGXGXGXGXGXGXGXGXGXGXGXGXGXGXGX",
"GXGXGXGXGXGXGXGXGXGXGXGXGXGXGXGXGXGXGXGXGXGXGXGXGXGXGXGXGXGXGXGXGXGXGXGXGXGXGXGXGXGXGXGXGXGXGXGXGXGXGXGXGXGXGXGXGXGXGXGX",
"GXGXGXGXGXGXGXGXGXGXGXGXGXGXGXGXGXGXGXGXGXGXGXGXGXGXGXGXGXGXGXGXGXGXGXGXGXGXGXGXGXGXGXGXGXGXGXGXGXGXGXGXGXGXGXGXGXGXGXGX"
};
