/* XPM */
static char *xpm_[] = {
/* columns rows colors chars-per-pixel */
"60 60 215 2 ",
"   c black",
".  c #010000",
"X  c #010100",
"o  c #030201",
"O  c #050101",
"+  c #050203",
"@  c #050303",
"#  c #0B0505",
"$  c #0A0507",
"%  c #0B0607",
"&  c #0F0B06",
"*  c #02050D",
"=  c #0C070C",
"-  c #000A0A",
";  c #05090B",
":  c #0E0B09",
">  c #0F080E",
",  c #0E0E0E",
"<  c #190B07",
"1  c #120908",
"2  c #170B0A",
"3  c #130A0C",
"4  c #130A0D",
"5  c #140F0D",
"6  c #1A0D0C",
"7  c #00170E",
"8  c #1F160D",
"9  c #090911",
"0  c #0B0F10",
"q  c #110910",
"w  c #120A11",
"e  c #150C14",
"r  c #170C15",
"t  c #1A0D11",
"y  c #1C0F12",
"u  c #1D0F12",
"i  c #190E18",
"p  c #1B0F19",
"a  c #1C0F18",
"s  c #061619",
"d  c #001A19",
"f  c #1C1512",
"g  c #171A17",
"h  c #1E111B",
"j  c #1E101C",
"k  c #1E111D",
"l  c #1C1C1D",
"z  c #39160B",
"x  c #27151A",
"c  c #21121F",
"v  c #25141E",
"b  c #2B161C",
"n  c #28161F",
"m  c #371516",
"M  c #301319",
"N  c #35171D",
"B  c #351B18",
"V  c #3C181F",
"C  c #002516",
"Z  c #3F2C1B",
"A  c #0A0F2A",
"S  c #09102A",
"D  c #09112A",
"F  c #09112B",
"G  c #0A102A",
"H  c #0A102B",
"J  c #0B112B",
"K  c #0D132D",
"L  c #141934",
"P  c #1A1F39",
"I  c #270A21",
"U  c #380E2F",
"Y  c #231422",
"T  c #241422",
"R  c #291727",
"E  c #2B1826",
"W  c #2B1827",
"Q  c #2C1826",
"!  c #2D1929",
"~  c #2E1A29",
"^  c #331B22",
"/  c #381E26",
"(  c #301A2A",
")  c #301B2A",
"_  c #321B2B",
"`  c #341D2C",
"'  c #381F2C",
"]  c #15232A",
"[  c #0D2B31",
"{  c #1D203B",
"}  c #1F213E",
"|  c #003533",
" . c #0E3330",
".. c #1B323E",
"X. c #18343F",
"o. c #19343F",
"O. c #332720",
"+. c #322024",
"@. c #352921",
"#. c #3E2029",
"$. c #3E2129",
"%. c #3C212E",
"&. c #3F3128",
"*. c #20223F",
"=. c #3D2131",
"-. c #3D2231",
";. c #3F2332",
":. c #4D1C19",
">. c #57121D",
",. c #451521",
"<. c #401A22",
"1. c #461C23",
"2. c #481634",
"3. c #431139",
"4. c #701826",
"5. c #731A3F",
"6. c #4D2723",
"7. c #44242D",
"8. c #5D2E2A",
"9. c #49392D",
"0. c #412433",
"q. c #422433",
"w. c #442533",
"e. c #432534",
"r. c #442534",
"t. c #452534",
"y. c #452634",
"u. c #462634",
"i. c #492731",
"p. c #4A2836",
"a. c #4C2937",
"s. c #4E2937",
"d. c #4F2A38",
"f. c #502A35",
"g. c #512B36",
"h. c #502A38",
"j. c #512B39",
"k. c #532C39",
"l. c #562D3A",
"z. c #562D3B",
"x. c #572E3B",
"c. c #5A2F3C",
"v. c #4F3C32",
"b. c #533D33",
"n. c #5B303D",
"m. c #642522",
"M. c #6A2827",
"N. c #7F3620",
"B. c #652F36",
"V. c #173640",
"C. c #153841",
"Z. c #163841",
"A. c #143A42",
"S. c #232340",
"D. c #232441",
"F. c #262642",
"G. c #262643",
"H. c #272744",
"J. c #2D2D4A",
"K. c #373A55",
"L. c #69174C",
"P. c #632544",
"I. c #0B4649",
"U. c #004C49",
"Y. c #054E4D",
"T. c #09494A",
"R. c #00514D",
"E. c #005450",
"W. c #015450",
"Q. c #005751",
"!. c #005652",
"~. c #005B51",
"^. c #006E41",
"/. c #006B4E",
"(. c #007646",
"). c #007B4B",
"_. c #007C4B",
"`. c #007E4B",
"'. c #7B5E4D",
"]. c #4E506D",
"[. c #4D526D",
"{. c #4D536E",
"}. c #7C797B",
"|. c #8A391E",
" X c #8E1E30",
".X c #90352F",
"XX c #AF253B",
"oX c #994A2E",
"OX c #85423D",
"+X c #871E49",
"@X c #90184E",
"#X c #A41E4A",
"$X c #A12049",
"%X c #935A41",
"&X c #A34C57",
"*X c #8F6D5A",
"=X c #B96D5C",
"-X c #A47E68",
";X c #D16761",
":X c #D56A62",
">X c #DB7F70",
",X c #A78069",
"<X c #E99A76",
"1X c #F7A36B",
"2X c #FFB06D",
"3X c #999FBA",
"4X c #CF9E82",
"5X c #DFAA8C",
"6X c #DEAE93",
"7X c #F3B999",
"8X c #F6BC9B",
"9X c #F8BD9C",
"0X c #FFC2A0",
"qX c #FFC3A1",
"wX c None",
/* pixels */
"wXwXwXwXwXwXwXwXwXwXwXwXwXwXwXwXwXwXwXwXwXwXwXwXwXwXwXwXwXwXwXwXwXwXwXwXwXwXwXwXwXwXwXwXwXwXwXwXwXwXwXwXwXwXwXwXwXwXwXwX",
"wXwXwXwXwXwXwXwXwXwXwXwXwXwXwXwXwXwXwXwXwXwXwXwXwXwXwXwXwXwXwXwXwXwXwXwXwXwXwXwXwXwXwXwXwXwXwXwXwXwXwXwXwXwXwXwXwXwXwXwX",
"wXwXwXwXwXwXwXwXwXwXwXwXwXwXwXwXwXwXwXwXwXwXwXwXwXwXwXwXwXwXwXwXwXwXwXwXwXwXwXwXwXwXwXwXwXwXwXwXwXwXwXwXwXwXwXwXwXwXwXwX",
"wXwXwXwXwXwXwXwXwXwXwXwXwXwXwXwXwXwXwXwXwXwXwXwXwXwXwXwXwXwXwXwXwXwXwXwXwXwXwXwXwXwXwXwXwXwXwXwXwXwXwXwXwXwXwXwXwXwXwXwX",
"wXwXwXwXwXwXwXwXwXwXwXwXwXwXwXwXwXwXwXwXwXwXwXwXwXwXwXwXwXwXwXwXwXwXwXwXwXwXwXwXwXwXwXwXwXwXwXwXwXwXwXwXwXwXwXwXwXwXwXwX",
"wXwXwXwXwXwXwXwXwXwXwXwXwXwXwXwXwXwXwXwXwXwXwXwXwXwXwXwXwXwXwXwXwXwXwXwXwXwXwXwXwXwXwXwXwXwXwXwXwXwXwXwXwXwXwXwXwXwXwXwX",
"wXwXwXwXwXwXwXwXwXwXwXwXwXwXwXwXwXwXwXwXwXwXwXwXwXwXwXwXwXwXwXwXwXwXwXwXwXwXwXwXwXwXwXwXwXwXwXwXwXwXwXwXwXwXwXwXwXwXwXwX",
"wXwXwXwXwXwXwXwXwXwXwXwXwXwXwXwXwXwXwXwXwXwXwXwXwXwXwXwXwXwXwXwXwXwXwXwXwXwXwXwXwXwXwXwXwXwXwXwXwXwXwXwXwXwXwXwXwXwXwXwX",
"wXwXwXwXwXwXwXwXwXwXwXwXwXwXwXwXwXwXwXwXwXwXwXwXwXwXwXwXwXwXwXwXwXwXwXwXwXwXwXwXwXwXwXwXwXwXwXwXwXwXwXwXwXwXwXwXwXwXwXwX",
"wXwXwXwXwXwXwXwXwXwXwXwXwXwXwXwXwXwXwXwXwXwXwXwXwXwXwXwXwXwXwXwXwXwXwXwXwXwXwXwXwXwXwXwXwXwXwXwXwXwXwXwXwXwXwXwXwXwXwXwX",
"wXwXwXwXwXwXwXwXwXwXwXwXwXwXwXwXwXwXwXwXwXwXwXwXwXwXwXwXwXwXwXwXwXwXwXwXwXwXwXwXwXwXwXwXwXwXwXwXwXwXwXwXwXwXwXwXwXwXwXwX",
"wXwXwXwXwXwXwXwXwXwXwXwXwXwXwXwXwXwXwXwXwXwXwXwXwXwXwXwXwXwXwXwXwXwXwXwXwXwXwXwXwXwXwXwXwXwXwXwXwXwXwXwXwXwXwXwXwXwXwXwX",
"wXwXwXwXwXwXwXwXwXwXwXwXwXwXwXwXwXwXwXwXwXwXwXwXwXwXwXwXwXwXwXwXwXwXwXwXwXwXwXwXwXwXwXwXwXwXwXwXwXwXwXwXwXwXwXwXwXwXwXwX",
"wXwXwXwXwXwXwXwXwXwXwXwXwXwXwXwXwXwXwXwXwXwXwXwXwXwXwXwXwXwXwXwXwXwXwXwXwXwXwXwXwXwXwXwXwXwXwXwXwXwXwXwXwXwXwXwXwXwXwXwX",
"wXwXwXwXwXwXwXwXwXwXwXwXwXwXwXwXwXwXwXwXwXwXwXwXwXwXwXwXwXwXwXwXwXwXwXwXwXwXwXwXwXwXwXwXwXwXwXwXwXwXwXwXwXwXwXwXwXwXwXwX",
"wXwXwXwXwXwXwXwXwXwXwXwXwXwXwXwXwXwXwXwXwXwXwXwXwXwXwXwXwXwXwXwXwXwXwXwXwXwXwXwXwXwXwXwXwXwXwXwXwXwXwXwXwXwXwXwXwXwXwXwX",
"wXwXwXwXwXwXwXwXwXwXwXwXwXwXwXwXwXwXwXwXwXwXwXwXwXwXwXwXwXwXwXwXwXwXwXwXwXwXwXwXwXwXwXwXwXwXwXwXwXwXwXwXwXwXwXwXwXwXwXwX",
"wXwXwXwXwXwXwXwXwXwXwXwXwXwXwXwXwXwXwXwXwXwXwXwXwXwXwXwXwXwXwXwXwXwXwXwXwXwXwXwXwXwXwXwXwXwXwXwXwXwXwXwXwXwXwXwXwXwXwXwX",
"wXwXwXwXwXwXwXwXwXwXwXwXwXwXwXwXwXwXwXwXwXwXwXwXwXwXwXwXwXwXwXwXwXwXwXwXwXwXwXwXwXwXwXwXwXwXwXwXwXwXwXwXwXwXwXwXwXwXwXwX",
"wXwXwXwXwXwXwXwXwXwXwXwXwXwXwXwXwXwXwXwXwXwXwXwXwXwXwXwXwXwXwXwXwXwXwXwXwXwXwXwXwXwXwXwXwXwXwXwXwXwXwXwXwXwXwXwXwXwXwXwX",
"wXwXwXwXwXwXwXwXwXwXwXwXwXwXwXwXwXwXwXwXwXwXwXwXwXwXwXwXwXwXwXwXwXwXwXwXwXwXwXwXwXwXwXwXwXwXwXwXwXwXwXwXwXwXwXwXwXwXwXwX",
"wXwXwXwXwXwXwXwXwXwXwXwXwXwXwXwXwXwXwXwXwXwXwXwXwXwXwXwXwXwXwXwXwXwXwXwXwXwXwXwXwXwXwXwXwXwXwXwXwXwXwXwXwXwXwXwXwXwXwXwX",
"wXwXwXwXwXwXwXwXwXwXwXwXwXwXwXwXwXwXwXwXwXwXwXwXwXwXwXwXwXwX    M m.wXwXwXwXwXwXwXwXwXwXwXwXwXwXwXwXwXwXwXwXwXwXwXwXwXwX",
"wXwXwXwXwXwXwXwXwXwXwXwXwXwXwXwXwXwXwXwXwXwXwXwXwXwXwXwXwXm <.1.:.2.,.wXwXwXwXwXwXwXwXwXwXwXwXwXwXwXwXwXwXwXwXwXwXwXwXwX",
"wXwXwXwXwXwXwXwXwXwXwXwXwXwXwXwXwXwXwXwXwXwXwXwXwXwXwXwXwX@.3 N M.5.#XwXwXwXwXwXwXwXwXwXwXwXwXwXwXwXwXwXwXwXwXwXwXwXwXwX",
"wXwXwXwXwXwXwXwXwXwXwXwXwXwXwXwXwXwXwXwXwXwXwXwXwXwXwXwXwX*X6X@ / P.+XwXwXwXwXwXwXwXwXwXwXwXwXwXwXwXwXwXwXwXwXwXwXwXwXwX",
"wXwXwXwXwXwXwXwXwXwXwXwXwXwXwXwXwXwXwXwXwXwXwXwXwXwXwXwXwX*XqX4Xy ^.C wXwXwXwXwXwXwXwXwXwXwXwXwXwXwXwXwXwXwXwXwXwXwXwXwX",
"wXwXwXwXwXwXwXwXwXwXwXwXwXwXwXwXwXwXwXwXwXwXwXwXwXwXwXwXwX*XqX4Xy g wXwXwXwXwXwXwXwXwXwXwXwXwXwXwXwXwXwXwXwXwXwXwXwXwXwX",
"wXwXwXwXwXwXwXwXwXwXwXwXwXwXwXwXwXwXwXwXwXwXwXwXwXwXwXwXwX&.v.qX-X      wXwXwXwXwXwXwXwXwXwXwXwXwXwXwXwXwXwXwXwXwXwXwXwX",
"wXwXwXwXwXwXwXwXwXwXwXwXwXwXwXwXwXwXwXwXwXwXwX].].wXJ.wX{ 9 a.+.8X}.#.n.^ wXwXwXwXwXwXwXwXwXwXwXwXwXwXwXwXwXwXwXwXwXwXwX",
"wXwXwXwXwXwXwXwXwXwXwXwXwXwXwXwXwXwXwXwXwXwXG H.wXG.wXS.wX* -.v 5 l c.j.n.g.wXwXwXwXwXwXwXwXwXwXwXwXwXwXwXwXwXwXwXwXwXwX",
"wXwXwXwXwXwXwXwXwXwXwXwXwXwXwXwXwXwXwXwXG G.wXwXwXwXwXwXwXwX  wX  g.n.q Q l.c.y wXwXwXwXwXwXwXwXwXwXwXwXwXwXwXwXwXwXwXwX",
"wXwXwXwXwXwXwXwXwXwXwXwXwXwXwXwXwXwXF G wXwXwXwXwXwXwXwXwXwXwXwX@ n.n.q.a ! q.c.n.b @ wXwXwXwXwXwXwXwXwXwXwXwXwXwXwXwXwX",
"wXwXwXwXwXwXwXwXwXwXwXwXwXwXwXwXwX].wXwXwXwXwXwXwXwXwXwXwXwXwXwXwX%.n.n.a.k ! q.n.n.l.  wXwXwXwXwXwXwXwXwXwXwXwXwXwXwXwX",
"wXwXwXwXwXwXwXwXwXwXwXwXwXwXwXwXG wXwXwXwXwXwXwXwXwXwXwXwXwXwXwXwX%.n.n.n.-.h ! q.j.n.i.  wXwXwXwXwXwXwXwXwXwXwXwXwXwXwX",
"wXwXwXwXwXwXwXwXwXwXwXwXwXwXwXwXA wXwXwXwXwXwXwXwXwXwXwXwXwXwXwXwXY w.n.c.l.` q ) q.j.5 9Xf wXwXwXwXwXwXwXwXwXwXwXwXwXwX",
"wXwXwXwXwXwXwXwXwXwXwXwXwXwXwXG } wXwXwXwXwXwXwXwXwXwXwXwXwXwXwXwX  i u.j.-.R q Y -.n y : 7XO.wXwXwXwXwXwXwXwXwXwXwXwXwX",
"wXwXwXwXwXwXwXwXwXwXwXwXwXwXwXwXwXwXwXwXwXwXwXwXwXwXwXwXwXwXwXwXwXwX4.q k k k = a W $ 3 wX5X'.wXwXwXwXwXwXwXwXwXwXwXwXwX",
"wXwXwXwXwXwXwXwXwXwXwXwXwXwXwXF G.wXwXwXwXwXwXwXwXwXwXwXwXwXwXwXwXwX Xr W ! e.x.c.r $   & 8 b.8.wXwXwXwXwXwXwXwXwXwXwXwX",
"wXwXwXwXwXwXwXwXwXwXwXwXwXwXwXwXG wXwXwXwXwXwXwXwXwXwXwXwXwXwXwXwX  #Xr ) u.c.n.n.  wXwX  @ 1 #   wXwXwXwXwXwXwXwXwXwXwX",
"wXwXwXwXwXwXwXwXwXwXwXwXwXwXwXwXwXL wXwXwXwXwXwXwXwXwXwXwXwXwXwXwXXX@XI _ n.n.n.n.x wXwXB Z Z Z   wXwXwXwXwXwXwXwXwXwXwX",
"wXwXwXwXwXwXwXwXwXwXwXwXwXwXwXwXwXwXK.wXwXwXwXwXwXwXwXwXwXwXwXwX@ >.L.3.k d.n.n.n.7.wXwX&X;X1X2X  wXwXwXwXwXwXwXwXwXwXwX",
"wXwXwXwXwXwXwXwXwXwXwXwXwXwXwXwXwXwXwXD.{ wXwXwXwXwXwXwXwXwXwXwX_.~.s U > u.n.n.n.n.  wXB.B.OX%X  wXwXwXwXwXwXwXwXwXwXwX",
"wXwXwXwXwXwXwXwXwXwXwXwXwXwXwXwXwXwXwXwXwXK wXwXwXwXwXwXwXwXwX7 ).Q.A.] > e.n.n.n.n.  wXwXwXwXwXwXwXwXwXwXwXwXwXwXwXwXwX",
"wXwXwXwXwXwXwXwXwXwXwXwXwXwXwXwXwXwXwXwXwXwXwXwXwXF wX3XwXwXwX`.Q.W.....0 ! c.n.n.n./ wXwXwXwXwXwXwXwXwXwXwXwXwXwXwXwXwX",
"wXwXwXwXwXwXwXwXwXwXwXwXwXwXwXwXwXwXwXwXwXwXwXwXwXG wXD.wXwXwX`.Q.V.....0 ! n.n.n.n./ wXwXwXwXwXwXwXwXwXwXwXwXwXwXwXwXwX",
"wXwXwXwXwXwXwXwXwXwXwXwXwXwXwXwXwXwXwXwXwXwXwXwXwXwXwXwXwXwXwX`.!.Y.....0 ! e.n.n.n./ wXwXwXwXwXwXwXwXwXwXwXwXwXwXwXwXwX",
"wXwXwXwXwXwXwXwXwXwXwXwXwXwXwXwXwXwXwXwXwXwXwXwXwXwXwXwXwXwXwX`./.Q.V...0 R ` p.l.#.  wXwXwXwXwXwXwXwXwXwXwXwXwXwXwXwXwX",
"wXwXwXwXwXwXwXwXwXwXwXwXwXwXwXwXwXwXwXwXwXwXwXwXwXwXwXwXwXwXwX7 ).Q.I...0 R R R T [ | wXwXwXwXwXwXwXwXwXwXwXwXwXwXwXwXwX",
"wXwXwXwXwXwXwXwXwXwXwXwXwXwXwXwXwXwXwXwXwXwXwXwXwXwXwXwXwXwXwX7 `.~.Q.V.0 I ; - A.U. .  wXwXwXwXwXwXwXwXwXwXwXwXwXwXwXwX",
"wXwXwXwXwXwXwXwXwXwXwXwXwXwXwXwXwXwXwXwXwXwXwXwXwXwXwXwXwXwXwXwX(.(.W.Q.T.o.V.R.d wX/ <XwXwXwXwXwXwXwXwXwXwXwXwXwXwXwXwX",
"wXwXwXwXwXwXwXwXwXwXwXwXwXwXwXwXwXwXwXwXwXwXwXwXwXwXwXwXwXwXwXwX$ 2 - - - - - wXwXwXwX<X  wXwXwXwXwXwXwXwXwXwXwXwXwXwXwX",
"wXwXwXwXwXwXwXwXwXwXwXwXwXwXwXwXwXwXwXwXwXwXwXwXwXwXwXwXwXwXwXwX|.< wXwXwXwXwXwXwXwXwXoX,XwXwXwXwXwXwXwXwXwXwXwXwXwXwXwX",
"wXwXwXwXwXwXwXwXwXwXwXwXwXwXwXwXwXwXwXwXwXwXwXwXwXwXwXwXwXwX9.N.:X6 wXwXwXwXwXwXwXwXz <X=XwXwXwXwXwXwXwXwXwXwXwXwXwXwXwX",
"wXwXwXwXwXwXwXwXwXwXwXwXwXwXwXwXwXwXwXwXwXwXwXwXwXwXwXwXwXwX.X.X.X.XwXwXwXwXwXwXwXwXqX.XwXwXwXwXwXwXwXwXwXwXwXwXwXwXwXwX",
"wXwXwXwXwXwXwXwXwXwXwXwXwXwXwXwXwXwXwXwXwXwXwXwXwXwXwXwXwXwXwXwXwXwXwXwXwXwXwXwXwXwXwXwXwXwXwXwXwXwXwXwXwXwXwXwXwXwXwXwX",
"wXwXwXwXwXwXwXwXwXwXwXwXwXwXwXwXwXwXwXwXwXwXwXwXwXwXwXwXwXwXwXwXwXwXwXwXwXwXwXwXwXwXwXwXwXwXwXwXwXwXwXwXwXwXwXwXwXwXwXwX",
"wXwXwXwXwXwXwXwXwXwXwXwXwXwXwXwXwXwXwXwXwXwXwXwXwXwXwXwXwXwXwXwXwXwXwXwXwXwXwXwXwXwXwXwXwXwXwXwXwXwXwXwXwXwXwXwXwXwXwXwX",
"wXwXwXwXwXwXwXwXwXwXwXwXwXwXwXwXwXwXwXwXwXwXwXwXwXwXwXwXwXwXwXwXwXwXwXwXwXwXwXwXwXwXwXwXwXwXwXwXwXwXwXwXwXwXwXwXwXwXwXwX",
"wXwXwXwXwXwXwXwXwXwXwXwXwXwXwXwXwXwXwXwXwXwXwXwXwXwXwXwXwXwXwXwXwXwXwXwXwXwXwXwXwXwXwXwXwXwXwXwXwXwXwXwXwXwXwXwXwXwXwXwX"
};
