/* XPM */
static char *result[] = {
/* columns rows colors chars-per-pixel */
"60 60 203 2 ",
"   c black",
".  c #030101",
"X  c #040203",
"o  c #070304",
"O  c #060305",
"+  c #070407",
"@  c #0B0401",
"#  c #090404",
"$  c #0B0607",
"%  c #0D0706",
"&  c #000805",
"*  c #0B0907",
"=  c #0F0B06",
"-  c #020608",
";  c #040708",
":  c #0B060B",
">  c #0D070C",
",  c #000909",
"<  c #06090A",
"1  c #000F0F",
"2  c #09080A",
"3  c #0E0A08",
"4  c #0F080C",
"5  c #0E080D",
"6  c #0F080E",
"7  c #100608",
"8  c #11090B",
"9  c #130A0C",
"0  c #140B0D",
"q  c #1A0D0C",
"w  c #1B0E0C",
"e  c #1F160D",
"r  c #110910",
"t  c #110A11",
"y  c #150B11",
"u  c #170C15",
"i  c #1B0E11",
"p  c #1F0D10",
"a  c #1C0F13",
"s  c #180D16",
"d  c #190E17",
"f  c #0E1415",
"g  c #001E12",
"h  c #0D101B",
"j  c #001A19",
"k  c #081A1A",
"l  c #1D1310",
"z  c #1F1114",
"x  c #1F1814",
"c  c #1F1118",
"v  c #1C101B",
"b  c #1E111D",
"n  c #251211",
"m  c #261312",
"M  c #221216",
"N  c #291015",
"B  c #20121B",
"V  c #26161B",
"C  c #21121F",
"Z  c #24141C",
"A  c #27151F",
"S  c #2E151A",
"D  c #2F151A",
"F  c #281F19",
"G  c #2E181F",
"H  c #3E181C",
"J  c #002717",
"K  c #2F2114",
"L  c #111B20",
"P  c #131C20",
"I  c #320C2A",
"U  c #261524",
"Y  c #2B1721",
"T  c #291727",
"R  c #2A1727",
"E  c #201D2E",
"W  c #2D1929",
"Q  c #301A21",
"!  c #321B23",
"~  c #3C1820",
"^  c #381E26",
"/  c #341D2B",
"(  c #331C2C",
")  c #351D2D",
"_  c #381E2D",
"`  c #391F2F",
"'  c #301F30",
"]  c #002B29",
"[  c #002F2D",
"{  c #14272D",
"}  c #003822",
"|  c #172931",
" . c #112E35",
".. c #1A323E",
"X. c #1B323E",
"o. c #19343F",
"O. c #28282F",
"+. c #39202F",
"@. c #3E2231",
"#. c #3D293A",
"$. c #382C3E",
"%. c #383839",
"&. c #511E1E",
"*. c #42211E",
"=. c #56201E",
"-. c #73301A",
";. c #401A22",
":. c #4E1F22",
">. c #570E31",
",. c #5C0F30",
"<. c #681623",
"1. c #711826",
"2. c #7D1A2A",
"3. c #751539",
"4. c #7A1F39",
"5. c #462126",
"6. c #482226",
"7. c #462924",
"8. c #42232C",
"9. c #45242E",
"0. c #46252F",
"q. c #5D2E2A",
"w. c #45342B",
"e. c #412433",
"r. c #432533",
"t. c #452634",
"y. c #472635",
"u. c #492631",
"i. c #482736",
"p. c #4A2836",
"a. c #4E2A38",
"s. c #512B36",
"d. c #502B38",
"f. c #522C39",
"g. c #532C39",
"h. c #552D39",
"j. c #562D3B",
"k. c #582E3B",
"l. c #592F3C",
"z. c #483930",
"x. c #4D3B31",
"c. c #4F3C32",
"v. c #5B303D",
"b. c #6E2C27",
"n. c #772C2A",
"m. c #00653C",
"M. c #5A4539",
"N. c #5F493C",
"B. c #69432E",
"V. c #113E45",
"C. c #67174C",
"Z. c #0F4146",
"A. c #0B4749",
"S. c #0A484A",
"D. c #00504C",
"F. c #00524F",
"G. c #005350",
"H. c #015350",
"J. c #005652",
"K. c #005F50",
"L. c #006E41",
"P. c #00674E",
"I. c #006F4D",
"U. c #00724D",
"Y. c #007A48",
"T. c #007E4B",
"R. c #6D5345",
"E. c #625B59",
"W. c #90352F",
"Q. c #962033",
"!. c #B34D31",
"~. c #8C1F48",
"^. c #991D41",
"/. c #913145",
"(. c #E22A6B",
"). c #924843",
"_. c #A44D57",
"`. c #8D6956",
"'. c #8F6D5A",
"]. c #9A7763",
"[. c #C15843",
"{. c #D0675F",
"}. c #CB6960",
"|. c #D56A62",
" X c #D56B62",
".X c #DE7E70",
"XX c #B28870",
"oX c #DF926F",
"OX c #E18474",
"+X c #E48A77",
"@X c #FBA96B",
"#X c #FFB06D",
"$X c #85858A",
"%X c #9B9CA2",
"&X c #ABABB2",
"*X c #EC9C85",
"=X c #D1A185",
"-X c #DEA388",
";X c #E1AC8E",
":X c #F1B898",
">X c #FFC3A1",
",X c #FAC7AB",
"<X c None",
/* pixels */
"<X<X<X<X<X<X<X<X<X<X<X<X<X<X<X<X<X<X<X<X<X<X<X<X<X<X<X<X<X<X<X<X<X<X<X<X<X<X<X<X<X<X<X<X<X<X<X<X<X<X<X<X<X<X<X<X<X<X<X<X",
"<X<X<X<X<X<X<X<X<X<X<X<X<X<X<X<X<X<X<X<X<X<X<X<X<X<X<X<X<X<X<X<X<X<X<X<X<X<X<X<X<X<X<X<X<X<X<X<X<X<X<X<X<X<X<X<X<X<X<X<X",
"<X<X<X<X<X<X<X<X<X<X<X<X<X<X<X<X<X<X<X<X<X<X<X<X<X<X<X<X<X<X<X<X<X<X<X<X<X<X<X<X<X<X<X<X<X<X<X<X<X<X<X<X<X<X<X<X<X<X<X<X",
"<X<X<X<X<X<X<X<X<X<X<X<X<X<X<X<X<X<X<X<X<X<X<X<X<X<X<X<X<X<X<X<X<X<X<X<X<X<X<X<X<X<X<X<X<X<X<X<X<X<X<X<X<X<X<X<X<X<X<X<X",
"<X<X<X<X<X<X<X<X<X<X<X<X<X<X<X<X<X<X<X<X<X<X<X<X<X<X<X<X<X<X<X<X<X<X<X<X<X<X<X<X<X<X<X<X<X<X<X<X<X<X<X<X<X<X<X<X<X<X<X<X",
"<X<X<X<X<X<X<X<X<X<X<X<X<X<X<X<X<X<X<X<X<X<X<X<X<X<X<X<X<X<X<X<X<X<X<X<X<X<X<X<X<X<X<X<X<X<X<X<X<X<X<X<X<X<X<X<X<X<X<X<X",
"<X<X<X<X<X<X<X<X<X<X<X<X<X<X<X<X<X<X<X<X<X<X<X<X<X<X<X<X<X<X<X<X<X<X<X<X<X<X<X<X<X<X<X<X<X<X<X<X<X<X<X<X<X<X<X<X<X<X<X<X",
"<X<X<X<X<X<X<X<X<X<X<X<X<X<X<X<X<X<X<X<X<X<X<X<X<X<X<X<X<X<X<X<X<X<X<X<X<X<X<X<X<X<X<X<X<X<X<X<X<X<X<X<X<X<X<X<X<X<X<X<X",
"<X<X<X<X<X<X<X<X<X<X<X<X<X<X<X<X<X<X<X<X<X<X<X<X<X<X<X<X<X<X<X<X<X<X<X<X<X<X<X<X<X<X<X<X<X<X<X<X<X<X<X<X<X<X<X<X<X<X<X<X",
"<X<X<X<X<X<X<X<X<X<X<X<X<X<X<X<X<X<X<X<X<X<X<X<X<X<X<X<X<X<X<X<X<X<X<X<X<X<X<X<X<X<X<X<X<X<X<X<X<X<X<X<X<X<X<X<X<X<X<X<X",
"<X<X<X<X<X<X<X<X<X<X<X<X<X<X<X<X<X<X<X<X<X<X<X<X<X<X<X<X<X<X<X<X<X<X<X<X<X<X<X<X<X<X<X<X<X<X<X<X<X<X<X<X<X<X<X<X<X<X<X<X",
"<X<X<X<X<X<X<X<X<X<X<X<X<X<X<X<X<X<X<X<X<X<X<X<X<X<X<X<X<X<X<X<X<X<X<X<X<X<X<X<X<X<X<X<X<X<X<X<X<X<X<X<X<X<X<X<X<X<X<X<X",
"<X<X<X<X<X<X<X<X<X<X<X<X<X<X<X<X<X<X<X<X<X<X<X<X<X<X<X<X<X<X<X<X<X<X<X<X<X<X<X<X<X<X<X<X<X<X<X<X<X<X<X<X<X<X<X<X<X<X<X<X",
"<X<X<X<X<X<X<X<X<X<X<X<X<X<X<X<X<X<X<X<X<X<X<X<X<X<X<X<X<X<X<X<X<X<X<X<X<X<X<X<X<X<X<X<X<X<X<X<X<X<X<X<X<X<X<X<X<X<X<X<X",
"<X<X<X<X<X<X<X<X<X<X<X<X<X<X<X<X<X<X<X<X<X<X<X<X<X<X<X<X<X<X<X<X<X<X<X<X<X<X<X<X<X<X<X<X<X<X<X<X<X<X<X<X<X<X<X<X<X<X<X<X",
"<X<X<X<X<X<X<X<X<X<X<X<X<X<X<X<X<X<X<X<X<X<X<X<X<X<X<X<X<X<X<X<X<X<X<X<X<X<X<X<X<X<X<X<X<X<X<X<X<X<X<X<X<X<X<X<X<X<X<X<X",
"<X<X<X<X<X<X<X<X<X<X<X<X<X<X<X<X<X<X<X<X<X<X<X<X<X<X<X<X<X<X<X<X<X<X<X<X<X<X<X<X<X<X<X<X<X<X<X<X<X<X<X<X<X<X<X<X<X<X<X<X",
"<X<X<X<X<X<X<X<X<X<X<X<X<X<X<X<X<X<X<X<X<X<X<X<X<X<X<X<X<X<X<X<X<X<X<X<X<X<X<X<X<X<X<X<X<X<X<X<X<X<X<X<X<X<X<X<X<X<X<X<X",
"<X<X<X<X<X<X<X<X<X<X<X<X<X<X<X<X<X<X<X<X<X<X<X<X<X<X<X<X<X<X<X<X<X<X<X<X<X<X<X<X<X<X<X<X<X<X<X<X<X<X<X<X<X<X<X<X<X<X<X<X",
"<X<X<X<X<X<X<X<X<X<X<X<X<X<X<X<X<X<X<X<X<X<X<X<X<X<X<X<X<X<X<X<X<X<X<X<X<X<X<X<X<X<X<X<X<X<X<X<X<X<X<X<X<X<X<X<X<X<X<X<X",
"<X<X<X<X<X<X<X<X<X<X<X<X<X<X<X<X<X<X<X<X<X<X<X<X<X<X<X<X<X<X<X<X<X<X<X<X<X<X<X<X<X<X<X<X<X<X<X<X<X<X<X<X<X<X<X<X<X<X<X<X",
"<X<X<X<X<X<X<X<X<X<X<X<X<X<X<X<X<X<X<X<X<X<X<X<X<X<X<X<X<X<X<X<X<X<X<X<X<X<X      <X<X<X<X<X<X<X<X<X<X<X<X<X<X<X<X<X<X<X",
"<X<X<X<X<X<X<X<X<X<X<X<X<X<X<X<X<X<X<X<X<X<X<X<X<X<X<X<X<X<X<X<X<X<X<X<X  . 7 7 H &.<X<X<X<X<X<X<X<X<X<X<X<X<X<X<X<X<X<X",
"<X<X<X<X<X<X<X<X<X<X<X<X<X<X<X<X<X<X<X<X<X<X<X<X<X<X<X<X<X<X<X<X<X<X<X  :.p S ;.=.4.  <X<X<X<X<X<X<X<X<X<X<X<X<X<X<X<X<X",
"<X<X<X<X<X<X<X<X<X<X<X<X<X<X<X<X<X<X<X<X<X<X<X<X<X<X<X<X<X<X<X<X<X<X<X  9 ;XM.D n.I (.<X<X<X<X<X<X<X<X<X<X<X<X<X<X<X<X<X",
"<X<X<X<X<X<X<X<X<X<X<X<X<X<X<X<X<X<X<X<X<X<X<X<X<X<X<X<X<X<X<X<X<X<X<X<Xx.,X=Xz.~ 1.~.<X<X<X<X<X<X<X<X<X<X<X<X<X<X<X<X<X",
"<X<X<X<X<X<X<X<X<X<X<X<X<X<X<X<X<X<X<X<X<X<X<X<X<X<X<X<X<X<X<X<X<X<X<X<XN.>X>X>XN [ ..<X<X<X<X<X<X<X<X<X<X<X<X<X<X<X<X<X",
"<X<X<X<X<X<X<X<X<X<X<X<X<X<X<X<X<X<X<X<X<X<X<X<X<X<X<X<X<X<X<X<X<X<X<X<XN.>X>X.X  - <X<X<X<X<X<X<X<X<X<X<X<X<X<X<X<X<X<X",
"<X<X<X<X<X<X<X<X<X<X<X<X<X<X<X<X<X<X<X<X<X<X<X<X<X<X<X<X<X<X<X<X<X<X<X<X<Xc.OXq <X<X<X<X<X<X<X<X<X<X<X<X<X<X<X<X<X<X<X<X",
"<X<X<X<X<X<X<X<X<X<X<X<X<X<X<X<X<X<X<X<X<X<X<X<X<X<X<X<X<X<X<X<X<X<X<X<X  F *Xl %.<X<X<X<X<X<X<X<X<X<X<X<X<X<X<X<X<X<X<X",
"<X<X<X<X<X<X<X<X<X<X<X<X<X<X<X<X<X<X<X<X<X<X<X<X<X<X<X<X<X<X<X<X<X<X<XM ! E.].$Xu.M <X<X<X<X<X<X<X<X<X<X<X<X<X<X<X<X<X<X",
"<X<X<X<X<X<X<X<X<X<X<X<X<X<X<X<X<X<X<X<X<X<X<X<X<X<X<X<X<X<X<X<X<X  v.y.d %X&Xs.a j.^ <X<X<X<X<X<X<X<X<X<X<X<X<X<X<X<X<X",
"<X<X<X<X<X<X<X<X<X<X<X<X<X<X<X<X<X<X<X<X<X<X<X<X<X<X<X<X<X<X<X8 v.t.Y r 6 0.v.v._ Z v.  <X<X<X<X<X<X<X<X<X<X<X<X<X<X<X<X",
"<X<X<X<X<X<X<X<X<X<X<X<X<X<X<X<X<X<X<X<X<X<X<X<X<X<X<X<X<X<X<X8 v.v.U   6 8 v.v.y.s v.8.<X<X<X<X<X<X<X<X<X<X<X<X<X<X<X<X",
"<X<X<X<X<X<X<X<X<X<X<X<X<X<X<X<X<X<X<X<X<X<X<X<X<X<X<X<X<X<X<X8 v.) X XXR.v.v.v.r.t p.h.  <X<X<X<X<X<X<X<X<X<X<X<X<X<X<X",
"<X<X<X<X<X<X<X<X<X<X<X<X<X<X<X<X<X<X<X<X<X<X<X<X<X<X<X<X<X<X<X8 k.O z '.>X8 v.a.B u A v.Q <X<X<X<X<X<X<X<X<X<X<X<X<X<X<X",
"<X<X<X<X<X<X<X<X<X<X<X<X<X<X<X<X<X<X<X<X<X<X<X<X<X<X<X<X<X<X<X<X/ i z   h E d.` T T y g.v.$ <X<X<X<X<X<X<X<X<X<X<X<X<X<X",
"<X<X<X<X<X<X<X<X<X<X<X<X<X<X<X<X<X<X<X<X<X<X<X<X<X<X<X<X<X<X<X<Xv 0     Q./.O.b b > 6 t.v.v.<X<X<X<X<X<X<X<X<X<X<X<X<X<X",
"<X<X<X<X<X<X<X<X<X<X<X<X<X<X<X<X<X<X<X<X<X<X<X<X<X<X<X<X<X<X<X<X<X<X<X  2.T ' $.+.c 5 W l.v.<X<X<X<X<X<X<X<X<X<X<X<X<X<X",
"<X<X<X<X<X<X<X<X<X<X<X<X<X<X<X<X<X<X<X<X<X<X<X<X<X<X<X<X<X<X<X<X<X<X<X<.,.T T #.e.l.  : W k.a <X<X<X<X<X<X<X<X<X<X<X<X<X",
"<X<X<X<X<X<X<X<X<X<X<X<X<X<X<X<X<X<X<X<X<X<X<X<X<X<X<X<X<X<X<X<X<X<X  ^.>.T R e.a.v.G <X<X4 o <X<X<X<X<X<X<X<X<X<X<X<X<X",
"<X<X<X<X<X<X<X<X<X<X<X<X<X<X<X<X<X<X<X<X<X<X<X<X<X<X<X<X<X<X<X<X<X<X} 3.C.+ R e.f.v.^ <X3 :X<X<X<X<X<X<X<X<X<X<X<X<X<X<X",
"<X<X<X<X<X<X<X<X<X<X<X<X<X<X<X<X<X<X<X<X<X<X<X<X<X<X<X<X<X<X<X<X<X<Xm.k < + R e.f.v.9.<X>X>X<X<X<X<X<X<X<X<X<X<X<X<X<X<X",
"<X<X<X<X<X<X<X<X<X<X<X<X<X<X<X<X<X<X<X<X<X<X<X<X<X<X<X<X<X<X<X<X<Xg T.Z.P 2 R e.f.v.v.K * 7.*.<X<X<X<X<X<X<X<X<X<X<X<X<X",
"<X<X<X<X<X<X<X<X<X<X<X<X<X<X<X<X<X<X<X<X<X<X<X<X<X<X<X<X<X<X<X<X<XL.T.Z.| f T @.f.v.^ % = = = <X<X<X<X<X<X<X<X<X<X<X<X<X",
"<X<X<X<X<X<X<X<X<X<X<X<X<X<X<X<X<X<X<X<X<X<X<X<X<X<X<X<X<X<X<X<X<XL.T.H.X.f T @.f.v.^ w e e e <X<X<X<X<X<X<X<X<X<X<X<X<X",
"<X<X<X<X<X<X<X<X<X<X<X<X<X<X<X<X<X<X<X<X<X<X<X<X<X<X<X<X<X<X<X<X<XL.T.J.X.f T @.f.v.^ _. X@X#X<X<X<X<X<X<X<X<X<X<X<X<X<X",
"<X<X<X<X<X<X<X<X<X<X<X<X<X<X<X<X<X<X<X<X<X<X<X<X<X<X<X<X<X<X<X<X<XL.T.K.V.f T T i.v.^ 5.6.q.B.<X<X<X<X<X<X<X<X<X<X<X<X<X",
"<X<X<X<X<X<X<X<X<X<X<X<X<X<X<X<X<X<X<X<X<X<X<X<X<X<X<X<X<X<X<X<X<XL.T.P.S.L T T ( p.V { D.<X<X<X<X<X<X<X<X<X<X<X<X<X<X<X",
"<X<X<X<X<X<X<X<X<X<X<X<X<X<X<X<X<X<X<X<X<X<X<X<X<X<X<X<X<X<X<X<X<X  T.T.J. .C C C ; { F.n <X<X<X<X<X<X<X<X<X<X<X<X<X<X<X",
"<X<X<X<X<X<X<X<X<X<X<X<X<X<X<X<X<X<X<X<X<X<X<X<X<X<X<X<X<X<X<X<X<X<X# Y.I.J.H.o.o.A.G.  }.x <X<X<X<X<X<X<X<X<X<X<X<X<X<X",
"<X<X<X<X<X<X<X<X<X<X<X<X<X<X<X<X<X<X<X<X<X<X<X<X<X<X<X<X<X<X<X<X<X<X).& T.U.J.J.J.] , <X% -X<X<X<X<X<X<X<X<X<X<X<X<X<X<X",
"<X<X<X<X<X<X<X<X<X<X<X<X<X<X<X<X<X<X<X<X<X<X<X<X<X<X<X<X<X<X<X<X<X  !.<X<XJ j j 1 <X<X<X@ oXw.<X<X<X<X<X<X<X<X<X<X<X<X<X",
"<X<X<X<X<X<X<X<X<X<X<X<X<X<X<X<X<X<X<X<X<X<X<X<X<X<X<X<X<X<X<X<X`.[.|.<X<X<X<X<X<X<X<X<X-.+Xb.<X<X<X<X<X<X<X<X<X<X<X<X<X",
"<X<X<X<X<X<X<X<X<X<X<X<X<X<X<X<X<X<X<X<X<X<X<X<X<X<X<X<X<X<X<X<XW.W.W.<X<X<X<X<X<X<X<Xm {.W.<X<X<X<X<X<X<X<X<X<X<X<X<X<X",
"<X<X<X<X<X<X<X<X<X<X<X<X<X<X<X<X<X<X<X<X<X<X<X<X<X<X<X<X<X<X<X<X<X<X<X<X<X<X<X<X<X<X<X<X<X<X<X<X<X<X<X<X<X<X<X<X<X<X<X<X",
"<X<X<X<X<X<X<X<X<X<X<X<X<X<X<X<X<X<X<X<X<X<X<X<X<X<X<X<X<X<X<X<X<X<X<X<X<X<X<X<X<X<X<X<X<X<X<X<X<X<X<X<X<X<X<X<X<X<X<X<X",
"<X<X<X<X<X<X<X<X<X<X<X<X<X<X<X<X<X<X<X<X<X<X<X<X<X<X<X<X<X<X<X<X<X<X<X<X<X<X<X<X<X<X<X<X<X<X<X<X<X<X<X<X<X<X<X<X<X<X<X<X",
"<X<X<X<X<X<X<X<X<X<X<X<X<X<X<X<X<X<X<X<X<X<X<X<X<X<X<X<X<X<X<X<X<X<X<X<X<X<X<X<X<X<X<X<X<X<X<X<X<X<X<X<X<X<X<X<X<X<X<X<X",
"<X<X<X<X<X<X<X<X<X<X<X<X<X<X<X<X<X<X<X<X<X<X<X<X<X<X<X<X<X<X<X<X<X<X<X<X<X<X<X<X<X<X<X<X<X<X<X<X<X<X<X<X<X<X<X<X<X<X<X<X"
};
