/* XPM */
static char *e71ccf420b6b4dc4972ec8e1177bac59HEy3g3sQOJbXNRxU[] = {
/* columns rows colors chars-per-pixel */
"60 60 200 2 ",
"   c None",
".  c black",
"X  c #020101",
"o  c #030103",
"O  c #030302",
"+  c #050303",
"@  c #060305",
"#  c #070407",
"$  c #090404",
"%  c #0D0606",
"&  c #0F0607",
"*  c #040709",
"=  c #090508",
"-  c #090509",
";  c #0A0509",
":  c #0B0608",
">  c #0D0708",
",  c #0E0709",
"<  c #0E0809",
"1  c #0F0809",
"2  c #0F080C",
"3  c #0F080E",
"4  c #11090B",
"5  c #10090C",
"6  c #130A0C",
"7  c #130A0D",
"8  c #160C0F",
"9  c #00170E",
"0  c #0C0F11",
"q  c #110A11",
"w  c #130A12",
"e  c #170C15",
"r  c #180D13",
"t  c #1B0E12",
"y  c #1D0F12",
"u  c #190E18",
"i  c #001514",
"p  c #0C1012",
"a  c #0A1317",
"s  c #0E1415",
"d  c #0B161B",
"f  c #151617",
"g  c #1F1114",
"h  c #1E111D",
"j  c #1F111D",
"k  c #23080B",
"l  c #2E0A0F",
"z  c #280F0F",
"x  c #221012",
"c  c #221216",
"v  c #281015",
"b  c #231B16",
"n  c #27151A",
"m  c #21121D",
"M  c #21121F",
"N  c #24141C",
"B  c #2C171E",
"V  c #281C1A",
"C  c #341311",
"Z  c #33151B",
"A  c #36161D",
"S  c #351A18",
"D  c #3B1D1B",
"F  c #3A181F",
"G  c #002616",
"H  c #3E2B1A",
"J  c #270A21",
"K  c #320C2A",
"L  c #380E2F",
"P  c #231321",
"I  c #261522",
"U  c #261524",
"Y  c #291727",
"T  c #2C1827",
"R  c #2B1828",
"E  c #2D1929",
"W  c #331B22",
"Q  c #351C23",
"!  c #3D1921",
"~  c #3C1C20",
"^  c #331C2C",
"/  c #381F2E",
"(  c #3E0F34",
")  c #17272E",
"_  c #152832",
"`  c #1A2F3A",
"'  c #003533",
"]  c #1A303B",
"[  c #1B323E",
"{  c #19343F",
"}  c #342521",
"|  c #362026",
" . c #3C2920",
".. c #31252A",
"X. c #3D2028",
"o. c #3E212A",
"O. c #3F212A",
"+. c #3A202F",
"@. c #3F3028",
"#. c #3C2130",
"$. c #3E2231",
"%. c #3F2332",
"&. c #501D1A",
"*. c #401A22",
"=. c #4F1F24",
"-. c #661522",
";. c #611527",
":. c #40222B",
">. c #44242D",
",. c #582225",
"<. c #5F2424",
"1. c #4D3829",
"2. c #533923",
"3. c #51362E",
"4. c #422332",
"5. c #432431",
"6. c #412433",
"7. c #422433",
"8. c #442534",
"9. c #452634",
"0. c #492731",
"q. c #4E2934",
"w. c #4F2935",
"e. c #4C2937",
"r. c #4D2937",
"t. c #512B39",
"y. c #542C3A",
"u. c #542D3A",
"i. c #562D3B",
"p. c #582E3B",
"a. c #592F3C",
"s. c #5A2F3C",
"d. c #503D32",
"f. c #5B303D",
"g. c #652D27",
"h. c #71262E",
"j. c #7C2E2B",
"k. c #6C332C",
"l. c #773B37",
"z. c #00462A",
"x. c #00653C",
"c. c #594438",
"v. c #5F493C",
"b. c #6F4D2F",
"n. c #173640",
"m. c #163741",
"M. c #153841",
"N. c #6B174D",
"B. c #6F174D",
"V. c #711240",
"C. c #751C4A",
"Z. c #672F40",
"A. c #084A4B",
"S. c #005651",
"D. c #005652",
"F. c #005E50",
"G. c #005F50",
"H. c #00684E",
"J. c #00764C",
"K. c #00794B",
"L. c #007E4B",
"P. c #006050",
"I. c #6E5446",
"U. c #8B391D",
"Y. c #811B2B",
"T. c #A32237",
"R. c #AC4D39",
"E. c #B5523D",
"W. c #8D603C",
"Q. c #8F633D",
"!. c #85154B",
"~. c #8C174F",
"^. c #8E174E",
"/. c #8F184E",
"(. c #98214D",
"). c #A82049",
"_. c #C52A42",
"`. c #C42944",
"'. c #ED2A7D",
"]. c #AE4C45",
"[. c #A74F58",
"{. c #8F6D5A",
"}. c #9F7964",
"|. c #A47D67",
" X c #D36961",
".X c #D56A62",
"XX c #C07360",
"oX c #BF8451",
"OX c #81897D",
"+X c #AF846D",
"@X c #B1876F",
"#X c #CF8F58",
"$X c #EF9568",
"%X c #CF9E82",
"&X c #DBA78A",
"*X c #F0A38A",
"=X c #F5BB9A",
"-X c #FCC09F",
";X c #FFC3A1",
":X c #F6CBB4",
/* pixels */
"                                                                                                                        ",
"                                                                                                                        ",
"                                                                                                                        ",
"                                                                                                                        ",
"                                                                                                                        ",
"                                                                                                                        ",
"                                                                                                                        ",
"                                                                                                                        ",
"                                                                                                                        ",
"                                                                                                                        ",
"                                                                                                                        ",
"                                                                                                                        ",
"                                                                                                                        ",
"                                                                                                                        ",
"                                                                                                                        ",
"                                                                                                                        ",
"                                                                                                                        ",
"                                                                                                                        ",
"                                                                                                                        ",
"                                                                                  . . .                                 ",
"                                                                              . % v v <.z                               ",
"                                                                            . ,.A F *.C h..                             ",
"                                                                            . , }.+ ! j.K '.                            ",
"                                                                            . I.;X%Xy =.;.(.                            ",
"                                                                              d.:X{.{.Z ..Z.                            ",
"                                                                              c.v.@X*X, d                               ",
"                                                                              |.;X+X.                                   ",
"                                                                            . ;X. .X%                                   ",
"                                                                          :.8 V v.&X. 4                                 ",
"                                                                        1 p.5 g } OX| f.>.                              ",
"                                                                        B t.+.4 5 B f.X.f.r                             ",
"                                                                        a.#.P . B f.f.3 e.X.                            ",
"                                                                      c #.Y h w f.f.5.. N f..                           ",
"                                                                      : : . Y W f.f.+ 5 e f.0.                          ",
"                                                                          . : ^ e.f.e.m . 4.f.Q                         ",
"                                                                          5.w u h R / Y   r f.f.1                       ",
"                                                                          . T.T.-.@ m :   3 9.f.8                       ",
"                                                                          . C.e Y E 5.    3 E a.f.                      ",
"                                                                        k _./.J Y 9.a.8     : T i.                      ",
"                                                                        Y.).~.B.3 9.f.X.      . b                       ",
"                                                                      l `.~.~.~.L E a.f.      =X@.                      ",
"                                                                      9 f V.!.N.( I i.f.n   1.-X3.                      ",
"                                                                    . L.J.D.i . . # #.f.n   #X. .X                      ",
"                                                                    z.L.F.D.{ [ ` p T i.e.D oXoXoX2.                    ",
"                                                                    x.L.D.D.[ [ [ s U i.f.x l.W.W.H                     ",
"                                                                  . L.L.D.D.[ [ [ s U i.f.~ [. X$Xb.                    ",
"                                                                  . L.L.D.D.[ [ [ s U #.e.. . . . .                     ",
"                                                                  . L.L.D.D.[ [ [ s U Y .                               ",
"                                                                  . L.L.D.D.M.[ [ s : 0 a                               ",
"                                                                    z.L.H.D.A.[ [ ) ) `                                 ",
"                                                                    . L.K.D.D.m.[ [ [ *                                 ",
"                                                                    l.G L.F.D.D.m.] _ $                                 ",
"                                                                    l.. 9 L.P.D.' . . S                                 ",
"                                                                  . E..             U. .                                ",
"                                                                &.R.].&.          g.XXk.                                ",
"                                                                                                                        ",
"                                                                                                                        ",
"                                                                                                                        ",
"                                                                                                                        ",
"                                                                                                                        "
};
