/* XPM */
static char * Idle_1_xpm[] = {
"50 50 165 2",
"  	c None",
". 	c #020102",
"+ 	c #1A0E14",
"@ 	c #2B1316",
"# 	c #4B1B1B",
"$ 	c #230C0A",
"% 	c #221216",
"& 	c #4C1E24",
"* 	c #501D1B",
"= 	c #3C1B1C",
"- 	c #34141A",
"; 	c #5A1A26",
"> 	c #40141C",
", 	c #3D2B25",
"' 	c #43322A",
") 	c #0D090C",
"! 	c #6E2929",
"~ 	c #791747",
"{ 	c #140B0B",
"] 	c #5A453B",
"^ 	c #DCA88B",
"/ 	c #CE9E83",
"( 	c #73193F",
"_ 	c #D32963",
": 	c #1F1016",
"< 	c #BB927C",
"[ 	c #FEC3A1",
"} 	c #1F111C",
"| 	c #310D13",
"1 	c #861A3D",
"2 	c #9F2247",
"3 	c #181009",
"4 	c #967664",
"5 	c #EFC2AA",
"6 	c #B18A73",
"7 	c #BB9D8E",
"8 	c #2B151B",
"9 	c #562E3A",
"0 	c #352724",
"a 	c #D5A386",
"b 	c #8F6D5A",
"c 	c #1B0B0E",
"d 	c #0F2C32",
"e 	c #F0A98E",
"f 	c #7D5E4D",
"g 	c #D2907A",
"h 	c #AA5556",
"i 	c #8F4741",
"j 	c #A2504A",
"k 	c #F7BC9B",
"l 	c #EFA886",
"m 	c #7A443D",
"n 	c #2B2925",
"o 	c #6E6E72",
"p 	c #F9BD9C",
"q 	c #AE8873",
"r 	c #787476",
"s 	c #524A4E",
"t 	c #3A1C24",
"u 	c #2D1A1E",
"v 	c #3D212D",
"w 	c #656165",
"x 	c #756A66",
"y 	c #7E6253",
"z 	c #534C51",
"A 	c #492734",
"B 	c #2E1929",
"C 	c #2E1A23",
"D 	c #5D565B",
"E 	c #5E5E61",
"F 	c #4C2935",
"G 	c #592F3B",
"H 	c #331B25",
"I 	c #42232C",
"J 	c #391F2D",
"K 	c #3D2131",
"L 	c #1B0F19",
"M 	c #24131C",
"N 	c #422432",
"O 	c #4A3C3C",
"P 	c #140B12",
"Q 	c #331B2A",
"R 	c #291724",
"S 	c #241422",
"T 	c #0C060A",
"U 	c #090406",
"V 	c #7F1B2B",
"W 	c #AF253B",
"X 	c #A22237",
"Y 	c #2C0A11",
"Z 	c #0E0D13",
"` 	c #160713",
" .	c #270B20",
"..	c #2B0922",
"+.	c #5B303D",
"@.	c #240B1E",
"#.	c #4E0E2D",
"$.	c #85154B",
"%.	c #30081C",
"&.	c #030807",
"*.	c #9B1B4B",
"=.	c #220B15",
"-.	c #C22845",
";.	c #430F19",
">.	c #060B0D",
",.	c #512828",
"'.	c #11141A",
").	c #172932",
"!.	c #0E1017",
"~.	c #926A59",
"{.	c #68453B",
"].	c #0E5043",
"^.	c #073A36",
"/.	c #0E453A",
"(.	c #00754B",
"_.	c #AE846B",
":.	c #EEB696",
"<.	c #007C4B",
"[.	c #966740",
"}.	c #5D422C",
"|.	c #664435",
"1.	c #9D504A",
"2.	c #45231F",
"3.	c #2E2014",
"4.	c #5A2D29",
"5.	c #E88F65",
"6.	c #FFB06D",
"7.	c #EBA264",
"8.	c #49321F",
"9.	c #114A40",
"0.	c #472328",
"a.	c #4D3621",
"b.	c #CF6960",
"c.	c #EC9167",
"d.	c #002C2A",
"e.	c #044746",
"f.	c #12222B",
"g.	c #9E4A54",
"h.	c #D97263",
"i.	c #DE8D60",
"j.	c #00663C",
"k.	c #002315",
"l.	c #00170E",
"m.	c #005B43",
"n.	c #002C1C",
"o.	c #004339",
"p.	c #005935",
"q.	c #00614E",
"r.	c #005130",
"s.	c #773B36",
"t.	c #211A17",
"u.	c #001E1D",
"v.	c #865A4C",
"w.	c #341A13",
"x.	c #230E07",
"y.	c #90482E",
"z.	c #B15B3C",
"A.	c #9B583E",
"B.	c #3F3028",
"C.	c #7A2E28",
"D.	c #964137",
"E.	c #9F453A",
"F.	c #A44F43",
"G.	c #9D493F",
"H.	c #80332D",
"                                                                                                    ",
"                                            . + @ @ @ # $                                           ",
"                                          . . . . . . % & *                                         ",
"                                        . # = - - = ; # > ;                                         ",
"                                        . + , ' ) @ = ! > ~                                         ",
"                                        . { ] ^ / , @ ! - ( _                                       ",
"                                        . : < [ / ] } = | 1 2                                       ",
"                                        . 3 4 5 6 7 ] 8 % 9                                         ",
"                                          0 a [ [ [ b c ) d                                         ",
"                                          0 a [ [ e f . .                                           ",
"                                            ] b g h @                                               ",
"                                              . i j @                                               ",
"                                            . f k l m . .                                           ",
"                                        { n o 4 p q r s t { )                                       ",
"                                      + u v w x y x z A t B 8                                       ",
"                                      u % C D E o s F G % H F +                                     ",
"                                      8 % I J r z I 9 K L H 9 :                                     ",
"                                      . M N I z O F A N P H G :                                     ",
"                                      . L v A 8 J A N N + H 9 :                                     ",
"                                    { L P v M H A N N Q ) Q 9 %                                     ",
"                                    . P R R S R K K Q R ) Q 9 9 c                                   ",
"                                    P P R P T L } S R R P Q 9 9 +                                   ",
"                                  U 8 L U V W W X Y Z R P B 9 G t T                                 ",
"                                  U R R P U . . U U U U U L v G Q T                                 ",
"                                  U R L 8 R ` L S R R B { M u A t T                                 ",
"                                  C J L M R  . .L B J M t 9 F N R U                                 ",
"                                . U R + M R  ...L B K L I G +.N R U                                 ",
"                                . t } + C @.#.$.%.S K M C 9 F v M &.                                ",
"                                . t R % B L $.*.%.M K J M C N B S P                                 ",
"                                  U P } Q =.1 -.;.M N N R U L R R `                                 ",
"                                    + N Q T &.>.U M K N C ,.,.` R +                                 ",
"                                    + N Q Z '.).!.M Q J C ~.{.} } P                                 ",
"                                    + I Q Z d ].^.'.R ` 4 p f H P .                                 ",
"                                    + A Q Z /.(./.!.S : _.:.f H +                                   ",
"                                    C N J Z /.<./.P P [.}.|.1.2..                                   ",
"                                  U K N Q Z /.(./.>.. 3.3 { = { .                                   ",
"                                  U & K Q Z /.<./.>.4.5.6.6.6.7.8.                                  ",
"                                    T B B Z /.<.9.>.{ = 0.a.a.8.3                                   ",
"                                      T P ) /.<./.Z 0.h b.c.6.7.a.                                  ",
"                                        d.e.].<.9.f.0.g.h b.h.i.a.                                  ",
"                                        d.(.<.<.<.j.k.l.l.l.&.. .                                   ",
"                                        d.m.<.<.<.<.<.<.<.j.n.                                      ",
"                                        . o.<.<.<.<.<.<.<.p.                                        ",
"                                        . ^.q.<.<.<.<.<.j.k.                                        ",
"                                        . u ^.q.(.p.r.r.3.{                                         ",
"                                        . s.t.u.n.l.  . v.,                                         ",
"                                        . s.w.        . b ,                                         ",
"                                      x.y.z.w.      x.y.z.w.                                        ",
"                                    |.A.l a B.    |.A.l a B.                                        ",
"                                  C.D.E.F.G.H.  C.D.E.F.F.H.                                        "};
