/* XPM */
static char * Jump_1_xpm[] = {
"50 53 159 2",
"  	c None",
". 	c #010101",
"+ 	c #0B0506",
"@ 	c #271516",
"# 	c #571724",
"$ 	c #491A19",
"% 	c #46171C",
"& 	c #471C23",
"* 	c #3B1E26",
"= 	c #34131B",
"- 	c #5A2728",
"; 	c #6A2726",
"> 	c #7A1746",
", 	c #871846",
"' 	c #230713",
") 	c #8E6D5A",
"! 	c #47362D",
"~ 	c #2D161C",
"{ 	c #3C1A1F",
"] 	c #AD2248",
"^ 	c #8F1F48",
"/ 	c #99745F",
"( 	c #D9A88D",
"_ 	c #977765",
": 	c #1D1014",
"< 	c #220C1C",
"[ 	c #7F2E2A",
"} 	c #BD3760",
"| 	c #B48E79",
"1 	c #B59788",
"2 	c #4E3B34",
"3 	c #082116",
"4 	c #005A35",
"5 	c #631E32",
"6 	c #FFC3A1",
"7 	c #7C5E4E",
"8 	c #120A0D",
"9 	c #054A2D",
"0 	c #121312",
"a 	c #685041",
"b 	c #B58A72",
"c 	c #F8BD9C",
"d 	c #96725E",
"e 	c #231416",
"f 	c #34261B",
"g 	c #AB836B",
"h 	c #5B5A51",
"i 	c #40443E",
"j 	c #2D181F",
"k 	c #3C212D",
"l 	c #73695B",
"m 	c #6C7369",
"n 	c #2E1926",
"o 	c #452534",
"p 	c #4D2935",
"q 	c #522B35",
"r 	c #18090A",
"s 	c #5E6059",
"t 	c #462F35",
"u 	c #5B303D",
"v 	c #1B0E19",
"w 	c #291726",
"x 	c #492734",
"y 	c #542C3A",
"z 	c #592F3C",
"A 	c #4F2A38",
"B 	c #24131C",
"C 	c #140B13",
"D 	c #381F2E",
"E 	c #331B24",
"F 	c #190D13",
"G 	c #0C060A",
"H 	c #341C2B",
"I 	c #1E111D",
"J 	c #43232D",
"K 	c #3E2230",
"L 	c #2D1929",
"M 	c #664C41",
"N 	c #564236",
"O 	c #251522",
"P 	c #765647",
"Q 	c #64453A",
"R 	c #0B0B0D",
"S 	c #8A1D2F",
"T 	c #5D131F",
"U 	c #3F3028",
"V 	c #2F0911",
"W 	c #D7A487",
"X 	c #9F2135",
"Y 	c #A31E49",
"Z 	c #2F0A25",
"` 	c #C72B43",
" .	c #9A1C49",
"..	c #7C174E",
"+.	c #003C23",
"@.	c #007445",
"#.	c #292A24",
"$.	c #A52439",
"%.	c #8C174F",
"&.	c #5F174C",
"*.	c #975443",
"=.	c #DA925E",
"-.	c #DF9A5F",
";.	c #6E4C2F",
">.	c #00764C",
",.	c #005C50",
"'.	c #004A47",
").	c #3D0E2E",
"!.	c #67402D",
"~.	c #005652",
"{.	c #064C4C",
"].	c #10343A",
"^.	c #14242B",
"/.	c #4D0C2B",
"(.	c #621546",
"_.	c #7D3A43",
":.	c #BF5C5C",
"<.	c #DB7663",
"[.	c #F6A26A",
"}.	c #FFB06D",
"|.	c #7C5434",
"1.	c #007C49",
"2.	c #02504D",
"3.	c #163741",
"4.	c #1B323E",
"5.	c #142125",
"6.	c #773B36",
"7.	c #A24C57",
"8.	c #D56A62",
"9.	c #E38265",
"0.	c #001C10",
"a.	c #0F181C",
"b.	c #0D4347",
"c.	c #00624F",
"d.	c #123C43",
"e.	c #0D1314",
"f.	c #200E12",
"g.	c #00361F",
"h.	c #004136",
"i.	c #492C27",
"j.	c #08181C",
"k.	c #162A33",
"l.	c #341A17",
"m.	c #070E11",
"n.	c #12191B",
"o.	c #230E07",
"p.	c #90482E",
"q.	c #AB4F33",
"r.	c #35170C",
"s.	c #C77763",
"t.	c #9B583E",
"u.	c #E28E73",
"v.	c #B9655B",
"w.	c #070A0B",
"x.	c #95422E",
"y.	c #7B372E",
"z.	c #9F453B",
"A.	c #993C35",
"B.	c #82312A",
"                                                                                                    ",
"                                                                                                    ",
"                                                                                                    ",
"                                                                                                    ",
"                                                                                                    ",
"                                                                                                    ",
"                                                                                                    ",
"                                                                                                    ",
"                                                                                                    ",
"                                                                                                    ",
"                                                                                                    ",
"                                  . . . .                                                           ",
"                              + . . + @ # $                                                         ",
"                              % & * # % = - &                                                       ",
"                              + @ = & ; = > , '                                                     ",
"                              ) ! + ~ { % > ] ^                                                     ",
"                              / ( _ : = < [ ^ }                                                     ",
"                              / | 1 2 : 3 4 5                                                       ",
"                              / 6 6 7 8 3 9 0                                                       ",
"                              / 6 6 ) : 8 +                                                         ",
"                              a ) b c d e +                                                         ",
"                                  f g c / h i j k k :                                               ",
"                                    . / l m . n o p q r . .                                         ",
"                                      0 s t u @ v w x y z u n r                                     ",
"                                      . 8 A u o B C w D A z u x E F                                 ",
"                                      G ~ E u u p H 8 I D A u u u p F                               ",
"                                        F j E q u A H C I D A u u u x :                             ",
"                                          E F J u u o H C I K A z u u E                             ",
"                                          F 8 k u u y K v v L o z u p M N                           ",
"                                            O o y u x D w C I K p u J P Q                           ",
"                                            B K D k D L w 8 I L x y J + d N                         ",
"                                          F n F R e n w w I v w D y J G ! 7                         ",
"                                          C R S ] T . . . . . O D k F   . ) U                       ",
"                                          . ' V F F w w D q B 8 O w G . / W U                       ",
"                                          T X Y , Z v L x z p C C G   U 7 b U                       ",
"                                    . + S ` `  ...Z v L x z p 8   . . 8 8 0 + .                     ",
"                                  +.@.@.#.$.Y %...&.< O x z u *   r *.=.-.-.-.;.                    ",
"                                +.@.>.,.'.H # > %...).v K y z *   + * - !.;.;.f                     ",
"                              +.@.>.,.~.{.].^.O /.%.(.v L A z y @ + _.:.<.[.}.|.                    ",
"                              9 1.>.2.~.3.4.4.4.5.. . G L A u u j + 6.7.:.8.9.|.                    ",
"                            0.4 >.,.~.{.3.4.4.3.3.3.4.a.v o y u k + . . . . . .                     ",
"                            +.1.>.,.~.b.4.4.4.4.4.4.4.a.C H y u z e                                 ",
"                            +.1.c.~.~.d.4.4.4.4.4.4.4.e.C H y u u :                                 ",
"                            +.1.c.~.b.4.4.4.4.4.4.4.4.a.C H y u u :                                 ",
"                            +.1.c.~.b.4.4.4.4.4.4.4.4.a.C H x z u f.                                ",
"                            +.1.c.~.b.4.4.4.4.4.4.4.^.e.C w K y u :                                 ",
"                            +.1.c.~.b.3.4.4.4.4.4.4.5.e.C w K y n                                   ",
"                              g.h.{.b.4.4.4.4.4.4.4.5.e.C w K x @                                   ",
"                              . i.5.j.k.4.4.4.4.4.3.5.e.C w o E                                     ",
"                              . 6.l.  . m.].4.4.4.^.n.e.C w H N a                                   ",
"                            o.p.q.r.      . a.k.^.n.n.e.8 R . % s.7                                 ",
"                          u t.u.v.l.          . R R R w..     r.x.s.i.                              ",
"                        8 y.z.q.A.[                           B.A.x.B.                              "};
