/* XPM */
static char * Jump_2_xpm[] = {
"50 53 167 2",
"  	c None",
". 	c #010101",
"+ 	c #0B0506",
"@ 	c #140A0C",
"# 	c #231116",
"$ 	c #240B0D",
"% 	c #3B1515",
"& 	c #2C1315",
"* 	c #5D1420",
"= 	c #4A1D17",
"- 	c #35151B",
"; 	c #401A22",
"> 	c #522225",
", 	c #3D0F34",
"' 	c #671846",
") 	c #2B0D16",
"! 	c #281A18",
"~ 	c #1A0D12",
"{ 	c #2C161C",
"] 	c #531330",
"^ 	c #AB2148",
"/ 	c #661534",
"( 	c #513D34",
"_ 	c #99745F",
": 	c #846553",
"< 	c #342421",
"[ 	c #1C0C0F",
"} 	c #701530",
"| 	c #962048",
"1 	c #A72853",
"2 	c #544035",
"3 	c #9F928F",
"4 	c #453F40",
"5 	c #240B11",
"6 	c #1B4032",
"7 	c #802F4A",
"8 	c #B82A4C",
"9 	c #19192C",
"0 	c #4D3B30",
"a 	c #E1AB8D",
"b 	c #FFC3A1",
"c 	c #D7A487",
"d 	c #0C060A",
"e 	c #005334",
"f 	c #015935",
"g 	c #001A0F",
"h 	c #092E1E",
"i 	c #10110F",
"j 	c #F6BC9B",
"k 	c #B88C73",
"l 	c #755949",
"m 	c #37231B",
"n 	c #D09F83",
"o 	c #6A5D52",
"p 	c #472F35",
"q 	c #532C39",
"r 	c #43232C",
"s 	c #1E1014",
"t 	c #46362A",
"u 	c #787163",
"v 	c #6E7269",
"w 	c #483338",
"x 	c #4C2836",
"y 	c #2D1924",
"z 	c #442533",
"A 	c #3D212D",
"B 	c #351C23",
"C 	c #3E2231",
"D 	c #5B303D",
"E 	c #391F2D",
"F 	c #140B13",
"G 	c #331C2B",
"H 	c #592F3C",
"I 	c #1F111D",
"J 	c #291726",
"K 	c #6C3437",
"L 	c #23121B",
"M 	c #241421",
"N 	c #3A1F27",
"O 	c #410E31",
"P 	c #4F2A38",
"Q 	c #1B0E19",
"R 	c #4A2736",
"S 	c #6E5445",
"T 	c #9D2136",
"U 	c #55121D",
"V 	c #2C122C",
"W 	c #644D3F",
"X 	c #2E1A29",
"Y 	c #3A0C13",
"Z 	c #931F31",
"` 	c #B9273E",
" .	c #2A0C0F",
"..	c #8B174E",
"+.	c #5E1342",
"@.	c #210B1C",
"#.	c #44332A",
"$.	c #420E17",
"%.	c #A12137",
"&.	c #8F184E",
"*.	c #84174E",
"=.	c #452C1D",
"-.	c #6B452E",
";.	c #6F4D2F",
">.	c #48311E",
",.	c #20060A",
"'.	c #791441",
").	c #1E0719",
"!.	c #4E3622",
"~.	c #006D43",
"{.	c #007948",
"].	c #2B0A25",
"^.	c #70343A",
"/.	c #C8625E",
"(.	c #E68666",
"_.	c #FEAE6C",
":.	c #A57246",
"<.	c #00351F",
"[.	c #00764C",
"}.	c #005D50",
"|.	c #015551",
"1.	c #123B43",
"2.	c #071B17",
"3.	c #A95058",
"4.	c #F39D6A",
"5.	c #A26E45",
"6.	c #04534D",
"7.	c #0E4247",
"8.	c #0E2429",
"9.	c #0D1214",
"0.	c #060709",
"a.	c #462126",
"b.	c #5C2828",
"c.	c #67352D",
"d.	c #004428",
"e.	c #173740",
"f.	c #16262E",
"g.	c #121A1C",
"h.	c #080A0C",
"i.	c #004B2C",
"j.	c #1B323E",
"k.	c #1A2F3A",
"l.	c #094F49",
"m.	c #064B48",
"n.	c #070A0B",
"o.	c #101719",
"p.	c #073E26",
"q.	c #182C35",
"r.	c #101B20",
"s.	c #172831",
"t.	c #006D4D",
"u.	c #4C2523",
"v.	c #004327",
"w.	c #00693E",
"x.	c #C3624B",
"y.	c #652D21",
"z.	c #110703",
"A.	c #763422",
"B.	c #DE8C70",
"C.	c #CF8B74",
"D.	c #8D3730",
"E.	c #9A3C32",
"F.	c #772C27",
"G.	c #00120E",
"H.	c #863F36",
"I.	c #B14A35",
"J.	c #A3483D",
"                                                                                                    ",
"                                                                                                    ",
"                                                                                                    ",
"                                                                                                    ",
"                                                                                                    ",
"                                                                                                    ",
"                                                                                                    ",
"                                                                                                    ",
"                                                                                                    ",
"                                                                                                    ",
"                                                                                                    ",
"                                                                                                    ",
"                                                                                                    ",
"                                  . . + @ #                                                         ",
"                              $ % & & % & * =                                                       ",
"                              @ - ; = > % , ' )                                                     ",
"                              @ ! ~ { > % ] ^ /                                                     ",
"                              ( _ : < - [ } | 1                                                     ",
"                              2 : 3 4 5 [ 6 7 8 5 9                                                 ",
"                              0 a b c < d e f g                                                     ",
"                              0 a b c < d h i                                                       ",
"                              0 a b j : ~ +                                                         ",
"                                . . k b l . . . . . .                                               ",
"                                    m k n o p q q q r s @                                           ",
"                                      t u v w x y y z q A B B 5                                     ",
"                                        i C q D E d F G q D D q r @                                 ",
"                                        { ! r H D A I F J C q H K 4 B                               ",
"                                          L L A H D z M F M C q D D D N                             ",
"                                            @ ~ A D q z M F y O H 4 D H A                           ",
"                                            d F B D P z G Q F E z H D D r #                         ",
"                                              { H P E G J M F M C q D P 0 l                         ",
"                                            @ r P G F L J J F F C R D q ! S (                       ",
"                                            s z G ) T U . . . Q V z H q @ S W                       ",
"                                              F d U ~ Q X G P # L C P r ~ . _ 2                     ",
"                                              . Y 5 L X z P H A I G A ~   ( n 2                     ",
"                                            Y Z ` / Q G R q D D s M I   . S j 2                     ",
"                                           .Z ^ ..+.@.M E R H D p s .   #.W : t                     ",
"                                        $.%.^ &...*.O Q E R q H H ( { =.-.;.;.;.>.                  ",
"                                      . ,.$.'.....*.O ).X C P H H ' { & !.!.!.!.m                   ",
"                                    g ~.{.{.h ) *.*.+.].Q C R H D D { ^./.(._._.:.                  ",
"                                    <.~.[.}.|.1.2.V , ).Q E R H D D { K 3./.(.4.5.                  ",
"                                  . f {.}.|.6.1.7.8.9.0.Q X C q D D { ! a.> b.c.=.                  ",
"                                  d.[.}.|.|.1.e.e.e.f.g.h.L C P D D q s                             ",
"                                  i.[.}.6.1.j.j.e.k.f.g.h.M C P H D D #                             ",
"                                  i.[.}.1.e.j.j.e.9 g.g.h.M C q D D D #                             ",
"                                  i.[.l.e.j.j.j.f.I 9.0.. M C q D D D s                             ",
"                                  i.[.m.e.j.j.f.h.. n.o.h.L C P D D H s                             ",
"                                  p.~.l.e.j.q.o.r.r.g.g.n.I G P D H {                               ",
"                                  . e |.1.e.k.k.j.s.g.g.n.I G P q R I                               ",
"                                  . f t.6.j.j.j.j.k.s.g.h.Q G C z J c.u.                            ",
"                                  . v.w.t.|.m.j.j.s.r.o.0.M J M Q = x.n (                           ",
"                                  u.y.t v.m.}.6.7.8.g.9.h.F F d z.A.B.C.^.                          ",
"                                  D.E.D.F.! G.G.G.0.. 0.. .   . H.I.J.                              "};
