/* XPM */
static char * Jump_7_xpm[] = {
"61 50 192 2",
"  	c None",
". 	c #5E221E",
"+ 	c #010101",
"@ 	c #47362D",
"# 	c #765B4B",
"$ 	c #0E0A0D",
"% 	c #321A22",
"& 	c #592E3B",
"* 	c #45242E",
"= 	c #563E35",
"- 	c #C77B5D",
"; 	c #753924",
"> 	c #1A0E12",
", 	c #512A36",
"' 	c #5B303D",
") 	c #1A0B0D",
"! 	c #C47865",
"~ 	c #E8A07E",
"{ 	c #84452E",
"] 	c #2A1317",
"^ 	c #3D212B",
"/ 	c #140A0D",
"( 	c #AA5844",
"_ 	c #DC9577",
": 	c #884539",
"< 	c #441816",
"[ 	c #CD8C71",
"} 	c #F6AF93",
"| 	c #301409",
"1 	c #221216",
"2 	c #3C1C25",
"3 	c #0D161B",
"4 	c #1D1615",
"5 	c #AC846D",
"6 	c #9F7A64",
"7 	c #241A1B",
"8 	c #0A1213",
"9 	c #17282F",
"0 	c #1A313D",
"a 	c #12333A",
"b 	c #393934",
"c 	c #93705D",
"d 	c #5A4538",
"e 	c #2E191E",
"f 	c #0B0609",
"g 	c #040B0A",
"h 	c #14252C",
"i 	c #192F39",
"j 	c #0B4245",
"k 	c #04534C",
"l 	c #14423D",
"m 	c #87705D",
"n 	c #7F6150",
"o 	c #501D1A",
"p 	c #291727",
"q 	c #552D3A",
"r 	c #041A1B",
"s 	c #022423",
"t 	c #173640",
"u 	c #0C4548",
"v 	c #005652",
"w 	c #00433C",
"x 	c #664D40",
"y 	c #DCA88B",
"z 	c #5F493C",
"A 	c #6D5344",
"B 	c #E9AE90",
"C 	c #B86756",
"D 	c #4F2A38",
"E 	c #152024",
"F 	c #004441",
"G 	c #0C0F12",
"H 	c #182932",
"I 	c #103E45",
"J 	c #565145",
"K 	c #E8AD8F",
"L 	c #FFC3A1",
"M 	c #F5BB9A",
"N 	c #ECB494",
"O 	c #DD8F71",
"P 	c #DD975E",
"Q 	c #FAB997",
"R 	c #F3AA8F",
"S 	c #2E1923",
"T 	c #013D3A",
"U 	c #0E1920",
"V 	c #4F4136",
"W 	c #BE9278",
"X 	c #481D0F",
"Y 	c #86371C",
"Z 	c #23131B",
"` 	c #412433",
" .	c #004E34",
"..	c #070E12",
"+.	c #0A2A2B",
"@.	c #68594B",
"#.	c #8E6C59",
"$.	c #D4A285",
"%.	c #704730",
"&.	c #1E101B",
"*.	c #3E2231",
"=.	c #045648",
"-.	c #4C342C",
";.	c #A44D57",
">.	c #CE9D81",
",.	c #2D231C",
"'.	c #552625",
").	c #4C2935",
"!.	c #2A161C",
"~.	c #0E2126",
"{.	c #603A32",
"].	c #D56A62",
"^.	c #DC7869",
"/.	c #753A35",
"(.	c #3A1A1D",
"_.	c #1B0E19",
":.	c #121E23",
"<.	c #00764C",
"[.	c #024429",
"}.	c #7C3D39",
"|.	c #D86F62",
"1.	c #E08374",
"2.	c #BD7361",
"3.	c #4B2522",
"4.	c #AF5851",
"5.	c #362725",
"6.	c #241423",
"7.	c #B45A53",
"8.	c #6B3531",
"9.	c #9E4F49",
"0.	c #2B302D",
"a.	c #003936",
"b.	c #090405",
"c.	c #7C1C41",
"d.	c #BE365D",
"e.	c #140B13",
"f.	c #044D4B",
"g.	c #00674E",
"h.	c #006D42",
"i.	c #381615",
"j.	c #60302C",
"k.	c #232727",
"l.	c #003633",
"m.	c #230E12",
"n.	c #6B1730",
"o.	c #A02048",
"p.	c #9C1F48",
"q.	c #007C4A",
"r.	c #013D25",
"s.	c #934846",
"t.	c #260E0E",
"u.	c #00110C",
"v.	c #7E213D",
"w.	c #952549",
"x.	c #434F4B",
"y.	c #07462B",
"z.	c #00351F",
"A.	c #360D2A",
"B.	c #581228",
"C.	c #091A19",
"D.	c #007344",
"E.	c #112E36",
"F.	c #3C2D25",
"G.	c #492733",
"H.	c #2E1A29",
"I.	c #094B46",
"J.	c #481C21",
"K.	c #391326",
"L.	c #341C2B",
"M.	c #002919",
"N.	c #006A3F",
"O.	c #846655",
"P.	c #9C6A43",
"Q.	c #C15E5D",
"R.	c #8D4446",
"S.	c #AC8F80",
"T.	c #C9A999",
"U.	c #B78C73",
"V.	c #30251E",
"W.	c #381F2B",
"X.	c #FFB06D",
"Y.	c #F6A16A",
"Z.	c #3A291B",
"`.	c #5F4228",
" +	c #553724",
".+	c #100708",
"++	c #17110E",
"@+	c #1F1814",
"#+	c #865E3C",
"$+	c #DF9A5F",
"%+	c #AB634C",
"&+	c #9C7762",
"                                                                                                                          ",
"                                                                                                                          ",
"                                                                                                                          ",
"                                                                                                                          ",
"                                                                                                                          ",
"                                                                                                                          ",
"                                                                                                                          ",
"                                                                    .                                                     ",
"                                                                + + @ #                                                   ",
"                                                            $ % & * = - ;                                                 ",
"                                                        > % , ' * )   ! ~ {                                               ",
"                                                      ] , ' ' ^ /     ( _ ~ :                                             ",
"                                                    ] , ' ' * $       < [ } ( |                                           ",
"                                                  1 , ' ' & 2         3 3 4 5 6 7                                         ",
"                                                / * & ' ' * >       8 9 0 a b c d                                         ",
"                                                % , ' ' & e f + g 8 h i j k l m n                           o             ",
"                                              + p q ' ' q ) r s $ h t i u v w x y z         + + + + + + + A B C           ",
"                                              + % q ' ' D E F s G H t I v v F J K #     / $ 5 L L L M N O P Q R C         ",
"                                              + S D ' ' 7 w T 8 U H t I v v F s V 5 A n N L W 5 5 5 V + + X Y - _ C       ",
"                                              + Z ` & ' 7 w  .g ..G 3 U s +.@.#.#.c y $.n A @                 X %.!       ",
"                                              + &.*.& % E =. .-.;.[ >.>.$.$.N L L M A ,.                          '.      ",
"                                              + &.^ ).!.~.=. .{.].^.} L L L } ^./.f /.(.                                  ",
"                                              + _.p ^ &.:.k <.[.}.].|.1.R 2.: 3.}.4.5.                                    ",
"                                              > &.6.p _.:.=.<.[.: |.7.%.8.8.}.9./.0.a.r                                   ",
"            b.c.d.                          1 , 1 &.p e.~.f.g.h.0.i.'.: 9.4.j.k.T f.v l.                                  ",
"          m.n.o.p.. +                     1 , ' ).1 6.e.G a v q.r.: s.t.+ g T v v v v T u.                                ",
"        < v.o.p.w.x.y.$                 1 ).' ' , Z &.6.G +.=.q.q.z.g E i u k v v v f.+.                                  ",
"      t.3.A.A.B.^ y.[.C.f           4 1 e % * ' q *._.e.f C.j g.q.D.[.8 :.i 0 u u u E...                                  ",
"      / m.< . i.] m.e./ F.z b.e ^ ^ ).' G.^ G.' ).*.H.6.&.G h I.<.q.D.r.g 3 E 9 0 0 3                                     ",
"      + i.'.J.K.m./ + ,.W M A ^ ' ' ' ' & ' & D *.L.p e.+ + + + + + M.N.D.M.+ + + b.                                      ",
"      + ) K.(.m.4 O.L L M #.+ 2 q G.G.q q D *.L.p 6.6.e.P.1.|.Q.;.R.k.=.<.q.q.h.[.                                        ",
"      + ) J.] F.S.T.L L U.V.+ 2 ).!.1 L.W.L.p p &._.e.+ P.X.Y.^.Q.s.S s a.[.[.u.                                          ",
"        i.'.1 #.>.$.L L U.V.  1 ).' G.1 G $ / $ b.    + Z.`.`. +'.(..+                                                    ",
"          .++ ++@+@+@+@+@+    f 5.q ' ).> +             #+$+$+$+$+%+(.                                                    ",
"                                / W.' ' & * f           + b.+ + b.+ +                                                     ",
"                                  > ^ ' & & & 2 >         `.Z.@ #+ +                                                      ",
"                                    / p ).& ' ' q ^ % 1 + + d N A                                                         ",
"                                      f 6.W.` , ' ' q ^ 8 5.W &+7                                                         ",
"                                        f &.A.L.` ` *.1 &+[ V.+                                                           ",
"                                          $ :.p p 6.e.f + +                                                               ",
"                                            e.p 6._./ / b.                                                                ",
"                                            b._._./ / +                                                                   ",
"                                              + + + +                                                                     ",
"                                                                                                                          ",
"                                                                                                                          ",
"                                                                                                                          ",
"                                                                                                                          ",
"                                                                                                                          ",
"                                                                                                                          ",
"                                                                                                                          "};
