/* XPM */
static char * jump_4_xpm[] = {
"50 50 172 2",
"  	c None",
". 	c #4E3B31",
"+ 	c #43342A",
"@ 	c #97735F",
"# 	c #EEB696",
"$ 	c #FFC3A1",
"% 	c #D4A286",
"& 	c #9E7864",
"* 	c #382A24",
"= 	c #1B0E13",
"- 	c #0A0405",
"; 	c #010001",
"> 	c #18120F",
", 	c #1F1814",
"' 	c #0F0B06",
") 	c #43232C",
"! 	c #512A36",
"~ 	c #221216",
"{ 	c #F4BA9A",
"] 	c #CF9E82",
"^ 	c #C99A7F",
"/ 	c #4D2935",
"( 	c #532C39",
"_ 	c #2A151C",
": 	c #1E1114",
"< 	c #6B5143",
"[ 	c #906E5B",
"} 	c #594338",
"| 	c #2F241E",
"1 	c #4F2A38",
"2 	c #5B303D",
"3 	c #2D191D",
"4 	c #492733",
"5 	c #322315",
"6 	c #795537",
"7 	c #4A352D",
"8 	c #150C14",
"9 	c #3D202D",
"0 	c #3E2231",
"a 	c #592F3C",
"b 	c #63362C",
"c 	c #925840",
"d 	c #9F6E44",
"e 	c #5A3E26",
"f 	c #2D1924",
"g 	c #432533",
"h 	c #331B23",
"i 	c #562424",
"j 	c #69442D",
"k 	c #291727",
"l 	c #2E1929",
"m 	c #351D2B",
"n 	c #3C1B22",
"o 	c #793846",
"p 	c #AE5953",
"q 	c #D3685E",
"r 	c #F19968",
"s 	c #FFB06D",
"t 	c #91643D",
"u 	c #1E111B",
"v 	c #644D3F",
"w 	c #DDAF96",
"x 	c #49141D",
"y 	c #3D1615",
"z 	c #57282E",
"A 	c #8C4344",
"B 	c #9F4F49",
"C 	c #0C0A0C",
"D 	c #130A0D",
"E 	c #230A1E",
"F 	c #121E23",
"G 	c #231421",
"H 	c #D4A388",
"I 	c #A48372",
"J 	c #230C0D",
"K 	c #18060A",
"L 	c #2E090F",
"M 	c #4F1E24",
"N 	c #87736A",
"O 	c #2A1216",
"P 	c #641421",
"Q 	c #6A1625",
"R 	c #1A0E19",
"S 	c #23131D",
"T 	c #7C5C4E",
"U 	c #866755",
"V 	c #791928",
"W 	c #C82A44",
"X 	c #C12943",
"Y 	c #901E30",
"Z 	c #36171C",
"` 	c #0D070B",
" .	c #6A2725",
"..	c #531D1D",
"+.	c #B32347",
"@.	c #8A174E",
"#.	c #380C2B",
"$.	c #002415",
"%.	c #003720",
"&.	c #162627",
"*.	c #350F1C",
"=.	c #2D0D23",
"-.	c #BE2840",
";.	c #80174E",
">.	c #00633A",
",.	c #922048",
"'.	c #802040",
").	c #91184E",
"!.	c #5C174C",
"~.	c #87194C",
"{.	c #9D2247",
"].	c #901C44",
"^.	c #004C2D",
"/.	c #007D4B",
"(.	c #153D29",
"_.	c #731C35",
":.	c #65174C",
"<.	c #B72C5D",
"[.	c #260614",
"}.	c #007447",
"|.	c #172A33",
"1.	c #601339",
"2.	c #76174D",
"3.	c #000D07",
"4.	c #00644F",
"5.	c #03514E",
"6.	c #082728",
"7.	c #47123C",
"8.	c #573D32",
"9.	c #005651",
"0.	c #123C43",
"a.	c #192E39",
"b.	c #0C1315",
"c.	c #005431",
"d.	c #006C4D",
"e.	c #005C50",
"f.	c #09494A",
"g.	c #163741",
"h.	c #1B323E",
"i.	c #0A0F12",
"j.	c #101618",
"k.	c #12191C",
"l.	c #05090A",
"m.	c #004428",
"n.	c #00744D",
"o.	c #0E4246",
"p.	c #15242B",
"q.	c #0A281B",
"r.	c #006B3F",
"s.	c #17353F",
"t.	c #2F3125",
"u.	c #0F3138",
"v.	c #0D161B",
"w.	c #35160C",
"x.	c #2A1108",
"y.	c #A44838",
"z.	c #4C2524",
"A.	c #552615",
"B.	c #B75B3D",
"C.	c #632D1E",
"D.	c #CC645A",
"E.	c #C05A53",
"F.	c #C37457",
"G.	c #E08270",
"H.	c #693631",
"I.	c #A94C42",
"J.	c #BA5445",
"K.	c #A84740",
"L.	c #89342E",
"M.	c #983B35",
"N.	c #C27665",
"O.	c #90352F",
"                                                                                                    ",
"                                                                                                    ",
"                                                                                                    ",
"                                      . . . +                                                       ",
"                                    @ # $ $ % & * = -                                               ",
"                                  ; > , , , , , ' ) ! ~ ;                                           ",
"                                & $ { % ] ^ / ( _ : ) ( ! ~                                         ",
"                              < # { [ >   } | 1 2 / 3 3 / 4 ~                                       ",
"                            5 6 7 7 6       8 4 2 2 2 ! _ 9 / =                                     ",
"                          ; - ' ' ' ' -     = 0 1 a 2 2 / : 9 ( =                                   ",
"                          ; b c d d d e   - f 0 g 1 2 2 2 g ~ h ) ~                                 ",
"                          ; i 6 c d d j ; 8 k l m 0 g ( 2 2 4 n h 3       ; ; ; ; ; ; ;             ",
"                          ; o p q r s t - u k k k l m g 4 a 2 2 ) _ =   v w # # # # . x y           ",
"                          ; z o A B p j C D D = E E F u G m g a 2 n - ; v # $ H I v = n J           ",
"                                  ; K L _ / ( ) f 3 3 3 3 = G g ( a M = & { $ w N * O n = ;         ",
"                                  - P Q x D f 1 a a a a ( g R S m g ( 4 T U | 3 = O M M y ;         ",
"                                V W X Q P Y Z 0 g g a ( ( g g = ` G k F - ` 8 ~ Z y  ...O K         ",
"                              V X +.@.#.` ~ u l 0 0 g g g 0 m l R 8 8 - - ` $.%.&.x *.=.M J         ",
"                            V -.+.@.;.#.R 0 f u l m 0 g m k R `           - &.>.o ,.,.'...K         ",
"                          ; Y +.).@.;.!.=.S h = k k k k G -                 - L ~.{.].*.            ",
"                        ^./.(._.@.@.:.!.#.R g n R R G ` ;                         <.[.              ",
"                      ^.}./.}.|.1.2.!.!.!.E 9 a ) f `                                               ",
"                    3.>././.4.5.6.D 7.!.=.G 1 a :.8.1 ~                                             ",
"                    $.>./.4.9.5.0.a.b.` 8 G m ( 2 2 2 1 8                                           ",
"                  ; c./.d.e.9.f.g.h.h.h.F i.8 : m 1 ( g _                                           ",
"                  ; c./.d.5.5.0.h.h.g.a.a.F j.b.C f 0 g m D                                         ",
"                  ; c./.d.9.5.g.h.h.h.h.a.F k.l.K C l ) m `                                         ",
"                  $.>./.d.9.5.g.h.h.h.a.k.i.C D = > D k m D                                         ",
"                  m././.d.9.5.g.g.h.h.F D i.C > ~ ~ D 8 R                                           ",
"                  m././.d.9.5.g.a.g.h.h.a.F b.D : : ` = `                                           ",
"                  m././.n.e.9.f.g.h.h.h.h.&.b.C = D 8 D                                             ",
"                  m./././.4.9.5.0.h.h.h.h.h.&.b.` - `                                               ",
"                  m././././.e.9.o.h.h.h.h.h.|.k.l.                                                  ",
"                  m././././.4.9.9.0.h.h.h.h.h.p.l.                                                  ",
"                  q.r./././.n.e.9.f.s.h.h.h.|.&.l.                                                  ",
"                8.[ t.$.^././.d.9.9.u.v.i.i.Z w.                                                    ",
"                < <       ; ; ; ; ; ;     x.y.q z.                                                  ",
"              A.B.C.                    w.y.D.E.i                                                   ",
"            ..F.G.H.                  z.I.J.K.                                                      ",
"          A.J.D.y.L.                  L.M.                                                          ",
"        8.N.I.O.                                                                                    ",
"                                                                                                    ",
"                                                                                                    ",
"                                                                                                    ",
"                                                                                                    ",
"                                                                                                    ",
"                                                                                                    ",
"                                                                                                    ",
"                                                                                                    ",
"                                                                                                    "};
