/* XPM */
static char * Jump_6_xpm[] = {
"50 50 161 2",
"  	c None",
". 	c #4E2010",
"+ 	c #C87B68",
"@ 	c #633321",
"# 	c #A55045",
"$ 	c #E08F6E",
"% 	c #65301D",
"& 	c #CF8570",
"* 	c #B96A4C",
"= 	c #140807",
"- 	c #AA6859",
"; 	c #5F4228",
"> 	c #7A5D4C",
", 	c #544035",
"' 	c #01140C",
") 	c #002F1C",
"! 	c #00351F",
"~ 	c #5B4539",
"{ 	c #6D5244",
"] 	c #005B36",
"^ 	c #007E4B",
"/ 	c #007847",
"( 	c #003D23",
"_ 	c #010101",
": 	c #7F6150",
"< 	c #002616",
"[ 	c #006A3F",
"} 	c #8B6A57",
"| 	c #004327",
"1 	c #4D3B31",
"2 	c #876755",
"3 	c #FFC3A1",
"4 	c #002927",
"5 	c #00744C",
"6 	c #091619",
"7 	c #01664E",
"8 	c #AA816B",
"9 	c #003D3A",
"0 	c #001B1A",
"a 	c #96735F",
"b 	c #0F0A0C",
"c 	c #0A2B26",
"d 	c #00482B",
"e 	c #775B4B",
"f 	c #BF9278",
"g 	c #005552",
"h 	c #072620",
"i 	c #DA7665",
"j 	c #AA5B52",
"k 	c #2A161C",
"l 	c #3C232A",
"m 	c #036C41",
"n 	c #B78B73",
"o 	c #044D4C",
"p 	c #003734",
"q 	c #A3614F",
"r 	c #864740",
"s 	c #361E18",
"t 	c #130A12",
"u 	c #5B303D",
"v 	c #44242D",
"w 	c #002E2B",
"x 	c #00623A",
"y 	c #142418",
"z 	c #A3705E",
"A 	c #FABA9A",
"B 	c #E08273",
"C 	c #0C4548",
"D 	c #71341F",
"E 	c #E79178",
"F 	c #5F2F2B",
"G 	c #0C1C21",
"H 	c #035C4C",
"I 	c #5C362F",
"J 	c #D56A62",
"K 	c #173640",
"L 	c #0C2324",
"M 	c #783B27",
"N 	c #B7564D",
"O 	c #70302B",
"P 	c #200D11",
"Q 	c #502A35",
"R 	c #04544D",
"S 	c #42352A",
"T 	c #2C1415",
"U 	c #122229",
"V 	c #131E22",
"W 	c #815B4B",
"X 	c #C5695C",
"Y 	c #90342E",
"Z 	c #2E1924",
"` 	c #0D0D11",
" .	c #0F373C",
"..	c #006A4E",
"+.	c #00472A",
"@.	c #000F09",
"#.	c #00512F",
"$.	c #482734",
"%.	c #592E3B",
"&.	c #2E181F",
"*.	c #122227",
"=.	c #2A1725",
"-.	c #4F2A38",
";.	c #1E101C",
">.	c #140A0D",
",.	c #2D1929",
"'.	c #422433",
").	c #542C3A",
"!.	c #113F44",
"~.	c #3C2030",
"{.	c #1A0E19",
"].	c #064444",
"^.	c #261523",
"/.	c #351D2C",
"(.	c #22131B",
"_.	c #0C060A",
":.	c #3A1F2E",
"<.	c #4E2935",
"[.	c #1B1511",
"}.	c #16110D",
"|.	c #2A201A",
"1.	c #372523",
"2.	c #B7764F",
"3.	c #CB655F",
"4.	c #A74F58",
"5.	c #6A3138",
"6.	c #30071A",
"7.	c #C63564",
"8.	c #BF8451",
"9.	c #FEAF6C",
"0.	c #ED9368",
"a.	c #70353A",
"b.	c #501725",
"c.	c #961F45",
"d.	c #692637",
"e.	c #47311E",
"f.	c #57211F",
"g.	c #52183A",
"h.	c #811E49",
"i.	c #972849",
"j.	c #166D4B",
"k.	c #0E0A06",
"l.	c #090504",
"m.	c #381716",
"n.	c #1A0E14",
"o.	c #1B0B0E",
"p.	c #4C2D2B",
"q.	c #3E2A1B",
"r.	c #79573E",
"s.	c #270E0C",
"t.	c #602426",
"u.	c #441B21",
"v.	c #CD9C81",
"w.	c #3D1B23",
"x.	c #644E42",
"y.	c #B99E91",
"z.	c #331B26",
"A.	c #513E33",
"B.	c #231315",
"C.	c #18110F",
"D.	c #3F3028",
"                                                                                                    ",
"                                                                                                    ",
"                                                                                                    ",
"                                                                                                    ",
"                                                                                                    ",
"                                                        .                                           ",
"                                                        + @                                         ",
"                                                        # $ %                                       ",
"                                                          & * =                                     ",
"                                                          - & ;                                     ",
"                                                              > ,                                   ",
"                                        ' ) ! '               ~ {                                   ",
"                                          ] ^ / ( _             :                                   ",
"                                          < / ^ ^ [ <           } :                                 ",
"                                          < / ^ ^ ^ |           1 2                                 ",
"                                            ( ^ ^ ^ / |         1 3 ,                               ",
"                                            4 5 ^ ^ ^ ]         1 3 ,                               ",
"                                          _ 6 7 ^ ^ ^ ^ !       1 3 8           9 0                 ",
"                                        1 a b c [ ^ ^ ^ d       e 3 f       ' 9 g h                 ",
"                                  _ ~ + i j k l | ^ ^ ^ m '     n 3 - _ 0 o o g p _                 ",
"                                . q r s _ t u v w 5 ^ ^ ^ x y z A B l C g g g C c '                 ",
"                              D E F       v u v G H ^ ^ ^ ^ [ I J J l K o g K L (                   ",
"                            M i N O     P Q u v G R 5 ^ ^ ^ ^ [ S T 6 y U V h ] (                   ",
"                          W X Y         Z u u v `  ...^ ^ ^ ^ ^ ^ +.@.@.@.#.^ [ @.                  ",
"                                      b $.%.u u &.*.o ..^ ^ ^ ^ ^ ^ ^ ^ ^ ^ ^ (                     ",
"                                      =.-.%.u u %.;.*.o ..^ ^ ^ ^ ^ ^ ^ ^ 5 +.                      ",
"                                    >.,.'.).u u u ).;.*.!.g 5 ^ ^ ^ ^ ^ 7 p                         ",
"                                    b =.~.-.u u u u ).{.` V  .R ..5 7 ].G                           ",
"                                      {.,.~.'.).%.).'.,.^.t t G K K 6 _                             ",
"                                        ;.=./.l /./.,.=.t ^.=.{.>._                                 ",
"                                          ;.,.=.=.=.=.{.^.'.~.=.(.                                  ",
"                                            _.` t ` t =.).%.).:.V                                   ",
"                                                _ ^.t <.%.u %.:.{.    [.}.                          ",
"                                                _ {.=.%.u u %.:.b   _ |.1._ _                       ",
"                                                t &.u u %.%.).{._ _ 2.i 3.4.5.                      ",
"                                6.7.        k <.%.%.u u u ).,._.  _ 8.9.0.3.a.                      ",
"                              b.c.c.d.'   {.%.&.{.<.%.).-./.b     _ e.; ; ; s                       ",
"                            f.g.h.i.j.m b >.%.=.t /.'.:.^._     _.t k.k.k.k.l.                      ",
"                            T m.m.n.o.>.b 1 v ).=.{.{.b _ _ t n.l %.p.q.~ r.                        ",
"                            s.t.u.k n.k.> A : v %.k n.^.^.^./.Z _ _ v 1.v.e                         ",
"                            = w.P x.y.3 3 }   &.u %.z.;.{.n._.z.%.&.> > A.                          ",
"                            o.u.T a a 3 3 ~     k <.u u %.l z.u %.B._                               ",
"                              = C.S D.D.D.          n.Q %.u u u &.                                  ",
"                                                      _ k <.u u n.                                  ",
"                                                          _.>.>.l.                                  ",
"                                                                                                    ",
"                                                                                                    ",
"                                                                                                    ",
"                                                                                                    ",
"                                                                                                    "};
