/* XPM */
static char * jump_9_xpm[] = {
"50 50 172 2",
"  	c None",
". 	c #010001",
"+ 	c #1B0D12",
"@ 	c #3C171B",
"# 	c #2E100E",
"$ 	c #57201E",
"% 	c #481922",
"& 	c #3D191F",
"* 	c #682626",
"= 	c #2C0C0E",
"- 	c #3B1C24",
"; 	c #240C19",
"> 	c #351917",
", 	c #42251B",
"' 	c #59152E",
") 	c #340E26",
"! 	c #8D1F46",
"~ 	c #18060C",
"{ 	c #4A382F",
"] 	c #241414",
"^ 	c #461A1D",
"/ 	c #480D24",
"( 	c #931D43",
"_ 	c #5E0F2E",
": 	c #AD846C",
"< 	c #D6A487",
"[ 	c #6C5244",
"} 	c #2D1515",
"| 	c #A42046",
"1 	c #992448",
"2 	c #C93966",
"3 	c #94705D",
"4 	c #897972",
"5 	c #726B69",
"6 	c #1D1312",
"7 	c #033A23",
"8 	c #47454A",
"9 	c #151524",
"0 	c #B78B73",
"a 	c #FFC3A1",
"b 	c #554136",
"c 	c #120A0C",
"d 	c #033721",
"e 	c #006038",
"f 	c #041911",
"g 	c #0C1413",
"h 	c #EBB394",
"i 	c #43332A",
"j 	c #0C0609",
"k 	c #684F41",
"l 	c #E4AE90",
"m 	c #BB8F76",
"n 	c #644339",
"o 	c #4A2735",
"p 	c #542C39",
"q 	c #2E1A1E",
"r 	c #090406",
"s 	c #4D2935",
"t 	c #5B303D",
"u 	c #29161E",
"v 	c #22121B",
"w 	c #2D1821",
"x 	c #502A35",
"y 	c #341C25",
"z 	c #190D0D",
"A 	c #160C14",
"B 	c #5A2F3C",
"C 	c #3A1F28",
"D 	c #442431",
"E 	c #1A0E18",
"F 	c #291624",
"G 	c #1F111B",
"H 	c #44252D",
"I 	c #583C34",
"J 	c #3F2231",
"K 	c #795749",
"L 	c #9D7863",
"M 	c #49372E",
"N 	c #321B2B",
"O 	c #281A28",
"P 	c #382B24",
"Q 	c #241422",
"R 	c #392718",
"S 	c #8C6653",
"T 	c #3B0F19",
"U 	c #251812",
"V 	c #704D30",
"W 	c #050906",
"X 	c #8C1D2F",
"Y 	c #B6263D",
"Z 	c #A41F48",
"` 	c #6E1548",
" .	c #2C0E28",
"..	c #9E6D43",
"+.	c #CF8F58",
"@.	c #C47756",
"#.	c #572826",
"$.	c #020C0A",
"%.	c #511231",
"&.	c #781645",
"*.	c #5D164B",
"=.	c #1D140C",
"-.	c #002414",
";.	c #007E4B",
">.	c #004C2E",
",.	c #022C23",
"'.	c #13111A",
").	c #C38653",
"!.	c #FFB06D",
"~.	c #F39D6A",
"{.	c #D87264",
"].	c #B9595B",
"^.	c #00644D",
"/.	c #0B1419",
"(.	c #13242A",
"_.	c #102C2E",
":.	c #005B51",
"<.	c #BC7B51",
"[.	c #E58566",
"}.	c #A44D57",
"|.	c #4B2425",
"1.	c #007043",
"2.	c #006D4D",
"3.	c #0B4647",
"4.	c #080F14",
"5.	c #00724D",
"6.	c #005652",
"7.	c #08494A",
"8.	c #0D1D23",
"9.	c #082728",
"0.	c #123C43",
"a.	c #0B0B0E",
"b.	c #053D3D",
"c.	c #00514D",
"d.	c #122126",
"e.	c #005431",
"f.	c #004641",
"g.	c #001514",
"h.	c #173640",
"i.	c #16333D",
"j.	c #074B4B",
"k.	c #006147",
"l.	c #AD5650",
"m.	c #131616",
"n.	c #152731",
"o.	c #0F3F45",
"p.	c #004131",
"q.	c #003931",
"r.	c #2D2F2C",
"s.	c #693731",
"t.	c #B76B5B",
"u.	c #D09F84",
"v.	c #944943",
"w.	c #AA6659",
"x.	c #172B34",
"y.	c #793C37",
"z.	c #66322E",
"A.	c #111A1D",
"B.	c #8B6957",
"C.	c #5A4438",
"D.	c #8D3D22",
"E.	c #D46E51",
"F.	c #825947",
"G.	c #481D0F",
"H.	c #E2A182",
"I.	c #8A4F42",
"J.	c #39180C",
"K.	c #A0593E",
"L.	c #533D2C",
"M.	c #A24C42",
"N.	c #84342C",
"O.	c #9C4338",
"                                                                                                    ",
"                                                                                                    ",
"                                                                                                    ",
"                                                                                                    ",
"                                                                                                    ",
"                                                                                                    ",
"                                                                                                    ",
"                                                                                                    ",
"                                                                                                    ",
"                                                                                                    ",
"                                                                                                    ",
"                              . . . + @ #                                                           ",
"                          . $ % & * = - * #                                                         ",
"                          . ; > & , ' ) ! ' ~                                                       ",
"                          . { ] + & ^ / ! ( _                                                       ",
"                          . : < [ + } / | 1 2                                                       ",
"                          . 3 4 5 6 # 7 8 1   9                                                     ",
"                          . 0 a a b c d e f                                                         ",
"                          . 0 a a b c g g                                                           ",
"                          . 0 a a h i j                                                             ",
"                              . k l < i c +                                                         ",
"                                  [ m n o p q r                                                     ",
"                                    q s t t p s 6                                                   ",
"                                    + s u q p t p ]                                                 ",
"                                    + s s v w p t x y z                                             ",
"                                    A o B o v w p t t s C j                                         ",
"                                    c D t t o E F p B B t t q r                                     ",
"                                      G s t B o ; F o p B B t H I {                                 ",
"                                      c y B B B D E G J s B B v { K L M                             ",
"                                        . y B s N O A E N J v C p P L < P                           ",
"                                          A F u ; E j r E Q E y H R S : {                           ",
"                                            r T _ ~ E O E A F u U V R c R W                         ",
"                                          = X Y Z `  .j v Q F 6 ..+.+.+.@.#.                        ",
"                                        $.$.$.$.%.&.` *.; v F j z U =.=.z r                         ",
"                                      -.e ;.;.;.>.,.9 /  .'.v ] ).!.~.{.].#.+                       ",
"                                    -.e ;.;.;.;.^.,./.(._.:.d z <.[.{.].}.|.G c                     ",
"                                    -.1.;.;.;.2.-.e ;.;.;.2.3.4.. . . . . . G P c                   ",
"                                  $.e ;.;.;.;.;.;.;.5.5.:.6.7.8./.9.0.(.a.+ c c r                   ",
"                                  7 1.;.;.;.;.;.5.^.6.6.6.6.6.7.b.c.6.3.d.a.A j .                   ",
"                                . e.;.;.;.2.:.:.6.f.g.$.$.$.$._.h.i.h.j.b.4.~ A r                   ",
"                                . e.;.k.f.g.. . . > l.{.I m./.a.r /.n.i.o.(.W j                     ",
"                                . p.q.r.s.>         , t.u.y 4.(.(.8.a./.(.(.W                       ",
"                                . $.  ] v.|.          } w.S =.$./.x.d.g 4.g W                       ",
"                                        y.,             } z.]     . 8.x.A.a..                       ",
"                                        . y.>             n n         . . .                         ",
"                                          #.#.            > K {                                     ",
"                                          } z.              B.C.                                    ",
"                                        . D.E.s.            F.@.,                                   ",
"                                        G.@.H.I.          J.K.H.L.                                  ",
"                                      [ H.t.M.            N.O.M.N.                                  "};
