/* XPM */
static char * Run_3_xpm[] = {
"50 50 169 2",
"  	c None",
". 	c #020101",
"+ 	c #150809",
"@ 	c #2C1414",
"# 	c #350B11",
"$ 	c #4F1D19",
"% 	c #4B1D20",
"& 	c #39141C",
"* 	c #5D2324",
"= 	c #341211",
"- 	c #35141C",
"; 	c #6A2726",
"> 	c #1E1114",
", 	c #3D1921",
"' 	c #671436",
") 	c #140B0D",
"! 	c #49382E",
"~ 	c #2F211D",
"{ 	c #1A0E14",
"] 	c #521F23",
"^ 	c #8C1B4B",
"/ 	c #921B46",
"( 	c #99745F",
"_ 	c #D19F84",
": 	c #7E604F",
"< 	c #251413",
"[ 	c #2B161B",
"} 	c #BE3461",
"| 	c #736056",
"1 	c #757173",
"2 	c #281C18",
"3 	c #0E2218",
"4 	c #384543",
"5 	c #A72346",
"6 	c #0F0F1C",
"7 	c #FFC3A1",
"8 	c #7D5F4E",
"9 	c #032215",
"0 	c #005C36",
"a 	c #0B110D",
"b 	c #041B14",
"c 	c #05090B",
"d 	c #F3BA99",
"e 	c #513D33",
"f 	c #D6A387",
"g 	c #5B4539",
"h 	c #1A0B0D",
"i 	c #CB9B80",
"j 	c #876655",
"k 	c #4C2934",
"l 	c #592E3C",
"m 	c #5B303D",
"n 	c #482735",
"o 	c #0B060A",
"p 	c #47282F",
"q 	c #0A0406",
"r 	c #45242E",
"s 	c #391F2D",
"t 	c #3B202D",
"u 	c #3D2231",
"v 	c #432433",
"w 	c #4E2A38",
"x 	c #542C3A",
"y 	c #130A12",
"z 	c #2C1924",
"A 	c #513634",
"B 	c #6D5345",
"C 	c #352922",
"D 	c #2E1929",
"E 	c #1E101C",
"F 	c #2D1C1E",
"G 	c #B68A72",
"H 	c #C5977C",
"I 	c #1B0E19",
"J 	c #251423",
"K 	c #291727",
"L 	c #351D2C",
"M 	c #3D2E26",
"N 	c #6F4E33",
"O 	c #745746",
"P 	c #764539",
"Q 	c #723834",
"R 	c #371A19",
"S 	c #B1876F",
"T 	c #683830",
"U 	c #C38653",
"V 	c #CF8F58",
"W 	c #AD6E4B",
"X 	c #62302E",
"Y 	c #9A423A",
"Z 	c #7F5736",
"` 	c #614329",
" .	c #1A110C",
"..	c #22131C",
"+.	c #602D33",
"@.	c #A85054",
"#.	c #D46C62",
"$.	c #EE9468",
"%.	c #FFB06D",
"&.	c #2F2113",
"*.	c #141E23",
"=.	c #562B33",
"-.	c #974751",
";.	c #C7655B",
">.	c #861A34",
",.	c #481027",
"'.	c #591340",
").	c #360C2A",
"!.	c #941E32",
"~.	c #001A0F",
"{.	c #00341F",
"].	c #671545",
"^.	c #3B0E31",
"/.	c #007C4B",
"(.	c #007646",
"_.	c #01544A",
":.	c #002C29",
"<.	c #331828",
"[.	c #00724D",
"}.	c #015450",
"|.	c #0B4549",
"1.	c #162A33",
"2.	c #0A0B0D",
"3.	c #00693E",
"4.	c #005C51",
"5.	c #0A484A",
"6.	c #1A323D",
"7.	c #182C36",
"8.	c #123C43",
"9.	c #004B2C",
"0.	c #00644F",
"a.	c #173640",
"b.	c #12191C",
"c.	c #78584A",
"d.	c #995B4A",
"e.	c #B4533F",
"f.	c #E99C84",
"g.	c #BD6554",
"h.	c #006C4E",
"i.	c #16252C",
"j.	c #CE8572",
"k.	c #441C0E",
"l.	c #BB5A49",
"m.	c #B36454",
"n.	c #00653C",
"o.	c #422225",
"p.	c #9F4D47",
"q.	c #5A342E",
"r.	c #542516",
"s.	c #A55346",
"t.	c #16323B",
"u.	c #142025",
"v.	c #592C29",
"w.	c #A1443D",
"x.	c #762B27",
"y.	c #0B4931",
"z.	c #A66759",
"A.	c #061F21",
"B.	c #0F1B22",
"C.	c #0C1215",
"D.	c #BC7C6A",
"E.	c #564035",
"F.	c #652A17",
"G.	c #893E2E",
"H.	c #28130E",
"I.	c #E18F6F",
"J.	c #6E3622",
"K.	c #D78668",
"L.	c #D37668",
"                                                                                                    ",
"                                                                                                    ",
"                                                                                                    ",
"                                                                                                    ",
"                                    . . . + @ #                                                     ",
"                                  $ % & * = - ; =                                                   ",
"                                  > & , , ; - ' ' )                                                 ",
"                                  ! ~ { & ] & ^ / '                                                 ",
"                                  ( _ : < [ = / / }                                                 ",
"                                  ( | 1 2 [ 3 4 5   6                                               ",
"                                  ( 7 7 8 ) 9 0 3                                                   ",
"                                  ( 7 7 8 ) a b c                                                   ",
"                                  ( 7 7 d e ) .                                                     ",
"                                    . e f d g ) h ) ) ) { ) )                                       ",
"                                        g i j k l m m m m m n [ [ o                                 ",
"                                          ~ p l m m l l m m m m l n [ .                             ",
"                                          q r m m m l n s t u v w l l x { q                         ",
"                                          q r m m l s y y y y z t v w l x A B C                     ",
"                                          q r m m l v s D E y y E D s n r F G H j a                 ",
"                                          q r m m m m m n t I y y J K L ) { q G 7 7 g               ",
"                                            h k m m m m l l t I y y J ) ) o   C f f M               ",
"                                              z x m m l l l x v I c I o q     N O P Q R             ",
"                                              y s x l m m m w L J y ) ( S > . a c c ) . .           ",
"                                                I s n x x n s K K E q a G j T U V V V W 2           ",
"                                                y J z E E E y y y E )     M R X T Y Z `  .          ",
"                                                  o ) E E ..K % r z q     . +.@.#.$.%.U &.          ",
"                                                q o *.K D v l l m s q       =.-.@.;.;.W &.          ",
"                                              # >.,.E K t x l l m m [       . . . . . .             ",
"                                            # >./ '.I ).s x m m m m [                               ",
"                                          + !.5 ^ '.I J s v l m m m l >                             ",
"                                        ~.0 {.z ' ].^.I L v l l m m m {                             ",
"                                      9 0 /.(._.:.<.).I K t n l m m m ..                            ",
"                                      {.(./.[.}.|.1.2.y K L v x m m m {                             ",
"                                    ~.3././.4.5.6.7.*.2.I D u w m m m [                             ",
"                                    ~.3./.[.}.8.6.*.6 2.E K s n l m m l {       M B P               ",
"                                    9.(./.0._.a.1.b.b.2.E K L u x l l x h . c.d.e.f.g.              ",
"                                  . 0 /.h.}.8.6.i.b.b.c I K L v x l m > M j.#.R k.l.f.m.            ",
"                                  b n./.0.}.8.i.b.b.b.2.I K K s v n o.p.p.q..     r.s.l.            ",
"                                  9./.h.}.5.t.u.b.b.b.2.I K K D t C X v.@           r.m.w.          ",
"                                  9./.4.}.8.7.*.b.b.b.2.I K K y q q +                 R x.          ",
"                                : c.y._.8.t.7.*.b.b.b.2.y ..y 2.c                                   ",
"                                : z.@ b A.B.7.7.i.u.b.C.2.2.2.c                                     ",
"                              ! D.q.        c B.6.6.7.7.C.c c                                       ",
"                              E.O               . . . .                                             ",
"                             .d.T                                                                   ",
"                            F.G.H.                                                                  ",
"                          F.I.z.@                                                                   ",
"                        J.K.L.p.                                                                    ",
"                      Z m.g.w.                                                                      ",
"                    x.Y Y                                                                           "};
