/* XPM */
static char * Run_4_xpm[] = {
"50 53 169 2",
"  	c None",
". 	c #010101",
"+ 	c #12070B",
"@ 	c #32161B",
"# 	c #5D2324",
"$ 	c #2A0E0D",
"% 	c #552022",
"& 	c #431A23",
"* 	c #4A1D23",
"= 	c #521E1D",
"- 	c #5E1F27",
"; 	c #250D0D",
"> 	c #0B0606",
", 	c #230E12",
"' 	c #2B161D",
") 	c #3B181F",
"! 	c #411715",
"~ 	c #420F32",
"{ 	c #871A47",
"] 	c #410E21",
"^ 	c #3A2B24",
"/ 	c #5A4438",
"( 	c #6F182E",
"_ 	c #922048",
": 	c #4D3B30",
"< 	c #DAA689",
"[ 	c #F7BF9F",
"} 	c #1A0D14",
"| 	c #5C1433",
"1 	c #9D2248",
"2 	c #AE315D",
"3 	c #9C7762",
"4 	c #B59E93",
"5 	c #7A665D",
"6 	c #2C191C",
"7 	c #140B0D",
"8 	c #064E31",
"9 	c #4B4444",
"0 	c #742131",
"a 	c #19192C",
"b 	c #E1AB8D",
"c 	c #FFC3A1",
"d 	c #D7A487",
"e 	c #342521",
"f 	c #004C2D",
"g 	c #033927",
"h 	c #33241E",
"i 	c #47362D",
"j 	c #AD846D",
"k 	c #BF9278",
"l 	c #EAB393",
"m 	c #816252",
"n 	c #785C4B",
"o 	c #241313",
"p 	c #2D1825",
"q 	c #2D231D",
"r 	c #3C2427",
"s 	c #592F3C",
"t 	c #5B303D",
"u 	c #4C2835",
"v 	c #492733",
"w 	c #301A22",
"x 	c #542C3A",
"y 	c #23131C",
"z 	c #2C1828",
"A 	c #3C202C",
"B 	c #4F2A38",
"C 	c #40222B",
"D 	c #1C0C19",
"E 	c #130B13",
"F 	c #241422",
"G 	c #341C2C",
"H 	c #3D2130",
"I 	c #8E6B59",
"J 	c #6F5546",
"K 	c #3A1F27",
"L 	c #422433",
"M 	c #291726",
"N 	c #3A1F2D",
"O 	c #1E1014",
"P 	c #A57E68",
"Q 	c #0C0A0C",
"R 	c #5F493C",
"S 	c #795434",
"T 	c #684733",
"U 	c #372717",
"V 	c #9E4E49",
"W 	c #573A2A",
"X 	c #0A060A",
"Y 	c #48372D",
"Z 	c #2F2114",
"` 	c #533C32",
" .	c #C19379",
"..	c #66372A",
"+.	c #7F5836",
"@.	c #B6744E",
"#.	c #BF8451",
"$.	c #43281D",
"%.	c #160909",
"&.	c #8E424C",
"*.	c #B75D57",
"=.	c #D97462",
"-.	c #F9A76B",
";.	c #3C0A1D",
">.	c #290A1B",
",.	c #5A2C2B",
"'.	c #652F36",
").	c #7B3C3B",
"!.	c #925840",
"~.	c #3B0C14",
"{.	c #8B1B38",
"].	c #92194D",
"^.	c #390820",
"/.	c #69174D",
"(.	c #811A2E",
"_.	c #18261C",
":.	c #581648",
"<.	c #007847",
"[.	c #00664E",
"}.	c #010C07",
"|.	c #2D0F2A",
"1.	c #00331E",
"2.	c #007545",
"3.	c #007C4B",
"4.	c #006B4E",
"5.	c #04514D",
"6.	c #0C2629",
"7.	c #005C51",
"8.	c #0B4649",
"9.	c #142329",
"0.	c #0D1517",
"a.	c #1A323E",
"b.	c #111B20",
"c.	c #002C19",
"d.	c #00633A",
"e.	c #005751",
"f.	c #004428",
"g.	c #00724C",
"h.	c #005934",
"i.	c #0E3339",
"j.	c #713835",
"k.	c #004845",
"l.	c #1E111C",
"m.	c #522926",
"n.	c #A5534C",
"o.	c #C17F6C",
"p.	c #A7604D",
"q.	c #EFA98D",
"r.	c #001D12",
"s.	c #803528",
"t.	c #D2836E",
"u.	c #63312D",
"v.	c #CB645D",
"w.	c #BD5547",
"x.	c #A04039",
"y.	c #B47F6B",
"z.	c #7D3828",
"A.	c #9B583E",
"B.	c #692B27",
"C.	c #6F311B",
"D.	c #31160B",
"E.	c #220E07",
"F.	c #90482E",
"G.	c #CA8B6E",
"H.	c #3F3028",
"I.	c #EFA886",
"J.	c #7A2E28",
"K.	c #A84D43",
"L.	c #9B453B",
"                                                                                                    ",
"                                                                                                    ",
"                                                                                                    ",
"                                                                                                    ",
"                                                                                                    ",
"                                                                                                    ",
"                                                                                                    ",
"                                . . . .                                                             ",
"                            . . . + @ # $                                                           ",
"                          $ % & * = $ * - ;                                                         ",
"                          > , ' ) # ! ~ { ]                                                         ",
"                          ^ / > , & , ( _ {                                                         ",
"                          : < [ : , } | 1 2                                                         ",
"                          : 3 4 5 6 7 8 9 0   a                                                     ",
"                          : b c d e > f g >                                                         ",
"                          : b c d h > 7 >                                                           ",
"                          i j k l k ^ >                                                             ",
"                                m l n o p 6 6 6 6 6 ' +                                             ",
"                                  q r s t t t t t t t u v o .                                       ",
"                                    w t t t t t x s s s s t u } >                                   ",
"                                    6 t t t t u p y z A u B x t C y +                               ",
"                                    p t t t t ' D D E F G H u u t r I J >                           ",
"                                    . K t t t t x L M E F M N L O . ^ b c i .                       ",
"                                    . ' u t t t s x u M D F M M } 7 7 / < c P                       ",
"                                      Q G B t t s s s H F E F D 7 7     3 l R                       ",
"                                      . a K B s s s u H z F E E .     S T U V W                     ",
"                                        Q z N H L H z M M M X Y < J 7 o Z Z U U +                   ",
"                                          D M D E E E E E E . . `  .` ..+.+.+.+.Z                   ",
"                                          . X D F D y p G N K +   h ' S V @.#.#.$.                  ",
"                                            E M M G L v s t v %.    @ &.*.=.-.-./                   ",
"                                          ;.>.F G L x t t t u }     } ,.'.)._ !.U                   ",
"                                        ~.{.] y H B s t t t u 7                                     ",
"                                      %.{.].^.y G L B t t t u 7                                     ",
"                                      ~.{ ]./.D M L x t t t u 7                                     ",
"                                    . (.].{ /.>.p A u x t t x '                                     ",
"                                    g _.>.:.:.D y N L x t t t K                                     ",
"                                    f <.[.}.|.} F G L x t t t K                                     ",
"                                  1.2.3.4.5.6.Q D G H v x t t A                                     ",
"                                  1.2.3.7.8.9.0.Q M H L B s t K                                     ",
"                                  1.2.3.7.8.a.b.E F H H u s t K                                     ",
"                                  c.d.3.[.e.8.b.E M z G L u A                                       ",
"                                    f.3.g.7.5.6.0.M M z N M Q                                       ",
"                                    }.h.3.4.e.i.E F M M D j.&                                       ",
"                                      f g.g.e.k.0.D l.X m.n.o.W 6 q                                 ",
"                                      }.d.3.g.g }..         ,...p.q.*.                              ",
"                                        r.c.r.}.              $ s.=.t.                              ",
"                                          u.v.m.                  s.w.x.                            ",
"                                            ,.y.^                   z.A.                            ",
"                                            . I i                     B.                            ",
"                                            . C.D.                                                  ",
"                                          E.F.G.H.                                                  ",
"                                        T n.I.< H.                                                  ",
"                                      J.s.K.K.L.s.                                                  "};
