/* XPM */
static char * run_1_xpm[] = {
"50 50 172 2",
"  	c None",
". 	c #010101",
"+ 	c #0B0509",
"@ 	c #1D0C0B",
"# 	c #270E0C",
"$ 	c #3C1615",
"% 	c #2C1514",
"& 	c #251116",
"* 	c #431B22",
"= 	c #55211D",
"- 	c #301316",
"; 	c #5B2222",
"> 	c #3B1020",
", 	c #6A1644",
"' 	c #4F1529",
") 	c #160709",
"! 	c #1E1314",
"~ 	c #36181D",
"{ 	c #89233B",
"] 	c #941D44",
"^ 	c #400A21",
"/ 	c #A27A65",
"( 	c #987968",
"_ 	c #4F3B32",
": 	c #460F1E",
"< 	c #95224A",
"[ 	c #B42C5A",
"} 	c #9B7661",
"| 	c #706765",
"1 	c #1B0E14",
"2 	c #2B161B",
"3 	c #152227",
"4 	c #5D3746",
"5 	c #A82248",
"6 	c #1C1424",
"7 	c #AB826B",
"8 	c #FFC3A1",
"9 	c #695042",
"0 	c #13050C",
"a 	c #012B1A",
"b 	c #00693E",
"c 	c #0E0A0B",
"d 	c #082015",
"e 	c #0E281C",
"f 	c #0A0405",
"g 	c #C6987D",
"h 	c #352422",
"i 	c #765A4A",
"j 	c #F8BD9C",
"k 	c #CE9D82",
"l 	c #2F241D",
"m 	c #3A1C25",
"n 	c #542C3A",
"o 	c #492633",
"p 	c #7E6150",
"q 	c #E3AD8F",
"r 	c #8C6958",
"s 	c #482928",
"t 	c #5B303D",
"u 	c #592F3C",
"v 	c #3C202D",
"w 	c #150C14",
"x 	c #120A0D",
"y 	c #533F34",
"z 	c #432433",
"A 	c #502A36",
"B 	c #23121C",
"C 	c #241422",
"D 	c #341C2C",
"E 	c #816251",
"F 	c #3A2725",
"G 	c #4F2A38",
"H 	c #1B0F19",
"I 	c #291726",
"J 	c #3D2231",
"K 	c #654D40",
"L 	c #DAA78A",
"M 	c #B0866F",
"N 	c #321B23",
"O 	c #4C2936",
"P 	c #2C1926",
"Q 	c #ECB495",
"R 	c #5A4438",
"S 	c #4A3532",
"T 	c #906D5A",
"U 	c #855E3E",
"V 	c #452E1E",
"W 	c #45252E",
"X 	c #2E1929",
"Y 	c #3B2919",
"Z 	c #7D5635",
"` 	c #0C0907",
" .	c #8F4741",
"..	c #A2504A",
"+.	c #A47D68",
"@.	c #331A17",
"#.	c #4F3622",
"$.	c #482726",
"%.	c #6C472E",
"&.	c #6F4D2F",
"*.	c #6B3434",
"=.	c #B25B52",
"-.	c #C97757",
";.	c #DF9A5F",
">.	c #381828",
",.	c #74383A",
"'.	c #B75655",
").	c #CD6560",
"!.	c #EB8F67",
"~.	c #F8A56B",
"{.	c #90623D",
"].	c #572A2C",
"^.	c #6F3D32",
"/.	c #290D13",
"(.	c #661522",
"_.	c #841B2D",
":.	c #280E18",
"<.	c #781539",
"[.	c #6D1725",
"}.	c #BA2646",
"|.	c #9D1D4A",
"1.	c #2A0C22",
"2.	c #1D101B",
"3.	c #00331E",
"4.	c #035B4C",
"5.	c #015551",
"6.	c #11343A",
"7.	c #080D12",
"8.	c #004D2D",
"9.	c #00634C",
"0.	c #0A1013",
"a.	c #001A0F",
"b.	c #084849",
"c.	c #006A4E",
"d.	c #123C43",
"e.	c #152C34",
"f.	c #050B0A",
"g.	c #1A2F3A",
"h.	c #210C19",
"i.	c #007445",
"j.	c #15252C",
"k.	c #004428",
"l.	c #0C171B",
"m.	c #152730",
"n.	c #182C35",
"o.	c #01663D",
"p.	c #00744C",
"q.	c #005E50",
"r.	c #003D39",
"s.	c #002B29",
"t.	c #04312F",
"u.	c #7A4F43",
"v.	c #005834",
"w.	c #007C4B",
"x.	c #061B1D",
"y.	c #B24F37",
"z.	c #DD8D71",
"A.	c #AC584A",
"B.	c #0B1810",
"C.	c #D48C74",
"D.	c #944A44",
"E.	c #8A4738",
"F.	c #743924",
"G.	c #572020",
"H.	c #8B5C46",
"I.	c #B96E5C",
"J.	c #3A170B",
"K.	c #803722",
"L.	c #D06354",
"M.	c #D1725D",
"N.	c #9A443E",
"O.	c #A64D43",
"                                                                                                    ",
"                                                                                                    ",
"                                                                                                    ",
"                            . . + @ #                                                               ",
"                        $ % & $ % * = #                                                             ",
"                      . - * * * ; > , ' )                                                           ",
"                      . ! ! & ~ ; > { ] ^                                                           ",
"                      . / ( _ & - : < < [                                                           ",
"                      . } ( | 1 2 3 4 5 { 6                                                         ",
"                      . 7 8 8 9 0 a b a                                                             ",
"                      . 7 8 8 9 c d e f                                                             ",
"                      . 7 8 8 g h + f . . . . .                                                     ",
"                        c c i j k l . m n n n o c . . . .                                           ",
"                              p q r s t t t t u t t t t v w @ x x                                   ",
"                                y h u u u o z o n u 4 u u u u u ' 2 x                               ",
"                                c & m u A B f C D z z o u t 4 u t h / E . . .                       ",
"                                x o 2 F G B H x x 6 I v z z J D ! . . K L j M l                     ",
"                                  w 2 N O m P D I + w C I I I H x H f   . r Q 8 R                   ",
"                                    P & z t u J D H w x w I C S _ f         T } U V                 ",
"                                    . f W u t n m w H X B . . . E Q F .   Y Z `  ...%               ",
"                                    . c m u t t n J H H X J w     x +.7 l @.#.#.#.#.l               ",
"                                    . C z n u t t O D H H B c         7 R $.%.&.&.&.Y               ",
"                                    . H D o 4 4 n O D I w               c *.=.-.;.;.Z               ",
"                                      w I D D J v >.I C w               . ,.'.).!.~.{.              ",
"                                        x w w w w w w 0 .               . m ].].^.^.V               ",
"                                        + H H C P D m X c                                           ",
"                                      f H I v z O u t o )                                           ",
"                                      . /.B D o n u t u m                                           ",
"                                      (._.:.D z n 4 u u N                                           ",
"                                    . _.<.:.D z O u u u N                                           ",
"                                    [.}.<.H I J o u t t t &                                         ",
"                                    [.|., 1.2.J o n t t t 2                                         ",
"                                  . 0 ) 0 + w X J O u u t A w                                       ",
"                                  3.4.5.6.7.H X J z n t t t !                                       ",
"                                  8.9.5.6.0.w I D z n 4 t t &                                       ",
"                                a.b 9.b.6.0.w I D J z n t t 1                                       ",
"                                a.b c.d.e.6 f.H D J z n t t 1                                       ",
"                                a.b c.d.e.6 f.H I D z z A o w                                       ",
"                                  8.9.d.g.3 f.h.X X J J X w f.                                      ",
"                                  3.i.4.d.j.f.2.I I I x f.j.7.                                      ",
"                                    k.c.5.b.l.H B c f.l.m.n.7.                                      ",
"                                    a o.p.q.r.s.s.t.m.g.m.W u.                                      ",
"                                    . v.w.w.p.q.5.5.b.x.$.y.z.A.                                    ",
"                                      f.v.w.i.o.B.f . . 9 -.L C.                                    ",
"                                          . . @ D.E.@.    . F.-.=.                                  ",
"                                                @.D.G.        H.I.                                  ",
"                                                  ,.y.J.        =                                   ",
"                                                  K.L...%                                           ",
"                                                E.M.'.N.                                            ",
"                                              / C.O.                                                "};
