/* XPM */
static char *result[] = {
/* columns rows colors chars-per-pixel */
"60 60 252 2 ",
"   c black",
".  c #020101",
"X  c #030102",
"o  c #040103",
"O  c #040203",
"+  c #050303",
"@  c #020304",
"#  c #090305",
"$  c #0C0204",
"%  c #0D0606",
"&  c #0C0607",
"*  c #030709",
"=  c #0E0708",
"-  c #0C060B",
";  c #06090A",
":  c #0C0909",
">  c #0D0B09",
",  c #0F080A",
"<  c #0F080D",
"1  c #0F080E",
"2  c #090C0D",
"3  c #0E0D0C",
"4  c #140808",
"5  c #150B0E",
"6  c #140B0F",
"7  c #170C0F",
"8  c #190C0F",
"9  c #00130B",
"0  c #07110D",
"q  c #080D10",
"w  c #110910",
"e  c #120A10",
"r  c #130A12",
"t  c #140B13",
"y  c #170D10",
"u  c #1A0E13",
"i  c #180D17",
"p  c #1B0F1A",
"a  c #1C0F1A",
"s  c #001D10",
"d  c #001D11",
"f  c #0B1418",
"g  c #091919",
"h  c #081A1E",
"j  c #1B1112",
"k  c #1F1413",
"l  c #1E1014",
"z  c #151718",
"x  c #1D101B",
"c  c #19161C",
"v  c #121A1D",
"b  c #200811",
"n  c #200D11",
"m  c #240E10",
"M  c #2F0A16",
"N  c #220A19",
"B  c #210F19",
"V  c #3E0D15",
"C  c #34081B",
"Z  c #221216",
"A  c #251216",
"S  c #2F1113",
"D  c #251B17",
"F  c #241318",
"G  c #251319",
"H  c #22121D",
"J  c #21121F",
"K  c #25141F",
"L  c #2A161C",
"P  c #271E19",
"I  c #2D1C1A",
"U  c #2D181E",
"Y  c #371411",
"T  c #33161C",
"R  c #35161D",
"E  c #39131C",
"W  c #3D151D",
"Q  c #361A18",
"!  c #002717",
"~  c #00301C",
"^  c #32231F",
"/  c #101D23",
"(  c #131E22",
")  c #221320",
"_  c #241423",
"`  c #271625",
"'  c #2A1721",
"]  c #291727",
"[  c #2A1727",
"{  c #2E1929",
"}  c #311A24",
"|  c #3F1921",
" . c #381E26",
".. c #311B2B",
"X. c #321B2B",
"o. c #341C28",
"O. c #361D2A",
"+. c #351D2D",
"@. c #361D2D",
"#. c #361E2D",
"$. c #381F2E",
"%. c #391F2F",
"&. c #002221",
"*. c #002820",
"=. c #0F2329",
"-. c #152E25",
";. c #15262D",
":. c #093736",
">. c #003B38",
",. c #19343F",
"<. c #232324",
"1. c #3C2E26",
"2. c #3D2028",
"3. c #3A202F",
"4. c #35282D",
"5. c #3D2130",
"6. c #3F2332",
"7. c #322E31",
"8. c #4A1F10",
"9. c #4A1A18",
"0. c #5D131F",
"q. c #482316",
"w. c #42211E",
"e. c #622B18",
"r. c #6A2E1D",
"t. c #4C1E23",
"y. c #4F1F23",
"u. c #641522",
"i. c #631424",
"p. c #45242E",
"a. c #47252F",
"s. c #512825",
"d. c #4F3721",
"f. c #413229",
"g. c #483A2E",
"h. c #573426",
"j. c #5B3324",
"k. c #5E3E28",
"l. c #412433",
"z. c #422433",
"x. c #442430",
"c. c #492630",
"v. c #482735",
"b. c #492832",
"n. c #492836",
"m. c #4A2836",
"M. c #4B2836",
"N. c #4C2937",
"B. c #502A35",
"V. c #502A38",
"C. c #512B39",
"Z. c #522B39",
"A. c #522C39",
"S. c #542C38",
"D. c #552D39",
"F. c #542C3A",
"G. c #542D3A",
"H. c #552D3A",
"J. c #562D3B",
"K. c #562E3B",
"L. c #592F3C",
"P. c #4F3C32",
"I. c #5B303D",
"U. c #662625",
"Y. c #6B3732",
"T. c #6F343B",
"R. c #004E2E",
"E. c #004F34",
"W. c #005633",
"Q. c #214B3B",
"!. c #006039",
"~. c #5F493C",
"^. c #68432D",
"/. c #6C4339",
"(. c #614A3E",
"). c #704232",
"_. c #744932",
"`. c #704038",
"'. c #7A5034",
"]. c #7F5836",
"[. c #143A42",
"{. c #581649",
"}. c #6D174C",
"|. c #0C4346",
" X c #034A47",
".X c #0C4648",
"XX c #044D4B",
"oX c #084A4B",
"OX c #07504B",
"+X c #04534D",
"@X c #04504E",
"#X c #005652",
"$X c #005851",
"%X c #006D41",
"&X c #006D4D",
"*X c #007646",
"=X c #00774B",
"-X c #00714D",
";X c #007A48",
":X c #007C4B",
">X c #007E4B",
",X c #684F41",
"<X c #705546",
"1X c #775A4B",
"2X c #7C5D50",
"3X c #7F6150",
"4X c #625E63",
"5X c #707074",
"6X c #811B3F",
"7X c #83362F",
"8X c #9A3B2F",
"9X c #803E3F",
"0X c #903832",
"qX c #9C3E38",
"wX c #8E4236",
"eX c #9A2245",
"rX c #912148",
"tX c #A02040",
"yX c #A32349",
"uX c #C2365D",
"iX c #844843",
"pX c #924843",
"aX c #944944",
"sX c #995545",
"dX c #A44F44",
"fX c #B1555A",
"gX c #9F6E44",
"hX c #80695E",
"jX c #A76B48",
"kX c #AF6A55",
"lX c #9A7661",
"zX c #9F7964",
"xX c #D16557",
"cX c #DB7463",
"vX c #A28474",
"bX c #CA806B",
"nX c #E99976",
"mX c #EA9B77",
"MX c #FDAD6C",
"NX c #FFB06D",
"BX c #8C8C91",
"VX c #D1A085",
"CX c #D7A487",
"ZX c #D9A689",
"AX c #DCAB90",
"SX c #E5A787",
"DX c #E3AD8F",
"FX c #F4BA9A",
"GX c #F7BC9B",
"HX c #FCC09F",
"JX c #FFC3A1",
"KX c None",
/* pixels */
"KXKXKXKXKXKXKXKXKXKXKXKXKXKXKXKXKXKXKXKXKXKXKXKXKXKXKXKXKXKXKXKXKXKXKXKXKXKXKXKXKXKXKXKXKXKXKXKXKXKXKXKXKXKXKXKXKXKXKXKX",
"KXKXKXKXKXKXKXKXKXKXKXKXKXKXKXKXKXKXKXKXKXKXKXKXKXKXKXKXKXKXKXKXKXKXKXKXKXKXKXKXKXKXKXKXKXKXKXKXKXKXKXKXKXKXKXKXKXKXKXKX",
"KXKXKXKXKXKXKXKXKXKXKXKXKXKXKXKXKXKXKXKXKXKXKXKXKXKXKXKXKXKXKXKXKXKXKXKXKXKXKXKXKXKXKXKXKXKXKXKXKXKXKXKXKXKXKXKXKXKXKXKX",
"KXKXKXKXKXKXKXKXKXKXKXKXKXKXKXKXKXKXKXKXKXKXKXKXKXKXKXKXKXKXKXKXKXKXKXKXKXKXKXKXKXKXKXKXKXKXKXKXKXKXKXKXKXKXKXKXKXKXKXKX",
"KXKXKXKXKXKXKXKXKXKXKXKXKXKXKXKXKXKXKXKXKXKXKXKXKXKXKXKXKXKXKXKXKXKXKXKXKXKXKXKXKXKXKXKXKXKXKXKXKXKXKXKXKXKXKXKXKXKXKXKX",
"KXKXKXKXKXKXKXKXKXKXKXKXKXKXKXKXKXKXKXKXKXKXKXKXKXKXKXKXKXKXKXKXKXKXKXKXKXKXKXKXKXKXKXKXKXKXKXKXKXKXKXKXKXKXKXKXKXKXKXKX",
"KXKXKXKXKXKXKXKXKXKXKXKXKXKXKXKXKXKXKXKXKXKXKXKXKXKXKXKXKXKXKXKXKXKXKXKXKXKXKXKXKXKXKXKXKXKXKXKXKXKXKXKXKXKXKXKXKXKXKXKX",
"KXKXKXKXKXKXKXKXKXKXKXKXKXKXKXKXKXKXKXKXKXKXKXKXKXKXKXKXKXKXKXKXKXKXKXKXKXKXKXKXKXKXKXKXKXKXKXKXKXKXKXKXKXKXKXKXKXKXKXKX",
"KXKXKXKXKXKXKXKXKXKXKXKXKXKXKXKXKXKXKXKXKXKXKXKXKXKXKXKXKXKXKXKXKXKXKXKXKXKXKXKXKXKXKXKXKXKXKXKXKXKXKXKXKXKXKXKXKXKXKXKX",
"KXKXKXKXKXKXKXKXKXKXKXKXKXKXKXKXKXKXKXKXKXKXKXKXKXKXKXKXKXKXKXKXKXKXKXKXKXKXKXKXKXKXKXKXKXKXKXKXKXKXKXKXKXKXKXKXKXKXKXKX",
"KXKXKXKXKXKXKXKXKXKXKXKXKXKXKXKXKXKXKXKXKXKXKXKXKXKXKXKXKXKXKXKXKXKXKXKXKXKXKXKXKXKXKXKXKXKXKXKXKXKXKXKXKXKXKXKXKXKXKXKX",
"KXKXKXKXKXKXKXKXKXKXKXKXKXKXKXKXKXKXKXKXKXKXKXKXKXKXKXKXKXKXKXKXKXKXKXKXKXKXKXKXKXKXKXKXKXKXKXKXKXKXKXKXKXKXKXKXKXKXKXKX",
"KXKXKXKXKXKXKXKXKXKXKXKXKXKXKXKXKXKXKXKXKXKXKXKXKXKXKXKXKXKXKXKXKXKXKXKXKXKXKXKXKXKXKXKXKXKXKXKXKXKXKXKXKXKXKXKXKXKXKXKX",
"KXKXKXKXKXKXKXKXKXKXKXKXKXKXKXKXKXKXKXKXKXKXKXKXKXKXKXKXKXKXKXKXKXKXKXKXKXKXKXKXKXKXKXKXKXKXKXKXKXKXKXKXKXKXKXKXKXKXKXKX",
"KXKXKXKXKXKXKXKXKXKXKXKXKXKXKXKXKXKXKXKXKXKXKXKXKXKXKXKXKXKXKXKXKXKXKXKXKXKXKXKXKXKXKXKXKXKXKXKXKXKXKXKXKXKXKXKXKXKXKXKX",
"KXKXKXKXKXKXKXKXKXKXKXKXKXKXKXKXKXKXKXKXKXKXKXKXKXKXKXKXKXKXKXKXKXKXKXKXKXKXKXKXKXKXKXKXKXKXKXKXKXKXKXKXKXKXKXKXKXKXKXKX",
"KXKXKXKXKXKXKXKXKXKXKXKXKXKXKXKXKXKXKXKXKXKXKXKXKXKXKXKXKXKXKXKXKXKXKXKXKXKXKXKXKXKXKXKXKXKXKXKXKXKXKXKXKXKXKXKXKXKXKXKX",
"KXKXKXKXKXKXKXKXKXKXKXKXKXKXKXKXKXKXKXKXKXKXKXKXKXKXKXKXKXKXKXKXKXKXKXKXKXKXKXKXKXKXKXKXKXKXKXKXKXKXKXKXKXKXKXKXKXKXKXKX",
"KXKXKXKXKXKXKXKXKXKXKXKXKXKXKXKXKXKXKXKXKXKXKXKXKXKXKXKXKXKXKXKXKXKXKXKXKXKXKXKX  # 4 KXKXKXKXKXKXKXKXKXKXKXKXKXKXKXKXKX",
"KXKXKXKXKXKXKXKXKXKXKXKXKXKXKXKXKXKXKXKXKXKXKXKXKXKXKXKXKXKXKXKXKXKXKXKXKXKXY n n S t.9.KXKXKXKXKXKXKXKXKXKXKXKXKXKXKXKX",
"KXKXKXKXKXKXKXKXKXKXKXKXKXKXKXKXKXKXKXKXKXKXKXKXKXKXKXKXKXKXKXKXKXKXKXKXKXKXm R | U.N eXb KXKXKXKXKXKXKXKXKXKXKXKXKXKXKX",
"KXKXKXKXKXKXKXKXKXKXKXKXKXKXKXKXKXKXKXKXKXKXKXKXKXKXKXKXKXKXKXKXKXKXKXKXKXKX,X^ A y.M rX6XKXKXKXKXKXKXKXKXKXKXKXKXKXKXKX",
"KXKXKXKXKXKXKXKXKXKXKXKXKXKXKXKXKXKXKXKXKXKXKXKXKXKXKXKXKXKXKXKXKXKXKXKXKXKXzXvX3 T z yXuXKXKXKXKXKXKXKXKXKXKXKXKXKXKXKX",
"KXKXKXKXKXKXKXKXKXKXKXKXKXKXKXKXKXKXKXKXKXKXKXKXKXKXKXKXKXKXKXKXKXKXKXKXKXKXzXAXVX8 ! Q.KXKXKXKXKXKXKXKXKXKXKXKXKXKXKXKX",
"KXKXKXKXKXKXKXKXKXKXKXKXKXKXKXKXKXKXKXKXKXKXKXKXKXKXKXKXKXKXKXKXKXKXKXKXKXKXzXJXJXk 0 : KXKXKXKXKXKXKXKXKXKXKXKXKXKXKXKX",
"KXKXKXKXKXKXKXKXKXKXKXKXKXKXKXKXKXKXKXKXKXKXKXKXKXKXKXKXKXKXKXKXKXKXKXKXKXKX(.3XGX~.& KXKXKXKXKXKXKXKXKXKXKXKXKXKXKXKXKX",
"KXKXKXKXKXKXKXKXKXKXKXKXKXKXKXKXKXKXKXKXKXKXKXKXKXKXKXKXKXKXKXKXKXKXKXKXKXKXKXD FXf.KXKXKXKXKXKXKXKXKXKXKXKXKXKXKXKXKXKX",
"KXKXKXKXKXKXKXKXKXKXKXKXKXKXKXKXKXKXKXKXKXKXKXKXKXKXKXKXKXKXKXKXKXKXKXKXKXKXKXlXhX7.Z KXKXKXKXKXKXKXKXKXKXKXKXKXKXKXKXKX",
"KXKXKXKXKXKXKXKXKXKXKXKXKXKXKXKXKXKXKXKXKXKXKXKXKXKXKXKXKXKXKXKXKXKXKXKXKXKXBX<.5XU U . KXKXKXKXKXKXKXKXKXKXKXKXKXKXKXKX",
"KXKXKXKXKXKXKXKXKXKXKXKXKXKXKXKXKXKXKXKXKXKXKXKXKXKXKXKXKXKXKXKXKXKXKXKXKX  4.4Xb.u H.+ KXKXKXKXKXKXKXKXKXKXKXKXKXKXKXKX",
"KXKXKXKXKXKXKXKXKXKXKXKXKXKXKXKXKXKXKXKXKXKXKXKXKXKXKXKXKXKXKXKXKXKXKXKXKX= G p.M.e 5.2.KXKXKXKXKXKXKXKXKXKXKXKXKXKXKXKX",
"KXKXKXKXKXKXKXKXKXKXKXKXKXKXKXKXKXKXKXKXKXKXKXKXKXKXKXKXKXKXKXKXKXKXKXKXKXD. .K.@.p H L.y KXKXKXKXKXKXKXKXKXKXKXKXKXKXKX",
"KXKXKXKXKXKXKXKXKXKXKXKXKXKXKXKXKXKXKXKXKXKXKXKXKXKXKXKXKXKXKXKXKXKXKXKXKX, S.m.[ ] 6 L.Z KXKXKXKXKXKXKXKXKXKXKXKXKXKXKX",
"KXKXKXKXKXKXKXKXKXKXKXKXKXKXKXKXKXKXKXKXKXKXKXKXKXKXKXKXKXKXKXKXKXKXKXKX  L x.{ ] ] < v.a.KXKXKXKXKXKXKXKXKXKXKXKXKXKXKX",
"KXKXKXKXKXKXKXKXKXKXKXKXKXKXKXKXKXKXKXKXKXKXKXKXKXKXKXKXKXKXKXKXKXKXKXKXl 0.u.t ` ] t X.I.F KXKXKXKXKXKXKXKXKXKXKXKXKXKX",
"KXKXKXKXKXKXKXKXKXKXKXKXKXKXKXKXKXKXKXKXKXKXKXKXKXKXKXKXKXKXKXKXKXKXKX7 ' W E - r t 1 3.I.a.KXKXKXKXKXKXKXKXKXKXKXKXKXKX",
"KXKXKXKXKXKXKXKXKXKXKXKXKXKXKXKXKXKXKXKXKXKXKXKXKXKXKXKXKXKXKXKXKXKXKX} B c.n.+.] _ w 6.G.I.+ KXKXKXKXKXKXKXKXKXKXKXKXKX",
"KXKXKXKXKXKXKXKXKXKXKXKXKXKXKXKXKXKXKXKXKXKXKXKXKXKXKXKXKXKXKXKXKXKX  #.V $ I.n.[ 1 ] 6.C.I.+ KXKXKXKXKXKXKXKXKXKXKXKXKX",
"KXKXKXKXKXKXKXKXKXKXKXKXKXKXKXKXKXKXKXKXKXKXKXKXKXKXKXKXKXKXKXKXKXKX  x i.C B.A...1 ] $.N.I.+ KXKXKXKXKXKXKXKXKXKXKXKXKX",
"KXKXKXKXKXKXKXKXKXKXKXKXKXKXKXKXKXKXKXKXKXKXKXKXKXKXKXKXKXKXKXKXKXKXKX  tX}. .F.l.J i ) $.I.+ KXKXKXKXKXKXKXKXKXKXKXKXKX",
"KXKXKXKXKXKXKXKXKXKXKXKXKXKXKXKXKXKXKXKXKXKXKXKXKXKXKXKXKXKXKXKXKXKXKX~ -.{. .I.z.%.a 1XJ Z.+ KXKXKXKXKXKXKXKXKXKXKXKXKX",
"KXKXKXKXKXKXKXKXKXKXKXKXKXKXKXKXKXKXKXKXKXKXKXKXKXKXKXKXKXKXKXKXKXKXKXR.*X=. .I.J.o.2XHXw K o KXKXKXKXKXKXKXKXKXKXKXKXKX",
"KXKXKXKXKXKXKXKXKXKXKXKXKXKXKXKXKXKXKXKXKXKXKXKXKXKXKXKXKXKXKXKXKXKX  %X:X$Xc I.I.I DXZXj   KXKXKXKXKXKXKXKXKXKXKXKXKXKX",
"KXKXKXKXKXKXKXKXKXKXKXKXKXKXKXKXKXKXKXKXKXKXKXKXKXKXKXKXKXKXKXKXKXKX  >X-X#Xq I.I.gXP Y.h.  KXKXKXKXKXKXKXKXKXKXKXKXKXKX",
"KXKXKXKXKXKXKXKXKXKXKXKXKXKXKXKXKXKXKXKXKXKXKXKXKXKXKXKXKXKXKXKXKXKX!.>X-X[.; I.5 ^.d._.k.  KXKXKXKXKXKXKXKXKXKXKXKXKXKX",
"KXKXKXKXKXKXKXKXKXKXKXKXKXKXKXKXKXKXKXKXKXKXKXKXKXKXKXKXKXKXKXKXKXKX*X>X&X,.; I.+ ).'.].].  KXKXKXKXKXKXKXKXKXKXKXKXKXKX",
"KXKXKXKXKXKXKXKXKXKXKXKXKXKXKXKXKXKXKXKXKXKXKXKXKXKXKXKXKXKXKXKXKXd ;X>X@X;.; K.O fXcXMXNX  KXKXKXKXKXKXKXKXKXKXKXKXKXKX",
"KXKXKXKXKXKXKXKXKXKXKXKXKXKXKXKXKXKXKXKXKXKXKXKXKXKXKXKXKXKXKXKXKX! >X>XoXv ; V.X T.9XsXjX  KXKXKXKXKXKXKXKXKXKXKXKXKXKX",
"KXKXKXKXKXKXKXKXKXKXKXKXKXKXKXKXKXKXKXKXKXKXKXKXKXKXKXKXKXKXKXKXKX! >X>XOX( ; O.t t @ * g h KXKXKXKXKXKXKXKXKXKXKXKXKXKX",
"KXKXKXKXKXKXKXKXKXKXKXKXKXKXKXKXKXKXKXKXKXKXKXKXKXKXKXKXKXKXKXKXKX9 ;X>X=X.X/ 2 2 f :.|.>.&.KXKXKXKXKXKXKXKXKXKXKXKXKXKX",
"KXKXKXKXKXKXKXKXKXKXKXKXKXKXKXKXKXKXKXKXKXKXKXKXKXKXKXKXKXKXKXKXKXQ g.s W.E.+X X XXX>.>.iX  KXKXKXKXKXKXKXKXKXKXKXKXKXKX",
"KXKXKXKXKXKXKXKXKXKXKXKXKXKXKXKXKXKXKXKXKXKXKXKXKXKXKXKXKXKXKXKXKXw.s.KXKXKX*.&.&.&.KXKXaX`.KXKXKXKXKXKXKXKXKXKXKXKXKXKX",
"KXKXKXKXKXKXKXKXKXKXKXKXKXKXKXKXKXKXKXKXKXKXKXKXKXKXKXKXKXKXKXKXKXw.% KXKXKXKXKXKXKXKXKX  CX> KXKXKXKXKXKXKXKXKXKXKXKXKX",
"KXKXKXKXKXKXKXKXKXKXKXKXKXKXKXKXKXKXKXKXKXKXKXKXKXKXKXKXKXKXKXKX  kX% KXKXKXKXKXKXKXKXKXKX<Xq.KXKXKXKXKXKXKXKXKXKXKXKXKX",
"KXKXKXKXKXKXKXKXKXKXKXKXKXKXKXKXKXKXKXKXKXKXKXKXKXKXKXKXKXKXKXKXr.wXKXKXKXKXKXKXKXKXKXKXKXj.nXP.KXKXKXKXKXKXKXKXKXKXKXKX",
"KXKXKXKXKXKXKXKXKXKXKXKXKXKXKXKXKXKXKXKXKXKXKXKXKXKXKXKXKXKX1.e.xXpXKXKXKXKXKXKXKXKXKXKX8.mXbX/.KXKXKXKXKXKXKXKXKXKXKXKX",
"KXKXKXKXKXKXKXKXKXKXKXKXKXKXKXKXKXKXKXKXKXKXKXKXKXKXKXKXKXKX7X8XqX0XKXKXKXKXKXKXKXKXKX  SXdXKXKXKXKXKXKXKXKXKXKXKXKXKXKX",
"KXKXKXKXKXKXKXKXKXKXKXKXKXKXKXKXKXKXKXKXKXKXKXKXKXKXKXKXKXKXKXKXKXKXKXKXKXKXKXKXKXKXKXKXKXKXKXKXKXKXKXKXKXKXKXKXKXKXKXKX",
"KXKXKXKXKXKXKXKXKXKXKXKXKXKXKXKXKXKXKXKXKXKXKXKXKXKXKXKXKXKXKXKXKXKXKXKXKXKXKXKXKXKXKXKXKXKXKXKXKXKXKXKXKXKXKXKXKXKXKXKX",
"KXKXKXKXKXKXKXKXKXKXKXKXKXKXKXKXKXKXKXKXKXKXKXKXKXKXKXKXKXKXKXKXKXKXKXKXKXKXKXKXKXKXKXKXKXKXKXKXKXKXKXKXKXKXKXKXKXKXKXKX"
};
