/* XPM */
static char *result[] = {
/* columns rows colors chars-per-pixel */
"49 50 45 1 ",
"  c black",
". c #040404",
"X c #090909",
"o c gray4",
"O c gray6",
"+ c gray7",
"@ c gray9",
"# c #1B1B1B",
"$ c gray11",
"% c #202020",
"& c #222222",
"* c #272727",
"= c #282828",
"- c gray16",
"; c gray18",
": c gray19",
"> c #313131",
", c gray20",
"< c #343434",
"1 c gray24",
"2 c #3F3F3F",
"3 c gray28",
"4 c #484848",
"5 c gray31",
"6 c gray33",
"7 c gray34",
"8 c gray37",
"9 c #606060",
"0 c gray38",
"q c gray40",
"w c #676767",
"e c #686868",
"r c DimGray",
"t c #6C6C6C",
"y c #717171",
"u c #747474",
"i c gray49",
"p c #818181",
"a c #868686",
"s c gray53",
"d c gray54",
"f c #909090",
"g c #989898",
"h c gray60",
"j c #9A9A9A",
/* pixels */
"                                                 ",
"                                                 ",
"                                                 ",
"  =dddddddddddddddddddddu  2dddddddddddddddddd9  ",
"  ;hhhhhhhhhhhhhhhhhhhhhp  3hhhhhhhhhhhhhhhhhht  ",
"  ;hhhhhhhhhhhhhhhhhhhhhp  3hhhhhhhhhhhhhhhhhht  ",
"  ;hhhhhhhhhhhhhhhhhhhhhp  3hhhhhhhhhhhhhhhhhht  ",
"  ;hhhhhhhhhhhhhhhhhhhhhp  3hhhhhhhhhhhhhhhhhht  ",
"  ;hhhhhhhhhhhhhhhhhhhhhp  3hhhhhhhhhhhhhhhhhht  ",
"  ;hhhhhhhhhhhhhhhhhhhhhp  3hhhhhhhhhhhhhhhhhht  ",
"  ;hhhhhhhhhhhhhhhhhhhhhp  3hhhhhhhhhhhhhhhhhht  ",
"  ;hhhhhhhhhhhhhhhhhhhhhp  3hhhhhhhhhhhhhhhhhht  ",
"  ;hhhhhhhhhhhhhhhhhhhhhp  3hhhhhhhhhhhhhhhhhht  ",
"  ;hhhhhhhhhhhhhhhhhhhhhp  3hhhhhhhhhhhhhhhhhht  ",
"  ;hhhhhhhhhhhhhhhhhhhhhp  3hhhhhhhhhhhhhhhhhht  ",
"  *saaaaaaaaaaaaaaaaaaaay  1saaaaaaaaaaaaaaaaa8  ",
"                                                 ",
"                                                 ",
"  o<<<<<<<<<@  -<<<<<<<<<<<<<<<<<<.  :<<<<<<<<&  ",
"  ;jhhhhhhhj5  ihhhhhhhhhhhhhhhhhh#  fhhhhhhhht  ",
"  ;hhhhhhhhh5  ihhhhhhhhhhhhhhhhhg#  fhhhhhhhht  ",
"  ;hhhhhhhhh5  ihhhhhhhhhhhhhhhhhg#  fhhhhhhhht  ",
"  ;hhhhhhhhh5  ihhhhhhhhhhhhhhhhhg#  fhhhhhhhht  ",
"  ;hhhhhhhhh5  ihhhhhhhhhhhhhhhhhg#  fhhhhhhhht  ",
"  ;hhhhhhhhh5  ihhhhhhhhhhhhhhhhhg#  fhhhhhhhht  ",
"  ;hhhhhhhhh5  ihhhhhhhhhhhhhhhhhg#  fhhhhhhhht  ",
"  ;hhhhhhhhh5  ihhhhhhhhhhhhhhhhhg#  fhhhhhhhht  ",
"  ;hhhhhhhhh5  ihhhhhhhhhhhhhhhhhg#  fhhhhhhhht  ",
"  ;hhhhhhhhh5  ihhhhhhhhhhhhhhhhhg#  fhhhhhhhht  ",
"  ;hhhhhhhhh5  ihhhhhhhhhhhhhhhhhg#  fhhhhhhhht  ",
"  ;hhhhhhhhh5  ihhhhhhhhhhhhhhhhhg#  fhhhhhhhht  ",
"  $wwwwwwwww,  6wwwwwwwwwwwwwwwwwqO  0wwwwwwww3  ",
"                                                 ",
"                                                 ",
"  $reeeeeeeeeeeeeeeeeeee7  ;reeeeeeeeeeeeeeeee4  ",
"  ;hhhhhhhhhhhhhhhhhhhhhp  3hhhhhhhhhhhhhhhhhht  ",
"  ;hhhhhhhhhhhhhhhhhhhhhp  3hhhhhhhhhhhhhhhhhht  ",
"  ;hhhhhhhhhhhhhhhhhhhhhp  3hhhhhhhhhhhhhhhhhht  ",
"  ;hhhhhhhhhhhhhhhhhhhhhp  3hhhhhhhhhhhhhhhhhht  ",
"  ;hhhhhhhhhhhhhhhhhhhhhp  3hhhhhhhhhhhhhhhhhht  ",
"  ;hhhhhhhhhhhhhhhhhhhhhp  3hhhhhhhhhhhhhhhhhht  ",
"  ;hhhhhhhhhhhhhhhhhhhhhp  3hhhhhhhhhhhhhhhhhht  ",
"  ;hhhhhhhhhhhhhhhhhhhhhp  3hhhhhhhhhhhhhhhhhht  ",
"  ;hhhhhhhhhhhhhhhhhhhhhp  3hhhhhhhhhhhhhhhhhht  ",
"  ;hhhhhhhhhhhhhhhhhhhhhp  3hhhhhhhhhhhhhhhhhht  ",
"  ;hhhhhhhhhhhhhhhhhhhhhp  3hhhhhhhhhhhhhhhhhht  ",
"  ;jhhhhhhhhhhhhhhhhhhhhp  3jhhhhhhhhhhhhhhhhht  ",
"  X>>>>>>>>>>>>>>>>>>>>>=  +>>>>>>>>>>>>>>>>>>%  ",
"                                                 ",
"                                                 "
};
