/* XPM */
static char *result[] = {
/* columns rows colors chars-per-pixel */
"50 50 76 1 ",
"  c #1C0F0F",
". c #1F1706",
"X c #16140D",
"o c #1A120D",
"O c #161412",
"+ c #191312",
"@ c #1A1916",
"# c #1B1718",
"$ c #1C1B1A",
"% c #24170C",
"& c #24180D",
"* c #29180F",
"= c #231611",
"- c #231811",
"; c #2D1A13",
": c #211E1C",
"> c #2D1C18",
", c #341E16",
"< c #391F15",
"1 c #21201F",
"2 c #362115",
"3 c #3B2116",
"4 c #3C2219",
"5 c #212120",
"6 c #4F271B",
"7 c #47291E",
"8 c #4B2B1C",
"9 c #542D1F",
"0 c #592E1F",
"q c #56321F",
"w c #59311F",
"e c #4A2C20",
"r c #562E22",
"t c #582D21",
"y c #553122",
"u c #5A3222",
"i c #613623",
"p c #663A25",
"a c #693A24",
"s c #663A28",
"d c #703925",
"f c #753E29",
"g c #704125",
"h c #7A4127",
"j c #764129",
"k c #7D472F",
"l c #844627",
"z c #874827",
"x c #84462B",
"c c #89472C",
"v c #85492B",
"b c #88482A",
"n c #974E2D",
"m c #994F2F",
"M c #94532D",
"N c #99512F",
"B c #9B592E",
"V c #8E4D32",
"C c #934C32",
"Z c #9A4E32",
"A c #975635",
"S c #9B5332",
"D c #AD5B2F",
"F c #B15D2E",
"G c #A45634",
"H c #A95635",
"J c #A55934",
"K c #AE5C32",
"L c #A45639",
"P c #AA563A",
"I c #A65839",
"U c #AC5B3B",
"Y c #B05D31",
"T c #B05C3A",
"R c #AA5A40",
"E c None",
/* pixels */
"EE$+XOXOOOOXOO@OXOOOoOO1EE1OOOOOX@OOOO@XOOOOOOO$EE",
"E+X8yqqyuyyqyyyuyqqyyyy-+@o7ywwwqqqqqqyqyyuqu0r-OE",
"EokKKKKKYKHKYHYYKKYYKDTA-OxKDKYKYYYYJFYYKKKKYYYA+$",
"1oGKKKKDYYKKYYYYKKYYJKYYroJYKYKDYKYYKKYDDDYYKKYY9O",
"1oLKKDDKYYKKKYYYDKYYHYYK0 HYKKKKYYYYYYYYKKKYKKYUrO",
":oLKKKKKYYKYYJKYKDKKKYYJtoGDKKKKYYYYYYYYKKKKDKYUrO",
":oLHKKKKYFYYYKDYKKKKYYYKuoHYPKKKJYYYJYBYKKKFKKFUrO",
"1XPKKKKHYFJJKKJYYYDKYYYYtoHKKYKKYYJYYYYYKHDKKKKUrX",
"1XJYYYKYYYYUYYYYFYDKFYYDuoJDDFYYYBYYYYYJYKYYYYUTtO",
":XLKDDKYYYYYYYYYFYYYYYYYu UYYDYYYYYYYYYYYYYYYYYTt+",
"1oIHYYYYDYYYYYYYYYYYYYYYi+KYYYYYYYYYYYYYYYYYYYYTuX",
"1oUYFFDYFYYYYYYYYYFFYYFYt+UHYYYYYYYYYYYYYYYYYYYUyO",
":+KKYYYYYYYYYYYYYYYYYYYKioJYYYYFYYYYYYYYYKYYYYYT0X",
"#oJKYYYYYYYYYYYYYYYYYKYDu+JYYYYYYYYYYYYYYYYYYYTUuO",
"$+JFYKKKKYKYYYYYDKYYFKKKroJDKDYYYYYYFYFYYYKKYYYK6+",
"EOgUYKDKDYYKYYYYYFFDKYHn++jJKKKKYYYYYYTYTYYYKKTV+@",
"E@X;3<<3<44333332442<<<+#OX;433<443433<43333<32+#E",
"E$X%%%%%=%-XXXXo---&====--%%=--=*-- XO+o%&%*%%%++E",
"E#iLUPUUKRPb.XpGUKJJYKJUUHUHYYKYYKKc OaPRUUUUUUkX@",
"$oGHYYYHKHKK7XGDDYKKYFYHKFDYYYYYYHHK7 SYYKYYKKYK4@",
"@XGKTKYKKKKKyoJKFFYJYYYKYFDKKYYYYYUKy IYHYKYKDKKe@",
"@oHKYKKKKKYYy+GYFYYYDJDDYYKKKHHYYYYKroHYKKKKKHDY7O",
"@oHYYYKYYYYKyoHYFYYFYKYFYKYYYYYYYFYYuoHYKYKYYYDY8O",
"@ HYYYYYYYYYyoJYFYYYYFYYYYYYYYYYYYYYtOTYYYYYFYYY8#",
"$+HFYYYYYYFYyoDFFYFYYYYYYYYYYYYYYYYYqXYYYYFYYYYTeO",
"$+IFYYFYYFFYy+HYYFYYYYYYYFYYYYYYYYYYqXHYYYYYYFYTe@",
"@oIFYYYYYFYYroHYYYYYYFYFYYYYFDFYYYYYwoUYYFYYYYYY8#",
"@+HFYYYYYYYYy+DDYYYFYYYYYYYYFYYYYYYYuoKYFYYFYYYYe#",
"@oGKYYKKYYYKyoJDJDDYYYKJDKKYFYYYYYFFt KFKKYYYYFY7O",
"@oGKYYKKFYYDyoGJFDKKYYKKKKDYYYYYYYYFu PYDFYYKKYYeO",
"@oGKYKKHKYYHq+GKYYYDYKJYYYYYFJJDKKYHr HYKKYKDDYY7@",
"EOxYKYYDYYYB%OvYYYKYYYKYYYYFYKKYKYKS=+bFPYKKYYYA-@",
"EOouppppipi;  +ugussssassaaspssspsp>O+-upaaaapu>+E",
"E@O+oOo.ooXoXXXXX@@XoXo++O++oooooo oXXoooooo X++$E",
"EX6CSSBANnSZSNmSBBBBSSSa++8NSmNSSSSSSAABMNNNNmMa+$",
"$XSFKKKYKDKDFFFDYYYJFFKH4oSYYKKYJYYHYKYTYYYYKKKY4@",
"# JDYYYKKYYYYKKYYJYYYYKYu#UYFYYYFFYYYYYYYYYFYYYHtO",
"OoUYYYYYYYYKYYYYYYYYYYYYu+KYYYYYYYYYYYYYYYYYFYYTtO",
"XXITYYYTYYYYYYYYYKYYYYFYu@KYYYYYYYYYYYYYYYYYYYYTtO",
"@.IYYYYYYYFYYYFYYYYYYYKKu+HYYYYYYYYYYYYYYYYYYYYTtX",
"@oIYFYYYYYYYYFYYYYYYYYYKu+YFYYYYKKYYYYYYYYYYYFYT9+",
"@@UYYYYYYYYFYYYYYYYYYYYYi-HTYYYYFKFYYYYYYYYYFYYUt+",
"@oUYYYYYYYYFYYYYYYYYFFYYu+HTYYYYKFYYYYYYYYYYFKYU9O",
"@oJYYYYYYYYYYYYYYYYYDFYYi+HTYYYYKFYYYYYYYYYYYYYTrO",
"#XUKYYYYYYYFYYYYFYYYYYYKu+HYYYYYYYYYFYYYFYYYYYYTrX",
"+XGKKYJYYYYDYYFJDHDKKYKK0+HYKYYYYYYYYYYYFYYYYYYT0X",
"# HKKYKKYYYJYYDDKKKKKYYYu+KYYYKKKYYYYKYYBFKYKYYY9O",
"5XMYYYKKKYKKYYJDYYKYYUHJ,+ZYYKKKFYKKKYTYYYYKKKYJ>@",
"EO,jvcvvxvxvcvxxvvvvvvx7oo2hzxzxvzkhzvvzlzzlllh8@E",
"EE#OO++OO+OOOOO+#OOOOO#+:E#O@OOO@@OXXXO@@OOOOOX@1E"
};
