/* XPM */
static char *result[] = {
/* columns rows colors chars-per-pixel */
"49 49 31 1 ",
"  c #734800",
". c #724807",
"X c #714808",
"o c #714809",
"O c #71480A",
"+ c #6F4711",
"@ c #6F4712",
"# c #6C4719",
"$ c #6B471C",
"% c #5E452E",
"& c #47423F",
"* c #48433F",
"= c #4D433C",
"- c #4E433C",
"; c #564435",
": c #544437",
"> c #5B4531",
", c #5A4532",
"< c #51433A",
"1 c #514439",
"2 c #534438",
"3 c #544438",
"4 c #674623",
"5 c #654625",
"6 c #654626",
"7 c #634628",
"8 c #61452B",
"9 c #60452C",
"0 c gray26",
"q c #444241",
"w c #464240",
/* pixels */
"0000000000000000000000000000000000000000000000000",
"0000000000000000000000000000000000000000000000000",
"00&>>>>>>>>>>>>>>>>>>>>>:00&>>>>>>>>>>>>>>>>>>100",
"00-                     400-                  800",
"00-                     400-                  800",
"00-                     400-                  800",
"00-                     400-                  800",
"00-                     400-                  800",
"00-                     400-                  800",
"00-                     400-                  800",
"00-                     400-                  800",
"00-                     400-                  800",
"00-                     400-                  800",
"00-                     400-                  800",
"00=oOOOOOOOOOOOOOOOOOOOO600=oOOOOOOOOOOOOOOOOO900",
"0000000000000000000000000000000000000000000000000",
"0000000000000000000000000000000000000000000000000",
"0000000000000000000000000000000000000000000000000",
"00=.XXXXXXX.=005XXXXXXXXXXXXXXXXXXw00$XXXXXXXX900",
"00-         -004                  w00#        800",
"00-         -004                  w00#        800",
"00-         -004                  w00#        800",
"00-         -004                  w00#        800",
"00-         -004                  w00#        800",
"00-         -004                  w00#        800",
"00-         -004                  w00#        800",
"00-         -004                  w00#        800",
"00-         -004                  w00#        800",
"00-         -004                  w00#        800",
"00-         -004                  w00#        800",
"00&,,,,,,,,,&003,,,,,,,,,,,,,,,,,,q00;,,,,,,,,<00",
"0000000000000000000000000000000000000000000000000",
"0000000000000000000000000000000000000000000000000",
"00*%%%%%%%%%%%%%%%%%%%%%;00*%%%%%%%%%%%%%%%%%%200",
"00-                     400-                  800",
"00-                     400-                  800",
"00-                     400-                  800",
"00-                     400-                  800",
"00-                     400-                  800",
"00-                     400-                  800",
"00-                     400-                  800",
"00-                     400-                  800",
"00-                     400-                  800",
"00-                     400-                  800",
"00-                     400-                  800",
"00=+@@@@@@@@@@@@@@@@@@@@700=+@@@@@@@@@@@@@@@@@%00",
"0000000000000000000000000000000000000000000000000",
"0000000000000000000000000000000000000000000000000",
"0000000000000000000000000000000000000000000000000"
};
