/* XPM */
static char *result[] = {
/* columns rows colors chars-per-pixel */
"50 50 235 2 ",
"   c #1D150D",
".  c #2B190F",
"X  c #261D12",
"o  c #271D12",
"O  c #2B1E12",
"+  c #2A1E13",
"@  c #2B1E13",
"#  c #2D1E12",
"$  c #2D1F12",
"%  c #2C1F13",
"&  c #311F13",
"*  c #2F2013",
"=  c #312013",
"-  c #342617",
";  c #342717",
":  c #3F2011",
">  c #3E2113",
",  c #3D2213",
"<  c #3F2213",
"1  c #392315",
"2  c #3F2314",
"3  c #472413",
"4  c #402314",
"5  c #402315",
"6  c #442315",
"7  c #402415",
"8  c #432415",
"9  c #432515",
"0  c #432717",
"q  c #452514",
"w  c #442515",
"e  c #452515",
"r  c #472414",
"t  c #462515",
"y  c #462615",
"u  c #462516",
"i  c #462616",
"p  c #472616",
"a  c #492515",
"s  c #4A2514",
"d  c #482716",
"f  c #492716",
"g  c #4B2716",
"h  c #4C2715",
"j  c #4F2715",
"k  c #4C2716",
"l  c #482917",
"z  c #4A2917",
"x  c #4F2816",
"c  c #4D2A17",
"v  c #412B1A",
"b  c #4B2B19",
"n  c #4C2918",
"m  c #502816",
"M  c #502916",
"N  c #512917",
"B  c #522916",
"V  c #532916",
"C  c #522917",
"Z  c #532A16",
"A  c #532A17",
"S  c #572D19",
"D  c #5A2E19",
"F  c #5E301B",
"G  c #60321B",
"H  c #65351D",
"J  c #66351C",
"K  c #67351D",
"L  c #68351D",
"P  c #69361E",
"I  c #6A371E",
"U  c #6E391E",
"Y  c #6F391E",
"T  c #6F381F",
"R  c #6F391F",
"E  c #783D1F",
"W  c #403625",
"Q  c #423826",
"!  c #553925",
"~  c #693820",
"^  c #683920",
"/  c #693920",
"(  c #6A3A20",
")  c #733B20",
"_  c #7B3F22",
"`  c #7A3F23",
"'  c #7B3F23",
"]  c #7A4023",
"[  c #7B4023",
"{  c #7D4022",
"}  c #7C4023",
"|  c #7B4024",
" . c #7C4D30",
".. c #7E6B4D",
"X. c #864525",
"o. c #874525",
"O. c #864526",
"+. c #874526",
"@. c #874626",
"#. c #874627",
"$. c #884626",
"%. c #884726",
"&. c #884627",
"*. c #894727",
"=. c #904B29",
"-. c #914B29",
";. c #914B2A",
":. c #924C29",
">. c #934C29",
",. c #934D29",
"<. c #924C2A",
"1. c #934C2A",
"2. c #934D2A",
"3. c #924C2B",
"4. c #944D29",
"5. c #944D2A",
"6. c #954D2A",
"7. c #964D2B",
"8. c #974E2A",
"9. c #994E2A",
"0. c #994F2B",
"q. c #9C5531",
"w. c #A3542E",
"e. c #A3552E",
"r. c #A2542F",
"t. c #A2552F",
"y. c #A3552F",
"u. c #A4552E",
"i. c #A5562F",
"p. c #AA572F",
"a. c #A05A34",
"s. c #A25B34",
"d. c #A95C35",
"f. c #A95D35",
"g. c #AA5C35",
"h. c #AA5D35",
"j. c #A95D36",
"k. c #AA5D36",
"l. c #B15C32",
"z. c #B15C33",
"x. c #B25C33",
"c. c #B25D33",
"v. c #B35D33",
"b. c #B75E33",
"n. c #B75F33",
"m. c #B75E34",
"M. c #B75F34",
"N. c #B85F34",
"B. c #BB6034",
"V. c #B26339",
"C. c #B66A3D",
"Z. c #B6683E",
"A. c #B86B3D",
"S. c #BD6D3E",
"D. c #C16C3E",
"F. c #C16D3E",
"G. c #C16C3F",
"H. c #C16D3F",
"J. c #C26D3F",
"K. c #C16E3F",
"L. c #C26E3F",
"P. c #CB6A3A",
"I. c #CC6939",
"U. c #DE733F",
"Y. c #DE743F",
"T. c #DF743F",
"R. c #B4794F",
"E. c #B77A50",
"W. c #C26E40",
"Q. c #C77141",
"!. c #C57442",
"~. c #C57443",
"^. c #C67442",
"/. c #C67443",
"(. c #C77443",
"). c #C67543",
"_. c #C67544",
"`. c #C67644",
"'. c #CB7B4A",
"]. c #DE7440",
"[. c #DE7441",
"{. c #DE7541",
"}. c #D47A46",
"|. c #D77C47",
" X c #D87B47",
".X c #D87C47",
"XX c #D97C47",
"oX c #D87C48",
"OX c #D87D48",
"+X c #D87E48",
"@X c #D87E49",
"#X c #E17440",
"$X c #E07540",
"%X c #E17540",
"&X c #E07541",
"*X c #E17541",
"=X c #E27540",
"-X c #E27541",
";X c #E17641",
":X c #E27641",
">X c #E17542",
",X c #E17642",
"<X c #D58756",
"1X c #D08955",
"2X c #D48856",
"3X c #DD8C56",
"4X c #D0915E",
"5X c #D2905E",
"6X c #E3834D",
"7X c #E2844C",
"8X c #E3844C",
"9X c #E2844D",
"0X c #E3844D",
"qX c #E2854D",
"wX c #E3854D",
"eX c #E2864D",
"rX c #E2854E",
"tX c #E9854D",
"yX c #E78C57",
"uX c #E88C57",
"iX c #FD9355",
"pX c #FE9254",
"aX c #FE9255",
"sX c #FE9355",
"dX c #FE9356",
"fX c #FE9456",
"gX c #FE9556",
"hX c #FF9556",
"jX c #E89960",
"kX c #ECA26B",
"lX c #FFA669",
"zX c #E8B17C",
"xX c #F0B77D",
"cX c #FEE09F",
"vX c None",
/* pixels */
"vXtXpXpXpXpXaXaXaXaXaXaXaXaXaXaXsXsXdXdXfXfXfXcXvXvXE iXfXfXfXfXfXfXfXhXhXhXhXhXhXhXhXhXhXgXgXgXlXvX",
"S q.f.f.f.f.f.f.f.f.f.f.f.f.g.h.g.h.f.f.h.k.k.yX .v D d.k.k.k.k.k.k.k.j.j.f.j.f.f.k.k.k.k.k.k.k.Z.uX",
"N %.5.5.5.5.5.5.5.5.5.5.6.6.6.5.5.5.6.6.6.5.6.:X( = A 1.5.6.6.6.6.6.6.6.5.6.6.6.6.6.6.6.6.6.6.6.i.-X",
"N $.>.5.2.5.5.5.5.5.5.5.5.5.5.5.5.6.5.6.6.5.5.,X( = Z 1.6.6.6.6.6.6.6.6.6.5.6.6.6.5.6.6.6.6.6.6.i.=X",
"C $.>.>.>.2.>.>.5.5.5.5.5.5.6.5.5.6.5.6.5.6.5.;X( = Z 1.6.6.6.5.6.6.6.6.6.6.6.6.6.5.5.6.6.6.6.6.i.-X",
"N $.:.>.>.>.>.>.5.5.5.,.5.5.5.5.5.5.5.5.5.5.5.,X( = V 1.5.5.5.6.6.5.6.6.6.5.6.5.6.5.6.6.6.6.6.6.i.=X",
"N $.>.>.>.>.>.>.>.>.1.5.2.4.5.5.5.4.5.5.5.6.5.,X( = A 1.6.5.5.6.5.6.6.5.6.6.6.6.6.6.6.6.6.6.6.6.i.*X",
"N $.>.>.>.>.>.>.>.>.>.>.2.>.>.2.5.2.5.5.5.5.5.,X( = B 1.5.6.5.5.5.6.6.6.6.6.6.6.6.5.6.6.5.6.6.6.i.%X",
"N $.>.>.>.>.>.>.>.>.>.>.>.>.>.>.>.2.5.5.5.5.5.,X( = V 1.5.5.5.6.5.6.6.5.6.6.6.6.5.5.5.6.5.6.5.6.i.%X",
"N $.>.:.>.>.>.>.>.>.>.>.>.:.:.>.>.>.>.>.>.5.5.,X( = B 1.5.5.5.5.5.6.5.5.6.5.5.5.6.5.6.6.6.6.5.6.i.#X",
"M $.1.:.1.>.>.:.>.>.>.1.>.>.>.:.>.>.>.>.>.>.>.,X( = V >.5.5.5.5.5.5.5.6.6.5.5.6.5.5.6.6.6.6.6.5.i.%X",
"m @.>.:.1.:.>.1.>.>.>.>.>.>.>.>.>.>.>.>.>.>.>.,X( = B :.5.5.5.5.5.5.5.5.6.5.6.5.6.5.5.6.5.6.5.6.i.%X",
"M @.<.>.1.:.>.>.:.1.>.<.>.>.>.>.>.:.>.>.>.>.>.*X( = V :.>.1.5.5.5.5.5.6.5.5.5.5.5.5.5.5.5.6.6.6.i.%X",
"M @.<.1.>.1.>.<.<.<.>.1.>.<.>.>.>.>.>.>.>.>.>.>X( = B :.>.>.>.>.>.>.5.5.5.5.5.5.5.5.5.5.5.5.5.5.i.%X",
"3 L Y R R R R R R R R R R R R R R R R R R R R w.b O r U R R R R R Y R Y R R R R R R Y Y Y T T R _ p.",
"vX> 7 7 5 7 7 7 7 7 7 7 7 7 7 7 7 7 7 5 7 7 7 1 X X # 7 5 5 7 7 7 7 7 7 7 7 7 7 7 5 7 7 7 7 7 7 l vX",
"vX  X X X X X X X X X X X X X X X X X X X X X X X X X X X X X X X X X X X X X X X X X X X X X X - vX",
"vX}.0X6X6X8X0X0X9X9X5XQ X % C.7X0X0X0X0X7X7X7X7X7X9X7X9X9X9XwXqXwXwXqX4XW X $ A.wXrXqXrXqXqXqXeXjXvX",
"F V.G.G.D.F.D.D.D.G.<XE.X z a.J.F.H.H.H.H.H.H.H.H.H.H.H.F.F.H.H.H.H.H.2XR.X c s.H.H.K.H.H.W.L.L.'.kX",
"m $.<.<.<.<.<.<.<.:.N.n.X w | 1.:.<.>.:.1.1.<.>.>.>.:.:.>.>.>.>.:.:.>.b.v.X q } >.>.>.>.>.>.>.>.u.*X",
"m @.<.<.<.<.<.<.<.<.N.M.X 9 [ :.>.<.:.:.<.>.:.>.1.1.>.<.>.1.>.>.>.>.>.n.v.X q } >.>.>.>.>.>.>.>.e.*X",
"m @.<.<.<.<.<.<.<.<.M.M.X w [ 1.<.:.:.1.1.1.1.:.1.:.1.>.:.>.:.>.>.:.>.n.c.X q } >.>.>.>.>.>.>.>.e.*X",
"m &.<.<.<.<.<.<.<.<.M.M.X w | <.<.<.1.<.<.<.<.<.<.:.<.>.<.>.:.<.>.>.>.b.x.X q } >.>.>.>.>.>.>.>.e.&X",
"m #.<.<.<.<.<.<.<.<.M.M.X w | <.<.<.<.<.1.<.:.<.<.1.:.<.:.:.<.<.<.<.>.b.x.X e } >.>.>.>.>.>.>.>.e.$X",
"m @.<.<.<.<.<.<.<.<.M.M.X w | <.<.<.<.:.<.1.<.<.<.<.<.<.>.<.1.<.<.>.:.b.x.X q } >.>.>.>.>.>.>.>.e.&X",
"m @.<.<.<.<.<.<.<.<.M.M.X 9 | <.<.<.<.<.<.:.<.<.<.<.<.:.<.:.:.1.:.<.>.b.x.X q } 1.:.:.>.>.>.>.>.e.$X",
"m #.<.<.<.<.<.<.<.<.M.N.X 8 | <.<.<.<.<.<.<.<.<.<.<.<.<.<.<.<.>.>.<.<.b.x.X e } 1.>.>.1.<.1.>.<.e.$X",
"m #.<.<.<.<.<.<.<.<.M.M.X 8 | <.<.<.<.<.<.<.<.<.<.<.1.<.<.<.<.<.<.1.<.b.x.X q } >.1.1.>.>.>.1.>.e.T.",
"m #.<.<.<.<.<.<.<.<.M.M.X 8 | <.<.<.<.<.<.<.<.<.<.<.<.<.:.<.<.<.:.:.<.b.z.X q } >.>.<.>.:.1.<.>.e.T.",
"m @.<.<.3.<.<.<.<.<.M.M.X 8 ] <.<.<.<.<.<.<.<.<.<.<.<.<.<.<.<.<.<.<.<.b.l.X q } :.<.<.:.1.<.:.>.e.T.",
"m @.<.<.<.<.<.<.<.<.M.M.X 8 ` <.<.<.<.<.<.<.<.<.<.<.<.<.<.<.<.<.<.<.<.m.z.X q } 1.<.:.<.:.1.<.>.e.T.",
"s ) [ ' ' [ ' [ [ ' 0.8.X , P _ ' [ [ ' [ } } } [ [ ' [ ' ' ' ' ' ' _ 9.:.X < I [ ' [ ' [ [ [ [ *.B.",
"vX6 i y u u i y y i f @ X o 2 i i i t i i u i i p i i p i i p i i i i d + X o 4 p p p i i u i i n vX",
"vX  X X X X X X X X X X X X X X X X X X X X X X X X X X X X X X X X X X X X X X X X X X X X X X ; vX",
"vXS./././.(.^./.(./././././.^.^.!.!.!.~.!.!.)...X X 0 ~.).).).).).).).).).).).).).).).).).)._.`.1XvX",
"J Q..XXX.X.X.X X.X.X.X.X.X.X.XoXoXoXOXoXoXOXOXzX! * K |.OXOXOXOXOXOXOXOXOXOXOXOXOXOXOX+XOX@X@X@X3XxX",
"m #.<.<.<.<.3.<.<.<.<.<.<.<.<.<.<.<.<.<.<.<.<.{.^ & B ;.<.<.<.<.<.<.<.<.<.<.<.<.<.<.<.<.<.<.<.<.e.T.",
"m +.3.<.<.<.<.<.<.<.3.<.<.<.<.<.<.<.<.<.<.<.<.[./ = B ;.<.<.<.<.<.<.<.<.<.<.<.<.<.<.<.<.<.<.<.<.e.T.",
"m +.<.<.<.<.<.<.<.<.<.<.<.<.<.<.<.<.<.<.<.<.<.]./ & B ;.<.<.<.<.<.<.<.<.<.<.<.<.<.<.<.<.<.<.<.<.y.T.",
"m O.;.<.;.<.<.<.<.<.<.<.<.<.3.<.<.<.<.<.<.<.<.].~ & B -.<.<.<.<.<.<.<.<.<.<.<.<.<.<.<.<.<.<.<.<.y.T.",
"m O.;.;.;.;.;.<.<.<.<.<.<.<.3.<.<.<.<.<.<.<.<.].~ & B -.<.<.<.<.<.<.<.<.<.<.<.<.<.<.<.<.<.<.<.<.y.T.",
"x O.-.;.;.<.-.;.;.;.<.;.<.3.<.<.<.<.<.<.<.<.<.].~ & B -.<.<.<.<.<.<.<.<.<.<.<.<.<.<.<.<.<.<.<.<.y.T.",
"m O.-.;.;.;.;.;.-.;.;.<.;.<.<.;.<.<.<.<.<.<.<.]./ & B -.<.<.<.<.<.<.<.<.<.<.<.<.<.<.<.<.<.<.<.<.y.T.",
"x O.;.;.;.;.;.;.-.-.;.;.-.;.;.;.<.;.;.;.<.<.<.].^ & B -.3.<.<.<.<.<.<.<.<.<.<.<.<.<.<.<.<.<.<.<.y.T.",
"M O.;.;.;.-.;.;.;.-.;.-.;.;.-.;.;.;.<.;.;.;.<.]./ & B -.<.<.<.<.<.<.<.<.<.<.<.<.<.3.<.<.<.<.<.<.t.T.",
"m O.-.;.;.;.;.;.;.-.;.-.;.-.;.;.-.;.;.;.;.;.;.].^ & B -.<.<.<.<.<.<.<.<.<.<.<.<.<.<.<.<.<.<.<.<.t.T.",
"M O.;.;.;.-.;.;.;.;.;.-.;.-.;.;.;.;.-.;.-.;.;.]./ & B -.;.<.<.<.<.<.<.<.<.<.<.3.<.3.<.<.<.<.<.<.t.Y.",
"m O.;.;.;.;.-.;.;.-.;.;.;.;.-.;.-.;.;.-.-.-.;.]./ & B =.<.<.;.3.<.;.<.<.<.<.3.<.<.<.<.<.<.<.<.<.r.U.",
"h { +.+.+.+.+.+.+.+.+.+.+.o.+.+.+.+.+.+.+.+.O.P.H . j X.o.+.+.@.o.@.@.@.@.@.@.@.@.@.@.@.@.@.@.@.7.I.",
"vXa g g g g g g g g g g g g g g g g g g g k g G vXvX: g g g g g g g g g g g g g g g g g g g g g x vX"
};
