/* XPM */
static char *result[] = {
/* columns rows colors chars-per-pixel */
"50 50 45 1 ",
"  c black",
". c #010000",
"X c #030000",
"o c #0A0100",
"O c #0C0200",
"+ c #0E0200",
"@ c #100200",
"# c #110300",
"$ c #120300",
"% c #150300",
"& c #150400",
"* c #190400",
"= c #1C0500",
"- c #210700",
"; c #2D0C00",
": c #2E0D00",
"> c #330F00",
", c #351000",
"< c #361000",
"1 c #381100",
"2 c #451700",
"3 c #4F1B00",
"4 c #511C00",
"5 c #591F00",
"6 c #612300",
"7 c #632400",
"8 c #642500",
"9 c #662500",
"0 c #6D2800",
"q c #6F2900",
"w c #712A00",
"e c #732B00",
"r c #7D2F00",
"t c #7E3000",
"y c #813100",
"u c #833200",
"i c #883400",
"p c #893500",
"a c #8F3700",
"s c #903800",
"d c #9A3C00",
"f c #9B3C00",
"g c #9B3D00",
"h c #9C3D00",
"j c #9D3D00",
/* pixels */
"                                                  ",
"                                                  ",
"                                                  ",
"   euuuuuuuuuuuuuuuuuuuuu;  euuuuuuuuuuuuuuuuuy@  ",
"   phhhhhhhhhhhhhhhhhhhhh1  phhhhhhhhhhhhhhhhhd%  ",
"   phhhhhhhhhhhhhhhhhhhhh1  phhhhhhhhhhhhhhhhhd%  ",
"   phhhhhhhhhhhhhhhhhhhhh1  phhhhhhhhhhhhhhhhhd%  ",
"   phhhhhhhhhhhhhhhhhhhhh1  phhhhhhhhhhhhhhhhhd%  ",
"   phhhhhhhhhhhhhhhhhhhhh1  phhhhhhhhhhhhhhhhhd%  ",
"   phhhhhhhhhhhhhhhhhhhhh1  phhhhhhhhhhhhhhhhhd%  ",
"   phhhhhhhhhhhhhhhhhhhhh1  phhhhhhhhhhhhhhhhhd%  ",
"   phhhhhhhhhhhhhhhhhhhhh1  phhhhhhhhhhhhhhhhhd%  ",
"   phhhhhhhhhhhhhhhhhhhhh1  phhhhhhhhhhhhhhhhhd%  ",
"   phhhhhhhhhhhhhhhhhhhhh1  phhhhhhhhhhhhhhhhhd%  ",
"   phhhhhhhhhhhhhhhhhhhhh1  phhhhhhhhhhhhhhhhhd%  ",
"   tsssssssssssssssssssss>  tsssssssssssssssssa$  ",
"                                                  ",
"                                                  ",
"   =--------*  O------------------&  #---------.  ",
"   iggggggggr  4hgggggggggggggggggw  7ggggggggd%  ",
"   phhhhhhhht  4hhhhhhhhhhhhhhhhhhw  7hhhhhhhhd%  ",
"   phhhhhhhht  4hhhhhhhhhhhhhhhhhhw  7hhhhhhhhd%  ",
"   phhhhhhhht  4hhhhhhhhhhhhhhhhhhw  7hhhhhhhhd%  ",
"   phhhhhhhht  4hhhhhhhhhhhhhhhhhhw  7hhhhhhhhd%  ",
"   phhhhhhhht  4hhhhhhhhhhhhhhhhhhw  7hhhhhhhhd%  ",
"   phhhhhhhht  4hhhhhhhhhhhhhhhhhhw  7hhhhhhhhd%  ",
"   phhhhhhhht  4hhhhhhhhhhhhhhhhhhw  7hhhhhhhhd%  ",
"   phhhhhhhht  4hhhhhhhhhhhhhhhhhhw  7hhhhhhhhd%  ",
"   phhhhhhhht  4hhhhhhhhhhhhhhhhhhw  7hhhhhhhhd%  ",
"   phhhhhhhht  4hhhhhhhhhhhhhhhhhhw  7hhhhhhhhd%  ",
"   phhhhhhhht  4hhhhhhhhhhhhhhhhhhw  7hhhhhhhhd%  ",
"   6qqqqqqqq5  1qqqqqqqqqqqqqqqqqq3  2qqqqqqqq0O  ",
"                                                  ",
"                                                  ",
"   5999999999999999999999-  5999999999999999998o  ",
"   phhhhhhhhhhhhhhhhhhhhh1  phhhhhhhhhhhhhhhhhd%  ",
"   phhhhhhhhhhhhhhhhhhhhh1  phhhhhhhhhhhhhhhhhd%  ",
"   phhhhhhhhhhhhhhhhhhhhh1  phhhhhhhhhhhhhhhhhd%  ",
"   phhhhhhhhhhhhhhhhhhhhh1  phhhhhhhhhhhhhhhhhd%  ",
"   phhhhhhhhhhhhhhhhhhhhh1  phhhhhhhhhhhhhhhhhd%  ",
"   phhhhhhhhhhhhhhhhhhhhh1  phhhhhhhhhhhhhhhhhd%  ",
"   phhhhhhhhhhhhhhhhhhhhh1  phhhhhhhhhhhhhhhhhd%  ",
"   phhhhhhhhhhhhhhhhhhhhh1  phhhhhhhhhhhhhhhhhd%  ",
"   phhhhhhhhhhhhhhhhhhhhh1  phhhhhhhhhhhhhhhhhd%  ",
"   phhhhhhhhhhhhhhhhhhhhh1  phhhhhhhhhhhhhhhhhd%  ",
"   phhhhhhhhhhhhhhhhhhhhh1  phhhhhhhhhhhhhhhhhd%  ",
"   phhhhhhhhhhhhhhhhhhhhj1  phhhhhhhhhhhhhhhhhf%  ",
"   :<<<<<<<<<<<<<<<<<<<<<+  :<<<<<<<<<<<<<<<<<,X  ",
"                                                  ",
"                                                  "
};
