/* XPM */
static char *result[] = {
/* columns rows colors chars-per-pixel */
"48 48 178 2 ",
"   c #3E330B",
".  c #3D361A",
"X  c #3E381E",
"o  c #333122",
"O  c #3D3B23",
"+  c #3A372C",
"@  c #393C2C",
"#  c #43360D",
"$  c #46390D",
"%  c #483A0B",
"&  c #443611",
"*  c #453812",
"=  c #4B3D13",
"-  c #433C1E",
";  c #4C3E19",
":  c #433C24",
">  c #4A3F26",
",  c #443F29",
"<  c #4D4114",
"1  c #45401F",
"2  c #4E411A",
"3  c #524316",
"4  c #53451C",
"5  c #55491D",
"6  c #594C1D",
"7  c #474026",
"8  c #494225",
"9  c #45432B",
"0  c #4B452B",
"q  c #45492E",
"w  c #4C4A2E",
"e  c #544623",
"r  c #574922",
"t  c #5A4C23",
"y  c #534B2B",
"u  c #5D4C29",
"i  c #5E5125",
"p  c #464331",
"a  c #4B4631",
"s  c #474B32",
"d  c #4C4B33",
"f  c #4C4B39",
"g  c #514B34",
"h  c #524E39",
"j  c #4D5139",
"k  c #54513C",
"l  c #614D23",
"z  c #604E28",
"x  c #605126",
"c  c #62542C",
"v  c #655730",
"b  c #695B34",
"n  c #7F7246",
"m  c #897B4E",
"M  c #857551",
"N  c #877C51",
"B  c #8D7D54",
"V  c #857C5E",
"C  c #8A7C59",
"Z  c #837D62",
"A  c #857E6B",
"S  c #8E8155",
"D  c #8F8159",
"F  c #928556",
"G  c #92855A",
"H  c #968A5D",
"J  c #9B8C5E",
"K  c #9D935D",
"L  c #A4935F",
"P  c #A1985F",
"I  c #878264",
"U  c #8C8363",
"Y  c #8F8A67",
"T  c #85826C",
"R  c #8B866B",
"E  c #8C896D",
"W  c #948661",
"Q  c #938C65",
"!  c #9B8C62",
"~  c #938C6D",
"^  c #9F8D69",
"/  c #9E9262",
"(  c #97926C",
")  c #9F966F",
"_  c #8D8672",
"`  c #8C8B71",
"'  c #8B8E7D",
"]  c #938C72",
"[  c #939071",
"{  c #9A9472",
"}  c #9C957B",
"|  c #9E9D7E",
" . c #A08E66",
".. c #A39664",
"X. c #AA9664",
"o. c #A59A65",
"O. c #A99B66",
"+. c #A4966A",
"@. c #AC976A",
"#. c #A69A6B",
"$. c #AB9D6B",
"%. c #B09C67",
"&. c #B09F6C",
"*. c #A59772",
"=. c #A59C73",
"-. c #AB9E72",
";. c #A49B7A",
":. c #AC9E79",
">. c #B09F72",
",. c #AEA467",
"<. c #ADA26C",
"1. c #B2A36E",
"2. c #B0A86A",
"3. c #A7A274",
"4. c #ADA273",
"5. c #ADA47B",
"6. c #ABA87B",
"7. c #B3A573",
"8. c #BAA674",
"9. c #B5A975",
"0. c #B9AB75",
"q. c #B3A67A",
"w. c #B8A679",
"e. c #B6AA7A",
"r. c #BBAD7B",
"t. c #BBB174",
"y. c #BDB17C",
"u. c #C2AE7D",
"i. c #C0B176",
"p. c #C1B37E",
"a. c #C5B97F",
"s. c #ADAC85",
"d. c #B4AC82",
"f. c #BCAD82",
"g. c #B5B285",
"h. c #BDB282",
"j. c #BFB883",
"k. c #BCB38B",
"l. c #BDBA8D",
"z. c #B5B394",
"x. c #BDB791",
"c. c #BFB994",
"v. c #C1AE81",
"b. c #C3B483",
"n. c #CAB585",
"m. c #C4BA85",
"M. c #C9BA85",
"N. c #C4B689",
"B. c #C9B789",
"V. c #C5BA8C",
"C. c #CABC8B",
"Z. c #D0BB8E",
"A. c #C3B791",
"S. c #C3BC93",
"D. c #CBBD92",
"F. c #C5BE9A",
"G. c #D1BF94",
"H. c #C6BDA0",
"J. c #C8C082",
"K. c #CCC18D",
"L. c #D1C28D",
"P. c #C4C093",
"I. c #CDC294",
"U. c #C5C19A",
"Y. c #CBC49C",
"T. c #CCC99D",
"R. c #D2C396",
"E. c #D3C59A",
"W. c #DAC598",
"Q. c #D4CA9D",
"!. c #DBCA9C",
"~. c #CBC5A1",
"^. c #CECAA1",
"/. c #D1CAA0",
"(. c #D8CBA1",
"). c #D3CFA9",
"_. c #DCD3B6",
"`. c None",
/* pixels */
"`.' T Z T Z ] ] E E T [ E T T o p f p d d d d w h p h k d h a d f d s f f w d a g d g h k d `.`.",
"f z.s.^.g.T.d.~.c.P.6.T.g.x.c.y ] H.F.Y.Y.I.Y.S.F.Y.F.F.~.Y.^.^.^.l.k.c.S.V.P.V.Y.Q./.(.T.S.z.`.",
"p U.6.j.K m.+.N.e.6.o.m.3.e.g.* C *.+.-.q.e.r.+.#.f.f.N.h.+.+.4.9.o.O.1.<./ o.9.<.$.9.9.#.4.N.R ",
"w ).6.j.<.h.7.r.y.e.2.m.<.9.y.2  .f.v.N.b.p.h.h.b.-.w.b.v.N.r.h.b.r.p.n.M.0.0.p.m.p.-.7.m.C.D.A ",
"g x.=.y.o.y.0.r.r.r.1.a.<.r.r.<  .N.r.7.$.<.9.+.$.$.<.5.$.1.7.7.8.>.&.&.8.8.8.8.&.&.1.8.X.O.q.V ",
"f _.5.-.9.W.+.f.e.9.9.m.<.h.h.= G :.9.y.y.y.t.<.e.C.M.t.r.$.7.v.v.n.Z.n.a.n.n.n.n.n.B.B.b.B.R.U ",
"g F.=.N.@.N.>.v.q.e.0.C...e.q.$ F 4.<.2.<.,...<.9.<.9.t.9.t.9.@.X.1.%.X.X.&.1.O.O.%.1.0.0.<.-.] ",
"a ~.5.m.9.u.-.B.9.y.9.t.,.9.9.$ H k.C.j.m.j.J.K.K.j.6.e.q.y.r.y.u.n.n.i.i.n.M.a.M.a.9.9.0.K.Q.{ ",
"g A.e.y.9.0.o.M.9.t.,.t.,.2.e.< D -.4.1.9.4.<.<.o.4.4.#./ 7.4.4.9.9.2.<.9.y.9.0.<.9.t.y.7.0.f.Y ",
"d x.3.y.o.M.<.M.y.y.2.J.t.0.y.= H f.r.u.y.y.b.b.e.4.r.b.r.r.e.e.e.9.q.9.r.h.e.9.9.e.y.j.e.h.g.I ",
"d F.) y.O.M.7.r.y.y.<.J.9.2.0.= G w.0.u.9.1.1.O.p.r.$.1.p.m.9.h.6.q.e.9.o.<.<.e.y.e.7.4.3.q.6.Y ",
"d U.s.j.7.r.$.f.j.e.,.y.9.e.h.% B 9.2.8.8.t.t.t.1.0.L.a.1.0.y.r.y.y.m.m.j.M.K.M.y.y.m.m.m.K.Y.Q ",
"0 ~.6.N.7.m.>.w.y.e.<.y.7.y.e.$ G 9.7.$.,.2.y.a.0.$.,.O.O.,.,.<.9.<.<.<.1.1.O.1.<.<.7.$.O.<.r.Y ",
"0 F.#.N.O.C.7.w.5.9.2.m.<.q.3.5 ! 6.h.b.K.j.m.y.m.l.I.V.y.e.V.y.b.0.7.r.r.u.9.8.y.p.r.1.w.r.D.I ",
"f z.-.r...n.$.b.9.0.9.y.<.y.=.2 Y ) 5.#.y.3.4.6.3.3.6.#.4.6.3.4.9.-.1.0.8.9.r.0.w.8.p.r.w.0.N.V ",
"w ^.7.m.8.r.$.m.0.y.<.C.<.h.e.*     2 $ < = < < = # 2   = $ 4 2 % 5 = 3 6 % % % % 3 3 3 6 % 2 . ",
"s ~.4.v.>.0.$.y.1.r.y.w.+.m.-.= ; W ! B G S H H B G ^ ) W G C 4 2 M S H G G F H F S F S G m W : ",
"f U.$.u.$.7.5.0.9.9.0.r.7.h.#.; = k.e.A.h.D.h.Q.N.V.f.R.e.k.V.; e f.e.N.y.E.g.W.B.D.f.R.h.N.D., ",
"j U.-.b.$.>.e.0.t.1.9.r.q.h.-.2 4 Y.4.A./ h.#.j.e.f.-.V.*.f.f.u ; D.-.N.o.m.+.N.q.f.#.D.$.9.f.0 ",
"j ~.q.n.&.7.e.r.<.t.y.7.O.C.4.; u E.q.C.$.m.9.y.f.h.5.D.4.r.q.b 2 E.4.D.+.e.4.y.r.r.q.b.4.$.e.8 ",
"j ~.r.b.>.r.f.r.<.0.r.y.$.C.5.3 u D.4.e.9.7.4.y.r.h.4.h.$.r.q.5 r E.-.e.0.h.e.f.f.f.9.B.<.0.k.y ",
"q T.h.r.8.b.r.r.<.2.9.b.9.C.<.* t /.e.7.4.b.y.<.9.y.9.m.<.y.y.r v (.4.7.9.N.O.e.7.r.$.M.O.y.r.e ",
"9 Y.y.w.8.N.y.p.,.r.r.0.5.K.+.* 4 D.q.h.O.C.K m.9.e.9.m.<.y.9.5 4 D.e.h.+.K.O.r.9.r.7.b.,.t.r.8 ",
"q Y.#.u.O.r.<.h.,.b.0.9.e.y.#.= 4 E.4.r.0.0.o.m.1.e.y.y.<.e.<.4 2 Q.#.h.e.y.O.b.9.0.<.B.O.9.e.- ",
"q P.#.r.O.u.<.L.,.7.<.0.h.B.4.< t h.<.5.<.9.o.K.0.e.9.y.<.y.9.5 4 N.-.r.4.y.,.m.r.y.1.M.,.0.9.- ",
"q T.7.a.O.b.$.m.9.9.9.r.h.m.<.= i V.7.K.<.C.,.m.y.y.7.m.0.y.9.5 e A.*.h.$.m.<.b.p.h.,.K.,.0.9.1 ",
"s T.y.m.$.b.$.y.t.0.0.9.7.m.e.$ i A./ M.o.K.#.y.h.h.4.V.9.y.9.e r I.+.N.$.K.<.y.y.y.$.m.9.0.9.7 ",
"j P.<.0.O.b.<.m.r.9.0.0.e.b.q.* v D.#.M.4.m.<.e.y.y.<.h.5.y.e.5 t I.7.h.7.m.#.r.y.0.O.M.2.0.y.7 ",
"w P.$.0.%.0.4.b.9.t.r.r.q.y.3.# 4 D.9.I.<.y.+.9.r.e.-.m.4.e.e.4 ; R.7.V.<.m.4.0.9.7.O.p.1.9.q.8 ",
"q P.o.p.0.8.<.m.<.t.1.7.4.r.$.= 4 V.#.C.o.C.9.y.9.q.q.V.4.7.4.4 = D.$.D.O.C.7.0.q.9.$.p.1.1.4.8 ",
"q S.O.p.u.7.7.r.K 0.9.e.7.r./ = r N.4.r.$.K.e.N.e.q.q.N.-.4.-.2 r N.+.f./ C.$.y.r.0.7.b.1.7.-.0 ",
"d ( N J ! B B H K S F H D +.B & ; ! B Q G n S +.! G G G W S W & t D.q.f.0.r.@.b.7.r.9.b.@.b.-., ",
"9 y   3 z z t l 5 3 < 5 i i 5 5 e e r c u r 4 < 4 6 i t u 4 e e u G.-.f.9.r.%.p.@.p.f.9.@.C.q., ",
"] F.Q.K.D.G.W.D.R.b.K.I.C.E.I.K.(.f.N.B.N.V.B.D.R.R.R.I.G.N.V.M u D.-.v...$.r.y.7.9.0.7.$.r.:., ",
"E { #.4.w.f.w.+.O.r.0.e.y.J ..4.q.q.7.7.$.+.-.e.7.-.$.-.q.7.f.W c E.+.b.,.1.9.r.9.q.r.y.7.f.q., ",
"] l.h.m.v.v.N.v.u.$.7.r.h.y.y.r.r.b.f.N.C.b.M.b.h.r.f.r.m.b.E.G u Q.e.n.0.2.0.9...0.b.4./ r.=., ",
"] g.<.<.o.4.7...L 1.,.$.9.O.1.9.9.O.9.<.0.,.O.8.<.$.&.+.O.+.v.F 5 R.p.r.,.9.M.y.$.0.r.r./ f.5., ",
"I 3.7.y.h.b.w.8.p.b.a.t.7.9.1.p.b.p.Z.p.n.M.b.p.a.b.n.p.n.b.W.G 6 R.8.1.1.M.i.1.O.-.$.v.7.N.5., ",
"E 4.9.2.,.>.@.%.O.0.0.r.r.p.,.O.L 8.1.L ..1.1.O.%.$.1.1.r.7.w.J = n.r.9.1.a.0.i.&.r.r.w.7.B.*.: ",
"[ l.j.m.b.b.V.L.a.a.p.9.0.u.i.i.i.L.i.p.1.M.a.a.u.M.r.1.p.B.!.J l W.@.M.L a.8.M.O.B.v.w.u.N.:.: ",
"T 3.<.4.w.7.8.&.L 2.,.....1.1.1.1.r.1.0.8.0.9.9.,.r.p.b.p.w.v.m ; Z.X.8.L i.1.Z.@.r.@.v.v.B.*.: ",
"Y g.6.t.r.f.v.v.u.1.9.p.r.1.0.b.p.9.1.0.0.8.y.0.9.r.9.0.u.w.n.B l W.a.u.8.i.%.p.&.u.@.v.w.n.;.: ",
"` g.e.y.0.-.+.+.p.r.,.e.p.r.1.r.q.7.$.$.,.<.1.,.1.9.$.7.9.7.0.! l Z.>.8.%.i.,.8.&.v.8.u.>.n.:.: ",
"E s.5.9.e.f.f.f.<.0.B.r.7.b.r.b.r.b.m.N.y.M.b.C.b.a.M.R.C.N.R.! 4 Z.>.u.%.i.1.b.&.v.b.v.v.G.:.: ",
"E s.6.3.-.d.f.f.e.7.7.+.-.0.+.q.+.-.4.7.4.0.,.7.1.$.$.-.$.q.b.! ; W.>.u.O.r.7.M.O.q.v.7.:.v.-., ",
"' s.g.l.D.D.A.N.I.N.N.N.e.N.V.b.f.q.q.r.f.h.e.1.0.f.r.7.4.f.N.C 4 G.r.n.9.7.O.M.<.b.f.q.w.v.-.: ",
"`.| 3.6.5.:.=.=.3.*.6.d.*.q.5.5.d.5.5.q.k.e.g.d.9.6.f.q.5.f.A.U e k.*.q.m.q.6.r.+.f.=.q.q.d.;.O ",
"@ O 9 q > > : : 7 X : , , : : : - X : 9 8 9 7 X - 7 8 8 8 8 0 : a } Z { ~ Z V ] ~ I Q U R E _ + "
};
