/* XPM */
static char *result[] = {
/* columns rows colors chars-per-pixel */
"50 50 75 1 ",
"  c black",
". c #020202",
"X c gray1",
"o c gray2",
"O c #090909",
"+ c #0B0B0B",
"@ c #0C0C0C",
"# c gray5",
"$ c #0E0E0E",
"% c gray9",
"& c #191919",
"* c gray10",
"= c #1B1B1B",
"- c gray11",
"; c #1D1D1D",
": c #1E1E1E",
"> c gray12",
", c #202020",
"< c gray13",
"1 c #2A2A2A",
"2 c gray18",
"3 c gray19",
"4 c gray21",
"5 c #393939",
"6 c #3C3C3C",
"7 c gray24",
"8 c #3F3F3F",
"9 c gray25",
"0 c #414141",
"q c gray26",
"w c #434343",
"e c #444444",
"r c gray27",
"t c #464646",
"y c gray28",
"u c #484848",
"i c #494949",
"p c gray29",
"a c #4B4B4B",
"s c gray30",
"d c gray31",
"f c #505050",
"g c #515151",
"h c gray32",
"j c #535353",
"k c gray33",
"l c #747474",
"z c gray50",
"x c #808080",
"c c #818181",
"v c #838383",
"b c gray52",
"n c #868686",
"m c #898989",
"M c #8D8D8D",
"N c gray56",
"B c #929292",
"V c #939393",
"C c gray58",
"Z c #989898",
"A c gray60",
"S c #9A9A9A",
"D c #A9A9A9",
"F c gray67",
"G c #ACACAC",
"H c #AEAEAE",
"J c #B1B1B1",
"K c #B2B2B2",
"L c gray70",
"P c #B4B4B4",
"I c gray71",
"U c #B7B7B7",
"Y c gray72",
"T c gray73",
"R c None",
/* pixels */
"                                                 R",
"                                                  ",
"                                                  ",
"xxxxxxxxxxxxxxxxxxxxxxxxxxxxxxxxxxxxxxxxxxxxxxxxxx",
"TTTTTTTTTTTTTTTTTTTTTTTTTTTTTTTTTTTTTTTTTTTTTTTTTT",
"TTTTTTTTTTTTTTTTTTTTTTTTTTTTTTTTTTTTTTTTTTTTTTTTTT",
"TTTTTTTTTTTTTTTTTTTTTTTTTTTTTTTTTTTTTTTTTTTTTTTTTT",
"TTTTTTTTTTTTTTTTTTTTTTTTTTTTTTTTTTTTTTTTTTTTTTTTTT",
"TTTTTTTTTTTTTTTTTTTTTTTTTTTTTTTTTTTTTTTTTTTTTTTTTT",
"KKKKKKYTTTTTTTTTTTTTTTTTTTTTLKKKKKYTTTTTTTTTTTYKKK",
"AAAAAAPTTTTTTTTTTTTTTTTTTTTTSAAAAAKTTTTTTTTTTTJAAA",
"AAAAAAPTTTTTTTTTTTTTTTTTTTTTSAAAAAKTTTTTTTTTTTKAAA",
"MMMMMMHIIIIIYTTTTTTTTTTTTIIINMMMMMGIIIIIIIIIIIFMMM",
"      mAAAAAGTTTTTTTTTTTUAAZ&     bAAAAAAAAAAAv   ",
"      mAAAAAGTTTTTTTTTTTUAAZ-     nAAAAAAAAAAAv   ",
"#####ObCCCCCDYYYYYYYYYYYIVCV,####+cCCCCCCCCCCCz@##",
"999999*     lAAAAAAAAAAAV   899999;           >999",
"999999=     lAAAAAAAAAAAV  .899999:           ,999",
"999990-XXXXXlZZZZZZZZZZZB Xo899999>XXXXXXXXXXX<999",
"kkkkkke888882%%%%%%%%%%%;888jkkkkkr88888888888tkkk",
"kkkkkkr999991           $999jkkkkkt99999999999tkkk",
"kkkkkkr999991           #999jkkkkkt99999999999tkkk",
"kkkkkkjhhhhhy777777777778hhhkkkkkkjhhhhhhhhhhhjkkk",
"kkkkkkkkkkkkp99999999999qkkkkkkkkkkkkkkkkkkkkkkkkk",
"kkkkkkkkkkkkp99999999999qkkkkkkkkkkkkkkkkkkkkkkkkk",
"kkkkkkkkkkkkhggggggggggggkkkkkkkkkkkkkkku55555qkkk",
"kkkkkkkkkkkkkkkkkkkkkkkkkkkkkkkkkkkkkkkke333337kkk",
"kkkkkkkkkkkkkkkkkkkkkkkkkkkkkkkkkkkkkkkke333337kkk",
"kkkkkkkkkr77777ukkkkkkkkkkkkkkkkkkkkkkkke333337kkk",
"kkkkkkkkk833333wkkkkkkkkkkkkkkkkkkkkkkkke333337kkk",
"kkkkkkkkk833333wkkkkkkkkkkkkkkkkkkkkkkkke333337kkk",
"kkkkkkkkk833333wkkkkkkkkkkkkkkkkkkkkkkkke333337kkk",
"kkkkkkkkk833333wkkkkkkkkkkkkkkkkkkkkkkkke333337kkk",
"kkkkkkkkk833333wkkkkkkkkkkkkkkkkkkkkkkkke333337kkk",
"kkkkkkkkk833333wkkkkkkkkkkkkkkktwwfkkkkkstttttpkkk",
"kkkkkkkkk833333wkkkkkkkkkkkkkkk433skkkkkkkkkkkkkkk",
"kkkkkkkkk833333wkkkkkkkkkkkkkkk433skkkkkkkkkkkkkkk",
"kkkkkkkkkiwwwwwakkkkkkkkkkkkkkk433skkkkkkkkkkkkkkk",
"kkkkkkkkkkkkkkkkkkkkkkkkkkkkkkk433skkkkkkkkkkkkkkk",
"kkkkkkkkkkkkkkkkkkkkkkkkkkkkkkk433skkkkkkkkkkkkkkk",
"kkkkkkkkkkkkkkkkkkkkkkkkkkkkkkk433skkkkkkkkkkkkkkk",
"kkkkkkkkkkkkkkkkkkkkkkkkkkkkkkk433skkkkkkkkkkkkkkk",
"kkkkkkkkkkkkkkkkkkkkkkkkkkkkkkk433skkkkkkkkkkkkkkk",
"kkkkkkkkkkkkkkkkkkkkkkkkkkkkkkk966dkkkkkkkkkkkkkkk",
"kkkkkkkkkkkkkkkkkkkkkkkkkkkkkkkkkkkkkkkkkkkkkkkkkk",
"kkkkkkkkkkkkkkkkkkkkkkkkkkkkkkkkkkkkkkkkkkkkkkkkkk",
"kkkkkkkkkkkkkkkkkkkkkkkkkkkkkkkkkkkkkkkkkkkkkkkkkk",
"kkkkkkkkkkkkkkkkkkkkkkkkkkkkkkkkkkkkkkkkkkkkkkkkkk",
"kkkkkkkkkkkkkkkkkkkkkkkkkkkkkkkkkkkkkkkkkkkkkkkkkk",
"kkkkkkkkkkkkkkkkkkkkkkkkkkkkkkkkkkkkkkkkkkkkkkkkkk"
};
