/* XPM */
static char * caixa_xpm[] = {
"48 49 503 2",
"  	c #694227",
". 	c #704629",
"+ 	c #794D2C",
"@ 	c #7D502F",
"# 	c #7E512F",
"$ 	c #7E502F",
"% 	c #7B4E2E",
"& 	c #73492A",
"* 	c #6B4327",
"= 	c #664026",
"- 	c #7C4E2D",
"; 	c #865531",
"> 	c #9F6639",
", 	c #AB6F40",
"' 	c #AF7142",
") 	c #AE7141",
"! 	c #AD7141",
"~ 	c #B07242",
"{ 	c #AD7041",
"] 	c #A46A3C",
"^ 	c #915C34",
"/ 	c #7D4F2D",
"( 	c #925D35",
"_ 	c #8F5C34",
": 	c #935E35",
"< 	c #A66B3C",
"[ 	c #AE713F",
"} 	c #AD703E",
"| 	c #A2683A",
"1 	c #9E6639",
"2 	c #AB6E3D",
"3 	c #AF713F",
"4 	c #B07140",
"5 	c #AF7140",
"6 	c #AC703E",
"7 	c #A2693A",
"8 	c #A96D3D",
"9 	c #AA6D3D",
"0 	c #9B6338",
"a 	c #8D5932",
"b 	c #8C5932",
"c 	c #7F512E",
"d 	c #9F663A",
"e 	c #A76C3E",
"f 	c #935E36",
"g 	c #A56B3B",
"h 	c #A66A3B",
"i 	c #754A28",
"j 	c #674122",
"k 	c #9B6336",
"l 	c #AC6F3D",
"m 	c #AE703E",
"n 	c #AD6F3E",
"o 	c #A16739",
"p 	c #7D4F2B",
"q 	c #694223",
"r 	c #945F34",
"s 	c #9B6337",
"t 	c #8F5B33",
"u 	c #986137",
"v 	c #986036",
"w 	c #81512F",
"x 	c #A1673B",
"y 	c #B17342",
"z 	c #A66A3C",
"A 	c #915D34",
"B 	c #925E34",
"C 	c #83532E",
"D 	c #794D29",
"E 	c #A06638",
"F 	c #AC6E3D",
"G 	c #A4693A",
"H 	c #895830",
"I 	c #7C4F2B",
"J 	c #966035",
"K 	c #A5693B",
"L 	c #996137",
"M 	c #B27343",
"N 	c #A86C3D",
"O 	c #9D6538",
"P 	c #905C34",
"Q 	c #986236",
"R 	c #986136",
"S 	c #9F6538",
"T 	c #A06639",
"U 	c #996236",
"V 	c #A3693A",
"W 	c #A56A3B",
"X 	c #AE7040",
"Y 	c #87562F",
"Z 	c #794E2A",
"` 	c #9A6337",
" .	c #885731",
"..	c #8C5832",
"+.	c #8E5A33",
"@.	c #8D5A33",
"#.	c #8B5833",
"$.	c #875631",
"%.	c #875531",
"&.	c #885631",
"*.	c #8A5731",
"=.	c #8A5832",
"-.	c #8D5A32",
";.	c #966036",
">.	c #8B5930",
",.	c #7A4D2A",
"'.	c #945E34",
").	c #9A6237",
"!.	c #AC6F40",
"~.	c #744A28",
"{.	c #654022",
"].	c #9D6537",
"^.	c #9C6438",
"/.	c #855430",
"(.	c #965F36",
"_.	c #996237",
":.	c #A0683B",
"<.	c #8F5B35",
"[.	c #724829",
"}.	c #613C21",
"|.	c #5E3A20",
"1.	c #5F3B21",
"2.	c #5E3A21",
"3.	c #5C391F",
"4.	c #603C21",
"5.	c #5D3A20",
"6.	c #5D3920",
"7.	c #5E3B21",
"8.	c #694225",
"9.	c #82532F",
"0.	c #9E6538",
"a.	c #955F36",
"b.	c #84542E",
"c.	c #623D20",
"d.	c #8A5830",
"e.	c #B07241",
"f.	c #976135",
"g.	c #A66B3B",
"h.	c #9F6638",
"i.	c #885630",
"j.	c #AD703F",
"k.	c #925D36",
"l.	c #74482A",
"m.	c #6D4428",
"n.	c #6E4529",
"o.	c #664025",
"p.	c #764A2B",
"q.	c #714729",
"r.	c #694126",
"s.	c #754A2A",
"t.	c #6E4528",
"u.	c #835430",
"v.	c #A2693C",
"w.	c #A86C3C",
"x.	c #8B5831",
"y.	c #9B643A",
"z.	c #B17341",
"A.	c #B37343",
"B.	c #85552E",
"C.	c #643F21",
"D.	c #8E5B31",
"E.	c #AA6E3D",
"F.	c #AD7042",
"G.	c #925D37",
"H.	c #7B4D2E",
"I.	c #774B2D",
"J.	c #6F462A",
"K.	c #7E502E",
"L.	c #825230",
"M.	c #7C4E2E",
"N.	c #794C2D",
"O.	c #794C2E",
"P.	c #784C2E",
"Q.	c #74492C",
"R.	c #72482A",
"S.	c #81522F",
"T.	c #815230",
"U.	c #784B2D",
"V.	c #784C2D",
"W.	c #865532",
"X.	c #A2693D",
"Y.	c #B27342",
"Z.	c #B0713F",
"`.	c #664022",
" +	c #8C5A31",
".+	c #976136",
"++	c #9C643A",
"@+	c #B57543",
"#+	c #A76B3C",
"$+	c #B37443",
"%+	c #A1683A",
"&+	c #9A6236",
"*+	c #89572F",
"=+	c #9E6637",
"-+	c #945F38",
";+	c #7D4F2E",
">+	c #70472A",
",+	c #7F502F",
"'+	c #845331",
")+	c #7D4F2F",
"!+	c #7A4D2E",
"~+	c #764B2C",
"{+	c #73492B",
"]+	c #825330",
"^+	c #794D2D",
"/+	c #895733",
"(+	c #A4693E",
"_+	c #B17242",
":+	c #B07240",
"<+	c #9A6336",
"[+	c #976036",
"}+	c #A86B3C",
"|+	c #A16839",
"1+	c #A96D3C",
"2+	c #A76C3B",
"3+	c #945E37",
"4+	c #6F4629",
"5+	c #7F502E",
"6+	c #794D2E",
"7+	c #875633",
"8+	c #A3693D",
"9+	c #AA6D3C",
"0+	c #A3683A",
"a+	c #945E35",
"b+	c #B57544",
"c+	c #AE6F3E",
"d+	c #845430",
"e+	c #AE7041",
"f+	c #784C2C",
"g+	c #835331",
"h+	c #8C5934",
"i+	c #A3693E",
"j+	c #8D5933",
"k+	c #9D6438",
"l+	c #794C2B",
"m+	c #85542F",
"n+	c #AC6E3E",
"o+	c #955F37",
"p+	c #845330",
"q+	c #815130",
"r+	c #7C4E2F",
"s+	c #764A2C",
"t+	c #875632",
"u+	c #A46A3D",
"v+	c #9E6539",
"w+	c #996239",
"x+	c #9C6337",
"y+	c #704727",
"z+	c #654023",
"A+	c #82522E",
"B+	c #996136",
"C+	c #965F38",
"D+	c #805130",
"E+	c #855532",
"F+	c #A96C3C",
"G+	c #8B5832",
"H+	c #6F4627",
"I+	c #6B4326",
"J+	c #986239",
"K+	c #734829",
"L+	c #5A381F",
"M+	c #613D21",
"N+	c #81512D",
"O+	c #AD6F41",
"P+	c #955F38",
"Q+	c #885732",
"R+	c #6D4526",
"S+	c #59371F",
"T+	c #6D4427",
"U+	c #9A633A",
"V+	c #5B3820",
"W+	c #82532E",
"X+	c #A36A3D",
"Y+	c #5B3920",
"Z+	c #653F25",
"`+	c #9B633A",
" @	c #7A4D2D",
".@	c #774A2C",
"+@	c #613D22",
"@@	c #80522E",
"#@	c #945F37",
"$@	c #7E4F2E",
"%@	c #8B5931",
"&@	c #6E4526",
"*@	c #694226",
"=@	c #75492C",
"-@	c #9B643B",
";@	c #7B4D2D",
">@	c #684126",
",@	c #57361E",
"'@	c #623D21",
")@	c #9A6137",
"!@	c #A96D3F",
"~@	c #9A6339",
"{@	c #6E4527",
"]@	c #6C4327",
"^@	c #643F22",
"/@	c #81512E",
"(@	c #AF7242",
"_@	c #B27442",
":@	c #8B5932",
"<@	c #58361E",
"[@	c #684124",
"}@	c #72472B",
"|@	c #784B2C",
"1@	c #A56A3C",
"2@	c #B47543",
"3@	c #B17240",
"4@	c #58371E",
"5@	c #603B22",
"6@	c #835230",
"7@	c #5C3920",
"8@	c #633E22",
"9@	c #653F24",
"0@	c #6F4529",
"a@	c #784A2C",
"b@	c #865431",
"c@	c #7D4E2E",
"d@	c #623D22",
"e@	c #AE703F",
"f@	c #B47443",
"g@	c #9F6539",
"h@	c #6D4426",
"i@	c #875630",
"j@	c #A4693C",
"k@	c #A16639",
"l@	c #905B33",
"m@	c #714728",
"n@	c #754A2C",
"o@	c #6D4528",
"p@	c #664024",
"q@	c #895732",
"r@	c #AB6E40",
"s@	c #935D34",
"t@	c #674125",
"u@	c #774C2D",
"v@	c #855431",
"w@	c #A86D3E",
"x@	c #925E37",
"y@	c #7A4E2D",
"z@	c #885733",
"A@	c #A46A3E",
"B@	c #956038",
"C@	c #A4683A",
"D@	c #B27341",
"E@	c #73482B",
"F@	c #875732",
"G@	c #B27241",
"H@	c #72472A",
"I@	c #794C2C",
"J@	c #82522F",
"K@	c #8B5934",
"L@	c #9C6338",
"M@	c #774B2C",
"N@	c #835330",
"O@	c #71472A",
"P@	c #8A5833",
"Q@	c #A56B3E",
"R@	c #AA6C3D",
"S@	c #784C2A",
"T@	c #935E37",
"U@	c #74492B",
"V@	c #57361D",
"W@	c #633D22",
"X@	c #80512E",
"Y@	c #B17241",
"Z@	c #966038",
"`@	c #865632",
" #	c #5D3A21",
".#	c #5A3820",
"+#	c #774A2D",
"@#	c #AA6C3C",
"##	c #6E4627",
"$#	c #59381F",
"%#	c #643F24",
"&#	c #5C3A21",
"*#	c #643E22",
"=#	c #A56A3A",
"-#	c #A96C3D",
";#	c #A4693B",
">#	c #935F37",
",#	c #805230",
"'#	c #A2683C",
")#	c #B37442",
"!#	c #B17340",
"~#	c #6B4428",
"{#	c #58371F",
"]#	c #A86D3F",
"^#	c #915D36",
"/#	c #AA6E3E",
"(#	c #6C4426",
"_#	c #654025",
":#	c #5B391F",
"<#	c #664023",
"[#	c #80512D",
"}#	c #AC6F3E",
"|#	c #AB6E3E",
"1#	c #9A6338",
"2#	c #A06739",
"3#	c #56361E",
"4#	c #7C4F2D",
"5#	c #714829",
"6#	c #643F23",
"7#	c #81522E",
"8#	c #8F5B32",
"9#	c #9D6437",
"0#	c #AD6F3D",
"a#	c #895730",
"b#	c #623E21",
"c#	c #8F5C32",
"d#	c #623E24",
"e#	c #6B4328",
"f#	c #784C2B",
"g#	c #986037",
"h#	c #7E502C",
"i#	c #674123",
"j#	c #8E5B32",
"k#	c #976137",
"l#	c #9E6638",
"m#	c #955F34",
"n#	c #7F512C",
"o#	c #986235",
"p#	c #8C5933",
"q#	c #643E24",
"r#	c #623E22",
"s#	c #82532D",
"t#	c #9E6537",
"u#	c #83542E",
"v#	c #7A4D29",
"w#	c #8F5B34",
"x#	c #764B2B",
"y#	c #5F3C21",
"z#	c #664125",
"A#	c #7B4E2F",
"B#	c #865530",
"C#	c #905D34",
"D#	c #996238",
"E#	c #AC6F3F",
"F#	c #774C28",
"G#	c #915D33",
"H#	c #7F502C",
"I#	c #734927",
"J#	c #9C6437",
"K#	c #965F35",
"L#	c #9A6238",
"M#	c #9B6238",
"N#	c #986138",
"O#	c #8F5C35",
"P#	c #855531",
"Q#	c #8A5834",
"R#	c #8D5B35",
"S#	c #8D5A35",
"T#	c #915C35",
"U#	c #8E5B35",
"V#	c #8C5A35",
"W#	c #8C5935",
"X#	c #905C36",
"Y#	c #8E5B34",
"Z#	c #915D35",
"`#	c #714726",
" $	c #B27242",
".$	c #956035",
"+$	c #9E653A",
"@$	c #A66B3D",
"#$	c #A86C3E",
"$$	c #A96C3F",
"%$	c #AA6D3F",
"&$	c #AA6D40",
"*$	c #A76B3E",
"=$	c #A2683D",
"-$	c #925D34",
";$	c #9B6437",
">$	c #8F5C33",
",$	c #A96D3E",
"'$	c #B37441",
")$	c #B47441",
"!$	c #B47341",
"~$	c #B37341",
"{$	c #AD6F3F",
"]$	c #8D5B33",
"^$	c #AA6E3F",
"/$	c #9C6538",
"($	c #A26839",
"_$	c #7B4E2A",
":$	c #935E34",
"<$	c #88562F",
"[$	c #925E33",
"}$	c #955F35",
"|$	c #865430",
"1$	c #A2673A",
"2$	c #A0663A",
"3$	c #A1673A",
"4$	c #8C5A33",
"5$	c #83542F",
"6$	c #7B4E2C",
"7$	c #895731",
"8$	c #6C4428",
"9$	c #653F26",
"0$	c #684127",
"a$	c #6A4227",
"b$	c #6A4228",
"c$	c #684226",
"d$	c #633E26",
"  . + @ # # # # # # # # # # # # # # # # # # # # # # # # # # # # # # # # # # # $ $ # # $ % & * = ",
"- ; > , ' ' ) ! ' ~ ~ ~ ~ ~ ~ ~ ~ ~ ~ ~ ~ ~ ~ ~ ~ ~ ~ ~ ~ ~ ~ ~ ~ ~ ~ ~ ~ ~ ' ) { ' ~ { ] ^ / & ",
"( _ : < [ } | 1 2 3 4 4 4 4 4 4 4 4 4 4 4 4 4 4 4 4 4 4 4 4 4 4 4 4 4 4 4 5 6 7 1 8 3 9 0 a b c ",
"d e f ( g h i j k l m m m m m m m m m m m m m m m m m m m m m m m m m m m n o p q r 9 s t u v w ",
"x y z A B > C D E F n n n n n n n n n n n n n n n n n n n n n n n n n n n F G H I J s t 0 K L w ",
"x M N O A P Q R S o o o o o o o o o o o o o o o o o o o o o o o o o o o o o T s U J t R V W L w ",
"x X Y Z ` t  ...+.@.+.+.#. .$.%.%.%.%.%.%.%.%.%.%.%.%.%.%.%.%.%.%.&.*.a +.+.@.@.=.-.;.>.,.'.).w ",
"x !.~.{.].^./.(.0 _.O :.<.[.}.|.1.2.3.1.4.1.1.1.1.2.5.6.}.}.1.2.7.8.9.u 0.s _.u @.a.< b.c.d.).w ",
"x e.O f.g.h. .T U i.0.j.!.k.l.m.n.m.o.[.p.q.n.n.n.n.* r.s.p.n.m.t.u.v.5 w.'.x.` ;.y.z.o f.> L w ",
"x A.n 2 8 0. .S B.C.D.E.z.F.G.H.I.I.J.K.L.M.N.O.O.P.Q.R.S.T.U.V.W.X.Y.Z.| I `. +.+++@+} E.#+L w ",
"x $+Z.m 9 0. .%+&+*+=+l 3 Y.F.-+;+I.>+,+'+)+!+!+!+!+~+{+]+]+^+/+(+_+:+m w.J  +<+[+++@+3 } }+L w ",
"x $+:+m 9 0. .|+1+2+l m m 3 Y.{ 3+% 4+5+'+)+!+!+!+6+~+{+S.T.7+8+Y.:+m m } 9+2+0+a+++b+3 c+}+L w ",
"x $+:+m 9 0.d+R g.l m m m m 3 Y.e+3+f+,+g+)+!+!+!+6+~+R.- h+i+_+:+m m m m n w.^.j+++b+3 c+}+L w ",
"x $+:+m 9 k+l+m+).z n+m m m m Z.Y.{ o+p+q+r+!+!+!+6+s+R.t+u+_+:+m m m m n w.v+b K.w+b+3 c+}+L w ",
"x $+:+m 9 x+y+z+A+B+z n+m m m m Z.Y.e+C+D+!+!+!+!+O.I.E+X._+:+m m m m n F+v+G+H+I+J+b+3 c+}+L w ",
"x $+:+m 9 ^.K+L+M+N+_.h n+m m m m Z.Y.O+P+)+V.!+6+^+Q+8+_+:+m m m m n w.v+G+R+S+T+U+b+3 c+}+L w ",
"x $+:+m 9 k+f+m.V+M+W+_.z n+m m m m Z.Y.{ 3+M.U.N.7+X+y :+m m m m n F+v+b H+Y+Z+N.`+b+3 c+}+L w ",
"x $+:+m 9 k+ @.@t.S++@@@_.h n+m m m m Z.Y.O+#@$@Q+(+_+:+m m m m n w.0.%@&@5.*@=@)+-@b+3 c+}+L w ",
"x $+:+m 9 k+;@U.U.>@,@'@W+)@z n+m m m m Z.z.!@~@u+y :+m m m m n F+v+b &@3.{@% N.)+-@b+3 c+}+L w ",
"x $+:+m 9 k+;@U.N.>+]@4.^@/@L h n+m m m m 3 5 (@_@:+m m m m n w.0.:@R+<@[@5+D+N.)+-@b+3 c+}+L w ",
"x $+:+m 9 k+;@U.N.}@|@l+4.+@A+_.1@n+m m n [ _@2@3@m m m m n F+v+:@R+4@5@l.6@D+N.)+-@b+3 c+}+L w ",
"x $+:+m 9 k+;@U.N.}@ @d+K+7@8@A+B+z n+m 3 $+2@:+m m m m n F+v+G+{@L+9@0@a@6@D+N.)+-@b+3 c+}+L w ",
"x $+:+m 9 k+;@U.N.}@ @b@c@t.7@d@N+L #+e@f@2@3@m m m m n w.g@G+h@L+o.Q.{+a@6@D+N.)+-@b+3 c+}+L w ",
"x $+:+m 9 k+;@U.N.}@ @b@$ V.0@7@^@i@j@A.@+3@m m m m n F+k@l@m@L+o.n@O.{+a@6@D+N.)+-@b+3 c+}+L w ",
"x $+:+m 9 k+;@U.N.}@ @b@$ !+P.o@p@q@r@2@3@m m m m n w.0+k@s@[.t@n@!+O.{+a@6@D+N.)+-@b+3 c+}+L w ",
"x $+:+m 9 k+;@U.N.}@ @b@$ !+6+u@v@8+Y.3@m m m m n F+0+V 9 w@x@y@V.!+O.{+a@6@D+N.)+-@b+3 c+}+L w ",
"x $+:+m 9 k+;@U.N.}@ @b@$ 6+^+z@A@y :+m m m m n F+0+G 9+m z., B@;+V.V.{+a@6@D+N.)+-@b+3 c+}+L w ",
"x $+:+m 9 k+;@U.N.}@ @b@;+^+/+u+Y.3@m m m m n 1+C@G 9+m m 3 D@, P+;+~+E@a@6@D+N.)+-@b+3 c+}+L w ",
"x $+:+m 9 k+;@U.N.}@ @v@;+F@A@Y.3@m m m m n F+| | F+n m m m 3 G@!.P+M.H@.@6@D+N.)+-@b+3 c+}+L w ",
"x $+:+m 9 k+;@U.N.}@I@J@K@u+Y.3@m m m m n F+> a+L@h 2 m m m m 3 D@, -+N.M@N@D+N.)+-@b+3 c+}+L w ",
"x $+:+m 9 k+;@U.N.O@p.P@Q@_@3@m m m m n R@> b S@m+L W 2 m m m m 3 G@r@T@$ S.D+N.)+-@b+3 c+}+L w ",
"x $+:+m 9 k+;@U.U.U@W.8+M 3@m m m m n F+> G+R+V@W@X@u W 2 m m m m 3 Y@, Z@N@M.N.)+-@b+3 c+}+L w ",
"x $+:+m 9 k+ @I.V.`@u+_@3@m m m m n R@T b R+4@ #.#8@/@u W 2 m m m m 3 z., Z@,++#r+-@b+3 c+}+L w ",
"x $+:+m 9 k++ M@Q+u+Y.:+m m m m n @#> ..##$#%#{+n.&#*#/@R =#2 m m m m 3 Y@r@P+r+% y.b+3 c+}+L w ",
"x $+:+m 9 k+;@t+u+M :+m m m m n -#T b &@L+o.n@!+N.o@Y+d@N+R ;#2 m m m m 3 G@, >#,#U+b+3 c+}+L w ",
"x $+:+m 9 O p+'#)#!#m m m m n -#> b &@5.I+M@!+!+!+V.~#{#8@A+v ;#2 m m m m Z.z.]#^#U+b+3 c+}+L w ",
"x $+:+m 9 0.=./#[ 2 l m m n F+> b h@,@(#$ )+!+!+!+!+n@_#:#<#[#R K 2 m m } l }#|#1#++b+3 c+}+L w ",
"x $+:+m 9 0. .V ^. +2#l n R@> b &@3# #4#'+)+!+!+!+6+~+>+5#6#8@7#v ;#2 m 8 R 8#9#.+++b+3 m }+L w ",
"x $+3 0#9 0. .T a#b#c#F+1+T :@&@S+d#e#,+'+)+!+!+!+6+~+U@S.f#7@^@X@g#K 2 V h#i#j#k#++@+[ l }+L w ",
"x y | l##+v+ .T m#n#o#g.> p#R+,@q#E@>+$ g+r+6+6+6+6+n@{+]+T.m.7@r#/@R G G j#s#J ;.++)#g t#|+_.w ",
"x { u#v#T 0.; s T x+o > w#x#y#z#~+!+Q.,+g+$ % A#A#% V.~+]+g+!+4++@(#B#R o > O O C#D#E#8#F#G#_.w ",
"x X H#I#J#K# .a.L#0 M#N#O#P#N@Q#R#S#K@<.T#<.U#R#R#R#V#W#X#X#U#V#`@u.#.a.L#M#0 N#Y#Z#1 a#`#j#).w ",
"x  $| o#[++..$+$@$e #$#$$$%$&$%$%$%$%$%$%$%$%$%$%$%$%$%$%$%$%$%$&$&$!@#$#$#$*$=$~@A -$U J#|+_.w ",
"x Y.2 ;$>$u j#t ,$D@'$)$!$!$!$!$!$!$!$!$!$!$!$!$!$!$!$!$!$!$!$!$!$!$!$!$)$~${$1#]$J a+a+0+#+_.w ",
"d ^$^.t /$V I#C.J#0#m m m m m m m m m m m m m m m m m m m m m m m m m m m } ($_$`.:$V : : T 0 S.",
"[+u t s 9+F+j#<$0+l 0#0#0#0#0#0#0#0#0#0#0#0#0#0#0#0#0#0#0#0#0#0#0#0#0#0#0#l g.[$*+h.l 7 :$-$}$J@",
"|$B#K#2#| 1$2$T 1$| | | | | | | | | | | | | | | | | | | | | | | | | | | | | | 2#> 3$| %+s 4$5$6$",
". - G+q@$.$.$.$.$.$.$.$.$.$.$.$.$.$.$.$.$.$.$.$.$.$.$.$.$.$.$.$.$.$.$.$.$.$.$.$.$.$.%.7$:@/.{+8$",
"9$0$a$a$b$b$b$b$b$b$b$b$b$b$b$b$b$b$b$b$b$b$b$b$b$b$b$b$b$b$b$b$b$b$b$b$b$b$b$b$b$b$b$b$a$c$= d$"};
