/* XPM */
static char * Idle_xpm[] = {
"49 49 695 2",
"  	c None",
". 	c #741D1D",
"+ 	c #BC2C2C",
"@ 	c #CA2222",
"# 	c #841818",
"$ 	c #771A1A",
"% 	c #C42020",
"& 	c #EB1616",
"* 	c #E90909",
"= 	c #FD2424",
"- 	c #C91818",
"; 	c #A71F1F",
"> 	c #E11515",
", 	c #DF0000",
"' 	c #DC0000",
") 	c #D90000",
"! 	c #EF1A1A",
"~ 	c #F50C0C",
"{ 	c #B81F1F",
"] 	c #D80404",
"^ 	c #D40000",
"/ 	c #D10000",
"( 	c #CD0000",
"_ 	c #C20000",
": 	c #D30707",
"< 	c #FF0000",
"[ 	c #9E0202",
"} 	c #A81717",
"| 	c #CC0000",
"1 	c #C80000",
"2 	c #BE0000",
"3 	c #BF0000",
"4 	c #A20000",
"5 	c #B80000",
"6 	c #F50000",
"7 	c #CF0000",
"8 	c #770505",
"9 	c #C10202",
"0 	c #BD0000",
"a 	c #BA0000",
"b 	c #B60000",
"c 	c #960000",
"d 	c #B00000",
"e 	c #920000",
"f 	c #A00000",
"g 	c #DA0000",
"h 	c #F80000",
"i 	c #440000",
"j 	c #A40000",
"k 	c #B10000",
"l 	c #A80000",
"m 	c #A70000",
"n 	c #890000",
"o 	c #950000",
"p 	c #720000",
"q 	c #9C0000",
"r 	c #CC1C1C",
"s 	c #783D3D",
"t 	c #A0A0A0",
"u 	c #787878",
"v 	c #610000",
"w 	c #A50000",
"x 	c #9F0000",
"y 	c #870000",
"z 	c #980000",
"A 	c #8D0000",
"B 	c #673E3E",
"C 	c #B0A7A7",
"D 	c #D9D9D9",
"E 	c #F3F3F3",
"F 	c #FFFFFF",
"G 	c #EAEAEA",
"H 	c #A9A9A9",
"I 	c #C0C1C1",
"J 	c #F2F3F3",
"K 	c #FDFEFE",
"L 	c #EDF0F1",
"M 	c #D5D8D9",
"N 	c #ADAFAF",
"O 	c #730000",
"P 	c #910000",
"Q 	c #681F1F",
"R 	c #B4B1B1",
"S 	c #EEF0F0",
"T 	c #F1F1F1",
"U 	c #B8B8B8",
"V 	c #C9CBCB",
"W 	c #D8DDDE",
"X 	c #C4CCCE",
"Y 	c #F0F2F3",
"Z 	c #FAFBFB",
"` 	c #E4E8E9",
" .	c #C1CACD",
"..	c #C7CDCF",
"+.	c #919494",
"@.	c #770000",
"#.	c #880000",
"$.	c #7E0000",
"%.	c #7B0000",
"&.	c #744E4E",
"*.	c #D3D6D6",
"=.	c #EBEEEF",
"-.	c #EEF1F2",
";.	c #F7F8F8",
">.	c #FEFEFE",
",.	c #CBCBCB",
"'.	c #BABCBC",
").	c #EAEDEE",
"!.	c #EBEDEE",
"~.	c #292D2E",
"{.	c #212526",
"].	c #BFC6C8",
"^.	c #F7F9F9",
"/.	c #F4F6F6",
"(.	c #E2E7E8",
"_.	c #525657",
":.	c #95A4A7",
"<.	c #D6DCDE",
"[.	c #909495",
"}.	c #6F0000",
"|.	c #790000",
"1.	c #760000",
"2.	c #623D3E",
"3.	c #D2D6D7",
"4.	c #E7EBEC",
"5.	c #F2F4F5",
"6.	c #F1F3F3",
"7.	c #ABACAC",
"8.	c #D0D4D5",
"9.	c #C1C4C5",
"0.	c #E3E7E8",
"a.	c #EBEFEF",
"b.	c #777979",
"c.	c #000000",
"d.	c #6D787A",
"e.	c #ECEFEF",
"f.	c #E0E5E6",
"g.	c #808485",
"h.	c #727E81",
"i.	c #CAD2D4",
"j.	c #D1D8DA",
"k.	c #686C6D",
"l.	c #600000",
"m.	c #690000",
"n.	c #5C0000",
"o.	c #BBBFC0",
"p.	c #E2E6E8",
"q.	c #E5EAEA",
"r.	c #E9ECED",
"s.	c #ECEFF0",
"t.	c #EAEDED",
"u.	c #A1A3A4",
"v.	c #D7DCDD",
"w.	c #B1B9BB",
"x.	c #929595",
"y.	c #E9EDED",
"z.	c #CBCDCE",
"A.	c #1B1F20",
"B.	c #C2C9CB",
"C.	c #F5F7F7",
"D.	c #A5A9AA",
"E.	c #545D60",
"F.	c #BEC8CA",
"G.	c #B3BBBE",
"H.	c #A0A8AA",
"I.	c #4A0000",
"J.	c #797475",
"K.	c #DBE1E3",
"L.	c #DFE4E5",
"M.	c #E5E9EA",
"N.	c #E6EAEB",
"O.	c #999C9D",
"P.	c #D4DADB",
"Q.	c #DCE2E4",
"R.	c #C7CED0",
"S.	c #2F3435",
"T.	c #101111",
"U.	c #D7DBDB",
"V.	c #717373",
"W.	c #727C7F",
"X.	c #ECEEEF",
"Y.	c #E9EDEE",
"Z.	c #BFC5C6",
"`.	c #1E2223",
" +	c #B1BEC1",
".+	c #939899",
"++	c #B3BEC0",
"@+	c #3F4142",
"#+	c #3A0000",
"$+	c #5A0000",
"%+	c #ADB3B4",
"&+	c #D7DEE0",
"*+	c #DAE0E2",
"=+	c #DDE3E4",
"-+	c #A7ABAC",
";+	c #C1C8CA",
">+	c #9BA1A2",
",+	c #CCD2D3",
"'+	c #DBE1E2",
")+	c #828C8E",
"!+	c #939696",
"~+	c #C4C8C8",
"{+	c #1F2324",
"]+	c #DEE3E4",
"^+	c #818586",
"/+	c #A9B3B5",
"(+	c #A6ADAE",
"_+	c #A3AEB0",
":+	c #7B8082",
"<+	c #450000",
"[+	c #C3CACC",
"}+	c #D3DADC",
"|+	c #D6DDDE",
"1+	c #D8DFE0",
"2+	c #C8CDCE",
"3+	c #A3A9AA",
"4+	c #C5CED0",
"5+	c #393F41",
"6+	c #7B7F7F",
"7+	c #C3CBCD",
"8+	c #2A2F30",
"9+	c #191919",
"0+	c #D9DDDE",
"a+	c #C0C3C4",
"b+	c #CACDCD",
"c+	c #B4BBBD",
"d+	c #C1CACC",
"e+	c #CED6D8",
"f+	c #B8BFC1",
"g+	c #8E989A",
"h+	c #8B9193",
"i+	c #120505",
"j+	c #C5CFD1",
"k+	c #D0D8DA",
"l+	c #8E9395",
"m+	c #CCD4D6",
"n+	c #869193",
"o+	c #020202",
"p+	c #C3C9CB",
"q+	c #D9DFE0",
"r+	c #8D9698",
"s+	c #5D6061",
"t+	c #DBE0E1",
"u+	c #C9CFD1",
"v+	c #929594",
"w+	c #9B6F46",
"x+	c #B97400",
"y+	c #CB7F00",
"z+	c #BF7E00",
"A+	c #A68C5B",
"B+	c #9EA6A5",
"C+	c #BEC6C8",
"D+	c #92999A",
"E+	c #B1BDBF",
"F+	c #C9D2D4",
"G+	c #CBD4D6",
"H+	c #C1C9CB",
"I+	c #989FA0",
"J+	c #BFC8CA",
"K+	c #33383A",
"L+	c #D8DEE0",
"M+	c #DDE2E4",
"N+	c #E1E6E7",
"O+	c #BBC1C3",
"P+	c #98826D",
"Q+	c #CE9804",
"R+	c #F9C300",
"S+	c #FFDC00",
"T+	c #FFEE00",
"U+	c #FFFB00",
"V+	c #FFFF00",
"W+	c #F2F000",
"X+	c #B2A549",
"Y+	c #6B706F",
"Z+	c #9BA6A9",
"`+	c #BBC6C9",
" @	c #B6BFC0",
".@	c #83898B",
"+@	c #ACB3B5",
"@@	c #98A0A3",
"#@	c #989D9E",
"$@	c #D9DFE1",
"%@	c #959870",
"&@	c #D8C801",
"*@	c #FFEC00",
"=@	c #FFF700",
"-@	c #FFFE00",
";@	c #FFFA00",
">@	c #FFED00",
",@	c #FFD500",
"'@	c #E4C100",
")@	c #8C7700",
"!@	c #788183",
"~@	c #8B9192",
"{@	c #D5D6D6",
"]@	c #E0E2E2",
"^@	c #BAC0C1",
"/@	c #868E8F",
"(@	c #CFD7D8",
"_@	c #CED6D7",
":@	c #959694",
"<@	c #C8BF22",
"[@	c #FDFD00",
"}@	c #FFF100",
"|@	c #FFF400",
"1@	c #FFF200",
"2@	c #FFF300",
"3@	c #FFE200",
"4@	c #B98100",
"5@	c #A77800",
"6@	c #404141",
"7@	c #EFEFEF",
"8@	c #FDFDFD",
"9@	c #B2BEC1",
"0@	c #808789",
"a@	c #B6C0C2",
"b@	c #987956",
"c@	c #F0D900",
"d@	c #FFEB00",
"e@	c #FFF000",
"f@	c #FFE800",
"g@	c #F8CD00",
"h@	c #E99300",
"i@	c #FEB700",
"j@	c #FFD400",
"k@	c #FFE400",
"l@	c #FFEA00",
"m@	c #FFE900",
"n@	c #FFE500",
"o@	c #C9B100",
"p@	c #9A9C9C",
"q@	c #BFC9CC",
"r@	c #98A4A6",
"s@	c #7C8587",
"t@	c #A26C30",
"u@	c #FDB700",
"v@	c #F6C500",
"w@	c #A1681E",
"x@	c #E8A200",
"y@	c #FFC100",
"z@	c #FFCB00",
"A@	c #FECB00",
"B@	c #96896A",
"C@	c #C09B71",
"D@	c #D18403",
"E@	c #F9AB00",
"F@	c #FFC600",
"G@	c #FFD900",
"H@	c #FFE000",
"I@	c #FFDE00",
"J@	c #F4CD00",
"K@	c #999D9D",
"L@	c #F6F8F8",
"M@	c #B9C4C7",
"N@	c #B0BDC0",
"O@	c #A99A74",
"P@	c #D9BD7E",
"Q@	c #AB8E76",
"R@	c #C0A47A",
"S@	c #99B0A0",
"T@	c #47AE6A",
"U@	c #AC957A",
"V@	c #BF975E",
"W@	c #C39E52",
"X@	c #B1A17C",
"Y@	c #FFEFC9",
"Z@	c #EED6A4",
"`@	c #B2ABA4",
" #	c #AF8F6B",
".#	c #C07B14",
"+#	c #E09700",
"@#	c #F8B500",
"##	c #734800",
"$#	c #A7A7A7",
"%#	c #CECFCF",
"&#	c #B4B5B5",
"*#	c #737778",
"=#	c #DCE2E3",
"-#	c #D0D8D9",
";#	c #AFBCBF",
">#	c #78766C",
",#	c #E7C986",
"'#	c #DCD8D2",
")#	c #D5F2DD",
"!#	c #66B47D",
"~#	c #7BC892",
"{#	c #DBCBAE",
"]#	c #FFECC0",
"^#	c #FFEEC7",
"/#	c #FFF4DC",
"(#	c #FFF0CE",
"_#	c #FFE5AC",
":#	c #DAE4DA",
"<#	c #7CBF8E",
"[#	c #BEC0A1",
"}#	c #8A8E8F",
"|#	c #7D4E00",
"1#	c #A5A5A5",
"2#	c #CBCCCC",
"3#	c #AAB2B3",
"4#	c #CAD3D5",
"5#	c #C4CED0",
"6#	c #B3C0C3",
"7#	c #929DA0",
"8#	c #C7CCCD",
"9#	c #B8BCBB",
"0#	c #9F927C",
"a#	c #D9DAD9",
"b#	c #C9E2D0",
"c#	c #DBD7CF",
"d#	c #F0DBAB",
"e#	c #FFEDC1",
"f#	c #FFEBBB",
"g#	c #E5D3B2",
"h#	c #C8D4CB",
"i#	c #B3B7B6",
"j#	c #CFD4D5",
"k#	c #DFE2E3",
"l#	c #B1B1B2",
"m#	c #909A9D",
"n#	c #9AA6A8",
"o#	c #959C9D",
"p#	c #DEE3E5",
"q#	c #EFF2F2",
"r#	c #E6E9EA",
"s#	c #B7BBBB",
"t#	c #9A9689",
"u#	c #F1DDAD",
"v#	c #FFEBBA",
"w#	c #FDEABA",
"x#	c #E4D3A8",
"y#	c #D3C39C",
"z#	c #E9D7AB",
"A#	c #D7C394",
"B#	c #D6DADB",
"C#	c #F1F3F4",
"D#	c #CFD6D7",
"E#	c #CED0D1",
"F#	c #C8CACA",
"G#	c #3A3F3F",
"H#	c #414444",
"I#	c #BEC7C9",
"J#	c #D4DBDD",
"K#	c #9A9B97",
"L#	c #E6C57C",
"M#	c #ECCD89",
"N#	c #F8D78F",
"O#	c #FFDC91",
"P#	c #FFDB8D",
"Q#	c #FCD581",
"R#	c #E4BE69",
"S#	c #B09048",
"T#	c #D7DBDC",
"U#	c #BCC4C6",
"V#	c #B1B2B3",
"W#	c #D7DDDF",
"X#	c #C1C3C3",
"Y#	c #93908F",
"Z#	c #D4ACA8",
"`#	c #FCF7F6",
" $	c #B1B9BA",
".$	c #D2DADB",
"+$	c #DBE0E2",
"@$	c #3D3F40",
"#$	c #292929",
"$$	c #808080",
"%$	c #B2ABA9",
"&$	c #BCC3C5",
"*$	c #D9DEDF",
"=$	c #D5DADC",
"-$	c #CDD1D3",
";$	c #B6B6B7",
">$	c #B6B5B6",
",$	c #D8DBDC",
"'$	c #D0D3D4",
")$	c #686D6E",
"!$	c #404040",
"~$	c #B5B2B1",
"{$	c #E6B3AC",
"]$	c #F8F7F7",
"^$	c #D5D5D5",
"/$	c #B6B9B9",
"($	c #A7ADAF",
"_$	c #9DA3A5",
":$	c #BD4833",
"<$	c #846E6A",
"[$	c #CCA49F",
"}$	c #D4B7B5",
"|$	c #8A8484",
"1$	c #CED2D3",
"2$	c #D2D9DB",
"3$	c #9D9FA0",
"4$	c #C0C4C5",
"5$	c #A2A2A3",
"6$	c #683B3B",
"7$	c #673434",
"8$	c #633232",
"9$	c #653B3B",
"0$	c #BABABB",
"a$	c #505252",
"b$	c #2E2E2E",
"c$	c #C7B4B2",
"d$	c #BBA9A7",
"e$	c #EFD7D4",
"f$	c #BC2E00",
"g$	c #CC3300",
"h$	c #88382D",
"i$	c #7E7E7E",
"j$	c #553A3A",
"k$	c #B9BCBD",
"l$	c #B3B6B6",
"m$	c #AFB2B3",
"n$	c #683434",
"o$	c #754F4F",
"p$	c #AFA5A5",
"q$	c #7A5C5C",
"r$	c #664040",
"s$	c #DBDFE0",
"t$	c #999FA1",
"u$	c #0C0C0C",
"v$	c #B3B3B3",
"w$	c #ECECEC",
"x$	c #FFFEFE",
"y$	c #EED1CE",
"z$	c #DC9189",
"A$	c #838181",
"B$	c #202020",
"C$	c #6D3A3A",
"D$	c #7B3E3E",
"E$	c #624141",
"F$	c #493838",
"G$	c #9C9E9F",
"H$	c #CFD7D9",
"I$	c #C8D1D3",
"J$	c #BFC4C5",
"K$	c #7A6566",
"L$	c #743A3A",
"M$	c #E0E0E0",
"N$	c #F9FAFA",
"O$	c #C9CDCE",
"P$	c #6A3535",
"Q$	c #673333",
"R$	c #C0C1C2",
"S$	c #AFB7B9",
"T$	c #522A2A",
"U$	c #B4B0B0",
"V$	c #E7E7E7",
"W$	c #FBFBFB",
"X$	c #D4D5D5",
"Y$	c #D6D7D7",
"Z$	c #524545",
"`$	c #793C3C",
" %	c #443535",
".%	c #686969",
"+%	c #D0D2D3",
"@%	c #E5E6E6",
"#%	c #929393",
"$%	c #7A7C7C",
"%%	c #9B9FA0",
"&%	c #B6BEC0",
"*%	c #673737",
"=%	c #724A4B",
"-%	c #DAE0E1",
";%	c #DEE4E5",
">%	c #B5BCBE",
",%	c #653232",
"'%	c #BEC0C1",
")%	c #AEB5B7",
"!%	c #492323",
"~%	c #683636",
"{%	c #763D3D",
"]%	c #7B4141",
"^%	c #773F3F",
"/%	c #6C3939",
"(%	c #C9CECF",
"_%	c #989A9A",
":%	c #602F2F",
"<%	c #181616",
"[%	c #B5BCBD",
"}%	c #B6BCBD",
"|%	c #D5DBDD",
"1%	c #565656",
"2%	c #737474",
"3%	c #808282",
"4%	c #6F4C4D",
"5%	c #763B3B",
"6%	c #999D9F",
"7%	c #AAB4B7",
"8%	c #78696A",
"9%	c #693434",
"0%	c #6A4343",
"a%	c #D3D9DA",
"b%	c #97A0A2",
"c%	c #2B2A2A",
"d%	c #432323",
"e%	c #4A2929",
"f%	c #452828",
"g%	c #81898B",
"h%	c #505353",
"i%	c #939C9E",
"j%	c #BEC8CB",
"k%	c #BBC2C3",
"l%	c #B2B9BA",
"m%	c #7F8688",
"n%	c #A7AAAB",
"o%	c #AEB5B6",
"p%	c #949294",
"q%	c #6B3636",
"r%	c #6F3838",
"s%	c #6E3737",
"t%	c #703838",
"u%	c #A9AAAB",
"v%	c #C7CFD1",
"w%	c #737879",
"x%	c #454545",
"y%	c #444444",
"z%	c #262626",
"A%	c #141414",
"B%	c #1B1B1B",
"C%	c #151515",
"D%	c #121212",
"E%	c #373737",
"F%	c #4C4C4C",
"G%	c #2F2F2F",
"H%	c #8F9496",
"I%	c #B2B8B9",
"J%	c #A6ABAC",
"K%	c #908B8D",
"L%	c #68393A",
"M%	c #6C5051",
"N%	c #AAABAC",
"O%	c #8A9294",
"P%	c #333333",
"Q%	c #161616",
"R%	c #0D0D0D",
"S%	c #222222",
"T%	c #3A3A3A",
"U%	c #3B3B3B",
"V%	c #505454",
"W%	c #B1B6B7",
"X%	c #CBCFD0",
"Y%	c #BEC4C5",
"Z%	c #B3BABC",
"`%	c #C0C7C9",
" &	c #CBD3D5",
".&	c #B1BABC",
"+&	c #848D90",
"@&	c #CFD5D7",
"#&	c #585B5C",
"$&	c #0B0B0B",
"%&	c #797B7B",
"&&	c #7A7A7A",
"*&	c #B9BEBF",
"=&	c #959A9B",
"-&	c #C7CACB",
";&	c #D1D7D9",
">&	c #717576",
",&	c #878D8E",
"'&	c #D3DADB",
")&	c #E7EBEB",
"!&	c #BABEBF",
"~&	c #767676",
"{&	c #C0C5C6",
"]&	c #BAC2C4",
"^&	c #C3CCCE",
"/&	c #F1F4F4",
"(&	c #BEC2C3",
"_&	c #AAB2B4",
":&	c #B0B8BA",
"<&	c #CECFD0",
"[&	c #BBBDBE",
"}&	c #9D9E9F",
"|&	c #C7CBCC",
"1&	c #AEB6B8",
"2&	c #969B9C",
"3&	c #D2D4D4",
"4&	c #999C9C",
"5&	c #C6C9C9",
"6&	c #D3D4D5",
"7&	c #AFB0B0",
"8&	c #CCCECE",
"9&	c #FCFDFD",
"0&	c #D0D7D9",
"a&	c #ABB2B3",
"b&	c #D4DBDC",
"c&	c #CAD1D3",
"d&	c #D2D8DA",
"e&	c #A7AEB0",
"f&	c #D5DCDD",
"g&	c #C3C4C4",
"h&	c #BDC8CB",
"i&	c #ADBABD",
"j&	c #ACB4B6",
"k&	c #A5ADAF",
"l&	c #BEC9CB",
"                                                                                                  ",
"                                                                                                  ",
"                                                                                                  ",
"                                . + @ #                                                           ",
"                            $ % & * = -                                                           ",
"                          ; > , ' ) ! ~                                                           ",
"                        { ] ^ / ( _ : < [                                                         ",
"                      } | 1 2 2 3 4 5 6 7                                                         ",
"                    8 9 0 a b c d e f g h i                                                       ",
"                    j k l m l n o o p q r s           t u                                         ",
"                  v w 4 x y z A B C D E F F F G H I J K L M N                                     ",
"                  O c P P y Q R S F F F F T U V W X Y Z Y `  ...+.                                ",
"                  @.#.$.%.&.*.=.-.;.>.F ,.'.).!.~.{.].^./.(._.:.<.[.                              ",
"                  }.|.1.2.3.4.=.-.5.6.7.8.9.0.a.b.c.d.e.;.f.g.h.i.j.k.                            ",
"                  l.m.n.o.p.q.r.s.t.u.v.w.c.x.y.z.c.A.B.C.` D.E.F.G.H.                            ",
"                  I.l.J.K.L.(.M.N.O.P.Q.R.S.T.U.r.V.c.W.X.Y.Z.`. +.+++@+                          ",
"                  #+$+%+&+*+=+f.-+;+>+,+'+)+c.!+N.~+c.{+]+Y <.^+/+(+_+:+                          ",
"                    <+[+}+|+1+2+3+4+5+6+*+7+8+9+0+N.a+b+M.2+c+d+e+f+g+h+                          ",
"                    i+j+e+k+}+l+m+j.n+o+p+q+r+s+t+N.u+v+w+x+y+z+A+B+C+D+                          ",
"                      E+F+G+H+I+m+e+J+K+g.L+M+N+O+P+Q+R+S+T+U+V+V+W+X+Y+                          ",
"                      Z+`+ @.@+@i.m+e+@@#@$@B.%@&@*@=@-@V+V+V+-@;@>@,@'@)@                        ",
"                      !@~@{@]@^@/@7+m+(@_@:@<@[@V+V+S+}@;@|@1@2@2@T+3@4@5@                        ",
"                      6@7@F 8@a.9@0@G+a@b@c@d@=@e@f@g@h@i@j@k@f@l@m@n@o@                          ",
"                      p@F F Z s.q@r@s@t@u@v@w@x@y@z@A@B@C@D@E@F@G@H@I@J@                          ",
"                      K@L@L@Y.` M@N@O@P@Q@R@S@T@U@V@W@X@Y@Z@`@ #.#+#@#i@##  $#%#&#                ",
"                      *#1+K.=#-# +;#>#,#'#)#!#~#{#]#^#/#(#_#:#<#[#}#  |#  1#r.(.2#                ",
"                        3#4#5#6# +7#8#9#0#a#b#c#d#]#e#e#]#f#g#h#i#j#      k#4#'+l#                ",
"                          m#N@ +n#o#p#q#r#s#t#u#v#w#x#y#z#v#A#B#C#D#    E#(@-#F#                  ",
"                              G#H#I#J#` q#s.K#L#M#N#O#P#Q#R#S#T#f.U#  V#W#G+8.                    ",
"                    X#      Y#Z#`#I  $.$K.+$@$#$$$%$c.        ^@&$    *$F+=$                      ",
"              9.-$;$>$,$'$)$!$~${$]$^$/$($_$:$<$[$}$|$              1$4#2$3$                      ",
"            4$5$6$7$8$9$0$P.a$b$c$d$T F e$f$g$h$i$!$j$            k$m+G+l$                        ",
"            m$n$o$p$q$7$r$s$t$u$v$w$F F x$y$z$A$B$C$D$E$F$      G$H$I$J$                          ",
"          O+K$L$M$N$O$P$Q$R$S$T$U$V$W$F >.X$Y$Z$  `$ %.%+%@%#%$%%%d+..                            ",
"          &%*%=%-%;%>%P$,%'%)%!%~%{%]%^%/%(%C._%  :%<%[%1+f.}%|%1%2%3%                            ",
"          &%4%5%6%7%8%9%0%a%b%#$!$c%d%e%f%g%3#h%      i%j%1+k%l%m%n%                              ",
"          o%p%q%r%s%t%9%u%v%w%x%y%z%A%B%C%D%E%F%G%        _@H%I%2+J%                              ",
"            U#K%L%Q$M%N%4#>+O%x%P%Q%      R%S%T%U%        V%W%X%Y%                                ",
"              Z%X `% &.&+&@&#&P%Q%          $&z%%&~+      i$&&*&                                  ",
"                        =&-&;&>&              ,&'&)&!&    ~&                                      ",
"                        {&C#2$]&              ^&2$/&(&                                            ",
"                        (%N+4#_&              :&m+` }%                                            ",
"                V#<&[&}&+%|&1&                2&|&3&4&5&6&7&                                      ",
"              8&F 9&N.0&a&b&B.                c&d&e&f&Y.8@F g&                                    ",
"              M+r.;%(@h&i&j&F+                F+k& +l&H$=+N.|+                                    ",
"                                                                                                  ",
"                                                                                                  ",
"                                                                                                  ",
"                                                                                                  "};
