/* XPM */
static char * terra_xpm[] = {
"49 49 763 2",
"  	c #3D3D17",
". 	c #34340E",
"+ 	c #373711",
"@ 	c #2F2F09",
"# 	c #2A2A04",
"$ 	c #282802",
"% 	c #2D2D07",
"& 	c #30300A",
"* 	c #3E3E1A",
"= 	c #3C3C18",
"- 	c #383816",
"; 	c #353513",
"> 	c #323210",
", 	c #31310F",
"' 	c #30300E",
") 	c #2C2C0A",
"! 	c #222102",
"~ 	c #1E1D00",
"{ 	c #212001",
"] 	c #252405",
"^ 	c #282708",
"/ 	c #2D2C0D",
"( 	c #322F10",
"_ 	c #332E10",
": 	c #322E11",
"< 	c #302F11",
"[ 	c #302F13",
"} 	c #24240A",
"| 	c #232309",
"1 	c #1F2109",
"2 	c #1D1F07",
"3 	c #191D04",
"4 	c #171B04",
"5 	c #151902",
"6 	c #151800",
"7 	c #383919",
"8 	c #363612",
"9 	c #402F11",
"0 	c #432F14",
"a 	c #483419",
"b 	c #422E13",
"c 	c #463217",
"d 	c #412C11",
"e 	c #3D2910",
"f 	c #332208",
"g 	c #301F05",
"h 	c #352108",
"i 	c #39250C",
"j 	c #3E2A11",
"k 	c #4F3B23",
"l 	c #4C3820",
"m 	c #48321B",
"n 	c #412D15",
"o 	c #3E2813",
"p 	c #3A2510",
"q 	c #3A240F",
"r 	c #39240F",
"s 	c #3D2712",
"t 	c #2F1A05",
"u 	c #291200",
"v 	c #2E1906",
"w 	c #321B09",
"x 	c #301B08",
"y 	c #361F0D",
"z 	c #3F2816",
"A 	c #3F2514",
"B 	c #3D2614",
"C 	c #3F2516",
"D 	c #3D2616",
"E 	c #3D2618",
"F 	c #362012",
"G 	c #341E11",
"H 	c #2F1C0E",
"I 	c #2B180A",
"J 	c #271308",
"K 	c #210F03",
"L 	c #1F0B00",
"M 	c #1E0B00",
"N 	c #4A341D",
"O 	c #453015",
"P 	c #423417",
"Q 	c #423117",
"R 	c #463219",
"S 	c #48321A",
"T 	c #432D16",
"U 	c #472E18",
"V 	c #49331E",
"W 	c #3F2A15",
"X 	c #42301C",
"Y 	c #342311",
"Z 	c #2E1D0B",
"` 	c #321F10",
" .	c #351F11",
"..	c #3C2618",
"+.	c #4E3725",
"@.	c #513B26",
"#.	c #4A311D",
"$.	c #3C2611",
"%.	c #381F0B",
"&.	c #402A15",
"*.	c #452C18",
"=.	c #39200C",
"-.	c #321C07",
";.	c #291000",
">.	c #2D1702",
",.	c #3A210D",
"'.	c #37210C",
").	c #3D2410",
"!.	c #3F2411",
"~.	c #412613",
"{.	c #412814",
"].	c #432815",
"^.	c #402713",
"/.	c #3F2612",
"(.	c #371D0C",
"_.	c #341A09",
":.	c #311706",
"<.	c #2D1302",
"[.	c #281100",
"}.	c #280E00",
"|.	c #270E00",
"1.	c #482C14",
"2.	c #462B10",
"3.	c #3A2F13",
"4.	c #3E2E14",
"5.	c #443017",
"6.	c #3D2710",
"7.	c #3E2511",
"8.	c #422B19",
"9.	c #3A2514",
"0.	c #3C2918",
"a.	c #322111",
"b.	c #2F1D0F",
"c.	c #311E10",
"d.	c #321C0F",
"e.	c #371F15",
"f.	c #391F12",
"g.	c #3B2110",
"h.	c #311804",
"i.	c #432A16",
"j.	c #422915",
"k.	c #472E1A",
"l.	c #49301C",
"m.	c #462D19",
"n.	c #482F1B",
"o.	c #462B16",
"p.	c #472C17",
"q.	c #482D18",
"r.	c #452A15",
"s.	c #442914",
"t.	c #422712",
"u.	c #3F240F",
"v.	c #3F230D",
"w.	c #50321A",
"x.	c #4E3018",
"y.	c #3D3117",
"z.	c #413319",
"A.	c #45331B",
"B.	c #3B2510",
"C.	c #412B16",
"D.	c #3E2916",
"E.	c #342110",
"F.	c #332011",
"G.	c #301A0C",
"H.	c #351A0F",
"I.	c #361C0F",
"J.	c #371E0A",
"K.	c #4B321E",
"L.	c #442B17",
"M.	c #492E19",
"N.	c #4A2F1A",
"O.	c #432813",
"P.	c #3E230E",
"Q.	c #3B200B",
"R.	c #4C301A",
"S.	c #4B2F19",
"T.	c #3A2E14",
"U.	c #3F3117",
"V.	c #412F17",
"W.	c #3B220E",
"X.	c #3C2513",
"Y.	c #37220F",
"Z.	c #341F0C",
"`.	c #35200F",
" +	c #321B0B",
".+	c #371B0D",
"++	c #3B1F11",
"@+	c #402711",
"#+	c #422714",
"$+	c #371C09",
"%+	c #361D07",
"&+	c #3D220F",
"*+	c #462D17",
"=+	c #482D1A",
"-+	c #472C19",
";+	c #492E1B",
">+	c #3C210C",
",+	c #342A11",
"'+	c #3B2C15",
")+	c #392711",
"!+	c #402512",
"~+	c #331A06",
"{+	c #331D08",
"]+	c #3F2413",
"^+	c #402313",
"/+	c #432614",
"(+	c #432712",
"_+	c #432912",
":+	c #422611",
"<+	c #553B24",
"[+	c #50341F",
"}+	c #523821",
"|+	c #412710",
"1+	c #472D16",
"2+	c #482C17",
"3+	c #482E17",
"4+	c #4A2E19",
"5+	c #492F18",
"6+	c #4B2F1A",
"7+	c #4B301B",
"8+	c #341B07",
"9+	c #351C08",
"0+	c #332910",
"a+	c #382912",
"b+	c #36240E",
"c+	c #3F2914",
"d+	c #331805",
"e+	c #381D0A",
"f+	c #361D09",
"g+	c #432A14",
"h+	c #442813",
"i+	c #41220E",
"j+	c #40240E",
"k+	c #3D210B",
"l+	c #523620",
"m+	c #51351F",
"n+	c #533721",
"o+	c #3A1E08",
"p+	c #41250F",
"q+	c #452913",
"r+	c #482C16",
"s+	c #492D17",
"t+	c #472B15",
"u+	c #412611",
"v+	c #362B15",
"w+	c #3A2B14",
"x+	c #3A2812",
"y+	c #381F09",
"z+	c #3F270F",
"A+	c #482914",
"B+	c #482813",
"C+	c #462611",
"D+	c #442510",
"E+	c #432711",
"F+	c #462A14",
"G+	c #4E321C",
"H+	c #4A2E18",
"I+	c #402510",
"J+	c #351A05",
"K+	c #371C07",
"L+	c #433822",
"M+	c #45361F",
"N+	c #483620",
"O+	c #422C17",
"P+	c #4D311C",
"Q+	c #4C301B",
"R+	c #483018",
"S+	c #462C15",
"T+	c #492D15",
"U+	c #5B3D25",
"V+	c #65422C",
"W+	c #65452E",
"X+	c #492A15",
"Y+	c #422610",
"Z+	c #4F331D",
"`+	c #563A24",
" @	c #4C311C",
".@	c #4E331E",
"+@	c #50361F",
"@@	c #40351F",
"#@	c #4B3C27",
"$@	c #4A3824",
"%@	c #442E19",
"&@	c #492D18",
"*@	c #452B14",
"=@	c #452D15",
"-@	c #442A13",
";@	c #4A2E16",
">@	c #65472F",
",@	c #6A4731",
"'@	c #684831",
")@	c #4E2F1A",
"!@	c #553923",
"~@	c #4D321D",
"{@	c #53371F",
"]@	c #413620",
"^@	c #493A25",
"/@	c #48321D",
"(@	c #4B301D",
"_@	c #4A321A",
":@	c #493119",
"<@	c #50341E",
"[@	c #62442C",
"}@	c #64442D",
"|@	c #4C2D18",
"1@	c #442812",
"2@	c #4D311B",
"3@	c #3A1F0A",
"4@	c #4D2E19",
"5@	c #51331B",
"6@	c #332814",
"7@	c #372813",
"8@	c #3A2814",
"9@	c #3E2310",
"0@	c #361B06",
"a@	c #39200A",
"b@	c #3B230B",
"c@	c #3E240D",
"d@	c #42230E",
"e@	c #41220D",
"f@	c #3E220C",
"g@	c #391D07",
"h@	c #391E09",
"i@	c #40260F",
"j@	c #4F3119",
"k@	c #342915",
"l@	c #3B2915",
"m@	c #412716",
"n@	c #362009",
"o@	c #412B14",
"p@	c #3C260F",
"q@	c #412812",
"r@	c #3F250E",
"s@	c #412510",
"t@	c #40240F",
"u@	c #462A15",
"v@	c #3B1F0A",
"w@	c #381E07",
"x@	c #3C200B",
"y@	c #3D220D",
"z@	c #352913",
"A@	c #382914",
"B@	c #3E2715",
"C@	c #402615",
"D@	c #361C0B",
"E@	c #35200B",
"F@	c #3E2914",
"G@	c #37220D",
"H@	c #3B2611",
"I@	c #3B250E",
"J@	c #3F2610",
"K@	c #422913",
"L@	c #3C230D",
"M@	c #3B200D",
"N@	c #362A14",
"O@	c #3A2B16",
"P@	c #3D2B17",
"Q@	c #35230F",
"R@	c #382612",
"S@	c #311F09",
"T@	c #32200C",
"U@	c #3E2413",
"V@	c #3C230F",
"W@	c #2C1201",
"X@	c #2B1402",
"Y@	c #342812",
"Z@	c #392814",
"`@	c #3D2815",
" #	c #3D2312",
".#	c #341D0B",
"+#	c #331E0D",
"@#	c #33200F",
"##	c #32210F",
"$#	c #2E1D09",
"%#	c #311E0D",
"&#	c #412C19",
"*#	c #422B1B",
"=#	c #432918",
"-#	c #4C331F",
";#	c #2B1605",
">#	c #291607",
",#	c #3A2915",
"'#	c #311F0B",
")#	c #2C1B07",
"!#	c #2D1B07",
"~#	c #402B1A",
"{#	c #3C2515",
"]#	c #3A200F",
"^#	c #452C16",
"/#	c #46301B",
"(#	c #2F1A07",
"_#	c #2E1908",
":#	c #352A16",
"<#	c #352613",
"[#	c #301605",
"}#	c #2D1200",
"|#	c #2F1401",
"1#	c #442F1A",
"2#	c #47321D",
"3#	c #48311F",
"4#	c #4A301F",
"5#	c #492F1E",
"6#	c #452F1A",
"7#	c #2E1803",
"8#	c #36210C",
"9#	c #341E09",
"0#	c #36200B",
"a#	c #381D0C",
"b#	c #3A1F0C",
"c#	c #351F0A",
"d#	c #311B04",
"e#	c #4D351D",
"f#	c #4E341D",
"g#	c #342C19",
"h#	c #362714",
"i#	c #3C2A16",
"j#	c #2F1504",
"k#	c #2C1100",
"l#	c #2D1100",
"m#	c #492E1D",
"n#	c #482D1C",
"o#	c #432D18",
"p#	c #2F1904",
"q#	c #2E1904",
"r#	c #341F0A",
"s#	c #3B2414",
"t#	c #372010",
"u#	c #331C0C",
"v#	c #351B0A",
"w#	c #391E0D",
"x#	c #331E09",
"y#	c #321C05",
"z#	c #4E341B",
"A#	c #52341A",
"B#	c #352A18",
"C#	c #382916",
"D#	c #331908",
"E#	c #321704",
"F#	c #301400",
"G#	c #3D210C",
"H#	c #402A13",
"I#	c #452A19",
"J#	c #462B1A",
"K#	c #301A05",
"L#	c #2B1601",
"M#	c #39230E",
"N#	c #3B2412",
"O#	c #371C0B",
"P#	c #391E0B",
"Q#	c #331F07",
"R#	c #331D06",
"S#	c #51371E",
"T#	c #3B301C",
"U#	c #423320",
"V#	c #45331F",
"W#	c #452A17",
"X#	c #452612",
"Y#	c #3E2811",
"Z#	c #422716",
"`#	c #432817",
" $	c #301703",
".$	c #4A3520",
"+$	c #46311C",
"@$	c #45301B",
"#$	c #47301E",
"$$	c #472D1C",
"%$	c #452B1A",
"&$	c #462B18",
"*$	c #563B28",
"=$	c #553A27",
"-$	c #4A2F1C",
";$	c #4A311B",
">$	c #463019",
",$	c #47311A",
"'$	c #473119",
")$	c #43270F",
"!$	c #392E1A",
"~$	c #44321E",
"{$	c #4A2B17",
"]$	c #402514",
"^$	c #412615",
"/$	c #321905",
"($	c #412C17",
"_$	c #482B19",
":$	c #5A3E29",
"<$	c #543924",
"[$	c #3D230C",
"}$	c #3A2F1B",
"|$	c #41321D",
"1$	c #4B2E1C",
"2$	c #442B15",
"3$	c #422D18",
"4$	c #472A18",
"5$	c #472B16",
"6$	c #593D28",
"7$	c #553924",
"8$	c #472F17",
"9$	c #3C2714",
"0$	c #482915",
"a$	c #402311",
"b$	c #3C2712",
"c$	c #3E250F",
"d$	c #432410",
"e$	c #43240F",
"f$	c #462712",
"g$	c #472813",
"h$	c #3B210A",
"i$	c #3C2209",
"j$	c #312612",
"k$	c #382713",
"l$	c #4F301C",
"m$	c #52331F",
"n$	c #482F19",
"o$	c #442916",
"p$	c #422513",
"q$	c #452611",
"r$	c #3E1F0A",
"s$	c #3A2007",
"t$	c #351B02",
"u$	c #4B321C",
"v$	c #362916",
"w$	c #4E2F1B",
"x$	c #4A3019",
"y$	c #351C06",
"z$	c #3A240D",
"A$	c #351F08",
"B$	c #37210A",
"C$	c #3B220C",
"D$	c #39230C",
"E$	c #3F230E",
"F$	c #3B1F07",
"G$	c #49301A",
"H$	c #3C301A",
"I$	c #402F1B",
"J$	c #432E19",
"K$	c #4B2C17",
"L$	c #4A2B16",
"M$	c #462917",
"N$	c #452816",
"O$	c #503520",
"P$	c #4F341F",
"Q$	c #513621",
"R$	c #422C15",
"S$	c #452F18",
"T$	c #4D341E",
"U$	c #452911",
"V$	c #341A03",
"W$	c #40341E",
"X$	c #44331F",
"Y$	c #533722",
"Z$	c #3D240E",
"`$	c #442E17",
" %	c #442511",
".%	c #4C321B",
"+%	c #4D331C",
"@%	c #3D311B",
"#%	c #41311A",
"$%	c #492A16",
"%%	c #4B2B16",
"&%	c #442715",
"*%	c #513520",
"=%	c #48331E",
"-%	c #47311C",
";%	c #462713",
">%	c #4B311A",
",%	c #391F08",
"'%	c #3C220B",
")%	c #3B2913",
"!%	c #4B2C18",
"~%	c #4D2D18",
"{%	c #45270F",
"]%	c #442A11",
"^%	c #462E16",
"/%	c #3E220D",
"(%	c #331803",
"_%	c #46311E",
":%	c #432C1A",
"<%	c #4C2F1D",
"[%	c #422811",
"}%	c #4E321A",
"|%	c #332711",
"1%	c #382610",
"2%	c #41230B",
"3%	c #41250D",
"4%	c #3F2912",
"5%	c #533823",
"6%	c #251300",
"7%	c #2A1905",
"8%	c #412F1B",
"9%	c #442F1C",
"0%	c #4A2D1B",
"a%	c #4D301E",
"b%	c #4F331B",
"c%	c #52361E",
"d%	c #382C16",
"e%	c #3C2A14",
"f%	c #44260E",
"g%	c #523722",
"h%	c #4E321D",
"i%	c #2B1C09",
"j%	c #3C2B19",
"k%	c #3F2C1B",
"l%	c #422D1A",
"m%	c #472C1B",
"n%	c #4C311E",
"o%	c #53351B",
"p%	c #3F301B",
"q%	c #42301A",
"r%	c #472814",
"s%	c #4B2D15",
"t%	c #4D3420",
"u%	c #311C07",
"v%	c #2C1702",
"w%	c #2A1400",
"x%	c #2B1500",
"y%	c #2E1B0A",
"z%	c #251603",
"A%	c #2C1B09",
"B%	c #291806",
"C%	c #2F1806",
"D%	c #4D321F",
"E%	c #472B13",
"F%	c #4D2F17",
"G%	c #3F1E0B",
"H%	c #4F301B",
"I%	c #4B331B",
"J%	c #452E1C",
"K%	c #2A1706",
"L%	c #2D1A09",
"M%	c #2C1908",
"N%	c #271403",
"O%	c #2A1504",
"P%	c #321D0A",
"Q%	c #2D1C0A",
"R%	c #2B1B0B",
"S%	c #2B1A08",
"T%	c #2C1A06",
"U%	c #2D1805",
"V%	c #2D1803",
"W%	c #533A24",
"X%	c #4E361E",
"Y%	c #43220F",
"Z%	c #472712",
"`%	c #442E16",
" &	c #4B3120",
".&	c #442D1B",
"+&	c #483322",
"@&	c #432E1D",
"#&	c #2B1809",
"$&	c #291808",
"%&	c #2C1B0B",
"&&	c #271606",
"*&	c #291605",
"=&	c #281705",
"-&	c #2C1601",
";&	c #523A22",
">&	c #4F351E",
",&	c #432910",
"'&	c #42280F",
")&	c #3E220A",
"!&	c #41301C",
"~&	c #4A2916",
"{&	c #4A2A15",
"]&	c #3C240C",
"^&	c #39230B",
"/&	c #38220B",
"(&	c #402B18",
"_&	c #3F2A17",
":&	c #362312",
"<&	c #321F0E",
"[&	c #3D2817",
"}&	c #3A2311",
"|&	c #3A2512",
"1&	c #432E1B",
"2&	c #4C2B18",
"3&	c #382008",
"4&	c #362008",
"5&	c #341E07",
"6&	c #341F0E",
"7&	c #352211",
"8&	c #331E0B",
"9&	c #422817",
"0&	c #482E1D",
"a&	c #4B301F",
"b&	c #4A2F1E",
"c&	c #452914",
"d&	c #372109",
"e&	c #331C0A",
"f&	c #311C09",
"g&	c #382310",
"h&	c #351E0C",
"i&	c #492C1A",
"j&	c #432412",
"k&	c #452614",
"l&	c #4A2B19",
"m&	c #492A18",
"n&	c #4C2D1B",
"o&	c #4D2E1C",
"p&	c #493824",
"q&	c #503723",
"r&	c #51321E",
"s&	c #53321F",
"t&	c #52321D",
"u&	c #442A19",
"v&	c #482917",
"w&	c #4B2C1A",
"x&	c #412210",
"y&	c #422311",
"z&	c #412412",
"A&	c #4A3B26",
"B&	c #4D3823",
"C&	c #523925",
"D&	c #553622",
"E&	c #54341F",
"F&	c #492E13",
"G&	c #4C2D19",
"H&	c #4D2E1A",
"I&	c #3F2210",
"J&	c #3E2111",
"K&	c #3D2211",
"L&	c #42331E",
"M&	c #4C2C17",
"N&	c #4A2C14",
"O&	c #4C2E14",
"P&	c #4B2F17",
"Q&	c #462C1B",
"R&	c #43311B",
"S&	c #4C2E16",
"T&	c #4D2F15",
"U&	c #392D17",
"V&	c #402E18",
"W&	c #492B13",
"X&	c #4A2C12",
"Y&	c #402810",
"Z&	c #4E2E19",
"`&	c #462A12",
" *	c #442810",
".*	c #3A2009",
"+*	c #4A2F14",
"@*	c #3A210B",
"#*	c #3D2813",
"$*	c #38230E",
"%*	c #301B06",
"&*	c #38220D",
"**	c #392E18",
"=*	c #3D2D16",
"-*	c #311B06",
";*	c #3E260E",
">*	c #3C311B",
",*	c #403019",
"'*	c #402B16",
")*	c #45301D",
"!*	c #402917",
"~*	c #3D321C",
"{*	c #43331C",
"]*	c #463120",
"^*	c #492F20",
"/*	c #473020",
"(*	c #412718",
"_*	c #492914",
":*	c #492912",
"<*	c #4A2A13",
"[*	c #51321D",
"  . + +   + + . @ # $ # % @ & * = - ; > , ' , ) ! ~ { ] ] ^ / ( _ ( ( : < [ [ } | 1 2 3 4 5 6 7 8 ",
"9 0 a b c d c 0 e f g h i e j k l m n o p q r s t u v w x y z A A A B C D E E F G H I J K L M N O ",
"P Q R S T U V W X Y Z `  ...D +.@.#.$.%.&.*.&.=.-.;.>.,.'.=.=.).!.~.{.].{.^./.%.(._.:.<.[.}.|.1.2.",
"3.4.5.6.).7.8.9.0.a.b.c.d.e.f.g./.^.7.7.{.,.h.).i.j.k.l.*.m.n.o.p.q.q.q.p.r.s.o.p.p.p.r.t.u.v.w.x.",
"y.z.A.B./.7.C.D.0.E.F.F.G.H.I.A /.).7.7.7.J.h.=.m.#.K.l.L.m.n.q.M.M.N.M.p.r.s.p.q.N.N.q.O.P.Q.R.S.",
"T.U.V.B./.7.W.X.Y.Z.`.`. +.+++~.@+!.U #+@+$+%+&+*+=+U -+*+;+r.o.p.q.M.M.p.o.r.p.q.M.M.o.O.u.>+p.p.",
",+'+)+s ^.!+~+%.{+'.X.A ]+^+/+(+_+:+<+[+}+:+|+:+1+2+3+4+5+6+t.s.r.q.N.7+7+7+7+M.M.N.N.N.N.N.N.8+9+",
"0+a+b+c+^.#+d+e+f+7.g+O.h+i+i+j+v.k+l+m+n+j+o+p+q+r+R.s+t+r+p+u.u+s.p.M.N.N.N.p.p.p.p.p.p.q.M.8+9+",
"v+w+x+s /.O.Q.>+y+@+z+j+A+B+C+D+E+F+m+l+G+E+k+r+t+r+G+H+F+s+F+u.I+O.r.p.p.p.p.o.p.q.q.q.p.r.r.J+K+",
"L+M+N+O+m.P+Q+p.O.R+S+T+U+V+W+X+F+r+p+E+Y+Z+`+Z+t+Y+t+t+q+H+r+r.o.q.N.7+N.N.M.u+s.q.7+ @ @N.q..@+@",
"@@#@$@%@j.&@&@*@5+=@-@;@>@,@'@)@S.t+E+j+E+S.m+!@R.s+s+r+S.H+E+q.q.q.q.q.q.q.q.Q.u.N.M.~@o.M.q.G+{@",
"]@^@$@/@n.(@p.s.R+_@:@<@[@}@}@|@s+t+1@p+E+s+G+2@s+s+s+F+r+H+r+o.o.o.o.o.o.o.o.3@P.p.o.N.s.p.S+4@5@",
"6@7@8@B /.9@0@K+a@@+b@c@p+d@e@j+p+p+v.f@v.p+1@v.v.p+v.g@g@k+v.I+I+I+I+I+I+I+I+0@h@u.u.u+P.I+i@|@j@",
"k@7@l@z m@!+9+J.n@o@p@q@r@s@Y+t@i@:+|+:+|+:+|+h+*@u@|+v@w@x@P.t.t.t.t.t.t.t.t.>+y@u.I+t.u+t.t.t+s+",
"z@A@l@B@C@A D@y E@F@G@H@I@~.O.!+J@~.K@].K@~.J@~.@+!.L@M@a@M@y@u+u+u+u+u+u+u+u+P.y@>+P.P.I+u+u+q.q.",
"N@O@P@B@A A y Y.Q@R@S@T@r U@^./.7.)./.^.{./.).7./.V@V@{.i.i.*.q.q.q.q.q.q.q.q.p.r.I+O.t.p.o.U W@X@",
"Y@Z@`@B U@ #.#+#@###$#%#&#*#=#i.{.7./.j.i.j.{.7.^.).7.*.n.l.-#p.p.p.p.p.p.p.p.q.o.P.u+u.o.r.m.;#>#",
"z@,#D.z C@A D@.#Q@'#)#!#~#{#]#{.7.,.,.).s /.$./.c+/./.*.m.m.K.n.n.;+;+;+M.;+M.(@q.u.q@J@U ^#/#(#_#",
":#<#P@[#}#|#=+).s C.1#2#3#4#5#k.l.6#7#7#t s p $.8#9#0#s C.j.^.m@X.]#D@_.9+a#b#U@^.j.o c+c#E@d#e#f#",
"g#h#i#j#k#l#t@u+q@g+T 6#k.m#n#m.k.o#p#q#q#H@p p 8#r#E@q s /.7.B s#t#u#_.v#a#w# #m@{.o $.x#r#y#z#A#",
"B#C#l@D#E#F#G#s.g+K@H#j.i.I#J#k.*.L.K#t L#G@r p r G@G@M#).7.7.B@N#]#(.O#a#P#M@!+{.).$.n@Q#Q#R#S#{@",
"T#U#V#i.W#X#4+&@^#K@Y#/./.Z#`#f+9+=. $c#r#1#.$+$+$@$%@m.m.n.#.4##$$$%$I#W#&$-+*$=$-$;$^#>$,$'$i@)$",
"!$U#~$m.-${$4+6+*+g+Y#7.7.]$^$b#P#V@/$c#{+($@$@$@$6#o#*.*.=+l.l.n.k.m.&$_$_$&@:$<$r.^#K@R+:@R+[$r@",
"}$|$X n.1${$&@4+q.2$H#^./.]$]$P#b#/.~+'.'.1#+$3$($&.&.i.*.-+-+m.m.m.&$4$5$2+2+6$7$4+M.3+R+_@8$|+|+",
"6@,#9$W#4$0$5$r+3+*+^#L.j.!+a$W#=+l.J.c#{+b$p H@G@0#'.).^.#+!+c$J@I+I+s@s@d$e$f$A+g$1@E+h$i$w@8$^#",
"j$k$`@;+6+l$m$t+1+U n$m.o$p$a$o$;+K.J.0#0#W p H@G@9#'./.i.o$~.J@J@u+t.(+(+q$q$r$q$)@|@r+o+s$t$u$n$",
"v$,#9$(@6+w$g$S.x$:@R+q.r./+p$.@N.n$y$R#n@Y#o@z$A$R#B$q@C$u.y@@+D$g+I+t@E$e$d@e@q$)@|@H+v.F$t$G$*+",
"H$I$J$q.&@K$L$r+1+3+R+q.p.M$N$O$P$Q$q@J@I@6.6.o@R$T S$T$*+M.s.p@D$*+*+q.&@4+X+e$q$K$X+s+E+U$_+V$%+",
"W$X$2#r.5$X+|@t+1+3+8$q.p.M$N$Y$P$O$K@J@Z$I@z$Y#`$G$U 7+p.&@u.q G@6#n.#.N.Q+4+d$ %2+5$H+r+.%+%V$V$",
"@%#%1#o.$%%%L$X+1+3+8$q.o.N$&%*%P+ @s.q@q@Y#H#o@m u$*+ @7+Q+>+B.p =%/@-%m.;+&@d$;%4+&@Q+r+>%x$,%'%",
"N@)%s &@!%~%f${%]%S+^%q.q.2+{$s@/%P.P.L@J@z$p@6.S$n$^#P$.@4+(%q#'#~$_%:%^.~.!+M$4$<%&@q.t.O.[%Z+}%",
"|%1%q 4+!%~%D+2%3%_+=@M.N.w$w$:+/%>+u.c$q@I@4%I@R$n$n$<$5%4+ $6%7%8%~$9%z /.&+1$0%a%M$s.y@u.P.b%c%",
"d%e%c+5$$%%%f$f%)$-@1+q.q.!%!%5$s@y@t.Z$J@A$D$Y#T U U 5%g%h%%.!#i%j%k%l%z A ]#J#m%n%=+-+!.7.y@c%o%",
"p%q%k.h+r%B+X+s%T+3+8$o.s.(+s@P+p.p.t%k.C.-.u%v%q#>.w%9+J.b#x%y%z%A%B%!#(#C%W@U@o$D%~@.@s.@+y@E%F%",
"I$1#n%X#G%C+H%K$S+I%'$n$L@Z$I+-$k.k.B@J%l%K%L%M%N%O%O%P%P%.#v Q%R%A%S%T%U%V%7#B.g+W%X%+@i@i@h$H+H+",
"8%O+-$r%Y%Z%K$K$1+R+`%T Y#@+@+#.l. &.&+&@&#&$&%&&&>#*&%#'#Z.(#N%=&K%M%v U%-&x%D$q@;&>&}+,&'&)&G+2@",
"!&&.-$!%~&{&A+e$i@]&^&/&p@L@C$t.@+{.B.(&_&M%y%:&<&<&<&[&`@B@}&|&9$(&1&J%:%j.{.L@I+7+s+R.E+t+q+q+q+",
"I$c+=+!%2&{&D+d@i@3&4&5&4%c$L@P.y@P.W.c+D.6&E.7&%#<&8&9$s s M#C@9&%$0&a&b&;+-+s@(+&@c&&@F+w$H%H+t+",
"!&($n.!%2&{&D+d@i@3&d&n@H#@+u.f@r@i@J@{.$.e&f&g&8&Z.h&B /.^.C$#+&%N$4$_$i&0%0%j&k&l&m&n&{$o&w$H+r+",
"p&.$q&r&s&t&K$|@5+^%`%`$u$7+x$1.;@S.x$7+n.u&8.:%`@z o l.G$;$o.u@v&v&v&m&l&w&n&x&x&y&a$j&z&k&/+(+1@",
"A&B&C&*%D&E&K$X+*@8$8$n$2$o.1+1.F&1.3+q.U l.-%o#o {.{.(@N.7+S+s+!%G&H&H&H&4+&@/+p$I&9@J&K&J&I&/%j+",
"L&1#l.4+w$M&e@D+i@1+=@U L@I+E+N&O&;@P&1+O.j.^.o q ).L@o.o.1+[%Y+1@5$2+2+c&:+u.;+-$;+#.$$Q&m@!.Y$<@",
"H$R&6#&@0$B+D+d@[%*@^%p.r.(+j+S&T&F%P&3+-@J@Z$).7.@+Z$o.3+t+[$c@c@p.q.7+Z$c$@+k.-%/@/#8.z B /.g%m+",
"U&V&o#4+{$%%g$D+_+S+8$q.o.h+Y+W&X&N&1.S+-@K@q@^./.q@J@q.5+s+r@Y&6.*+`$n$p@4%o@o C.3$3$(&D.`@c+P$Z+",
"N@e%C.4+H&Z&L$f$*@3+R+M.q.u@f$s%X&`& *[%t.{.{.M#'.W.a@t.O.[%.*n@E@$.b$c+8#8#8#x#8#p H@H@p H@o O.1@",
"N@)%&.&@H&Z&X+X+r+5+:@N.M.{$X+j@+*`&|+u.Z$7.$.M#0#%.J.u+I+I+@*K#x#r #*F@$*x#%*c#&*$.o o Y#&.g+i@Y+",
"**=*W o.$%%%g$K$s+5+x$N.M.!%K$P&1.q+|+u.c$/.B@}&Z.c#9#/.c$c$C$-*Z.Y.|&N#}&9#-*y+C$J@@+J@;*I+[%Y+E+",
">*,*'*O.:+Z%f$K$H+5+5+M.4+G&!%E+)$[%[%K@O+:%J%)*D.B@c+l.k.G$k.:%1&!*!*z $$*.o$u+s.2+r+t+F+A+X+Z+m+",
"~*{*($I+E$C+A+K$s+3+3+&@&@!%!%v.i@t.r.m./##$_%]*`@9$`@-%%@n.n.^*/*(*C  #m#;+i&t@(+X+L$_*:*:*<*[*m+"};
